# Blender 5.1.1
# www.blender.org
mtllib body.mtl
g park_cheshirecat_ob0_L0.body_park_cheshirecat_model0
v -0.010284 -0.314405 -0.026169
v 0.000000 -0.306715 0.021393
v -0.025925 -0.311475 0.022644
v -0.013306 -0.307081 0.021652
v -0.017960 -0.315870 -0.026001
v -0.021561 -0.292066 0.075623
v -0.033600 -0.271680 0.134155
v 0.000000 -0.230909 0.191650
v -0.044250 -0.232374 0.189331
v 0.000000 -0.181348 0.224487
v -0.053802 -0.182813 0.220825
v -0.056671 -0.125684 0.238037
v 0.000000 -0.123975 0.242188
v -0.057861 -0.063184 0.241089
v -0.049225 -0.300489 0.074280
v -0.068787 -0.271436 0.132568
v -0.087097 -0.232374 0.181763
v -0.101196 -0.184034 0.209961
v -0.107178 -0.128126 0.224609
v -0.108459 -0.065870 0.226318
v -0.106628 -0.007520 0.220337
v -0.056061 -0.005079 0.234497
v -0.103394 0.046679 0.211670
v -0.052399 0.050585 0.224243
v -0.104675 -0.281690 0.117615
v -0.097595 -0.268751 0.138428
v -0.122070 -0.232130 0.168945
v -0.142212 -0.184766 0.188232
v -0.154907 -0.132032 0.198486
v -0.159302 -0.071973 0.200317
v -0.157349 -0.014844 0.196411
v -0.152222 0.038378 0.189453
v -0.184082 -0.186719 0.153687
v -0.197266 -0.136915 0.161133
v -0.202148 -0.078321 0.163574
v -0.200928 -0.024122 0.160400
v -0.195679 0.027148 0.155640
v -0.188110 0.076952 0.150269
v -0.145996 0.086230 0.181519
v -0.180176 0.118945 0.146240
v -0.139038 0.129687 0.173218
v -0.172241 0.158495 0.142700
v -0.132446 0.167773 0.165771
v -0.234619 -0.037794 0.113647
v -0.229858 0.011034 0.110168
v -0.221924 0.059863 0.107361
v -0.213623 0.102831 0.106445
v -0.205566 0.140917 0.107117
v -0.197754 0.182421 0.109924
v -0.163086 0.197070 0.138184
v -0.194458 0.204882 0.109741
v -0.145020 0.245898 0.123840
v -0.177124 0.252245 0.098267
v -0.126831 0.278613 0.100403
v -0.125488 0.205859 0.155762
v -0.113525 0.245409 0.138428
v -0.097229 0.277636 0.114258
v -0.103943 0.305956 0.070618
v -0.153931 0.285449 0.078369
v -0.124756 0.309863 0.055023
v -0.140015 0.316210 0.039795
v -0.105591 0.323534 0.036041
v -0.077820 0.330370 0.036102
v -0.073181 0.305956 0.089844
v -0.220337 0.208300 0.087219
v -0.159912 0.325488 0.004768
v -0.106506 0.335253 0.003838
v -0.078430 0.339648 0.004845
v -0.037354 0.347949 0.004730
v -0.037476 0.334277 0.055511
v -0.037170 0.307421 0.101929
v -0.037872 0.280077 0.128784
v -0.040558 0.247851 0.153076
v -0.073608 0.279101 0.122314
v -0.079163 0.246386 0.147583
v -0.042389 0.215136 0.170410
v -0.082947 0.211230 0.165405
v -0.044617 0.174609 0.187256
v -0.089111 0.173144 0.179321
v -0.046906 0.137988 0.199463
v -0.093872 0.135058 0.190308
v -0.049622 0.094531 0.213257
v -0.098938 0.092089 0.201904
v -0.028015 -0.318799 -0.075928
v -0.051514 -0.309034 -0.121033
v -0.096619 -0.292310 -0.149414
v -0.160645 -0.273633 -0.143677
v -0.208008 -0.259717 -0.117493
v -0.246826 -0.250684 -0.070862
v -0.258789 -0.251417 -0.010193
v -0.024368 -0.318922 -0.026184
v -0.020081 -0.316846 -0.076538
v -0.037201 -0.308057 -0.127930
v -0.085571 -0.281690 -0.177856
v -0.119324 -0.265577 -0.172241
v -0.164551 -0.247022 -0.157227
v -0.213379 -0.237012 -0.124329
v -0.250244 -0.229932 -0.072083
v -0.262207 -0.229444 -0.008362
v -0.222778 -0.188184 0.117554
v -0.210449 -0.231885 0.108215
v -0.255371 -0.188184 0.064941
v -0.250488 -0.232130 0.058563
v -0.267578 -0.187452 -0.004574
v -0.256592 -0.187940 -0.074768
v -0.219604 -0.190382 -0.132446
v -0.163940 -0.199903 -0.181763
v -0.171753 -0.139844 -0.182739
v -0.221924 -0.148145 -0.134521
v -0.256348 -0.151319 -0.074341
v -0.268555 -0.151807 -0.005642
v -0.257324 -0.146436 0.064758
v -0.232666 -0.141553 0.118835
v -0.223267 -0.099317 -0.131592
v -0.255371 -0.105176 -0.073181
v -0.267090 -0.104200 -0.006397
v -0.258789 -0.097120 0.059937
v -0.235962 -0.086866 0.117188
v -0.177246 -0.091016 -0.174927
v -0.126343 -0.078565 -0.207275
v -0.132324 -0.034376 -0.198608
v -0.180664 -0.042432 -0.166138
v -0.222656 -0.048536 -0.126831
v -0.252930 -0.055128 -0.071106
v -0.264160 -0.056837 -0.007042
v -0.257080 -0.049512 0.056763
v -0.252441 -0.004102 0.054749
v -0.259766 -0.012891 -0.006779
v -0.248657 -0.010450 -0.068237
v -0.219727 -0.003614 -0.122192
v -0.180542 0.004687 -0.159668
v -0.135010 0.013964 -0.191162
v -0.088745 0.019335 -0.210205
v -0.085205 -0.029005 -0.216675
v -0.244507 0.042773 0.052826
v -0.253174 0.032519 -0.006207
v -0.243164 0.033984 -0.065247
v -0.215698 0.040331 -0.117188
v -0.178589 0.049120 -0.155762
v -0.135132 0.056445 -0.186035
v -0.089661 0.062304 -0.205444
v -0.132812 0.104296 -0.181519
v -0.174438 0.095019 -0.152832
v -0.211304 0.083788 -0.113525
v -0.237183 0.075488 -0.061920
v -0.246216 0.074023 -0.005436
v -0.237183 0.083300 0.052307
v -0.233154 0.120409 0.056183
v -0.240234 0.107226 -0.004478
v -0.234253 0.107226 -0.059601
v -0.207031 0.123827 -0.114807
v -0.169067 0.135058 -0.152954
v -0.128418 0.146777 -0.179199
v -0.159058 0.184374 -0.159790
v -0.121155 0.193652 -0.178833
v -0.234863 0.156542 0.068054
v -0.242920 0.133105 -0.001972
v -0.240845 0.136523 -0.056519
v -0.203247 0.159472 -0.121277
v -0.185059 0.206347 -0.147339
v -0.142090 0.241015 -0.158691
v -0.111206 0.240038 -0.172119
v -0.102661 0.279589 -0.150024
v -0.130981 0.281054 -0.138550
v -0.126709 0.300097 -0.125122
v -0.104309 0.310351 -0.115601
v -0.135986 0.315722 -0.090271
v -0.098206 0.332812 -0.068359
v -0.076660 0.331347 -0.083130
v -0.072937 0.307909 -0.129639
v -0.036713 0.333300 -0.098633
v -0.035278 0.308398 -0.140503
v -0.071533 0.280566 -0.158813
v -0.034790 0.282031 -0.164795
v -0.172607 0.249316 -0.144897
v -0.152222 0.306445 -0.101807
v -0.110107 0.336718 -0.050385
v -0.078552 0.341113 -0.050751
v -0.037018 0.347460 -0.049927
v 0.000000 0.335253 -0.102661
v 0.000000 0.238085 -0.189819
v -0.037598 0.238574 -0.188110
v 0.000000 0.201952 -0.201172
v -0.040710 0.200976 -0.199341
v 0.000000 0.153613 -0.210205
v -0.043274 0.153613 -0.207153
v -0.044556 0.115038 -0.212769
v 0.000000 0.067187 -0.224121
v -0.075745 0.237597 -0.182495
v -0.081543 0.197070 -0.192017
v -0.086060 0.150683 -0.196655
v -0.088501 0.110644 -0.200562
v -0.045074 0.066210 -0.218750
v -0.044312 0.024218 -0.223511
v -0.042023 -0.024122 -0.229858
v 0.000000 0.025683 -0.230591
v 0.000000 -0.021192 -0.236328
v -0.039001 -0.062208 -0.235107
v -0.032928 -0.102735 -0.238770
v 0.000000 -0.100782 -0.240356
v -0.079468 -0.069288 -0.223511
v -0.070435 -0.111768 -0.230957
v -0.116394 -0.127149 -0.218018
v -0.118835 -0.181348 -0.218872
v -0.114990 -0.228956 -0.205933
v -0.074707 -0.222364 -0.236572
v -0.071411 -0.258741 -0.213135
v -0.061157 -0.246534 -0.236450
v -0.040375 -0.263380 -0.236694
v -0.043304 -0.274610 -0.213745
v -0.045074 -0.294385 -0.173950
v -0.021988 -0.282178 -0.213745
v -0.022415 -0.300611 -0.172119
v -0.017868 -0.310987 -0.127075
v -0.010063 -0.315870 -0.076660
v 0.000000 -0.273878 -0.236816
v 0.000000 -0.285108 -0.213013
v 0.000000 -0.302442 -0.171875
v 0.000000 -0.312330 -0.127441
v 0.000000 -0.315870 -0.076050
v 0.000000 -0.314649 -0.026260
v -0.246948 -0.259473 0.050873
v -0.204834 -0.269971 0.085205
v -0.155151 -0.283399 0.104675
v -0.107361 -0.296949 0.100647
v -0.061737 -0.309034 0.069336
v -0.034088 -0.316724 0.022385
v -0.155396 -0.261671 0.121033
v -0.158081 -0.231153 0.144409
v -0.019928 -0.270948 -0.236816
v -0.083984 -0.196973 -0.239014
v -0.077271 -0.164258 -0.243164
v -0.052826 -0.143751 -0.244507
v -0.025269 -0.132276 -0.244385
v -0.157959 0.289843 -0.123047
v -0.159180 0.326464 -0.051666
v -0.180176 0.301562 0.048157
v -0.201538 0.262988 0.078552
v 0.240845 0.136523 -0.056519
v 0.203247 0.159472 -0.121277
v 0.185059 0.206347 -0.147339
v 0.172607 0.249316 -0.144897
v 0.152222 0.306445 -0.101807
v 0.159180 0.326464 -0.051666
v 0.180176 0.301562 0.048157
v 0.201538 0.262988 0.078552
v 0.220337 0.208300 0.087219
v 0.028015 -0.318799 -0.075928
v 0.051514 -0.309034 -0.121033
v 0.096619 -0.292310 -0.149414
v 0.160645 -0.273633 -0.143677
v 0.208008 -0.259717 -0.117493
v 0.246826 -0.250684 -0.070862
v 0.258789 -0.251417 -0.010193
v 0.246948 -0.259473 0.050873
v 0.204834 -0.269971 0.085205
v 0.250488 -0.232130 0.058563
v 0.210449 -0.231885 0.108215
v 0.255371 -0.188184 0.064941
v 0.222778 -0.188184 0.117554
v 0.232666 -0.141553 0.118835
v 0.197266 -0.136915 0.161133
v 0.235962 -0.086866 0.117188
v 0.202148 -0.078321 0.163574
v 0.234619 -0.037794 0.113647
v 0.200928 -0.024122 0.160400
v 0.229858 0.011034 0.110168
v 0.195679 0.027148 0.155640
v 0.221924 0.059863 0.107361
v 0.188110 0.076952 0.150269
v 0.213623 0.102831 0.106445
v 0.180176 0.118945 0.146240
v 0.205566 0.140917 0.107117
v 0.172241 0.158495 0.142700
v 0.197754 0.182421 0.109924
v 0.234863 0.156542 0.068054
v 0.194458 0.204882 0.109741
v 0.177124 0.252245 0.098267
v 0.153931 0.285449 0.078369
v 0.140015 0.316210 0.039795
v 0.159912 0.325488 0.004768
v 0.106506 0.335253 0.003838
v 0.078430 0.339648 0.004845
v 0.037018 0.347460 -0.049927
v 0.037354 0.347949 0.004730
v 0.000000 0.351367 -0.048676
v 0.000000 0.352343 0.006229
v 0.037476 0.334277 0.055511
v 0.000000 0.335742 0.062988
v 0.037170 0.307421 0.101929
v 0.000000 0.308398 0.106812
v 0.037872 0.280077 0.128784
v 0.000000 0.280077 0.131836
v 0.040558 0.247851 0.153076
v 0.000000 0.247851 0.155273
v 0.000000 0.215136 0.172729
v 0.042389 0.215136 0.170410
v 0.000000 0.175585 0.189697
v 0.044617 0.174609 0.187256
v 0.000000 0.138476 0.202759
v 0.046906 0.137988 0.199463
v 0.000000 0.095019 0.216675
v 0.049622 0.094531 0.213257
v 0.000000 0.051074 0.228516
v 0.052399 0.050585 0.224243
v 0.000000 -0.005079 0.239014
v 0.056061 -0.005079 0.234497
v 0.057861 -0.063184 0.241089
v 0.000000 -0.063428 0.245728
v 0.056671 -0.125684 0.238037
v 0.053802 -0.182813 0.220825
v 0.044250 -0.232374 0.189331
v 0.033600 -0.271680 0.134155
v 0.000000 -0.270704 0.134766
v 0.021561 -0.292066 0.075623
v 0.000000 -0.290357 0.075928
v 0.049225 -0.300489 0.074280
v 0.068787 -0.271436 0.132568
v 0.087097 -0.232374 0.181763
v 0.101196 -0.184034 0.209961
v 0.107178 -0.128126 0.224609
v 0.108459 -0.065870 0.226318
v 0.106628 -0.007520 0.220337
v 0.103394 0.046679 0.211670
v 0.098938 0.092089 0.201904
v 0.093872 0.135058 0.190308
v 0.089111 0.173144 0.179321
v 0.082947 0.211230 0.165405
v 0.079163 0.246386 0.147583
v 0.073608 0.279101 0.122314
v 0.073181 0.305956 0.089844
v 0.077820 0.330370 0.036102
v 0.105591 0.323534 0.036041
v 0.124756 0.309863 0.055023
v 0.103943 0.305956 0.070618
v 0.126831 0.278613 0.100403
v 0.145020 0.245898 0.123840
v 0.163086 0.197070 0.138184
v 0.132446 0.167773 0.165771
v 0.139038 0.129687 0.173218
v 0.145996 0.086230 0.181519
v 0.152222 0.038378 0.189453
v 0.157349 -0.014844 0.196411
v 0.159302 -0.071973 0.200317
v 0.154907 -0.132032 0.198486
v 0.184082 -0.186719 0.153687
v 0.158081 -0.231153 0.144409
v 0.155396 -0.261671 0.121033
v 0.155151 -0.283399 0.104675
v 0.024368 -0.318922 -0.026184
v 0.010284 -0.314405 -0.026169
v 0.013306 -0.307081 0.021652
v 0.017960 -0.315870 -0.026001
v 0.025925 -0.311475 0.022644
v 0.034088 -0.316724 0.022385
v 0.061737 -0.309034 0.069336
v 0.107361 -0.296949 0.100647
v 0.104675 -0.281690 0.117615
v 0.097595 -0.268751 0.138428
v 0.122070 -0.232130 0.168945
v 0.142212 -0.184766 0.188232
v 0.125488 0.205859 0.155762
v 0.113525 0.245409 0.138428
v 0.097229 0.277636 0.114258
v 0.010063 -0.315870 -0.076660
v 0.017868 -0.310987 -0.127075
v 0.022415 -0.300611 -0.172119
v 0.021988 -0.282178 -0.213745
v 0.043304 -0.274610 -0.213745
v 0.071411 -0.258741 -0.213135
v 0.114990 -0.228956 -0.205933
v 0.118835 -0.181348 -0.218872
v 0.116394 -0.127149 -0.218018
v 0.070435 -0.111768 -0.230957
v 0.052826 -0.143751 -0.244507
v 0.032928 -0.102735 -0.238770
v 0.025269 -0.132276 -0.244385
v 0.000000 -0.128858 -0.244507
v 0.000000 -0.059278 -0.238525
v 0.039001 -0.062208 -0.235107
v 0.079468 -0.069288 -0.223511
v 0.126343 -0.078565 -0.207275
v 0.171753 -0.139844 -0.182739
v 0.163940 -0.199903 -0.181763
v 0.164551 -0.247022 -0.157227
v 0.119324 -0.265577 -0.172241
v 0.085571 -0.281690 -0.177856
v 0.045074 -0.294385 -0.173950
v 0.037201 -0.308057 -0.127930
v 0.020081 -0.316846 -0.076538
v 0.213379 -0.237012 -0.124329
v 0.250244 -0.229932 -0.072083
v 0.262207 -0.229444 -0.008362
v 0.267578 -0.187452 -0.004574
v 0.268555 -0.151807 -0.005642
v 0.257324 -0.146436 0.064758
v 0.258789 -0.097120 0.059937
v 0.257080 -0.049512 0.056763
v 0.252441 -0.004102 0.054749
v 0.244507 0.042773 0.052826
v 0.237183 0.083300 0.052307
v 0.233154 0.120409 0.056183
v 0.242920 0.133105 -0.001972
v 0.240234 0.107226 -0.004478
v 0.234253 0.107226 -0.059601
v 0.207031 0.123827 -0.114807
v 0.169067 0.135058 -0.152954
v 0.159058 0.184374 -0.159790
v 0.142090 0.241015 -0.158691
v 0.130737 0.280566 -0.137573
v 0.157959 0.287890 -0.118164
v 0.126709 0.300097 -0.125122
v 0.135986 0.315722 -0.090271
v 0.110107 0.336718 -0.050385
v 0.098206 0.332812 -0.068359
v 0.078552 0.341113 -0.050751
v 0.076660 0.331347 -0.083130
v 0.036713 0.333300 -0.098633
v 0.035278 0.308398 -0.140503
v 0.000000 0.309863 -0.142944
v 0.034790 0.282031 -0.164795
v 0.000000 0.283495 -0.166382
v 0.037598 0.238574 -0.188110
v 0.040710 0.200976 -0.199341
v 0.043274 0.153613 -0.207153
v 0.000000 0.115527 -0.216675
v 0.044556 0.115038 -0.212769
v 0.045074 0.066210 -0.218750
v 0.044312 0.024218 -0.223511
v 0.042023 -0.024122 -0.229858
v 0.085205 -0.029005 -0.216675
v 0.132324 -0.034376 -0.198608
v 0.177246 -0.091016 -0.174927
v 0.223267 -0.099317 -0.131592
v 0.221924 -0.148145 -0.134521
v 0.255371 -0.105176 -0.073181
v 0.256348 -0.151319 -0.074341
v 0.256592 -0.187940 -0.074768
v 0.219604 -0.190382 -0.132446
v 0.252930 -0.055128 -0.071106
v 0.222656 -0.048536 -0.126831
v 0.180664 -0.042432 -0.166138
v 0.180542 0.004687 -0.159668
v 0.135010 0.013964 -0.191162
v 0.178589 0.049120 -0.155762
v 0.135132 0.056445 -0.186035
v 0.174438 0.095019 -0.152832
v 0.132812 0.104296 -0.181519
v 0.211304 0.083788 -0.113525
v 0.237183 0.075488 -0.061920
v 0.215698 0.040331 -0.117188
v 0.243164 0.033984 -0.065247
v 0.219727 -0.003614 -0.122192
v 0.248657 -0.010450 -0.068237
v 0.246216 0.074023 -0.005436
v 0.253174 0.032519 -0.006207
v 0.259766 -0.012891 -0.006779
v 0.264160 -0.056837 -0.007042
v 0.267090 -0.104200 -0.006397
v 0.128418 0.146777 -0.179199
v 0.121155 0.193652 -0.178833
v 0.111206 0.240038 -0.172119
v 0.102661 0.279589 -0.150024
v 0.104309 0.310351 -0.115601
v 0.072937 0.307909 -0.129639
v 0.071533 0.280566 -0.158813
v 0.075745 0.237597 -0.182495
v 0.081543 0.197070 -0.192017
v 0.086060 0.150683 -0.196655
v 0.088501 0.110644 -0.200562
v 0.089661 0.062304 -0.205444
v 0.088745 0.019335 -0.210205
v 0.019928 -0.270948 -0.236816
v 0.040375 -0.263380 -0.236694
v 0.061157 -0.246534 -0.236450
v 0.074707 -0.222364 -0.236572
v 0.083984 -0.196973 -0.239014
v 0.077271 -0.164258 -0.243164
vn -0.0101 -0.9956 0.0931
vn 0.0169 -0.9754 0.2198
vn 0.0501 -0.9945 0.0920
vn -0.0546 -0.9562 -0.2875
vn -0.4012 -0.8816 0.2488
vn -0.1765 -0.9580 0.2260
vn -0.2603 -0.9622 0.0804
vn -0.0000 -0.6889 0.7248
vn 0.0666 -0.6883 0.7224
vn 0.1228 -0.4180 0.9001
vn -0.0000 -0.4198 0.9076
vn 0.1576 -0.1674 0.9732
vn -0.0000 -0.1717 0.9851
vn 0.1771 0.0340 0.9836
vn -0.0000 0.0300 0.9995
vn 0.0017 -0.8475 0.5308
vn -0.0210 -0.8761 0.4817
vn -0.1211 -0.9348 0.3339
vn -0.2489 -0.8623 0.4410
vn 0.1759 -0.6603 0.7301
vn 0.3027 -0.4044 0.8630
vn 0.3538 -0.1604 0.9215
vn -0.9424 0.0397 -0.3320
vn -0.9424 0.0819 -0.3243
vn -0.7960 0.0900 -0.5986
vn -0.7924 0.0466 -0.6082
vn 0.3420 0.2002 0.9181
vn 0.1641 0.2149 0.9628
vn 0.1761 0.1485 0.9731
vn 0.3579 0.1376 0.9236
vn -0.0017 -0.8475 0.5308
vn -0.0666 -0.7598 0.6468
vn 0.2489 -0.8623 0.4410
vn -0.1533 -0.7640 0.6268
vn 0.5496 -0.1701 0.8179
vn 0.4914 -0.3883 0.7796
vn 0.5590 0.0082 0.8291
vn 0.3667 0.0295 0.9299
vn 0.5486 0.1182 0.8277
vn 0.6045 -0.3471 0.7170
vn 0.6918 -0.1628 0.7035
vn 0.7306 -0.0032 0.6828
vn 0.7383 0.1012 0.6669
vn 0.7307 0.1621 0.6632
vn 0.5344 0.1804 0.8257
vn 0.4348 -0.6233 -0.6500
vn 0.5238 -0.4243 -0.7387
vn 0.6043 -0.2262 -0.7639
vn 0.5454 -0.4028 -0.7351
vn 0.5115 0.2210 0.8304
vn 0.7147 0.1930 0.6723
vn 0.6861 0.1931 0.7014
vn 0.4734 0.2411 0.8472
vn 0.8747 0.1679 0.4547
vn 0.8803 0.1474 0.4510
vn 0.8579 0.1239 0.4986
vn -0.6861 0.1931 0.7014
vn -0.8018 0.0816 0.5919
vn -0.8579 0.1239 0.4986
vn 0.8018 0.0816 0.5919
vn 0.7141 0.1162 0.6904
vn 0.6341 0.2024 0.7463
vn 0.5433 0.3099 0.7803
vn 0.6036 0.2637 0.7524
vn 0.4567 0.5190 0.7225
vn 0.4204 0.5358 0.7322
vn 0.2864 0.7325 0.6175
vn 0.3082 0.7253 0.6156
vn 0.3651 0.3739 0.8526
vn 0.4213 0.2713 0.8654
vn 0.2746 0.7093 0.6492
vn 0.3066 0.5488 0.7777
vn 0.1882 0.8351 0.5169
vn 0.6711 0.6736 0.3097
vn 0.1857 0.8747 0.4477
vn -0.1882 0.8351 0.5169
vn -0.1818 0.9015 0.3928
vn -0.1857 0.8747 0.4477
vn -0.2518 0.8315 0.4951
vn -0.2235 0.9104 0.3482
vn 0.2518 0.8315 0.4951
vn 0.2235 0.9104 0.3482
vn 0.1710 0.9088 0.3806
vn 0.2470 0.8078 0.5353
vn 0.7865 0.4701 0.4005
vn -0.5695 0.8216 0.0252
vn -0.6712 0.6732 0.3103
vn 0.1818 0.9015 0.3928
vn 0.1748 0.9686 0.1769
vn 0.1816 0.9707 0.1575
vn 0.1500 0.9799 0.1313
vn -0.2470 0.8078 0.5353
vn -0.1487 0.7808 0.6068
vn -0.1710 0.9088 0.3806
vn 0.1309 0.9808 -0.1445
vn 0.1529 0.9786 -0.1378
vn -0.0000 0.9912 0.1321
vn -0.0000 0.9893 -0.1457
vn -0.0000 0.7725 0.6350
vn 0.1487 0.7808 0.6068
vn -0.0000 0.9124 0.4093
vn -0.0000 0.5339 0.8456
vn 0.0990 0.5377 0.8373
vn 0.1191 0.6550 0.7462
vn -0.0000 0.6390 0.7692
vn -0.0000 0.4302 0.9027
vn 0.1030 0.4266 0.8985
vn -0.1576 -0.1674 0.9732
vn -0.3538 -0.1604 0.9215
vn -0.3027 -0.4044 0.8630
vn -0.1228 -0.4180 0.9001
vn 0.2091 0.4085 0.8885
vn 0.1176 0.3498 0.9294
vn 0.2452 0.3219 0.9145
vn 0.3183 0.2522 0.9138
vn 0.1498 0.2732 0.9502
vn -0.2746 0.7093 0.6492
vn -0.2088 0.6817 0.7012
vn 0.2854 0.2828 0.9157
vn -0.1093 -0.9908 -0.0794
vn 0.0833 -0.9082 -0.4102
vn -0.4836 -0.7852 -0.3867
vn -0.1007 -0.9664 -0.2366
vn 0.1377 -0.9891 -0.0529
vn -0.4348 -0.6233 -0.6500
vn -0.3542 -0.7922 -0.4970
vn -0.4946 -0.7286 -0.4739
vn -0.5454 -0.4028 -0.7351
vn 0.9106 -0.1849 -0.3695
vn 0.7167 -0.6370 -0.2840
vn 0.5608 -0.7269 -0.3964
vn 0.7067 -0.2862 -0.6470
vn 0.9887 -0.1500 -0.0053
vn 0.7778 -0.6236 -0.0779
vn 0.9968 -0.0798 0.0071
vn 0.9234 -0.1420 0.3566
vn 0.8813 -0.2499 0.4011
vn 0.9304 -0.0910 -0.3550
vn 0.7551 -0.1472 -0.6388
vn 0.7807 -0.0203 -0.6246
vn 0.6249 -0.0039 -0.7807
vn 0.9396 -0.0006 -0.3424
vn 0.7924 0.0466 -0.6082
vn 0.6247 0.0697 -0.7777
vn 0.9424 0.0397 -0.3320
vn 0.9991 0.0357 -0.0234
vn 0.9674 0.0239 0.2523
vn 0.9525 -0.0432 0.3015
vn 1.0000 -0.0034 -0.0085
vn 0.8704 0.0080 0.4922
vn 0.8300 -0.1079 0.5472
vn 0.4723 0.1079 -0.8748
vn 0.6322 0.0974 -0.7687
vn 0.4530 0.1027 -0.8856
vn 0.7960 0.0900 -0.5986
vn 0.9424 0.0819 -0.3243
vn -0.0000 0.1347 -0.9909
vn -0.2073 0.1203 -0.9709
vn -0.1834 0.1339 -0.9739
vn -0.0000 0.1472 -0.9891
vn 0.9698 0.0802 0.2302
vn 0.8816 0.0880 0.4637
vn 0.9655 0.1350 0.2228
vn 0.9917 0.1240 -0.0336
vn 0.9964 0.0779 -0.0337
vn 0.3427 0.1045 -0.9336
vn 0.4861 0.1026 -0.8678
vn 0.3335 0.1125 -0.9360
vn 0.9603 0.1684 0.2226
vn 0.9873 0.1568 -0.0254
vn 0.9407 0.1223 -0.3166
vn 0.9404 0.1459 -0.3072
vn 0.6571 0.1100 -0.7457
vn 0.8133 0.1309 -0.5669
vn 0.8014 0.1195 -0.5861
vn 0.6438 0.1074 -0.7576
vn 0.4938 0.1018 -0.8636
vn 0.3459 0.1042 -0.9325
vn 0.6587 0.0965 -0.7462
vn 0.8250 0.1111 -0.5541
vn 0.9466 0.1380 -0.2913
vn -0.8747 0.1679 0.4547
vn -0.9623 0.1487 0.2278
vn -0.9603 0.1684 0.2226
vn 0.9619 0.0194 0.2728
vn 0.9736 0.2260 0.0317
vn 0.9999 0.0108 0.0078
vn 0.9623 0.1487 0.2278
vn 0.9880 0.1535 -0.0148
vn 0.8125 0.0109 -0.5828
vn 0.6216 0.0254 -0.7829
vn 0.4584 0.0768 -0.8854
vn 0.4913 0.0996 -0.8653
vn -0.8714 0.3859 0.3029
vn -0.7141 0.1162 0.6904
vn -0.6036 0.2637 0.7524
vn 0.9420 0.0109 -0.3355
vn 0.9559 0.0132 -0.2934
vn 0.7776 0.1204 -0.6171
vn 0.6907 0.1623 -0.7047
vn -0.9270 0.2508 -0.2790
vn -0.6216 0.0254 -0.7829
vn -0.8125 0.0109 -0.5828
vn 0.5102 0.0435 -0.8589
vn 0.6901 0.2864 -0.6647
vn -0.2029 0.7621 -0.6149
vn -0.2414 0.6010 -0.7619
vn -0.2844 0.5728 -0.7688
vn -0.1655 0.8381 -0.5199
vn -0.1629 0.9142 -0.3711
vn -0.1904 0.7883 -0.5851
vn 0.1904 0.7883 -0.5851
vn 0.1313 0.7703 -0.6240
vn 0.1309 0.9064 -0.4017
vn 0.1629 0.9142 -0.3711
vn 0.1956 0.5991 -0.7764
vn 0.1100 0.5802 -0.8070
vn -0.6022 0.7909 -0.1086
vn -0.2049 0.8935 -0.3995
vn -0.5680 0.6955 -0.4400
vn 0.1667 0.9241 -0.3440
vn 0.1749 0.9725 -0.1537
vn 0.5915 0.7971 -0.1214
vn 0.2049 0.8935 -0.3995
vn -0.1529 0.9786 -0.1378
vn -0.1667 0.9241 -0.3440
vn -0.1749 0.9725 -0.1537
vn -0.0000 0.7677 -0.6408
vn -0.0000 0.9109 -0.4126
vn -0.0000 0.5737 -0.8191
vn 0.1031 0.3812 -0.9187
vn -0.0000 0.3807 -0.9247
vn 0.1834 0.1339 -0.9739
vn -0.0000 0.1659 -0.9861
vn 0.1549 0.1516 -0.9762
vn 0.2073 0.1203 -0.9709
vn 0.2612 0.1845 -0.9475
vn 0.1235 0.2230 -0.9670
vn 0.2126 0.3685 -0.9050
vn 0.3382 0.1110 -0.9345
vn 0.2245 0.1151 -0.9676
vn 0.2223 0.1086 -0.9689
vn 0.1655 0.8381 -0.5199
vn 0.2494 0.6000 -0.7602
vn 0.3254 0.3613 -0.8738
vn 0.3094 0.1170 -0.9437
vn -0.0000 0.1271 -0.9919
vn -0.0000 0.1077 -0.9942
vn 0.1917 0.0879 -0.9775
vn 0.1439 0.1309 -0.9809
vn -0.0000 0.1099 -0.9939
vn -0.0000 0.0775 -0.9970
vn 0.3103 0.1093 -0.9443
vn -0.0254 -0.2007 -0.9793
vn 0.4633 0.0850 -0.8821
vn 0.5537 -0.1059 -0.8260
vn 0.4284 -0.4329 -0.7931
vn -0.1762 0.0724 -0.9817
vn -0.4680 -0.6544 -0.5939
vn -0.5238 -0.4243 -0.7387
vn -0.1990 -0.2555 -0.9461
vn 0.1990 -0.2555 -0.9461
vn 0.4680 -0.6544 -0.5939
vn 0.3395 -0.8120 -0.4747
vn 0.0854 -0.6633 -0.7435
vn 0.2783 0.1703 -0.9453
vn -0.6043 -0.2262 -0.7639
vn -0.5537 -0.1059 -0.8260
vn 0.2356 -0.8977 -0.3722
vn 0.1552 -0.9372 -0.3122
vn 0.1944 -0.8844 -0.4242
vn -0.0000 -0.9889 -0.1487
vn 0.0926 -0.9828 -0.1596
vn -0.0031 -0.9993 -0.0377
vn 0.0021 -0.9997 -0.0236
vn 0.0057 -0.9993 -0.0372
vn -0.9873 0.1568 -0.0254
vn -0.9917 0.1240 -0.0336
vn -0.9655 0.1350 0.2228
vn -0.3579 0.1376 0.9236
vn -0.5486 0.1182 0.8277
vn -0.5590 0.0082 0.8291
vn -0.3667 0.0295 0.9299
vn 0.0546 -0.9562 -0.2876
vn 0.4012 -0.8816 0.2488
vn 0.0983 -0.9353 0.3400
vn 0.6213 -0.4062 0.6700
vn 0.4593 -0.7952 0.3959
vn 0.7229 -0.6370 0.2676
vn -0.2506 -0.9679 -0.0197
vn 0.0617 -0.9706 0.2326
vn 0.3597 -0.6272 0.6908
vn 0.4715 -0.5516 0.6881
vn -0.4715 -0.5516 0.6881
vn -0.3597 -0.6272 0.6908
vn -0.6213 -0.4062 0.6700
vn -0.3473 -0.6076 0.7143
vn 0.7406 -0.2559 0.6213
vn -0.2223 0.1086 -0.9689
vn -0.3335 0.1125 -0.9360
vn -0.3427 0.1045 -0.9336
vn -0.2245 0.1151 -0.9676
vn -0.0000 0.1497 0.9887
vn -0.0000 0.2193 0.9757
vn -0.0000 0.2796 0.9601
vn -0.0000 0.3158 0.9488
vn 0.1344 0.3084 0.9417
vn -0.0000 0.3584 0.9336
vn -0.1956 0.5991 -0.7764
vn -0.4633 0.0850 -0.8821
vn -0.4530 0.1027 -0.8856
vn -0.3103 0.1093 -0.9443
vn -0.2783 0.1703 -0.9453
vn -0.1500 0.9799 0.1313
vn -0.1309 0.9808 -0.1445
vn -0.0990 0.5377 0.8373
vn -0.1191 0.6550 0.7462
vn 0.3287 0.5619 -0.7591
vn 0.3660 0.3461 -0.8639
vn -0.1816 0.9707 0.1575
vn -0.1748 0.9686 0.1769
vn -0.1100 0.5802 -0.8070
vn -0.1313 0.7703 -0.6240
vn -0.7147 0.1930 0.6723
vn -0.9404 0.1459 -0.3072
vn -0.9407 0.1223 -0.3166
vn -0.8704 0.0080 0.4922
vn -0.8816 0.0880 0.4637
vn -0.9698 0.0802 0.2302
vn -0.9674 0.0239 0.2523
vn -0.0666 -0.6883 0.7224
vn -0.1759 -0.6603 0.7301
vn 0.0210 -0.8761 0.4817
vn -0.0689 -0.4416 -0.8946
vn 0.5483 -0.0862 -0.8318
vn -0.9964 0.0779 -0.0337
vn -0.3651 0.3739 0.8526
vn -0.5433 0.3099 0.7803
vn -0.6341 0.2024 0.7463
vn -0.4213 0.2713 0.8654
vn 0.4688 -0.7950 -0.3850
vn -0.6918 -0.1628 0.7035
vn -0.8300 -0.1079 0.5472
vn -0.7406 -0.2559 0.6213
vn -0.6045 -0.3471 0.7170
vn -0.1031 0.3812 -0.9187
vn -0.8701 0.3548 0.3422
vn -0.9619 0.0194 0.2728
vn -0.4204 0.5358 0.7322
vn -0.4567 0.5190 0.7225
vn -0.8803 0.1474 0.4510
vn -0.0791 -0.9926 0.0923
vn -0.9525 -0.0432 0.3015
vn -0.9991 0.0357 -0.0234
vn -1.0000 -0.0034 -0.0085
vn 0.6099 0.7855 0.1052
vn -0.2126 0.3685 -0.9050
vn -0.3219 0.3585 -0.8763
vn 0.2088 0.6817 0.7012
vn 0.1971 0.5440 0.8156
vn -0.0000 -0.9524 0.3048
vn -0.7383 0.1012 0.6669
vn -0.7306 -0.0032 0.6828
vn -0.8133 0.1309 -0.5669
vn -0.8250 0.1111 -0.5541
vn -0.6587 0.0965 -0.7462
vn -0.6571 0.1100 -0.7457
vn -0.2864 0.7325 0.6175
vn -0.0724 -0.6496 -0.7569
vn -0.9304 -0.0910 -0.3550
vn -0.9396 -0.0006 -0.3424
vn -0.7807 -0.0203 -0.6246
vn -0.7551 -0.1472 -0.6388
vn -0.7067 -0.2862 -0.6470
vn -0.9106 -0.1849 -0.3695
vn -0.1439 0.1309 -0.9809
vn -0.1917 0.0879 -0.9775
vn -0.5115 0.2210 0.8304
vn -0.3183 0.2522 0.9138
vn -0.2854 0.2828 0.9157
vn -0.4734 0.2411 0.8472
vn -0.6084 0.5710 -0.5512
vn -0.0000 -0.8886 0.4587
vn 0.2911 -0.5803 -0.7606
vn -0.3082 0.7253 0.6156
vn -0.3066 0.5488 0.7777
vn -0.4938 0.1018 -0.8636
vn -0.4861 0.1026 -0.8678
vn -0.6438 0.1074 -0.7576
vn -0.7611 0.5651 0.3184
vn 0.6906 0.6221 -0.3690
vn 0.7108 0.4190 -0.5649
vn -0.3382 0.1110 -0.9345
vn -0.4913 0.0996 -0.8653
vn -0.4584 0.0768 -0.8854
vn -0.3094 0.1170 -0.9437
vn -0.8506 0.5092 -0.1316
vn -0.9559 0.0132 -0.2934
vn -0.9999 0.0108 0.0078
vn -0.9604 0.0479 0.2744
vn -0.1641 0.2149 0.9628
vn -0.1761 0.1485 0.9731
vn 0.3991 0.1379 -0.9065
vn 0.8714 0.3862 0.3024
vn -0.4723 0.1079 -0.8748
vn -0.1549 0.1516 -0.9762
vn -0.3559 0.3292 -0.8746
vn -0.6640 0.3958 -0.6344
vn -0.6249 -0.0039 -0.7807
vn -0.0000 -0.9519 -0.3064
vn -0.1288 -0.3421 -0.9308
vn -0.3395 -0.8120 -0.4747
vn 0.1007 -0.9664 -0.2366
vn 0.3089 -0.8484 -0.4298
vn -0.7859 0.2810 -0.5508
vn -0.5102 0.0435 -0.8589
vn -0.8151 -0.5789 -0.0216
vn -0.9887 -0.1500 -0.0053
vn -0.7295 -0.6343 -0.2557
vn 0.1930 -0.9551 0.2249
vn 0.2377 -0.9681 0.0797
vn 0.1211 -0.9348 0.3339
vn -0.1309 0.9064 -0.4017
vn -0.5275 -0.7299 -0.4347
vn -0.9968 -0.0798 0.0071
vn -0.8813 -0.2499 0.4011
vn -0.9234 -0.1420 0.3566
vn -0.4914 -0.3883 0.7796
vn -0.1176 0.3498 0.9294
vn -0.1344 0.3084 0.9417
vn -0.0145 -0.9032 0.4290
vn 0.2490 0.7333 -0.6326
vn 0.5736 0.7439 -0.3428
vn -0.1552 -0.9372 -0.3122
vn -0.2356 -0.8977 -0.3722
vn -0.1944 -0.8844 -0.4242
vn -0.0926 -0.9828 -0.1596
vn -0.4977 -0.7864 0.3658
vn -0.6796 -0.6790 0.2776
vn 0.3542 -0.7922 -0.4970
vn -0.9880 0.1535 -0.0148
vn -0.5496 -0.1701 0.8179
vn -0.5344 0.1804 0.8257
vn -0.7307 0.1621 0.6632
vn -0.1235 0.2230 -0.9670
vn -0.2612 0.1845 -0.9475
vn 0.0666 -0.7598 0.6468
vn 0.0704 -0.9510 0.3012
vn -0.0000 -0.9095 -0.4157
vn -0.2234 -0.5954 -0.7717
vn 0.3473 -0.6076 0.7143
vn 0.3132 -0.8772 0.3638
vn -0.6247 0.0697 -0.7777
vn -0.1498 0.2732 0.9502
vn 0.0001 -0.4964 -0.8681
vn -0.0000 0.2357 -0.9718
vn -0.2452 0.3219 0.9145
vn -0.1030 0.4266 0.8985
vn -0.2091 0.4085 0.8885
vn 0.4835 -0.7853 -0.3867
vn -0.1771 0.0340 0.9836
vn -0.1971 0.5440 0.8156
vn -0.3132 -0.8772 0.3638
vn -0.3420 0.2002 0.9181
vn -0.2000 -0.8710 0.4487
vn 0.1533 -0.7640 0.6268
vn -0.3395 -0.4738 -0.8126
vn -0.3645 0.2310 -0.9021
vn 0.0254 -0.2007 -0.9793
vn 0.2333 0.3833 -0.8937
vn 0.4319 0.2562 -0.8648
vn 0.1093 -0.9908 -0.0794
vn 0.1673 -0.9659 0.1976
vn -0.3459 0.1042 -0.9325
vn -0.6322 0.0974 -0.7687
vn -0.9466 0.1380 -0.2913
vn -0.8014 0.1195 -0.5861
vn -0.3991 0.1379 -0.9065
vt 0.990234 0.446777
vt 0.990234 0.487305
vt 0.983887 0.446777
vt 0.958008 0.434570
vt 0.963867 0.469238
vt 0.978027 0.478516
vt 0.967285 0.446777
vt 0.990234 0.603516
vt 0.966309 0.601562
vt 0.966309 0.628906
vt 0.990234 0.628418
vt 0.965820 0.665039
vt 0.990234 0.667969
vt 0.965332 0.700684
vt 0.990234 0.704102
vt 0.945312 0.556641
vt 0.967285 0.559082
vt 0.972656 0.518555
vt 0.943848 0.501953
vt 0.942383 0.599609
vt 0.940430 0.626953
vt 0.938965 0.662109
vt 0.735352 0.664551
vt 0.734863 0.698242
vt 0.697754 0.702148
vt 0.696289 0.668945
vt 0.938477 0.758789
vt 0.966797 0.759277
vt 0.965820 0.732910
vt 0.938477 0.730957
vt 0.919922 0.534668
vt 0.931641 0.561523
vt 0.911621 0.658203
vt 0.916504 0.624512
vt 0.909180 0.691406
vt 0.938477 0.696777
vt 0.908691 0.727051
vt 0.891602 0.620117
vt 0.883301 0.651855
vt 0.878906 0.686523
vt 0.877930 0.720703
vt 0.878418 0.749512
vt 0.909180 0.756348
vt 0.633789 0.562012
vt 0.615234 0.587891
vt 0.650879 0.608887
vt 0.661621 0.569336
vt 0.911133 0.780762
vt 0.880371 0.778320
vt 0.884766 0.803223
vt 0.914551 0.804199
vt 0.847168 0.771973
vt 0.845215 0.740723
vt 0.851074 0.800293
vt 0.856445 0.825684
vt 0.865234 0.846191
vt 0.889160 0.826660
vt 0.895996 0.846191
vt 0.874512 0.858398
vt 0.891602 0.879883
vt 0.909668 0.873535
vt 0.910156 0.907715
vt 0.925293 0.897461
vt 0.922363 0.845703
vt 0.917969 0.825684
vt 0.937500 0.892090
vt 0.928711 0.868164
vt 0.928711 0.924316
vt 0.893066 0.921875
vt 0.916992 0.936523
vt 0.937012 0.936523
vt 0.939453 0.915527
vt 0.951660 0.936523
vt 0.974609 0.926270
vt 0.950684 0.907715
vt 0.868652 0.893555
vt 0.906250 0.953613
vt 0.936035 0.953125
vt 0.952148 0.953125
vt 0.974121 0.953125
vt 0.974121 0.902832
vt 0.973145 0.979492
vt 0.953125 0.979492
vt 0.990234 0.951172
vt 0.990234 0.979492
vt 0.990234 0.899902
vt 0.990234 0.921387
vt 0.990234 0.862305
vt 0.972168 0.861816
vt 0.973633 0.883301
vt 0.990234 0.881348
vt 0.990234 0.846191
vt 0.971191 0.845215
vt 0.946777 0.845703
vt 0.969727 0.825195
vt 0.944336 0.825684
vt 0.939941 0.781738
vt 0.967773 0.781250
vt 0.950195 0.886719
vt 0.941895 0.804199
vt 0.580078 0.465820
vt 0.589844 0.455078
vt 0.586914 0.435547
vt 0.577148 0.446777
vt 0.636230 0.504883
vt 0.587402 0.504883
vt 0.604980 0.484863
vt 0.606934 0.548828
vt 0.666016 0.545410
vt 0.736816 0.577148
vt 0.737305 0.564941
vt 0.702637 0.557129
vt 0.699219 0.574219
vt 0.776855 0.580078
vt 0.776367 0.567871
vt 0.778320 0.605469
vt 0.823242 0.608398
vt 0.818359 0.581543
vt 0.735840 0.604492
vt 0.693848 0.608398
vt 0.695312 0.639160
vt 0.655273 0.647461
vt 0.735352 0.635254
vt 0.660156 0.674805
vt 0.774902 0.666016
vt 0.813477 0.671875
vt 0.817383 0.640137
vt 0.776367 0.634277
vt 0.847656 0.680176
vt 0.853027 0.646484
vt 0.630859 0.711914
vt 0.664062 0.707520
vt 0.625488 0.684570
vt 0.554688 0.777344
vt 0.578125 0.773926
vt 0.578125 0.799805
vt 0.554688 0.800781
vt 0.811035 0.702148
vt 0.845703 0.711426
vt 0.810059 0.730957
vt 0.772949 0.726562
vt 0.773438 0.697266
vt 0.604492 0.748047
vt 0.633301 0.743164
vt 0.602051 0.716797
vt 0.810059 0.764648
vt 0.772461 0.756836
vt 0.734863 0.729492
vt 0.734375 0.758789
vt 0.665039 0.765625
vt 0.697266 0.763672
vt 0.697754 0.733398
vt 0.665527 0.737305
vt 0.633789 0.768555
vt 0.604980 0.771973
vt 0.663086 0.792969
vt 0.695312 0.793945
vt 0.733887 0.790039
vt 0.811035 0.793945
vt 0.812500 0.825195
vt 0.827637 0.852051
vt 0.772949 0.816895
vt 0.772461 0.789551
vt 0.691895 0.816406
vt 0.660156 0.814941
vt 0.630371 0.817871
vt 0.632812 0.795410
vt 0.846680 0.867676
vt 0.774414 0.839355
vt 0.732910 0.815430
vt 0.732910 0.837402
vt 0.686035 0.833496
vt 0.649902 0.845703
vt 0.664062 0.860840
vt 0.620605 0.924316
vt 0.611328 0.909180
vt 0.628418 0.914062
vt 0.612305 0.938477
vt 0.594727 0.961426
vt 0.593262 0.929688
vt 0.571777 0.923828
vt 0.572266 0.952148
vt 0.592285 0.905762
vt 0.571289 0.903809
vt 0.636230 0.979492
vt 0.627441 0.951660
vt 0.641113 0.945312
vt 0.604980 0.972656
vt 0.613281 0.979492
vt 0.594727 0.979492
vt 0.554688 0.921875
vt 0.554688 0.948730
vt 0.554688 0.902832
vt 0.573242 0.876465
vt 0.554688 0.876465
vt 0.554688 0.819336
vt 0.577148 0.818848
vt 0.599609 0.849121
vt 0.575195 0.850586
vt 0.595215 0.876953
vt 0.604492 0.798340
vt 0.577637 0.750488
vt 0.576660 0.721680
vt 0.616699 0.880859
vt 0.603027 0.818359
vt 0.554688 0.752930
vt 0.554688 0.725586
vt 0.574707 0.700195
vt 0.572266 0.679199
vt 0.554688 0.678711
vt 0.554688 0.702148
vt 0.598633 0.693359
vt 0.593750 0.637695
vt 0.618164 0.655762
vt 0.619141 0.623535
vt 0.596191 0.616211
vt 0.591797 0.599121
vt 0.591309 0.576660
vt 0.583496 0.590820
vt 0.578125 0.570801
vt 0.574219 0.583496
vt 0.594238 0.671387
vt 0.586914 0.540039
vt 0.568359 0.536133
vt 0.565430 0.565918
vt 0.554688 0.509277
vt 0.565918 0.506836
vt 0.564453 0.473633
vt 0.554688 0.478516
vt 0.562988 0.446777
vt 0.554688 0.446777
vt 0.953613 0.453125
vt 0.851562 0.583008
vt 0.848145 0.547363
vt 0.815430 0.563965
vt 0.933105 0.473145
vt 0.922852 0.595703
vt 0.903320 0.592773
vt 0.888672 0.547363
vt 0.861816 0.616211
vt 0.990234 0.736816
vt 0.990234 0.761230
vt 0.990234 0.782227
vt 0.990234 0.806152
vt 0.968750 0.804688
vt 0.990234 0.825684
vt 0.628418 0.913574
vt 0.637207 0.884277
vt 0.568848 0.656250
vt 0.584961 0.651855
vt 0.949219 0.863281
vt 0.990234 0.527344
vt 0.564453 0.579590
vt 0.572266 0.979492
vt 0.936523 0.979492
vt 0.645996 0.924316
vt 0.990234 0.563477
vt 0.655762 0.890137
vt 0.624023 0.849121
vt 0.910645 0.979492
vt 0.554688 0.535156
vt 0.909180 0.497070
vt 0.554688 0.562012
vt 0.554688 0.578613
vt 0.881348 0.522949
vt 0.554688 0.655762
vt 0.554688 0.979492
vt 0.554688 0.852539
vt 0.870203 0.712182
vt 0.848230 0.686303
vt 0.829187 0.670678
vt 0.775964 0.657983
vt 0.734460 0.656029
vt 0.687585 0.652123
vt 0.665613 0.679467
vt 0.657312 0.708764
vt 0.647546 0.742943
vt 0.642663 0.763940
vt 0.637781 0.798119
vt 0.907800 0.772240
vt 0.894617 0.740502
vt 0.854312 0.738952
vt 0.867495 0.770690
vt 0.597476 0.796569
vt 0.602358 0.762389
vt 0.607241 0.741393
vt 0.617007 0.707214
vt 0.625308 0.677917
vt 0.647280 0.650573
vt 0.694155 0.654479
vt 0.735659 0.656432
vt 0.788882 0.669128
vt 0.807925 0.684753
vt 0.829897 0.710632
vt 0.629395 0.519531
s 1
g Bip001 Pelvis
g park_cheshirecat_ob0_L0.body_Material.001
usemtl Material.001
f 221/1/1 2/2/2 1/3/3
f 350/4/4 354/5/5 352/6/6 353/7/7
f 8/8/8 312/9/9 311/10/10 10/11/11
f 10/11/11 311/10/10 310/12/12 13/13/13
g Bip001 Spine
f 13/13/13 310/12/12 308/14/14 309/15/15
g Bip001 Pelvis
f 318/16/16 313/17/17 315/18/18 317/19/19
f 319/20/20 312/9/9 313/17/17 318/16/16
f 320/21/21 311/10/10 312/9/9 319/20/20
f 321/22/22 310/12/12 311/10/10 320/21/21
g Bip001 Spine
f 115/23/23 124/24/24 123/25/25 114/26/26
g Bip001 Spine1
f 324/27/27 305/28/28 307/29/29 323/30/30
g Bip001 Pelvis
f 16/16/31 25/31/32 15/19/33
f 16/16/31 26/32/34 25/31/32
f 345/33/35 321/22/22 320/21/21 361/34/36
g Bip001 Spine
f 344/35/37 322/36/38 321/22/22 345/33/35
f 343/37/39 323/30/30 322/36/38 344/35/37
g Bip001 Pelvis
f 345/33/35 361/34/36 346/38/40 262/39/41
g Bip001 Spine
f 345/33/35 262/39/41 264/40/42 344/35/37
f 344/35/37 264/40/42 266/41/43 343/37/39
g Bip001 Spine1
f 343/37/39 266/41/43 268/42/44 342/43/45
g Bip001 Pelvis
f 386/44/46 371/45/47 384/46/48 385/47/49
g Bip001 Spine2
f 341/48/50 270/49/51 272/50/52 340/51/53
g Bip001 Spine1
f 269/52/54 270/49/51 268/42/44 267/53/55
g Bip001 Spine2
f 271/54/56 272/50/52 270/49/51 269/52/54
f 40/50/57 48/55/58 47/54/59
f 273/55/60 275/56/61 274/57/62 272/50/52
f 338/58/63 277/59/64 278/60/65 337/61/66
f 337/61/66 278/60/65 279/62/67 336/63/68
f 338/58/63 362/64/69 339/65/70 274/57/62
f 336/63/68 364/66/71 363/67/72 337/61/66
f 334/68/73 279/62/67 245/69/74 280/70/75
g Bip001 R Clavicle
f 60/68/76 62/71/77 61/70/78
f 58/72/79 62/71/77 60/68/76
f 58/72/79 63/73/80 62/71/77
g Bip001 Spine2
f 335/72/81 332/73/82 288/74/83 331/75/84
f 245/69/74 279/62/67 278/60/65 246/76/85
g Bip001 R Clavicle
f 61/70/78 66/77/86 237/69/87
g Bip001 L Clavicle
f 333/71/88 282/78/89 283/79/90 332/73/82
g Bip001 Spine2
f 332/73/82 283/79/90 285/80/91 288/74/83
f 64/75/92 71/81/93 70/74/94
f 284/82/95 285/80/91 283/79/90 416/83/96
f 287/84/97 285/80/91 284/82/95 286/85/98
f 291/86/99 290/81/100 288/74/83 289/87/101
f 295/88/102 294/89/103 292/90/104 293/91/105
f 296/92/106 297/93/107 294/89/103 295/88/102
g Bip001 Pelvis
f 12/12/108 19/22/109 18/21/110 11/10/111
g Bip001 Spine2
f 328/94/112 297/93/107 299/95/113 327/96/114
g Bip001 Spine1
f 325/97/115 303/98/116 305/28/28 324/27/27
g Bip001 Spine2
f 57/66/117 74/99/118 64/75/92
f 340/51/53 326/100/119 325/97/115 341/48/50
g Bip001 Pelvis
f 390/101/120 248/102/121 350/103/4 353/104/7
f 86/105/122 93/106/123 85/107/124
f 86/105/122 95/44/125 94/108/126
f 87/109/127 95/44/125 86/105/122
f 87/109/127 96/47/128 95/44/125
f 392/110/129 253/111/130 252/112/131 391/113/132
f 393/114/133 254/115/134 253/111/130 392/110/129
f 394/116/135 259/117/136 257/118/137 393/114/133
f 392/110/129 438/119/138 394/116/135 393/114/133
f 391/113/132 439/120/139 438/119/138 392/110/129
f 384/46/48 439/120/139 391/113/132 385/47/49
f 435/121/140 439/120/139 384/46/48 383/122/141
f 437/123/142 438/119/138 439/120/139 435/121/140
g Bip001 Spine
f 323/30/30 307/29/29 308/14/14 322/36/38
f 434/26/143 435/121/140 383/122/141 433/124/144
f 436/23/145 437/123/142 435/121/140 434/26/143
f 459/125/146 397/126/147 396/127/148 395/128/149
f 397/126/147 263/129/150 261/130/151 396/127/148
f 432/131/152 442/132/153 433/124/144 382/133/154
f 433/124/144 442/132/153 441/25/155 434/26/143
f 434/26/143 441/25/155 440/24/156 436/23/145
g Bip001 Spine2
f 188/134/157 193/135/158 187/136/159 426/137/160
g Bip001 Spine
f 398/138/161 265/139/162 263/129/150 397/126/147
g Bip001 Spine1
f 399/140/163 267/53/55 265/139/162 398/138/161
f 457/141/164 399/140/163 398/138/161 458/142/165
f 472/143/166 444/144/167 432/131/152 431/145/168
f 400/146/169 269/52/54 267/53/55 399/140/163
f 456/147/170 400/146/169 399/140/163 457/141/164
f 457/141/164 454/148/171 452/149/172 456/147/170
f 445/150/173 451/151/174 453/152/175 443/153/176
f 446/154/177 445/150/173 443/153/176 444/144/167
f 471/155/178 446/154/177 444/144/167 472/143/166
g Bip001 Spine2
f 447/156/179 449/157/180 451/151/174 445/150/173
f 452/149/172 451/151/174 449/157/180 450/158/181
f 46/52/182 147/159/183 135/146/184
f 402/160/185 276/161/186 273/55/60 271/54/56
f 404/162/187 402/160/185 401/159/188 455/163/189
f 406/164/190 449/157/180 447/156/179 407/165/191
f 460/166/192 407/165/191 447/156/179 448/167/193
f 65/168/194 49/56/195 51/59/196
f 404/162/187 403/169/197 276/161/186 402/160/185
f 405/170/198 239/171/199 403/169/197 404/162/187
f 406/164/190 240/172/200 239/171/199 405/170/198
f 159/172/201 152/165/202 151/164/203
f 408/173/204 241/174/205 240/172/200 407/165/191
g Bip001 R Clavicle
f 165/175/206 163/176/207 164/177/208
f 165/175/206 166/178/209 163/176/207
f 169/179/210 170/180/211 166/178/209
g Bip001 Spine2
f 465/180/212 419/181/213 418/182/214 417/179/215
f 466/183/216 421/184/217 419/181/213 465/180/212
g Bip001 R Clavicle
f 236/185/218 167/186/219 176/187/220
g Bip001 L Clavicle
f 415/188/221 414/189/222 244/185/223 413/186/224
g Bip001 R Clavicle
f 178/190/225 168/188/226 177/189/227
f 178/190/225 169/179/210 168/188/226
g Bip001 Spine2
f 419/181/213 420/191/228 180/192/229 418/182/214
f 421/184/217 422/193/230 420/191/228 419/181/213
f 423/194/231 181/195/232 422/193/230 421/184/217
f 427/136/233 426/137/160 185/196/234 425/197/235
f 428/135/236 188/134/157 426/137/160 427/136/233
f 468/198/237 424/199/238 423/194/231 467/200/239
f 471/155/178 428/135/236 427/136/233 470/201/240
g Bip001 Spine1
f 472/143/166 429/202/241 428/135/236 471/155/178
f 472/143/166 431/145/168 430/203/242 429/202/241
g Bip001 L Clavicle
f 465/180/212 464/178/243 463/176/244 466/183/216
g Bip001 Spine2
f 466/183/216 463/176/244 462/204/245 467/200/239
f 469/205/246 460/166/192 448/167/193 470/201/240
g Bip001 Spine1
f 429/202/241 196/206/247 188/134/157 428/135/236
f 430/203/242 197/207/248 196/206/247 429/202/241
g Bip001 Spine
f 380/208/249 376/209/250 200/210/251 379/211/252
f 431/145/168 381/212/253 380/208/249 430/203/242
g Bip001 Pelvis
f 478/213/254 373/214/255 372/215/256 477/216/257
f 206/217/258 207/218/259 205/45/260
f 208/219/261 207/218/259 206/217/258
f 475/219/262 370/218/263 369/220/264 474/221/265
g Bip001 Spine
f 432/131/152 382/133/154 381/212/253 431/145/168
f 382/133/154 373/214/255 374/222/266 381/212/253
g Bip001 Pelvis
f 205/45/260 107/46/267 204/215/268
f 388/223/269 367/224/270 368/225/271 369/220/264
f 219/226/272 366/227/273 365/228/274 220/229/275
f 1/230/3 215/228/276 220/229/275
f 221/231/1 1/230/3 220/229/275
g Bip001 Spine1
f 136/147/277 128/141/278 127/140/279 135/146/184
g Bip001 Spine
f 21/30/280 31/37/281 30/35/282 20/36/283
g Bip001 Pelvis
f 91/4/284 3/5/285 227/232/286
f 257/118/137 258/233/287 256/234/288 255/235/289
f 355/232/290 356/236/291 317/19/19 354/5/5
f 354/5/5 317/19/19 315/18/18 352/6/6
f 346/38/40 361/34/36 360/237/292 347/238/293
f 229/238/294 26/32/34 27/237/295
f 229/238/294 101/233/296 228/239/297
f 346/38/40 260/240/298 261/130/151 262/39/41
g Bip001 Spine1
f 195/203/299 134/145/300 133/143/301 194/202/302
f 306/241/303 307/29/29 305/28/28 304/242/304
f 304/242/304 305/28/28 303/98/116 302/243/305
g Bip001 Spine2
f 300/244/306 301/245/307 299/95/113 298/246/308
g Bip001 R Clavicle
f 173/183/309 163/176/207 166/178/209 170/180/211
g Bip001 Spine
f 458/142/165 398/138/161 397/126/147 459/125/146
g Bip001 Pelvis
f 13/13/13 12/12/108 11/10/111 10/11/11
g Bip001 Spine
f 433/124/144 383/122/141 373/214/255 382/133/154
g Bip001 Spine2
f 467/200/239 423/194/231 421/184/217 466/183/216
g Bip001 Spine
f 203/214/310 120/133/311 201/212/312 202/222/313
g Bip001 Spine2
f 69/80/314 287/84/97 286/85/98 179/82/315
f 73/89/316 295/88/102 293/91/105 72/90/317
f 463/176/244 410/247/318 409/248/319 462/204/245
g Bip001 R Clavicle
f 63/73/80 68/79/320 67/78/321 62/71/77
g Bip001 Spine2
f 422/193/230 174/184/322 172/181/323 420/191/228
f 470/201/240 448/167/193 446/154/177 471/155/178
g Bip001 Spine1
f 454/148/171 453/152/175 451/151/174 452/149/172
g Bip001 Spine2
f 40/50/57 47/54/59 46/52/182 38/49/324
g Bip001 Spine1
f 137/149/325 129/148/326 128/141/278 136/147/277
g Bip001 Spine
f 263/129/150 264/40/42 262/39/41 261/130/151
g Bip001 R Clavicle
f 177/189/227 168/188/226 167/186/219 236/185/218
g Bip001 Spine
f 118/129/327 44/139/328 126/138/329 117/126/330
g Bip001 Pelvis
f 9/9/331 17/20/332 16/16/31 7/17/333
f 377/249/334 376/209/250 374/222/266 375/250/335
g Bip001 Spine1
f 128/141/278 125/142/336 126/138/329 127/140/279
g Bip001 Spine2
f 55/64/337 50/58/338 42/57/339 43/65/340
g Bip001 Pelvis
f 391/113/132 252/112/131 251/109/341 385/47/49
f 34/39/342 113/130/343 100/240/344 33/38/345
g Bip001 Spine2
f 336/63/68 279/62/67 334/68/73 335/72/81
f 181/195/232 182/194/346 174/184/322 422/193/230
f 156/161/347 148/160/348 47/54/59 48/55/58
f 52/61/349 53/60/350 51/59/196 50/58/338
g Bip001 Spine
f 322/36/38 308/14/14 310/12/12 321/22/22
g Bip001 Spine2
f 456/147/170 452/149/172 450/158/181 455/163/189
g Bip001 Spine1
f 135/146/184 127/140/279 45/53/351 46/52/182
g Bip001 Spine2
f 470/201/240 427/136/233 425/197/235 469/205/246
g Bip001 Pelvis
f 351/3/352 352/6/6 2/2/2 221/1/1
g Bip001 Spine
f 381/212/253 374/222/266 376/209/250 380/208/249
f 112/127/353 117/126/330 116/125/354 111/128/355
g Bip001 L Clavicle
f 333/71/88 280/70/75 281/77/356 282/78/89
g Bip001 Spine2
f 469/205/246 425/197/235 424/199/238 468/198/237
f 189/200/357 162/204/358 163/176/207 173/183/309
f 364/66/71 330/99/359 329/251/360 363/67/72
g Bip001 Pelvis
f 352/6/6 315/18/18 316/252/361 2/2/2
g Bip001 Spine
f 459/125/146 436/23/145 440/24/156 458/142/165
f 31/37/281 36/41/362 35/40/363 30/35/282
g Bip001 Spine2
f 138/151/364 144/157/365 143/156/366 139/150/367
f 61/70/78 237/69/87 59/62/368 60/68/76
g Bip001 Pelvis
f 474/221/265 369/220/264 368/225/271 473/253/369
f 105/119/370 110/123/371 109/121/372 106/120/373
f 106/120/373 97/113/374 98/110/375 105/119/370
g Bip001 Spine
f 200/210/251 199/209/376 198/208/377 379/211/252
g Bip001 L Clavicle
f 464/178/243 417/179/215 415/188/221 413/186/224
g Bip001 Spine2
f 418/182/214 284/254/95 416/190/96 417/179/215
f 39/48/378 83/97/379 81/100/380 41/51/381
g Bip001 L Clavicle
f 416/83/96 283/79/90 282/78/89 414/255/222
g Bip001 R Clavicle
f 176/187/220 165/175/206 164/177/208 235/256/382
g Bip001 Pelvis
f 316/252/361 315/18/18 313/17/17 314/257/383
g Bip001 Spine2
f 337/61/66 363/67/72 362/64/69 338/58/63
g Bip001 Pelvis
f 477/216/257 372/215/256 371/45/47 476/217/384
g Bip001 Spine1
f 342/43/45 268/42/44 270/49/51 341/48/50
g Bip001 Spine2
f 57/66/117 54/63/385 52/61/349 56/67/386
g Bip001 Pelvis
f 396/127/148 261/130/151 260/240/298 259/117/136
g Bip001 Spine1
f 140/154/387 132/144/388 131/153/389 139/150/367
g Bip001 Spine2
f 59/62/368 237/69/87 238/76/390 53/60/350
g Bip001 Pelvis
f 390/101/120 353/104/7 351/230/352 365/228/274
g Bip001 L Clavicle
f 410/247/318 411/256/391 242/258/392 409/248/319
g Bip001 Spine2
f 340/51/53 272/50/52 274/57/62 339/65/70
f 64/75/92 70/74/94 63/73/80 58/72/79
g Bip001 Pelvis
f 347/238/293 258/233/287 260/240/298 346/38/40
g Bip001 Spine2
f 192/201/393 142/167/394 153/166/395 191/205/396
f 158/171/397 150/170/398 149/162/399 157/169/400
g Bip001 Spine1
f 304/242/304 24/28/401 22/29/402 306/241/303
g Bip001 Spine2
f 329/251/360 294/89/103 297/93/107 328/94/112
f 69/80/314 179/82/315 178/83/225 68/79/320
f 461/259/403 408/173/204 407/165/191 460/166/192
f 157/169/400 149/162/399 148/160/348 156/161/347
f 247/168/404 275/56/61 273/55/60 276/161/186
g Bip001 Spine
f 110/123/371 115/23/23 114/26/26 109/121/372
g Bip001 Pelvis
f 375/250/335 374/222/266 373/214/255 478/213/254
g Bip001 L Clavicle
f 244/260/223 414/255/222 282/78/89 281/77/356
g Bip001 Spine1
f 133/143/301 134/145/300 121/131/405 132/144/388
g Bip001 Spine2
f 426/137/160 187/136/159 186/197/406 185/196/234
g Bip001 R Clavicle
f 235/256/382 164/177/208 161/248/407 175/258/408
g Bip001 Pelvis
f 106/120/373 109/121/372 108/122/409 107/46/267
g Bip001 Spine1
f 267/53/55 268/42/44 266/41/43 265/139/162
f 444/144/167 443/153/176 442/132/153 432/131/152
g Bip001 Pelvis
f 218/261/410 367/224/270 366/227/273 219/226/272
g Bip001 Spine2
f 59/62/368 53/60/350 52/61/349 54/63/385
f 455/163/189 450/158/181 405/170/198 404/162/187
f 159/172/201 151/164/203 150/170/398 158/171/397
g Bip001 Pelvis
f 384/46/48 372/215/256 373/214/255 383/122/141
g Bip001 Spine1
f 197/207/248 195/203/299 194/202/302 196/206/247
g Bip001 Spine2
f 326/100/119 301/245/307 303/98/116 325/97/115
f 289/87/101 288/74/83 285/80/91 287/84/97
f 462/204/245 409/248/319 408/173/204 461/259/403
g Bip001 Pelvis
f 209/221/411 210/220/412 207/218/259 208/219/261
f 389/106/413 249/107/414 248/102/121 390/101/120
g Bip001 Spine2
f 338/58/63 274/57/62 275/56/61 277/59/64
g Bip001 Pelvis
f 10/11/11 11/10/111 9/9/331 8/8/8
g Bip001 Spine2
f 160/174/415 154/173/416 152/165/202 159/172/201
g Bip001 Pelvis
f 90/115/417 99/114/418 98/110/375 89/111/419
f 2/2/2 4/6/420 5/7/421 1/3/3
f 7/17/333 16/16/31 15/19/33 6/18/422
g Bip001 Spine2
f 71/81/93 291/86/99 289/87/101 70/74/94
f 455/163/189 401/159/188 400/146/169 456/147/170
f 172/181/323 170/180/211 169/179/210 171/182/423
f 450/158/181 449/157/180 406/164/190 405/170/198
f 409/248/319 242/258/392 241/174/205 408/173/204
g Bip001 Pelvis
f 89/111/419 98/110/375 97/113/374 88/112/424
f 104/116/425 99/114/418 103/118/426 102/117/427
g Bip001 Spine2
f 246/76/85 278/60/65 277/59/64 247/168/404
f 174/184/322 173/183/309 170/180/211 172/181/323
g Bip001 Pelvis
f 229/238/294 27/237/295 28/34/428 33/38/345
g Bip001 Spine2
f 298/246/308 78/95/429 80/245/430 300/244/306
g Bip001 Pelvis
f 3/5/285 15/19/33 226/236/431 227/232/286
g Bip001 L Clavicle
f 412/175/432 243/187/433 411/256/391 410/247/318
g Bip001 Pelvis
f 213/224/434 211/223/435 210/220/412 212/225/436
g Bip001 Spine2
f 339/65/70 327/96/114 326/100/119 340/51/53
g Bip001 Pelvis
f 220/229/275 215/228/276 214/227/437 219/226/272
f 223/234/438 101/233/296 103/118/426 222/235/439
g Bip001 Spine2
f 402/160/185 271/54/56 269/52/54 401/159/188
g Bip001 Pelvis
f 387/108/440 370/218/263 371/45/47 386/44/46
g Bip001 Spine2
f 149/162/399 146/163/441 147/159/183 148/160/348
g Bip001 Pelvis
f 390/101/120 365/228/274 366/227/273 389/106/413
g Bip001 Spine
f 30/35/282 35/40/363 34/39/342 29/33/442
g Bip001 Pelvis
f 29/33/442 34/39/342 33/38/345 28/34/428
g Bip001 Spine1
f 32/43/443 37/42/444 36/41/362 31/37/281
g Bip001 Spine2
f 468/198/237 461/259/403 460/166/192 469/205/246
f 184/199/445 190/198/446 189/200/357 182/194/346
f 63/73/80 70/74/94 69/80/314 68/79/320
g Bip001 Pelvis
f 358/31/447 317/19/19 356/236/291 357/262/448
f 473/253/369 368/225/271 217/263/449 216/264/450
g Bip001 Spine1
f 443/153/176 453/152/175 441/25/155 442/132/153
g Bip001 Pelvis
f 348/239/451 358/31/447 357/262/448 349/265/452
g Bip001 Spine
f 119/124/453 108/122/409 109/121/372 114/26/26
g Bip001 Spine1
f 302/243/305 82/98/454 24/28/401 304/242/304
g Bip001 Spine
f 113/130/343 118/129/327 117/126/330 112/127/353
g Bip001 Pelvis
f 378/266/455 200/210/251 376/209/250 377/249/334
g Bip001 Spine2
f 418/182/214 180/192/229 286/267/98 284/254/95
g Bip001 Spine1
f 38/49/324 46/52/182 45/53/351 37/42/444
g Bip001 Spine2
f 424/199/238 183/268/456 181/195/232 423/194/231
g Bip001 Pelvis
f 217/263/449 368/225/271 367/224/270 218/261/410
f 19/22/109 29/33/442 28/34/428 18/21/110
f 3/5/285 91/4/284 5/7/421 4/6/420
g Bip001 Spine1
f 341/48/50 325/97/115 324/27/27 342/43/45
g Bip001 Spine2
f 420/191/228 172/181/323 171/182/423 180/192/229
g Bip001 Spine
f 201/212/312 120/133/311 121/131/405 134/145/300
g Bip001 Spine2
f 79/96/457 78/95/429 76/93/458 77/94/459
g Bip001 Pelvis
f 388/223/269 387/108/440 250/105/460 389/106/413
f 259/117/136 260/240/298 258/233/287 257/118/137
f 388/223/269 369/220/264 370/218/263 387/108/440
g Bip001 Spine2
f 164/177/208 163/176/207 162/204/358 161/248/407
g Bip001 Spine1
f 342/43/45 324/27/27 323/30/30 343/37/39
f 127/140/279 126/138/329 44/139/328 45/53/351
g Bip001 Spine2
f 467/200/239 462/204/245 461/259/403 468/198/237
g Bip001 Pelvis
f 393/114/133 257/118/137 255/235/289 254/115/134
f 102/117/427 103/118/426 101/233/296 100/240/344
f 100/240/344 113/130/343 112/127/353 102/117/427
g Bip001 Spine
f 35/40/363 118/129/327 113/130/343 34/39/342
f 36/41/362 44/139/328 118/129/327 35/40/363
g Bip001 Spine1
f 37/42/444 45/53/351 44/139/328 36/41/362
g Bip001 Spine2
f 273/55/60 272/50/52 271/54/56
f 156/161/347 48/55/58 49/56/195 65/168/194
f 247/168/404 277/59/64 275/56/61
f 53/60/350 238/76/390 65/168/194 51/59/196
g Bip001 L Clavicle
f 281/77/356 280/70/75 245/69/74
g Bip001 R Clavicle
f 62/71/77 67/78/321 66/77/86 61/70/78
f 236/260/218 66/77/86 67/78/321 177/255/227
f 177/255/227 67/78/321 68/79/320 178/83/225
g Bip001 Spine2
f 70/74/94 289/87/101 287/84/97 69/80/314
f 72/90/317 293/91/105 291/86/99 71/81/93
f 296/92/106 76/93/458 78/95/429 298/246/308
f 300/244/306 80/245/430 82/98/454 302/243/305
g Bip001 Spine
f 306/241/303 22/29/402 14/14/461 309/15/15
g Bip001 Spine2
f 293/91/105 292/90/104 290/81/100 291/86/99
g Bip001 Pelvis
f 8/8/8 9/9/331 7/17/333 314/257/383
f 314/257/383 7/17/333 6/18/422 316/252/361
g Bip001 Spine
f 14/14/461 20/36/283 19/22/109 12/12/108
f 22/29/402 21/30/280 20/36/283 14/14/461
g Bip001 Spine2
f 83/97/379 82/98/454 80/245/430 81/100/380
f 81/100/380 80/245/430 78/95/429 79/96/457
f 77/94/459 76/93/458 73/89/316 75/251/462
f 75/251/462 73/89/316 72/90/317 74/99/118
f 74/99/118 72/90/317 71/81/93 64/75/92
f 331/75/84 288/74/83 290/81/100
g Bip001 L Clavicle
f 334/68/73 280/70/75 333/71/88
g Bip001 Spine2
f 60/68/76 59/62/368 54/63/385 58/72/79
f 50/58/338 51/59/196 49/56/195 42/57/339
f 41/51/381 43/65/340 42/57/339 40/50/57
g Bip001 Spine1
f 39/48/378 38/49/324 37/42/444 32/43/443
g Bip001 Pelvis
f 33/38/345 100/240/344 101/233/296 229/238/294
f 348/239/451 258/233/287 347/238/293
f 224/265/463 228/239/297 101/233/296 223/234/438
g Bip001 Spine1
f 24/28/401 23/27/464 21/30/280 22/29/402
g Bip001 Pelvis
f 353/7/7 352/6/6 351/3/352
f 350/4/4 355/232/290 354/5/5
f 316/252/361 6/18/422 4/6/420 2/2/2
g Bip001 Spine2
f 362/64/69 328/94/112 327/96/114 339/65/70
g Bip001 Pelvis
f 226/236/431 15/19/33 25/31/32 225/262/465
f 358/31/447 318/16/16 317/19/19
f 359/32/466 318/16/16 358/31/447
f 17/20/332 27/237/295 26/32/34 16/16/31
f 18/21/110 28/34/428 27/237/295 17/20/332
g Bip001 Spine1
f 23/27/464 32/43/443 31/37/281 21/30/280
f 39/48/378 32/43/443 23/27/464 83/97/379
g Bip001 Spine2
f 41/51/381 81/100/380 79/96/457 43/65/340
f 43/65/340 79/96/457 77/94/459 55/64/337
f 55/64/337 77/94/459 75/251/462 56/67/386
f 56/67/386 75/251/462 74/99/118 57/66/117
f 364/66/71 331/75/84 330/99/359
f 57/66/117 64/75/92 58/72/79 54/63/385
g Bip001 L Clavicle
f 335/72/81 333/71/88 332/73/82
f 335/72/81 334/68/73 333/71/88
g Bip001 Spine2
f 56/67/386 52/61/349 50/58/338 55/64/337
g Bip001 Pelvis
f 219/226/272 214/227/437 213/224/434 218/261/410
f 218/261/410 213/224/434 212/225/436 217/263/449
f 217/263/449 212/225/436 230/253/467 216/264/450
f 230/253/467 212/225/436 210/220/412 209/221/411
f 476/217/384 370/218/263 475/219/262
f 476/217/384 371/45/47 370/218/263
f 206/217/258 205/45/260 204/215/268 231/216/468
f 232/213/469 203/214/310 202/222/313 233/250/470
f 233/250/470 202/222/313 199/209/376 234/249/471
f 234/249/471 199/209/376 200/210/251 378/266/455
g Bip001 Spine
f 199/209/376 202/222/313 201/212/312 198/208/377
f 203/214/310 108/122/409 119/124/453 120/133/311
g Bip001 Pelvis
f 204/215/268 107/46/267 108/122/409 203/214/310
f 384/46/48 371/45/47 372/215/256
f 205/45/260 95/44/125 96/47/128 107/46/267
f 207/218/259 94/108/126 95/44/125 205/45/260
f 210/220/412 211/223/435 94/108/126 207/218/259
f 214/227/437 93/106/123 211/223/435 213/224/434
f 215/228/276 92/101/472 93/106/123 214/227/437
f 5/104/421 92/101/472 215/228/276 1/230/3
f 85/107/124 93/106/123 92/101/472 84/102/473
f 389/106/413 250/105/460 249/107/414
f 94/108/126 211/223/435 93/106/123 86/105/122
f 386/44/46 250/105/460 387/108/440
f 386/44/46 251/109/341 250/105/460
f 385/47/49 251/109/341 386/44/46
f 88/112/424 97/113/374 96/47/128 87/109/127
f 222/235/439 103/118/426 99/114/418 90/115/417
f 102/117/427 112/127/353 111/128/355 104/116/425
g Bip001 Spine2
f 401/159/188 269/52/54 400/146/169
f 148/160/348 147/159/183 46/52/182 47/54/59
f 407/165/191 240/172/200 406/164/190
f 175/258/408 161/248/407 154/173/416 160/174/415
g Bip001 R Clavicle
f 176/187/220 167/186/219 166/178/209 165/175/206
g Bip001 L Clavicle
f 413/186/224 244/185/223 243/187/433
f 415/188/221 416/190/96 414/189/222
f 417/179/215 416/190/96 415/188/221
g Bip001 Spine2
f 179/254/315 171/182/423 169/179/210 178/190/225
f 180/192/229 171/182/423 179/254/315 286/267/98
f 183/268/456 184/199/445 182/194/346 181/195/232
f 185/196/234 186/197/406 184/199/445 183/268/456
f 298/246/308 299/95/113 297/93/107 296/92/106
g Bip001 Spine
f 379/211/252 198/208/377 195/203/299 197/207/248
g Bip001 Spine1
f 194/202/302 133/143/301 141/155/474 193/135/158
g Bip001 Spine
f 114/26/26 123/25/25 122/132/475 119/124/453
g Bip001 Spine2
f 330/99/359 292/90/104 294/89/103 329/251/360
g Bip001 Spine
f 111/128/355 116/125/354 115/23/23 110/123/371
g Bip001 Pelvis
f 104/116/425 111/128/355 110/123/371 105/119/370
g Bip001 Spine1
f 132/144/388 121/131/405 122/132/475 131/153/389
g Bip001 Spine2
f 139/150/367 143/156/366 142/167/394 140/154/387
f 151/164/203 144/157/365 145/158/476 150/170/398
g Bip001 Spine1
f 138/151/364 130/152/477 129/148/326 137/149/325
f 130/152/477 123/25/25 124/24/24 129/148/326
g Bip001 Spine2
f 150/170/398 145/158/476 146/163/441 149/162/399
f 136/147/277 146/163/441 145/158/476 137/149/325
g Bip001 Spine1
f 129/148/326 124/24/24 125/142/336 128/141/278
g Bip001 Spine
f 116/125/354 125/142/336 124/24/24 115/23/23
f 117/126/330 126/138/329 125/142/336 116/125/354
g Bip001 Spine2
f 135/146/184 147/159/183 146/163/441 136/147/277
g Bip001 Pelvis
f 225/262/465 25/31/32 228/239/297 224/265/463
f 229/238/294 228/239/297 25/31/32 26/32/34
f 360/237/292 359/32/466 347/238/293
g Bip001 Spine1
f 131/153/389 122/132/475 123/25/25 130/152/477
g Bip001 Spine2
f 154/173/416 155/259/478 153/166/395 152/165/202
f 161/248/407 162/204/358 155/259/478 154/173/416
g Bip001 L Clavicle
f 463/176/244 412/175/432 410/247/318
f 464/178/243 412/175/432 463/176/244
g Bip001 R Clavicle
f 169/179/210 166/178/209 167/186/219 168/188/226
g Bip001 L Clavicle
f 465/180/212 417/179/215 464/178/243
g Bip001 Spine2
f 182/194/346 189/200/357 173/183/309 174/184/322
f 186/197/406 191/205/396 190/198/446 184/199/445
f 187/136/159 192/201/393 191/205/396 186/197/406
g Bip001 Pelvis
f 314/257/383 313/17/17 312/9/9 8/8/8
g Bip001 Spine2
f 192/201/393 141/155/474 140/154/387 142/167/394
f 191/205/396 153/166/395 155/259/478 190/198/446
f 190/198/446 155/259/478 162/204/358 189/200/357
g Bip001 Spine
f 119/124/453 122/132/475 121/131/405 120/133/311
f 309/15/15 14/14/461 12/12/108 13/13/13
g Bip001 Spine1
f 140/154/387 141/155/474 133/143/301 132/144/388
g Bip001 Spine2
f 73/89/316 76/93/458 296/92/106 295/88/102
g Bip001 Spine
f 198/208/377 201/212/312 134/145/300 195/203/299
g Bip001 Pelvis
f 394/116/135 438/119/138 437/123/142 395/128/149
g Bip001 Spine
f 459/125/146 395/128/149 437/123/142 436/23/145
g Bip001 Pelvis
f 396/127/148 259/117/136 394/116/135 395/128/149
f 105/119/370 98/110/375 99/114/418 104/116/425
g Bip001 Spine2
f 137/149/325 145/158/476 144/157/365 138/151/364
g Bip001 Pelvis
f 349/265/452 256/234/288 258/233/287 348/239/451
f 360/237/292 361/34/36 320/21/21 319/20/20
g Bip001 Spine
f 20/36/283 30/35/282 29/33/442 19/22/109
g Bip001 Spine2
f 331/75/84 290/81/100 292/90/104 330/99/359
f 448/167/193 447/156/179 445/150/173 446/154/177
g Bip001 Pelvis
f 5/104/421 91/103/284 84/102/473 92/101/472
g Bip001 Spine
f 430/203/242 380/208/249 379/211/252 197/207/248
g Bip001 Spine1
f 196/206/247 194/202/302 193/135/158 188/134/157
g Bip001 Spine2
f 302/243/305 303/98/116 301/245/307 300/244/306
g Bip001 Spine1
f 458/142/165 440/24/156 454/148/171 457/141/164
g Bip001 Pelvis
f 389/106/413 366/227/273 367/224/270 388/223/269
g Bip001 Spine1
f 83/97/379 23/27/464 24/28/401 82/98/454
g Bip001 Spine
f 265/139/162 266/41/43 264/40/42 263/129/150
g Bip001 Pelvis
f 11/10/111 18/21/110 17/20/332 9/9/331
f 220/229/275 365/228/274 351/230/352 221/231/1
g Bip001 Spine2
f 425/197/235 185/196/234 183/268/456 424/199/238
f 363/67/72 329/251/360 328/94/112 362/64/69
f 41/51/381 40/50/57 38/49/324 39/48/378
g Bip001 L Clavicle
f 464/178/243 413/186/224 243/187/433 412/175/432
g Bip001 Pelvis
f 231/216/468 204/215/268 203/214/310 232/213/469
f 4/6/420 6/18/422 15/19/33 3/5/285
f 106/120/373 107/46/267 96/47/128 97/113/374
g Bip001 Spine1
f 139/150/367 131/153/389 130/152/477 138/151/364
g Bip001 Spine2
f 193/135/158 141/155/474 192/201/393 187/136/159
f 152/165/202 143/156/366 144/157/365 151/164/203
g Bip001 Spine
f 309/15/15 308/14/14 307/29/29 306/241/303
g Bip001 Pelvis
f 347/238/293 359/32/466 358/31/447 348/239/451
g Bip001 Spine1
f 440/24/156 441/25/155 453/152/175 454/148/171
g Bip001 Spine2
f 327/96/114 299/95/113 301/245/307 326/100/119
g Bip001 Pelvis
f 360/237/292 319/20/20 318/16/16 359/32/466
g Bip001 Spine2
f 42/57/339 49/56/195 48/55/58 40/50/57
f 152/165/202 153/166/395 142/167/394 143/156/366
f 364/66/71 336/63/68 335/72/81 331/75/84
f 246/269/85 247/270/404 276/271/186 403/272/197 239/273/199 240/274/200 241/275/205 242/276/392 411/277/391 243/278/433 244/279/223 281/280/356 245/281/74
f 237/282/87 66/283/86 236/284/218 176/285/220 235/286/382 175/287/408 160/288/415 159/289/201 158/290/397 157/291/400 156/292/347 65/293/194 238/294/390
g Bip001 Pelvis
f 84/102/473 91/4/284 227/232/286 226/236/431 225/262/465 224/265/463 223/234/438 222/235/439 90/115/417 89/111/419 88/112/424 87/109/127 86/295/122 85/107/124
f 251/109/341 252/112/131 253/111/130 254/115/134 255/235/289 256/234/288 349/265/452 357/262/448 356/236/291 355/232/290 350/103/4 248/102/121 249/107/414 250/105/460
f 473/253/369 216/264/450 230/253/467 209/221/411 208/219/261 206/217/258 231/216/468 232/213/469 233/250/470 234/249/471 378/266/455 377/249/334 375/250/335 478/213/254 477/216/257 476/217/384 475/219/262 474/221/265
