# Blender 5.1.1
# www.blender.org
mtllib left_arm.mtl
g park_cheshirecat_ob0_L0.left_arm_park_cheshirecat_model0.003
v 0.438881 -0.047991 0.062732
v 0.438393 -0.049944 0.064624
v 0.437904 -0.052385 0.063678
v 0.438393 -0.048479 0.059940
v 0.434486 -0.046526 0.059589
v 0.433510 -0.046037 0.063373
v 0.432533 -0.048479 0.065784
v 0.432533 -0.051897 0.064365
v 0.433022 -0.052873 0.060428
v 0.437904 -0.052873 0.060687
v 0.433998 -0.049944 0.058025
v 0.437904 -0.050920 0.058727
v 0.443764 -0.051409 0.058482
v 0.426674 -0.045061 0.058032
v 0.425209 -0.044084 0.062457
v 0.423256 -0.047502 0.065631
v 0.423744 -0.051409 0.063617
v 0.425209 -0.052385 0.059070
v 0.427162 -0.048967 0.056331
v 0.424233 -0.044084 -0.030194
v 0.431069 -0.040178 -0.027264
v 0.438393 -0.039690 -0.027081
v 0.443764 -0.038225 -0.027753
v 0.451576 -0.020159 -0.032391
v 0.450111 -0.039201 -0.028546
v 0.463783 -0.020647 -0.033734
v 0.462319 -0.041643 -0.030133
v 0.477944 -0.035295 -0.028546
v 0.485268 -0.029924 -0.020001
v 0.485268 -0.021623 -0.021283
v 0.486244 -0.030901 -0.012616
v 0.477944 -0.041643 -0.013562
v 0.463295 -0.047991 -0.014600
v 0.449135 -0.045549 -0.013898
v 0.442787 -0.043108 -0.013196
v 0.437416 -0.042619 -0.012830
v 0.430580 -0.042619 -0.012402
v 0.419838 -0.045549 -0.012372
v 0.399819 -0.051409 -0.030133
v 0.416420 -0.050432 -0.047406
v 0.397377 -0.051897 -0.046368
v 0.411537 -0.046037 -0.061505
v 0.392494 -0.046037 -0.060406
v 0.411049 -0.028948 -0.067059
v 0.392494 -0.029436 -0.067059
v 0.411049 -0.010881 -0.065533
v 0.393959 -0.008928 -0.064984
v 0.398354 0.002791 -0.055280
v 0.375404 0.004256 -0.056317
v 0.379799 0.012556 -0.037946
v 0.360756 0.013045 -0.038434
v 0.364174 0.021834 -0.015942
v 0.348061 0.024763 -0.015240
v 0.362221 0.020369 0.007159
v 0.347084 0.022810 0.009387
v 0.356850 0.010603 0.028743
v 0.342690 0.010603 0.031451
v 0.350014 -0.014299 0.047855
v 0.338295 -0.013323 0.047794
v 0.336830 -0.037737 0.036945
v 0.319740 -0.036272 0.038894
v 0.346596 -0.040178 0.036689
v 0.350990 -0.051409 0.009113
v 0.369057 -0.060686 0.026767
v 0.359779 -0.044573 0.042183
v 0.371498 -0.047991 0.049426
v 0.378822 -0.061174 0.035663
v 0.380776 -0.051409 0.055530
v 0.386635 -0.062151 0.041005
v 0.388588 -0.055315 0.060031
v 0.394447 -0.065569 0.044601
v 0.396401 -0.058244 0.063953
v 0.407631 -0.059221 0.068103
v 0.414955 -0.067034 0.056712
v 0.417885 -0.057756 0.069400
v 0.420326 -0.047014 0.071323
v 0.420815 -0.037737 0.067111
v 0.412514 -0.034319 0.065860
v 0.420326 -0.029436 0.056087
v 0.402260 -0.031877 0.062350
v 0.404213 -0.025041 0.049655
v 0.396401 -0.028948 0.059360
v 0.390053 -0.025530 0.056346
v 0.384194 -0.022112 0.052882
v 0.376869 -0.015276 0.047590
v 0.390053 0.000349 0.040471
v 0.369545 -0.003069 0.043086
v 0.373451 0.011580 0.025913
v 0.390053 0.011091 0.025729
v 0.379799 0.018904 0.005847
v 0.398354 0.015486 0.005145
v 0.381752 0.019881 -0.016766
v 0.363686 -0.026018 0.049831
v 0.373451 -0.032366 0.055385
v 0.383217 -0.037248 0.060123
v 0.390541 -0.040666 0.064273
v 0.396889 -0.044084 0.067844
v 0.407143 -0.046037 0.071475
v 0.394447 -0.013811 0.044025
v 0.401283 -0.026018 0.033908
v 0.394936 -0.020647 0.045093
v 0.400795 -0.027483 0.034412
v 0.398354 -0.023576 0.047050
v 0.404213 -0.028948 0.035640
v 0.410561 -0.031389 0.036929
v 0.410072 -0.026994 0.051791
v 0.416908 -0.031877 0.039359
v 0.426674 -0.033342 0.045341
v 0.427162 -0.036272 0.060657
v 0.431557 -0.037248 0.052394
v 0.433510 -0.045549 0.051650
v 0.429115 -0.046526 0.063510
v 0.424721 -0.059709 0.063220
v 0.431557 -0.055315 0.052242
v 0.424721 -0.063127 0.041116
v 0.403236 -0.068010 0.049533
v 0.413490 -0.058244 0.032314
v 0.405678 -0.055315 0.029186
v 0.399819 -0.055803 0.027377
v 0.392494 -0.056291 0.023013
v 0.386147 -0.058733 0.017047
v 0.376381 -0.056291 0.000781
v 0.347084 -0.048479 -0.017316
v 0.336342 -0.047991 0.009753
v 0.334877 -0.047502 -0.016003
v 0.317787 -0.047502 -0.015515
v 0.318764 -0.047014 0.011005
v 0.302162 -0.049944 -0.014630
v 0.272377 -0.055315 -0.014203
v 0.230873 -0.061662 -0.011792
v 0.190102 -0.066545 -0.008679
v 0.194985 -0.067522 0.029765
v 0.165444 -0.069963 -0.007336
v 0.139320 -0.073869 -0.005994
v 0.094643 -0.080705 -0.007520
v 0.055092 -0.093889 0.042123
v 0.051674 -0.090959 -0.011761
v 0.044960 -0.096819 0.042016
v 0.043861 -0.094866 -0.012219
v 0.039589 -0.097307 -0.012494
v 0.029335 -0.067522 -0.067242
v 0.018105 -0.070451 -0.071332
v 0.001991 -0.074358 -0.077252
v 0.006874 -0.026994 -0.096844
v -0.016197 -0.027483 -0.103314
v -0.028648 0.015486 -0.100873
v -0.006798 0.028670 -0.090375
v -0.028038 0.066756 -0.060529
v -0.049034 0.072615 -0.057782
v -0.042076 0.092634 -0.007642
v -0.012413 0.090681 -0.008191
v -0.007896 0.089216 0.047002
v -0.021080 0.067732 0.092181
v 0.021401 0.058943 0.092120
v 0.000282 0.029158 0.122577
v 0.026650 0.023299 0.113239
v 0.019081 -0.025530 0.131244
v 0.036049 -0.024065 0.120807
v 0.044594 -0.073869 0.105731
v 0.401283 -0.041155 0.020068
v 0.405678 -0.038225 0.027255
v 0.411537 -0.040666 0.028506
v 0.419350 -0.042131 0.030284
v 0.430092 -0.044573 0.038676
v 0.402748 -0.039690 0.024310
v 0.428627 -0.014299 0.006152
v 0.430092 -0.000139 0.001117
v 0.437416 -0.002092 0.000446
v 0.438393 -0.016252 0.004504
v 0.443276 -0.002580 0.000201
v 0.451576 -0.004045 0.000018
v 0.463783 -0.003557 0.000079
v 0.475990 -0.005998 -0.001080
v 0.477944 -0.021135 0.004688
v 0.483315 -0.013323 -0.005109
v 0.485756 -0.021623 -0.003613
v 0.488197 -0.021623 -0.012158
v 0.484291 -0.012834 -0.011914
v 0.475502 -0.003069 -0.012158
v 0.463295 -0.000139 -0.012494
v 0.451088 -0.000139 -0.013440
v 0.443276 0.002302 -0.014294
v 0.436928 0.003279 -0.015118
v 0.429604 0.005720 -0.015820
v 0.420326 0.008650 -0.016583
v 0.411049 0.011091 0.023502
v 0.407631 0.002302 0.038680
v 0.422768 0.000349 0.037048
v 0.431557 -0.001116 0.036800
v 0.440346 -0.002092 0.037379
v 0.446694 -0.002580 0.038108
v 0.456947 -0.003557 0.039108
v 0.454506 -0.019670 0.045126
v 0.466713 -0.006975 0.038291
v 0.474526 -0.012834 0.035480
v 0.478920 -0.016741 0.030406
v 0.480385 -0.016741 0.024646
v 0.480385 -0.017229 0.018878
v 0.476479 -0.012834 0.014392
v 0.468178 -0.005998 0.011737
v 0.457436 -0.003557 0.011462
v 0.446694 -0.020159 0.007159
v 0.447670 -0.002580 0.011493
v 0.441322 -0.001604 0.011401
v 0.434975 -0.000627 0.010333
v 0.429604 0.000349 0.008929
v 0.422279 0.006209 0.005267
v 0.425697 0.007185 0.023044
v 0.433510 0.005720 0.023212
v 0.441811 0.004256 0.023273
v 0.448158 0.003279 0.023257
v 0.457924 0.001814 0.023380
v 0.467690 -0.002092 0.023380
v 0.475502 -0.009416 0.023837
v 0.303139 -0.048967 0.012790
v 0.305580 -0.036272 0.040355
v 0.274330 -0.053850 0.018054
v 0.276772 -0.039201 0.045876
v 0.237465 -0.043596 0.053508
v 0.234535 -0.061174 0.024204
v 0.198891 -0.048967 0.059535
v 0.173012 -0.053850 0.064883
v 0.169350 -0.071916 0.033214
v 0.147133 -0.058244 0.070224
v 0.143959 -0.076311 0.036666
v 0.099281 -0.085100 0.040231
v 0.100014 -0.066057 0.082843
v 0.055092 -0.070940 0.099689
v 0.051186 -0.023088 0.113178
v 0.050209 0.018904 0.105731
v 0.053139 0.055037 0.086719
v 0.029701 0.084822 0.043826
v 0.029579 0.087263 -0.008527
v 0.018349 0.062361 -0.059491
v 0.017006 0.026228 -0.088300
v 0.022987 -0.026994 -0.093060
v 0.041298 -0.026506 -0.089520
v 0.044350 -0.063616 -0.062970
v 0.088295 -0.057756 -0.056927
v 0.135658 -0.056291 -0.052411
v 0.161537 -0.054338 -0.052289
v 0.187172 -0.052385 -0.052167
v 0.227211 -0.049944 -0.050946
v 0.270424 -0.047502 -0.048016
v 0.301186 -0.045549 -0.045453
v 0.316322 -0.044084 -0.044110
v 0.333901 -0.044573 -0.042035
v 0.344154 -0.046526 -0.043622
v 0.357826 -0.052873 -0.037152
v 0.353432 -0.046526 -0.053754
v 0.375893 -0.054338 -0.045026
v 0.372475 -0.046037 -0.059003
v 0.381752 -0.054826 -0.031720
v 0.398354 -0.048967 -0.014905
v 0.430580 -0.033830 0.000842
v 0.438393 -0.034319 0.000690
v 0.444252 -0.034807 0.000903
v 0.450600 -0.037248 0.001453
v 0.464760 -0.038713 0.003589
v 0.477944 -0.035295 0.001880
v 0.464760 -0.020647 0.007129
v 0.452553 -0.019182 0.005695
v 0.444252 -0.017229 0.004565
v 0.430580 -0.015276 0.005023
v 0.484779 -0.029924 -0.004437
v 0.372963 -0.027971 -0.065167
v 0.356850 -0.027971 -0.062054
v 0.344154 -0.026506 -0.059674
v 0.333412 -0.025530 -0.057721
v 0.315346 -0.025041 -0.059308
v 0.300209 -0.024553 -0.062054
v 0.268959 -0.024065 -0.066693
v 0.226235 -0.024065 -0.073102
v 0.187172 -0.024553 -0.077801
v 0.160561 -0.025041 -0.079083
v 0.133705 -0.025041 -0.079938
v 0.087074 -0.026506 -0.083539
v 0.041664 0.023299 -0.085492
v 0.047402 0.059920 -0.058087
v 0.054848 0.083845 -0.009534
v 0.055092 0.081404 0.041555
v 0.100502 0.046248 0.076617
v 0.099037 0.011091 0.093555
v 0.098793 -0.019670 0.097614
v 0.147865 -0.016252 0.084491
v 0.174233 -0.015276 0.078754
v 0.200600 -0.014299 0.073016
v 0.238197 -0.012346 0.066135
v 0.278236 -0.011858 0.058231
v 0.307533 -0.012346 0.052715
v 0.322670 -0.012834 0.050384
v 0.324623 0.013045 0.036006
v 0.327065 0.028670 0.013629
v 0.326576 0.032088 -0.013715
v 0.344154 0.016951 -0.039044
v 0.354897 0.002302 -0.057355
v 0.362221 -0.010393 -0.062665
v 0.375893 -0.008928 -0.064130
v 0.148110 0.035994 0.070560
v 0.174965 0.033064 0.066653
v 0.201820 0.030134 0.062762
v 0.238197 0.025252 0.057361
v 0.278481 0.019881 0.049712
v 0.308022 0.015486 0.041141
v 0.308998 0.033064 0.017261
v 0.308022 0.036482 -0.012463
v 0.322670 0.023299 -0.041425
v 0.338783 0.002302 -0.055890
v 0.317787 0.003279 -0.057904
v 0.301186 0.003767 -0.061078
v 0.271401 0.006209 -0.066266
v 0.228920 0.010603 -0.072491
v 0.189613 0.013533 -0.077679
v 0.162270 0.015486 -0.079633
v 0.134194 0.017439 -0.081830
v 0.089516 0.020369 -0.083539
v 0.094399 0.055525 -0.056012
v 0.100014 0.077986 -0.010052
v 0.102699 0.074568 0.037254
v 0.147133 0.067732 0.033366
v 0.143471 0.071638 -0.010602
v 0.170570 0.067244 -0.011029
v 0.173988 0.062361 0.031398
v 0.201088 0.057478 0.029430
v 0.237221 0.049666 0.026859
v 0.279213 0.040388 0.022357
v 0.277504 0.044783 -0.011761
v 0.197670 0.062361 -0.011456
v 0.236000 0.054549 -0.011212
v 0.304604 0.026228 -0.042950
v 0.274086 0.031599 -0.045941
v 0.232826 0.039412 -0.049542
v 0.193276 0.045271 -0.052167
v 0.166176 0.048201 -0.053387
v 0.137611 0.051131 -0.054791
v 0.409096 -0.014787 0.042018
v 0.413490 -0.030412 0.034984
v 0.421791 -0.016252 0.039947
v 0.422279 -0.031389 0.036136
v 0.429115 -0.032366 0.036865
v 0.430092 -0.017229 0.040487
v 0.436440 -0.034319 0.038024
v 0.437904 -0.018205 0.041658
v 0.444252 -0.034807 0.040643
v 0.445229 -0.018694 0.043381
v 0.454506 -0.035295 0.043112
v 0.465736 -0.020647 0.045666
v 0.465736 -0.034807 0.042966
v 0.475014 -0.021623 0.041047
v 0.475990 -0.031389 0.039161
v 0.480385 -0.026506 0.032565
v 0.479897 -0.021135 0.032352
v 0.481850 -0.021623 0.025455
v 0.481850 -0.027483 0.026477
v 0.481850 -0.026994 0.019916
v 0.481850 -0.022600 0.018420
v 0.477455 -0.023576 0.011035
v 0.478432 -0.032366 0.014499
v 0.467201 -0.024065 0.006763
v 0.466713 -0.038225 0.010577
v 0.456947 -0.022600 0.006641
v 0.454506 -0.038713 0.011127
v 0.444252 -0.036272 0.012256
v 0.438393 -0.034319 0.012286
v 0.440346 -0.018694 0.007526
v 0.432533 -0.033342 0.011523
v 0.434975 -0.015764 0.006946
v 0.430092 -0.036272 0.025653
v 0.423744 -0.036760 0.024875
v 0.416420 -0.037737 0.023380
v 0.400795 -0.047014 0.002399
v 0.436440 -0.038225 0.026691
v 0.442299 -0.040666 0.027377
v 0.452065 -0.043596 0.027744
v 0.465736 -0.043596 0.027621
v 0.477455 -0.036272 0.027454
v 0.370522 -0.052873 -0.020428
v 0.428627 -0.043108 -0.034772
v 0.439369 -0.024553 -0.034344
v 0.437904 -0.045061 -0.035809
v 0.444740 -0.025530 -0.034283
v 0.442787 -0.045061 -0.036053
v 0.451576 -0.046526 -0.033795
v 0.462319 -0.046037 -0.035199
v 0.462807 -0.025530 -0.033917
v 0.470619 -0.038713 -0.042157
v 0.472572 -0.033342 -0.047101
v 0.473061 -0.028459 -0.047101
v 0.473549 -0.029436 -0.053204
v 0.472572 -0.034807 -0.052533
v 0.471596 -0.034807 -0.058270
v 0.472084 -0.029436 -0.059552
v 0.400307 0.015486 -0.016858
v 0.400307 0.008650 -0.037946
v 0.415444 -0.002092 -0.054913
v 0.420815 -0.012346 -0.065717
v 0.420326 -0.028948 -0.067731
v 0.421791 -0.046037 -0.062421
v 0.424721 -0.049944 -0.048810
v 0.434486 -0.050432 -0.050641
v 0.440834 -0.051409 -0.051068
v 0.450111 -0.054338 -0.051617
v 0.461342 -0.051409 -0.051862
v 0.470131 -0.044084 -0.051801
v 0.469154 -0.040666 -0.062787
v 0.468178 -0.029436 -0.066449
v 0.471108 -0.024065 -0.059064
v 0.472084 -0.023576 -0.053876
v 0.472084 -0.023576 -0.048566
v 0.471108 -0.026994 -0.040265
v 0.470131 -0.018694 -0.045331
v 0.461830 -0.009416 -0.043378
v 0.453529 -0.025530 -0.032574
v 0.452553 -0.006975 -0.042584
v 0.444252 -0.006487 -0.042706
v 0.437416 -0.005998 -0.041913
v 0.431557 -0.022112 -0.033063
v 0.428627 -0.004534 -0.039593
v 0.423744 -0.004534 -0.055402
v 0.431069 -0.003069 -0.029034
v 0.437904 -0.003557 -0.027814
v 0.443764 -0.003557 -0.026532
v 0.451576 -0.005022 -0.025922
v 0.444252 -0.019670 -0.030926
v 0.438393 -0.019670 -0.030255
v 0.431557 -0.020647 -0.031110
v 0.430092 -0.021135 -0.032208
v 0.463295 -0.004045 -0.025738
v 0.475502 -0.005998 -0.024457
v 0.483315 -0.013811 -0.019208
v 0.476479 -0.021135 -0.031049
v 0.435463 -0.005998 -0.056317
v 0.441811 -0.006975 -0.056195
v 0.451088 -0.007463 -0.055707
v 0.460365 -0.009905 -0.055157
v 0.468666 -0.017229 -0.054486
v 0.467690 -0.019670 -0.062543
v 0.459389 -0.013323 -0.065778
v 0.459389 -0.028459 -0.072430
v 0.449623 -0.028459 -0.073712
v 0.448647 -0.047014 -0.068341
v 0.440346 -0.028459 -0.070599
v 0.439369 -0.046037 -0.066266
v 0.432533 -0.046526 -0.064191
v 0.459877 -0.047014 -0.067303
v 0.432045 -0.028948 -0.068890
v 0.432533 -0.012346 -0.065655
v 0.440834 -0.012346 -0.067181
v 0.450111 -0.011858 -0.067181
v 0.430092 -0.013811 0.006458
v 0.418373 -0.035784 0.004993
v 0.427162 -0.031877 0.010181
v 0.423744 0.003279 -0.035870
v 0.033608 -0.077287 0.112079
v -0.041344 0.091658 0.048793
v 0.041664 -0.100725 0.042052
v -0.043297 0.054060 -0.074139
v 0.492592 -0.026994 -0.012219
v 0.492592 -0.025041 -0.015149
v 0.485268 -0.022112 -0.014508
v 0.484779 -0.023576 -0.018292
v 0.485268 -0.024553 -0.011060
v 0.484291 -0.027971 -0.011822
v 0.490639 -0.029436 -0.012860
v 0.493569 -0.031389 -0.014325
v 0.493080 -0.031389 -0.016217
v 0.495033 -0.030412 -0.014203
v 0.495522 -0.029436 -0.015729
v 0.492104 -0.026018 -0.018445
v 0.483315 -0.026506 -0.018964
v 0.490639 -0.028459 -0.018964
v 0.483315 -0.028948 -0.015637
v 0.490151 -0.030412 -0.016034
v 0.493569 -0.030901 -0.017865
v 0.495033 -0.029924 -0.017743
v 0.496010 -0.035295 -0.016736
v 0.485268 -0.031877 0.022235
v 0.489174 -0.032366 0.022907
v 0.487709 -0.033830 0.022891
v 0.490151 -0.037737 0.024997
v 0.486733 -0.034319 0.025180
v 0.483803 -0.032854 0.025119
v 0.475990 -0.030901 0.025058
v 0.476967 -0.029436 0.021442
v 0.488686 -0.032366 0.027499
v 0.489662 -0.031877 0.025211
v 0.486733 -0.029436 0.022250
v 0.487221 -0.028459 0.025180
v 0.487221 -0.033830 0.027484
v 0.484291 -0.031877 0.028156
v 0.486244 -0.029436 0.028186
v 0.478432 -0.026018 0.021472
v 0.478920 -0.024065 0.025104
v 0.477944 -0.026018 0.028720
v 0.476479 -0.029436 0.028690
v 0.478432 -0.031877 -0.051129
v 0.471596 -0.029436 -0.049969
v 0.478920 -0.029924 -0.053998
v 0.471596 -0.026994 -0.053387
v 0.471108 -0.028459 -0.057172
v 0.470619 -0.032854 -0.050702
v 0.476967 -0.034319 -0.051739
v 0.479897 -0.036272 -0.053204
v 0.478920 -0.036272 -0.055096
v 0.481361 -0.035295 -0.053082
v 0.481850 -0.034319 -0.054608
v 0.477944 -0.030901 -0.057294
v 0.469643 -0.031877 -0.057843
v 0.476479 -0.033342 -0.057843
v 0.469643 -0.033830 -0.054547
v 0.475990 -0.035295 -0.054913
v 0.479897 -0.035784 -0.056744
v 0.482338 -0.040178 -0.055646
v 0.481361 -0.034807 -0.056622
vn 0.3275 0.9167 0.2288
vn 0.6242 0.7295 -0.2798
vn 0.3454 0.8143 -0.4665
vn 0.2176 0.9680 0.1250
vn 0.1231 0.9601 0.2511
vn 0.1224 0.9725 0.1983
vn 0.1454 0.9783 -0.1476
vn 0.1323 0.9804 -0.1462
vn 0.4707 0.7854 0.4020
vn 0.4658 0.8631 -0.1953
vn 0.1375 0.9670 -0.2145
vn 0.1114 0.8642 0.4907
vn -0.5614 -0.5339 0.6323
vn -0.4293 -0.5887 0.6850
vn -0.3629 0.1117 0.9251
vn -0.4038 0.1566 0.9013
vn 0.2838 0.9488 0.1384
vn 0.1479 0.5853 0.7972
vn 0.0586 0.6133 0.7877
vn 0.1836 0.9827 0.0237
vn -0.3235 -0.6784 -0.6596
vn -0.2875 -0.1597 -0.9444
vn -0.1351 -0.1361 -0.9814
vn -0.1260 -0.6583 -0.7422
vn 0.0388 0.0376 0.9985
vn -0.0285 -0.5758 0.8171
vn -0.1655 -0.5475 0.8203
vn -0.0376 0.0575 0.9976
vn 0.0053 0.2066 0.9784
vn 0.4079 0.2114 0.8882
vn 0.2125 0.9202 -0.3287
vn 0.5275 0.7968 -0.2948
vn 0.2571 0.8127 -0.5229
vn 0.1400 0.8023 -0.5803
vn 0.0770 0.8948 -0.4397
vn 0.1926 0.8373 -0.5117
vn 0.2476 0.9595 -0.1341
vn 0.2665 0.9570 -0.1147
vn 0.2339 0.9653 -0.1164
vn 0.2808 0.8918 0.3548
vn 0.2951 0.8932 0.3393
vn 0.2494 0.6088 0.7531
vn 0.2216 0.5379 0.8133
vn 0.1900 0.9132 0.3605
vn 0.1854 0.9258 0.3295
vn 0.3034 0.3162 0.8989
vn 0.3333 0.3908 0.8580
vn 0.4634 0.0279 0.8857
vn 0.3824 -0.0227 0.9237
vn -0.1660 -0.9791 0.1175
vn 0.0042 -0.9852 0.1716
vn -0.0090 -0.9702 -0.2423
vn 0.2080 -0.1562 -0.9656
vn 0.1878 -0.1473 -0.9711
vn -0.0062 -0.9552 -0.2959
vn -0.0297 -0.7595 0.6498
vn -0.0904 -0.7452 0.6607
vn -0.0114 0.1186 0.9929
vn 0.0997 0.1610 0.9819
vn 0.2665 0.8877 0.3754
vn 0.1504 0.8967 0.4163
vn 0.3273 0.7787 -0.5353
vn 0.2728 0.8141 -0.5127
vn 0.5470 0.7659 0.3379
vn 0.3245 0.7569 -0.5673
vn 0.4714 0.0626 0.8797
vn 0.2699 -0.7494 0.6046
vn 0.0555 -0.1994 -0.9784
vn 0.0742 -0.9659 -0.2479
vn 0.4016 0.5163 -0.7564
vn 0.6679 0.1924 -0.7189
vn -0.1294 -0.3920 -0.9108
vn -0.0458 -0.3562 -0.9333
vn -0.0977 -0.4057 -0.9088
vn 0.2020 0.6003 -0.7739
vn 0.3769 0.9214 0.0950
vn 0.6204 0.7796 0.0850
vn 0.2737 0.3312 0.9030
vn 0.4525 0.2344 0.8604
vn 0.9311 0.3615 0.0483
vn 0.6734 -0.0560 0.7372
vn -0.0433 -0.6554 0.7540
vn -0.1385 -0.6547 0.7431
vn -0.2933 -0.9481 -0.1229
vn -0.0575 -0.6874 0.7240
vn -0.2097 -0.9659 -0.1516
vn -0.1172 -0.5724 0.8116
vn -0.1326 -0.5345 0.8347
vn 0.4067 0.3956 0.8235
vn 0.2507 0.4265 0.8690
vn -0.1414 -0.5779 0.8038
vn -0.3570 -0.9329 -0.0475
vn -0.5933 -0.8026 -0.0629
vn 0.9311 0.3560 0.0795
vn 0.6454 0.7627 0.0409
vn 0.6191 0.0942 0.7797
vn -0.2506 -0.9680 -0.0120
vn -0.0905 -0.5703 -0.8164
vn -0.1032 -0.4840 -0.8690
vn -0.1336 -0.5259 -0.8400
vn -0.0434 -0.3486 -0.9363
vn -0.3126 -0.9384 -0.1471
vn -0.2148 -0.9588 -0.1857
vn -0.0982 -0.3690 -0.9242
vn 0.4365 0.5185 -0.7352
vn 0.6860 0.1756 -0.7061
vn -0.1609 -0.4402 -0.8834
vn 0.1970 0.6028 -0.7731
vn 0.3648 0.9263 0.0940
vn 0.6098 0.7884 0.0807
vn 0.2680 0.3354 0.9032
vn 0.4895 0.2379 0.8389
vn 0.9359 0.3499 0.0417
vn 0.6870 -0.0681 0.7235
vn -0.0503 -0.6727 0.7382
vn -0.1692 -0.6877 0.7060
vn 0.8838 -0.1526 -0.4423
vn 0.8251 -0.5648 -0.0181
vn 0.8440 -0.3248 0.4267
vn 0.4374 -0.5604 0.7033
vn 0.4210 -0.9070 -0.0106
vn -0.0682 0.6977 0.7131
vn -0.0357 0.7133 0.7000
vn 0.0724 0.9496 -0.3050
vn -0.0522 0.5632 -0.8247
vn 0.0234 0.4752 -0.8796
vn 0.2282 0.8734 -0.4302
vn 0.0279 -0.9987 0.0420
vn 0.3032 -0.6323 0.7129
vn 0.4486 -0.8870 0.1092
vn 0.1186 -0.9918 -0.0486
vn 0.1422 0.9898 -0.0103
vn -0.0076 0.6520 0.7582
vn -0.0189 0.6878 0.7257
vn 0.1180 0.9923 -0.0378
vn -0.1586 -0.9866 0.0382
vn -0.1941 -0.6394 0.7440
vn -0.0746 -0.6442 0.7612
vn 0.0439 -0.9906 0.1299
vn 0.0552 0.5838 0.8100
vn -0.0117 0.5486 0.8360
vn -0.0007 0.4102 0.9120
vn 0.2771 0.1728 0.9452
vn 0.8112 0.0112 0.5847
vn 0.9994 0.0199 0.0287
vn 0.8620 0.5014 0.0749
vn 0.6632 0.5749 0.4792
vn -0.0930 0.0009 0.9957
vn 0.0157 -0.0516 0.9985
vn 0.1566 0.3222 -0.9336
vn 0.1814 0.7802 -0.5987
vn 0.2030 0.7800 -0.5920
vn 0.1759 0.3186 -0.9314
vn 0.2865 0.4574 -0.8419
vn 0.4500 0.4267 -0.7845
vn 0.3046 -0.6853 -0.6616
vn -0.0264 -0.7262 -0.6870
vn 0.0857 -0.8636 -0.4969
vn 0.1263 -0.3141 -0.9409
vn -0.0427 -0.3003 -0.9529
vn -0.0849 -0.8869 -0.4540
vn 0.0968 0.7678 -0.6333
vn 0.1318 0.9713 -0.1979
vn 0.1477 0.9719 -0.1835
vn 0.1074 0.7733 -0.6249
vn 0.1796 -0.5696 0.8021
vn 0.1830 -0.9556 0.2308
vn 0.4101 0.7920 -0.4523
vn 0.4639 0.3526 -0.8127
vn 0.8580 -0.0210 -0.5132
vn 0.8943 0.4459 0.0366
vn 0.2019 -0.0719 0.9768
vn 0.1923 0.5217 0.8312
vn 0.1909 0.5221 0.8312
vn 0.2148 -0.0526 0.9752
vn -0.0611 0.3025 -0.9512
vn 0.0150 0.7463 -0.6655
vn 0.0174 0.3769 -0.9261
vn 0.4077 0.6641 -0.6267
vn 0.0599 0.6953 -0.7163
vn -0.0248 -0.7104 -0.7034
vn -0.0870 -0.7154 -0.6932
vn 0.0488 0.0095 -0.9988
vn 0.0352 -0.7181 -0.6951
vn 0.3356 -0.6988 -0.6317
vn 0.3479 -0.0265 -0.9371
vn 0.4985 0.8669 0.0006
vn 0.4102 0.6654 0.6237
vn 0.6907 0.5370 0.4844
vn 0.7392 0.6721 0.0436
vn 0.0484 0.1256 -0.9909
vn 0.0602 -0.6523 -0.7556
vn -0.2241 -0.6027 -0.7658
vn -0.1000 0.1025 -0.9897
vn 0.8761 0.0884 0.4739
vn 0.8437 -0.3463 0.4102
vn 0.9097 -0.4152 0.0043
vn 0.9946 0.1038 -0.0036
vn 0.4655 0.0959 0.8798
vn 0.5095 -0.5234 0.6830
vn 0.0381 0.0824 0.9959
vn 0.0607 -0.6196 0.7826
vn -0.0978 0.0654 0.9930
vn -0.2128 -0.5992 0.7718
vn 0.2768 0.5823 0.7644
vn 0.2713 0.6322 0.7258
vn 0.2934 -0.9310 0.2170
vn 0.4314 -0.8735 0.2256
vn 0.3194 -0.9309 0.1774
vn 0.2287 -0.9680 0.1030
vn 0.5611 -0.8198 0.1148
vn 0.1377 -0.9440 0.2999
vn -0.2559 -0.9653 0.0516
vn 0.0925 -0.9956 0.0152
vn 0.5520 -0.4678 -0.6903
vn 0.5734 -0.8192 0.0086
vn 0.0945 0.9219 -0.3757
vn -0.0590 0.5673 -0.8214
vn 0.0639 0.4340 -0.8986
vn 0.1649 0.3530 -0.9210
vn 0.2140 0.8010 -0.5592
vn 0.0843 0.3167 -0.9448
vn 0.1194 0.7792 -0.6153
vn 0.1427 0.7817 -0.6071
vn 0.1131 0.3201 -0.9406
vn 0.0773 0.3115 -0.9471
vn 0.1037 0.7624 -0.6388
vn 0.0793 0.3240 -0.9427
vn 0.1159 0.3450 -0.9314
vn 0.1016 0.7700 -0.6299
vn 0.1351 0.3792 -0.9154
vn 0.1472 0.9515 0.2700
vn 0.1113 0.9610 0.2530
vn -0.6451 0.4515 0.6164
vn 0.2157 0.7158 0.6641
vn -0.5486 0.1164 0.8280
vn -0.4742 -0.2482 0.8447
vn -0.5992 -0.5914 0.5397
vn 0.5108 -0.5619 0.6506
vn 0.8016 0.0974 -0.5898
vn 0.1555 0.6689 0.7269
vn 0.4585 0.6379 0.6187
vn 0.2777 -0.0037 0.9607
vn 0.6113 -0.6136 0.4999
vn 0.8883 -0.4553 0.0607
vn 0.1566 -0.9656 0.2078
vn 0.5617 -0.7212 -0.4055
vn -0.2801 -0.9540 -0.1066
vn 0.1454 -0.5113 -0.8470
vn 0.2497 -0.6096 -0.7523
vn -0.1734 -0.9846 -0.0234
vn 0.1083 0.9721 -0.2082
vn 0.0922 0.9736 -0.2089
vn 0.2402 0.6652 0.7070
vn 0.1722 0.9406 0.2928
vn 0.1240 0.9699 -0.2097
vn 0.2268 -0.6361 0.7376
vn 0.1874 -0.9542 0.2331
vn 0.1838 -0.9515 0.2466
vn 0.2104 -0.6463 0.7335
vn 0.1922 -0.9515 0.2405
vn 0.2095 -0.6783 0.7043
vn 0.1580 -0.9637 0.2150
vn 0.1584 -0.7147 0.6813
vn 0.0470 -0.9799 0.1939
vn 0.0763 -0.7282 0.6811
vn -0.1130 -0.9794 0.1673
vn -0.0523 -0.7231 0.6888
vn -0.2647 -0.9622 0.0650
vn -0.3482 -0.6758 0.6496
vn -0.2929 -0.9478 0.1261
vn -0.5442 -0.5506 0.6329
vn -0.1978 -0.9638 0.1789
vn -0.5525 -0.5069 0.6616
vn -0.2640 -0.9641 0.0286
vn -0.5690 -0.5028 0.6507
vn -0.1551 -0.5925 0.7905
vn 0.3516 0.5301 0.7716
vn 0.3478 0.0576 0.9358
vn 0.0373 0.6807 0.7316
vn 0.2875 0.9498 0.1232
vn 0.3935 0.9058 0.1568
vn -0.0045 0.6955 0.7186
vn 0.6970 0.4948 0.5190
vn 0.0007 0.5819 0.8133
vn 0.0398 0.8955 0.4432
vn 0.0526 0.8654 0.4984
vn 0.2404 0.9220 0.3035
vn -0.1685 0.1061 0.9800
vn 0.4151 0.9057 -0.0865
vn 0.2601 0.9576 -0.1242
vn 0.4338 0.8979 -0.0749
vn 0.2139 0.9728 -0.0886
vn 0.5085 0.5104 -0.6935
vn 0.1625 0.5655 -0.8086
vn 0.0402 0.7135 0.6995
vn 0.1085 0.7053 0.7005
vn 0.4664 0.6771 0.5693
vn 0.0856 0.7521 0.6535
vn 0.0922 0.9957 -0.0102
vn 0.4851 0.8744 -0.0052
vn 0.1881 0.9808 -0.0519
vn 0.1180 0.9924 -0.0351
vn 0.1296 0.6610 -0.7391
vn 0.0434 0.6970 -0.7158
vn -0.0601 0.0595 -0.9964
vn 0.4730 0.6810 -0.5590
vn 0.0832 0.7582 -0.6467
vn 0.6858 0.1246 -0.7170
vn 0.8726 0.1259 -0.4719
vn 0.8155 0.4583 -0.3535
vn 0.8522 0.5232 -0.0072
vn -0.0585 -0.6965 0.7152
vn 0.1614 0.9726 -0.1674
vn 0.1799 0.9718 -0.1528
vn 0.2100 0.9681 -0.1364
vn 0.2339 0.9637 -0.1285
vn 0.1962 0.7896 -0.5814
vn 0.2354 -0.1900 -0.9531
vn 0.3797 -0.6258 -0.6813
vn -0.2270 -0.9543 -0.1945
vn 0.2613 -0.1355 -0.9557
vn -0.5714 -0.8102 -0.1310
vn 0.4615 -0.8408 -0.2831
vn 0.5547 -0.8238 0.1170
vn -0.1366 -0.8024 0.5810
vn 0.2991 -0.9106 -0.2853
vn 0.2919 -0.9448 0.1487
vn 0.2152 -0.9632 0.1609
vn 0.1794 -0.9487 -0.2602
vn 0.1344 -0.9651 -0.2249
vn 0.2030 -0.9608 0.1886
vn 0.1239 -0.9719 -0.2002
vn 0.1976 -0.9575 0.2099
vn 0.1156 -0.9774 -0.1772
vn 0.1218 -0.9817 -0.1464
vn 0.1428 -0.9842 -0.1048
vn 0.1428 -0.9875 -0.0670
vn 0.0580 -0.9966 -0.0577
vn -0.0854 -0.9945 -0.0603
vn 0.0853 -0.9859 -0.1436
vn 0.3669 -0.8711 -0.3265
vn 0.4644 -0.7466 -0.4764
vn 0.2597 -0.6286 -0.7331
vn -0.0400 -0.9989 0.0250
vn 0.0643 -0.9949 0.0775
vn 0.1755 -0.9791 0.1026
vn -0.0334 -0.9711 -0.2363
vn 0.0980 -0.9783 -0.1824
vn -0.0205 -0.6798 -0.7331
vn -0.0505 -0.1357 -0.9895
vn -0.1688 0.2064 -0.9638
vn -0.2841 -0.2190 -0.9334
vn 0.1360 -0.3249 -0.9359
vn 0.1824 0.3232 -0.9286
vn 0.1520 -0.3116 -0.9380
vn 0.1204 -0.3417 -0.9321
vn 0.0837 -0.3566 -0.9305
vn 0.0633 -0.3627 -0.9298
vn 0.0542 -0.3697 -0.9276
vn 0.1007 -0.3318 -0.9380
vn 0.1728 -0.2589 -0.9503
vn 0.2593 -0.7114 -0.6532
vn 0.3710 -0.6497 -0.6635
vn 0.0851 -0.8162 -0.5715
vn 0.1442 -0.7730 -0.6178
vn 0.0720 -0.8287 -0.5550
vn 0.0783 -0.8331 -0.5475
vn -0.3008 -0.6400 0.7071
vn -0.1796 0.0404 0.9829
vn -0.3126 -0.8529 -0.4182
vn -0.1958 -0.9799 -0.0378
vn -0.2300 -0.9677 -0.1033
vn 0.0939 -0.8325 -0.5460
vn -0.0546 -0.0180 -0.9983
vn 0.0798 0.6191 -0.7813
vn 0.1341 0.6457 -0.7517
vn -0.0242 -0.0150 -0.9996
vn 0.3970 0.6210 -0.6759
vn 0.2157 -0.0226 -0.9762
vn 0.9501 0.1037 -0.2943
vn 0.8933 0.3809 -0.2385
vn 0.8965 0.4364 0.0768
vn 0.9795 0.1671 0.1130
vn 0.8498 0.4315 0.3027
vn 0.9012 0.1984 0.3853
vn 0.6527 0.1502 0.7426
vn 0.2472 0.1309 0.9601
vn 0.1212 0.7108 0.6929
vn -0.0666 0.1133 0.9913
vn -0.1911 0.0891 0.9775
vn 0.1186 0.5894 0.7991
vn 0.0454 -0.1346 0.9899
vn 0.2132 0.9708 0.1098
vn 0.5280 0.8492 -0.0008
vn 0.1819 0.9433 0.2777
vn 0.2359 0.6093 -0.7570
vn 0.4828 0.5284 -0.6983
vn 0.1519 0.6217 -0.7684
vn 0.2220 0.9746 -0.0288
vn 0.7046 0.4746 -0.5275
vn 0.3922 -0.6145 0.6845
vn 0.2903 -0.6484 0.7037
vn 0.6056 0.7431 0.2848
vn 0.4652 0.1120 0.8781
vn 0.1233 0.1510 0.9808
vn 0.1933 0.8380 0.5102
vn -0.0585 0.1716 0.9834
vn 0.0577 0.8604 0.5064
vn 0.9340 0.3372 -0.1183
vn 0.9966 0.0225 -0.0788
vn 0.9364 0.0351 -0.3491
vn 0.8929 0.3058 -0.3303
vn 0.3640 -0.6436 -0.6733
vn 0.7731 -0.3980 -0.4939
vn -0.0446 -0.5727 0.8186
vn -0.0505 -0.9987 0.0113
vn -0.1591 -0.5724 0.8044
vn 0.8199 0.1403 0.5550
vn 0.9439 -0.1821 -0.2755
vn 0.9760 -0.2122 -0.0490
vn -0.0731 -0.6462 0.7596
vn 0.4713 -0.4279 0.7712
vn 0.4613 0.2097 -0.8621
vn 0.6696 -0.4051 0.6225
vn 0.2300 -0.5629 0.7939
vn 0.9215 -0.1323 0.3653
vn 0.2414 -0.6845 -0.6878
vn 0.6432 0.0182 -0.7655
vn 0.7102 -0.4931 -0.5024
vn -0.1121 -0.7041 -0.7012
vn -0.2910 -0.9560 0.0359
vn -0.2867 -0.9555 0.0691
vn -0.2738 -0.5677 0.7763
vn 0.2531 -0.9622 0.1007
vn -0.1270 -0.9872 0.0970
vn 0.9676 -0.2230 0.1187
vn 0.7025 -0.7034 0.1086
vn 0.9596 -0.2140 -0.1829
vn -0.1110 -0.5625 0.8193
vn 0.9960 0.0516 -0.0735
vn -0.0025 -0.6150 0.7885
vn -0.1758 -0.9837 0.0377
vn -0.0796 -0.9958 0.0461
vn 0.0597 0.4309 -0.9004
vn -0.0378 -0.1144 -0.9927
vn -0.0738 -0.0847 -0.9937
vn -0.0416 0.0402 -0.9983
vn 0.3464 0.0657 -0.9358
vn -0.2207 0.0088 -0.9753
vn -0.0978 0.6117 -0.7850
vn -0.1521 -0.0461 -0.9873
vn -0.1496 -0.7148 -0.6832
vn -0.2386 -0.6407 -0.7298
vn -0.0832 -0.6556 -0.7505
vn 0.7259 0.4728 -0.4996
vn 0.7797 0.6051 -0.1610
vn 0.0487 0.9661 -0.2534
vn 0.1138 -0.8391 -0.5320
vn 0.1291 -0.8535 -0.5048
vn 0.1895 0.9068 0.3765
vn 0.1996 0.9052 0.3753
vn 0.2230 0.9000 0.3746
vn 0.2575 0.8946 0.3652
vn 0.1111 0.0746 0.9910
vn -0.0848 0.1613 0.9833
vn 0.0709 0.7884 0.6110
vn 0.2021 0.6940 0.6910
vn -0.3166 0.0298 0.9481
vn -0.4258 0.1107 0.8980
vn -0.4179 0.1315 0.8989
vn 0.1887 0.0039 0.9820
vn 0.2149 -0.0465 0.9755
vn 0.2208 -0.0730 0.9726
vn 0.2446 -0.6351 0.7327
vn 0.2491 -0.0303 0.9680
vn 0.2604 -0.6398 0.7231
vn 0.2944 -0.0695 0.9531
vn 0.2703 0.2666 0.9251
vn 0.2088 0.5234 0.8261
vn 0.2485 0.5419 0.8028
vn 0.1981 -0.0754 0.9773
vn 0.2470 -0.4983 0.8311
vn 0.7172 0.0512 -0.6950
vn -0.2366 -0.6800 -0.6940
vn -0.1599 -0.6919 -0.7040
vn -0.1560 -0.5986 -0.7857
vn 0.0423 -0.0494 -0.9979
vn 0.1787 0.0509 -0.9826
vn 0.1279 -0.0033 -0.9918
vn 0.9744 -0.1584 0.1593
vn 0.4411 0.8966 0.0392
vn -0.5469 -0.8283 -0.1217
vn 0.3345 0.7991 -0.4996
vn 0.1487 0.4523 -0.8794
vn 0.0960 0.7790 -0.6197
vn -0.6130 -0.7803 -0.1239
vn -0.8283 0.1032 -0.5507
vn -0.5751 -0.0328 -0.8174
vn 0.3192 0.2574 -0.9121
vn 0.4691 0.1289 -0.8737
vn 0.9848 0.0613 0.1623
vn 0.8644 -0.3392 -0.3713
vn -0.7615 0.6359 -0.1255
vn -0.7497 0.4152 -0.5153
vn -0.6264 -0.3425 -0.7003
vn -0.7219 0.6380 0.2682
vn 0.9711 0.0977 -0.2179
vn 0.8031 0.4627 0.3755
vn 0.8165 0.5078 0.2748
vn 0.9486 0.3090 0.0692
vn 0.3543 -0.9248 -0.1386
vn 0.4180 -0.9081 -0.0234
vn 0.3743 -0.9163 -0.1424
vt 0.049316 0.115234
vt 0.058105 0.124023
vt 0.067871 0.116699
vt 0.057617 0.105957
vt 0.360840 0.175781
vt 0.360352 0.151855
vt 0.333984 0.148438
vt 0.333496 0.172363
vt 0.292480 0.046387
vt 0.282227 0.049805
vt 0.283691 0.058594
vt 0.294922 0.054199
vt 0.471191 0.137695
vt 0.473145 0.129395
vt 0.459961 0.125977
vt 0.456543 0.132812
vt 0.387695 0.091797
vt 0.404785 0.096680
vt 0.406250 0.085938
vt 0.390137 0.082031
vt 0.216797 0.172363
vt 0.240723 0.170898
vt 0.244141 0.149902
vt 0.224609 0.148438
vt 0.141602 0.051270
vt 0.152832 0.056152
vt 0.154785 0.050781
vt 0.142578 0.046875
vt 0.312012 0.043945
vt 0.309082 0.036133
vt 0.309570 0.120605
vt 0.312988 0.086914
vt 0.288086 0.099121
vt 0.288086 0.122559
vt 0.304199 0.173828
vt 0.302246 0.196777
vt 0.332520 0.193848
vt 0.333008 0.223145
vt 0.333008 0.245117
vt 0.364258 0.246094
vt 0.363281 0.224121
vt 0.393555 0.433594
vt 0.392578 0.399414
vt 0.358398 0.399902
vt 0.357910 0.426758
vt 0.417480 0.472168
vt 0.418945 0.490723
vt 0.441406 0.486328
vt 0.438965 0.475586
vt 0.168457 0.053711
vt 0.167969 0.059082
vt 0.052734 0.485840
vt 0.047363 0.491211
vt 0.055176 0.500977
vt 0.059570 0.496582
vt 0.063965 0.492676
vt 0.059082 0.480469
vt 0.065430 0.477539
vt 0.068359 0.490723
vt 0.073242 0.490723
vt 0.073730 0.478027
vt 0.078125 0.493652
vt 0.081055 0.481445
vt 0.083496 0.496582
vt 0.088379 0.484375
vt 0.071777 0.499512
vt 0.075195 0.500977
vt 0.068848 0.498535
vt 0.066406 0.499023
vt 0.061523 0.505371
vt 0.063965 0.501953
vt 0.028320 0.509277
vt 0.026367 0.515137
vt 0.028809 0.516602
vt 0.031738 0.511230
vt 0.039551 0.498535
vt 0.032227 0.496582
vt 0.024902 0.496094
vt 0.023926 0.508301
vt 0.018066 0.497559
vt 0.020020 0.508789
vt 0.023438 0.514648
vt 0.020996 0.514648
vt 0.016113 0.509766
vt 0.018555 0.515137
vt 0.011230 0.512207
vt 0.012207 0.499512
vt 0.005859 0.502441
vt 0.010254 0.534668
vt 0.017090 0.547363
vt 0.020996 0.546387
vt 0.016602 0.532227
vt 0.019531 0.553223
vt 0.012207 0.550781
vt 0.017090 0.556641
vt 0.025391 0.551270
vt 0.025391 0.545898
vt 0.021973 0.551758
vt 0.045410 0.533691
vt 0.037598 0.531738
vt 0.034180 0.545898
vt 0.040039 0.547852
vt 0.030762 0.554688
vt 0.035156 0.557129
vt 0.036621 0.515625
vt 0.045898 0.504395
vt 0.070312 0.508789
vt 0.078613 0.503906
vt 0.236816 0.038574
vt 0.228027 0.032715
vt 0.222168 0.042480
vt 0.232910 0.047852
vt 0.446777 0.119629
vt 0.442871 0.125977
vt 0.284668 0.074707
vt 0.272461 0.078125
vt 0.270996 0.091797
vt 0.286621 0.087891
vt 0.217773 0.080566
vt 0.200195 0.068359
vt 0.191895 0.072754
vt 0.213379 0.090820
vt 0.392578 0.073242
vt 0.408203 0.075684
vt 0.409180 0.068848
vt 0.394043 0.066895
vt 0.112305 0.064941
vt 0.100098 0.063477
vt 0.097656 0.071289
vt 0.111328 0.072754
vt 0.405273 0.136719
vt 0.411621 0.164062
vt 0.425781 0.153320
vt 0.419434 0.129395
vt 0.038574 0.142090
vt 0.051758 0.137695
vt 0.050293 0.129883
vt 0.040527 0.127441
vt 0.086426 0.061523
vt 0.084961 0.069824
vt 0.263184 0.319824
vt 0.295410 0.318359
vt 0.296875 0.274902
vt 0.265137 0.276367
vt 0.030762 0.531250
vt 0.029785 0.545898
vt 0.424805 0.086914
vt 0.423828 0.095703
vt 0.130859 0.066406
vt 0.128418 0.060547
vt 0.207031 0.228027
vt 0.237305 0.229004
vt 0.237305 0.204590
vt 0.205566 0.203613
vt 0.289062 0.433105
vt 0.324707 0.429199
vt 0.326172 0.400391
vt 0.291016 0.402344
vt 0.148926 0.063965
vt 0.166504 0.067383
vt 0.078613 0.102051
vt 0.091797 0.115234
vt 0.099609 0.114746
vt 0.081055 0.097168
vt 0.431152 0.354492
vt 0.394043 0.354492
vt 0.393066 0.376953
vt 0.432129 0.376953
vt 0.266602 0.148438
vt 0.283691 0.151855
vt 0.270020 0.125977
vt 0.272949 0.052246
vt 0.272949 0.060547
vt 0.230469 0.099121
vt 0.233398 0.086914
vt 0.192871 0.047363
vt 0.182617 0.056152
vt 0.185547 0.063477
vt 0.193848 0.049316
vt 0.397949 0.048828
vt 0.411133 0.049316
vt 0.411133 0.039551
vt 0.399414 0.039062
vt 0.191406 0.032227
vt 0.179199 0.037598
vt 0.180664 0.045410
vt 0.192383 0.040527
vt 0.160645 0.013672
vt 0.164062 0.020020
vt 0.169922 0.019531
vt 0.169922 0.011230
vt 0.152344 0.020020
vt 0.160645 0.026367
vt 0.146973 0.030273
vt 0.158691 0.035156
vt 0.144531 0.040039
vt 0.157227 0.044922
vt 0.395508 0.247559
vt 0.393066 0.226562
vt 0.165527 0.082031
vt 0.138184 0.078125
vt 0.140137 0.113281
vt 0.166016 0.115723
vt 0.108398 0.113281
vt 0.110840 0.083984
vt 0.169434 0.047363
vt 0.169922 0.038086
vt 0.179199 0.027344
vt 0.169922 0.028320
vt 0.307617 0.148438
vt 0.276855 0.178223
vt 0.273926 0.201172
vt 0.270020 0.228516
vt 0.300293 0.224609
vt 0.258301 0.380371
vt 0.292480 0.379395
vt 0.293457 0.356445
vt 0.260254 0.358398
vt 0.256348 0.402344
vt 0.286621 0.463867
vt 0.254883 0.435059
vt 0.254395 0.468750
vt 0.285156 0.486328
vt 0.254395 0.487305
vt 0.355957 0.485840
vt 0.354980 0.512695
vt 0.381836 0.520996
vt 0.392090 0.492676
vt 0.421875 0.512207
vt 0.444824 0.500000
vt 0.475098 0.479980
vt 0.472656 0.471191
vt 0.063477 0.133789
vt 0.367676 0.062500
vt 0.357422 0.068848
vt 0.359375 0.077148
vt 0.367676 0.066895
vt 0.042969 0.159668
vt 0.052734 0.146973
vt 0.061523 0.170898
vt 0.066406 0.150391
vt 0.087402 0.174805
vt 0.089844 0.143555
vt 0.079590 0.145996
vt 0.076660 0.174805
vt 0.321777 0.483398
vt 0.318848 0.512207
vt 0.395508 0.464355
vt 0.356934 0.457031
vt 0.323242 0.457520
vt 0.461426 0.354004
vt 0.486816 0.354004
vt 0.486816 0.316895
vt 0.458984 0.315918
vt 0.486816 0.276367
vt 0.458496 0.275391
vt 0.486816 0.252930
vt 0.458008 0.248535
vt 0.486816 0.232910
vt 0.457520 0.230957
vt 0.486816 0.212402
vt 0.459961 0.209473
vt 0.486816 0.200195
vt 0.462891 0.196777
vt 0.486816 0.179688
vt 0.464844 0.179199
vt 0.486816 0.163086
vt 0.466797 0.161621
vt 0.486816 0.148926
vt 0.468750 0.147461
vt 0.486816 0.130859
vt 0.486816 0.140625
vt 0.486816 0.116699
vt 0.474609 0.118164
vt 0.451172 0.091797
vt 0.455566 0.101562
vt 0.464844 0.104492
vt 0.465820 0.091797
vt 0.440918 0.098633
vt 0.451172 0.109375
vt 0.434082 0.108887
vt 0.430664 0.115234
vt 0.427246 0.121094
vt 0.438477 0.133301
vt 0.423828 0.125000
vt 0.434082 0.141602
vt 0.385254 0.137695
vt 0.385254 0.160645
vt 0.361816 0.196289
vt 0.462402 0.116211
vt 0.337402 0.094238
vt 0.335449 0.123047
vt 0.338867 0.081543
vt 0.340332 0.071777
vt 0.314941 0.059570
vt 0.321777 0.074219
vt 0.326172 0.066895
vt 0.316895 0.057129
vt 0.369629 0.050293
vt 0.355957 0.054199
vt 0.355957 0.062500
vt 0.368164 0.057617
vt 0.364746 0.025879
vt 0.353027 0.033691
vt 0.354004 0.043457
vt 0.369141 0.038086
vt 0.344238 0.044922
vt 0.345215 0.035156
vt 0.341309 0.064453
vt 0.342773 0.055664
vt 0.328613 0.061035
vt 0.330566 0.053223
vt 0.317871 0.047363
vt 0.317871 0.053711
vt 0.336426 0.033691
vt 0.333984 0.042969
vt 0.028320 0.552246
vt 0.319824 0.036621
vt 0.335449 0.016602
vt 0.339355 0.024414
vt 0.345703 0.023926
vt 0.346191 0.014160
vt 0.327148 0.377930
vt 0.328125 0.355957
vt 0.330566 0.317871
vt 0.332031 0.273438
vt 0.298828 0.246094
vt 0.221680 0.478027
vt 0.193848 0.475586
vt 0.191406 0.488281
vt 0.220703 0.485840
vt 0.165527 0.471191
vt 0.166504 0.466309
vt 0.142578 0.453125
vt 0.142578 0.458496
vt 0.167480 0.458008
vt 0.142578 0.447266
vt 0.142578 0.420898
vt 0.167480 0.429199
vt 0.167480 0.395996
vt 0.142578 0.394531
vt 0.168457 0.376953
vt 0.142578 0.375488
vt 0.168945 0.357910
vt 0.142578 0.356934
vt 0.170898 0.318359
vt 0.142578 0.319824
vt 0.142578 0.280273
vt 0.171875 0.276367
vt 0.171387 0.249023
vt 0.142578 0.254883
vt 0.171875 0.229492
vt 0.142578 0.236816
vt 0.171875 0.205078
vt 0.142578 0.211914
vt 0.139648 0.175781
vt 0.144531 0.151367
vt 0.120117 0.149414
vt 0.114258 0.175293
vt 0.108398 0.146484
vt 0.103027 0.175293
vt 0.097656 0.145020
vt 0.095703 0.175293
vt 0.173828 0.154785
vt 0.188477 0.137695
vt 0.187500 0.112793
vt 0.204590 0.145020
vt 0.208496 0.117188
vt 0.229004 0.123535
vt 0.246582 0.125000
vt 0.262207 0.166016
vt 0.239258 0.188477
vt 0.236816 0.277344
vt 0.267578 0.249023
vt 0.237793 0.248535
vt 0.235352 0.321289
vt 0.232910 0.358887
vt 0.229004 0.400879
vt 0.230957 0.379883
vt 0.226074 0.435059
vt 0.223633 0.467285
vt 0.196289 0.464355
vt 0.194824 0.471680
vt 0.200684 0.399414
vt 0.198242 0.435547
vt 0.202148 0.379395
vt 0.204102 0.359375
vt 0.101562 0.055664
vt 0.087891 0.053223
vt 0.206543 0.187988
vt 0.172852 0.186035
vt 0.195801 0.168457
vt 0.206055 0.319824
vt 0.368652 0.054688
vt 0.382324 0.062500
vt 0.385742 0.054199
vt 0.371094 0.044922
vt 0.388672 0.045410
vt 0.375488 0.035645
vt 0.394043 0.023438
vt 0.395020 0.029297
vt 0.401367 0.030762
vt 0.403320 0.023926
vt 0.407715 0.032227
vt 0.411621 0.028320
vt 0.420898 0.035645
vt 0.425781 0.045898
vt 0.410156 0.059082
vt 0.427246 0.058105
vt 0.427246 0.068848
vt 0.426270 0.077148
vt 0.403320 0.114746
vt 0.421875 0.111328
vt 0.361328 0.126465
vt 0.365234 0.090332
vt 0.384277 0.110840
vt 0.376953 0.074219
vt 0.373047 0.080078
vt 0.380371 0.068359
vt 0.395996 0.057617
vt 0.391113 0.036133
vt 0.470215 0.462402
vt 0.486816 0.445312
vt 0.486816 0.418945
vt 0.466309 0.430664
vt 0.305664 0.077148
vt 0.313965 0.058594
vt 0.313477 0.054199
vt 0.299805 0.067871
vt 0.312988 0.050293
vt 0.297363 0.061523
vt 0.276855 0.029785
vt 0.274414 0.018555
vt 0.259277 0.029297
vt 0.269043 0.034668
vt 0.243652 0.051758
vt 0.246582 0.041992
vt 0.216797 0.049316
vt 0.229492 0.056152
vt 0.204102 0.038574
vt 0.200684 0.044922
vt 0.212402 0.056641
vt 0.209473 0.028320
vt 0.221191 0.020996
vt 0.249512 0.032715
vt 0.246094 0.019531
vt 0.241699 0.029297
vt 0.093750 0.081543
vt 0.079102 0.078613
vt 0.073242 0.087402
vt 0.082031 0.095215
vt 0.075195 0.127930
vt 0.104980 0.021973
vt 0.097656 0.018066
vt 0.092285 0.026855
vt 0.103027 0.030762
vt 0.107910 0.014648
vt 0.105469 0.010254
vt 0.125977 0.030273
vt 0.138184 0.025879
vt 0.132324 0.014160
vt 0.124023 0.019531
vt 0.125977 0.040039
vt 0.140137 0.036621
vt 0.112305 0.057129
vt 0.112793 0.050781
vt 0.101562 0.047852
vt 0.113770 0.032227
vt 0.113281 0.041992
vt 0.113770 0.013672
vt 0.113770 0.021973
vt 0.119629 0.012695
vt 0.101562 0.039062
vt 0.194824 0.049805
vt 0.193848 0.049805
vt 0.198242 0.047852
vt 0.209473 0.060059
vt 0.226074 0.063965
vt 0.223145 0.069824
vt 0.270996 0.104004
vt 0.250488 0.102051
vt 0.252441 0.090820
vt 0.257812 0.060547
vt 0.258789 0.052246
vt 0.256348 0.069336
vt 0.271973 0.069824
vt 0.254883 0.077637
vt 0.236816 0.074707
vt 0.240234 0.067871
vt 0.242188 0.060059
vt 0.270508 0.042480
vt 0.279785 0.039551
vt 0.284180 0.067383
vt 0.206055 0.275879
vt 0.206543 0.247559
vt 0.359863 0.377441
vt 0.360840 0.354980
vt 0.363281 0.318359
vt 0.364746 0.273438
vt 0.427246 0.207520
vt 0.428223 0.190918
vt 0.389160 0.182617
vt 0.391602 0.202148
vt 0.441406 0.170898
vt 0.448242 0.155273
vt 0.453125 0.142090
vt 0.089844 0.037109
vt 0.427734 0.229004
vt 0.428223 0.247559
vt 0.428711 0.274414
vt 0.462402 0.374512
vt 0.433105 0.399414
vt 0.463867 0.395508
vt 0.435059 0.438965
vt 0.418945 0.437012
vt 0.395508 0.316895
vt 0.396484 0.273438
vt 0.429688 0.315918
vt 0.474609 0.108398
vt 0.258789 0.041504
vt 0.126465 0.048828
vt 0.126953 0.054688
vt 0.122070 0.006836
vt 0.181641 0.050781
vt 0.192871 0.044922
vt 0.139160 0.051758
vt 0.140137 0.046875
vt 0.368652 0.067871
vt 0.368652 0.064941
vt 0.233887 0.025879
vt 0.023438 0.531250
vt 0.089355 0.046875
vt 0.486816 0.450684
vt 0.015137 0.517090
vt 0.073730 0.111328
vt 0.062500 0.100098
vt 0.480469 0.100586
vt 0.254395 0.501953
vt 0.286621 0.514648
vt 0.067871 0.094238
vt 0.272461 0.524902
vt 0.242676 0.515625
vt 0.083984 0.123047
vt 0.113281 0.006836
vt 0.486816 0.372070
vt 0.004395 0.538574
vt 0.140625 0.054688
vt 0.187988 0.022461
vt 0.486816 0.391113
vt 0.383789 0.027344
vt 0.232910 0.018066
vt 0.175293 0.020020
vt 0.317383 0.528809
vt 0.286133 0.527344
vt 0.071777 0.089844
vt 0.217285 0.503906
vt 0.354492 0.529785
vt 0.486816 0.456055
vt 0.368164 0.067871
vt 0.351562 0.024902
vt 0.355957 0.017578
vt 0.368164 0.060059
vt 0.290527 0.034668
vt 0.139648 0.055176
vt 0.140137 0.054688
vt 0.286133 0.027832
vt 0.300293 0.025879
vt 0.289551 0.020020
vt 0.313965 0.059082
vt 0.324707 0.025391
vt 0.139160 0.054199
vt 0.021973 0.523438
vt 0.030762 0.519531
vt 0.025391 0.561035
vt 0.180176 0.014160
s 1
g Bip001 L Finger01
g park_cheshirecat_ob0_L0.left_arm_Material.001
usemtl Material.001
f 79/1/1 108/2/2 107/3/3 106/4/4
g Bip001 L Hand
f 54/5/5 90/6/6 92/7/7 52/8/8
g Bip001 L Finger31
f 412/9/9 435/10/10 434/11/11 414/12/12
g Bip001 L Finger01
f 70/13/13 72/14/14 97/15/15 96/16/16
g Bip001 L Finger1
f 208/17/17 188/18/18 189/19/19 209/20/20
g Bip001 L Hand
f 250/21/21 267/22/22 266/23/23 252/24/24
g Bip001 L Finger2
f 169/25/25 256/26/26 257/27/27 263/28/28
g Bip001 L Finger31
f 414/12/12 413/29/29 385/30/30 412/9/9
g Bip001 L Hand
f 394/31/31 453/32/32 395/33/33 48/34/34
f 51/35/35 295/36/36 53/37/37 52/8/8
g Bip001 L ForeTwist
f 294/38/38 306/39/39 305/40/40 293/41/41
g Bip001 L UpperArm
f 282/42/42 299/43/43 320/44/44 319/45/45
g Bip001 LUpArmTwist
f 230/46/46 156/47/47 158/48/48 229/49/49
g Bip001 L Finger2
f 35/50/50 257/27/27 256/26/26 36/51/51
g Bip001 L Finger01
f 18/52/52 19/53/53 11/54/54 9/55/55
f 18/52/52 9/55/55 8/56/56 17/57/57
f 16/58/58 7/59/59 6/60/60 15/61/61
f 15/61/61 6/60/60 5/62/62 14/63/63
f 14/63/63 5/62/62 11/64/54 19/65/53
f 6/60/60 1/66/64 4/67/65 5/62/62
f 7/59/59 2/68/66 1/66/64 6/60/60
f 8/56/56 3/69/67 2/68/66 7/59/59
f 12/70/68 10/71/69 9/55/55 11/54/54
g Bip001 L Finger31
f 507/72/70 514/73/71 512/74/72 509/75/73
f 509/75/73 508/76/74 500/77/75 507/72/70
f 507/72/70 500/77/75 499/78/76 498/79/77
f 498/79/77 499/78/76 497/80/78 496/81/79
f 506/82/80 514/73/71 507/72/70 498/79/77
f 505/83/81 496/81/79 502/84/82 503/85/83
f 511/86/84 502/84/82 501/87/85 510/88/86
g Bip001 L Finger11
f 495/89/87 490/90/88 491/91/89 494/92/90
f 489/93/91 490/90/88 482/94/92 481/95/93
f 486/96/94 488/97/95 491/91/89 485/98/96
f 483/99/97 484/100/98 477/101/99 482/102/92
f 482/102/92 477/101/99 479/103/100 481/104/93
g Bip001 L Finger21
f 471/75/101 473/105/102 472/106/103 470/76/104
f 469/72/105 475/73/106 474/74/107 471/75/101
f 471/75/101 470/76/104 461/77/108 469/72/105
f 469/72/105 461/77/108 460/78/109 459/79/110
f 459/79/110 460/78/109 462/80/111 458/81/112
f 468/82/113 459/79/110 458/81/112 467/83/114
f 467/83/114 458/81/112 464/84/115 465/85/116
g Bip001 L Finger01
f 2/68/66 13/107/117 1/66/64
f 2/68/66 3/69/67 13/107/117
f 4/67/65 13/107/117 12/108/68
f 4/67/65 1/66/64 13/107/117
f 13/107/117 10/71/69 12/70/68
f 13/107/117 3/69/67 10/71/69
g Bip001 L Finger31
f 404/109/118 386/110/119 384/111/120 403/112/121
g Bip001 L Finger01
f 96/16/16 97/15/15 80/113/122 82/114/123
g Bip001 L Finger3
f 432/115/124 447/116/125 396/117/126 419/118/127
g Bip001 L Hand
f 399/119/128 378/120/129 20/121/130 40/122/131
g Bip001 L Finger1
f 210/123/132 190/124/133 191/125/134 211/126/135
f 368/127/136 340/128/137 339/129/138 369/130/139
g Bip001 L Hand
f 86/131/140 87/132/141 85/133/142 99/134/143
g Bip001 L Finger01
f 112/135/144 111/136/145 110/137/146 109/138/147
g Bip001 L Finger1
f 340/128/137 341/139/148 338/140/149 339/129/138
g Bip001 L ForeTwist
f 312/141/150 332/142/151 331/143/152 311/144/153
g Bip001 L Finger11
f 492/145/154 487/146/155 477/101/99 484/100/98
g Bip001 L Finger1
f 341/147/148 189/19/19 188/18/18 338/148/149
f 369/130/139 452/149/156 366/150/157 368/127/136
g Bip001 L ForeTwist
f 246/151/158 270/152/159 269/153/160 247/154/161
g Bip001 L UpperArm
f 317/155/162 318/156/163 321/157/164 335/158/165
g Bip001 L Finger2
f 36/51/51 256/26/26 255/159/166 37/160/167
g Bip001 L Finger0
f 104/161/168 161/162/169 165/163/170 102/164/171
g Bip001 L ForeTwist
f 287/165/172 301/166/173 300/167/174 286/168/175
g Bip001 L Hand
f 298/169/176 49/170/177 48/34/34 47/171/178
g Bip001 L Finger21
f 468/82/113 475/73/106 469/72/105 459/79/110
g Bip001 L Finger31
f 438/172/179 449/173/180 434/11/11 435/10/10
g Bip001 L Hand
f 399/119/128 40/122/131 42/174/181 398/175/182
g Bip001 L Finger2
f 425/176/183 22/177/184 21/178/185 426/179/186
g Bip001 L Finger11
f 213/180/187 194/181/188 195/182/189 214/183/190
g Bip001 L Finger21
f 26/184/191 27/185/192 25/186/193 24/187/194
f 176/188/195 265/189/196 31/190/197 177/191/198
f 174/192/199 260/193/200 265/189/196 176/188/195
f 174/192/199 261/194/201 259/195/202 260/193/200
f 262/196/203 258/197/204 259/195/202 261/194/201
f 263/28/28 257/27/27 258/197/204 262/196/203
g Bip001 L ForeTwist
f 293/41/41 305/40/40 304/198/205 292/199/206
g Bip001 L Finger2
f 37/160/167 21/178/185 22/177/184 36/51/51
g Bip001 L Hand
f 38/200/207 20/121/130 21/178/185 37/160/167
f 451/201/208 371/202/209 254/203/210 38/200/207
f 160/204/211 371/202/209 451/201/208 370/205/212
g Bip001 L Finger21
f 34/206/213 25/186/193 27/185/192 33/207/214
f 33/207/214 27/185/192 28/208/215 32/209/216
g Bip001 L Hand
f 394/31/31 48/34/34 49/170/177 50/210/217
f 49/170/177 296/211/218 51/35/35 50/210/217
f 296/211/218 308/212/219 295/36/36 51/35/35
g Bip001 L ForeTwist
f 309/213/220 307/214/221 295/36/36 308/212/219
f 314/215/222 334/216/223 333/217/224 313/218/225
g Bip001 L UpperArm
f 315/219/226 335/158/165 334/216/223 314/215/222
g Bip001 LUpArmTwist
f 279/220/227 317/155/162 316/221/228 278/222/229
f 234/223/230 279/220/227 278/222/229 235/224/231
g Bip001 L Clavicle
f 232/225/232 152/226/233 153/227/234 154/228/235
g Bip001 LUpArmTwist
f 155/229/236 156/47/47 154/228/235 153/227/234
g Bip001 Spine2
f 157/230/237 158/48/48 156/47/47 155/229/236
f 454/231/238 159/232/239 158/48/48 157/230/237
g Bip001 L Finger01
f 109/138/147 110/137/146 108/2/2 79/1/1
f 108/2/2 110/137/146 111/136/145 164/233/240
g Bip001 L Finger2
f 169/234/25 168/235/241 167/236/242 264/237/243
g Bip001 L Finger01
f 113/238/244 114/239/245 111/136/145 112/135/144
f 74/240/246 115/241/247 114/239/245 113/238/244
f 71/242/248 118/243/249 117/244/250 116/245/251
f 164/233/240 111/136/145 114/239/245 115/241/247
g Bip001 LUpArmTwist
f 233/246/252 151/247/253 152/226/233 232/225/232
f 231/248/254 281/249/255 232/225/232 154/228/235
f 231/248/254 154/228/235 156/47/47 230/46/46
f 281/249/255 319/45/45 318/156/163 280/250/256
g Bip001 L ForeTwist
f 221/251/257 132/252/258 220/253/259 219/254/260
f 219/254/260 220/253/259 217/255/261 218/256/262
f 218/256/262 217/255/261 215/257/263 216/258/264
f 216/258/264 215/257/263 127/259/265 61/260/266
f 124/261/267 60/262/268 61/260/266 127/259/265
g Bip001 L Hand
f 63/263/269 62/264/270 60/262/268 124/261/267
f 64/265/271 65/266/272 62/264/270 63/263/269
f 67/267/273 66/268/274 65/266/272 64/265/271
g Bip001 L Finger0
f 69/269/275 68/270/276 66/268/274 67/267/273
g Bip001 L Finger01
f 116/271/251 72/14/14 70/13/13 71/272/248
f 74/273/246 73/274/277 72/14/14 116/271/251
f 109/275/147 77/276/278 76/277/279 112/278/144
f 79/279/1 78/280/280 77/276/278 109/275/147
f 106/281/4 80/113/122 78/280/280 79/279/1
f 81/282/281 82/114/123 80/113/122 106/281/4
g Bip001 L Finger0
f 103/283/282 83/284/283 82/114/123 81/282/281
f 101/285/284 84/286/285 83/284/283 103/283/282
g Bip001 L Hand
f 89/287/286 88/288/287 87/132/141 86/131/140
f 55/289/288 54/5/5 52/8/8 53/37/37
g Bip001 L ForeTwist
f 53/37/37 294/38/38 293/41/41 55/289/288
g Bip001 L Hand
f 92/7/7 50/210/217 51/35/35 52/8/8
g Bip001 L Finger01
f 72/14/14 73/274/277 98/290/289 97/15/15
g Bip001 L Hand
f 185/291/290 453/32/32 394/31/31 393/292/291
g Bip001 L Finger2
f 184/293/292 167/236/242 168/235/241 183/294/293
f 426/295/186 420/296/294 421/297/295 425/298/183
f 183/294/293 421/297/295 420/296/294 184/293/292
g Bip001 L Finger21
f 262/299/203 171/300/296 170/301/297 263/302/28
f 174/303/199 173/304/298 172/305/299 261/306/201
f 180/307/300 172/305/299 173/304/298 179/308/301
f 182/309/302 170/301/297 171/300/296 181/310/303
g Bip001 L Finger2
f 183/294/293 168/235/241 170/301/297 182/309/302
f 182/309/302 422/311/304 421/297/295 183/294/293
g Bip001 L Finger21
f 423/312/305 24/313/194 424/314/306 422/311/304
f 423/312/305 422/311/304 182/309/302 181/310/303
f 179/308/301 429/315/307 428/316/308 180/307/300
g Bip001 L Finger11
f 487/146/155 488/97/95 486/96/94 478/317/309
g Bip001 L Finger21
f 428/316/308 26/318/191 24/313/194 423/312/305
f 30/319/310 430/320/311 178/321/312 177/322/198
f 178/321/312 430/320/311 429/315/307 179/308/301
g Bip001 LUpArmTwist
f 233/246/252 280/250/256 279/220/227 234/223/230
g Bip001 L Finger21
f 473/86/102 464/84/115 463/87/313 472/88/103
g Bip001 L UpperArm
f 335/158/165 321/157/164 322/323/314 334/216/223
g Bip001 L ForeTwist
f 333/217/224 328/324/315 329/325/316 332/142/151
f 332/142/151 329/325/316 327/326/317 331/143/152
f 330/327/318 306/39/39 294/38/38 307/214/221
g Bip001 Spine2
f 236/328/319 142/329/320 143/330/321 144/331/322
f 140/332/323 139/333/324 138/334/325 456/335/326
g Bip001 LUpArmTwist
f 138/334/325 139/333/324 137/336/327 136/337/328
g Bip001 L UpperArm
f 226/338/329 135/339/330 134/340/331 225/341/332
f 225/341/332 134/340/331 133/342/333 223/343/334
g Bip001 L ForeTwist
f 223/343/334 133/342/333 131/344/335 132/345/258
f 132/345/258 131/344/335 130/346/336 220/347/259
f 217/348/261 129/349/337 128/350/338 215/351/263
f 215/351/263 128/350/338 126/352/339 127/353/265
f 127/353/265 126/352/339 125/354/340 124/355/267
g Bip001 L Hand
f 63/356/269 122/357/341 121/358/342 64/359/271
g Bip001 L Finger0
f 64/359/271 121/358/342 120/360/343 67/361/273
f 67/361/273 120/360/343 119/362/344 69/363/275
g Bip001 L Hand
f 122/357/341 377/364/345 254/203/210 371/202/209
f 254/203/210 377/364/345 253/365/346 39/366/347
f 39/366/347 253/365/346 251/367/348 41/368/349
f 41/368/349 251/367/348 252/24/24 43/369/350
f 252/24/24 266/23/23 45/370/351 43/369/350
f 298/169/176 47/171/178 45/370/351 266/23/23
f 49/170/177 298/169/176 297/371/352 296/211/218
f 297/371/352 267/22/22 268/372/353 296/211/218
f 269/153/160 308/212/219 296/211/218 268/372/353
g Bip001 L ForeTwist
f 270/152/159 309/213/220 308/212/219 269/153/160
f 272/373/354 311/144/153 310/374/355 271/375/356
f 273/376/357 312/141/150 311/144/153 272/373/354
f 274/377/358 313/218/225 312/141/150 273/376/357
g Bip001 L UpperArm
f 276/378/359 315/219/226 314/215/222 275/379/360
f 277/380/361 316/221/228 315/219/226 276/378/359
g Bip001 LUpArmTwist
f 278/222/229 316/221/228 277/380/361 237/381/362
f 235/224/231 278/222/229 237/381/362 236/328/319
f 238/382/363 141/383/364 236/328/319 237/381/362
g Bip001 L UpperArm
f 240/384/365 134/340/331 135/339/330 239/385/366
f 241/386/367 133/342/333 134/340/331 240/384/365
g Bip001 L ForeTwist
f 242/387/368 131/344/335 133/342/333 241/386/367
g Bip001 L Finger1
f 342/388/369 343/389/370 341/139/148 340/128/137
g Bip001 L ForeTwist
f 247/154/161 125/354/340 126/352/339 246/151/158
g Bip001 L Hand
f 248/390/371 123/391/372 125/354/340 247/154/161
f 252/24/24 251/367/348 249/392/373 250/21/21
f 248/390/371 268/372/353 267/22/22 250/21/21
g Bip001 L ForeTwist
f 242/387/368 274/377/358 273/376/357 243/393/374
f 241/386/367 275/379/360 274/377/358 242/387/368
g Bip001 L Finger11
f 202/394/375 203/395/376 201/396/377 361/397/378
f 361/397/378 201/396/377 200/398/379 359/399/380
f 356/400/381 198/401/382 197/402/383 353/403/384
f 353/403/384 197/402/383 196/404/385 352/405/386
f 349/406/387 195/182/189 194/181/188 347/407/388
f 347/407/388 194/181/188 192/408/389 193/409/390
f 193/409/390 192/408/389 191/125/134 345/410/391
g Bip001 L Finger1
f 345/410/391 191/125/134 190/124/133 343/411/370
g Bip001 L Hand
f 338/148/149 188/18/18 187/412/392 336/413/393
f 185/291/290 393/292/291 91/414/394 207/415/395
f 208/17/17 186/416/396 187/412/392 188/18/18
g Bip001 L Finger1
f 209/20/20 205/417/397 206/418/398 208/17/17
g Bip001 L Finger21
f 181/310/303 171/300/296 172/305/299 180/307/300
g Bip001 L Finger1
f 209/20/20 189/19/19 190/124/133 210/123/132
f 210/123/132 204/419/399 205/417/397 209/20/20
g Bip001 L Finger11
f 212/420/400 201/396/377 203/395/376 211/126/135
f 212/420/400 192/408/389 194/181/188 213/180/187
f 214/183/190 197/402/383 198/401/382 199/421/401
f 214/183/190 199/421/401 200/398/379 213/180/187
g Bip001 LUpArmTwist
f 228/422/402 136/423/328 226/424/329 227/425/403
g Bip001 L Finger3
f 418/426/404 417/427/405 379/428/406 416/429/407
f 416/429/407 379/428/406 381/430/408 415/431/409
g Bip001 L Finger31
f 415/431/409 381/430/408 413/29/29 414/12/12
f 408/432/410 389/433/411 392/434/412 407/435/413
f 445/436/414 405/437/415 404/109/118 403/112/121
f 403/112/121 384/111/120 383/438/416 402/439/417
f 383/438/416 413/440/29 381/441/408 382/442/418
f 384/111/120 385/443/30 413/440/29 383/438/416
f 386/110/119 410/444/419 385/443/30 384/111/120
f 391/445/420 392/434/412 389/446/411 390/447/421
g Bip001 L Hand
f 337/448/422 336/449/393 99/450/143 100/451/423
f 339/129/138 338/140/149 336/449/393 337/448/422
g Bip001 L Finger01
f 164/233/240 115/241/247 117/244/250 163/452/424
g Bip001 L Finger11
f 350/453/425 349/454/387 347/455/388 348/456/426
f 351/457/427 352/458/386 349/454/387 350/453/425
f 360/459/428 359/460/380 357/461/429 358/462/430
f 362/463/431 361/464/378 359/460/380 360/459/428
g Bip001 L Hand
f 370/205/212 451/201/208 452/149/156 369/130/139
f 370/205/212 337/448/422 100/451/423 160/204/211
g Bip001 L Finger1
f 342/388/369 372/465/432 373/466/433 344/467/434
g Bip001 L Finger11
f 360/459/428 375/468/435 374/469/436 362/463/431
f 354/470/437 376/471/438 358/462/430 355/472/439
f 346/473/440 374/469/436 375/468/435 348/456/426
g Bip001 L Hand
f 378/120/129 417/474/405 427/475/441 20/121/130
g Bip001 L Finger3
f 382/442/418 381/441/408 379/476/406 380/477/442
f 401/478/443 382/442/418 380/477/442 400/479/444
f 400/479/444 380/477/442 378/120/129 399/119/128
g Bip001 L Hand
f 43/369/350 42/174/181 40/122/131 41/368/349
f 47/171/178 46/480/445 44/481/446 45/370/351
f 419/118/127 396/117/126 46/480/445 395/33/33
f 398/175/182 42/174/181 44/481/446 397/482/447
g Bip001 L Finger31
f 440/483/448 449/173/180 438/172/179 439/484/449
f 442/485/450 448/486/451 449/173/180 440/483/448
g Bip001 L Finger3
f 446/487/452 447/116/125 448/486/451 442/485/450
f 400/479/444 444/488/453 443/489/454 401/478/443
g Bip001 L ForeTwist
f 275/379/360 314/215/222 313/218/225 274/377/358
g Bip001 L Finger3
f 446/487/452 442/485/450 443/489/454 444/488/453
g Bip001 L Finger31
f 443/489/454 442/485/450 440/483/448 441/490/455
f 407/435/413 437/491/456 436/492/457 408/432/410
f 434/11/11 449/173/180 448/486/451 433/493/458
g Bip001 L Finger3
f 416/429/407 432/115/124 419/118/127 418/426/404
g Bip001 L Finger21
f 34/206/213 258/197/204 257/27/27 35/50/50
g Bip001 L Finger31
f 414/12/12 434/11/11 433/493/458 415/431/409
g Bip001 L ForeTwist
f 244/494/459 272/373/354 271/375/356 245/495/460
g Bip001 L UpperArm
f 240/384/365 276/378/359 275/379/360 241/386/367
f 320/44/44 323/496/461 322/323/314 321/157/164
g Bip001 L ForeTwist
f 324/497/462 328/324/315 322/323/314 323/496/461
f 325/498/463 329/325/316 328/324/315 324/497/462
f 306/39/39 327/326/317 326/499/464 305/40/40
g Bip001 L Hand
f 59/500/465 58/501/466 56/502/467 57/503/468
f 93/504/469 85/133/142 87/132/141 58/501/466
f 94/505/470 84/286/285 85/133/142 93/504/469
g Bip001 L Finger0
f 95/506/471 83/284/283 84/286/285 94/505/470
f 96/16/16 82/114/123 83/284/283 95/506/471
f 94/505/470 66/268/274 68/270/276 95/506/471
g Bip001 L Hand
f 93/504/469 65/266/272 66/268/274 94/505/470
f 58/501/466 62/264/270 65/266/272 93/504/469
g Bip001 L Finger11
f 348/456/426 347/455/388 193/507/390 346/473/440
g Bip001 L ForeTwist
f 59/500/465 291/508/472 61/260/266 60/262/268
f 61/260/266 291/508/472 290/509/473 216/258/264
f 216/258/264 290/509/473 289/510/474 218/256/262
f 221/251/257 287/165/172 286/168/175 222/511/475
g Bip001 L UpperArm
f 222/511/475 286/168/175 285/512/476 224/513/477
f 224/513/477 285/512/476 284/514/478 227/425/403
g Bip001 LUpArmTwist
f 227/425/403 284/514/478 229/49/49 228/422/402
f 229/49/49 284/514/478 283/515/479 230/46/46
f 282/42/42 319/45/45 281/249/255 231/248/254
g Bip001 L UpperArm
f 299/43/43 282/42/42 283/515/479 285/512/476
g Bip001 L ForeTwist
f 302/516/480 325/498/463 324/497/462 301/166/173
f 303/517/481 326/499/464 325/498/463 302/516/480
f 57/503/468 292/199/206 291/508/472 59/500/465
f 290/509/473 304/198/205 303/517/481 289/510/474
f 289/510/474 303/517/481 302/516/480 288/518/482
f 288/518/482 302/516/480 301/166/173 287/165/172
g Bip001 L UpperArm
f 286/168/175 300/167/174 299/43/43 285/512/476
g Bip001 L Finger01
f 78/280/280 98/290/289 76/277/279 77/276/278
f 98/290/289 73/274/277 75/519/483 76/277/279
g Bip001 L Finger1
f 372/465/432 342/388/369 340/128/137 368/127/136
g Bip001 L ForeTwist
f 243/393/374 273/376/357 272/373/354 244/494/459
g Bip001 L Finger31
f 445/436/414 439/484/449 406/520/484 405/437/415
g Bip001 L Hand
f 56/502/467 88/288/287 90/6/6 54/5/5
g Bip001 L Finger1
f 363/521/485 373/466/433 372/465/432 364/522/486
g Bip001 L Hand
f 208/17/17 207/415/395 91/414/394 186/416/396
g Bip001 L Finger11
f 358/462/430 357/461/429 356/523/381 355/472/439
g Bip001 L Finger21
f 24/187/194 25/186/193 23/524/487 424/525/306
g Bip001 LUpArmTwist
f 280/250/256 318/156/163 317/155/162 279/220/227
g Bip001 L Finger1
f 364/522/486 365/526/488 202/527/375 363/521/485
g Bip001 LUpArmTwist
f 239/385/366 135/339/330 137/336/327 238/382/363
g Bip001 L Finger1
f 450/528/489 205/417/397 204/419/399 367/529/490
g Bip001 L Finger21
f 261/306/201 172/305/299 171/300/296 262/299/203
g Bip001 L Finger11
f 362/463/431 374/469/436 373/466/433 363/521/485
g Bip001 L Finger31
f 405/437/415 391/445/420 390/447/421 404/109/118
f 404/109/118 390/447/421 387/530/491 386/110/119
g Bip001 L Finger11
f 494/92/90 491/91/89 488/97/95 493/531/492
f 346/473/440 193/507/390 345/532/391 344/467/434
g Bip001 LUpArmTwist
f 228/422/402 159/232/239 138/533/325 136/423/328
g Bip001 L ForeTwist
f 220/347/259 130/346/336 129/349/337 217/348/261
g Bip001 L Finger31
f 504/534/493 503/85/83 502/84/82 511/86/84
g Bip001 L Finger0
f 106/4/4 105/535/494 104/161/168 81/536/281
g Bip001 L Finger01
f 113/537/244 75/519/483 73/274/277 74/273/246
g Bip001 L Finger31
f 506/82/80 498/79/77 496/81/79 505/83/81
g Bip001 L Hand
f 57/503/468 56/502/467 54/5/5 55/289/288
g Bip001 L Clavicle
f 235/224/231 147/538/495 148/539/496 234/223/230
g Bip001 L Finger3
f 396/117/126 447/116/125 446/487/452 397/482/447
g Bip001 L Finger21
f 466/534/497 465/85/116 464/84/115 473/86/102
g Bip001 L Hand
f 37/160/167 255/159/166 451/201/208 38/200/207
f 395/33/33 46/480/445 47/171/178 48/34/34
g Bip001 L Finger11
f 358/462/430 376/471/438 375/468/435 360/459/428
g Bip001 L Finger21
f 180/307/300 428/316/308 423/312/305 181/310/303
g Bip001 LUpArmTwist
f 136/337/328 137/336/327 135/339/330 226/338/329
g Bip001 L Hand
f 91/414/394 90/6/6 88/288/287 89/287/286
g Bip001 L Finger0
f 81/536/281 104/161/168 102/164/171 103/540/282
g Bip001 L Finger01
f 97/15/15 98/290/289 78/280/280 80/113/122
g Bip001 L Finger21
f 31/190/197 265/189/196 260/193/200 32/209/216
g Bip001 L Clavicle
f 457/541/498 148/539/496 147/538/495 146/542/499
g Bip001 L UpperArm
f 239/385/366 277/380/361 276/378/359 240/384/365
g Bip001 L Clavicle
f 234/223/230 148/539/496 151/247/253 233/246/252
g Bip001 L Finger01
f 17/57/57 8/56/56 7/59/59 16/58/58
g Bip001 L Finger31
f 402/439/417 383/438/416 382/442/418 401/478/443
g Bip001 L Finger01
f 112/278/144 76/277/279 75/519/483 113/537/244
g Bip001 L Finger11
f 485/98/96 491/91/89 490/90/88 489/93/91
g Bip001 L Hand
f 336/413/393 187/412/392 86/131/140 99/134/143
g Bip001 L Finger21
f 463/87/313 464/84/115 458/81/112 462/80/111
g Bip001 L Hand
f 185/291/290 207/415/395 167/236/242 184/293/292
g Bip001 L Finger31
f 445/436/414 403/112/121 402/439/417 441/490/455
g Bip001 L Finger11
f 344/467/434 373/466/433 374/469/436 346/473/440
g Bip001 L Finger01
f 116/245/251 117/244/250 115/241/247 74/240/246
g Bip001 Spine2
f 140/332/323 142/329/320 141/383/364 139/333/324
g Bip001 L Finger0
f 105/535/494 162/543/500 161/162/169 104/161/168
g Bip001 L Hand
f 253/365/346 377/364/345 249/392/373 251/367/348
g Bip001 L ForeTwist
f 310/374/355 330/327/318 307/214/221 309/213/220
g Bip001 L Finger3
f 415/431/409 433/493/458 432/115/124 416/429/407
g Bip001 L Finger1
f 343/411/370 190/124/133 189/19/19 341/147/148
g Bip001 L Finger21
f 260/193/200 259/195/202 33/207/214 32/209/216
g Bip001 L Finger11
f 354/470/437 353/544/384 352/458/386 351/457/427
g Bip001 LUpArmTwist
f 232/225/232 281/249/255 280/250/256 233/246/252
g Bip001 L ForeTwist
f 305/40/40 326/499/464 303/517/481 304/198/205
f 222/511/475 223/545/334 132/252/258 221/251/257
g Bip001 L Finger11
f 495/89/87 483/546/97 482/94/92 490/90/88
g Bip001 L Finger2
f 264/547/243 255/159/166 256/26/26 169/25/25
g Bip001 L Finger21
f 431/548/501 28/208/215 27/185/192 26/184/191
g Bip001 L UpperArm
f 227/425/403 226/424/329 225/549/332 224/513/477
g Bip001 L Finger11
f 348/456/426 375/468/435 376/471/438 350/453/425
g Bip001 L Finger1
f 364/522/486 372/465/432 368/127/136 366/150/157
g Bip001 L ForeTwist
f 292/199/206 304/198/205 290/509/473 291/508/472
g Bip001 L Finger11
f 359/399/380 200/398/379 199/421/401 357/550/429
g Bip001 L Finger31
f 406/520/484 392/434/412 391/445/420 405/437/415
g Bip001 L Finger1
f 344/467/434 345/532/391 343/389/370 342/388/369
g Bip001 L Finger21
f 35/50/50 23/524/487 25/186/193 34/206/213
g Bip001 L Finger31
f 390/447/421 389/446/411 388/551/502 387/530/491
g Bip001 L Hand
f 397/482/447 44/481/446 46/480/445 396/117/126
g Bip001 L Finger01
f 163/452/424 117/244/250 118/243/249 162/543/500
g Bip001 L Finger2
f 263/302/28 170/301/297 168/235/241 169/234/25
g Bip001 L Finger21
f 31/190/197 28/208/215 29/552/503
f 32/209/216 28/208/215 31/190/197
g Bip001 L Finger31
f 439/484/449 438/172/179 437/491/456 406/520/484
g Bip001 L Hand
f 99/134/143 84/286/285 101/285/284
f 99/134/143 85/133/142 84/286/285
f 56/502/467 87/132/141 88/288/287
f 58/501/466 87/132/141 56/502/467
g Bip001 Spine2
f 236/328/319 144/331/322 147/538/495 235/224/231
g Bip001 L Clavicle
f 150/553/504 151/247/253 148/539/496 149/554/505
g Bip001 L Finger0
f 103/540/282 102/164/171 101/555/284
g Bip001 L Finger01
f 106/4/4 107/3/3 105/535/494
g Bip001 L ForeTwist
f 301/166/173 324/497/462 323/496/461 300/167/174
g Bip001 Spine2
f 143/330/321 142/329/320 140/332/323
f 145/556/506 144/331/322 143/330/321
g Bip001 L Clavicle
f 149/554/505 148/539/496 457/541/498
f 153/227/234 152/226/233 455/557/507
g Bip001 Spine2
f 456/558/326 159/232/239 454/231/238
f 138/533/325 159/232/239 456/558/326
g Bip001 L Hand
f 165/163/170 100/451/423 102/164/171
f 165/163/170 160/204/211 100/451/423
f 160/204/211 121/358/342 122/357/341
f 165/163/170 121/358/342 160/204/211
g Bip001 L Finger0
f 165/163/170 120/360/343 121/358/342
f 161/162/169 120/360/343 165/163/170
f 161/162/169 119/362/344 120/360/343
g Bip001 L Hand
f 123/391/372 377/364/345 122/357/341 63/356/269
f 264/237/243 207/415/395 166/559/508
f 264/237/243 167/236/242 207/415/395
g Bip001 L Finger21
f 174/303/199 175/560/509 173/304/298
f 176/561/195 175/560/509 174/303/199
g Bip001 L Finger0
f 95/506/471 68/270/276 70/13/13 96/16/16
g Bip001 L Hand
f 89/287/286 186/416/396 91/414/394
g Bip001 L Finger11
f 357/550/429 198/401/382 356/400/381
f 357/550/429 199/421/401 198/401/382
g Bip001 L Finger1
f 367/529/490 204/419/399 365/562/488
f 450/528/489 206/418/398 205/417/397
g Bip001 L Hand
f 166/559/508 206/418/398 450/528/489
f 166/559/508 207/415/395 206/418/398
f 208/17/17 206/418/398 207/415/395
g Bip001 L Finger11
f 214/183/190 196/404/385 197/402/383
f 214/183/190 195/182/189 196/404/385
g Bip001 L Hand
f 394/31/31 50/210/217 92/7/7 393/292/291
g Bip001 Spine2
f 236/328/319 141/383/364 142/329/320
g Bip001 L Hand
f 45/370/351 44/481/446 42/174/181 43/369/350
f 248/390/371 249/392/373 123/391/372
f 250/21/21 249/392/373 248/390/371
g Bip001 L Finger31
f 411/563/510 436/492/457 435/10/10 412/9/9
g Bip001 L Hand
f 166/564/508 450/565/489 451/201/208
f 247/154/161 269/153/160 268/372/353 248/390/371
g Bip001 L ForeTwist
f 245/495/460 128/350/338 129/349/337 244/494/459
g Bip001 L Finger11
f 363/521/485 202/527/375 361/464/378 362/463/431
g Bip001 LUpArmTwist
f 285/512/476 283/515/479 284/514/478
g Bip001 L Finger1
f 365/562/488 204/419/399 203/395/376 202/394/375
g Bip001 L ForeTwist
f 219/254/260 288/518/482 287/165/172 221/251/257
g Bip001 L Finger1
f 366/150/157 365/526/488 364/522/486
g Bip001 L Hand
f 122/357/341 371/202/209 160/204/211
f 101/555/284 102/164/171 100/451/423 99/450/143
f 41/368/349 40/122/131 20/121/130 39/366/347
g Bip001 L Finger11
f 351/457/427 376/471/438 354/470/437
f 350/453/425 376/471/438 351/457/427
g Bip001 L Hand
f 123/391/372 249/392/373 377/364/345
f 184/293/292 420/296/294 453/32/32 185/291/290
g Bip001 L Finger31
f 387/530/491 410/444/419 386/110/119
f 387/530/491 388/551/502 410/444/419
g Bip001 L Finger3
f 398/175/182 444/488/453 400/479/444 399/119/128
g Bip001 L Finger31
f 407/435/413 392/434/412 406/520/484
f 409/566/511 410/567/419 388/568/502
f 411/563/510 410/567/419 409/566/511
g Bip001 L Hand
f 418/426/404 453/32/32 417/427/405
g Bip001 L ForeTwist
f 244/494/459 129/349/337 130/346/336 243/393/374
g Bip001 L Hand
f 427/569/441 420/296/294 426/295/186
f 427/569/441 453/32/32 420/296/294
g Bip001 L Finger21
f 30/319/310 429/315/307 430/320/311
f 431/570/501 429/315/307 30/319/310
g Bip001 L Finger31
f 406/520/484 437/491/456 407/435/413
g Bip001 L Finger2
f 425/298/183 421/297/295 422/311/304 424/314/306
g Bip001 L Finger01
f 9/55/55 10/71/69 3/69/67 8/56/56
g Bip001 L Hand
f 452/149/156 451/201/208 450/565/489
g Bip001 L Finger1
f 450/565/489 367/571/490 452/149/156
g Bip001 L Hand
f 427/569/441 417/427/405 453/32/32
g Bip001 L ForeTwist
f 243/393/374 130/346/336 131/344/335 242/387/368
f 245/495/460 271/375/356 270/152/159 246/151/158
g Bip001 L Finger11
f 493/531/492 488/97/95 487/146/155 492/145/154
g Bip001 L Hand
f 38/200/207 254/203/210 39/366/347 20/121/130
g Bip001 L Finger31
f 501/87/85 502/84/82 496/81/79 497/80/78
g Bip001 LUpArmTwist
f 229/49/49 158/48/48 159/232/239 228/422/402
g Bip001 L Finger21
f 26/318/191 428/316/308 429/315/307 431/570/501
g Bip001 L Finger0
f 71/272/248 70/13/13 68/270/276 69/269/275
g Bip001 L Finger21
f 179/308/301 173/304/298 175/560/509 178/321/312
g Bip001 L Finger31
f 435/10/10 436/492/457 437/491/456 438/172/179
g Bip001 L Finger0
f 69/363/275 119/362/344 118/243/249 71/242/248
g Bip001 L Finger31
f 409/566/511 388/568/502 389/433/411 408/432/410
g Bip001 L Hand
f 166/564/508 451/201/208 255/159/166 264/547/243
g Bip001 L Finger3
f 433/493/458 448/486/451 447/116/125 432/115/124
g Bip001 L Finger2
f 36/51/51 22/177/184 23/524/487 35/50/50
g Bip001 L UpperArm
f 224/513/477 225/549/332 223/545/334 222/511/475
g Bip001 L Hand
f 91/414/394 393/292/291 92/7/7 90/6/6
g Bip001 LUpArmTwist
f 238/382/363 137/336/327 139/333/324 141/383/364
g Bip001 L ForeTwist
f 311/144/153 331/143/152 330/327/318 310/374/355
g Bip001 L Hand
f 369/130/139 339/129/138 337/448/422 370/205/212
g Bip001 L Finger01
f 11/64/54 5/62/62 4/67/65 12/108/68
g Bip001 L Finger11
f 211/126/135 191/125/134 192/408/389 212/420/400
g Bip001 LUpArmTwist
f 230/46/46 283/515/479 282/42/42 231/248/254
g Bip001 L ForeTwist
f 271/375/356 310/374/355 309/213/220 270/152/159
g Bip001 L Finger31
f 441/490/455 402/439/417 401/478/443 443/489/454
g Bip001 L ForeTwist
f 218/256/262 289/510/474 288/518/482 219/254/260
g Bip001 L Finger21
f 476/572/512 465/85/116 466/534/497
f 467/83/114 465/85/116 476/572/512
f 474/74/107 476/572/512 466/573/497
f 474/74/107 475/73/106 476/572/512
f 468/82/113 476/572/512 475/73/106
f 467/83/114 476/572/512 468/82/113
g Bip001 L Finger11
f 478/317/309 479/103/100 477/101/99
f 480/574/513 479/103/100 478/317/309
f 481/104/93 479/103/100 480/574/513
f 480/574/513 486/96/94 485/98/96
f 478/317/309 486/96/94 480/574/513
f 489/93/91 480/574/513 485/98/96
f 489/93/91 481/95/93 480/574/513
g Bip001 LUpArmTwist
f 237/381/362 277/380/361 239/385/366 238/382/363
g Bip001 L Finger11
f 477/101/99 487/146/155 478/317/309
g Bip001 L Finger31
f 513/572/514 503/85/83 504/534/493
f 505/83/81 503/85/83 513/572/514
f 512/74/72 513/572/514 504/573/493
f 512/74/72 514/73/71 513/572/514
f 506/82/80 513/572/514 514/73/71
f 505/83/81 513/572/514 506/82/80
g Bip001 L UpperArm
f 320/44/44 321/157/164 318/156/163 319/45/45
g Bip001 L Finger11
f 355/472/439 356/523/381 353/544/384 354/470/437
g Bip001 L Hand
f 124/355/267 125/354/340 123/391/372 63/356/269
g Bip001 L Clavicle
f 455/557/507 152/226/233 151/247/253 150/553/504
g Bip001 L Finger3
f 380/477/442 379/476/406 417/474/405 378/120/129
g Bip001 L Finger2
f 424/525/306 23/524/487 22/177/184 425/176/183
g Bip001 L ForeTwist
f 331/143/152 327/326/317 306/39/39 330/327/318
f 325/498/463 326/499/464 327/326/317 329/325/316
g Bip001 L Finger1
f 211/126/135 203/395/376 204/419/399 210/123/132
g Bip001 L Hand
f 60/262/268 62/264/270 58/501/466 59/500/465
g Bip001 L Finger01
f 107/3/3 163/452/424 162/543/500 105/535/494
g Bip001 L ForeTwist
f 295/36/36 307/214/221 294/38/38 53/37/37
g Bip001 L Finger31
f 509/75/73 511/105/84 510/106/86 508/76/74
g Bip001 L ForeTwist
f 246/151/158 126/352/339 128/350/338 245/495/460
g Bip001 L Finger21
f 30/575/310 29/552/503 28/208/215 431/548/501
g Bip001 L Finger0
f 162/543/500 118/243/249 119/362/344 161/162/169
g Bip001 L Hand
f 86/131/140 187/412/392 186/416/396 89/287/286
g Bip001 Spine2
f 146/542/499 147/538/495 144/331/322 145/556/506
g Bip001 L Finger01
f 108/2/2 164/233/240 163/452/424 107/3/3
g Bip001 L ForeTwist
f 55/289/288 293/41/41 292/199/206 57/503/468
g Bip001 L Hand
f 395/33/33 453/32/32 418/426/404 419/118/127
g Bip001 L Finger11
f 352/405/386 196/404/385 195/182/189 349/406/387
g Bip001 L Finger31
f 439/484/449 445/436/414 441/490/455 440/483/448
g Bip001 L Finger21
f 33/207/214 259/195/202 258/197/204 34/206/213
g Bip001 L Hand
f 20/121/130 427/475/441 426/179/186 21/178/185
g Bip001 L Finger21
f 31/190/197 29/552/503 30/575/310 177/191/198
g Bip001 L ForeTwist
f 334/216/223 322/323/314 328/324/315 333/217/224
g Bip001 L Finger31
f 512/74/72 504/573/493 511/105/84 509/75/73
f 408/432/410 436/492/457 411/563/510 409/566/511
g Bip001 L Finger3
f 397/482/447 446/487/452 444/488/453 398/175/182
g Bip001 L UpperArm
f 316/221/228 317/155/162 335/158/165 315/219/226
g Bip001 L Finger11
f 213/180/187 200/398/379 201/396/377 212/420/400
g Bip001 L ForeTwist
f 313/218/225 333/217/224 332/142/151 312/141/150
g Bip001 L Finger21
f 474/74/107 466/573/497 473/105/102 471/75/101
g Bip001 L Finger31
f 412/9/9 385/30/30 410/567/419 411/563/510
g Bip001 L Hand
f 298/169/176 266/23/23 267/22/22 297/371/352
g Bip001 L Finger1
f 366/150/157 452/149/156 367/571/490 365/526/488
g Bip001 L UpperArm
f 300/167/174 323/496/461 320/44/44 299/43/43
g Bip001 L Finger21
f 178/321/312 175/560/509 176/561/195 177/322/198
g Bip001 Spine2
f 155/229/236 153/227/234 455/557/507 150/553/504 149/554/505 457/541/498 146/542/499 145/556/506 143/330/321 140/332/323 456/558/326 454/231/238 157/230/237
