# Blender 5.1.1
# www.blender.org
mtllib left_leg.mtl
g park_cheshirecat_ob0_L0.left_leg_park_cheshirecat_model0.004
v -0.046019 -0.224111 0.184312
v -0.049254 -0.228643 0.188463
v -0.050291 -0.225942 0.183946
v -0.049498 -0.231390 0.186388
v -0.050536 -0.229757 0.182848
v -0.046996 -0.230321 0.169542
v -0.051146 -0.228201 0.170152
v -0.050902 -0.224065 0.170518
v -0.046812 -0.222082 0.170396
v -0.042784 -0.224142 0.169908
v -0.042113 -0.225988 0.183336
v -0.042662 -0.228262 0.169542
v -0.041991 -0.229803 0.182115
v -0.046446 -0.231863 0.181749
v -0.042540 -0.231344 0.186021
v -0.046141 -0.232832 0.185045
v -0.043639 -0.233022 0.189073
v -0.045958 -0.233717 0.188585
v -0.043456 -0.231420 0.190416
v -0.042418 -0.228597 0.187974
v -0.047850 -0.231374 0.190904
v -0.045592 -0.230566 0.191392
v -0.045775 -0.227300 0.189073
v -0.048033 -0.233060 0.189439
v -0.045287 -0.237928 0.193346
v 0.002931 -0.227514 0.181139
v 0.003419 -0.223913 0.182359
v 0.002199 -0.225317 0.169054
v 0.002565 -0.221029 0.169664
v 0.003786 -0.229177 0.184801
v 0.004884 -0.231573 0.187364
v 0.007326 -0.232412 0.186265
v 0.007814 -0.237043 0.190416
v 0.005250 -0.229940 0.188829
v 0.004274 -0.226522 0.186388
v 0.007570 -0.222265 0.182725
v 0.006959 -0.219045 0.169664
v 0.010988 -0.229314 0.184190
v 0.011110 -0.226736 0.185899
v 0.011110 -0.227743 0.180406
v 0.011354 -0.224218 0.181749
v 0.007936 -0.225301 0.186998
v 0.007936 -0.229177 0.189317
v 0.010255 -0.230093 0.188463
v 0.011110 -0.221441 0.168932
v 0.010744 -0.225637 0.168321
v 0.006349 -0.227666 0.168321
v 0.006959 -0.229345 0.179918
v 0.007204 -0.230566 0.183580
v 0.010011 -0.231634 0.186876
v 0.028810 -0.238767 0.102525
v 0.024660 -0.221578 0.113756
v 0.025514 -0.222768 0.104600
v -0.018919 -0.224752 0.117784
v -0.046080 -0.247659 0.132066
v -0.046690 -0.246515 0.152940
v -0.046446 -0.243696 0.170030
v -0.068358 -0.243013 0.154100
v -0.067320 -0.243219 0.133531
v -0.045836 -0.248694 0.113267
v -0.047179 -0.214468 0.174058
v -0.055663 -0.215139 0.173448
v -0.049254 -0.207082 0.164049
v -0.062987 -0.211172 0.164659
v -0.048399 -0.203146 0.154161
v -0.068236 -0.209798 0.153490
v -0.050291 -0.200399 0.141161
v -0.068236 -0.209066 0.138841
v -0.049742 -0.196584 0.124559
v -0.066649 -0.207784 0.119798
v -0.049681 -0.193868 0.111497
v -0.066954 -0.205984 0.104234
v -0.051024 -0.187460 0.097520
v -0.022826 -0.176748 0.104417
v -0.026793 -0.195730 0.128221
v -0.032469 -0.204366 0.154832
v -0.034361 -0.208730 0.164903
v -0.039305 -0.214620 0.173448
v -0.021117 -0.211019 0.127245
v -0.022704 -0.212881 0.142747
v -0.024352 -0.215017 0.155138
v -0.028929 -0.218877 0.166490
v -0.038207 -0.220800 0.175401
v -0.046935 -0.221044 0.177110
v -0.057127 -0.220831 0.175401
v -0.067503 -0.220678 0.165514
v -0.073180 -0.221136 0.152879
v -0.073790 -0.221059 0.136766
v -0.073424 -0.219778 0.118333
v -0.073912 -0.218649 0.099474
v 0.045045 -0.229116 0.010835
v 0.043825 -0.205007 -0.011610
v 0.039918 -0.228323 -0.014845
v 0.030519 -0.205740 -0.038100
v 0.026002 -0.228613 -0.042799
v 0.011964 -0.205556 -0.058791
v 0.009279 -0.227453 -0.061110
v -0.012572 -0.205404 -0.067763
v -0.015013 -0.227850 -0.068190
v -0.038023 -0.205068 -0.063918
v -0.040709 -0.227743 -0.063368
v -0.058531 -0.204641 -0.047011
v -0.059264 -0.227865 -0.046523
v -0.069518 -0.228109 -0.022444
v -0.070372 -0.205038 -0.021193
v -0.071166 -0.185232 -0.021742
v -0.057433 -0.185293 -0.047682
v -0.035948 -0.185293 -0.063734
v -0.009642 -0.185293 -0.067030
v 0.015626 -0.185171 -0.057021
v 0.035036 -0.185171 -0.036147
v 0.047243 -0.183584 -0.007826
v 0.048463 -0.209951 0.014543
v 0.050050 -0.230001 0.032813
v 0.034547 -0.242185 -0.015669
v 0.022462 -0.240869 -0.044081
v 0.013917 -0.247154 -0.015395
v 0.008302 -0.246799 -0.039870
v 0.007326 -0.239805 -0.058791
v -0.010985 -0.248295 -0.038954
v -0.032835 -0.247221 -0.037489
v -0.039793 -0.240202 -0.057204
v -0.056700 -0.240602 -0.042006
v -0.050230 -0.246416 -0.030287
v -0.050047 -0.245906 -0.005843
v -0.068236 -0.239080 0.001878
v -0.048094 -0.247072 0.022417
v -0.047911 -0.247967 0.047594
v -0.049986 -0.248683 0.075273
v -0.048644 -0.250204 0.098436
v -0.022704 -0.247707 0.074449
v -0.023619 -0.248704 0.046358
v -0.025816 -0.249034 0.018991
v -0.028746 -0.248557 -0.009291
v -0.007445 -0.248970 -0.012587
v -0.003172 -0.249012 0.015626
v 0.039308 -0.241468 0.011095
v 0.020021 -0.246876 0.013628
v 0.000490 -0.247948 0.044313
v 0.000368 -0.247407 0.070482
v 0.001222 -0.245996 0.093736
v 0.003542 -0.243326 0.107286
v -0.014159 -0.241888 0.113634
v 0.005250 -0.243150 0.120653
v -0.012816 -0.241270 0.123949
v 0.005739 -0.243570 0.133714
v -0.012328 -0.241563 0.135728
v 0.005617 -0.244999 0.145982
v 0.006715 -0.244337 0.162950
v -0.005125 -0.234991 0.173082
v 0.018922 -0.235159 0.169908
v 0.024049 -0.240739 0.145006
v 0.021364 -0.239034 0.121568
v 0.024416 -0.238905 0.093187
v 0.022096 -0.246143 0.068712
v 0.028078 -0.246589 0.042367
v 0.043947 -0.241884 0.034549
v -0.013548 -0.240285 -0.062697
v -0.063963 -0.241563 -0.022871
v -0.076598 -0.184560 0.009080
v -0.080016 -0.162099 0.007188
v -0.057677 -0.161733 -0.050246
v -0.033629 -0.161916 -0.064284
v -0.006102 -0.161184 -0.067580
v 0.041505 -0.161428 -0.035231
v 0.053590 -0.160390 -0.004469
v 0.021852 -0.237913 0.108141
v 0.024660 -0.207784 0.117845
v -0.018065 -0.225164 0.120531
v -0.017333 -0.225957 0.127367
v -0.018065 -0.211385 0.124010
v -0.019652 -0.189962 0.118822
v -0.013915 -0.197774 0.132310
v -0.017821 -0.211813 0.129808
v -0.019896 -0.227605 0.138231
v -0.020750 -0.213430 0.149217
v -0.021605 -0.228109 0.148607
v -0.020018 -0.212606 0.140062
v -0.013426 -0.199758 0.141405
v -0.013060 -0.202840 0.150133
v -0.012206 -0.204763 0.159044
v -0.018431 -0.215200 0.160875
v -0.017821 -0.228124 0.163316
v -0.006834 -0.217168 0.172838
v -0.004637 -0.209676 0.169908
v 0.004762 -0.201467 0.159044
v 0.005128 -0.198507 0.149766
v 0.005250 -0.196066 0.141283
v 0.005739 -0.193380 0.131517
v -0.015501 -0.194143 0.126207
v 0.006715 -0.190603 0.125658
v 0.006105 -0.184805 0.112901
v 0.004762 -0.175588 0.099840
v 0.028444 -0.178396 0.090745
v 0.047975 -0.193258 0.094530
v 0.045656 -0.187154 0.078935
v 0.060182 -0.201620 0.084459
v 0.055788 -0.197927 0.067918
v 0.063600 -0.216360 0.078172
v 0.067384 -0.218099 0.093858
v 0.065065 -0.232488 0.091661
v 0.068239 -0.232854 0.107225
v 0.069826 -0.219854 0.108751
v 0.072877 -0.233694 0.126329
v 0.072877 -0.221227 0.126085
v 0.073122 -0.232366 0.138658
v 0.071901 -0.221136 0.138902
v 0.063966 -0.228460 0.153001
v 0.063722 -0.236105 0.152940
v 0.052370 -0.228262 0.158800
v 0.040163 -0.226278 0.159166
v 0.053468 -0.219823 0.158067
v 0.040041 -0.217962 0.159044
v 0.041383 -0.212362 0.156419
v 0.033449 -0.218893 0.148302
v 0.032106 -0.232641 0.148546
v 0.028078 -0.232442 0.136339
v 0.032716 -0.242048 0.134691
v 0.027223 -0.230398 0.121019
v 0.030519 -0.240980 0.117540
v 0.027101 -0.224660 0.107469
v 0.029420 -0.208639 0.110948
v 0.027956 -0.217062 0.123216
v 0.028932 -0.219350 0.137376
v 0.036012 -0.204336 0.137193
v 0.026979 -0.204641 0.109788
v 0.029542 -0.189993 0.107042
v 0.035158 -0.195577 0.115221
v 0.034181 -0.200094 0.123766
v 0.054567 -0.202962 0.131822
v 0.055177 -0.205312 0.143053
v 0.067628 -0.210653 0.140123
v 0.069459 -0.209035 0.127977
v 0.062868 -0.213918 0.151048
v 0.053712 -0.211599 0.153795
v 0.038698 -0.206655 0.147142
v 0.063966 -0.220007 0.152635
v 0.067628 -0.206991 0.111620
v 0.064333 -0.204671 0.098558
v 0.050783 -0.197103 0.107591
v 0.052370 -0.199758 0.117357
v 0.022707 -0.194845 0.121812
v 0.020509 -0.197866 0.129381
v 0.021120 -0.199422 0.137987
v 0.021730 -0.201742 0.148180
v 0.020387 -0.204122 0.157945
v 0.014040 -0.209585 0.167345
v 0.005250 -0.209066 0.169664
v 0.006105 -0.217321 0.173448
v 0.007570 -0.227041 0.174791
v -0.006834 -0.226766 0.173692
v 0.016847 -0.217367 0.170274
v 0.024538 -0.215536 0.160265
v 0.028078 -0.213522 0.145738
v 0.026735 -0.211538 0.135973
v 0.025880 -0.210256 0.126512
v 0.019411 -0.226873 0.170763
v 0.026369 -0.227010 0.159288
v 0.029054 -0.226446 0.144701
v 0.027223 -0.224615 0.134264
v 0.026369 -0.223440 0.124071
v 0.022340 -0.238538 0.132982
v 0.024416 -0.239484 0.159776
v 0.007814 -0.236234 0.173692
v -0.010619 -0.241392 0.165391
v -0.013182 -0.243349 0.148363
v -0.018553 -0.242563 0.105089
v 0.068483 -0.241956 0.139879
v 0.067628 -0.243291 0.127916
v 0.062135 -0.242918 0.108079
v 0.057863 -0.242364 0.093523
v 0.055055 -0.241041 0.076891
v 0.061281 -0.231725 0.075273
v 0.059206 -0.214223 0.059923
v 0.051881 -0.193685 0.047884
v 0.043581 -0.181081 0.063859
v 0.026857 -0.170339 0.078905
v 0.002565 -0.167532 0.089494
v -0.025633 -0.168264 0.092332
v -0.053282 -0.181203 0.082384
v -0.066954 -0.201498 0.086717
v -0.073180 -0.216055 0.080125
v -0.074034 -0.232977 0.096849
v -0.073912 -0.230489 0.075944
v -0.067870 -0.243490 0.096300
v -0.068846 -0.243211 0.074144
v -0.069029 -0.242223 0.048814
v -0.073790 -0.228399 0.053484
v -0.073607 -0.212850 0.058992
v -0.068541 -0.195516 0.067308
v -0.054503 -0.172842 0.070573
v -0.027098 -0.161001 0.085191
v 0.000856 -0.160574 0.084154
v 0.025026 -0.162405 0.072252
v 0.042360 -0.174429 0.051744
v 0.049440 -0.178762 0.023019
v 0.053712 -0.212179 0.038370
v 0.056886 -0.230978 0.056459
v 0.050050 -0.240793 0.059099
v 0.036378 -0.244066 0.063249
v 0.040773 -0.244880 0.083147
v 0.044557 -0.244150 0.097398
v 0.046754 -0.244506 0.111192
v 0.049318 -0.245531 0.130357
v 0.050172 -0.244806 0.145372
v 0.050294 -0.237035 0.156969
v 0.041383 -0.232977 0.157091
v 0.036623 -0.240339 0.147935
v 0.051271 -0.157095 0.029148
v 0.026491 -0.150808 0.069658
v 0.000856 -0.149648 0.082201
v -0.072386 -0.184377 0.042543
v -0.073973 -0.206777 0.036783
v -0.073180 -0.227468 0.029867
v -0.068114 -0.240980 0.026151
v -0.072875 -0.226537 0.003740
v -0.075255 -0.205251 0.007265
v -0.022948 -0.238866 0.119005
v -0.020750 -0.226324 0.124071
v -0.025023 -0.239988 0.135118
v -0.021971 -0.227468 0.139696
v -0.025877 -0.240461 0.152452
v -0.023314 -0.228002 0.154283
v -0.027708 -0.228658 0.168321
v -0.028868 -0.237485 0.169054
v -0.036803 -0.233671 0.176378
v -0.036864 -0.229345 0.176866
v -0.046446 -0.229330 0.179063
v -0.046446 -0.237211 0.177843
v -0.058470 -0.235006 0.176378
v -0.058470 -0.229391 0.177232
v -0.065672 -0.240446 0.168077
v -0.069579 -0.231649 0.166490
v -0.074522 -0.232702 0.152696
v -0.073241 -0.233327 0.134508
v -0.073302 -0.233511 0.116075
v -0.067137 -0.243177 0.113512
v -0.019041 -0.211141 0.120958
v -0.031493 -0.200948 0.143358
v -0.074156 -0.162222 -0.024245
v -0.077818 -0.135183 -0.027419
v -0.090544 -0.110464 0.002809
v -0.082030 -0.109731 -0.030592
v -0.098357 -0.080068 0.002183
v -0.089903 -0.079336 -0.036574
v -0.108061 -0.052969 0.003328
v -0.101347 -0.051992 -0.040175
v -0.120299 -0.027456 -0.044081
v -0.081725 -0.047231 -0.075270
v -0.096800 -0.017690 -0.089186
v -0.038268 -0.035635 -0.092604
v -0.051695 -0.000967 -0.117568
v 0.009035 -0.024404 -0.094008
v 0.012331 0.017710 -0.111830
v 0.051271 -0.014639 -0.074049
v 0.059694 0.031626 -0.085646
v 0.086916 -0.006704 -0.037184
v 0.098512 0.040659 -0.039015
v 0.098268 -0.006582 0.015047
v 0.110475 0.039927 0.021654
v 0.086793 -0.013174 0.066545
v 0.098634 0.031870 0.082719
v 0.056520 0.021372 0.117052
v 0.006837 0.007944 0.136522
v 0.050050 -0.022207 0.097154
v 0.076784 -0.049551 0.055620
v 0.086305 -0.047109 0.010011
v 0.074098 -0.049306 -0.035475
v 0.045045 -0.054678 -0.066420
v 0.007326 -0.062246 -0.083754
v -0.031920 -0.069326 -0.081374
v -0.071410 -0.077383 -0.065749
v -0.061949 -0.108633 -0.058791
v -0.030333 -0.104971 -0.073256
v 0.003175 -0.100088 -0.074110
v 0.034914 -0.094961 -0.059584
v 0.061159 -0.091299 -0.034499
v 0.073122 -0.088979 0.004564
v 0.063966 -0.089712 0.045183
v 0.045778 -0.056264 0.086809
v 0.037111 -0.092641 0.076860
v 0.004640 -0.063100 0.101793
v 0.003542 -0.096670 0.090807
v -0.034728 -0.068960 0.099474
v -0.031920 -0.100698 0.089708
v -0.065367 -0.074209 0.076036
v -0.060667 -0.104482 0.068986
v -0.089903 -0.078115 0.044389
v -0.082518 -0.108511 0.040109
v -0.077940 -0.132497 0.039396
v -0.057799 -0.127798 0.067186
v -0.030089 -0.122915 0.084825
v 0.002687 -0.120107 0.085680
v 0.031618 -0.119375 0.072252
v 0.055177 -0.120962 0.039575
v 0.062746 -0.123952 0.001115
v 0.051881 -0.125112 -0.034438
v 0.027467 -0.126882 -0.057570
v -0.000731 -0.129202 -0.070021
v -0.031371 -0.132619 -0.067885
v -0.059325 -0.134878 -0.054579
v 0.019899 -0.161672 -0.057143
v 0.046999 -0.155080 0.045160
v -0.028136 -0.150381 0.082292
v -0.055663 -0.155141 0.067430
v -0.073973 -0.159902 0.039796
v -0.085326 -0.135000 0.004533
v -0.098875 -0.051748 0.048433
v -0.123946 -0.027578 0.005662
v -0.114226 -0.025381 0.054231
v -0.072691 -0.047109 0.085039
v -0.086577 -0.017690 0.101182
v -0.036620 -0.040151 0.111497
v 0.005861 -0.032339 0.115892
v -0.040953 -0.005605 0.132494
v 0.048463 -0.227987 0.147508
v 0.049562 -0.229131 0.160509
v 0.053468 -0.230840 0.159654
v 0.053712 -0.231466 0.163805
v 0.051515 -0.233068 0.167589
v 0.053957 -0.233572 0.166368
v 0.054689 -0.238203 0.170274
v 0.050294 -0.230459 0.165025
v 0.049806 -0.225835 0.161363
v 0.048585 -0.223425 0.147752
v 0.053712 -0.224004 0.161607
v 0.050417 -0.228231 0.166856
v 0.051759 -0.231817 0.169420
v 0.053102 -0.221181 0.147569
v 0.057497 -0.223501 0.147325
v 0.057497 -0.225790 0.160997
v 0.057497 -0.227972 0.147020
v 0.057497 -0.229162 0.160020
v 0.052858 -0.230306 0.147203
v 0.057375 -0.230352 0.164537
v 0.056642 -0.232908 0.167223
v 0.056764 -0.231664 0.169054
v 0.057497 -0.228139 0.166246
v 0.054323 -0.231008 0.170030
v 0.054201 -0.226934 0.167467
vn 0.0887 -0.9373 0.3370
vn 0.1275 -0.4858 0.8647
vn -0.3080 -0.4167 0.8553
vn -0.5086 -0.7275 0.4605
vn -0.5669 -0.3577 -0.7421
vn -0.8604 -0.3495 -0.3709
vn -0.7973 -0.5060 -0.3292
vn -0.5031 -0.5109 -0.6970
vn 0.5942 -0.2547 -0.7629
vn 0.6173 -0.2732 -0.7378
vn 0.8666 -0.2552 -0.4288
vn 0.8495 -0.2684 -0.4543
vn 0.3399 0.6539 -0.6759
vn 0.2957 -0.3465 -0.8902
vn 0.1102 0.4238 -0.8990
vn 0.7762 0.6304 0.0059
vn 0.9606 -0.2769 -0.0222
vn 0.6450 0.6751 -0.3581
vn 0.0555 0.7179 0.6939
vn 0.8365 0.3287 0.4384
vn 0.8338 0.5208 0.1835
vn 0.0355 0.9345 0.3541
vn 0.6598 -0.0241 0.7511
vn 0.6722 0.1924 0.7149
vn 0.2726 0.2132 0.9382
vn 0.2144 -0.0861 0.9729
vn -0.2439 0.7401 0.6267
vn -0.1756 0.7912 0.5859
vn 0.1789 0.8001 0.5726
vn 0.1997 0.7413 0.6408
vn 0.0605 0.9321 0.3572
vn 0.6864 0.6898 0.2305
vn 0.7192 0.5737 0.3918
vn 0.1127 0.8838 0.4541
vn 0.8311 -0.5510 -0.0757
vn 0.8106 0.1222 0.5727
vn 0.8066 -0.5743 -0.1399
vn -0.7171 0.3932 0.5755
vn 0.0934 0.6890 0.7187
vn 0.0666 0.9112 0.4066
vn -0.7688 0.5475 0.3305
vn -0.8830 -0.2196 0.4147
vn -0.9724 -0.2330 -0.0128
vn -0.9825 -0.1861 -0.0061
vn -0.9008 -0.1485 0.4080
vn -0.8555 -0.3134 0.4122
vn -0.9498 -0.3127 -0.0023
vn -0.8020 -0.4601 0.3810
vn -0.8866 -0.4615 0.0294
vn -0.6694 -0.1244 0.7324
vn -0.6879 0.0018 0.7258
vn -0.2675 0.0439 0.9626
vn -0.2740 -0.1502 0.9499
vn 0.2277 0.0301 0.9733
vn 0.2126 -0.1770 0.9610
vn 0.8888 -0.2409 0.3899
vn 0.9659 -0.1804 0.1859
vn 0.9687 -0.2111 -0.1307
vn 0.9665 -0.2508 -0.0547
vn 0.2006 -0.2711 0.9414
vn -0.2860 -0.2565 0.9233
vn 0.9541 -0.2974 -0.0344
vn 0.8542 -0.3293 0.4023
vn -0.6389 -0.3251 0.6972
vn -0.6633 -0.2225 0.7146
vn -0.2799 -0.3564 0.8914
vn 0.9531 -0.3015 -0.0259
vn 0.8360 -0.3470 0.4251
vn 0.8424 -0.3423 0.4163
vn 0.1986 -0.3530 0.9143
vn 0.2227 -0.4277 0.8761
vn -0.2218 -0.4735 0.8524
vn -0.5841 -0.4694 0.6622
vn -0.2966 0.4867 0.8217
vn 0.1075 0.4840 0.8684
vn -0.3936 0.2652 0.8802
vn -0.4148 -0.0343 0.9093
vn 0.1326 0.0113 0.9911
vn 0.1155 0.2705 0.9558
vn -0.9003 -0.1852 -0.3938
vn -0.9197 -0.1542 -0.3610
vn -0.9891 -0.1473 -0.0030
vn 0.1851 -0.1387 -0.9729
vn 0.1418 -0.0747 -0.9871
vn -0.3115 -0.0629 -0.9481
vn -0.2465 -0.1372 -0.9594
vn 0.8324 -0.2170 -0.5099
vn 0.8267 -0.1942 -0.5280
vn 0.5526 -0.1307 -0.8232
vn 0.5588 -0.1668 -0.8124
vn 0.8154 -0.1407 -0.5616
vn 0.8281 -0.0781 -0.5551
vn 0.9495 -0.0997 -0.2976
vn 0.9248 -0.2186 -0.3114
vn 0.5751 -0.2278 -0.7857
vn 0.8380 -0.2562 -0.4818
vn -0.6420 -0.1640 -0.7489
vn -0.5967 -0.2481 -0.7631
vn -0.1908 -0.2116 -0.9585
vn -0.8828 -0.2514 -0.3969
vn 0.2182 -0.2130 -0.9524
vn 0.2384 -0.2659 -0.9341
vn -0.0637 -0.9953 0.0729
vn 0.0437 -0.9947 0.0930
vn -0.5947 -0.8030 0.0388
vn -0.6321 -0.7747 0.0202
vn 0.9068 -0.3539 -0.2290
vn 0.9096 -0.3549 -0.2160
vn 0.4962 -0.8570 -0.1391
vn 0.5396 -0.8284 -0.1505
vn -0.7606 0.3384 0.5540
vn -0.6865 0.1416 0.7132
vn 0.0827 0.4341 0.8971
vn 0.8731 -0.4768 -0.1021
vn -0.0492 -0.8827 -0.4673
vn -0.0202 -0.9579 -0.2863
vn -0.0340 -0.9787 -0.2024
vn 0.8564 -0.5052 -0.1063
vn 0.8389 0.5433 0.0329
vn 0.0286 0.9899 0.1388
vn -0.7966 0.5310 0.2888
vn -0.8136 0.5689 0.1201
vn -0.8706 -0.4916 -0.0203
vn -0.8910 -0.4540 0.0084
vn -0.0171 -0.9922 -0.1233
vn -0.8359 -0.5475 0.0383
vn -0.8258 -0.5632 0.0276
vn -0.8452 -0.2286 0.4830
vn -0.4309 -0.0842 0.8984
vn -0.4281 0.2750 0.8609
vn -0.8725 0.2298 0.4312
vn 0.0941 -0.9955 -0.0103
vn -0.6161 -0.7874 0.0221
vn -0.5315 -0.8101 0.2476
vn 0.1126 -0.9902 0.0821
vn 0.6908 -0.7207 -0.0574
vn 0.6910 -0.7104 -0.1332
vn 0.0773 -0.9935 -0.0833
vn 0.9908 -0.1085 0.0807
vn 0.9332 0.3254 0.1525
vn 0.8996 0.3299 0.2860
vn 0.9786 -0.0643 0.1954
vn 0.6802 -0.7302 -0.0646
vn 0.0636 -0.9971 -0.0415
vn -0.9240 -0.0784 0.3743
vn 0.0714 -0.8488 0.5238
vn 0.0334 -0.9106 0.4118
vn -0.8760 -0.4805 -0.0407
vn -0.0846 -0.7540 -0.6514
vn -0.6529 0.1388 0.7446
vn 0.0900 0.3557 0.9303
vn 0.7978 0.0608 0.5998
vn 0.7976 -0.5477 -0.2525
vn 0.5602 -0.3487 0.7513
vn 0.5809 -0.3078 0.7535
vn 0.5478 -0.4457 0.7080
vn 0.0708 -0.5732 0.8164
vn -0.0050 -0.9411 0.3380
vn 0.6117 -0.7478 0.2581
vn -0.9423 -0.0820 -0.3245
vn -0.9970 -0.0753 -0.0181
vn -0.9807 -0.1951 -0.0157
vn -0.9763 -0.2049 -0.0699
vn -0.7219 -0.6902 -0.0512
vn -0.6894 -0.7231 -0.0436
vn -0.5688 0.3154 0.7596
vn -0.7904 0.5273 0.3118
vn -0.0235 0.6195 0.7847
vn 0.0121 0.3003 0.9538
vn 0.4151 0.3061 0.8568
vn 0.3054 0.5660 0.7657
vn 0.5925 -0.7946 -0.1325
vn 0.5572 -0.8186 -0.1397
vn 0.1567 -0.9873 0.0245
vn 0.1674 -0.9859 -0.0035
vn 0.0192 0.9490 0.3146
vn 0.0546 0.7473 0.6622
vn 0.8359 0.3924 0.3839
vn 0.8358 0.5241 0.1635
vn 0.6097 -0.2038 0.7660
vn -0.6938 -0.1090 -0.7119
vn -0.1434 -0.2907 -0.9460
vn 0.6705 0.5287 0.5204
vn -0.1341 0.9524 0.2738
vn -0.6865 0.6892 0.2319
vn -0.5352 0.6778 0.5041
vn -0.1001 0.8838 0.4571
vn -0.6642 0.6046 0.4397
vn -0.9056 0.3577 0.2278
vn -0.8471 0.4979 0.1858
vn -0.5698 0.7106 0.4128
vn 0.0246 0.9671 0.2532
vn -0.6037 0.7790 0.1696
vn -0.5717 0.7867 0.2330
vn 0.0067 0.9610 0.2764
vn 0.0933 -0.9853 0.1431
vn 0.0294 -0.9730 0.2290
vn 0.7374 -0.6699 0.0859
vn -0.0132 -0.9925 -0.1212
vn -0.8640 -0.5033 0.0157
vn -0.8651 -0.5001 0.0387
vn -0.0094 -0.9984 -0.0560
vn 0.4470 0.7805 0.4371
vn 0.5430 0.7006 0.4630
vn -0.9813 0.1874 0.0437
vn -0.9734 0.2263 0.0351
vn -0.7902 0.5978 0.1351
vn 0.8865 -0.1152 0.4481
vn 0.9043 0.2550 0.3422
vn 0.9990 -0.0339 0.0276
vn -0.9685 0.2388 -0.0701
vn -0.6767 0.6863 0.2666
vn -0.9913 0.1317 0.0072
vn 0.9822 0.1856 -0.0283
vn 0.6388 0.7592 0.1244
vn 0.9657 0.2538 -0.0550
vn -0.7521 -0.0294 -0.6584
vn -0.7910 0.0174 -0.6116
vn -0.9562 -0.0272 -0.2913
vn -0.2453 0.9509 0.1886
vn -0.7190 0.6920 0.0644
vn -0.9737 -0.2241 0.0401
vn -0.5664 -0.8241 0.0091
vn -0.8625 -0.1672 0.4776
vn 0.7146 -0.6324 0.2989
vn -0.9749 0.2053 0.0861
vn -0.5597 0.7865 0.2610
vn -0.3245 0.8217 0.4686
vn -0.8639 0.1091 0.4918
vn -0.2830 0.4370 0.8538
vn -0.7385 0.3243 0.5912
vn -0.4597 0.8215 0.3374
vn 0.0624 -0.9945 0.0842
vn 0.0383 -0.9979 0.0532
vn -0.0017 -0.9999 0.0122
vn 0.0432 -0.9988 0.0212
vn -0.0394 -0.9992 -0.0029
vn -0.0612 -0.9980 -0.0167
vn 0.0290 -0.9994 -0.0214
vn 0.0418 -0.9991 0.0029
vn 0.1643 -0.9861 -0.0232
vn 0.1767 -0.9828 -0.0535
vn -0.1155 -0.9933 -0.0023
vn 0.0559 -0.9703 0.2354
vn -0.5795 -0.8059 -0.1208
vn 0.0770 -0.9919 0.1015
vn 0.6357 -0.7610 -0.1295
vn 0.4291 0.7210 0.5441
vn 0.4500 0.8246 0.3429
vn 0.6668 -0.7136 -0.2149
vn 0.9403 -0.2756 -0.1998
vn -0.7916 0.2874 0.5392
vn -0.4210 0.3106 0.8522
vn -0.3244 0.5693 0.7554
vn 0.0312 0.0395 0.9987
vn -0.4435 0.0452 0.8952
vn 0.8465 0.0253 0.5317
vn 0.7814 0.3017 0.5463
vn 0.4558 0.0630 0.8878
vn 0.0385 -0.5117 0.8583
vn -0.0392 0.0456 0.9982
vn 0.9364 0.1537 0.3153
vn 0.9744 -0.1261 0.1861
vn 0.7838 0.5892 0.1960
vn 0.6722 0.7143 0.1950
vn 0.8788 0.4725 -0.0668
vn 0.9499 0.3106 -0.0362
vn 0.9105 -0.3342 -0.2435
vn 0.9717 0.0847 -0.2206
vn 0.9707 0.0971 -0.2196
vn -0.0654 -0.9978 -0.0059
vn 0.0261 -0.9989 0.0394
vn 0.0469 -0.5051 0.8618
vn 0.0651 -0.8980 0.4352
vn 0.6847 -0.5444 0.4846
vn 0.4307 -0.3385 0.8366
vn 0.7269 -0.6726 0.1388
vn 0.0660 -0.9921 0.1071
vn 0.0717 -0.9971 0.0253
vn 0.7335 -0.6775 0.0546
vn 0.7116 -0.6704 0.2104
vn -0.5629 -0.6631 0.4933
vn -0.3876 -0.3963 0.8323
vn -0.5905 -0.7960 0.1332
vn -0.5718 -0.8204 0.0027
vn -0.6690 -0.7428 -0.0264
vn -0.6875 -0.7248 -0.0447
vn -0.1486 -0.9886 -0.0222
vn -0.1943 -0.9805 -0.0288
vn -0.2201 -0.9755 -0.0063
vn -0.2462 -0.9608 -0.1278
vn -0.6012 -0.6668 -0.4404
vn -0.3213 -0.7057 -0.6314
vn -0.1017 -0.9786 -0.1790
vn 0.0218 -0.7007 -0.7132
vn 0.0105 -0.9834 -0.1810
vn 0.3654 -0.6194 -0.6949
vn 0.1712 -0.9647 -0.2003
vn 0.9232 -0.3080 -0.2297
vn 0.8274 -0.1425 -0.5433
vn 0.5523 -0.0183 -0.8334
vn 0.5619 -0.0810 -0.8232
vn -0.3676 0.0104 -0.9299
vn -0.4059 0.0328 -0.9133
vn -0.7929 -0.1713 -0.5848
vn -0.9472 -0.1880 -0.2597
vn -0.9935 0.0958 0.0609
vn -0.9860 -0.1658 -0.0158
vn -0.9832 -0.1824 -0.0087
vn 0.0352 -0.1788 -0.9832
vn 0.5113 -0.1175 -0.8513
vn -0.6973 -0.6995 -0.1566
vn -0.9974 -0.0486 -0.0534
vn 0.1212 -0.0103 -0.9926
vn 0.9635 -0.1422 -0.2266
vn 0.6316 -0.0275 0.7748
vn 0.6322 0.3623 0.6849
vn 0.2252 0.4483 0.8651
vn 0.8272 0.5582 -0.0647
vn 0.5317 0.8206 0.2094
vn 0.8017 0.5948 -0.0597
vn 0.9762 0.0800 -0.2013
vn 0.9820 0.0776 -0.1721
vn 0.9228 -0.3184 -0.2169
vn 0.5085 -0.8470 -0.1548
vn 0.5678 -0.8210 -0.0599
vn 0.9598 -0.2588 -0.1084
vn 0.9543 -0.1637 0.2499
vn -0.0432 -0.9988 0.0225
vn -0.6175 -0.7776 0.1185
vn -0.5125 -0.7382 0.4387
vn -0.3422 -0.4596 0.8196
vn 0.9434 0.1738 0.2823
vn 0.9900 0.1310 -0.0522
vn 0.7946 0.6064 -0.0307
vn 0.8312 -0.5363 -0.1463
vn 0.8213 -0.5588 -0.1147
vn 0.8810 0.4655 0.0852
vn 0.8639 0.4638 0.1966
vn -0.9982 0.0071 0.0588
vn -0.9693 -0.2458 0.0083
vn -0.9589 -0.2834 0.0138
vn -0.9620 -0.2725 -0.0187
vn -0.9700 -0.1957 0.1441
vn -0.8508 -0.0673 0.5212
vn -0.9710 -0.1775 0.1602
vn -0.9833 -0.1750 -0.0502
vn -0.9657 -0.2085 -0.1547
vn -0.9515 0.2891 0.1054
vn -0.9657 0.0264 0.2582
vn -0.6078 0.6139 0.5037
vn -0.1213 0.7768 0.6179
vn 0.1465 0.8408 0.5212
vn -0.3318 0.9203 0.2072
vn 0.4448 0.7596 0.4745
vn 0.4399 0.8512 0.2863
vn 0.9829 -0.0681 -0.1708
vn 0.9792 0.0110 -0.2028
vn -0.9497 0.2477 0.1914
vn -0.9750 0.2223 -0.0053
vn -0.9719 0.2346 0.0177
vn -0.7401 0.6687 0.0707
vn 0.7747 0.6282 0.0722
vn 0.2489 0.6615 0.7074
vn -0.3063 0.6226 0.7201
vn -0.9608 -0.1967 0.1953
vn -0.9739 -0.0851 0.2106
vn -0.6961 -0.7001 0.1590
vn -0.6883 -0.7254 -0.0060
vn -0.9915 -0.1253 0.0346
vn 0.9938 -0.1102 -0.0176
vn 0.9650 0.2510 0.0760
vn 0.8566 0.2705 0.4393
vn 0.9391 -0.0338 0.3420
vn 0.6240 0.0239 0.7810
vn 0.5298 0.2855 0.7986
vn -0.8441 0.2783 0.4582
vn -0.2709 0.6108 0.7440
vn -0.5123 0.7463 0.4251
vn 0.5642 0.6996 0.4385
vn 0.3826 0.5851 0.7150
vn 0.0100 0.9081 0.4187
vn 0.6290 0.7481 0.2116
vn 0.9837 -0.1234 -0.1307
vn 0.9834 -0.1256 -0.1311
vn -0.8927 -0.4504 -0.0140
vn 0.9901 0.0400 0.1344
vn 0.5469 0.0305 0.8366
vn 0.3564 0.7617 0.5411
vn 0.7172 0.6217 0.3150
vn 0.5834 0.5241 0.6205
vn 0.2286 0.9548 0.1901
vn 0.2943 0.9336 0.2042
vn -0.5403 0.7913 0.2862
vn -0.4496 0.7798 0.4356
vn -0.9480 0.2146 0.2352
vn -0.0606 -0.8936 -0.4448
vn -0.8985 -0.4389 -0.0042
vn -0.0510 -0.9701 -0.2372
vn 0.5471 -0.3833 0.7441
vn 0.3010 0.5659 0.7676
vn -0.7896 0.5848 0.1859
vn -0.8838 -0.4674 -0.0198
vn -0.0370 -0.9874 -0.1541
vn 0.8334 -0.5230 -0.1788
vn 0.8499 0.3134 0.4236
vn -0.6809 0.0372 0.7314
vn 0.0677 0.3178 0.9457
vn -0.7672 0.3898 0.5093
vn -0.8045 0.5375 0.2528
vn 0.8567 -0.4855 -0.1739
vn 0.8456 -0.5283 -0.0757
vn 0.8176 -0.4954 -0.2934
vn -0.0451 -0.7235 -0.6889
vn -0.0268 -0.9145 -0.4037
vn 0.8536 -0.5193 -0.0410
vn 0.8399 0.5349 0.0925
vn 0.0161 0.9810 0.1935
vn -0.8122 0.5580 0.1699
vn -0.8724 -0.4863 -0.0494
vn -0.0758 -0.9960 -0.0483
vn 0.0774 0.6427 0.7622
vn 0.0908 0.0213 -0.9956
vn -0.9654 0.0720 0.2505
vn -0.4283 -0.1942 -0.8825
vn 0.3929 0.8981 0.1976
vn 0.2238 0.9124 0.3426
vn 0.6249 -0.6305 -0.4604
vn 0.5509 -0.4188 0.7219
vn -0.4888 0.6950 -0.5273
vn -0.9624 0.1851 0.1987
vn -0.0731 -0.4360 -0.8969
vn 0.9926 -0.1208 0.0116
vn 0.1663 -0.4123 0.8958
vn -0.5963 0.0864 -0.7981
vn 0.7984 0.0762 0.5973
vn -0.8304 -0.5433 -0.1235
vn 0.0710 0.9705 0.2302
vn -0.7420 0.6682 0.0532
vn 0.0827 -0.9337 0.3485
vt 0.905762 0.065430
vt 0.916992 0.064941
vt 0.914551 0.055176
vt 0.905273 0.052246
vt 0.624512 0.437500
vt 0.602539 0.423340
vt 0.597656 0.438965
vt 0.616699 0.460449
vt 0.708496 0.479004
vt 0.706055 0.521484
vt 0.737305 0.531250
vt 0.737793 0.487793
vt 0.702637 0.557129
vt 0.671387 0.504395
vt 0.666016 0.545410
vt 0.776367 0.567871
vt 0.773926 0.535156
vt 0.737305 0.564941
vt 0.063965 0.533203
vt 0.067383 0.533691
vt 0.068359 0.529297
vt 0.064453 0.528809
vt 0.908203 0.116211
vt 0.906250 0.121582
vt 0.911621 0.125488
vt 0.915527 0.122559
vt 0.907715 0.228027
vt 0.918945 0.216797
vt 0.898926 0.198242
vt 0.889648 0.208008
vt 0.924316 0.179688
vt 0.918945 0.169922
vt 0.913086 0.169922
vt 0.919922 0.181641
vt 0.070801 0.534668
vt 0.066406 0.537109
vt 0.068359 0.538574
vt 0.041016 0.587402
vt 0.043945 0.587402
vt 0.044434 0.583496
vt 0.040527 0.583008
vt 0.938965 0.402832
vt 0.958008 0.395996
vt 0.958008 0.381348
vt 0.936523 0.385742
vt 0.942871 0.422852
vt 0.958008 0.411621
vt 0.947266 0.437988
vt 0.958008 0.422363
vt 0.909180 0.389648
vt 0.903809 0.367676
vt 0.875000 0.367676
vt 0.882324 0.395020
vt 0.845703 0.367676
vt 0.854980 0.403320
vt 0.797852 0.415527
vt 0.789062 0.367676
vt 0.763184 0.367676
vt 0.766602 0.416016
vt 0.860352 0.428223
vt 0.888184 0.418457
vt 0.768555 0.445312
vt 0.800781 0.443848
vt 0.919922 0.435059
vt 0.913574 0.410645
vt 0.895996 0.448730
vt 0.771484 0.490723
vt 0.810547 0.530762
vt 0.805176 0.487793
vt 0.868164 0.462402
vt 0.875000 0.492188
vt 0.902832 0.472656
vt 0.925781 0.454590
vt 0.909180 0.497070
vt 0.881348 0.522949
vt 0.945312 0.168945
vt 0.949219 0.166992
vt 0.944336 0.160645
vt 0.941895 0.164551
vt 0.586914 0.381348
vt 0.609375 0.385254
vt 0.610840 0.367676
vt 0.586914 0.367676
vt 0.687500 0.399902
vt 0.691406 0.367676
vt 0.668457 0.367676
vt 0.663086 0.394043
vt 0.737793 0.413086
vt 0.737793 0.367676
vt 0.715820 0.367676
vt 0.711914 0.405273
vt 0.730469 0.132812
vt 0.734375 0.157227
vt 0.766113 0.158203
vt 0.762695 0.134766
vt 0.710449 0.436523
vt 0.737793 0.442383
vt 0.637207 0.389648
vt 0.631836 0.411621
vt 0.658691 0.419434
vt 0.586914 0.395996
vt 0.606934 0.403809
vt 0.684082 0.429199
vt 0.678711 0.465820
vt 0.846191 0.028809
vt 0.858398 0.030762
vt 0.857422 0.012207
vt 0.843262 0.012207
vt 0.850586 0.123047
vt 0.864258 0.119629
vt 0.862793 0.109863
vt 0.849121 0.113281
vt 0.061035 0.533203
vt 0.061523 0.536621
vt 0.063965 0.536621
vt 0.072266 0.530273
vt 0.070801 0.541016
vt 0.075684 0.537109
vt 0.078613 0.532227
vt 0.076172 0.513672
vt 0.070801 0.513184
vt 0.064941 0.513184
vt 0.060547 0.528809
vt 0.059570 0.514160
vt 0.054688 0.514648
vt 0.056641 0.529297
vt 0.048828 0.515625
vt 0.051270 0.529785
vt 0.053223 0.535156
vt 0.057617 0.533691
vt 0.059082 0.537598
vt 0.919922 0.136719
vt 0.918945 0.129395
vt 0.915039 0.130859
vt 0.914551 0.136719
vt 0.870117 0.067871
vt 0.869629 0.052734
vt 0.860840 0.052734
vt 0.859375 0.067871
vt 0.873535 0.081055
vt 0.883301 0.081055
vt 0.881348 0.067383
vt 0.958008 0.192871
vt 0.958008 0.197754
vt 0.963867 0.197266
vt 0.963867 0.192383
vt 0.894531 0.081055
vt 0.891602 0.066406
vt 0.934570 0.367676
vt 0.062988 0.545410
vt 0.056641 0.539551
vt 0.042480 0.599121
vt 0.039062 0.591797
vt 0.036133 0.593750
vt 0.041016 0.590820
vt 0.043457 0.590820
vt 0.045898 0.591797
vt 0.047852 0.593262
vt 0.049805 0.595703
vt 0.837402 0.476562
vt 0.833008 0.437012
vt 0.910156 0.110352
vt 0.915039 0.095215
vt 0.901855 0.095703
vt 0.897461 0.109375
vt 0.584473 0.203613
vt 0.585449 0.178223
vt 0.554688 0.176758
vt 0.554688 0.203613
vt 0.979004 0.307617
vt 0.976562 0.332520
vt 0.995117 0.332520
vt 0.995117 0.310547
vt 0.933105 0.473145
vt 0.953613 0.453125
vt 0.976562 0.201660
vt 0.979004 0.199219
vt 0.975586 0.196777
vt 0.974121 0.199219
vt 0.809570 0.116699
vt 0.833008 0.115234
vt 0.832520 0.102051
vt 0.812988 0.100098
vt 0.022949 0.619141
vt 0.022949 0.624512
vt 0.025879 0.624512
vt 0.026855 0.619629
vt 0.830078 0.411133
vt 0.641602 0.367676
vt 0.651855 0.451172
vt 0.815430 0.563965
vt 0.970703 0.209961
vt 0.977051 0.214844
vt 0.978516 0.209473
vt 0.973633 0.206055
vt 0.586914 0.423828
vt 0.586914 0.411621
vt 0.927246 0.251953
vt 0.943359 0.271484
vt 0.953125 0.254395
vt 0.937500 0.238770
vt 0.929199 0.176270
vt 0.937988 0.182617
vt 0.939941 0.178711
vt 0.932617 0.173340
vt 0.848633 0.067383
vt 0.853516 0.083496
vt 0.862793 0.081055
vt 0.010254 0.622070
vt 0.015137 0.620117
vt 0.010742 0.605469
vt 0.004883 0.607910
vt 0.880859 0.179688
vt 0.869141 0.189453
vt 0.967773 0.262207
vt 0.972656 0.247559
vt 0.961426 0.241211
vt 0.828613 0.203613
vt 0.836914 0.183105
vt 0.804688 0.179688
vt 0.812500 0.203613
vt 0.944824 0.183594
vt 0.936523 0.188477
vt 0.945312 0.188477
vt 0.917969 0.162598
vt 0.923340 0.168945
vt 0.921875 0.162598
vt 0.617188 0.178711
vt 0.617188 0.157715
vt 0.584961 0.156738
vt 0.965820 0.215332
vt 0.973633 0.221191
vt 0.949707 0.180176
vt 0.955566 0.181152
vt 0.956055 0.171875
vt 0.949707 0.173828
vt 0.906250 0.080566
vt 0.912109 0.148438
vt 0.903320 0.147949
vt 0.899414 0.154297
vt 0.909668 0.155762
vt 0.898926 0.235352
vt 0.914551 0.263184
vt 0.947266 0.228027
vt 0.830566 0.070801
vt 0.830078 0.051270
vt 0.806641 0.054199
vt 0.808594 0.075684
vt 0.782715 0.056641
vt 0.756348 0.058594
vt 0.756836 0.079590
vt 0.783203 0.078125
vt 0.785645 0.099609
vt 0.757324 0.100586
vt 0.828125 0.028809
vt 0.853516 0.052246
vt 0.879883 0.052734
vt 0.891113 0.052734
vt 0.833496 0.088379
vt 0.787109 0.119141
vt 0.969238 0.200195
vt 0.964355 0.202148
vt 0.761230 0.120605
vt 0.788574 0.132324
vt 0.982910 0.209961
vt 0.982422 0.203125
vt 0.979492 0.204102
vt 0.981934 0.196289
vt 0.986816 0.201660
vt 0.970703 0.191895
vt 0.969727 0.195801
vt 0.977539 0.192871
vt 0.952148 0.190430
vt 0.947754 0.193359
vt 0.950195 0.195801
vt 0.953613 0.191406
vt 0.848633 0.174805
vt 0.862793 0.165527
vt 0.849609 0.153320
vt 0.829590 0.161621
vt 0.833496 0.126465
vt 0.839355 0.140137
vt 0.855957 0.134277
vt 0.862305 0.098633
vt 0.850098 0.099609
vt 0.914551 0.031250
vt 0.905762 0.031250
vt 0.906738 0.047852
vt 0.915039 0.041992
vt 0.892578 0.050781
vt 0.891113 0.031250
vt 0.874023 0.031250
vt 0.878418 0.050781
vt 0.864258 0.050781
vt 0.903320 0.013672
vt 0.913086 0.019043
vt 0.891113 0.012207
vt 0.874023 0.012207
vt 0.825684 0.012207
vt 0.804199 0.012207
vt 0.805176 0.032227
vt 0.784180 0.013672
vt 0.782715 0.035156
vt 0.760742 0.018555
vt 0.756348 0.038086
vt 0.734375 0.042969
vt 0.722656 0.038574
vt 0.711914 0.055176
vt 0.730957 0.059570
vt 0.709473 0.080566
vt 0.731934 0.080566
vt 0.713867 0.100098
vt 0.733398 0.100098
vt 0.810547 0.129883
vt 0.737305 0.179199
vt 0.703613 0.157227
vt 0.706055 0.178711
vt 0.646973 0.178711
vt 0.646484 0.157715
vt 0.618164 0.133789
vt 0.585449 0.133301
vt 0.962891 0.280762
vt 0.979492 0.285645
vt 0.981934 0.266113
vt 0.673828 0.119141
vt 0.672363 0.133789
vt 0.701172 0.133301
vt 0.701172 0.119141
vt 0.585449 0.119141
vt 0.618164 0.119141
vt 0.554688 0.131836
vt 0.554688 0.119141
vt 0.554688 0.153320
vt 0.617676 0.203613
vt 0.678223 0.203613
vt 0.676270 0.178711
vt 0.647461 0.203613
vt 0.708008 0.203613
vt 0.740234 0.203613
vt 0.774414 0.203613
vt 0.770508 0.179688
vt 0.857422 0.208984
vt 0.863281 0.198242
vt 0.877930 0.222656
vt 0.884277 0.214844
vt 0.863770 0.145508
vt 0.876465 0.155762
vt 0.874512 0.138672
vt 0.868652 0.129395
vt 0.878906 0.125488
vt 0.875977 0.117676
vt 0.875000 0.109375
vt 0.889160 0.109375
vt 0.889160 0.115723
vt 0.896484 0.115234
vt 0.889160 0.096191
vt 0.889648 0.082520
vt 0.903320 0.083008
vt 0.915527 0.085449
vt 0.897461 0.121094
vt 0.890137 0.122070
vt 0.883301 0.133301
vt 0.990723 0.200684
vt 0.984375 0.193848
vt 0.892090 0.268555
vt 0.888184 0.241699
vt 0.052246 0.585449
vt 0.057129 0.569824
vt 0.051758 0.568848
vt 0.048340 0.583984
vt 0.956055 0.302246
vt 0.957031 0.332520
vt 0.995117 0.288574
vt 0.995117 0.266602
vt 0.995117 0.250977
vt 0.984863 0.250488
vt 0.995117 0.241211
vt 0.986816 0.238770
vt 0.995117 0.230469
vt 0.987793 0.228027
vt 0.988770 0.218262
vt 0.995117 0.218262
vt 0.994141 0.208008
vt 0.988770 0.209961
vt 0.979004 0.190430
vt 0.972168 0.187988
vt 0.962891 0.187988
vt 0.956543 0.190430
vt 0.954102 0.189453
vt 0.954102 0.188477
vt 0.951660 0.189453
vt 0.950684 0.187988
vt 0.954590 0.185547
vt 0.949707 0.184082
vt 0.944824 0.180176
vt 0.946289 0.191406
vt 0.935059 0.193848
vt 0.933594 0.202637
vt 0.910645 0.188477
vt 0.956543 0.221680
vt 0.946777 0.205078
vt 0.958496 0.204102
vt 0.793457 0.151367
vt 0.818359 0.145508
vt 0.982422 0.216797
vt 0.980469 0.225098
vt 0.976562 0.235352
vt 0.967285 0.230957
vt 0.892578 0.128418
vt 0.920898 0.119629
vt 0.923828 0.128418
vt 0.908203 0.128418
vt 0.912109 0.131836
vt 0.918457 0.142578
vt 0.921875 0.144043
vt 0.923828 0.137207
vt 0.915039 0.153320
vt 0.917480 0.153320
vt 0.919922 0.149902
vt 0.916504 0.148926
vt 0.924805 0.157227
vt 0.925781 0.162109
vt 0.932129 0.161133
vt 0.931152 0.156738
vt 0.938477 0.157227
vt 0.937500 0.161621
vt 0.945312 0.175293
vt 0.942383 0.169922
vt 0.941406 0.175293
vt 0.931641 0.165527
vt 0.936523 0.164551
vt 0.935547 0.170898
vt 0.927734 0.166992
vt 0.918457 0.158203
vt 0.921387 0.158203
vt 0.919434 0.153320
vt 0.917969 0.154785
vt 0.953613 0.164551
vt 0.947754 0.157227
vt 0.038086 0.587891
vt 0.913574 0.161133
vt 0.908691 0.158203
vt 0.897461 0.166016
vt 0.898926 0.126465
vt 0.905273 0.124512
vt 0.898438 0.135742
vt 0.891602 0.142090
vt 0.907227 0.140625
vt 0.909180 0.135742
vt 0.913574 0.142090
vt 0.033691 0.589355
vt 0.036621 0.583496
vt 0.031738 0.584473
vt 0.842285 0.514160
vt 0.848145 0.547363
vt 0.040039 0.568848
vt 0.034668 0.569824
vt 0.057617 0.587891
vt 0.063477 0.572754
vt 0.049805 0.589355
vt 0.053711 0.592773
vt 0.046875 0.587891
vt 0.020508 0.627930
vt 0.022461 0.627930
vt 0.019531 0.624512
vt 0.018555 0.619629
vt 0.028320 0.625488
vt 0.030762 0.620605
vt 0.026855 0.628906
vt 0.029297 0.631348
vt 0.032715 0.627441
vt 0.036133 0.622070
vt 0.041016 0.605469
vt 0.034180 0.603516
vt 0.028320 0.603027
vt 0.021973 0.603027
vt 0.016113 0.604004
vt 0.013184 0.626953
vt 0.017090 0.625000
vt 0.861816 0.082520
vt 0.873535 0.097168
vt 0.875000 0.082520
vt 0.939453 0.166992
vt 0.674316 0.157227
vt 0.896484 0.298828
vt 0.900879 0.332520
vt 0.937500 0.332520
vt 0.928711 0.295898
vt 0.646484 0.133789
vt 0.647461 0.119141
vt 0.885742 0.147461
vt 0.902832 0.131348
vt 0.729980 0.119141
vt 0.826172 0.367676
vt 0.940430 0.152344
vt 0.929199 0.150879
vt 0.737305 0.027344
vt 0.604980 0.484863
vt 0.589844 0.455078
vt 0.644043 0.481934
vt 0.915527 0.156738
vt 0.915527 0.154297
vt 0.636230 0.504883
vt 0.024902 0.627930
vt 0.016602 0.630859
vt 0.018555 0.628906
vt 0.045898 0.568359
vt 0.916504 0.154785
vt 0.916992 0.155273
vt 0.954102 0.189941
vt 0.082520 0.515625
vt 0.915527 0.075684
vt 0.954590 0.190430
vt 0.029297 0.570801
vt 0.802246 0.367676
vt 0.958008 0.434570
vt 0.923340 0.151855
vt 0.586914 0.435547
vt 0.022461 0.634766
vt 0.958008 0.367676
s 1
g Bip001 L Toe11
g park_cheshirecat_ob0_L0.left_leg_Material.001
usemtl Material.001
f 149/1/1 264/2/2 150/3/3 265/4/4
g Bip001 L Thigh
f 372/5/5 345/6/6 347/7/7 349/8/8
f 369/9/9 355/10/10 357/11/11 368/12/12
f 356/13/13 355/10/10 353/14/14 354/15/15
f 360/16/16 359/17/17 357/11/11 358/18/18
g Bip001 L Toe21
f 23/19/19 20/20/20 11/21/21 1/22/22
g Bip001 L Toe01
f 208/23/23 237/24/24 212/25/25 210/26/26
g Bip001 L Foot
f 279/27/27 74/28/28 193/29/29 278/30/30
f 189/31/31 243/32/32 242/33/33 191/34/34
g Bip001 L Toe21
f 15/35/35 20/20/20 19/36/36 17/37/37
g Bip001 L Toe11
f 35/38/38 42/39/39 36/40/40 27/41/41
g Bip001 L Calf
f 389/42/42 342/43/43 407/44/44 390/45/45
f 388/46/46 344/47/47 342/43/43 389/42/42
g Bip001 L Thigh
f 408/48/48 346/49/49 344/47/47 388/46/46
g Bip001 L Calf
f 391/50/50 405/51/51 404/52/52 392/53/53
f 392/53/53 404/52/52 311/54/54 393/55/55
f 395/56/56 309/57/57 166/58/58 396/59/59
f 393/55/55 383/60/60 385/61/61 392/53/53
f 396/59/59 378/62/62 379/63/63 395/56/56
f 386/64/64 387/65/65 385/61/61 384/66/66
g Bip001 L Thigh
f 367/67/67 359/17/17 361/68/68 366/69/69
f 382/70/70 414/71/71 413/72/72 384/66/66
f 388/46/46 386/64/64 411/73/73 408/48/48
f 415/74/74 413/72/72 414/71/71 364/75/75
g Bip001 L Toe11
f 184/76/76 251/77/77 250/78/78 249/79/79
g Bip001 L Calf
f 407/80/44 341/81/80 340/82/81 161/83/82
f 399/84/83 164/85/84 163/86/85 400/87/86
f 397/88/87 165/89/88 402/90/89 398/91/90
g Bip001 L Foot
f 95/92/91 94/93/92 92/94/93 93/95/94
g Bip001 L Calf
f 398/91/90 376/96/95 377/97/96 397/88/87
f 401/98/97 373/99/98 374/100/99 400/87/86
f 342/101/43 343/102/100 341/81/80 407/80/44
f 367/67/67 378/62/62 377/97/96 368/12/12
f 369/9/9 376/96/95 375/103/101 370/104/102
g Bip001 L Foot
f 130/105/103 60/106/104 337/107/105 285/108/106
g Bip001 L Calf
f 372/5/5 373/99/98 343/102/100 345/6/6
g Bip001 L Foot
f 273/109/107 201/110/108 271/111/109 272/112/110
g Bip001 L Toe21
f 23/19/19 2/113/111 21/114/112 22/115/113
f 11/21/21 20/20/20 15/35/35 13/116/114
f 17/37/37 18/117/115 16/118/116 15/35/35
f 15/35/35 16/118/116 14/119/117 13/116/114
f 13/116/114 12/120/118 10/121/119 11/21/21
f 11/21/21 10/121/119 9/122/120 1/22/22
f 3/123/121 8/124/122 7/125/123 5/126/124
f 5/126/124 7/125/123 6/127/125 14/128/117
f 14/128/117 16/129/116 4/130/126 5/126/124
f 5/126/124 4/130/126 2/113/111 3/123/121
f 4/130/126 24/131/127 21/114/112 2/113/111
g Bip001 L Toe01
f 216/132/128 211/133/129 213/134/130 215/135/131
g Bip001 L Toe1
f 144/136/132 145/137/133 143/138/134 142/139/135
f 144/136/132 153/140/136 262/141/137 146/142/138
g Bip001 L Toe2
f 321/143/139 80/144/140 81/145/141 323/146/142
g Bip001 L Toe1
f 146/142/138 262/141/137 152/147/143 148/148/144
g Bip001 L Calf
f 390/45/45 406/149/145 405/51/51 391/50/50
g Bip001 L Toe21
f 17/37/37 25/150/146 18/117/115
f 17/37/37 19/36/36 25/150/146
f 22/115/113 21/114/112 25/150/146
f 25/150/146 19/36/36 22/115/113
f 25/150/146 24/131/127 18/151/115
f 25/150/146 21/114/112 24/131/127
g Bip001 L Toe11
f 33/152/147 31/153/148 32/154/149
f 34/155/150 31/153/148 33/152/147
f 33/152/147 43/156/151 34/155/150
f 44/157/152 43/156/151 33/152/147
f 50/158/153 33/152/147 32/159/149
f 50/158/153 44/157/152 33/152/147
g Bip001 L Calf
f 380/160/154 381/161/155 379/63/63 366/69/69
g Bip001 L Toe01
f 209/162/156 306/163/157 305/164/158 268/165/159
g Bip001 L Foot
f 340/166/81 106/167/160 160/168/161 161/169/82
g Bip001 L Calf
f 341/81/80 343/102/100 373/99/98 401/98/97
g Bip001 L Foot
f 314/170/162 316/171/163 126/172/164 315/173/165
g Bip001 L Thigh
f 411/73/73 412/174/166 410/175/167 408/48/48
g Bip001 L Toe21
f 61/176/168 84/177/169 83/178/170 78/179/171
g Bip001 L Foot
f 157/180/172 299/181/173 300/182/174 156/183/175
g Bip001 L Toe01
f 426/184/176 440/185/177 438/186/178 431/187/179
g Bip001 L Calf
f 394/188/180 381/161/155 383/60/60 393/55/55
f 401/98/97 162/189/181 340/82/81 341/81/80
f 371/190/182 374/100/99 373/99/98 372/5/5
g Bip001 L Thigh
f 362/191/183 361/68/68 359/17/17 360/16/16
g Bip001 L Toe21
f 65/192/184 66/193/185 64/194/186 63/195/187
g Bip001 L Thigh
f 346/196/49 347/7/7 345/6/6 344/197/47
g Bip001 L Foot
f 280/198/188 290/199/189 281/200/190 73/201/191
g Bip001 L Toe1
f 188/202/192 179/203/193 180/204/194 187/205/195
g Bip001 L Foot
f 141/206/196 154/207/197 167/208/198 142/139/135
g Bip001 L Toe01
f 418/209/199 417/210/200 416/211/201 434/212/202
g Bip001 L Foot
f 278/30/30 193/29/29 194/213/203 277/214/204
f 282/215/205 90/216/206 72/217/207 281/200/190
f 403/218/208 295/219/209 296/220/210 309/221/57
g Bip001 L Toe1
f 178/222/211 179/203/193 173/223/212 174/224/213
g Bip001 L Calf
f 388/46/46 389/42/42 387/65/65 386/64/64
g Bip001 L Thigh
f 415/74/74 412/174/166 411/73/73 413/72/72
g Bip001 L Toe1
f 256/225/214 243/32/32 244/226/215 255/227/216
g Bip001 L Foot
f 107/228/217 102/229/218 105/230/219 106/167/160
g Bip001 L Toe2
f 67/231/220 68/232/221 66/193/185 65/192/184
g Bip001 L Toe11
f 177/233/222 266/234/223 265/235/4 183/236/224
f 148/148/144 152/147/143 263/237/225 149/1/1
g Bip001 L Toe0
f 223/238/226 229/239/227 228/240/228 222/241/229
g Bip001 L Foot
f 279/27/27 292/242/230 291/243/231 280/198/188
f 281/200/190 72/217/207 71/244/232 73/201/191
f 140/245/233 131/246/234 132/247/235 139/248/236
f 133/249/237 134/250/238 135/251/239 136/252/240
f 138/253/241 156/183/175 139/248/236 136/252/240
f 138/253/241 136/252/240 135/251/239 117/254/242
f 129/255/243 131/246/234 267/256/244 130/105/103
f 142/139/135 143/138/134 267/256/244 141/206/196
g Bip001 L Toe1
f 146/142/138 147/257/245 145/137/133 144/136/132
f 148/148/144 266/258/223 147/257/245 146/142/138
g Bip001 L Toe11
f 149/1/1 265/4/4 266/258/223 148/148/144
g Bip001 L Toe1
f 142/139/135 167/208/198 153/140/136 144/136/132
g Bip001 L Foot
f 140/245/233 155/259/246 154/207/197 141/206/196
f 139/248/236 156/183/175 155/259/246 140/245/233
f 137/260/247 157/180/172 156/183/175 138/253/241
g Bip001 L Toe21
f 63/195/187 77/261/248 76/262/249 65/192/184
g Bip001 L Foot
f 115/263/250 93/95/94 91/264/251 137/260/247
g Bip001 L Toe21
f 64/194/186 86/265/252 85/266/253 62/267/254
f 328/268/255 84/177/169 85/266/253 331/269/256
f 324/270/257 82/271/258 83/178/170 327/272/259
f 323/146/142 81/145/141 82/271/258 324/270/257
g Bip001 L Foot
f 54/273/260 338/274/261 79/275/262 319/276/263
f 276/277/264 196/278/265 198/279/266 275/280/267
f 273/109/107 298/281/268 274/282/269 199/283/270
f 271/111/109 302/284/271 301/285/272 272/112/110
f 272/112/110 301/285/272 300/182/174 299/181/173
g Bip001 L Toe21
f 329/286/273 57/287/274 325/288/275 326/289/276
g Bip001 L Toe2
f 322/290/277 56/291/278 55/292/279 320/293/280
f 60/106/104 318/294/281 320/293/280 55/292/279
g Bip001 L Toe21
f 332/295/282 57/287/274 329/286/273 330/296/283
f 58/297/284 56/291/278 57/287/274 332/295/282
g Bip001 L Toe2
f 59/298/285 55/292/279 56/291/278 58/297/284
g Bip001 L Calf
f 398/91/90 402/90/89 164/85/84 399/84/83
g Bip001 L Foot
f 130/105/103 285/108/106 286/299/286 129/255/243
f 129/255/243 286/299/286 287/300/287 128/301/288
f 128/301/288 287/300/287 315/302/165 127/303/289
f 127/303/289 315/302/165 126/304/164 125/305/290
f 124/306/291 123/307/292 122/308/293 121/309/294
f 121/309/294 122/308/293 158/310/295 120/311/296
f 120/311/296 158/310/295 119/312/297 118/313/298
f 138/253/241 117/254/242 115/263/250 137/260/247
f 137/260/247 91/264/251 114/314/299 157/180/172
f 114/314/299 298/281/268 299/181/173 157/180/172
f 155/259/246 300/182/174 301/285/272 154/207/197
f 111/315/300 94/93/92 96/316/301 110/317/302
f 108/318/303 100/319/304 102/229/218 107/228/217
f 105/230/219 102/229/218 103/320/305 104/321/306
f 282/215/205 289/322/307 288/323/308 284/324/309
f 158/325/295 99/326/310 97/327/311 119/328/297
f 159/329/312 104/321/306 103/320/305 123/330/292
f 316/331/163 104/321/306 159/329/312 126/332/164
f 317/333/313 105/230/219 104/321/306 316/331/163
f 160/168/161 106/167/160 105/230/219 317/333/313
f 162/334/181 107/228/217 106/167/160 340/166/81
f 164/335/84 109/336/314 108/318/303 163/337/85
f 402/338/89 110/317/302 109/336/314 164/335/84
f 165/339/88 111/315/300 110/317/302 402/338/89
f 165/339/88 166/340/58 112/341/315 111/315/300
f 309/221/57 296/220/210 112/341/315 166/340/58
f 310/342/316 294/343/317 295/219/209 403/218/208
f 311/344/54 293/345/318 294/343/317 310/342/316
f 277/214/204 294/343/317 293/345/318 278/30/30
f 277/214/204 194/213/203 196/278/265 276/277/264
f 197/346/319 198/279/266 196/278/265 195/347/320
f 197/346/319 239/348/321 200/349/322 199/283/270
g Bip001 L Toe0
f 203/350/323 202/351/324 201/110/108 200/349/322
f 271/111/109 201/110/108 202/351/324 270/352/325
g Bip001 L Toe01
f 269/353/326 204/354/327 206/355/328 268/165/159
f 268/165/159 305/164/158 304/356/329 269/353/326
f 218/357/330 304/356/329 305/164/158 308/358/331
f 308/358/331 305/164/158 306/163/157 307/359/332
f 207/360/333 206/355/328 204/354/327 205/361/334
g Bip001 L Toe0
f 200/349/322 239/348/321 238/362/335 203/350/323
g Bip001 L Foot
f 278/30/30 293/345/318 292/242/230 279/27/27
g Bip001 L Toe21
f 331/269/256 330/363/283 329/364/273 328/268/255
g Bip001 L Foot
f 405/365/51 291/243/231 292/242/230 404/366/52
g Bip001 L Toe11
f 40/367/336 46/368/337 45/369/338 41/370/339
g Bip001 L Foot
f 313/371/340 317/372/313 316/171/163 314/170/162
f 284/324/309 288/323/308 287/373/287 286/374/286
f 286/374/286 285/375/106 283/376/341 284/324/309
f 283/376/341 285/375/106 337/377/105 336/378/342
g Bip001 L Toe2
f 336/378/342 337/377/105 59/379/285 335/380/343
g Bip001 L Toe21
f 334/381/344 58/382/284 332/383/282 333/384/345
f 328/268/255 329/364/273 326/385/276 327/272/259
f 324/270/257 325/386/275 322/387/277 323/146/142
g Bip001 L Toe2
f 323/146/142 322/387/277 320/388/280 321/143/139
g Bip001 L Toe1
f 54/273/260 143/389/134 145/390/133 169/391/346
f 170/392/347 145/390/133 147/393/245 175/394/348
f 175/394/348 147/393/245 266/234/223 177/233/222
f 178/222/211 175/394/348 177/233/222 176/395/349
f 189/31/31 173/223/212 179/203/193 188/202/192
g Bip001 L Foot
f 171/396/350 338/274/261 54/273/260 169/391/346
f 171/396/350 190/397/351 172/398/352 338/274/261
g Bip001 L Toe21
f 18/151/115 24/131/127 4/130/126 16/129/116
g Bip001 L Foot
f 192/399/353 172/398/352 190/397/351 191/34/34
f 69/400/354 75/401/355 172/398/352 71/244/232
f 67/231/220 339/402/356 75/401/355 69/400/354
f 113/403/357 297/404/358 114/314/299 91/264/251
g Bip001 L Toe21
f 66/193/185 87/405/359 86/265/252 64/194/186
g Bip001 L Toe2
f 334/381/344 87/405/359 88/406/360 335/380/343
f 335/380/343 88/406/360 89/407/361 336/378/342
g Bip001 L Foot
f 281/200/190 290/199/189 289/322/307 282/215/205
f 70/408/362 89/407/361 88/406/360 68/232/221
f 71/244/232 72/217/207 70/408/362 69/400/354
g Bip001 L Toe0
f 203/350/323 238/362/335 233/409/363 205/361/334
g Bip001 L Toe01
f 210/26/26 306/410/157 209/162/156 208/23/23
f 210/26/26 211/133/129 307/411/332 306/410/157
f 212/25/25 213/134/130 211/133/129 210/26/26
f 212/25/25 235/412/364 214/413/365 213/134/130
f 217/414/366 218/415/330 308/416/331 216/132/128
g Bip001 L Toe0
f 221/417/367 51/418/368 220/419/369 219/420/370
g Bip001 L Toe11
f 259/421/371 254/422/372 253/423/373 258/424/374
f 257/425/375 252/426/376 249/79/79 250/78/78
f 183/236/224 251/77/77 184/76/76 182/427/377
f 185/428/378 181/429/379 182/427/377 184/76/76
f 253/423/373 246/430/380 247/431/381 252/426/376
f 176/395/349 182/427/377 181/429/379 180/204/194
f 187/205/195 180/204/194 181/429/379 186/432/382
g Bip001 L Toe1
f 255/227/216 244/226/215 245/433/383 254/422/372
f 261/434/384 256/225/214 255/227/216 260/435/385
f 260/435/385 262/436/137 153/437/136 261/434/384
g Bip001 L Toe11
f 251/77/77 150/438/3 264/439/2 250/78/78
f 183/236/224 265/235/4 150/438/3 251/77/77
f 35/38/38 30/440/386 31/153/148 34/155/150
g Bip001 L Toe1
f 176/395/349 180/204/194 179/203/193 178/222/211
f 187/205/195 245/433/383 244/226/215 188/202/192
g Bip001 L Foot
f 242/33/33 168/441/387 226/442/388 227/443/389
g Bip001 L Toe01
f 207/360/333 232/444/390 234/445/391 237/24/24
g Bip001 L Toe0
f 230/446/392 241/447/393 229/239/227 225/448/394
f 205/361/334 204/354/327 202/351/324 203/350/323
g Bip001 L Toe01
f 215/135/131 236/449/395 225/448/394 224/450/396
g Bip001 L Toe0
f 219/420/370 223/238/226 222/241/229 221/417/367
f 225/448/394 229/239/227 223/238/226 224/450/396
g Bip001 L Toe11
f 49/451/397 30/440/386 26/452/398 48/453/399
g Bip001 L Thigh
f 364/75/75 414/71/71 365/454/400 363/455/401
g Bip001 L Toe11
f 29/456/402 28/457/403 26/452/398 27/41/41
g Bip001 L Calf
f 384/66/66 385/61/61 383/60/60 382/70/70
g Bip001 L Toe11
f 40/367/336 48/458/399 47/459/404 46/368/337
f 38/460/405 49/461/397 48/458/399 40/367/336
f 38/460/405 39/462/406 44/157/152 50/158/153
f 41/370/339 39/462/406 38/460/405 40/367/336
f 36/40/40 42/39/39 39/462/406 41/370/339
f 39/462/406 42/39/39 43/156/151 44/157/152
f 34/155/150 43/156/151 42/39/39 35/38/38
g Bip001 L Toe01
f 428/463/407 439/464/408 440/185/177 427/465/409
f 427/465/409 440/185/177 426/184/176 424/466/410
f 431/187/179 438/186/178 435/467/411 433/468/412
f 436/469/413 421/470/414 419/471/415 435/467/411
f 435/467/411 419/471/415 418/472/199 433/468/412
f 433/468/412 418/472/199 434/473/202 432/474/416
f 433/468/412 432/474/416 430/475/417 431/187/179
f 431/187/179 430/475/417 429/476/418 426/184/176
f 426/184/176 429/476/418 425/477/419 424/466/410
f 424/466/410 425/477/419 416/211/201 417/210/200
f 419/478/415 423/479/420 417/210/200 418/209/199
g Bip001 L Foot
f 127/303/289 133/249/237 132/247/235 128/301/288
g Bip001 L Toe01
f 423/479/420 427/465/409 424/466/410 417/210/200
g Bip001 L Foot
f 163/337/85 108/318/303 107/228/217 162/334/181
g Bip001 L Toe0
f 51/480/368 302/284/271 303/481/421 220/482/369
g Bip001 L Toe11
f 184/76/76 249/79/79 248/483/422 185/428/378
g Bip001 L Foot
f 110/317/302 96/316/301 98/484/423 109/336/314
f 406/485/145 161/486/82 160/487/161 312/488/424
f 276/277/264 295/219/209 294/343/317 277/214/204
g Bip001 L Toe2
f 76/262/249 81/145/141 80/144/140 339/402/356
f 335/380/343 59/379/285 58/382/284 334/381/344
g Bip001 L Foot
f 171/396/350 174/224/213 173/223/212 190/397/351
g Bip001 L Toe21
f 22/115/113 19/36/36 20/20/20 23/19/19
g Bip001 L Foot
f 123/330/292 103/320/305 101/489/425 122/490/293
g Bip001 L Toe0
f 270/352/325 202/351/324 204/354/327 269/353/326
g Bip001 L Foot
f 139/248/236 132/247/235 133/249/237 136/252/240
f 338/274/261 172/398/352 75/401/355 79/275/262
g Bip001 L Toe0
f 239/348/321 240/491/426 241/447/393 238/362/335
g Bip001 L Thigh
f 370/104/102 353/14/14 355/10/10 369/9/9
g Bip001 L Foot
f 274/282/269 297/404/358 275/280/267 198/279/266
f 312/488/424 291/243/231 405/365/51 406/485/145
g Bip001 L Toe11
f 185/428/378 248/483/422 186/432/382 181/429/379
g Bip001 L Toe01
f 232/444/390 233/409/363 230/446/392 231/492/427
g Bip001 L Foot
f 404/366/52 292/242/230 293/345/318 311/344/54
g Bip001 L Toe01
f 207/360/333 237/24/24 208/23/23 206/355/328
g Bip001 L Foot
f 116/493/428 95/92/91 93/95/94 115/263/250
g Bip001 L Calf
f 344/197/47 345/6/6 343/102/100 342/101/43
g Bip001 L Foot
f 195/347/320 240/491/426 239/348/321 197/346/319
g Bip001 L Calf
f 393/55/55 311/54/54 310/494/316 394/188/180
g Bip001 L Foot
f 118/313/298 116/493/428 115/263/250 117/254/242
g Bip001 L Toe11
f 257/425/375 151/495/429 263/496/225 258/424/374
g Bip001 L Foot
f 71/244/232 172/398/352 74/28/28 73/201/191
f 112/341/315 296/220/210 113/403/357 92/94/93
g Bip001 L Toe21
f 61/176/168 78/179/171 77/261/248 63/195/187
g Bip001 L Toe01
f 205/361/334 233/409/363 232/444/390 207/360/333
g Bip001 L Foot
f 125/305/290 126/304/164 159/497/312 124/306/291
f 256/225/214 168/441/387 242/33/33 243/32/32
f 130/105/103 267/256/244 318/294/281 60/106/104
g Bip001 L Calf
f 382/70/70 383/60/60 381/161/155 380/160/154
g Bip001 L Toe21
f 331/269/256 85/266/253 86/265/252 333/384/345
g Bip001 L Foot
f 101/489/425 100/319/304 98/484/423 99/326/310
g Bip001 L Thigh
f 350/498/430 349/8/8 347/7/7 348/499/431
g Bip001 L Toe1
f 260/435/385 255/227/216 254/422/372 259/421/371
g Bip001 L Foot
f 113/403/357 296/220/210 275/280/267 297/404/358
g Bip001 L Calf
f 395/56/56 379/63/63 381/161/155 394/188/180
g Bip001 L Toe2
f 68/232/221 88/406/360 87/405/359 66/193/185
g Bip001 L Foot
f 109/336/314 98/484/423 100/319/304 108/318/303
g Bip001 L Toe01
f 232/444/390 231/492/427 235/412/364 234/445/391
g Bip001 L Thigh
f 372/5/5 349/8/8 351/500/432 371/190/182
g Bip001 L Toe0
f 219/420/370 220/419/369 218/415/330 217/414/366
g Bip001 L Foot
f 69/400/354 70/408/362 68/232/221 67/231/220
g Bip001 L Toe11
f 258/424/374 253/423/373 252/426/376 257/425/375
g Bip001 L Thigh
f 365/454/400 380/160/154 366/69/69 361/68/68
g Bip001 L Foot
f 226/442/388 168/441/387 52/501/433 53/502/434
f 72/217/207 90/216/206 89/407/361 70/408/362
f 97/327/311 96/316/301 94/93/92 95/92/91
g Bip001 L Toe01
f 214/413/365 235/412/364 231/492/427 236/449/395
g Bip001 L Foot
f 119/328/297 97/327/311 95/92/91 116/493/428
g Bip001 L Toe01
f 225/448/394 236/449/395 231/492/427 230/446/392
g Bip001 L Toe11
f 186/432/382 246/430/380 245/433/383 187/205/195
g Bip001 L Toe21
f 77/261/248 82/271/258 81/145/141 76/262/249
g Bip001 L Toe0
f 229/239/227 241/447/393 240/491/426 228/240/228
g Bip001 L Toe11
f 254/422/372 245/433/383 246/430/380 253/423/373
g Bip001 L Foot
f 141/206/196 267/256/244 131/246/234 140/245/233
g Bip001 L Thigh
f 386/64/64 384/66/66 413/72/72 411/73/73
g Bip001 L Foot
f 112/341/315 92/94/93 94/93/92 111/315/300
g Bip001 L Thigh
f 358/18/18 357/11/11 355/10/10 356/13/13
f 354/15/15 353/14/14 351/500/432 352/503/435
g Bip001 L Foot
f 273/109/107 199/283/270 200/349/322 201/110/108
f 227/443/389 194/213/203 193/29/29 192/399/353
g Bip001 L Calf
f 400/87/86 163/86/85 162/189/181 401/98/97
g Bip001 L Foot
f 117/254/242 135/251/239 120/311/296 118/313/298
g Bip001 L Toe21
f 327/272/259 83/178/170 84/177/169 328/268/255
g Bip001 L Thigh
f 368/12/12 357/11/11 359/17/17 367/67/67
g Bip001 L Foot
f 336/378/342 89/407/361 90/216/206 283/376/341
f 114/314/299 297/404/358 274/282/269 298/281/268
g Bip001 L Toe21
f 23/19/19 1/22/22 3/123/121 2/113/111
g Bip001 L Toe01
f 435/467/411 438/186/178 437/504/436 436/469/413
g Bip001 L Toe11
f 183/236/224 182/427/377 176/395/349 177/233/222
g Bip001 L Foot
f 99/326/310 98/484/423 96/316/301 97/327/311
g Bip001 L Toe01
f 421/505/414 420/506/437 423/479/420 419/478/415
g Bip001 L Toe11
f 250/78/78 264/439/2 151/495/429 257/425/375
g Bip001 L Foot
f 272/112/110 299/181/173 298/281/268 273/109/107
g Bip001 L Toe21
f 1/22/22 9/122/120 8/124/122 3/123/121
g Bip001 L Foot
f 120/311/296 135/251/239 134/250/238 121/309/294
g Bip001 L Toe0
f 270/352/325 303/481/421 302/284/271 271/111/109
g Bip001 L Toe11
f 37/507/438 29/456/402 27/41/41 36/40/40
g Bip001 L Foot
f 103/320/305 102/229/218 100/319/304 101/489/425
g Bip001 L Toe21
f 333/384/345 332/383/282 330/363/283 331/269/256
g Bip001 L Foot
f 170/392/347 174/224/213 171/396/350 169/391/346
g Bip001 L Calf
f 392/53/53 385/61/61 387/65/65 391/50/50
g Bip001 L Toe0
f 269/353/326 304/356/329 303/481/421 270/352/325
g Bip001 L Foot
f 192/399/353 193/29/29 74/28/28 172/398/352
f 51/418/368 53/502/434 154/508/197
g Bip001 L Toe1
f 52/501/433 153/437/136 167/509/198
g Bip001 L Foot
f 53/502/434 167/509/198 154/508/197
f 319/276/263 267/510/244 54/273/260
g Bip001 L Toe2
f 339/402/356 80/144/140 79/275/262
g Bip001 L Foot
f 118/313/298 119/312/297 116/493/428
g Bip001 L Toe21
f 327/272/259 326/385/276 325/386/275 324/270/257
g Bip001 L Foot
f 124/306/291 159/497/312 123/307/292
g Bip001 L Toe21
f 13/116/114 14/119/117 6/511/125 12/120/118
g Bip001 L Toe11
f 149/1/1 151/512/429 264/2/2
f 149/1/1 263/237/225 151/512/429
g Bip001 L Toe21
f 333/384/345 86/265/252 87/405/359 334/381/344
g Bip001 L Toe1
f 53/502/434 52/501/433 167/509/198
g Bip001 L Foot
f 191/34/34 190/397/351 173/223/212 189/31/31
g Bip001 L Calf
f 397/88/87 377/97/96 378/62/62 396/59/59
g Bip001 L Toe21
f 78/179/171 83/178/170 82/271/258 77/261/248
g Bip001 L Toe01
f 208/23/23 209/162/156 206/355/328
f 215/135/131 213/134/130 214/413/365
f 216/132/128 307/411/332 211/133/129
f 216/132/128 308/416/331 307/411/332
g Bip001 L Calf
f 366/69/69 379/63/63 378/62/62 367/67/67
g Bip001 L Foot
f 221/417/367 53/502/434 51/418/368
f 222/241/229 53/502/434 221/417/367
f 222/241/229 226/442/388 53/502/434
f 222/241/229 227/443/389 226/442/388
f 222/241/229 228/240/228 227/443/389
g Bip001 L Toe01
f 214/413/365 236/449/395 215/135/131
f 215/135/131 224/450/396 217/414/366 216/132/128
g Bip001 L Toe11
f 186/432/382 247/431/381 246/430/380
f 186/432/382 248/483/422 247/431/381
g Bip001 L Toe1
f 261/434/384 153/437/136 52/501/433
f 169/391/346 145/390/133 170/392/347
g Bip001 L Foot
f 54/273/260 267/510/244 143/389/134
g Bip001 L Toe01
f 268/165/159 206/355/328 209/162/156
g Bip001 L Foot
f 280/198/188 291/243/231 290/199/189
f 275/280/267 295/219/209 276/277/264
f 275/280/267 296/220/210 295/219/209
f 156/183/175 300/182/174 155/259/246
f 312/488/424 290/199/189 291/243/231
f 319/276/263 318/513/281 267/510/244
f 319/276/263 320/388/280 318/513/281
g Bip001 L Toe2
f 321/143/139 320/388/280 319/276/263
g Bip001 L Toe11
f 48/453/399 26/452/398 28/457/403 47/514/404
g Bip001 L Foot
f 79/275/262 75/401/355 339/402/356
g Bip001 L Thigh
f 348/499/431 347/7/7 346/196/49
g Bip001 L Toe21
f 325/288/275 57/287/274 56/291/278 322/290/277
g Bip001 L Calf
f 399/84/83 375/103/101 376/96/95 398/91/90
g Bip001 L Foot
f 125/305/290 134/250/238 133/249/237 127/303/289
g Bip001 L Toe01
f 237/24/24 234/445/391 235/412/364 212/25/25
g Bip001 L Calf
f 395/56/56 403/515/208 309/57/57
g Bip001 L Thigh
f 408/48/48 409/516/439 346/49/49
f 408/48/48 410/175/167 409/516/439
g Bip001 L Toe11
f 32/154/149 31/153/148 30/440/386 49/451/397
g Bip001 L Calf
f 391/50/50 387/65/65 389/42/42 390/45/45
g Bip001 L Toe0
f 217/414/366 224/450/396 223/238/226 219/420/370
g Bip001 L Foot
f 261/434/384 52/501/433 168/441/387 256/225/214
g Bip001 L Toe1
f 259/421/371 152/517/143 262/436/137 260/435/385
g Bip001 L Toe2
f 319/276/263 79/275/262 80/144/140 321/143/139
g Bip001 L Toe11
f 258/424/374 263/496/225 152/517/143 259/421/371
g Bip001 L Toe01
f 420/506/437 428/463/407 427/465/409 423/479/420
g Bip001 L Thigh
f 409/518/439 348/499/431 346/196/49
f 365/454/400 361/68/68 362/191/183 363/455/401
g Bip001 L Toe01
f 421/505/414 422/519/440 420/506/437
f 420/506/437 422/519/440 428/463/407
g Bip001 L Foot
f 154/207/197 301/285/272 302/284/271 51/480/368
g Bip001 L Toe01
f 436/469/413 422/519/440 421/470/414
f 436/469/413 437/504/436 422/519/440
f 437/504/436 439/464/408 422/519/440
f 428/463/407 422/519/440 439/464/408
g Bip001 L Foot
f 228/240/228 240/491/426 195/347/320 227/443/389
f 284/324/309 283/376/341 90/216/206 282/215/205
g Bip001 L Thigh
f 371/190/182 351/500/432 353/14/14 370/104/102
g Bip001 L Toe21
f 63/195/187 64/194/186 62/267/254 61/176/168
g Bip001 L Foot
f 122/490/293 101/489/425 99/326/310 158/325/295
f 113/403/357 91/264/251 93/95/94 92/94/93
g Bip001 L Toe11
f 35/38/38 27/41/41 26/452/398 30/440/386
g Bip001 L Thigh
f 352/503/435 351/500/432 349/8/8 350/498/430
g Bip001 L Toe0
f 238/362/335 241/447/393 230/446/392 233/409/363
g Bip001 L Calf
f 390/45/45 407/44/44 161/520/82 406/149/145
g Bip001 L Thigh
f 380/160/154 365/454/400 414/71/71 382/70/70
g Bip001 L Toe1
f 178/222/211 174/224/213 170/392/347 175/394/348
g Bip001 L Foot
f 274/282/269 198/279/266 197/346/319 199/283/270
g Bip001 L Toe11
f 50/158/153 32/159/149 49/461/397 38/460/405
f 41/370/339 45/369/338 37/507/438 36/40/40
g Bip001 L Toe2
f 65/192/184 76/262/249 339/402/356 67/231/220
g Bip001 L Toe21
f 62/267/254 85/266/253 84/177/169 61/176/168
g Bip001 L Toe01
f 438/186/178 440/185/177 439/464/408 437/504/436
g Bip001 L Toe1
f 188/202/192 244/226/215 243/32/32 189/31/31
g Bip001 L Toe2
f 60/106/104 55/292/279 59/298/285 337/107/105
g Bip001 L Foot
f 313/371/340 289/322/307 290/199/189 312/488/424
f 315/173/165 287/373/287 288/323/308 314/170/162
f 280/198/188 73/201/191 74/28/28 279/27/27
g Bip001 L Calf
f 400/87/86 374/100/99 375/103/101 399/84/83
g Bip001 L Foot
f 312/488/424 160/487/161 317/372/313 313/371/340
g Bip001 L Toe11
f 252/426/376 247/431/381 248/483/422 249/79/79
g Bip001 L Calf
f 370/104/102 375/103/101 374/100/99 371/190/182
g Bip001 L Foot
f 314/170/162 288/323/308 289/322/307 313/371/340
g Bip001 L Calf
f 396/59/59 166/58/58 165/89/88 397/88/87
g Bip001 L Foot
f 195/347/320 196/278/265 194/213/203 227/443/389
g Bip001 L Calf
f 368/12/12 377/97/96 376/96/95 369/9/9
g Bip001 L Toe0
f 220/482/369 303/481/421 304/356/329 218/357/330
g Bip001 L Foot
f 121/309/294 134/250/238 125/305/290 124/306/291
g Bip001 L Calf
f 394/188/180 310/494/316 403/515/208 395/56/56
g Bip001 L Foot
f 128/301/288 132/247/235 131/246/234 129/255/243
f 191/34/34 242/33/33 227/443/389 192/399/353
g Bip001 Pelvis
f 354/15/15 352/503/435 350/498/430 348/499/431 409/518/439 410/175/167 412/174/166 415/74/74 364/75/75 363/455/401 362/191/183 360/16/16 358/18/18 356/13/13
