# Blender 5.1.1
# www.blender.org
mtllib right_arm.mtl
g park_cheshirecat_ob0_L0.right_arm_park_cheshirecat_model0.002
v -0.028348 -0.019492 0.126345
v 0.032077 0.097695 0.043894
v -0.042874 -0.071250 0.107180
v -0.050931 -0.094687 0.037154
v -0.048855 -0.091269 -0.017393
v -0.011258 -0.068320 -0.082151
v 0.006931 -0.021445 -0.108213
v 0.019382 0.021524 -0.105772
v 0.039768 0.078652 -0.062681
v -0.443265 -0.043906 0.053126
v -0.434476 -0.046348 0.054171
v -0.442288 -0.046836 0.055529
v -0.433011 -0.045371 0.058718
v -0.441800 -0.045859 0.059466
v -0.432522 -0.041465 0.060732
v -0.441800 -0.042441 0.060885
v -0.442776 -0.040000 0.058474
v -0.434476 -0.038047 0.057558
v -0.435940 -0.039023 0.053133
v -0.443753 -0.040488 0.054690
v -0.436429 -0.042930 0.051432
v -0.447659 -0.042441 0.055041
v -0.453030 -0.045371 0.053583
v -0.448147 -0.041953 0.057833
v -0.447659 -0.043906 0.059725
v -0.447171 -0.046348 0.058779
v -0.447171 -0.046836 0.055788
v -0.447171 -0.044883 0.053828
v -0.478909 -0.025840 -0.062742
v -0.485745 -0.027305 -0.062742
v -0.485257 -0.029258 -0.059812
v -0.489163 -0.029746 -0.061643
v -0.488186 -0.030234 -0.059995
v -0.490628 -0.028769 -0.061521
v -0.487210 -0.024863 -0.062193
v -0.480374 -0.022422 -0.062071
v -0.488186 -0.023887 -0.058897
v -0.480862 -0.020957 -0.058286
v -0.487698 -0.025840 -0.056028
v -0.491116 -0.028281 -0.059507
v -0.490628 -0.029258 -0.057981
v -0.486233 -0.028281 -0.056638
v -0.489163 -0.030234 -0.058103
v -0.491604 -0.034141 -0.060545
v -0.478909 -0.027793 -0.059446
v -0.479886 -0.026816 -0.055601
v -0.480862 -0.023398 -0.054868
v -0.485257 -0.024863 0.020159
v -0.493069 -0.026816 0.020220
v -0.485745 -0.023398 0.023791
v -0.487210 -0.019980 0.023821
v -0.495511 -0.023398 0.023287
v -0.488186 -0.018027 0.020205
v -0.496487 -0.022422 0.020281
v -0.487698 -0.019980 0.016573
v -0.493558 -0.025840 0.023257
v -0.496487 -0.027793 0.022585
v -0.497952 -0.026328 0.022601
v -0.498929 -0.025840 0.020312
v -0.498440 -0.026328 0.018008
v -0.499417 -0.031699 0.020098
v -0.494534 -0.025840 0.017336
v -0.495999 -0.023398 0.017351
v -0.486233 -0.023398 0.016543
v -0.496976 -0.027793 0.017992
v -0.495999 -0.028281 0.020281
v -0.492581 -0.020469 -0.023863
v -0.499905 -0.022422 -0.023863
v -0.499417 -0.024375 -0.020933
v -0.502835 -0.024863 -0.022764
v -0.505276 -0.029258 -0.021635
v -0.504300 -0.023887 -0.022642
v -0.501370 -0.019980 -0.023344
v -0.494046 -0.017539 -0.023191
v -0.501858 -0.019004 -0.020048
v -0.494534 -0.016074 -0.019407
v -0.501858 -0.020957 -0.017118
v -0.504788 -0.023398 -0.020628
v -0.504300 -0.024375 -0.019102
v -0.499905 -0.023398 -0.017759
v -0.502835 -0.025351 -0.019224
v -0.502347 -0.025351 -0.021116
v -0.492581 -0.022910 -0.020536
v -0.493558 -0.021933 -0.016721
v -0.494534 -0.018516 -0.015958
v -0.440335 -0.034141 -0.032163
v -0.440823 -0.014609 -0.036008
v -0.447659 -0.033652 -0.031980
v -0.447659 -0.013633 -0.035154
v -0.453030 -0.032187 -0.032652
v -0.453519 -0.013633 -0.035825
v -0.459378 -0.033164 -0.033445
v -0.460843 -0.014121 -0.037290
v -0.471585 -0.035605 -0.035032
v -0.487210 -0.029258 -0.033445
v -0.494534 -0.023887 -0.024900
v -0.494534 -0.015586 -0.026182
v -0.495511 -0.024863 -0.017515
v -0.494046 -0.023887 -0.009336
v -0.487210 -0.029258 -0.003019
v -0.474026 -0.032676 -0.001310
v -0.459866 -0.031211 -0.003446
v -0.453519 -0.028769 -0.003996
v -0.447659 -0.028281 -0.004209
v -0.447171 -0.010215 -0.000394
v -0.439847 -0.027793 -0.004057
v -0.439847 -0.009238 0.000124
v -0.452054 -0.037070 -0.018095
v -0.458401 -0.039512 -0.018797
v -0.446683 -0.036582 -0.017728
v -0.439847 -0.036582 -0.017301
v -0.429104 -0.039512 -0.017271
v -0.433499 -0.038047 -0.035093
v -0.409085 -0.045371 -0.035032
v -0.407620 -0.042930 -0.019804
v -0.410061 -0.040976 -0.002500
v -0.410550 -0.035117 0.015169
v -0.472561 -0.041953 -0.019498
v -0.487210 -0.035605 -0.018461
v -0.440823 -0.016074 -0.037962
v -0.437894 0.001504 -0.044492
v -0.439358 -0.015098 -0.037107
v -0.433011 0.009317 -0.040708
v -0.424710 0.003945 -0.059812
v -0.409573 0.014688 -0.042844
v -0.407620 0.008828 -0.060178
v -0.389065 0.018594 -0.042844
v -0.384671 0.010293 -0.061216
v -0.370022 0.019082 -0.043333
v -0.364163 0.008340 -0.062254
v -0.353421 0.022988 -0.043943
v -0.348050 0.008340 -0.060789
v -0.331936 0.029336 -0.046323
v -0.327054 0.009317 -0.062803
v -0.313870 0.032266 -0.047849
v -0.310452 0.009805 -0.065977
v -0.283352 0.037637 -0.050840
v -0.280667 0.012246 -0.071165
v -0.242093 0.045449 -0.054441
v -0.238186 0.016641 -0.077390
v -0.202542 0.051309 -0.057066
v -0.198880 0.019570 -0.082578
v -0.175442 0.054238 -0.058286
v -0.171536 0.021524 -0.084531
v -0.146878 0.057168 -0.059690
v -0.143460 0.023477 -0.086729
v -0.103665 0.061563 -0.060911
v -0.098782 0.026406 -0.088438
v -0.056668 0.065957 -0.062986
v -0.050931 0.029336 -0.090391
v -0.027615 0.068399 -0.064390
v -0.026272 0.032266 -0.093198
v -0.002469 0.034707 -0.095274
v -0.016141 -0.020957 -0.101743
v 0.034030 0.062051 -0.083921
v 0.017551 0.075723 -0.062559
v 0.032810 0.098672 -0.012540
v 0.003147 0.096719 -0.013090
v -0.001370 0.095254 0.042103
v 0.011814 0.073770 0.087283
v -0.030667 0.064981 0.087221
v -0.009549 0.035195 0.117678
v -0.035916 0.029336 0.108340
v -0.045315 -0.018027 0.115908
v -0.053860 -0.067832 0.100832
v -0.054227 -0.090781 0.037117
v -0.403714 -0.007773 0.039126
v -0.410061 -0.021445 0.029513
v -0.407620 -0.017539 0.042151
v -0.413479 -0.022910 0.030741
v -0.413479 -0.019004 0.044756
v -0.419827 -0.025351 0.032030
v -0.426175 -0.025840 0.034460
v -0.435940 -0.027305 0.040442
v -0.440823 -0.031211 0.047495
v -0.442776 -0.039512 0.046751
v -0.439358 -0.038535 0.033778
v -0.428616 -0.036094 0.025393
v -0.420804 -0.034629 0.023608
v -0.414944 -0.032187 0.022356
v -0.412015 -0.033652 0.019411
v -0.438382 -0.040488 0.058611
v -0.440823 -0.049277 0.047343
v -0.424222 -0.060996 0.051813
v -0.433987 -0.057090 0.036217
v -0.412503 -0.061973 0.044634
v -0.422757 -0.052207 0.027415
v -0.403714 -0.059531 0.039702
v -0.414944 -0.049277 0.024287
v -0.038846 0.093301 -0.013425
v -0.038968 0.090859 0.038928
v -0.062405 0.061074 0.081820
v -0.059476 0.024942 0.100832
v -0.060452 -0.017051 0.108279
v -0.064358 -0.064902 0.094790
v -0.109280 -0.060019 0.077944
v -0.108548 -0.079062 0.035332
v -0.156399 -0.052207 0.065325
v -0.153226 -0.070273 0.031767
v -0.182278 -0.047812 0.059985
v -0.208157 -0.042930 0.054636
v -0.246731 -0.037558 0.048609
v -0.283597 -0.047812 0.013155
v -0.286038 -0.033164 0.040977
v -0.314847 -0.030234 0.035456
v -0.312405 -0.042930 0.007891
v -0.329007 -0.030234 0.033995
v -0.346097 -0.031699 0.032046
v -0.355862 -0.034141 0.031790
v -0.360257 -0.045371 0.004214
v -0.369046 -0.038535 0.037284
v -0.388089 -0.055137 0.030764
v -0.380765 -0.041953 0.044527
v -0.390042 -0.045371 0.050631
v -0.397854 -0.049277 0.055132
v -0.405667 -0.052207 0.059054
v -0.416897 -0.053183 0.063204
v -0.433987 -0.053672 0.058321
v -0.427151 -0.051719 0.064501
v -0.429593 -0.040976 0.066424
v -0.430081 -0.031699 0.062212
v -0.436429 -0.030234 0.055758
v -0.421780 -0.028281 0.060961
v -0.429593 -0.023398 0.051188
v -0.419339 -0.020957 0.046893
v -0.411526 -0.025840 0.057452
v -0.405667 -0.022910 0.054461
v -0.399319 -0.019492 0.051447
v -0.404202 -0.014609 0.040194
v -0.393460 -0.016074 0.047984
v -0.386136 -0.009238 0.042691
v -0.399319 0.006387 0.035572
v -0.378811 0.002969 0.038187
v -0.382718 0.017617 0.021014
v -0.366116 0.016641 0.023844
v -0.371487 0.026406 0.002261
v -0.356351 0.028848 0.004488
v -0.357327 0.030801 -0.020139
v -0.335843 0.038125 -0.018613
v -0.373440 0.027871 -0.020841
v -0.391019 0.025918 -0.021665
v -0.409573 0.021524 -0.021757
v -0.429593 0.014688 -0.021482
v -0.438870 0.011758 -0.020719
v -0.439358 0.005899 -0.003782
v -0.446194 0.009317 -0.020017
v -0.446683 0.003945 -0.004453
v -0.447171 0.002481 -0.032713
v -0.440335 0.002969 -0.033933
v -0.452542 0.003457 -0.004697
v -0.453519 -0.011191 -0.000333
v -0.460843 0.001992 -0.004881
v -0.461819 -0.013144 0.000796
v -0.473050 0.002481 -0.004820
v -0.474026 -0.014609 0.002230
v -0.485257 0.000039 -0.005979
v -0.487210 -0.015098 -0.000211
v -0.495022 -0.015586 -0.008512
v -0.492581 -0.007285 -0.010008
v -0.497464 -0.015586 -0.017057
v -0.493558 -0.006797 -0.016813
v -0.484769 0.002969 -0.017057
v -0.472561 0.005899 -0.017393
v -0.460354 0.005899 -0.018339
v -0.452542 0.008340 -0.019193
v -0.453030 0.002481 -0.031431
v -0.460843 0.001016 -0.030821
v -0.472561 0.001992 -0.030637
v -0.484769 0.000039 -0.029356
v -0.473050 -0.014609 -0.038633
v -0.485745 -0.015098 -0.035947
v -0.492581 -0.007773 -0.024107
v -0.064114 0.089883 -0.014433
v -0.109280 0.084024 -0.014951
v -0.152737 0.077676 -0.015501
v -0.179837 0.073281 -0.015928
v -0.206936 0.068399 -0.016355
v -0.245267 0.060586 -0.016111
v -0.286770 0.050820 -0.016660
v -0.317288 0.042520 -0.017362
v -0.027371 -0.064414 -0.076231
v -0.038602 -0.061484 -0.072141
v -0.053128 -0.088828 -0.017118
v -0.060940 -0.084922 -0.016660
v -0.064358 -0.087851 0.037224
v -0.103909 -0.074668 -0.012418
v -0.148587 -0.067832 -0.010893
v -0.174710 -0.063926 -0.012235
v -0.178616 -0.065879 0.028315
v -0.199368 -0.060508 -0.013578
v -0.204251 -0.061484 0.024866
v -0.243802 -0.055137 0.019305
v -0.240140 -0.055625 -0.016691
v -0.281644 -0.049277 -0.019102
v -0.311429 -0.043906 -0.019529
v -0.328030 -0.040976 0.006106
v -0.327054 -0.041465 -0.020414
v -0.345608 -0.041953 0.004855
v -0.344144 -0.041465 -0.020902
v -0.356351 -0.042441 -0.022215
v -0.379788 -0.046836 -0.025327
v -0.385647 -0.050254 -0.004118
v -0.378323 -0.054648 0.021868
v -0.395413 -0.052695 0.012148
v -0.401761 -0.050254 0.018114
v -0.395901 -0.056113 0.036106
v -0.409085 -0.049766 0.022478
v -0.391019 -0.048789 -0.036619
v -0.406644 -0.045859 -0.051267
v -0.385159 -0.048301 -0.049925
v -0.401761 -0.040000 -0.065305
v -0.381741 -0.040000 -0.063902
v -0.401761 -0.023398 -0.071958
v -0.382229 -0.021933 -0.070066
v -0.385159 -0.002891 -0.069029
v -0.371487 -0.004355 -0.067564
v -0.353421 -0.020469 -0.064573
v -0.342679 -0.019492 -0.062620
v -0.324612 -0.019004 -0.064207
v -0.309476 -0.018516 -0.066953
v -0.278226 -0.018027 -0.071592
v -0.235501 -0.018027 -0.078001
v -0.196438 -0.018516 -0.082700
v -0.169827 -0.019004 -0.083982
v -0.142972 -0.019004 -0.084837
v -0.096341 -0.020469 -0.088438
v -0.050564 -0.020469 -0.094419
v -0.032254 -0.020957 -0.097959
v -0.053616 -0.057578 -0.067869
v -0.097561 -0.051719 -0.061826
v -0.144925 -0.050254 -0.057310
v -0.170804 -0.048301 -0.057188
v -0.196438 -0.046348 -0.057066
v -0.236478 -0.043906 -0.055845
v -0.279690 -0.041465 -0.052915
v -0.310452 -0.039512 -0.050352
v -0.325589 -0.038047 -0.049009
v -0.343167 -0.038535 -0.046934
v -0.353421 -0.040488 -0.048521
v -0.367093 -0.046836 -0.042051
v -0.362698 -0.040488 -0.058653
v -0.366116 -0.021933 -0.066953
v -0.431546 0.012246 0.000368
v -0.438870 0.006387 0.004031
v -0.444241 0.005410 0.005434
v -0.444241 -0.009726 0.002047
v -0.450589 0.004434 0.006502
v -0.449612 -0.012656 0.002627
v -0.456936 0.003457 0.006594
v -0.455960 -0.014121 0.002261
v -0.466702 0.002481 0.006564
v -0.466214 -0.016562 0.001742
v -0.477444 0.000039 0.006838
v -0.476468 -0.018027 0.001864
v -0.485745 -0.006797 0.009493
v -0.486722 -0.017539 0.006136
v -0.489651 -0.011191 0.013979
v -0.489651 -0.010703 0.019747
v -0.488186 -0.010703 0.025507
v -0.484280 -0.015586 0.036148
v -0.483792 -0.006797 0.030588
v -0.475979 -0.000937 0.033392
v -0.475003 -0.014609 0.040767
v -0.463772 -0.013633 0.040227
v -0.466214 0.002481 0.034209
v -0.455960 0.003457 0.033209
v -0.449612 0.003945 0.032481
v -0.447171 -0.012168 0.036759
v -0.440823 0.004922 0.031901
v -0.431058 -0.010215 0.035048
v -0.432034 0.006387 0.032149
v -0.418362 -0.008750 0.037119
v -0.416897 0.008340 0.033781
v -0.399319 0.017129 0.020830
v -0.389065 0.024942 0.000948
v -0.407620 0.021524 0.000246
v -0.420315 0.017129 0.018603
v -0.434964 0.013223 0.018145
v -0.442776 0.011758 0.018313
v -0.451077 0.010293 0.018374
v -0.457425 0.009317 0.018359
v -0.467190 0.007852 0.018481
v -0.476956 0.003945 0.018481
v -0.484769 -0.003379 0.018938
v -0.446683 0.000039 -0.046812
v -0.448636 -0.018516 -0.039243
v -0.453519 -0.000449 -0.047605
v -0.461819 -0.000937 -0.047483
v -0.462796 -0.019492 -0.037473
v -0.471097 -0.003379 -0.048277
v -0.479397 -0.012656 -0.050230
v -0.480374 -0.020957 -0.045164
v -0.481351 -0.017539 -0.053465
v -0.482815 -0.023398 -0.058103
v -0.481351 -0.017539 -0.058775
v -0.480374 -0.018027 -0.063963
v -0.481351 -0.023398 -0.064451
v -0.477444 -0.023398 -0.071348
v -0.480862 -0.028769 -0.063169
v -0.478421 -0.034629 -0.067686
v -0.479397 -0.038047 -0.056699
v -0.469144 -0.040976 -0.072202
v -0.470608 -0.045371 -0.056760
v -0.459378 -0.048301 -0.056516
v -0.460843 -0.040488 -0.038694
v -0.452054 -0.039023 -0.040952
v -0.454007 -0.019492 -0.039182
v -0.471585 -0.040000 -0.040098
v -0.472073 -0.019492 -0.038816
v -0.479886 -0.032676 -0.047056
v -0.481839 -0.027305 -0.052000
v -0.482327 -0.022422 -0.052000
v -0.481839 -0.028769 -0.057432
v -0.410550 -0.019980 0.029009
v -0.422757 -0.024375 0.030085
v -0.431546 -0.025351 0.031237
v -0.438382 -0.026328 0.031969
v -0.439358 -0.011191 0.035588
v -0.445706 -0.028281 0.033125
v -0.454495 -0.012656 0.038483
v -0.453519 -0.028769 0.035744
v -0.463772 -0.029258 0.038214
v -0.475003 -0.028769 0.038067
v -0.485257 -0.025351 0.034262
v -0.489651 -0.020469 0.027666
v -0.489163 -0.015098 0.027453
v -0.491116 -0.015586 0.020556
v -0.491116 -0.021445 0.021578
v -0.491116 -0.020957 0.015017
v -0.491116 -0.016562 0.013522
v -0.487698 -0.026328 0.009600
v -0.475979 -0.032187 0.005679
v -0.463772 -0.032676 0.006228
v -0.453519 -0.030234 0.007357
v -0.447659 -0.028281 0.007387
v -0.441800 -0.027305 0.006625
v -0.436429 -0.025840 0.005282
v -0.433011 -0.030723 0.019976
v -0.425686 -0.031699 0.018481
v -0.439358 -0.030234 0.020754
v -0.445706 -0.032187 0.021792
v -0.451565 -0.034629 0.022478
v -0.461331 -0.037558 0.022845
v -0.475003 -0.037558 0.022723
v -0.486722 -0.030234 0.022555
v -0.437894 -0.037070 -0.039671
v -0.447171 -0.039023 -0.040708
v -0.443753 -0.044394 -0.055540
v -0.433987 -0.043906 -0.053709
v -0.425686 -0.044394 -0.052305
v -0.420804 -0.040000 -0.066404
v -0.420315 -0.022910 -0.071958
v -0.420315 -0.004844 -0.070432
v -0.403226 -0.002891 -0.069883
v -0.430081 -0.006308 -0.070615
v -0.429593 -0.022910 -0.072630
v -0.431058 -0.040000 -0.067320
v -0.476956 -0.013633 -0.067442
v -0.468655 -0.022422 -0.077329
v -0.468655 -0.007285 -0.070676
v -0.458890 -0.022422 -0.078611
v -0.459378 -0.005820 -0.072080
v -0.450101 -0.006308 -0.072080
v -0.449612 -0.022422 -0.075498
v -0.441311 -0.022910 -0.073789
v -0.441800 -0.006308 -0.070554
v -0.441800 -0.040488 -0.069090
v -0.450101 -0.045371 -0.055967
v -0.457913 -0.040976 -0.073240
v -0.448636 -0.040000 -0.071165
v -0.477933 -0.011191 -0.059385
v -0.469632 -0.003867 -0.060056
v -0.460354 -0.001426 -0.060606
v -0.451077 -0.000937 -0.061094
v -0.444729 0.000039 -0.061216
v -0.433011 0.001504 -0.060300
v -0.064358 0.087442 0.036656
v -0.111966 0.080606 0.032355
v -0.156399 0.073770 0.028468
v -0.183255 0.068399 0.026499
v -0.210354 0.063516 0.024531
v -0.246487 0.055703 0.021960
v -0.288479 0.046426 0.017458
v -0.318265 0.039102 0.012362
v -0.336331 0.034707 0.008730
v -0.351956 0.016641 0.026553
v -0.359280 -0.008262 0.042956
v -0.372952 -0.019980 0.044932
v -0.382718 -0.026328 0.050486
v -0.392483 -0.031211 0.055224
v -0.399808 -0.034629 0.059374
v -0.406155 -0.038047 0.062945
v -0.347561 -0.007285 0.042895
v -0.331936 -0.006797 0.045485
v -0.316800 -0.006308 0.047816
v -0.287503 -0.005820 0.053332
v -0.247464 -0.006308 0.061236
v -0.209866 -0.008262 0.068117
v -0.183499 -0.009238 0.073855
v -0.157132 -0.010215 0.079592
v -0.108060 -0.013633 0.092715
v -0.108304 0.017129 0.088656
v -0.109769 0.052285 0.071719
v -0.157376 0.042031 0.065661
v -0.184231 0.039102 0.061755
v -0.211087 0.036172 0.057864
v -0.247464 0.031289 0.052462
v -0.287747 0.025918 0.044813
v -0.317288 0.021524 0.036244
v -0.333890 0.019082 0.031107
v -0.416409 -0.040000 0.066576
v -0.427640 -0.029746 0.000094
v -0.439358 -0.007773 0.001559
v -0.437894 -0.008262 0.001253
vn -0.6527 0.1501 0.7426
vn -0.6696 -0.4051 0.6225
vn -0.2300 -0.5629 0.7939
vn -0.2471 0.1309 0.9601
vn -0.4079 0.2114 0.8882
vn -0.4374 -0.5604 0.7033
vn 0.0446 -0.5727 0.8186
vn -0.0053 0.2066 0.9784
vn -0.1799 0.9718 -0.1528
vn -0.1996 0.9052 0.3753
vn -0.1895 0.9068 0.3765
vn -0.1614 0.9726 -0.1674
vn -0.1976 -0.9575 0.2099
vn -0.1239 -0.9719 -0.2002
vn -0.1344 -0.9651 -0.2249
vn -0.2030 -0.9608 0.1886
vn -0.3455 0.8142 -0.4666
vn -0.4614 0.2097 -0.8621
vn -0.8016 0.0974 -0.5899
vn -0.6241 0.7295 -0.2799
vn 0.0848 0.1613 0.9833
vn -0.1111 0.0746 0.9910
vn -0.2021 0.6940 0.6910
vn -0.0709 0.7884 0.6110
vn -0.4016 0.5163 -0.7564
vn 0.0458 -0.3562 -0.9333
vn 0.1294 -0.3920 -0.9108
vn -0.6679 0.1924 -0.7189
vn -0.1156 -0.9774 -0.1772
vn -0.0783 -0.8331 -0.5475
vn -0.0720 -0.8287 -0.5550
vn 0.1270 -0.9872 0.0970
vn 0.1110 -0.5625 0.8193
vn -0.2531 -0.9622 0.1007
vn -0.8838 -0.1526 -0.4423
vn -0.3245 0.7569 -0.5673
vn -0.0555 -0.1994 -0.9784
vn -0.5470 0.7659 0.3379
vn -0.0742 -0.9659 -0.2479
vn -0.2699 -0.7494 0.6046
vn -0.4714 0.0626 0.8797
vn -0.3743 -0.9163 -0.1424
vn 0.5469 -0.8283 -0.1217
vn -0.9311 0.3615 0.0483
vn -0.6734 -0.0560 0.7372
vn 0.1385 -0.6547 0.7431
vn 0.1414 -0.5779 0.8038
vn -0.4180 -0.9081 -0.0234
vn 0.5933 -0.8026 -0.0629
vn -0.6191 0.0942 0.7797
vn 0.0297 -0.7595 0.6498
vn -0.0997 0.1610 0.9819
vn 0.1958 -0.9799 -0.0378
vn 0.3126 -0.8529 -0.4182
vn 0.0849 -0.8869 -0.4540
vn 0.0854 -0.9945 -0.0603
vn -0.9311 0.3560 0.0795
vn -0.6858 0.1246 -0.7170
vn -0.4500 0.4267 -0.7845
vn 0.1032 -0.4840 -0.8690
vn 0.1336 -0.5259 -0.8400
vn -0.3543 -0.9248 -0.1385
vn 0.1609 -0.4402 -0.8833
vn 0.6130 -0.7803 -0.1239
vn -0.6860 0.1756 -0.7061
vn 0.5442 -0.5506 0.6329
vn 0.3166 0.0298 0.9481
vn 0.4258 0.1107 0.8980
vn 0.5525 -0.5069 0.6616
vn -0.9359 0.3499 0.0417
vn -0.6870 -0.0681 0.7235
vn 0.1692 -0.6877 0.7060
vn -0.8437 -0.3463 0.4102
vn -0.8752 0.0905 0.4752
vn -0.9946 0.1038 -0.0036
vn -0.9131 -0.4074 0.0158
vn 0.0062 -0.9552 -0.2959
vn -0.3273 0.7787 -0.5353
vn -0.1878 -0.1473 -0.9711
vn 0.0114 0.1186 0.9929
vn 0.0904 -0.7452 0.6607
vn -0.2104 -0.6463 0.7335
vn -0.1838 -0.9515 0.2466
vn -0.1874 -0.9542 0.2331
vn -0.2268 -0.6361 0.7376
vn 0.0248 -0.7104 -0.7034
vn 0.0870 -0.7154 -0.6932
vn 0.0738 -0.0847 -0.9937
vn 0.0378 -0.1144 -0.9927
vn -0.1584 -0.7147 0.6813
vn -0.2149 -0.0465 0.9755
vn -0.1887 0.0038 0.9820
vn -0.0763 -0.7282 0.6811
vn -0.0174 0.3769 -0.9261
vn 0.0611 0.3025 -0.9512
vn 0.1351 -0.1361 -0.9814
vn 0.0505 -0.1357 -0.9895
vn -0.1580 -0.9637 0.2150
vn -0.1922 -0.9515 0.2405
vn -0.2095 -0.6783 0.7043
vn 0.1591 -0.5724 0.8044
vn 0.0025 -0.6150 0.7885
vn -0.1233 0.1510 0.9808
vn 0.0585 0.1716 0.9834
vn -0.9012 0.1983 0.3853
vn -0.8499 0.4314 0.3026
vn -0.8965 0.4364 0.0768
vn -0.9795 0.1671 0.1130
vn -0.2139 0.9728 -0.0886
vn -0.1881 0.9808 -0.0519
vn -0.1079 0.7052 0.7007
vn -0.1558 0.6684 0.7273
vn -0.1814 0.7802 -0.5987
vn -0.2100 0.9681 -0.1364
vn -0.1427 0.7817 -0.6071
vn -0.0851 -0.8162 -0.5715
vn -0.1442 -0.7730 -0.6178
vn -0.1794 -0.9487 -0.2602
vn -0.2208 -0.0730 0.9726
vn -0.2485 0.5419 0.8028
vn -0.2768 0.5823 0.7644
vn 0.3570 -0.9329 -0.0475
vn 0.0905 -0.5704 -0.8164
vn 0.2506 -0.9680 -0.0120
vn -0.4210 -0.9070 -0.0106
vn 0.0505 -0.9987 0.0113
vn -0.6204 0.7796 0.0850
vn -0.4525 0.2344 0.8604
vn -0.2737 0.3312 0.9030
vn -0.3769 0.9214 0.0950
vn 0.1912 0.0891 0.9775
vn 0.2739 -0.5677 0.7763
vn 0.3007 -0.6400 0.7071
vn 0.1795 0.0404 0.9829
vn -0.3640 -0.6436 -0.6733
vn -0.8251 -0.5648 -0.0181
vn -0.7731 -0.3980 -0.4939
vn -0.1830 -0.9556 0.2308
vn -0.0042 -0.9852 0.1716
vn -0.0352 -0.7181 -0.6951
vn -0.3356 -0.6988 -0.6317
vn 0.0357 0.7133 0.7000
vn 0.4038 0.1566 0.9013
vn 0.4179 0.1315 0.8989
vn 0.0045 0.6955 0.7186
vn -0.2604 -0.6398 0.7231
vn -0.2491 -0.0303 0.9680
vn -0.2148 -0.0526 0.9752
vn -0.2446 -0.6351 0.7327
vn -0.0007 0.5819 0.8133
vn 0.0007 0.4102 0.9120
vn 0.0747 -0.6442 0.7612
vn 0.1941 -0.6393 0.7441
vn 0.1586 -0.9866 0.0382
vn -0.0439 -0.9906 0.1299
vn -0.2020 0.6003 -0.7739
vn 0.0977 -0.4057 -0.9088
vn 0.0930 0.0010 0.9957
vn -0.0157 -0.0515 0.9985
vn -0.2875 0.9498 0.1232
vn -0.2176 0.9680 0.1250
vn 0.0682 0.6977 0.7131
vn -0.1056 0.7677 -0.6321
vn -0.1157 0.8129 -0.5708
vn -0.1885 0.4489 -0.8735
vn -0.1343 0.3797 -0.9153
vn -0.0857 -0.8636 -0.4969
vn -0.0580 -0.9966 -0.0577
vn -0.2476 0.9595 -0.1341
vn -0.1323 0.9804 -0.1462
vn -0.1231 0.9601 0.2511
vn -0.2404 0.9220 0.3035
vn 0.0189 0.6878 0.7257
vn -0.1212 0.7108 0.6929
vn 0.0666 0.1133 0.9913
vn -0.3275 0.9167 0.2288
vn -0.0373 0.6807 0.7316
vn -0.3824 -0.0227 0.9237
vn -0.2944 -0.0695 0.9531
vn -0.2903 -0.6484 0.7037
vn -0.3922 -0.6145 0.6845
vn -0.4828 0.5284 -0.6984
vn -0.2359 0.6093 -0.7570
vn -0.1836 0.9827 0.0237
vn -0.2838 0.9488 0.1384
vn -0.8734 -0.3030 -0.3813
vn -0.5684 -0.8226 0.0126
vn -0.5475 -0.4669 -0.6944
vn -0.9894 0.0907 -0.1133
vn -0.6021 0.7399 0.3002
vn -0.4586 0.1263 0.8796
vn -0.5288 0.7957 -0.2954
vn 0.2841 -0.2190 -0.9334
vn 0.2875 -0.1597 -0.9444
vn 0.1688 0.2064 -0.9638
vn 0.0590 0.5673 -0.8214
vn 0.7721 0.5672 -0.2866
vn 0.7438 0.2917 -0.6015
vn -0.1113 0.9610 0.2530
vn 0.6356 0.3813 0.6712
vn 0.7881 0.5610 0.2534
vn -0.5108 -0.5619 0.6506
vn 0.0685 -0.9749 -0.2120
vn 0.5996 -0.5913 0.5394
vn -0.5547 -0.8238 0.1170
vn -0.3333 0.3908 0.8580
vn 0.4067 0.1056 0.9074
vn -0.2157 0.7158 0.6641
vn -0.8943 0.4459 0.0366
vn -0.3935 0.9058 0.1568
vn -0.6970 0.4948 0.5190
vn -0.2728 0.8141 -0.5127
vn -0.2080 -0.1562 -0.9656
vn -0.3346 0.7990 -0.4996
vn -0.6906 0.5369 0.4845
vn -0.0488 0.0095 -0.9988
vn -0.3479 -0.0265 -0.9371
vn -0.3516 0.5301 0.7716
vn -0.6632 0.5749 0.4792
vn -0.8112 0.0112 0.5847
vn -0.3478 0.0576 0.9358
vn -0.4713 -0.4279 0.7712
vn -0.8580 -0.0210 -0.5132
vn -0.6008 -0.7832 0.1603
vn -0.2771 0.1728 0.9452
vn -0.0526 0.8654 0.4984
vn 0.0117 0.5486 0.8360
vn -0.2790 -0.0036 0.9603
vn -0.5280 0.8492 -0.0008
vn -0.4593 0.6374 0.6187
vn -0.9711 0.0977 -0.2179
vn -0.5073 0.5101 -0.6946
vn -0.4673 0.6762 0.5695
vn -0.4667 0.0971 0.8791
vn -0.8008 0.4601 0.3834
vn -0.4365 0.5185 -0.7352
vn -0.1970 0.6028 -0.7731
vn 0.0982 -0.3690 -0.9242
vn 0.0434 -0.3486 -0.9363
vn -0.4710 0.1308 -0.8724
vn -0.8121 0.4549 -0.3656
vn -0.4748 0.6793 -0.5595
vn -0.8706 0.1303 -0.4745
vn 0.2273 -0.9540 -0.1954
vn -0.2613 -0.1355 -0.9557
vn 0.5584 -0.2394 -0.7943
vn 0.0170 -0.9762 0.2163
vn -0.3797 -0.6258 -0.6813
vn -0.4639 0.3526 -0.8127
vn -0.4644 -0.7466 -0.4764
vn -0.2597 -0.6286 -0.7331
vn -0.2935 -0.9369 -0.1898
vn -0.4080 -0.9087 0.0880
vn -0.0387 -0.9843 -0.1723
vn -0.3710 -0.6497 -0.6635
vn -0.2354 -0.1900 -0.9531
vn 0.2300 -0.9677 -0.1033
vn 0.0400 -0.9989 0.0250
vn 0.3235 -0.6784 -0.6596
vn -0.1787 0.0509 -0.9826
vn -0.0423 -0.0494 -0.9979
vn -0.1519 0.6217 -0.7684
vn -0.1279 -0.0033 -0.9918
vn -0.2713 0.6322 0.7258
vn -0.6432 0.0182 -0.7655
vn -0.8933 0.3809 -0.2385
vn -0.7046 0.4746 -0.5275
vn -0.9501 0.1037 -0.2943
vn 0.1978 -0.9638 0.1789
vn 0.2929 -0.9478 0.1261
vn -0.0398 0.8955 0.4432
vn -0.2132 0.9708 0.1098
vn -0.1819 0.9433 0.2777
vn -0.7392 0.6721 0.0436
vn -0.9486 0.3090 0.0692
vn -0.8199 0.1403 0.5550
vn -0.8165 0.5078 0.2748
vn -0.9848 0.0613 0.1623
vn -0.7172 0.0512 -0.6950
vn -0.9364 0.0351 -0.3491
vn -0.8929 0.3058 -0.3303
vn -0.9744 -0.1584 0.1593
vn -0.8440 -0.3248 0.4267
vn -0.1037 0.7624 -0.6388
vn -0.1159 0.3450 -0.9314
vn -0.0793 0.3240 -0.9427
vn -0.0968 0.7678 -0.6333
vn 0.0832 -0.6556 -0.7505
vn 0.0416 0.0402 -0.9983
vn 0.2207 0.0088 -0.9753
vn 0.2386 -0.6407 -0.7298
vn -0.1981 -0.0754 0.9773
vn -0.2088 0.5234 0.8261
vn 0.0264 -0.7262 -0.6870
vn 0.1599 -0.6919 -0.7040
vn -0.7025 -0.7034 0.1086
vn -0.9215 -0.1323 0.3653
vn -0.9676 -0.2230 0.1187
vn -0.7259 0.4728 -0.4996
vn -0.1240 0.9699 -0.2097
vn -0.1122 0.9721 -0.2060
vn -0.2703 0.2666 0.9251
vn -0.0856 0.7521 0.6535
vn -0.0922 0.9957 -0.0102
vn -0.4851 0.8744 -0.0052
vn -0.3046 -0.6853 -0.6616
vn -0.4314 -0.8735 0.2256
vn -0.0599 0.6953 -0.7163
vn -0.3464 0.0657 -0.9358
vn -0.4077 0.6641 -0.6267
vn 0.0090 -0.9702 -0.2423
vn -0.0724 0.9496 -0.3050
vn -0.1933 0.8380 0.5102
vn -0.2279 0.8736 -0.4299
vn 0.0522 0.5632 -0.8247
vn 0.1521 -0.0461 -0.9873
vn 0.0978 0.6117 -0.7850
vn -0.0773 0.3115 -0.9471
vn -0.0633 -0.3627 -0.9298
vn -0.0542 -0.3697 -0.9276
vn -0.0843 0.3167 -0.9448
vn -0.2339 0.9653 -0.1164
vn -0.2808 0.8918 0.3548
vn -0.2575 0.8946 0.3652
vn -0.2339 0.9637 -0.1285
vn 0.1685 0.1061 0.9800
vn -0.0597 0.4309 -0.9004
vn -0.6454 0.7627 0.0409
vn -0.4067 0.3956 0.8235
vn -0.1114 0.8642 0.4907
vn -0.0577 0.8604 0.5064
vn -0.1755 -0.9791 0.1026
vn -0.0643 -0.9949 0.0775
vn -0.2287 -0.9680 0.1030
vn -0.8522 0.5232 -0.0072
vn -0.0401 0.0351 0.9986
vn 0.0205 -0.6798 -0.7331
vn -0.0980 -0.9783 -0.1824
vn -0.1186 -0.9918 -0.0486
vn -0.2498 -0.6095 -0.7524
vn -0.3194 0.2574 -0.9120
vn -0.1455 -0.5113 -0.8470
vn 0.1260 -0.6583 -0.7422
vn 0.0334 -0.9711 -0.2363
vn 0.2647 -0.9622 0.0650
vn 0.3482 -0.6758 0.6496
vn 0.6105 0.0190 -0.7918
vn -0.2157 -0.0226 -0.9762
vn -0.2414 -0.6845 -0.6878
vn -0.7102 -0.4931 -0.5024
vn -0.8620 0.5014 0.0749
vn 0.1326 -0.5345 0.8347
vn -0.4895 0.2380 0.8389
vn -0.6098 0.7884 0.0807
vn -0.2665 0.8877 0.3754
vn -0.1504 0.8967 0.4163
vn -0.9596 -0.2140 -0.1829
vn -0.2919 -0.9448 0.1487
vn -0.2991 -0.9106 -0.2853
vn -0.4615 -0.8408 -0.2831
vn 0.0076 0.6520 0.7582
vn -0.2030 0.7800 -0.5920
vn -0.1566 0.3222 -0.9336
vn -0.1204 -0.3417 -0.9321
vn -0.1360 -0.3249 -0.9359
vn -0.1759 0.3186 -0.9314
vn -0.2019 -0.0719 0.9768
vn 0.3126 -0.9384 -0.1471
vn 0.2148 -0.9588 -0.1857
vn 0.1551 -0.5925 0.7905
vn -0.1566 -0.9656 0.2078
vn 0.1734 -0.9846 -0.0234
vn 0.4293 -0.5887 0.6850
vn -0.1854 0.9258 0.3295
vn -0.2494 0.6088 0.7531
vn -0.2402 0.6652 0.7070
vn -0.1722 0.9406 0.2928
vn -0.0832 0.7582 -0.6467
vn -0.4101 0.6655 0.6237
vn -0.4984 0.8669 0.0006
vn 0.2867 -0.9555 0.0691
vn 0.2910 -0.9561 0.0359
vn -0.2572 0.8128 -0.5227
vn -0.0234 0.4752 -0.8796
vn -0.3648 0.9263 0.0940
vn 0.1121 -0.7041 -0.7012
vn -0.5095 -0.5234 0.6830
vn -0.0770 0.8948 -0.4397
vn -0.0150 0.7463 -0.6655
vn -0.0945 0.9219 -0.3757
vn -0.2216 0.5379 0.8133
vn -0.1909 0.5221 0.8312
vn 0.1650 -0.5477 0.8203
vn 0.0373 0.0581 0.9976
vn 0.0978 0.0654 0.9930
vn 0.2128 -0.5992 0.7718
vn -0.3034 0.3162 0.8989
vn -0.2140 0.8010 -0.5592
vn -0.1649 0.3530 -0.9210
vn -0.0639 0.4340 -0.8986
vn -0.1926 0.8373 -0.5117
vn -0.0602 -0.6523 -0.7556
vn -0.0925 -0.9956 0.0152
vn 0.0503 -0.6727 0.7382
vn -0.1180 0.9924 -0.0351
vn -0.0402 0.7135 0.6995
vn -0.0434 0.6970 -0.7158
vn -0.1296 0.6610 -0.7391
vn -0.1428 -0.9875 -0.0670
vn -0.1428 -0.9842 -0.1048
vn 0.1130 -0.9794 0.1673
vn 0.0523 -0.7231 0.6888
vn 0.4747 -0.2480 0.8445
vn -0.4634 0.0279 0.8857
vn 0.1496 -0.7148 -0.6832
vn -0.1472 0.9515 0.2700
vn 0.2801 -0.9540 -0.1066
vn 0.5614 -0.5339 0.6323
vn -0.1625 0.5655 -0.8086
vn 0.0433 -0.6554 0.7540
vn 0.0575 -0.6874 0.7240
vn 0.2933 -0.9481 -0.1229
vn 0.2097 -0.9659 -0.1516
vn -0.2593 -0.7114 -0.6532
vn -0.1728 -0.2589 -0.9503
vn -0.1375 0.9670 -0.2145
vn -0.0487 0.9661 -0.2534
vn -0.1799 -0.5695 0.8021
vn 0.0281 -0.5759 0.8170
vn -0.0837 -0.3566 -0.9305
vn -0.0470 -0.9799 0.1939
vn -0.4336 0.8980 -0.0751
vn -0.3970 0.6210 -0.6759
vn -0.5617 -0.7212 -0.4056
vn -0.6113 -0.6136 0.4999
vn -0.8883 -0.4553 0.0607
vn 0.1758 -0.9837 0.0377
vn 0.0796 -0.9958 0.0461
vn -0.9994 0.0199 0.0287
vn -0.3032 -0.6323 0.7129
vn -0.4486 -0.8870 0.1092
vn -0.0607 -0.6196 0.7826
vn -0.0381 0.0824 0.9959
vn 0.1560 -0.5986 -0.7857
vn 0.0601 0.0595 -0.9964
vn 0.2241 -0.6027 -0.7658
vn 0.1000 0.1025 -0.9897
vn -0.0484 0.1256 -0.9909
vn 0.2559 -0.9653 0.0516
vn 0.1660 -0.9791 0.1175
vn -0.2934 -0.9310 0.2170
vn -0.1401 0.8023 -0.5802
vn -0.0939 -0.8325 -0.5460
vn 0.2640 -0.9641 0.0286
vn 0.5690 -0.5028 0.6507
vn -0.2470 -0.4983 0.8311
vn -0.1479 0.5853 0.7972
vn -0.1186 0.5894 0.7991
vn -0.0552 0.5838 0.8100
vn -0.1224 0.9725 0.1983
vn -0.2602 0.9575 -0.1242
vn -0.1454 0.9783 -0.1476
vn -0.2680 0.3354 0.9032
vn 0.3629 0.1117 0.9251
vn -0.4101 0.7920 -0.4523
vn -0.0905 0.9752 -0.2020
vn -0.1218 -0.9817 -0.1464
vn -0.2152 -0.9632 0.1609
vn 0.7753 0.6226 -0.1060
vn -0.2230 0.9000 0.3746
vn -0.4150 0.9057 -0.0867
vn -0.0454 -0.1346 0.9899
vn -0.0586 0.6133 0.7877
vn 0.0546 -0.0180 -0.9983
vn -0.0798 0.6191 -0.7813
vn -0.1180 0.9923 -0.0378
vn -0.1422 0.9898 -0.0103
vn -0.2220 0.9746 -0.0288
vn -0.1341 0.6457 -0.7517
vn -0.1131 0.3201 -0.9406
vn -0.1138 -0.8391 -0.5320
vn -0.1291 -0.8535 -0.5048
vn 0.0242 -0.0150 -0.9996
vn 0.0427 -0.3003 -0.9529
vn -0.1263 -0.3141 -0.9409
vn -0.1520 -0.3116 -0.9380
vn -0.1007 -0.3318 -0.9380
vn -0.2951 0.8932 0.3393
vn -0.2665 0.9570 -0.1147
vn -0.1923 0.5217 0.8312
vn -0.1824 0.3232 -0.9286
vn -0.1318 0.9713 -0.1979
vn -0.1900 0.9132 0.3605
vn -0.1477 0.9719 -0.1835
vn -0.1962 0.7896 -0.5814
vn -0.1194 0.7792 -0.6153
vn -0.1074 0.7733 -0.6249
vn 0.2366 -0.6800 -0.6940
vn -0.1377 -0.9440 0.2999
vn 0.0731 -0.6462 0.7596
vn -0.9760 -0.2122 -0.0490
vn -0.9966 0.0225 -0.0788
vn -0.2127 0.9202 -0.3287
vn -0.0279 -0.9987 0.0420
vn -0.9439 -0.1821 -0.2755
vn -0.9340 0.3372 -0.1183
vn -0.4707 0.7854 0.4020
vn -0.4658 0.8631 -0.1953
vn -0.7797 0.6051 -0.1610
vn 0.0585 -0.6965 0.7152
vn -0.2507 0.4265 0.8690
vn 0.1172 -0.5724 0.8116
vn -0.2865 0.4574 -0.8419
vn -0.4411 0.8966 0.0392
vt 0.097656 0.018066
vt 0.104980 0.021973
vt 0.103027 0.030762
vt 0.092285 0.026855
vt 0.209473 0.028320
vt 0.222168 0.042480
vt 0.216797 0.049316
vt 0.204102 0.038574
vt 0.328125 0.355957
vt 0.360840 0.354980
vt 0.359863 0.377441
vt 0.327148 0.377930
vt 0.142578 0.375488
vt 0.168457 0.376953
vt 0.167480 0.395996
vt 0.142578 0.394531
vt 0.067871 0.116699
vt 0.075195 0.127930
vt 0.063477 0.133789
vt 0.058105 0.124023
vt 0.428223 0.190918
vt 0.427246 0.207520
vt 0.391602 0.202148
vt 0.389160 0.182617
vt 0.028320 0.509277
vt 0.031738 0.511230
vt 0.028809 0.516602
vt 0.026367 0.515137
vt 0.168945 0.357910
vt 0.204102 0.359375
vt 0.202148 0.379395
vt 0.113281 0.041992
vt 0.101562 0.039062
vt 0.113770 0.032227
vt 0.070312 0.508789
vt 0.075195 0.500977
vt 0.078613 0.503906
vt 0.071777 0.499512
vt 0.063965 0.501953
vt 0.061523 0.505371
vt 0.066406 0.499023
vt 0.068848 0.498535
vt 0.021973 0.523438
vt 0.030762 0.519531
vt 0.023438 0.514648
vt 0.020996 0.514648
vt 0.018555 0.515137
vt 0.015137 0.517090
vt 0.019531 0.553223
vt 0.025391 0.561035
vt 0.017090 0.556641
vt 0.021973 0.551758
vt 0.063965 0.492676
vt 0.068359 0.490723
vt 0.172852 0.186035
vt 0.206543 0.187988
vt 0.205566 0.203613
vt 0.171875 0.205078
vt 0.025391 0.551270
vt 0.028320 0.552246
vt 0.029785 0.545898
vt 0.034180 0.545898
vt 0.030762 0.554688
vt 0.035156 0.557129
vt 0.464844 0.179199
vt 0.441406 0.170898
vt 0.448242 0.155273
vt 0.466797 0.161621
vt 0.164062 0.020020
vt 0.160645 0.013672
vt 0.169922 0.011230
vt 0.169922 0.019531
vt 0.059570 0.496582
vt 0.078125 0.493652
vt 0.083496 0.496582
vt 0.065430 0.477539
vt 0.059082 0.480469
vt 0.458984 0.315918
vt 0.486816 0.316895
vt 0.486816 0.354004
vt 0.461426 0.354004
vt 0.230469 0.099121
vt 0.233398 0.086914
vt 0.252441 0.090820
vt 0.250488 0.102051
vt 0.458008 0.248535
vt 0.428223 0.247559
vt 0.427734 0.229004
vt 0.457520 0.230957
vt 0.270020 0.125977
vt 0.266602 0.148438
vt 0.244141 0.149902
vt 0.246582 0.125000
vt 0.486816 0.252930
vt 0.486816 0.276367
vt 0.458496 0.275391
vt 0.212402 0.056641
vt 0.209473 0.060059
vt 0.198242 0.047852
vt 0.200684 0.044922
vt 0.055176 0.500977
vt 0.411621 0.028320
vt 0.407715 0.032227
vt 0.401367 0.030762
vt 0.403320 0.023926
vt 0.340332 0.071777
vt 0.341309 0.064453
vt 0.355957 0.062500
vt 0.357422 0.068848
vt 0.295410 0.318359
vt 0.330566 0.317871
vt 0.293457 0.356445
vt 0.200684 0.399414
vt 0.198242 0.435547
vt 0.167480 0.429199
vt 0.428711 0.274414
vt 0.396484 0.273438
vt 0.395508 0.247559
vt 0.040039 0.547852
vt 0.037598 0.531738
vt 0.045410 0.533691
vt 0.232910 0.047852
vt 0.229492 0.056152
vt 0.023926 0.508301
vt 0.020020 0.508789
vt 0.018066 0.497559
vt 0.024902 0.496094
vt 0.089355 0.046875
vt 0.101562 0.047852
vt 0.101562 0.055664
vt 0.087891 0.053223
vt 0.243652 0.051758
vt 0.236816 0.038574
vt 0.246582 0.041992
vt 0.166504 0.067383
vt 0.167969 0.059082
vt 0.182617 0.056152
vt 0.185547 0.063477
vt 0.442871 0.125977
vt 0.456543 0.132812
vt 0.453125 0.142090
vt 0.438477 0.133301
vt 0.463867 0.395508
vt 0.433105 0.399414
vt 0.432129 0.376953
vt 0.462402 0.374512
vt 0.434082 0.141602
vt 0.425781 0.153320
vt 0.097656 0.071289
vt 0.100098 0.063477
vt 0.112305 0.064941
vt 0.111328 0.072754
vt 0.032227 0.496582
vt 0.039551 0.498535
vt 0.086426 0.061523
vt 0.084961 0.069824
vt 0.430664 0.115234
vt 0.434082 0.108887
vt 0.446777 0.119629
vt 0.285156 0.486328
vt 0.286621 0.514648
vt 0.254395 0.501953
vt 0.254395 0.487305
vt 0.207031 0.228027
vt 0.171875 0.229492
vt 0.332520 0.193848
vt 0.333496 0.172363
vt 0.360840 0.175781
vt 0.361816 0.196289
vt 0.427246 0.068848
vt 0.409180 0.068848
vt 0.410156 0.059082
vt 0.427246 0.058105
vt 0.440918 0.098633
vt 0.451172 0.109375
vt 0.438965 0.475586
vt 0.435059 0.438965
vt 0.466309 0.430664
vt 0.470215 0.462402
vt 0.373047 0.080078
vt 0.376953 0.074219
vt 0.390137 0.082031
vt 0.387695 0.091797
vt 0.175293 0.020020
vt 0.169922 0.028320
vt 0.179199 0.027344
vt 0.313965 0.059082
vt 0.305664 0.077148
vt 0.313965 0.058594
vt 0.312988 0.086914
vt 0.239258 0.188477
vt 0.240723 0.170898
vt 0.262207 0.166016
vt 0.276855 0.178223
vt 0.286133 0.527344
vt 0.272461 0.524902
vt 0.354980 0.512695
vt 0.381836 0.520996
vt 0.354492 0.529785
vt 0.472656 0.471191
vt 0.486816 0.456055
vt 0.475098 0.479980
vt 0.486816 0.450684
vt 0.418945 0.490723
vt 0.421875 0.512207
vt 0.392090 0.492676
vt 0.081055 0.097168
vt 0.067871 0.094238
vt 0.071777 0.089844
vt 0.081055 0.481445
vt 0.088379 0.484375
vt 0.057617 0.105957
vt 0.073730 0.111328
vt 0.420898 0.035645
vt 0.411133 0.039551
vt 0.192871 0.047363
vt 0.193848 0.049316
vt 0.455566 0.101562
vt 0.451172 0.091797
vt 0.465820 0.091797
vt 0.464844 0.104492
vt 0.082031 0.095215
vt 0.099609 0.114746
vt 0.108398 0.113281
vt 0.419434 0.129395
vt 0.423828 0.125000
vt 0.385254 0.160645
vt 0.411621 0.164062
vt 0.367676 0.066895
vt 0.365234 0.090332
vt 0.359375 0.077148
vt 0.368164 0.067871
vt 0.321777 0.074219
vt 0.314941 0.059570
vt 0.353027 0.033691
vt 0.355957 0.017578
vt 0.364746 0.025879
vt 0.351562 0.024902
vt 0.324707 0.025391
vt 0.339355 0.024414
vt 0.336426 0.033691
vt 0.335449 0.016602
vt 0.191406 0.488281
vt 0.220703 0.485840
vt 0.217285 0.503906
vt 0.165527 0.471191
vt 0.193848 0.475586
vt 0.091797 0.115234
vt 0.108398 0.146484
vt 0.097656 0.145020
vt 0.120117 0.149414
vt 0.140137 0.113281
vt 0.144531 0.151367
vt 0.194824 0.471680
vt 0.221680 0.478027
vt 0.195801 0.168457
vt 0.173828 0.154785
vt 0.216797 0.172363
vt 0.368652 0.067871
vt 0.368164 0.060059
vt 0.380371 0.068359
vt 0.368652 0.064941
vt 0.393066 0.226562
vt 0.383789 0.027344
vt 0.395020 0.029297
vt 0.391113 0.036133
vt 0.394043 0.023438
vt 0.427246 0.121094
vt 0.486816 0.163086
vt 0.486816 0.179688
vt 0.385254 0.137695
vt 0.361328 0.126465
vt 0.384277 0.110840
vt 0.399414 0.039062
vt 0.286133 0.027832
vt 0.300293 0.025879
vt 0.290527 0.034668
vt 0.289551 0.020020
vt 0.258789 0.041504
vt 0.259277 0.029297
vt 0.269043 0.034668
vt 0.221191 0.020996
vt 0.233887 0.025879
vt 0.228027 0.032715
vt 0.232910 0.018066
vt 0.286621 0.463867
vt 0.254395 0.468750
vt 0.254883 0.435059
vt 0.289062 0.433105
vt 0.242188 0.060059
vt 0.257812 0.060547
vt 0.256348 0.069336
vt 0.240234 0.067871
vt 0.429688 0.315918
vt 0.395508 0.316895
vt 0.139160 0.051758
vt 0.128418 0.060547
vt 0.126953 0.054688
vt 0.113770 0.021973
vt 0.107910 0.014648
vt 0.113770 0.013672
vt 0.270508 0.042480
vt 0.323242 0.457520
vt 0.321777 0.483398
vt 0.418945 0.437012
vt 0.354004 0.043457
vt 0.344238 0.044922
vt 0.345215 0.035156
vt 0.130859 0.066406
vt 0.140137 0.054688
vt 0.138184 0.078125
vt 0.139160 0.054199
vt 0.139648 0.055176
vt 0.272949 0.060547
vt 0.258789 0.052246
vt 0.272949 0.052246
vt 0.052734 0.485840
vt 0.047363 0.491211
vt 0.284668 0.074707
vt 0.299805 0.067871
vt 0.286621 0.087891
vt 0.272461 0.078125
vt 0.254883 0.077637
vt 0.271973 0.069824
vt 0.256348 0.402344
vt 0.229004 0.400879
vt 0.230957 0.379883
vt 0.258301 0.380371
vt 0.333008 0.245117
vt 0.364258 0.246094
vt 0.364746 0.273438
vt 0.332031 0.273438
vt 0.462402 0.116211
vt 0.270996 0.104004
vt 0.025391 0.545898
vt 0.020996 0.546387
vt 0.294922 0.054199
vt 0.312012 0.043945
vt 0.312988 0.050293
vt 0.297363 0.061523
vt 0.187500 0.112793
vt 0.188477 0.137695
vt 0.166016 0.115723
vt 0.345703 0.023926
vt 0.346191 0.014160
vt 0.367676 0.062500
vt 0.229004 0.123535
vt 0.208496 0.117188
vt 0.213379 0.090820
vt 0.079590 0.145996
vt 0.083984 0.123047
vt 0.089844 0.143555
vt 0.224609 0.148438
vt 0.204590 0.145020
vt 0.486816 0.200195
vt 0.462891 0.196777
vt 0.242676 0.515625
vt 0.138184 0.025879
vt 0.125977 0.030273
vt 0.124023 0.019531
vt 0.132324 0.014160
vt 0.050293 0.129883
vt 0.040527 0.127441
vt 0.049316 0.115234
vt 0.012207 0.550781
vt 0.017090 0.547363
vt 0.073242 0.490723
vt 0.073730 0.478027
vt 0.119629 0.012695
vt 0.142578 0.447266
vt 0.167480 0.458008
vt 0.166504 0.466309
vt 0.142578 0.453125
vt 0.426270 0.077148
vt 0.408203 0.075684
vt 0.296875 0.274902
vt 0.263184 0.319824
vt 0.235352 0.321289
vt 0.236816 0.277344
vt 0.265137 0.276367
vt 0.431152 0.354492
vt 0.089844 0.037109
vt 0.036621 0.515625
vt 0.045898 0.504395
vt 0.474609 0.118164
vt 0.486816 0.116699
vt 0.486816 0.130859
vt 0.473145 0.129395
vt 0.357910 0.426758
vt 0.393555 0.433594
vt 0.395508 0.464355
vt 0.356934 0.457031
vt 0.333984 0.042969
vt 0.411133 0.049316
vt 0.397949 0.048828
vt 0.425781 0.045898
vt 0.112793 0.050781
vt 0.112305 0.057129
vt 0.288086 0.099121
vt 0.270996 0.091797
vt 0.125977 0.040039
vt 0.160645 0.026367
vt 0.152344 0.020020
vt 0.304199 0.173828
vt 0.283691 0.151855
vt 0.307617 0.148438
vt 0.392578 0.399414
vt 0.393066 0.376953
vt 0.154785 0.050781
vt 0.142578 0.046875
vt 0.144531 0.040039
vt 0.157227 0.044922
vt 0.417480 0.472168
vt 0.300293 0.224609
vt 0.270020 0.228516
vt 0.273926 0.201172
vt 0.302246 0.196777
vt 0.179199 0.037598
vt 0.169922 0.038086
vt 0.016113 0.509766
vt 0.342773 0.055664
vt 0.355957 0.054199
vt 0.330566 0.053223
vt 0.328613 0.061035
vt 0.142578 0.254883
vt 0.171387 0.249023
vt 0.171875 0.276367
vt 0.142578 0.280273
vt 0.486816 0.212402
vt 0.459961 0.209473
vt 0.444824 0.500000
vt 0.441406 0.486328
vt 0.236816 0.074707
vt 0.355957 0.485840
vt 0.486816 0.140625
vt 0.471191 0.137695
vt 0.316895 0.057129
vt 0.326172 0.066895
vt 0.012207 0.499512
vt 0.011230 0.512207
vt 0.005859 0.502441
vt 0.087402 0.174805
vt 0.076660 0.174805
vt 0.196289 0.464355
vt 0.223633 0.467285
vt 0.283691 0.058594
vt 0.284180 0.067383
vt 0.148926 0.063965
vt 0.140625 0.054688
vt 0.141602 0.051270
vt 0.152832 0.056152
vt 0.105469 0.010254
vt 0.232910 0.358887
vt 0.142578 0.211914
vt 0.142578 0.236816
vt 0.338867 0.081543
vt 0.388672 0.045410
vt 0.066406 0.150391
vt 0.061523 0.170898
vt 0.042969 0.159668
vt 0.052734 0.146973
vt 0.226074 0.063965
vt 0.223145 0.069824
vt 0.038574 0.142090
vt 0.051758 0.137695
vt 0.194824 0.049805
vt 0.200195 0.068359
vt 0.191895 0.072754
vt 0.193848 0.049805
vt 0.114258 0.175293
vt 0.139648 0.175781
vt 0.368164 0.057617
vt 0.158691 0.035156
vt 0.146973 0.030273
vt 0.181641 0.050781
vt 0.192871 0.044922
vt 0.180664 0.045410
vt 0.192383 0.040527
vt 0.187988 0.022461
vt 0.191406 0.032227
vt 0.180176 0.014160
vt 0.169434 0.047363
vt 0.168457 0.053711
vt 0.165527 0.082031
vt 0.288086 0.122559
vt 0.206055 0.319824
vt 0.486816 0.148926
vt 0.468750 0.147461
vt 0.474609 0.108398
vt 0.480469 0.100586
vt 0.404785 0.096680
vt 0.403320 0.114746
vt 0.405273 0.136719
vt 0.360352 0.151855
vt 0.335449 0.123047
vt 0.333984 0.148438
vt 0.459961 0.125977
vt 0.369141 0.038086
vt 0.073242 0.087402
vt 0.078613 0.102051
vt 0.062500 0.100098
vt 0.095703 0.175293
vt 0.318848 0.512207
vt 0.170898 0.318359
vt 0.142578 0.319824
vt 0.142578 0.420898
vt 0.317383 0.528809
vt 0.369629 0.050293
vt 0.363281 0.318359
vt 0.337402 0.094238
vt 0.421875 0.111328
vt 0.423828 0.095703
vt 0.406250 0.085938
vt 0.424805 0.086914
vt 0.375488 0.035645
vt 0.368652 0.054688
vt 0.382324 0.062500
vt 0.394043 0.066895
vt 0.392578 0.073242
vt 0.395996 0.057617
vt 0.385742 0.054199
vt 0.260254 0.358398
vt 0.486816 0.372070
vt 0.486816 0.391113
vt 0.486816 0.418945
vt 0.486816 0.445312
vt 0.206055 0.275879
vt 0.206543 0.247559
vt 0.371094 0.044922
vt 0.237305 0.204590
vt 0.237305 0.229004
vt 0.237793 0.248535
vt 0.226074 0.435059
vt 0.142578 0.458496
vt 0.363281 0.224121
vt 0.333008 0.223145
vt 0.394043 0.354492
vt 0.313477 0.054199
vt 0.267578 0.249023
vt 0.324707 0.429199
vt 0.358398 0.399902
vt 0.326172 0.400391
vt 0.298828 0.246094
vt 0.292480 0.379395
vt 0.291016 0.402344
vt 0.142578 0.356934
vt 0.113281 0.006836
vt 0.122070 0.006836
vt 0.140137 0.046875
vt 0.126465 0.048828
vt 0.140137 0.036621
vt 0.110840 0.083984
vt 0.093750 0.081543
vt 0.241699 0.029297
vt 0.246094 0.019531
vt 0.309570 0.120605
vt 0.217773 0.080566
vt 0.249512 0.032715
vt 0.276855 0.029785
vt 0.274414 0.018555
vt 0.309082 0.036133
vt 0.292480 0.046387
vt 0.317871 0.053711
vt 0.319824 0.036621
vt 0.282227 0.049805
vt 0.279785 0.039551
vt 0.317871 0.047363
vt 0.103027 0.175293
vt 0.486816 0.232910
vt 0.016602 0.532227
vt 0.010254 0.534668
vt 0.030762 0.531250
vt 0.023438 0.531250
vt 0.004395 0.538574
vt 0.079102 0.078613
s 1
g Bip001 R Finger11
g park_cheshirecat_ob0_L0.right_arm_Material.001
usemtl Material.001
f 360/1/1 424/2/2 423/3/3 363/4/4
g Bip001 R Finger31
f 409/5/5 408/6/6 405/7/7 389/8/8
g Bip001 R ForeTwist
f 277/9/9 481/10/10 480/11/11 276/12/12
g Bip001 R UpperArm
f 289/13/13 288/14/14 287/15/15 199/16/16
g Bip001 R Finger01
f 173/17/17 178/18/18 177/19/19 174/20/20
g Bip001 R Hand
f 487/21/21 493/22/22 486/23/23 235/24/24
g Bip001 R Finger31
f 35/25/25 30/26/26 32/27/27 34/28/28
g Bip001 R ForeTwist
f 290/29/29 333/30/30 332/31/31 288/14/14
g Bip001 R Finger11
f 443/32/32 422/33/33 423/3/3 444/34/34
g Bip001 R Finger01
f 23/35/35 22/36/36 28/37/37
f 24/38/38 22/36/36 23/35/35
f 27/39/39 23/35/35 28/40/37
f 26/41/40 23/35/35 27/39/39
f 25/42/41 23/35/35 26/41/40
f 25/42/41 24/38/38 23/35/35
g Bip001 R Finger31
f 44/43/42 32/27/27 33/44/43
f 34/28/28 32/27/27 44/43/42
f 44/43/42 40/45/44 34/28/28
f 41/46/45 40/45/44 44/43/42
f 44/43/42 43/47/46 41/46/45
f 33/48/43 43/47/46 44/43/42
g Bip001 R Finger11
f 57/49/47 61/50/48 66/51/49
f 57/49/47 58/52/50 61/50/48
g Bip001 R Finger01
f 26/41/40 14/53/51 16/54/52 25/42/41
g Bip001 R Hand
f 300/55/53 339/56/54 338/57/55 299/58/56
g Bip001 R Finger11
f 61/50/48 59/59/57 60/60/58
f 61/50/48 58/52/50 59/59/57
f 63/61/59 62/62/60 60/60/58
f 61/50/48 65/63/61 66/64/49
f 60/60/58 65/63/61 61/50/48
f 60/60/58 62/62/60 65/63/61
g Bip001 R Finger21
f 71/43/62 70/27/63 82/44/64
f 72/28/65 70/27/63 71/43/62
g Bip001 R Hand
f 211/65/66 488/66/67 489/67/68 213/68/69
g Bip001 R Finger21
f 71/43/62 78/45/70 72/28/65
f 79/46/71 78/45/70 71/43/62
f 71/43/62 81/47/72 79/46/71
f 82/48/64 81/47/72 71/43/62
f 99/69/73 258/70/74 260/71/75 98/72/76
g Bip001 R Finger01
f 27/39/39 12/73/77 14/53/51 26/41/40
f 28/37/37 22/36/36 20/74/78 10/75/79
f 15/76/80 16/54/52 14/53/51 13/77/81
g Bip001 R ForeTwist
f 202/78/82 292/79/83 291/80/84 201/81/85
g Bip001 R Hand
f 451/82/86 457/83/87 456/84/88 452/85/89
g Bip001 R ForeTwist
f 205/86/90 495/87/91 494/88/92 207/89/93
g Bip001 R Hand
f 454/90/94 315/91/95 314/92/96 313/93/97
g Bip001 R ForeTwist
f 205/86/90 206/94/98 203/95/99 204/96/100
g Bip001 R Finger3
f 406/97/101 447/98/102 386/99/103 407/100/104
g Bip001 R Finger01
f 27/39/39 28/40/37 10/101/79 12/73/77
g Bip001 R Finger11
f 426/102/105 359/103/106 358/104/107 427/105/108
g Bip001 R Finger2
f 246/106/109 265/107/110 250/108/111 247/109/112
g Bip001 R ForeTwist
f 139/110/113 278/111/114 277/9/9 141/112/115
g Bip001 R UpperArm
f 287/15/15 331/113/116 330/114/117 286/115/118
g Bip001 R ForeTwist
f 496/116/119 508/117/120 509/118/121 495/87/91
g Bip001 R Finger11
f 49/119/122 62/62/60 64/120/123 48/121/124
g Bip001 R Finger31
f 405/7/7 408/6/6 403/122/125 404/123/126
f 37/124/127 39/125/128 47/126/129 38/127/130
g Bip001 R Finger1
f 420/128/131 421/129/132 419/130/133 368/131/134
g Bip001 R Finger31
f 402/132/135 403/122/125 401/133/136 400/134/137
g Bip001 R Finger2
f 111/135/138 110/136/139 88/137/140 86/138/141
g Bip001 R Finger0
f 227/139/142 491/140/143 490/141/144 228/142/145
g Bip001 R Finger31
f 389/8/8 405/7/7 406/97/101 407/100/104
g Bip001 R UpperArm
f 198/143/146 500/144/147 499/145/148 200/146/149
g Bip001 R Hand
f 230/147/150 489/67/68 488/66/67 231/148/151
g Bip001 R Finger1
f 416/149/152 417/150/153 440/151/154 438/152/155
g Bip001 R Finger31
f 35/25/25 36/153/156 29/154/157 30/26/26
g Bip001 R Finger1
f 418/155/158 417/150/153 416/149/152 370/156/159
g Bip001 R Finger01
f 227/139/142 171/157/160 225/158/161 226/159/162
g Bip001 R Clavicle
f 151/160/163 156/161/164 153/162/165 152/163/166
g Bip001 R ForeTwist
f 299/58/56 338/57/55 337/164/167 297/165/168
g Bip001 R Hand
f 238/166/169 240/167/170 236/168/171 237/169/172
g Bip001 R Finger11
f 420/170/131 366/171/173 365/172/174 364/173/175
g Bip001 R Finger01
f 226/159/162 225/158/161 224/174/176 223/175/177
g Bip001 RUpArmTwist
f 194/176/178 501/177/179 196/178/180 195/179/181
g Bip001 R Finger1
f 344/180/182 345/181/183 379/182/184 378/183/185
g Bip001 R Finger21
f 96/184/186 119/185/187 98/72/76
f 95/186/188 119/185/187 96/184/186
g Bip001 R Hand
f 122/187/189 121/188/190 120/189/191
f 123/190/192 121/188/190 122/187/189
f 317/191/193 342/192/194 316/193/195 130/194/196
g Bip001 R Clavicle
f 156/161/164 9/195/197 155/196/198
f 159/197/199 160/198/200 2/199/201
g Bip001 Spine2
f 165/200/202 4/201/203 3/202/204
f 166/203/205 4/201/203 165/200/202
g Bip001 RUpArmTwist
f 163/204/206 162/205/207 160/198/200 161/206/208
g Bip001 R Finger0
f 168/207/209 169/208/210 229/209/211
g Bip001 R Finger01
f 10/75/79 20/74/78 19/210/212 21/211/213
f 173/17/17 225/212/161 172/213/214
g Bip001 R Finger11
f 360/214/1 361/215/215 359/103/106 426/102/105
g Bip001 R Finger2
f 88/137/140 89/216/216 87/217/217 86/138/141
g Bip001 R Finger01
f 221/218/218 222/219/219 182/220/220 220/221/221
g Bip001 R Hand
f 414/222/222 181/223/223 168/207/209
f 414/222/222 117/224/224 181/223/223
f 230/147/150 167/225/225 229/226/211
f 231/148/151 167/225/225 230/147/150
f 235/24/24 234/227/226 233/228/227
f 107/229/228 343/230/229 245/231/230
f 514/232/231 343/230/229 107/229/228
f 122/187/189 249/233/232 123/190/192
f 87/234/217 249/233/232 122/187/189
g Bip001 R Finger21
f 256/235/233 258/236/74 257/237/234
f 259/238/235 258/236/74 256/235/233
f 73/25/236 74/153/237 67/154/238 68/26/239
f 271/239/240 272/240/241 269/241/242
f 97/242/243 272/240/241 271/239/240
g Bip001 R Finger31
f 37/124/127 38/127/130 36/153/156 35/25/25
g Bip001 Spine2
f 6/243/244 154/244/245 7/245/246
f 5/246/247 281/247/248 6/243/244
g Bip001 R Finger0
f 180/248/249 305/249/250 307/250/251
f 181/223/223 305/249/250 180/248/249
f 181/223/223 304/251/252 305/249/250
g Bip001 R Hand
f 117/224/224 304/251/252 181/223/223
f 116/252/253 304/251/252 117/224/224
f 116/252/253 302/253/254 304/251/252
g Bip001 Spine2
f 282/254/255 328/255/256 281/247/248
g Bip001 R Finger11
f 66/64/49 65/63/61 62/62/60 49/119/122
g Bip001 R Hand
f 300/55/53 340/256/257 339/56/54
f 301/257/258 340/256/257 300/55/53
f 339/56/54 340/256/257 341/258/259
g Bip001 R ForeTwist
f 204/96/100 203/95/99 292/79/83 202/78/82
g Bip001 R Finger1
f 368/131/134 419/130/133 417/150/153 418/155/158
g Bip001 R Hand
f 514/232/231 344/180/182 343/230/229
f 513/259/260 344/180/182 514/232/231
g Bip001 R Finger1
f 513/259/260 345/181/183 344/180/182
f 348/260/261 347/261/262 346/262/263
g Bip001 R ForeTwist
f 495/87/91 509/118/121 510/263/264 494/88/92
g Bip001 R Finger11
f 356/264/265 357/265/266 355/266/267
f 430/267/268 357/265/266 356/264/265
g Bip001 R Finger0
f 230/147/150 229/226/211 169/268/210 228/142/145
g Bip001 R Hand
f 213/68/69 212/269/269 303/270/270 211/65/66
f 374/271/271 376/272/272 377/273/273
f 344/180/182 378/183/185 343/230/229
g Bip001 R Finger11
f 384/274/274 359/103/106 361/215/215
f 384/274/274 358/104/107 359/103/106
g Bip001 R Finger31
f 393/275/275 392/276/276 391/277/277
f 393/275/275 412/278/278 392/276/276
f 398/279/279 397/280/280 396/281/281
f 392/282/276 411/283/282 410/284/283
f 412/285/278 411/283/282 392/282/276
g Bip001 RUpArmTwist
f 149/286/284 150/287/285 148/288/286 147/289/287
g Bip001 R Finger31
f 469/290/288 461/291/289 464/292/290 470/293/291
g Bip001 R ForeTwist
f 497/294/292 507/295/293 508/117/120 496/116/119
g Bip001 R Finger1
f 348/296/261 436/297/294 435/298/295
g Bip001 R Finger11
f 445/299/296 425/300/297 428/301/298
f 445/299/296 424/2/2 425/300/297
g Bip001 R Finger31
f 398/279/279 396/281/281 458/302/299
g Bip001 R Hand
f 233/228/227 487/21/21 235/24/24
g Bip001 RUpArmTwist
f 149/286/284 273/303/300 190/304/301 151/160/163
f 502/305/302 500/144/147 501/177/179
g Bip001 R Finger21
f 254/306/303 263/307/304 262/308/305 256/235/233
g Bip001 R Hand
f 437/309/306 513/310/260 512/311/307
g Bip001 R Finger1
f 513/310/260 437/309/306 346/312/263
g Bip001 R Hand
f 514/313/231 512/311/307 513/310/260
g Bip001 R Finger31
f 410/284/283 408/6/6 409/5/5 392/282/276
f 462/314/308 461/291/289 459/315/309 460/316/310
g Bip001 R Finger01
f 11/317/311 12/73/77 10/101/79 21/318/213
g Bip001 R Finger3
f 475/319/312 385/320/313 121/188/190 476/321/314
f 466/322/315 465/323/316 464/292/290 463/324/317
g Bip001 R Finger31
f 463/324/317 464/292/290 461/291/289 462/314/308
g Bip001 R UpperArm
f 146/325/318 325/326/319 324/327/320 144/328/321
g Bip001 R ForeTwist
f 280/329/322 484/330/323 483/331/324 279/332/325
g Bip001 R Finger01
f 220/221/221 511/333/326 223/175/177 221/218/218
g Bip001 R Hand
f 454/90/94 313/93/97 452/85/89 453/334/327
g Bip001 R Finger11
f 54/335/328 59/59/57 58/52/50 52/336/329
g Bip001 R Finger31
f 388/337/330 389/338/8 407/339/104 387/340/331
g Bip001 R Hand
f 114/341/332 308/342/333 301/257/258 115/343/334
g Bip001 R Finger21
f 261/344/335 272/240/241 97/242/243 260/345/75
g Bip001 R Finger2
f 247/109/112 105/346/336 107/229/228 245/231/230
g Bip001 R Hand
f 451/82/86 311/347/337 309/348/338 450/349/339
g Bip001 R Finger01
f 187/350/340 178/18/18 179/351/341 189/352/342
g Bip001 R Hand
f 339/56/54 341/258/259 342/192/194 317/191/193
f 311/347/337 312/353/343 310/354/344 309/348/338
f 211/65/66 303/270/270 210/355/345 209/356/346
g Bip001 R Clavicle
f 156/161/164 155/196/198 8/357/347 153/162/165
g Bip001 R Finger11
f 354/358/348 432/359/349 431/360/350 356/361/265
g Bip001 R Finger01
f 175/362/351 222/363/219 224/364/176 174/20/20
g Bip001 R Finger11
f 57/49/47 66/51/49 49/365/122 56/366/352
g Bip001 R Finger21
f 79/46/71 77/125/353 75/124/354 78/45/70
g Bip001 R Finger01
f 19/210/212 20/74/78 17/367/355 18/368/356
g Bip001 R Finger31
f 34/28/28 40/45/44 37/124/127 35/25/25
g Bip001 R Finger11
f 445/299/296 428/301/298 429/369/357 431/360/350
g Bip001 R Finger01
f 25/42/41 16/54/52 17/367/355 24/38/38
g Bip001 RUpArmTwist
f 285/370/358 284/371/359 283/372/360 166/373/205
g Bip001 R Finger1
f 368/374/134 367/375/361 366/171/173 420/170/131
g Bip001 R ForeTwist
f 137/376/362 279/332/325 278/111/114 139/110/113
g Bip001 R UpperArm
f 288/14/14 332/31/31 331/113/116 287/15/15
g Bip001 R ForeTwist
f 140/377/363 322/378/364 321/379/365 138/380/366
f 200/146/149 499/145/148 498/381/367 201/81/85
g Bip001 R Finger0
f 228/142/145 169/268/210 171/157/160 227/139/142
g Bip001 R Finger11
f 364/382/175 422/33/33 421/129/132 420/128/131
g Bip001 R Finger21
f 69/383/368 68/26/239 67/154/238 83/384/369
g Bip001 R Hand
f 115/343/334 301/257/258 302/253/254 116/252/253
g Bip001 R Finger01
f 223/175/177 224/174/176 222/219/219 221/218/218
f 217/385/370 184/386/371 186/387/372 216/388/373
g Bip001 RUpArmTwist
f 478/389/374 503/390/375 192/391/376 477/392/377
g Bip001 R Finger21
f 268/393/378 269/241/242 262/308/305 263/307/304
g Bip001 R Finger11
f 384/274/274 361/215/215 362/394/379 383/395/380
g Bip001 R Finger01
f 24/38/38 17/367/355 20/74/78 22/36/36
g Bip001 R Finger11
f 363/396/4 362/394/379 361/215/215 360/214/1
g Bip001 R Finger1
f 421/129/132 442/397/381 441/398/382 419/130/133
g Bip001 R Hand
f 476/321/314 124/399/383 453/334/327 455/400/384
g Bip001 R Finger21
f 75/124/354 76/127/385 74/153/237 73/25/236
g Bip001 R Finger11
f 444/34/34 432/359/349 433/401/386 443/32/32
g Bip001 R Finger21
f 100/402/387 257/403/234 258/70/74 99/69/73
g Bip001 R Hand
f 129/404/388 130/194/196 128/405/389 127/406/390
f 309/348/338 310/354/344 308/342/333 114/341/332
g Bip001 R UpperArm
f 500/144/147 504/407/391 505/408/392 499/145/148
g Bip001 R Finger21
f 103/409/393 251/410/394 253/411/395 102/412/396
g Bip001 RUpArmTwist
f 193/413/397 502/305/302 501/177/179 194/176/178
g Bip001 R ForeTwist
f 133/414/398 134/415/399 132/416/400 131/417/401
g Bip001 R Finger21
f 94/418/402 118/419/403 119/185/187 95/186/188
f 79/46/71 81/47/72 80/420/404 77/125/353
f 250/108/111 265/107/110 264/421/405 252/422/406
f 267/423/407 264/421/405 265/107/110 266/424/408
g Bip001 R ForeTwist
f 206/425/98 295/426/409 294/427/410 203/428/99
g Bip001 R Finger01
f 18/368/356 17/367/355 16/54/52 15/76/80
g Bip001 R UpperArm
f 196/178/180 501/177/179 500/144/147 198/143/146
g Bip001 R Hand
f 209/356/346 210/355/345 298/429/411 208/430/412
g Bip001 Spine2
f 165/200/202 3/202/204 1/431/413 164/432/414
g Bip001 R Finger3
f 470/293/291 464/292/290 465/323/316 467/433/415
g Bip001 RUpArmTwist
f 191/434/416 477/392/377 192/391/376 161/206/208
g Bip001 R Finger01
f 216/388/373 186/387/372 188/435/417 215/436/418
g Bip001 Spine2
f 164/432/414 1/431/413 162/205/207 163/204/206
g Bip001 R Finger2
f 87/234/217 89/437/216 248/438/419 249/233/232
g Bip001 R Finger31
f 41/46/45 43/47/46 42/420/420 39/125/128
f 46/439/421 42/420/420 31/440/422 45/441/423
g Bip001 R Finger01
f 187/350/340 189/352/342 188/442/417 186/443/372
g Bip001 RUpArmTwist
f 282/254/255 329/444/424 327/445/425 328/255/256
g Bip001 R Finger31
f 473/446/426 388/337/330 387/340/331 474/447/427
g Bip001 R Finger2
f 106/448/428 107/449/228 105/450/336 104/451/429
g Bip001 RUpArmTwist
f 152/163/166 328/255/256 327/445/425 150/287/285
g Bip001 R Finger11
f 426/452/105 425/300/297 424/2/2 360/1/1
g Bip001 R ForeTwist
f 324/327/320 332/31/31 333/30/30 323/453/430
f 298/454/411 299/58/56 297/165/168 296/455/431
g Bip001 R Finger2
f 244/456/432 249/233/232 248/438/419 246/106/109
g Bip001 R Finger11
f 383/395/380 353/457/433 355/266/267 384/274/274
f 427/105/108 358/104/107 357/265/266 430/267/268
g Bip001 R Finger01
f 185/458/434 184/459/371 218/460/435 183/461/436
g Bip001 R Hand
f 131/417/401 132/416/400 130/194/196 129/404/388
g Bip001 R Finger3
f 406/97/101 468/462/437 448/463/438 447/98/102
g Bip001 R Finger01
f 183/461/436 218/460/435 182/464/220 176/465/439
g Bip001 R Hand
f 120/466/191 446/467/440 113/468/441 122/469/189
f 231/148/151 488/66/67 487/21/21 233/228/227
f 303/470/270 304/251/252 302/253/254 210/471/345
g Bip001 R Finger2
f 250/108/111 251/472/394 105/346/336 247/109/112
g Bip001 R Finger21
f 101/473/442 255/474/443 257/403/234 100/402/387
g Bip001 R Hand
f 87/217/217 122/469/189 113/468/441 86/138/141
g Bip001 R Finger2
f 90/475/444 91/476/445 89/216/216 88/137/140
g Bip001 R Finger21
f 92/477/446 93/478/447 91/476/445 90/475/444
f 95/186/188 271/479/240 270/480/448 94/418/402
f 96/184/186 97/481/243 271/479/240 95/186/188
f 98/72/76 260/71/75 97/481/243 96/184/186
f 109/482/449 92/477/446 90/475/444 108/483/450
g Bip001 R Finger2
f 88/137/140 110/136/139 108/483/450 90/475/444
g Bip001 R Hand
f 115/343/334 112/484/451 113/468/441 114/341/332
f 450/349/339 309/348/338 114/341/332 113/468/441
f 452/85/89 313/93/97 311/347/337 451/82/86
f 453/334/327 124/399/383 126/485/452 454/90/94
f 454/90/94 126/485/452 128/405/389 315/91/95
g Bip001 R Finger01
f 185/458/434 177/19/19 178/18/18 187/350/340
g Bip001 R Hand
f 129/404/388 240/167/170 238/166/169 131/417/401
f 235/24/24 486/23/23 237/169/172 236/168/171
f 208/430/412 493/22/22 487/21/21 209/356/346
g Bip001 R ForeTwist
f 323/453/430 333/30/30 334/486/453 322/378/364
g Bip001 R Finger0
f 215/436/418 188/435/417 306/487/454 214/488/455
g Bip001 R Finger01
f 219/489/456 218/490/435 184/386/371 217/385/370
f 220/221/221 182/220/220 218/490/435 219/489/456
g Bip001 R Hand
f 377/273/273 378/183/185 371/491/457 373/492/458
f 233/228/227 232/493/459 167/225/225 231/148/151
f 375/494/460 376/272/272 374/271/271 234/227/226
f 242/495/461 376/272/272 375/494/460 241/496/462
f 241/496/462 375/494/460 236/168/171 240/167/170
f 236/168/171 375/494/460 234/227/226 235/24/24
g Bip001 R Finger21
f 75/124/354 77/125/353 85/126/463 76/127/385
g Bip001 R Finger01
f 492/497/464 491/140/143 227/139/142 226/159/162
f 492/497/464 216/388/373 215/436/418 491/140/143
g Bip001 R Finger0
f 214/488/455 490/141/144 491/140/143 215/436/418
g Bip001 R Finger21
f 256/235/233 257/237/234 255/498/443 254/306/303
g Bip001 R Finger01
f 223/175/177 511/333/326 492/497/464 226/159/162
f 217/385/370 216/388/373 492/497/464 511/333/326
g Bip001 R Hand
f 168/207/209 229/209/211 167/499/225 414/222/222
g Bip001 R Finger0
f 170/500/465 171/501/160 169/208/210 168/207/209
f 172/213/214 225/212/161 171/501/160 170/500/465
g Bip001 R Finger01
f 174/20/20 224/364/176 225/212/161 173/17/17
f 176/465/439 182/464/220 222/363/219 175/362/351
f 187/350/340 186/443/372 184/459/371 185/458/434
g Bip001 R Finger0
f 189/352/342 307/250/251 306/502/454 188/442/417
g Bip001 R Hand
f 210/471/345 302/253/254 301/257/258 300/55/53
f 210/471/345 300/55/53 299/58/56 298/454/411
g Bip001 RUpArmTwist
f 191/434/416 159/197/199 158/503/466 190/304/301
g Bip001 R ForeTwist
f 203/428/99 294/427/410 293/504/467 292/505/83
g Bip001 RUpArmTwist
f 197/506/468 286/115/118 284/371/359 285/370/358
g Bip001 Spine2
f 5/246/247 283/372/360 282/254/255 281/247/248
f 7/245/246 154/244/245 153/162/165 8/357/347
f 281/247/248 328/255/256 154/244/245 6/243/244
g Bip001 R Clavicle
f 159/197/199 2/199/201 157/507/469 158/503/466
g Bip001 R Finger0
f 180/248/249 307/250/251 189/352/342 179/351/341
f 168/207/209 181/223/223 180/248/249 170/500/465
f 170/500/465 180/248/249 179/351/341 172/213/214
g Bip001 R Finger21
f 254/306/303 255/498/443 253/508/395 252/422/406
f 259/238/235 261/344/335 260/345/75 258/236/74
f 256/235/233 262/308/305 261/344/335 259/238/235
g Bip001 R ForeTwist
f 278/111/114 482/509/470 481/10/10 277/9/9
g Bip001 R Finger21
f 252/422/406 264/421/405 263/307/304 254/306/303
g Bip001 R Hand
f 244/456/432 245/231/230 343/230/229 243/510/471
g Bip001 R Finger2
f 248/438/419 266/424/408 265/107/110 246/106/109
g Bip001 R Hand
f 343/230/229 378/183/185 377/273/273 376/272/272
f 377/273/273 373/492/458 232/493/459 374/271/271
f 232/493/459 373/492/458 372/511/472 167/225/225
g Bip001 R Finger1
f 370/512/159 371/491/457 369/513/473 418/514/158
f 418/514/158 369/513/473 367/375/361 368/374/134
g Bip001 R Finger11
f 356/264/265 355/266/267 353/457/433 354/515/348
g Bip001 R Finger1
f 350/516/474 349/517/475 347/261/262 348/260/261
f 346/262/263 347/261/262 345/181/183 513/259/260
f 349/517/475 381/518/476 380/519/477 347/261/262
g Bip001 R Finger11
f 382/520/478 351/521/479 353/457/433 383/395/380
g Bip001 R ForeTwist
f 142/522/480 323/453/430 322/378/364 140/377/363
g Bip001 R Finger11
f 382/520/478 365/172/174 366/171/173 381/518/476
g Bip001 R Finger1
f 380/519/477 381/518/476 366/171/173 367/375/361
f 379/182/184 369/513/473 371/491/457 378/183/185
g Bip001 R ForeTwist
f 201/81/85 291/80/84 289/523/13 200/146/149
g Bip001 R UpperArm
f 200/146/149 289/523/13 199/524/16 198/143/146
f 198/143/146 199/524/16 197/525/468 196/178/180
g Bip001 RUpArmTwist
f 196/178/180 197/525/468 285/526/358 195/179/181
f 195/179/181 285/526/358 166/203/205 165/200/202
f 195/179/181 165/200/202 164/432/414 194/176/178
f 194/176/178 164/432/414 163/204/206 193/413/397
g Bip001 Spine2
f 154/244/245 328/255/256 152/163/166 153/162/165
g Bip001 RUpArmTwist
f 284/371/359 329/444/424 282/254/255 283/372/360
f 286/115/118 330/114/117 329/444/424 284/371/359
g Bip001 R ForeTwist
f 293/504/467 334/486/453 333/30/30 290/29/29
f 294/427/410 335/527/481 334/486/453 293/504/467
f 295/426/409 336/528/482 335/527/481 294/427/410
f 297/165/168 337/164/167 336/528/482 295/426/409
g Bip001 R Hand
f 476/321/314 121/188/190 123/190/192 124/399/383
f 111/135/138 112/484/451 512/311/307 106/448/428
g Bip001 R Finger2
f 111/135/138 106/448/428 104/451/429 110/136/139
f 108/483/450 110/136/139 104/451/429 103/409/393
g Bip001 R Finger21
f 108/483/450 103/409/393 102/412/396 109/482/449
f 101/473/442 118/419/403 109/482/449 102/412/396
f 100/402/387 119/185/187 118/419/403 101/473/442
g Bip001 R Hand
f 512/311/307 514/313/231 107/449/228 106/448/428
g Bip001 R Finger21
f 98/72/76 119/185/187 100/402/387 99/69/73
g Bip001 R Finger11
f 354/515/348 353/457/433 351/521/479 352/529/483
g Bip001 R Hand
f 314/92/96 342/192/194 341/258/259 312/353/343
f 318/530/484 338/57/55 339/56/54 317/191/193
g Bip001 R ForeTwist
f 319/531/485 337/164/167 338/57/55 318/530/484
f 320/532/486 336/528/482 337/164/167 319/531/485
f 321/379/365 335/527/481 336/528/482 320/532/486
f 322/378/364 334/486/453 335/527/481 321/379/365
g Bip001 R UpperArm
f 325/326/319 331/113/116 332/31/31 324/327/320
f 326/533/487 330/114/117 331/113/116 325/326/319
g Bip001 RUpArmTwist
f 327/445/425 329/444/424 330/114/117 326/533/487
f 191/434/416 190/304/301 273/303/300 477/392/377
f 192/391/376 503/390/375 502/305/302 193/413/397
g Bip001 R ForeTwist
f 201/81/85 498/381/367 497/294/292 202/78/82
f 202/78/82 497/294/292 496/116/119 204/96/100
g Bip001 Spine2
f 166/373/205 283/372/360 5/246/247 4/534/203
g Bip001 R ForeTwist
f 486/23/23 510/263/264 485/535/488 237/169/172
f 239/536/489 133/414/398 131/417/401 238/166/169
g Bip001 R Hand
f 316/193/195 342/192/194 314/92/96 315/91/95
g Bip001 R Finger01
f 172/213/214 179/351/341 178/18/18 173/17/17
g Bip001 R ForeTwist
f 499/145/148 505/408/392 506/537/490 498/381/367
f 485/535/488 510/263/264 509/118/121 484/330/323
f 239/536/489 485/535/488 484/330/323 280/329/322
g Bip001 R Finger3
f 385/320/313 386/538/103 120/189/191 121/188/190
g Bip001 R ForeTwist
f 136/539/491 320/532/486 319/531/485 134/415/399
f 144/328/321 324/327/320 323/453/430 142/522/480
f 296/455/431 297/165/168 295/426/409 206/425/98
g Bip001 RUpArmTwist
f 147/289/287 274/540/492 273/303/300 149/286/284
f 274/540/492 478/389/374 477/392/377 273/303/300
g Bip001 R UpperArm
f 479/541/493 504/407/391 503/390/375 478/389/374
f 275/542/494 479/541/493 478/389/374 274/540/492
f 480/11/11 505/408/392 504/407/391 479/541/493
g Bip001 R ForeTwist
f 481/10/10 506/537/490 505/408/392 480/11/11
f 484/330/323 509/118/121 508/117/120 483/331/324
g Bip001 R Finger1
f 380/519/477 367/375/361 369/513/473 379/182/184
g Bip001 R ForeTwist
f 279/332/325 483/331/324 482/509/470 278/111/114
f 135/543/495 280/329/322 279/332/325 137/376/362
f 141/112/115 277/9/9 276/12/12 143/544/496
g Bip001 R UpperArm
f 145/545/497 275/542/494 274/540/492 147/289/287
g Bip001 R ForeTwist
f 135/543/495 136/539/491 134/415/399 133/414/398
f 137/376/362 138/380/366 136/539/491 135/543/495
f 139/110/113 140/377/363 138/380/366 137/376/362
f 141/112/115 142/522/480 140/377/363 139/110/113
f 292/505/83 293/504/467 290/29/29 291/546/84
g Bip001 R UpperArm
f 147/289/287 148/288/286 146/325/318 145/545/497
g Bip001 R Hand
f 127/406/390 241/496/462 240/167/170 129/404/388
g Bip001 R Finger11
f 363/4/4 423/3/3 422/33/33 364/382/175
f 427/547/108 428/301/298 425/300/297 426/452/105
f 430/548/268 429/369/357 428/301/298 427/547/108
f 356/361/265 431/360/350 429/369/357 430/548/268
f 350/549/474 434/550/498 433/401/386 352/551/483
g Bip001 R Finger1
f 348/296/261 435/298/295 434/550/498 350/549/474
f 437/309/306 436/297/294 348/296/261 346/312/263
f 440/151/154 436/297/294 437/309/306 438/152/155
g Bip001 R Hand
f 416/149/152 438/152/155 439/552/499 415/553/500
g Bip001 R Finger1
f 440/151/154 417/150/153 419/130/133 441/398/382
f 441/398/382 435/298/295 436/297/294 440/151/154
f 441/398/382 442/397/381 434/550/498 435/298/295
g Bip001 R Finger11
f 443/32/32 433/401/386 434/550/498 442/397/381
f 445/299/296 431/360/350 432/359/349 444/34/34
f 444/34/34 423/3/3 424/2/2 445/299/296
f 421/129/132 422/33/33 443/32/32 442/397/381
g Bip001 R Hand
f 310/354/344 340/256/257 301/257/258 308/342/333
g Bip001 R Finger3
f 386/99/103 447/98/102 446/467/440 120/466/191
g Bip001 R Hand
f 117/224/224 439/552/499 512/311/307 116/252/253
g Bip001 R Finger31
f 413/554/501 411/283/282 412/285/278 394/555/502
g Bip001 R Hand
f 125/556/503 242/495/461 241/496/462 127/406/390
f 125/556/503 126/485/452 124/399/383 123/190/192
f 452/85/89 456/84/88 455/400/384 453/334/327
f 450/349/339 449/557/504 457/83/87 451/82/86
f 450/349/339 113/468/441 446/467/440 449/557/504
g Bip001 R Finger31
f 404/123/126 468/462/437 406/97/101 405/7/7
f 410/284/283 401/133/136 403/122/125 408/6/6
f 413/554/501 401/133/136 410/284/283 411/283/282
f 413/554/501 399/558/505 400/134/137 401/133/136
f 400/134/137 399/558/505 397/280/280 398/279/279
f 395/559/506 394/560/502 412/278/278 393/275/275
f 391/277/277 392/276/276 409/561/5 390/562/507
f 390/562/507 409/561/5 389/338/8 388/337/330
g Bip001 R ForeTwist
f 237/169/172 485/535/488 239/536/489 238/166/169
g Bip001 R Finger2
f 91/563/445 266/424/408 248/438/419 89/437/216
g Bip001 R Finger21
f 268/393/378 263/307/304 264/421/405 267/423/407
g Bip001 R Finger11
f 364/173/175 365/172/174 362/394/379 363/396/4
g Bip001 R Hand
f 132/416/400 318/530/484 317/191/193 130/194/196
g Bip001 R Finger21
f 271/239/240 269/241/242 268/393/378 270/564/448
g Bip001 R Finger3
f 476/321/314 455/400/384 466/322/315 475/319/312
g Bip001 R Finger0
f 213/68/69 489/67/68 490/141/144 214/488/455
g Bip001 R Finger3
f 474/447/427 387/340/331 385/320/313 475/319/312
g Bip001 R Finger31
f 472/565/508 390/562/507 388/337/330 473/446/426
f 471/566/509 391/277/277 390/562/507 472/565/508
f 471/566/509 395/559/506 393/275/275 391/277/277
g Bip001 R Finger21
f 267/423/407 266/424/408 91/563/445 93/567/447
g Bip001 R Finger31
f 398/279/279 458/302/299 460/316/310 459/315/309
f 459/315/309 461/291/289 469/290/288 402/132/135
f 470/293/291 468/462/437 404/123/126 469/290/288
f 402/132/135 469/290/288 404/123/126 403/122/125
f 398/279/279 459/315/309 402/132/135 400/134/137
g Bip001 R Finger3
f 448/463/438 467/433/415 457/83/87 449/557/504
f 457/83/87 467/433/415 465/323/316 456/84/88
f 456/84/88 465/323/316 466/322/315 455/400/384
f 475/319/312 466/322/315 463/324/317 474/447/427
g Bip001 R Finger31
f 473/446/426 462/314/308 460/316/310 472/565/508
f 472/565/508 460/316/310 458/302/299 471/566/509
g Bip001 RUpArmTwist
f 193/413/397 163/204/206 161/206/208 192/391/376
g Bip001 R Hand
f 372/511/472 373/492/458 371/491/457 370/512/159
f 234/227/226 374/271/271 232/493/459 233/228/227
g Bip001 R ForeTwist
f 134/415/399 319/531/485 318/530/484 132/416/400
g Bip001 R Clavicle
f 190/304/301 158/503/466 156/161/164 151/160/163
g Bip001 R Finger0
f 228/142/145 490/141/144 489/67/68 230/147/150
g Bip001 R Finger1
f 379/182/184 345/181/183 347/261/262 380/519/477
g Bip001 R Finger0
f 212/568/269 305/249/250 304/251/252 303/470/270
g Bip001 R Finger11
f 383/395/380 362/394/379 365/172/174 382/520/478
g Bip001 R ForeTwist
f 208/430/412 298/429/411 296/569/431 207/89/93
f 207/89/93 296/569/431 206/94/98 205/86/90
f 207/89/93 494/88/92 493/22/22 208/430/412
g Bip001 R UpperArm
f 143/544/496 276/12/12 275/542/494 145/545/497
g Bip001 R Finger11
f 352/551/483 433/401/386 432/359/349 354/358/348
g Bip001 R Finger21
f 262/308/305 269/241/242 272/240/241 261/344/335
f 118/419/403 94/418/402 92/477/446 109/482/449
g Bip001 R ForeTwist
f 204/96/100 496/116/119 495/87/91 205/86/90
g Bip001 R Finger3
f 470/293/291 467/433/415 448/463/438 468/462/437
g Bip001 R Hand
f 127/406/390 128/405/389 126/485/452 125/556/503
f 313/93/97 314/92/96 312/353/343 311/347/337
g Bip001 R ForeTwist
f 143/544/496 144/328/321 142/522/480 141/112/115
g Bip001 R Finger21
f 102/412/396 253/411/395 255/474/443 101/473/442
g Bip001 R Finger01
f 217/385/370 511/333/326 220/221/221 219/489/456
g Bip001 R Hand
f 343/230/229 376/272/272 242/495/461 243/510/471
g Bip001 R ForeTwist
f 291/546/84 290/29/29 288/14/14 289/13/13
g Bip001 R Finger21
f 84/439/510 85/126/463 77/125/353 80/420/404
f 84/439/510 80/420/404 69/440/368 83/441/369
f 69/440/368 80/420/404 81/47/72 82/48/64
f 72/28/65 78/45/70 75/124/354 73/25/236
g Bip001 R ForeTwist
f 494/88/92 510/263/264 486/23/23 493/22/22
g Bip001 R Finger21
f 82/44/64 70/27/63 68/26/239 69/383/368
g Bip001 R Finger11
f 51/570/511 52/336/329 56/366/352 50/571/512
f 60/60/58 59/59/57 54/335/328 63/61/59
f 52/336/329 58/52/50 57/49/47 56/366/352
f 64/120/123 62/62/60 63/61/59 55/572/513
f 55/572/513 63/61/59 54/335/328 53/573/514
f 53/573/514 54/335/328 52/336/329 51/570/511
f 50/571/512 56/366/352 49/365/122 48/574/124
g Bip001 RUpArmTwist
f 150/287/285 327/445/425 326/533/487 148/288/286
g Bip001 R Finger31
f 46/439/421 47/126/129 39/125/128 42/420/420
f 31/440/422 42/420/420 43/47/46 33/48/43
f 41/46/45 39/125/128 37/124/127 40/45/44
f 31/383/422 30/26/26 29/154/157 45/384/423
f 33/44/43 32/27/27 30/26/26 31/383/422
g Bip001 R Finger21
f 73/25/236 68/26/239 70/27/63 72/28/65
g Bip001 R UpperArm
f 276/12/12 480/11/11 479/541/493 275/542/494
g Bip001 R ForeTwist
f 133/414/398 239/536/489 280/329/322 135/543/495
g Bip001 R Finger11
f 349/517/475 351/521/479 382/520/478 381/518/476
g Bip001 RUpArmTwist
f 151/160/163 152/163/166 150/287/285 149/286/284
g Bip001 R Finger21
f 252/422/406 253/508/395 251/472/394 250/108/111
g Bip001 R Finger11
f 352/529/483 351/521/479 349/517/475 350/516/474
g Bip001 R Finger3
f 449/557/504 446/467/440 447/98/102 448/463/438
g Bip001 R ForeTwist
f 482/509/470 507/295/293 506/537/490 481/10/10
g Bip001 R UpperArm
f 148/288/286 326/533/487 325/326/319 146/325/318
g Bip001 R Finger21
f 267/423/407 93/567/447 270/564/448 268/393/378
g Bip001 R Hand
f 512/311/307 439/552/499 438/152/155 437/309/306
g Bip001 R Finger31
f 394/555/502 397/280/280 399/558/505 413/554/501
g Bip001 R ForeTwist
f 483/331/324 508/117/120 507/295/293 482/509/470
g Bip001 R Finger2
f 247/109/112 245/231/230 244/456/432 246/106/109
g Bip001 R Finger3
f 387/340/331 407/339/104 386/538/103 385/320/313
g Bip001 R Hand
f 113/468/441 112/484/451 111/135/138 86/138/141
g Bip001 R Finger0
f 214/488/455 306/487/454 212/269/269 213/68/69
g Bip001 R Finger31
f 471/566/509 458/302/299 396/281/281 395/559/506
g Bip001 R Hand
f 415/553/500 439/552/499 117/224/224 414/222/222
g Bip001 R Clavicle
f 191/434/416 161/206/208 160/198/200 159/197/199
g Bip001 R Finger31
f 474/447/427 463/324/317 462/314/308 473/446/426
g Bip001 R UpperArm
f 199/16/16 287/15/15 286/115/118 197/506/468
g Bip001 R Finger31
f 396/281/281 397/280/280 394/560/502 395/559/506
g Bip001 R Finger01
f 183/461/436 176/465/439 177/19/19 185/458/434
g Bip001 R Hand
f 123/190/192 249/233/232 244/456/432 243/510/471
f 123/190/192 243/510/471 242/495/461 125/556/503
g Bip001 R ForeTwist
f 138/380/366 321/379/365 320/532/486 136/539/491
g Bip001 R Finger01
f 174/20/20 177/19/19 176/465/439 175/362/351
g Bip001 R Finger11
f 384/274/274 355/266/267 357/265/266 358/104/107
g Bip001 R Clavicle
f 158/503/466 157/507/469 9/195/197 156/161/164
g Bip001 R Hand
f 209/356/346 487/21/21 488/66/67 211/65/66
f 370/156/159 416/149/152 415/553/500 372/575/472
g Bip001 R Finger2
f 104/451/429 105/450/336 251/410/394 103/409/393
g Bip001 R Finger01
f 13/77/81 14/53/51 12/73/77 11/317/311
g Bip001 R ForeTwist
f 498/381/367 506/537/490 507/295/293 497/294/292
g Bip001 R UpperArm
f 145/545/497 146/325/318 144/328/321 143/544/496
g Bip001 R Hand
f 312/353/343 341/258/259 340/256/257 310/354/344
f 116/252/253 512/311/307 112/484/451 115/343/334
f 372/575/472 415/553/500 414/222/222 167/499/225
g Bip001 R Finger0
f 306/502/454 307/250/251 305/249/250 212/568/269
g Bip001 R UpperArm
f 503/390/375 504/407/391 500/144/147 502/305/302
g Bip001 R Hand
f 130/194/196 316/193/195 315/91/95 128/405/389
g Bip001 R Finger21
f 94/418/402 270/480/448 93/478/447 92/477/446
g Bip001 Spine2
f 160/198/200 162/205/207 1/431/413 3/202/204 4/201/203 5/246/247 6/243/244 7/245/246 8/357/347 155/196/198 9/195/197 157/507/469 2/199/201
