# Blender 5.1.1
# www.blender.org
mtllib right_leg.mtl
g park_cheshirecat_ob0_L0.right_leg_park_cheshirecat_model0.005
v 0.104400 -0.060852 0.000962
v 0.094695 -0.087952 -0.000182
v 0.086242 -0.087219 -0.038940
v 0.097686 -0.059875 -0.042541
v 0.067748 -0.085266 -0.068114
v 0.078063 -0.055115 -0.077636
v 0.028258 -0.077209 -0.083739
v 0.034606 -0.043518 -0.094970
v -0.010987 -0.070129 -0.086120
v -0.012696 -0.032288 -0.096374
v -0.048707 -0.062561 -0.068786
v -0.054932 -0.022522 -0.076415
v -0.077760 -0.057190 -0.037841
v -0.090577 -0.014587 -0.039550
v -0.089967 -0.054993 0.007645
v -0.101930 -0.014465 0.012681
v 0.116637 -0.035339 -0.046447
v 0.093139 -0.025574 -0.091552
v 0.048034 -0.008850 -0.119933
v -0.015992 0.009827 -0.114196
v -0.063355 0.023743 -0.088012
v -0.102174 0.032776 -0.041381
v -0.114137 0.032044 0.019288
v -0.090455 -0.021057 0.064179
v 0.120284 -0.035461 0.003297
v 0.074279 -0.140381 0.037030
v 0.078857 -0.116394 0.037743
v 0.086242 -0.085998 0.042024
v 0.095214 -0.059631 0.046067
v 0.070312 -0.167786 0.037431
v 0.052001 -0.163025 0.065064
v 0.054137 -0.135681 0.064820
v 0.024474 -0.158264 0.079926
v 0.026427 -0.130798 0.082459
v -0.006348 -0.127991 0.083314
v -0.030152 -0.158691 0.067292
v -0.035279 -0.127258 0.069886
v -0.050660 -0.162964 0.042794
v -0.058839 -0.128845 0.037209
v -0.066407 -0.131836 -0.001250
v -0.057252 -0.168274 -0.006835
v 0.057006 -0.112366 0.066621
v 0.028258 -0.108581 0.087342
v -0.007203 -0.104553 0.088441
v -0.040772 -0.100525 0.074494
v -0.067628 -0.097595 0.042817
v -0.076783 -0.096863 0.002198
v -0.080445 -0.057434 0.053254
v -0.049439 -0.064148 0.084443
v -0.008302 -0.070984 0.099427
v 0.031066 -0.076843 0.097108
v 0.061706 -0.082092 0.073670
v -0.053712 -0.030090 0.094788
v -0.009522 -0.040222 0.113526
v 0.032958 -0.048035 0.109132
v 0.069030 -0.054993 0.082673
v -0.102296 0.023987 0.080354
v -0.060181 0.013489 0.114686
v -0.010499 0.000061 0.134156
v 0.037292 -0.013489 0.130128
v 0.082915 -0.025574 0.098817
v 0.110564 -0.033264 0.051865
v 0.076354 -0.169983 0.004823
v 0.081664 -0.142883 0.002168
v 0.070495 -0.170105 -0.026610
v 0.074157 -0.143066 -0.029784
v 0.054015 -0.169617 -0.052611
v 0.055663 -0.142761 -0.056945
v 0.027709 -0.140503 -0.070251
v 0.002441 -0.169067 -0.069945
v -0.002930 -0.137085 -0.072387
v -0.031129 -0.134766 -0.059936
v -0.055543 -0.132996 -0.036803
v -0.064820 -0.099182 -0.036864
v -0.038575 -0.102844 -0.061950
v -0.006837 -0.107971 -0.076476
v 0.026672 -0.112854 -0.075622
v 0.058288 -0.116516 -0.061156
v 0.078368 -0.117615 -0.032958
v 0.086883 -0.118347 0.000443
v 0.041625 -0.245811 0.190980
v 0.039794 -0.239303 0.188050
v 0.041930 -0.238449 0.189027
v 0.038757 -0.236481 0.185609
v 0.042113 -0.235184 0.186707
v 0.042358 -0.231995 0.181947
v 0.045592 -0.236526 0.186097
v 0.044189 -0.239258 0.188538
v 0.039977 -0.240906 0.186707
v 0.038879 -0.239227 0.183656
v 0.038329 -0.237686 0.179749
v 0.038451 -0.233871 0.180970
v 0.042480 -0.240715 0.182679
v 0.043334 -0.238205 0.167176
v 0.039001 -0.236145 0.167176
v 0.039123 -0.232025 0.167542
v 0.043151 -0.229965 0.168031
v 0.047240 -0.231949 0.168153
v 0.046630 -0.233826 0.181580
v 0.047485 -0.236084 0.167786
v 0.046874 -0.237640 0.180482
v 0.042785 -0.239746 0.179383
v 0.045837 -0.239273 0.184022
v 0.044372 -0.240944 0.187074
v 0.042297 -0.241600 0.186219
v -0.025514 -0.245796 0.105775
v -0.025025 -0.246918 0.119202
v -0.033204 -0.197876 0.104676
v -0.033082 -0.216522 0.108582
v -0.037843 -0.207977 0.121400
v 0.047362 -0.195343 0.095155
v 0.021972 -0.176147 0.089967
v 0.049621 -0.189087 0.080018
v 0.023437 -0.168884 0.082826
v 0.050841 -0.180725 0.068208
v 0.064880 -0.203400 0.064942
v 0.063293 -0.209381 0.084351
v 0.063293 -0.213867 0.101869
v -0.004884 -0.253879 0.091370
v 0.019042 -0.255590 0.072083
v -0.004029 -0.255290 0.068116
v 0.019958 -0.256588 0.043992
v -0.004151 -0.255831 0.041947
v 0.022155 -0.256917 0.016625
v 0.003783 -0.256853 -0.014953
v 0.025085 -0.256440 -0.011657
v -0.000489 -0.256895 0.013261
v -0.023682 -0.254760 0.011262
v -0.017579 -0.255037 -0.017760
v -0.011964 -0.254682 -0.042235
v 0.007323 -0.256178 -0.041320
v 0.029174 -0.255104 -0.039855
v 0.046569 -0.254299 -0.032653
v 0.046386 -0.253790 -0.008208
v 0.044433 -0.254955 0.020051
v 0.044250 -0.255850 0.045228
v 0.046325 -0.256567 0.072907
v 0.044982 -0.258087 0.096070
v 0.014892 -0.250446 0.102723
v -0.007203 -0.251209 0.104920
v -0.008912 -0.251034 0.118287
v -0.009400 -0.251453 0.131348
v 0.008666 -0.249447 0.133363
v -0.009278 -0.252882 0.143617
v 0.009521 -0.251232 0.145997
v -0.010377 -0.252220 0.160584
v 0.006957 -0.249275 0.163026
v 0.001464 -0.242874 0.170716
v -0.011475 -0.244118 0.171327
v -0.028077 -0.247368 0.157411
v -0.027711 -0.248623 0.142640
v -0.026002 -0.246422 0.130616
v -0.028077 -0.246788 0.090821
v -0.025758 -0.254026 0.066346
v -0.031739 -0.254473 0.040002
v -0.047608 -0.249767 0.032184
v 0.027831 -0.208832 0.140992
v 0.028808 -0.212250 0.152467
v 0.044738 -0.211029 0.151795
v 0.030700 -0.216614 0.162537
v 0.045592 -0.214966 0.161683
v 0.059325 -0.219055 0.162293
v 0.052001 -0.223022 0.171082
v 0.043517 -0.222351 0.171693
v 0.035644 -0.222504 0.171082
v 0.017455 -0.218902 0.124879
v 0.019042 -0.220764 0.140382
v 0.020690 -0.222900 0.152772
v 0.025268 -0.226761 0.164124
v 0.034545 -0.228683 0.173036
v 0.043273 -0.228928 0.174744
v 0.053466 -0.228714 0.173036
v 0.063842 -0.228561 0.163148
v 0.065917 -0.239532 0.164124
v 0.054809 -0.237274 0.174867
v 0.042785 -0.237213 0.176698
v 0.033202 -0.237228 0.174500
v 0.024047 -0.236542 0.165955
v 0.019653 -0.235886 0.151917
v 0.018310 -0.235351 0.137330
v 0.015258 -0.232635 0.115418
v 0.015380 -0.219025 0.118592
v 0.023132 -0.203613 0.125855
v -0.046021 -0.182312 0.049378
v -0.047242 -0.188965 0.061494
v -0.028687 -0.170288 0.069886
v -0.059449 -0.205810 0.065553
v -0.055543 -0.201569 0.045518
v -0.053101 -0.186645 0.020654
v -0.057374 -0.220062 0.036004
v -0.062867 -0.222107 0.057557
v -0.067262 -0.224243 0.075806
v -0.064942 -0.239609 0.072907
v -0.068726 -0.240372 0.089295
v -0.058717 -0.248924 0.074525
v -0.061524 -0.250248 0.091157
v -0.071290 -0.251175 0.125550
v -0.052979 -0.253414 0.127992
v -0.065797 -0.250801 0.105714
v -0.050416 -0.252390 0.108827
v -0.048219 -0.252033 0.095033
v -0.044434 -0.252764 0.080781
v -0.040040 -0.251949 0.060883
v -0.053712 -0.248676 0.056733
v -0.060548 -0.238861 0.054093
v -0.053712 -0.237884 0.030447
v 0.033141 -0.241554 0.174012
v 0.042785 -0.251579 0.167664
v 0.043029 -0.254398 0.150575
v 0.021361 -0.247871 0.132752
v 0.042419 -0.255543 0.129701
v 0.019286 -0.246750 0.116639
v 0.054809 -0.242889 0.174012
v 0.064696 -0.250896 0.151734
v 0.042174 -0.256577 0.110902
v 0.065368 -0.250107 0.046449
v 0.064452 -0.248863 0.023785
v 0.064574 -0.246963 -0.000487
v 0.053039 -0.248485 -0.044372
v -0.010987 -0.247688 -0.061156
v -0.026124 -0.248753 -0.046447
v -0.038209 -0.250069 -0.018035
v -0.042970 -0.249351 0.008729
v -0.032472 -0.246651 0.100160
v -0.034180 -0.248863 0.115174
v -0.036378 -0.249931 0.132325
v -0.050904 -0.191467 -0.010192
v -0.047486 -0.212891 -0.013946
v -0.038697 -0.193054 -0.038512
v -0.034180 -0.213623 -0.040465
v -0.019288 -0.193054 -0.059386
v -0.015626 -0.213440 -0.061156
v 0.005981 -0.193176 -0.069396
v 0.008910 -0.213287 -0.070129
v 0.032287 -0.193176 -0.066100
v 0.034362 -0.212952 -0.066283
v 0.053771 -0.193176 -0.050048
v 0.054870 -0.212524 -0.049377
v 0.067504 -0.193115 -0.024108
v 0.066711 -0.212921 -0.023559
v 0.065856 -0.235992 -0.024810
v 0.055602 -0.235748 -0.048888
v 0.037048 -0.235626 -0.065734
v 0.011352 -0.235733 -0.070556
v -0.012940 -0.235336 -0.063476
v -0.029664 -0.236496 -0.045165
v -0.043580 -0.236206 -0.017211
v -0.048707 -0.236999 0.008469
v -0.052125 -0.217834 0.012177
v 0.009887 -0.248169 -0.065063
v 0.036132 -0.248085 -0.059569
v 0.060302 -0.249447 -0.025237
v 0.069213 -0.234421 0.001374
v 0.071593 -0.213135 0.004899
v 0.072936 -0.192444 0.006715
v 0.029967 -0.169800 -0.066650
v -0.023560 -0.169556 -0.059508
v -0.045167 -0.169311 -0.037597
v -0.054932 -0.164978 0.026782
v -0.004517 -0.157532 0.079835
v -0.004517 -0.168457 0.081788
v -0.030518 -0.178223 0.076539
v -0.049317 -0.195038 0.076569
v -0.063844 -0.209503 0.082093
v -0.071046 -0.225983 0.091493
v -0.071900 -0.240738 0.104859
v -0.076539 -0.241577 0.123963
v -0.072144 -0.249840 0.137513
v -0.053834 -0.252689 0.143006
v -0.040284 -0.248222 0.145570
v -0.067384 -0.243988 0.150575
v -0.076783 -0.240250 0.136292
v -0.076539 -0.229111 0.123719
v -0.073487 -0.227737 0.106385
v -0.067994 -0.212555 0.096192
v -0.051637 -0.201141 0.092164
v -0.032105 -0.186279 0.088380
v -0.006226 -0.175415 0.087129
v 0.068725 -0.192261 0.040177
v 0.069945 -0.220734 0.056626
v 0.070312 -0.214661 0.034417
v 0.070129 -0.236282 0.051118
v 0.069518 -0.235351 0.027501
v 0.065185 -0.251095 0.071778
v 0.070251 -0.238373 0.073579
v 0.064208 -0.251373 0.093934
v 0.070373 -0.240860 0.094483
v 0.063476 -0.251060 0.111146
v 0.069640 -0.241394 0.113709
v 0.063659 -0.251102 0.131165
v 0.069579 -0.241211 0.132142
v 0.070861 -0.240585 0.150330
v 0.062011 -0.248329 0.165711
v 0.042785 -0.245094 0.175477
v 0.025207 -0.245369 0.166688
v 0.022216 -0.248344 0.150086
v 0.017089 -0.234207 0.121705
v 0.014159 -0.219696 0.127442
v 0.014403 -0.219269 0.121644
v 0.010253 -0.205658 0.129945
v 0.016235 -0.235489 0.135865
v 0.013671 -0.233841 0.125001
v 0.014403 -0.233047 0.118165
v 0.010497 -0.249771 0.111268
v 0.009154 -0.249153 0.121583
v 0.017944 -0.235992 0.146241
v 0.016357 -0.220489 0.137696
v 0.009765 -0.207642 0.139039
v -0.008912 -0.203949 0.138917
v -0.009400 -0.201263 0.129151
v -0.024781 -0.207306 0.135621
v -0.024171 -0.205749 0.127015
v 0.015990 -0.197845 0.116456
v 0.011840 -0.202026 0.123841
v -0.010377 -0.198486 0.123292
v -0.026368 -0.202728 0.119447
v -0.009766 -0.192688 0.110536
v 0.019164 -0.184631 0.102052
v 0.046020 -0.201752 0.109132
v 0.046081 -0.204468 0.122193
v 0.046630 -0.208282 0.138795
v 0.064574 -0.217682 0.151124
v 0.069518 -0.229019 0.150514
v 0.070129 -0.228943 0.134400
v 0.069762 -0.227661 0.115968
v 0.070251 -0.226532 0.097108
v 0.069518 -0.223938 0.077760
v 0.062987 -0.215668 0.117432
v 0.064574 -0.216949 0.136475
v -0.008424 -0.183472 0.097474
v -0.054444 -0.204986 0.105225
v -0.071290 -0.214874 0.109254
v -0.073121 -0.216919 0.125611
v -0.075562 -0.229019 0.136536
v -0.067628 -0.236343 0.150636
v -0.056031 -0.236145 0.156434
v -0.053956 -0.244919 0.154603
v -0.043824 -0.234161 0.156800
v -0.057130 -0.227707 0.155702
v -0.043702 -0.225845 0.156678
v -0.045045 -0.220245 0.154054
v -0.057374 -0.219482 0.151429
v -0.042359 -0.214538 0.144776
v -0.037110 -0.226776 0.145936
v -0.035767 -0.240524 0.146180
v -0.045045 -0.240860 0.154725
v -0.031739 -0.240326 0.133973
v -0.030885 -0.238281 0.118653
v -0.030763 -0.232544 0.105103
v -0.032716 -0.234329 0.142335
v -0.028199 -0.223419 0.157899
v -0.030030 -0.234894 0.156922
v -0.020509 -0.225250 0.167909
v -0.023072 -0.234756 0.168397
v -0.011231 -0.234924 0.172425
v -0.009766 -0.225204 0.171082
v 0.003173 -0.234650 0.171327
v 0.003173 -0.225052 0.170472
v 0.014159 -0.236008 0.160951
v 0.014770 -0.223083 0.158509
v 0.000976 -0.217560 0.167542
v -0.008912 -0.216949 0.167298
v -0.017701 -0.217468 0.164979
v -0.030885 -0.232498 0.131898
v -0.031739 -0.221405 0.143372
v -0.024049 -0.212006 0.155579
v -0.008424 -0.209350 0.156678
v 0.008544 -0.212646 0.156678
v 0.017089 -0.221313 0.146851
v 0.009399 -0.210724 0.147767
v -0.008790 -0.206390 0.147401
v -0.025391 -0.209625 0.145814
v -0.030396 -0.219421 0.133607
v -0.029542 -0.218140 0.124146
v -0.030030 -0.231323 0.121705
v -0.028321 -0.215668 0.115479
v -0.028321 -0.229462 0.111390
v -0.022584 -0.243042 0.167542
v -0.030640 -0.212524 0.107423
v -0.067628 -0.227890 0.150269
v -0.071290 -0.218536 0.137757
v -0.058228 -0.210846 0.129456
v -0.056031 -0.207642 0.114991
v -0.038819 -0.203461 0.112855
v -0.039674 -0.212219 0.134827
v -0.058839 -0.213196 0.140687
v -0.066529 -0.221802 0.148682
v -0.032594 -0.227234 0.135011
v -0.031617 -0.224945 0.120850
v -0.029176 -0.230652 0.102235
v -0.005860 -0.233200 0.166688
v -0.010011 -0.235550 0.165955
v -0.008546 -0.239456 0.184998
v -0.010987 -0.240295 0.183900
v -0.008912 -0.237823 0.186463
v -0.007447 -0.237060 0.182435
v -0.007935 -0.234405 0.184022
v -0.007081 -0.231796 0.179994
v -0.006593 -0.235397 0.178773
v -0.006226 -0.228912 0.167298
v -0.011231 -0.230148 0.180360
v -0.010621 -0.226929 0.167298
v -0.014771 -0.229324 0.166566
v -0.015015 -0.232101 0.179383
v -0.014405 -0.233520 0.165955
v -0.014771 -0.235626 0.178040
v -0.010621 -0.237228 0.177552
v -0.014649 -0.237198 0.181825
v -0.010865 -0.238449 0.181214
v -0.013673 -0.239517 0.184510
v -0.011475 -0.244926 0.188050
v -0.013917 -0.237976 0.186097
v -0.014771 -0.234619 0.183534
v -0.011597 -0.233185 0.184632
v -0.011597 -0.237060 0.186952
v -0.055421 -0.239700 0.167054
v -0.057984 -0.238892 0.167664
v -0.054078 -0.236114 0.164491
v -0.057862 -0.234817 0.165101
v -0.057374 -0.231888 0.159242
v -0.061158 -0.236023 0.163880
v -0.060426 -0.239548 0.166688
v -0.061158 -0.233673 0.158631
v -0.061158 -0.237045 0.157655
v -0.061036 -0.238235 0.162171
v -0.060304 -0.240791 0.164857
v -0.057618 -0.241455 0.164002
v -0.057374 -0.239349 0.161439
v -0.056519 -0.238190 0.144837
v -0.061158 -0.235855 0.144654
v -0.061158 -0.231384 0.144959
v -0.056764 -0.229065 0.145203
v -0.052247 -0.231308 0.145387
v -0.053468 -0.233719 0.158997
v -0.052125 -0.235870 0.145142
v -0.053223 -0.237015 0.158143
v -0.057130 -0.238724 0.157288
v -0.053956 -0.238342 0.162660
v -0.055177 -0.240951 0.165223
v -0.058350 -0.246086 0.167909
vn 0.7896 0.5848 0.1859
vn 0.7688 0.5475 0.3305
vn 0.8985 -0.4389 -0.0042
vn 0.8838 -0.4674 -0.0198
vn 0.5086 -0.7275 0.4605
vn -0.0887 -0.9373 0.3370
vn -0.0636 -0.9971 -0.0415
vn 0.5664 -0.8241 0.0091
vn 0.6865 0.1416 0.7132
vn 0.8258 -0.5632 0.0276
vn 0.8359 -0.5475 0.0383
vn 0.7606 0.3384 0.5540
vn 0.7420 0.6682 0.0533
vn 0.8866 -0.4615 0.0294
vn 0.7482 0.1519 -0.6459
vn -0.0432 -0.9988 0.0212
vn 0.0017 -0.9999 0.0122
vn -0.0383 -0.9979 0.0532
vn -0.0624 -0.9945 0.0842
vn 0.7973 -0.5060 -0.3292
vn -0.5396 -0.8284 -0.1505
vn -0.5572 -0.8186 -0.1397
vn -0.1567 -0.9873 0.0245
vn -0.0261 -0.9989 0.0394
vn 0.2953 0.6250 0.7226
vn -0.2489 0.6615 0.7074
vn -0.2726 0.2132 0.9382
vn 0.4266 0.2721 0.8625
vn 0.8020 -0.4601 0.3810
vn 0.8555 -0.3134 0.4122
vn 0.9498 -0.3127 -0.0023
vn -0.1767 -0.9828 -0.0535
vn -0.0290 -0.9994 -0.0214
vn -0.0418 -0.9991 0.0029
vn -0.1643 -0.9861 -0.0232
vn -0.8888 -0.2409 0.3899
vn -0.9659 -0.1804 0.1859
vn -0.8865 -0.1152 0.4481
vn -0.0900 0.3557 0.9303
vn 0.6529 0.1388 0.7446
vn 0.7171 0.3932 0.5755
vn -0.0934 0.6890 0.7187
vn 0.9589 -0.2834 0.0138
vn 0.5947 -0.8030 0.0388
vn 0.6321 -0.7747 0.0202
vn 0.9693 -0.2458 0.0083
vn 0.7904 0.5273 0.3118
vn 0.5796 -0.8059 -0.1208
vn -0.0773 -0.9935 -0.0833
vn -0.0941 -0.9955 -0.0103
vn 0.6161 -0.7874 0.0221
vn -0.0827 0.4341 0.8971
vn -0.8106 0.1222 0.5727
vn -0.0714 -0.8488 0.5238
vn -0.8066 -0.5743 -0.1399
vn 0.0492 -0.8827 -0.4673
vn 0.7916 0.2874 0.5392
vn 0.9497 0.2477 0.1914
vn 0.6865 0.6892 0.2319
vn 0.5352 0.6778 0.5041
vn 0.5841 -0.4694 0.6622
vn 0.6389 -0.3251 0.6972
vn 0.8910 -0.4540 0.0084
vn 0.0340 -0.9787 -0.2024
vn 0.0171 -0.9922 -0.1233
vn 0.8706 -0.4916 -0.0203
vn 0.7966 0.5310 0.2888
vn -0.0355 0.9345 0.3541
vn -0.0555 0.7179 0.6939
vn -0.9908 -0.1039 0.0864
vn -0.7338 -0.6770 0.0557
vn -0.7269 -0.6726 0.1388
vn -0.9786 -0.0643 0.1954
vn -0.9820 0.0776 -0.1721
vn -0.7946 0.6064 -0.0307
vn -0.8017 0.5948 -0.0597
vn -0.9762 0.0800 -0.2013
vn 0.8136 0.5689 0.1201
vn -0.0286 0.9899 0.1388
vn -0.8731 -0.4768 -0.1021
vn -0.8564 -0.5052 -0.1063
vn -0.8365 0.3287 0.4384
vn -0.8311 -0.5510 -0.0757
vn -0.8338 0.5208 0.1835
vn 0.0202 -0.9579 -0.2863
vn 0.8927 -0.4504 -0.0140
vn 0.0510 -0.9701 -0.2372
vn 0.0370 -0.9874 -0.1541
vn 0.8760 -0.4805 -0.0407
vn 0.0846 -0.7540 -0.6514
vn 0.0606 -0.8936 -0.4448
vn -0.0666 0.9112 0.4066
vn -0.0710 0.9705 0.2302
vn -0.8810 0.4655 0.0852
vn -0.8639 0.4638 0.1966
vn -0.8213 -0.5588 -0.1147
vn -0.8312 -0.5363 -0.1463
vn -0.7976 -0.5477 -0.2525
vn -0.8334 -0.5230 -0.1788
vn 0.1213 0.7768 0.6179
vn -0.1465 0.8408 0.5212
vn -0.1127 0.8838 0.4541
vn 0.6078 0.6139 0.5037
vn 0.9807 -0.1951 -0.0157
vn 0.9763 -0.2049 -0.0699
vn 0.9974 -0.0486 -0.0534
vn 0.9982 0.0071 0.0588
vn -0.5085 -0.8470 -0.1548
vn -0.9228 -0.3184 -0.2169
vn -0.9096 -0.3549 -0.2160
vn -0.4962 -0.8570 -0.1391
vn 0.9197 -0.1542 -0.3610
vn 0.9003 -0.1852 -0.3938
vn 0.9825 -0.1861 -0.0061
vn 0.9891 -0.1473 -0.0030
vn 0.8734 0.2286 0.4300
vn 0.9480 0.2146 0.2352
vn 0.5403 0.7913 0.2862
vn 0.4492 0.7808 0.4342
vn -0.8499 0.3134 0.4236
vn -0.7978 0.0608 0.5998
vn 0.8830 -0.2196 0.4147
vn 0.9724 -0.2330 -0.0128
vn 0.9620 -0.2725 -0.0187
vn 0.5718 -0.8204 0.0027
vn -0.8567 -0.4855 -0.1739
vn 0.0268 -0.9145 -0.4037
vn 0.0451 -0.7235 -0.6889
vn -0.8176 -0.4954 -0.2934
vn 0.9657 -0.2085 -0.1547
vn 0.9737 -0.2241 0.0401
vn -0.2006 -0.2711 0.9414
vn -0.2126 -0.1770 0.9610
vn 0.2740 -0.1502 0.9499
vn 0.2860 -0.2565 0.9233
vn 0.6633 -0.2225 0.7146
vn 0.2799 -0.3564 0.8914
vn 0.0392 0.0456 0.9982
vn 0.9657 0.0264 0.2582
vn 0.9710 -0.1775 0.1602
vn -0.0152 -0.5595 0.8287
vn -0.0660 -0.9921 0.1071
vn 0.5905 -0.7960 0.1332
vn 0.5629 -0.6631 0.4933
vn -0.0651 -0.8980 0.4352
vn -0.9543 -0.1637 0.2499
vn -0.9434 0.1738 0.2823
vn -0.9900 0.1310 -0.0522
vn -0.9598 -0.2588 -0.1084
vn -0.1674 -0.9859 -0.0035
vn -0.0770 -0.9919 0.1015
vn -0.6847 -0.5444 0.4846
vn -0.8465 0.0253 0.5317
vn 0.8441 0.2783 0.4582
vn 0.3936 0.2652 0.8802
vn 0.4148 -0.0343 0.9093
vn 0.8625 -0.1672 0.4776
vn 0.6175 -0.7776 0.1185
vn 0.5125 -0.7382 0.4387
vn 0.0050 -0.9411 0.3380
vn 0.0432 -0.9988 0.0225
vn -0.7374 -0.6699 0.0859
vn -0.1126 -0.9902 0.0821
vn -0.6908 -0.7207 -0.0574
vn 0.5669 -0.3577 -0.7421
vn 0.5031 -0.5109 -0.6970
vn 0.8604 -0.3495 -0.3709
vn 0.9833 -0.1750 -0.0502
vn -0.7814 0.3017 0.5463
vn -0.4558 0.0630 0.8878
vn -0.4151 0.3061 0.8568
vn 0.9608 -0.1967 0.1953
vn 0.8452 -0.2286 0.4830
vn 0.3080 -0.4167 0.8553
vn -0.1326 0.0113 0.9911
vn -0.1275 -0.4858 0.8647
vn -0.6322 0.3623 0.6849
vn -0.6316 -0.0275 0.7748
vn -0.9043 0.2550 0.3422
vn -0.6173 -0.2732 -0.7378
vn -0.3873 0.6605 -0.6432
vn 0.0142 0.5645 -0.8253
vn -0.2957 -0.3465 -0.8902
vn -0.4307 -0.3385 0.8366
vn -0.0469 -0.5051 0.8618
vn -0.0312 0.0395 0.9987
vn 0.0394 -0.9992 -0.0029
vn 0.0612 -0.9980 -0.0167
vn -0.5925 -0.7946 -0.1325
vn -0.6357 -0.7610 -0.1295
vn 0.1486 -0.9886 -0.0222
vn 0.6875 -0.7248 -0.0447
vn 0.6690 -0.7428 -0.0264
vn 0.1155 -0.9933 -0.0023
vn -0.9926 -0.1208 0.0116
vn 0.3245 0.8217 0.4686
vn 0.8639 0.1091 0.4918
vn -0.3564 0.7617 0.5411
vn 0.6642 0.6046 0.4397
vn 0.9056 0.3577 0.2278
vn 0.7385 0.3243 0.5912
vn -0.3876 0.5766 0.7192
vn -0.5656 0.6994 0.4370
vn -0.8566 0.2705 0.4393
vn -0.5298 0.2855 0.7986
vn -0.5678 -0.8210 -0.0599
vn -0.6117 -0.7478 0.2581
vn 0.9719 0.2346 0.0177
vn 0.9750 0.2223 -0.0053
vn -0.5509 -0.4188 0.7219
vn -0.7146 -0.6324 0.2989
vn -0.9332 0.3254 0.1525
vn -0.4399 0.8512 0.2863
vn -0.9364 0.1537 0.3153
vn -0.7297 -0.6564 0.1914
vn -0.0554 -0.9694 0.2392
vn -0.9762 -0.1373 0.1680
vn -0.4448 0.7596 0.4745
vn -0.9499 0.3106 -0.0362
vn -0.7838 0.5892 0.1960
vn -0.9990 -0.0339 0.0276
vn 0.2462 -0.9608 -0.1278
vn 0.6012 -0.6668 -0.4404
vn 0.6973 -0.6995 -0.1566
vn -0.1712 -0.9647 -0.2003
vn -0.6249 -0.6305 -0.4604
vn -0.3654 -0.6194 -0.6949
vn -0.0717 -0.9971 0.0253
vn -0.5478 -0.4457 0.7080
vn 0.9654 0.0720 0.2505
vn -0.5619 -0.0810 -0.8232
vn -0.5523 -0.0183 -0.8334
vn -0.8282 -0.0781 -0.5550
vn -0.8274 -0.1426 -0.5432
vn 0.5315 -0.8101 0.2476
vn 0.9749 0.2053 0.0861
vn 0.5597 0.7865 0.2610
vn -0.6598 -0.0241 0.7511
vn 0.3422 -0.4596 0.8196
vn 0.4309 -0.0842 0.8984
vn -0.1663 -0.4123 0.8958
vn -0.0294 -0.9730 0.2290
vn 0.6961 -0.7001 0.1590
vn -0.0747 0.6408 0.7641
vn -0.0080 0.9090 0.4168
vn 0.1001 0.8838 0.4571
vn 0.1341 0.9524 0.2738
vn -0.4500 0.8246 0.3429
vn -0.4291 0.7210 0.5441
vn -0.9837 -0.1234 -0.1307
vn 0.7521 -0.0294 -0.6584
vn 0.7910 0.0174 -0.6116
vn 0.4059 0.0328 -0.9133
vn 0.3676 0.0104 -0.9299
vn -0.8389 0.5433 0.0329
vn 0.9739 -0.0851 0.2106
vn -0.5469 0.0305 0.8366
vn -0.0334 -0.9106 0.4118
vn 0.6809 0.0372 0.7314
vn -0.0677 0.3178 0.9457
vn -0.0827 -0.9337 0.3485
vn -0.7984 0.0762 0.5973
vn 0.1943 -0.9805 -0.0288
vn 0.6894 -0.7231 -0.0436
vn 0.8304 -0.5433 -0.1235
vn 0.9562 -0.0272 -0.2913
vn 0.9472 -0.1880 -0.2597
vn -0.8996 0.3299 0.2860
vn -0.9829 -0.0680 -0.1709
vn -0.9635 -0.1423 -0.2267
vn -0.9495 -0.0997 -0.2974
vn -0.1997 0.7413 0.6408
vn -0.2252 0.4483 0.8651
vn -0.5430 0.7006 0.4630
vn 0.8508 -0.0673 0.5212
vn 0.9700 -0.1957 0.1441
vn 0.7672 0.3898 0.5093
vn 0.8045 0.5375 0.2528
vn -0.0192 0.9490 0.3146
vn -0.0546 0.7473 0.6622
vn 0.5717 0.7867 0.2330
vn 0.5123 0.7463 0.4251
vn 0.9515 0.2891 0.1054
vn 0.7902 0.5978 0.1351
vn 0.4597 0.8215 0.3374
vn 0.3318 0.9203 0.2072
vn 0.7401 0.6687 0.0707
vn -0.9248 -0.2185 -0.3115
vn -0.9403 -0.2756 -0.1998
vn -0.8456 -0.5283 -0.0757
vn 0.0132 -0.9925 -0.1212
vn -0.0933 -0.9853 0.1431
vn -0.8495 -0.2684 -0.4543
vn -0.8380 -0.2562 -0.4818
vn -0.9541 -0.2974 -0.0344
vn -0.9531 -0.3015 -0.0259
vn 0.9832 -0.1824 -0.0087
vn 0.9860 -0.1658 -0.0158
vn 0.4210 0.3106 0.8522
vn 0.3244 0.5693 0.7554
vn 0.8471 0.4979 0.1858
vn 0.9813 0.1874 0.0437
vn 0.9935 0.0958 0.0609
vn -0.8666 -0.2552 -0.4288
vn -0.5942 -0.2547 -0.7629
vn 0.8724 -0.4862 -0.0494
vn 0.8640 -0.5033 0.0157
vn -0.6388 0.7592 0.1244
vn -0.9657 0.2538 -0.0550
vn -0.9650 0.2510 0.0760
vn -0.6290 0.7481 0.2116
vn -0.8358 0.5241 0.1635
vn -0.8399 0.5349 0.0925
vn -0.8536 -0.5193 -0.0410
vn -0.6910 -0.7104 -0.1332
vn -0.9834 -0.1256 -0.1311
vn 0.8828 -0.2514 -0.3969
vn 0.5967 -0.2481 -0.7631
vn -0.9606 -0.2769 -0.0222
vn -0.7264 0.6858 -0.0455
vn -0.6477 0.6558 -0.3878
vn -0.2144 -0.0861 0.9729
vn -0.0708 -0.5732 0.8164
vn 0.1017 -0.9786 -0.1790
vn 0.3213 -0.7057 -0.6314
vn -0.5317 0.8206 0.2094
vn -0.6722 0.7143 0.1950
vn -0.8788 0.4725 -0.0668
vn -0.8272 0.5582 -0.0647
vn -0.8267 -0.1942 -0.5280
vn -0.5526 -0.1307 -0.8232
vn -0.2286 0.9548 0.1901
vn -0.2943 0.9336 0.2042
vn 0.2201 -0.9755 -0.0063
vn 0.7219 -0.6902 -0.0512
vn 0.0637 -0.9953 0.0729
vn -0.1155 0.2705 0.9558
vn -0.6240 0.0239 0.7810
vn -0.1418 -0.0747 -0.9871
vn -0.1851 -0.1387 -0.9729
vn 0.2465 -0.1372 -0.9594
vn 0.3115 -0.0629 -0.9481
vn 0.2453 0.9509 0.1886
vn -0.0067 0.9610 0.2764
vn 0.6883 -0.7254 -0.0060
vn 0.9915 -0.1253 0.0346
vn -0.5751 -0.2278 -0.7857
vn -0.5588 -0.1668 -0.8124
vn -0.8324 -0.2170 -0.5099
vn 0.2218 -0.4735 0.8524
vn -0.2227 -0.4277 0.8761
vn -0.1986 -0.3530 0.9143
vn -0.8154 -0.1406 -0.5615
vn 0.3876 -0.3963 0.8323
vn -0.1212 -0.0103 -0.9926
vn -0.2384 -0.2659 -0.9341
vn -0.2182 -0.2130 -0.9524
vn -0.9665 -0.2508 -0.0547
vn -0.8542 -0.3293 0.4023
vn 0.0094 -0.9984 -0.0560
vn 0.7929 -0.1713 -0.5848
vn 0.0654 -0.9978 -0.0059
vn -0.9687 -0.2111 -0.1307
vn 0.6879 0.0018 0.7258
vn 0.2675 0.0439 0.9626
vn 0.2830 0.4370 0.8538
vn -0.9938 -0.1102 -0.0176
vn -0.9391 -0.0338 0.3420
vn 0.9008 -0.1485 0.4080
vn -0.8424 -0.3423 0.4163
vn -0.8360 -0.3470 0.4251
vn -0.2277 0.0301 0.9733
vn -0.6722 0.1924 0.7149
vn -0.5834 0.5241 0.6205
vn -0.7172 0.6217 0.3150
vn -0.0437 -0.9947 0.0930
vn 0.0235 0.6195 0.7847
vn 0.7190 0.6920 0.0644
vn 0.5698 0.7106 0.4128
vn 0.1756 0.7912 0.5859
vn -0.3054 0.5660 0.7657
vn -0.0121 0.3003 0.9538
vn 0.9734 0.2263 0.0351
vn -0.5113 -0.1175 -0.8513
vn -0.0908 0.0213 -0.9956
vn -0.0352 -0.1788 -0.9832
vn 0.4283 -0.1942 -0.8825
vn 0.9423 -0.0820 -0.3245
vn -0.9232 -0.3080 -0.2297
vn -0.9792 0.0110 -0.2028
vn -0.6668 -0.7136 -0.2149
vn -0.0105 -0.9834 -0.1810
vn 0.6694 -0.1244 0.7324
vn -0.6802 -0.7302 -0.0646
vn -0.0218 -0.7007 -0.7132
vn 0.9970 -0.0753 -0.0181
vn 0.6938 -0.1090 -0.7119
vn -0.9901 0.0400 0.1344
vn 0.9913 0.1317 0.0072
vn 0.6767 0.6863 0.2666
vn 0.9685 0.2388 -0.0701
vn 0.6037 0.7790 0.1696
vn 0.2709 0.6108 0.7440
vn 0.4435 0.0452 0.8952
vn -0.0246 0.9671 0.2532
vn -0.0605 0.9321 0.3572
vn -0.1789 0.8001 0.5726
vn -0.4470 0.7805 0.4371
vn -0.9707 0.0971 -0.2196
vn -0.9717 0.0847 -0.2206
vn -0.9068 -0.3539 -0.2290
vn -0.8359 0.3924 0.3839
vn -0.2238 0.9124 0.3426
vn -0.7747 0.6282 0.0722
vn -0.3929 0.8981 0.1976
vn -0.7192 0.5737 0.3918
vn -0.6864 0.6898 0.2305
vn -0.9822 0.1856 -0.0283
vn 0.2439 0.7401 0.6267
vn -0.9105 -0.3342 -0.2435
vn 0.0758 -0.9960 -0.0483
vn 0.9240 -0.0784 0.3743
vn 0.3116 0.2555 -0.9152
vn 0.0731 -0.4360 -0.8969
vn -0.0956 0.5546 -0.8266
vn -0.6623 0.5864 0.4664
vn -0.5471 -0.3833 0.7441
vn -0.2812 0.5000 0.8191
vn 0.1040 0.4000 0.9106
vn -0.5602 -0.3487 0.7513
vn 0.1434 -0.2907 -0.9460
vn 0.1908 -0.2116 -0.9585
vn -0.5809 -0.3078 0.7535
vn -0.6097 -0.2038 0.7660
vn 0.6420 -0.1640 -0.7489
vn 0.6338 0.4920 0.5969
vn 0.2966 0.4867 0.8217
vn 0.8651 -0.5001 0.0387
vn 0.8122 0.5580 0.1699
vn -0.0161 0.9810 0.1935
vt 0.040039 0.568848
vt 0.040527 0.583008
vt 0.036621 0.583496
vt 0.034668 0.569824
vt 0.905273 0.052246
vt 0.905762 0.065430
vt 0.891602 0.066406
vt 0.891113 0.052734
vt 0.061523 0.536621
vt 0.059082 0.537598
vt 0.057617 0.533691
vt 0.061035 0.533203
vt 0.586914 0.435547
vt 0.586914 0.423828
vt 0.589844 0.455078
vt 0.808594 0.075684
vt 0.806641 0.054199
vt 0.830078 0.051270
vt 0.830566 0.070801
vt 0.597656 0.438965
vt 0.849121 0.113281
vt 0.833008 0.115234
vt 0.832520 0.102051
vt 0.850098 0.099609
vt 0.912109 0.131836
vt 0.908203 0.128418
vt 0.911621 0.125488
vt 0.915039 0.130859
vt 0.958008 0.422363
vt 0.947266 0.437988
vt 0.942871 0.422852
vt 0.958008 0.411621
vt 0.958008 0.434570
vt 0.757324 0.100586
vt 0.756836 0.079590
vt 0.783203 0.078125
vt 0.785645 0.099609
vt 0.797852 0.415527
vt 0.789062 0.367676
vt 0.802246 0.367676
vt 0.043457 0.590820
vt 0.041016 0.590820
vt 0.041016 0.587402
vt 0.043945 0.587402
vt 0.986816 0.238770
vt 0.995117 0.241211
vt 0.995117 0.250977
vt 0.984863 0.250488
vt 0.953613 0.453125
vt 0.879883 0.052734
vt 0.881348 0.067383
vt 0.870117 0.067871
vt 0.869629 0.052734
vt 0.063965 0.536621
vt 0.066406 0.537109
vt 0.062988 0.545410
vt 0.068359 0.538574
vt 0.070801 0.541016
vt 0.056641 0.539551
vt 0.982910 0.209961
vt 0.982422 0.216797
vt 0.977051 0.214844
vt 0.978516 0.209473
vt 0.925781 0.454590
vt 0.919922 0.435059
vt 0.056641 0.529297
vt 0.051270 0.529785
vt 0.048828 0.515625
vt 0.054688 0.514648
vt 0.060547 0.528809
vt 0.064453 0.528809
vt 0.063965 0.533203
vt 0.958008 0.192871
vt 0.956543 0.190430
vt 0.962891 0.187988
vt 0.963867 0.192383
vt 0.878906 0.125488
vt 0.883301 0.133301
vt 0.874512 0.138672
vt 0.868652 0.129395
vt 0.059570 0.514160
vt 0.064941 0.513184
vt 0.072266 0.530273
vt 0.076172 0.513672
vt 0.082520 0.515625
vt 0.078613 0.532227
vt 0.067383 0.533691
vt 0.070801 0.534668
vt 0.068359 0.529297
vt 0.053223 0.535156
vt 0.038086 0.587891
vt 0.031738 0.584473
vt 0.029297 0.570801
vt 0.039062 0.591797
vt 0.036133 0.593750
vt 0.033691 0.589355
vt 0.044434 0.583496
vt 0.045898 0.568359
vt 0.051758 0.568848
vt 0.048340 0.583984
vt 0.057129 0.569824
vt 0.052246 0.585449
vt 0.049805 0.595703
vt 0.047852 0.593262
vt 0.049805 0.589355
vt 0.053711 0.592773
vt 0.933594 0.202637
vt 0.910645 0.188477
vt 0.919922 0.181641
vt 0.935059 0.193848
vt 0.979004 0.307617
vt 0.976562 0.332520
vt 0.957031 0.332520
vt 0.956055 0.302246
vt 0.875000 0.109375
vt 0.875977 0.117676
vt 0.864258 0.119629
vt 0.862793 0.109863
vt 0.610840 0.367676
vt 0.609375 0.385254
vt 0.586914 0.381348
vt 0.586914 0.367676
vt 0.914551 0.136719
vt 0.913574 0.142090
vt 0.907227 0.140625
vt 0.909180 0.135742
vt 0.046875 0.587891
vt 0.045898 0.591797
vt 0.938965 0.402832
vt 0.958008 0.395996
vt 0.987793 0.228027
vt 0.995117 0.230469
vt 0.028320 0.625488
vt 0.032715 0.627441
vt 0.029297 0.631348
vt 0.026855 0.628906
vt 0.949707 0.184082
vt 0.949707 0.180176
vt 0.955566 0.181152
vt 0.954590 0.185547
vt 0.860352 0.428223
vt 0.854980 0.403320
vt 0.882324 0.395020
vt 0.888184 0.418457
vt 0.913574 0.410645
vt 0.895996 0.448730
vt 0.947754 0.193359
vt 0.946289 0.191406
vt 0.951660 0.189453
vt 0.952148 0.190430
vt 0.891113 0.031250
vt 0.891113 0.012207
vt 0.903320 0.013672
vt 0.905762 0.031250
vt 0.896484 0.115234
vt 0.897461 0.121094
vt 0.890137 0.122070
vt 0.889160 0.115723
vt 0.812988 0.100098
vt 0.833496 0.088379
vt 0.972168 0.187988
vt 0.970703 0.191895
vt 0.945312 0.175293
vt 0.945312 0.168945
vt 0.949219 0.166992
vt 0.949707 0.173828
vt 0.889648 0.082520
vt 0.903320 0.083008
vt 0.901855 0.095703
vt 0.889160 0.096191
vt 0.862793 0.081055
vt 0.859375 0.067871
vt 0.873535 0.081055
vt 0.624512 0.437500
vt 0.616699 0.460449
vt 0.602539 0.423340
vt 0.954102 0.188477
vt 0.950684 0.187988
vt 0.969727 0.195801
vt 0.977539 0.192871
vt 0.975586 0.196777
vt 0.921875 0.144043
vt 0.918457 0.142578
vt 0.919922 0.136719
vt 0.923828 0.137207
vt 0.057617 0.587891
vt 0.063477 0.572754
vt 0.953613 0.164551
vt 0.944336 0.160645
vt 0.947754 0.157227
vt 0.863281 0.198242
vt 0.857422 0.208984
vt 0.828613 0.203613
vt 0.836914 0.183105
vt 0.706055 0.521484
vt 0.702637 0.557129
vt 0.666016 0.545410
vt 0.671387 0.504395
vt 0.979004 0.190430
vt 0.984375 0.193848
vt 0.981934 0.196289
vt 0.782715 0.056641
vt 0.756348 0.058594
vt 0.809570 0.116699
vt 0.787109 0.119141
vt 0.805176 0.032227
vt 0.804199 0.012207
vt 0.825684 0.012207
vt 0.828125 0.028809
vt 0.917969 0.154785
vt 0.915527 0.156738
vt 0.916992 0.155273
vt 0.899414 0.154297
vt 0.909668 0.155762
vt 0.897461 0.166016
vt 0.927246 0.251953
vt 0.943359 0.271484
vt 0.914551 0.263184
vt 0.936523 0.164551
vt 0.931641 0.165527
vt 0.932129 0.161133
vt 0.937500 0.161621
vt 0.889160 0.109375
vt 0.897461 0.109375
vt 0.976562 0.235352
vt 0.980469 0.225098
vt 0.915527 0.075684
vt 0.916992 0.064941
vt 0.906250 0.080566
vt 0.958008 0.197754
vt 0.958496 0.204102
vt 0.950195 0.195801
vt 0.954590 0.190430
vt 0.954102 0.189941
vt 0.953613 0.191406
vt 0.946777 0.205078
vt 0.829590 0.161621
vt 0.848633 0.174805
vt 0.804688 0.179688
vt 0.734375 0.042969
vt 0.722656 0.038574
vt 0.737305 0.027344
vt 0.733398 0.100098
vt 0.729980 0.119141
vt 0.713867 0.100098
vt 0.878418 0.050781
vt 0.874023 0.031250
vt 0.892578 0.050781
vt 0.910156 0.110352
vt 0.928711 0.295898
vt 0.706055 0.178711
vt 0.703613 0.157227
vt 0.734375 0.157227
vt 0.737305 0.179199
vt 0.954102 0.189453
vt 0.912109 0.148438
vt 0.903320 0.147949
vt 0.908203 0.116211
vt 0.923828 0.128418
vt 0.918945 0.129395
vt 0.915527 0.154297
vt 0.916504 0.154785
vt 0.917480 0.153320
vt 0.939453 0.166992
vt 0.935547 0.170898
vt 0.973633 0.206055
vt 0.970703 0.209961
vt 0.964355 0.202148
vt 0.969238 0.200195
vt 0.918457 0.158203
vt 0.617188 0.178711
vt 0.617188 0.157715
vt 0.646484 0.157715
vt 0.646973 0.178711
vt 0.070801 0.513184
vt 0.915039 0.153320
vt 0.908691 0.158203
vt 0.042480 0.599121
vt 0.020508 0.627930
vt 0.022461 0.627930
vt 0.022461 0.634766
vt 0.024902 0.627930
vt 0.782715 0.035156
vt 0.784180 0.013672
vt 0.018555 0.628906
vt 0.016602 0.630859
vt 0.584961 0.156738
vt 0.554688 0.153320
vt 0.554688 0.131836
vt 0.585449 0.133301
vt 0.963867 0.197266
vt 0.793457 0.151367
vt 0.770508 0.179688
vt 0.766113 0.158203
vt 0.889648 0.208008
vt 0.884277 0.214844
vt 0.869141 0.189453
vt 0.988770 0.209961
vt 0.994141 0.208008
vt 0.995117 0.218262
vt 0.988770 0.218262
vt 0.019531 0.624512
vt 0.018555 0.619629
vt 0.022949 0.619141
vt 0.022949 0.624512
vt 0.939941 0.178711
vt 0.941406 0.175293
vt 0.944824 0.180176
vt 0.961426 0.241211
vt 0.947266 0.228027
vt 0.956543 0.221680
vt 0.967285 0.230957
vt 0.762695 0.134766
vt 0.788574 0.132324
vt 0.030762 0.620605
vt 0.036133 0.622070
vt 0.860840 0.052734
vt 0.848633 0.067383
vt 0.853516 0.052246
vt 0.737793 0.487793
vt 0.737793 0.442383
vt 0.768555 0.445312
vt 0.771484 0.490723
vt 0.981934 0.266113
vt 0.995117 0.266602
vt 0.995117 0.288574
vt 0.979492 0.285645
vt 0.982422 0.203125
vt 0.979492 0.204102
vt 0.953125 0.254395
vt 0.967773 0.262207
vt 0.962891 0.280762
vt 0.906738 0.047852
vt 0.914551 0.031250
vt 0.915039 0.041992
vt 0.737305 0.531250
vt 0.708496 0.479004
vt 0.017090 0.625000
vt 0.013184 0.626953
vt 0.010254 0.622070
vt 0.015137 0.620117
vt 0.923340 0.168945
vt 0.921875 0.162598
vt 0.925781 0.162109
vt 0.927734 0.166992
vt 0.026855 0.619629
vt 0.028320 0.603027
vt 0.034180 0.603516
vt 0.919434 0.153320
vt 0.921387 0.158203
vt 0.606934 0.403809
vt 0.631836 0.411621
vt 0.773926 0.535156
vt 0.776367 0.567871
vt 0.737305 0.564941
vt 0.915527 0.122559
vt 0.920898 0.119629
vt 0.730957 0.059570
vt 0.711914 0.055176
vt 0.876465 0.155762
vt 0.862793 0.165527
vt 0.849609 0.153320
vt 0.863770 0.145508
vt 0.740234 0.203613
vt 0.708008 0.203613
vt 0.898438 0.135742
vt 0.891602 0.142090
vt 0.075684 0.537109
vt 0.756348 0.038086
vt 0.760742 0.018555
vt 0.843262 0.012207
vt 0.846191 0.028809
vt 0.941895 0.164551
vt 0.938477 0.157227
vt 0.853516 0.083496
vt 0.691406 0.367676
vt 0.687500 0.399902
vt 0.663086 0.394043
vt 0.668457 0.367676
vt 0.965820 0.215332
vt 0.932617 0.173340
vt 0.919922 0.149902
vt 0.916504 0.148926
vt 0.710449 0.436523
vt 0.711914 0.405273
vt 0.737793 0.413086
vt 0.902832 0.472656
vt 0.875000 0.492188
vt 0.868164 0.462402
vt 0.730469 0.132812
vt 0.913086 0.019043
vt 0.678223 0.203613
vt 0.676270 0.178711
vt 0.956055 0.171875
vt 0.678711 0.465820
vt 0.684082 0.429199
vt 0.766602 0.416016
vt 0.800781 0.443848
vt 0.041016 0.605469
vt 0.618164 0.133789
vt 0.862305 0.098633
vt 0.763184 0.367676
vt 0.892090 0.268555
vt 0.888184 0.241699
vt 0.898926 0.235352
vt 0.924805 0.157227
vt 0.931152 0.156738
vt 0.936523 0.385742
vt 0.958008 0.381348
vt 0.805176 0.487793
vt 0.810547 0.530762
vt 0.877930 0.222656
vt 0.906250 0.121582
vt 0.905273 0.124512
vt 0.898926 0.126465
vt 0.554688 0.119141
vt 0.585449 0.119141
vt 0.858398 0.030762
vt 0.857422 0.012207
vt 0.874023 0.012207
vt 0.864258 0.050781
vt 0.976562 0.201660
vt 0.973633 0.221191
vt 0.937500 0.238770
vt 0.918945 0.216797
vt 0.974121 0.199219
vt 0.979004 0.199219
vt 0.972656 0.247559
vt 0.701172 0.133301
vt 0.674316 0.157227
vt 0.672363 0.133789
vt 0.646484 0.133789
vt 0.585449 0.178223
vt 0.810547 0.129883
vt 0.818359 0.145508
vt 0.761230 0.120605
vt 0.731934 0.080566
vt 0.875000 0.367676
vt 0.903809 0.367676
vt 0.909180 0.389648
vt 0.914551 0.055176
vt 0.894531 0.081055
vt 0.883301 0.081055
vt 0.701172 0.119141
vt 0.647461 0.119141
vt 0.673828 0.119141
vt 0.618164 0.119141
vt 0.584473 0.203613
vt 0.554688 0.203613
vt 0.554688 0.176758
vt 0.647461 0.203613
vt 0.617676 0.203613
vt 0.913574 0.161133
vt 0.945312 0.188477
vt 0.936523 0.188477
vt 0.944824 0.183594
vt 0.937988 0.182617
vt 0.942383 0.169922
vt 0.986816 0.201660
vt 0.929199 0.176270
vt 0.924316 0.179688
vt 0.898926 0.198242
vt 0.880859 0.179688
vt 0.855957 0.134277
vt 0.839355 0.140137
vt 0.850586 0.123047
vt 0.025879 0.624512
vt 0.902832 0.131348
vt 0.892578 0.128418
vt 0.885742 0.147461
vt 0.913086 0.169922
vt 0.918945 0.169922
vt 0.917969 0.162598
vt 0.923340 0.151855
vt 0.929199 0.150879
vt 0.940430 0.152344
vt 0.907715 0.228027
vt 0.833496 0.126465
vt 0.873535 0.097168
vt 0.915039 0.095215
vt 0.875000 0.082520
vt 0.861816 0.082520
vt 0.812500 0.203613
vt 0.896484 0.298828
vt 0.995117 0.310547
vt 0.995117 0.332520
vt 0.937500 0.332520
vt 0.900879 0.332520
vt 0.990723 0.200684
vt 0.737793 0.367676
vt 0.715820 0.367676
vt 0.586914 0.411621
vt 0.586914 0.395996
vt 0.604980 0.484863
vt 0.644043 0.481934
vt 0.636230 0.504883
vt 0.815430 0.563965
vt 0.842285 0.514160
vt 0.848145 0.547363
vt 0.774414 0.203613
vt 0.881348 0.522949
vt 0.837402 0.476562
vt 0.651855 0.451172
vt 0.658691 0.419434
vt 0.833008 0.437012
vt 0.830078 0.411133
vt 0.637207 0.389648
vt 0.641602 0.367676
vt 0.826172 0.367676
vt 0.845703 0.367676
vt 0.934570 0.367676
vt 0.958008 0.367676
vt 0.933105 0.473145
vt 0.909180 0.497070
vt 0.010742 0.605469
vt 0.016113 0.604004
vt 0.004883 0.607910
vt 0.709473 0.080566
vt 0.021973 0.603027
vt 0.915527 0.085449
s 1
g Bip001 R Toe11
g park_cheshirecat_ob0_L0.right_leg_Material.001
usemtl Material.001
f 400/1/1 398/2/2 399/3/3 391/4/4
f 147/5/5 146/6/6 144/7/7 145/8/8
g Bip001 R Toe21
f 88/9/9 104/10/10 103/11/11 87/12/12
g Bip001 R Thigh
f 25/13/13 1/14/14 17/15/15
g Bip001 R Foot
f 123/16/16 122/17/17 120/18/18 121/19/19
g Bip001 R Thigh
f 4/20/20 17/15/15 1/14/14
g Bip001 R Foot
f 195/21/21 204/22/22 203/23/23 202/24/24
g Bip001 R Toe01
f 341/25/25 342/26/26 339/27/27 340/28/28
g Bip001 R Thigh
f 1/29/14 29/30/29 28/31/30 2/32/31
f 25/33/13 29/30/29 1/29/14
g Bip001 R Foot
f 129/34/32 125/35/33 127/36/34 128/37/35
g Bip001 R Calf
f 39/38/36 259/39/37 38/40/38
g Bip001 R Toe11
f 415/41/39 395/42/40 397/43/41 414/44/42
g Bip001 R Foot
f 289/45/43 288/46/44 286/47/45 287/48/46
g Bip001 R Thigh
f 25/33/13 62/49/47 29/30/29
g Bip001 R Toe1
f 143/50/48 142/51/49 141/52/50 305/53/51
g Bip001 R Toe21
f 83/54/52 82/55/53 81/56/54
f 81/56/54 88/9/9 83/54/52
f 82/55/53 89/57/55 81/56/54
f 89/57/55 105/58/56 81/56/54
f 81/56/54 104/10/10 88/9/9
f 105/59/56 104/10/10 81/56/54
f 173/60/57 323/61/58 322/62/59 162/63/60
g Bip001 R Thigh
f 28/31/30 29/30/29 56/64/61 52/65/62
g Bip001 R Toe21
f 101/66/63 102/67/64 94/68/65 100/69/66
f 87/12/12 99/70/67 86/71/68 85/72/69
g Bip001 R Toe2
f 180/73/70 210/74/71 296/75/72 179/76/73
g Bip001 R Toe0
f 274/77/74 332/78/75 275/79/76 265/80/77
g Bip001 R Toe21
f 99/70/67 98/81/78 97/82/79 86/71/68
f 91/83/80 95/84/81 94/85/65 102/86/64
f 84/87/82 90/88/83 89/57/55 82/55/53
f 86/71/68 92/89/84 84/87/82 85/72/69
f 85/72/69 84/87/82 82/55/53 83/54/52
f 93/90/85 103/11/11 104/10/10 105/59/56
g Bip001 R Toe11
f 399/3/3 398/2/2 397/43/41 396/91/86
f 399/3/3 407/92/87 392/93/88 391/4/4
f 393/94/89 394/95/90 409/96/91 396/91/86
f 396/91/86 397/43/41 395/42/40 393/94/89
f 397/43/41 398/2/2 401/97/92 414/44/42
f 402/98/93 401/97/92 398/2/2 400/1/1
f 403/99/94 404/100/95 401/97/92 402/98/93
f 405/101/96 406/102/97 404/100/95 403/99/94
f 394/103/90 410/104/98 408/105/99 409/106/91
g Bip001 R Foot
f 313/107/100 317/108/101 315/109/102 314/110/103
f 283/111/104 253/112/105 254/113/106 281/114/107
f 199/115/108 266/116/109 194/117/110 196/118/111
g Bip001 R Calf
f 65/119/112 66/120/113 64/121/114 63/122/115
g Bip001 R Toe01
f 344/123/116 388/124/117 385/125/118 343/126/119
g Bip001 R Toe11
f 415/41/39 414/44/42 413/127/120 412/128/121
g Bip001 R Calf
f 2/32/31 28/31/30 27/129/122 80/130/123
g Bip001 R Toe0
f 274/77/74 265/80/77 194/117/110 266/116/109
g Bip001 R Toe2
f 291/131/124 290/132/125 288/46/44 289/45/43
g Bip001 R Toe01
f 425/133/126 428/134/127 427/135/128 426/136/129
g Bip001 R Toe1
f 301/137/130 306/138/131 145/139/8 143/140/48
g Bip001 R Calf
f 44/141/132 35/142/133 34/143/134 43/144/135
f 42/145/136 52/65/62 51/146/137 43/144/135
g Bip001 R Foot
f 182/147/138 299/148/139 303/149/140 181/150/141
g Bip001 R Toe21
f 209/151/142 214/152/143 293/153/144 208/154/145
g Bip001 R Toe01
f 272/155/146 334/156/147 273/157/148 267/158/149
g Bip001 R Foot
f 155/159/150 123/16/16 121/19/19 154/160/151
g Bip001 R Toe21
f 179/76/73 296/75/72 295/161/152 178/162/153
g Bip001 R Toe11
f 360/163/154 358/164/155 357/165/156 359/166/157
g Bip001 R Toe01
f 226/167/158 270/168/159 269/169/160 198/170/161
g Bip001 R Toe1
f 106/171/162 140/172/163 141/52/50 107/173/164
g Bip001 R Thigh
f 5/174/165 6/175/166 4/20/20 3/176/167
g Bip001 R Toe1
f 301/137/130 143/140/48 305/177/51 302/178/168
g Bip001 R Toe21
f 169/179/169 178/162/153 177/180/170 170/181/171
g Bip001 R Toe01
f 226/182/158 347/183/172 345/184/173 270/185/159
g Bip001 R Toe11
f 407/186/87 406/102/97 405/101/96 392/187/88
f 148/188/174 357/165/156 355/189/175 149/190/176
g Bip001 R Foot
f 186/191/177 36/192/178 38/193/38 184/194/179
g Bip001 R Thigh
f 12/195/180 21/196/181 20/197/182 10/198/183
g Bip001 R Toe21
f 177/180/170 207/199/184 294/200/185 176/201/186
g Bip001 R Foot
f 124/202/187 127/36/34 125/35/33 126/203/188
f 156/204/189 223/205/190 128/37/35 155/159/150
f 136/206/191 216/207/192 284/208/193 137/209/194
g Bip001 R Toe1
f 107/210/164 377/211/195 106/212/162
g Bip001 R Foot
f 384/213/196 109/214/197 108/215/198
f 113/216/199 116/217/200 115/218/201
g Bip001 R Toe11
f 363/219/202 366/220/203 351/221/204 353/222/205
g Bip001 R Toe01
f 272/155/146 267/158/149 197/223/206 268/224/207
g Bip001 R Toe2
f 289/45/43 325/225/208 324/226/209 291/131/124
g Bip001 R Toe11
f 378/227/210 146/6/6 149/228/176
f 150/229/211 146/6/6 378/227/210
g Bip001 R Toe2
f 167/230/212 157/231/213 166/232/214
g Bip001 R Foot
f 212/233/215 181/150/141 139/234/216
f 297/235/217 181/150/141 212/233/215
f 166/232/214 157/231/213 183/236/218
f 184/194/179 188/237/219 185/238/220
f 189/239/221 188/237/219 184/194/179
f 133/240/222 219/241/223 252/242/224
f 130/243/225 221/244/226 220/245/227
g Bip001 R Toe2
f 210/246/71 211/247/228 209/151/142 296/248/72
g Bip001 R Foot
f 154/160/151 203/23/23 155/159/150
g Bip001 R Toe01
f 272/155/146 268/224/207 271/249/229
g Bip001 R Foot
f 116/217/200 279/250/230 115/218/201
f 231/251/231 232/252/232 230/253/233 229/254/234
g Bip001 R Toe1
f 302/178/168 305/177/51 303/149/140
g Bip001 R Foot
f 181/150/141 304/255/235 139/234/216
g Bip001 R Toe0
f 385/125/118 388/124/117 389/256/236 110/257/237
g Bip001 R Toe01
f 271/249/229 335/258/238 272/155/146
f 340/28/28 343/126/119 341/25/25
f 340/28/28 344/123/116 343/126/119
f 346/259/239 345/184/173 338/260/240
f 270/185/159 345/184/173 346/259/239
g Bip001 R Foot
f 390/261/241 153/262/242 106/212/162
f 390/261/241 224/263/243 153/262/242
g Bip001 R Toe11
f 362/264/244 366/220/203 363/219/202
f 362/264/244 367/265/245 366/220/203
g Bip001 R Toe21
f 161/266/246 159/267/247 158/268/248 160/269/249
g Bip001 R Toe1
f 107/210/164 375/270/250 377/211/195
g Bip001 R Toe21
f 101/66/63 100/69/66 98/81/78 99/70/67
g Bip001 R Foot
f 237/271/251 238/272/252 236/273/253 235/274/254
f 390/261/241 106/212/162 377/211/195
g Bip001 R Toe21
f 92/89/84 96/275/255 95/84/81 91/83/80
g Bip001 R Foot
f 390/261/241 349/276/256 224/263/243
f 390/261/241 109/214/197 349/276/256
f 379/277/257 109/214/197 390/261/241
f 379/277/257 108/215/198 109/214/197
g Bip001 R Toe11
f 393/94/89 411/278/258 394/95/90
f 393/94/89 395/42/40 411/278/258
f 411/278/258 410/104/98 394/103/90
f 412/128/121 410/104/98 411/278/258
f 415/41/39 411/278/258 395/42/40
f 412/128/121 411/278/258 415/41/39
g Bip001 R Toe01
f 416/279/259 417/280/260 440/281/261
f 422/282/262 440/281/261 417/280/260
f 426/136/129 440/281/261 422/282/262
f 426/136/129 427/135/128 440/281/261
g Bip001 R Toe11
f 396/91/86 409/96/91 407/92/87 399/3/3
g Bip001 R Foot
f 135/283/263 217/284/264 216/207/192 136/206/191
g Bip001 R Toe01
f 439/285/265 440/281/261 427/286/128
f 439/285/265 416/279/259 440/281/261
g Bip001 R Foot
f 240/287/266 254/288/106 253/289/105 241/290/267
g Bip001 R Toe21
f 168/291/268 179/76/73 178/162/153 169/179/169
g Bip001 R Foot
f 249/292/269 189/239/221 227/293/270 228/294/271
f 278/295/272 261/296/273 186/191/177 262/297/274
g Bip001 R Toe21
f 174/298/275 293/299/144 214/300/143 292/301/276
g Bip001 R Toe01
f 198/170/161 269/169/160 268/224/207 197/223/206
f 418/302/277 434/303/278 420/304/279 419/305/280
g Bip001 R Toe11
f 370/306/281 368/307/282 360/163/154 369/308/283
g Bip001 R Foot
f 118/309/284 319/310/285 320/311/286 328/312/287
f 249/292/269 228/294/271 247/313/288 248/314/289
g Bip001 R Toe01
f 424/315/290 437/316/291 428/134/127 425/133/126
g Bip001 R Foot
f 304/317/235 140/172/163 119/318/292 139/319/216
g Bip001 R Calf
f 13/320/293 74/321/294 47/322/295 15/323/296
g Bip001 R Foot
f 285/324/297 284/325/193 216/326/192 282/327/298
f 166/232/214 182/147/138 181/150/141 297/235/217
g Bip001 R Toe21
f 172/328/299 173/60/57 162/63/60 163/329/300
g Bip001 R Foot
f 117/330/301 327/331/302 280/332/303 116/217/200
g Bip001 R Toe21
f 295/333/152 208/154/145 294/334/185 207/335/184
g Bip001 R Thigh
f 13/320/293 14/336/304 12/195/180 11/337/305
g Bip001 R Toe01
f 438/338/306 428/339/127 437/340/291 436/341/307
g Bip001 R Toe11
f 413/127/120 404/100/95 406/102/97 408/105/99
g Bip001 R Toe2
f 291/131/124 324/226/209 323/61/58 292/301/276
g Bip001 R Toe1
f 311/342/308 373/343/309 365/344/310 372/345/311
g Bip001 R Toe11
f 413/127/120 408/105/99 410/104/98 412/128/121
g Bip001 R Toe01
f 423/346/312 431/347/313 430/348/314 424/315/290
g Bip001 R Toe0
f 110/257/237 389/256/236 109/214/197 384/213/196
g Bip001 R Toe1
f 152/349/315 364/350/316 375/270/250 107/210/164
g Bip001 R Calf
f 3/176/167 79/351/317 78/352/318 5/174/165
g Bip001 R Thigh
f 16/353/319 23/354/320 22/355/321 14/336/304
g Bip001 R Toe01
f 338/260/240 336/356/322 337/357/323 346/259/239
g Bip001 R Toe21
f 83/54/52 88/9/9 87/12/12 85/72/69
g Bip001 R Foot
f 132/358/324 251/359/325 219/241/223 133/240/222
f 276/360/326 263/361/327 187/362/328 264/363/329
f 229/254/234 258/364/330 257/365/331 231/251/231
g Bip001 R Toe0
f 382/366/332 385/125/118 110/257/237 383/367/333
g Bip001 R Toe21
f 91/83/80 102/86/64 93/368/85 90/88/83
g Bip001 R Foot
f 134/369/334 218/370/335 217/284/264 135/283/263
f 137/209/194 284/208/193 286/371/45 138/372/336
g Bip001 R Toe11
f 355/189/175 356/373/337 353/222/205 354/374/338
g Bip001 R Foot
f 154/160/151 121/19/19 119/318/292 153/375/242
g Bip001 R Calf
f 70/376/339 71/377/340 69/378/341 256/379/342
g Bip001 R Foot
f 287/48/46 286/47/45 284/325/193 285/324/297
f 157/231/213 321/380/343 320/311/286 183/236/218
g Bip001 R Toe11
f 371/381/344 367/265/245 368/307/282 370/306/281
g Bip001 R Toe0
f 225/382/345 224/263/243 349/276/256 348/383/346
g Bip001 R Calf
f 75/384/347 72/385/348 73/386/349 74/321/294
g Bip001 R Thigh
f 51/146/137 55/387/350 54/388/351 50/389/352
g Bip001 R Toe21
f 90/88/83 93/368/85 105/58/56 89/57/55
g Bip001 R Foot
f 247/313/288 228/294/271 230/253/233 246/390/353
g Bip001 R Toe21
f 208/154/145 293/153/144 213/391/354 294/334/185
g Bip001 R Foot
f 231/251/231 257/365/331 70/392/339 233/393/355
g Bip001 R Toe11
f 409/106/91 408/105/99 406/102/97 407/186/87
f 147/394/5 359/166/157 357/165/156 148/188/174
g Bip001 R Calf
f 9/395/356 76/396/357 75/384/347 11/337/305
f 47/322/295 40/397/358 39/38/36 46/398/359
g Bip001 R Foot
f 229/254/234 230/253/233 228/294/271 227/293/270
g Bip001 R Toe1
f 181/150/141 303/149/140 305/177/51 304/255/235
g Bip001 R Toe21
f 86/71/68 97/82/79 96/275/255 92/89/84
g Bip001 R Toe01
f 418/302/277 419/305/280 417/280/260 416/279/259
g Bip001 R Foot
f 139/319/216 120/18/18 137/209/194 138/372/336
g Bip001 R Toe01
f 424/315/290 430/348/314 429/399/360 437/316/291
g Bip001 R Foot
f 242/400/361 238/272/252 240/287/266 241/290/267
f 195/21/21 202/24/24 201/401/362 196/118/111
g Bip001 R Calf
f 40/397/358 41/402/363 259/39/37 39/38/36
g Bip001 R Foot
f 115/218/201 31/403/364 33/404/365 114/405/366
g Bip001 R Toe11
f 351/221/204 365/344/310 350/406/367 352/407/368
g Bip001 R Calf
f 80/130/123 27/129/122 26/408/369 64/409/114
g Bip001 R Thigh
f 48/410/370 24/411/371 16/353/319 15/323/296
g Bip001 R Foot
f 186/191/177 261/296/273 260/412/372 36/192/178
f 183/236/218 320/311/286 319/310/285 313/107/100
g Bip001 R Toe01
f 380/413/373 387/414/374 381/415/375 334/156/147
g Bip001 R Foot
f 241/290/267 253/289/105 218/416/335 252/417/224
g Bip001 R Toe01
f 340/28/28 339/27/27 336/356/322 338/260/240
g Bip001 R Toe21
f 296/248/72 209/151/142 208/154/145 295/333/152
g Bip001 R Toe2
f 211/247/228 215/418/376 288/419/44 290/420/125
g Bip001 R Foot
f 138/372/336 215/418/376 212/421/215 139/319/216
g Bip001 R Toe21
f 161/266/246 164/422/377 163/329/300 162/63/60
f 162/63/60 322/62/59 159/267/247 161/266/246
g Bip001 R Toe2
f 329/423/378 321/380/343 159/267/247 322/62/59
g Bip001 R Foot
f 328/312/287 320/311/286 321/380/343 329/423/378
f 111/424/379 318/425/380 313/107/100 319/310/285
g Bip001 R Toe2
f 159/267/247 321/380/343 157/231/213 158/268/248
g Bip001 R Toe21
f 160/269/249 165/426/381 164/422/377 161/266/246
g Bip001 R Toe2
f 168/291/268 158/268/248 157/231/213 167/230/212
g Bip001 R Toe21
f 169/179/169 160/269/249 158/268/248 168/291/268
f 170/181/171 165/426/381 160/269/249 169/179/169
f 171/427/382 164/422/377 165/426/381 170/181/171
f 172/328/299 163/329/300 164/422/377 171/427/382
g Bip001 R Toe2
f 329/423/378 322/62/59 323/61/58 324/226/209
g Bip001 R Foot
f 328/312/287 325/225/208 326/428/383 118/309/284
f 246/390/353 230/253/233 232/252/232 245/429/384
f 245/429/384 232/252/232 234/430/385 244/431/386
f 244/431/386 234/430/385 236/273/253 243/432/387
f 243/432/387 236/273/253 238/272/252 242/400/361
f 240/287/266 238/272/252 237/271/251 239/433/388
f 235/274/254 236/273/253 234/430/385 233/393/355
f 233/393/355 234/430/385 232/252/232 231/251/231
f 248/314/289 206/434/389 190/435/390 249/292/269
f 129/34/32 222/436/391 221/244/226 130/243/225
f 133/240/222 252/242/224 218/370/335 134/369/334
f 138/372/336 286/371/45 288/419/44 215/418/376
f 137/209/194 120/18/18 122/17/17 136/206/191
f 136/206/191 122/17/17 124/202/187 135/283/263
f 135/283/263 124/202/187 126/203/188 134/369/334
f 134/369/334 126/203/188 132/358/324 133/240/222
f 132/358/324 126/203/188 125/35/33 131/437/392
f 131/437/392 125/35/33 129/34/32 130/243/225
f 123/16/16 127/36/34 124/202/187 122/17/17
f 139/319/216 119/318/292 121/19/19 120/18/18
g Bip001 R Toe1
f 305/53/51 141/52/50 140/172/163 304/317/235
g Bip001 R Calf
f 34/143/134 33/438/365 31/439/364 32/440/393
g Bip001 R Toe11
f 149/228/176 146/6/6 147/5/5 148/441/174
f 151/442/394 144/7/7 146/6/6 150/229/211
g Bip001 R Toe1
f 152/443/315 142/51/49 144/7/7 151/442/394
f 107/173/164 141/52/50 142/51/49 152/443/315
g Bip001 R Foot
f 153/375/242 119/318/292 140/172/163 106/171/162
f 247/313/288 222/436/391 223/205/190 248/314/289
f 246/390/353 221/244/226 222/436/391 247/313/288
f 245/429/384 220/444/227 221/244/226 246/390/353
f 243/432/387 251/445/325 250/446/395 244/431/386
f 242/400/361 219/447/223 251/445/325 243/432/387
f 239/433/388 65/448/112 63/449/115 255/450/396
f 235/274/254 256/451/342 67/452/397 237/271/251
f 233/393/355 70/392/339 256/451/342 235/274/254
f 390/261/241 377/211/195 376/453/398 379/277/257
f 302/178/168 303/149/140 299/148/139 298/454/399
f 314/110/103 300/455/400 298/454/399 299/148/139
g Bip001 R Toe1
f 298/454/399 307/456/401 301/137/130 302/178/168
f 300/455/400 308/457/402 307/456/401 298/454/399
g Bip001 R Toe11
f 306/138/131 369/308/283 360/163/154 359/166/157
f 361/458/403 368/307/282 367/265/245 362/264/244
g Bip001 R Toe21
f 171/427/382 176/201/186 175/459/404 172/328/299
g Bip001 R Toe1
f 309/460/405 371/381/344 370/306/281 308/457/402
g Bip001 R Foot
f 315/109/102 310/461/406 300/455/400 314/110/103
f 330/462/407 317/108/101 313/107/100 318/425/380
f 108/215/198 317/108/101 330/462/407 277/463/408
f 276/360/326 108/215/198 277/463/408 263/361/327
f 192/464/409 264/363/329 187/362/328 191/465/410
f 194/117/110 265/80/77 192/464/409 193/466/411
g Bip001 R Toe0
f 274/77/74 266/116/109 267/158/149 273/157/148
g Bip001 R Toe01
f 380/413/373 334/156/147 272/155/146 335/258/238
f 338/260/240 345/184/173 344/123/116 340/28/28
g Bip001 R Toe0
f 225/382/345 348/383/346 347/183/172 226/182/158
g Bip001 R Toe01
f 425/133/126 421/467/412 423/346/312 424/315/290
g Bip001 R Toe0
f 348/383/346 389/256/236 388/124/117 347/183/172
g Bip001 R Toe01
f 347/183/172 388/124/117 344/123/116 345/184/173
g Bip001 R Foot
f 155/159/150 128/37/35 127/36/34 123/16/16
f 241/290/267 252/417/224 219/447/223 242/400/361
g Bip001 R Toe01
f 343/126/119 385/125/118 382/366/332 386/468/413
f 381/415/375 386/468/413 382/366/332 333/469/414
f 342/26/26 386/468/413 381/415/375 387/414/374
f 343/126/119 386/468/413 342/26/26 341/25/25
f 342/26/26 387/414/374 380/413/373 339/27/27
f 380/413/373 335/258/238 336/356/322 339/27/27
f 381/415/375 333/469/414 273/157/148 334/156/147
g Bip001 R Foot
f 275/79/76 331/470/415 276/360/326 264/363/329
f 384/213/196 108/215/198 276/360/326 331/470/415
g Bip001 R Toe0
f 383/367/333 110/257/237 384/213/196 331/470/415
f 383/367/333 332/78/75 333/469/414 382/366/332
f 383/367/333 331/470/415 275/79/76 332/78/75
g Bip001 R Foot
f 108/215/198 316/471/416 315/109/102 317/108/101
f 315/109/102 316/471/416 312/472/417 310/461/406
g Bip001 R Toe1
f 310/461/406 312/472/417 311/342/308 309/460/405
g Bip001 R Toe11
f 372/345/311 366/220/203 367/265/245 371/381/344
f 362/264/244 356/373/337 358/164/155 361/458/403
f 357/165/156 358/164/155 356/373/337 355/189/175
f 363/219/202 353/222/205 356/373/337 362/264/244
f 372/345/311 365/344/310 351/221/204 366/220/203
g Bip001 R Toe1
f 311/342/308 372/345/311 371/381/344 309/460/405
f 312/472/417 374/473/418 373/343/309 311/342/308
g Bip001 R Foot
f 316/471/416 376/453/398 374/473/418 312/472/417
g Bip001 R Toe11
f 354/374/338 353/222/205 351/221/204 352/407/368
g Bip001 R Toe1
f 373/343/309 364/350/316 350/406/367 365/344/310
g Bip001 R Foot
f 377/211/195 375/270/250 374/473/418 376/453/398
g Bip001 R Toe1
f 151/474/394 350/406/367 364/350/316 152/349/315
g Bip001 R Toe11
f 150/475/211 352/407/368 350/406/367 151/474/394
f 378/476/210 354/374/338 352/407/368 150/475/211
f 149/190/176 355/189/175 354/374/338 378/476/210
f 306/138/131 359/166/157 147/394/5 145/139/8
g Bip001 R Toe0
f 197/223/206 267/158/149 266/116/109 199/115/108
g Bip001 R Foot
f 195/21/21 196/118/111 194/117/110 193/466/411
f 191/465/410 187/362/328 188/237/219 190/435/390
f 277/463/408 330/462/407 278/295/272 262/297/274
f 278/295/272 330/462/407 318/425/380 112/477/419
f 112/477/419 318/425/380 111/424/379 113/216/199
f 111/424/379 117/330/301 116/217/200 113/216/199
f 118/309/284 326/428/383 327/331/302 117/330/301
f 285/324/297 327/331/302 326/428/383 287/48/46
f 282/327/298 280/332/303 327/331/302 285/324/297
f 185/238/220 262/297/274 186/191/177 184/194/179
f 249/292/269 190/435/390 188/237/219 189/239/221
f 190/435/390 206/434/389 205/478/420 191/465/410
f 193/466/411 205/478/420 204/22/22 195/21/21
g Bip001 R Toe0
f 196/118/111 201/401/362 200/479/421 199/115/108
f 199/115/108 200/479/421 198/170/161 197/223/206
g Bip001 R Toe01
f 271/249/229 268/224/207 269/169/160 337/480/323
g Bip001 R Toe0
f 225/481/345 226/167/158 198/170/161 200/479/421
f 225/481/345 200/479/421 201/401/362 224/482/243
g Bip001 R Foot
f 224/482/243 201/401/362 202/24/24 153/375/242
f 155/159/150 203/23/23 204/22/22 156/204/189
f 184/194/179 38/193/38 259/483/37 189/239/221
f 114/405/366 33/404/365 260/412/372 261/296/273
f 115/218/201 279/250/230 30/484/422 31/403/364
f 280/332/303 281/114/107 279/250/230 116/217/200
f 282/327/298 283/111/104 281/114/107 280/332/303
f 282/327/298 216/326/192 217/485/264 283/111/104
f 283/111/104 217/485/264 218/486/335 253/112/105
f 281/114/107 254/113/106 255/487/396 279/250/230
f 279/250/230 255/487/396 63/488/115 30/484/422
g Bip001 R Toe21
f 178/162/153 295/161/152 207/199/184 177/180/170
f 176/201/186 294/200/185 213/489/354 175/459/404
f 175/459/404 213/489/354 293/299/144 174/298/275
g Bip001 R Calf
f 258/490/330 73/386/349 72/385/348 257/491/331
g Bip001 R Toe2
f 292/301/276 214/300/143 290/132/125 291/131/124
g Bip001 R Foot
f 287/48/46 326/428/383 325/225/208 289/45/43
g Bip001 R Toe21
f 292/301/276 323/61/58 173/60/57 174/298/275
f 172/328/299 175/459/404 174/298/275 173/60/57
f 170/181/171 177/180/170 176/201/186 171/427/382
g Bip001 R Toe2
f 167/230/212 180/73/70 179/76/73 168/291/268
f 166/232/214 297/235/217 180/73/70 167/230/212
g Bip001 R Foot
f 166/232/214 183/236/218 313/107/100 182/147/138
g Bip001 R Calf
f 2/492/31 80/493/123 79/351/317 3/176/167
g Bip001 R Thigh
f 3/176/167 4/20/20 1/14/14 2/492/31
f 6/175/166 18/494/423 17/15/15 4/20/20
f 8/495/424 19/496/425 18/494/423 6/175/166
f 10/198/183 20/197/182 19/496/425 8/495/424
f 14/336/304 22/355/321 21/196/181 12/195/180
f 24/411/371 57/497/426 23/354/320 16/353/319
f 53/498/427 58/499/428 57/497/426 24/411/371
g Bip001 R Foot
f 189/239/221 259/483/37 41/500/363 227/293/270
g Bip001 R Thigh
f 54/388/351 59/501/429 58/499/428 53/498/427
f 49/502/430 53/498/427 24/411/371 48/410/370
f 15/323/296 16/353/319 14/336/304 13/320/293
f 11/337/305 12/195/180 10/198/183 9/395/356
f 9/395/356 10/198/183 8/495/424 7/503/431
f 7/503/431 8/495/424 6/175/166 5/174/165
g Bip001 R Calf
f 5/174/165 78/352/318 77/504/432 7/503/431
f 7/503/431 77/504/432 76/396/357 9/395/356
f 11/337/305 75/384/347 74/321/294 13/320/293
f 46/398/359 48/410/370 15/323/296 47/322/295
f 45/505/433 49/502/430 48/410/370 46/398/359
f 44/141/132 50/389/352 49/502/430 45/505/433
f 43/144/135 51/146/137 50/389/352 44/141/132
f 27/129/122 28/31/30 52/65/62 42/145/136
f 42/145/136 32/440/393 26/408/369 27/129/122
f 43/144/135 34/143/134 32/440/393 42/145/136
f 45/505/433 37/506/434 35/142/133 44/141/132
f 46/398/359 39/38/36 37/506/434 45/505/433
f 74/321/294 73/386/349 40/397/358 47/322/295
f 76/396/357 71/377/340 72/385/348 75/384/347
f 77/504/432 69/378/341 71/377/340 76/396/357
f 79/351/317 66/120/113 68/507/435 78/352/318
f 67/508/397 68/507/435 66/120/113 65/119/112
f 256/379/342 69/378/341 68/507/435 67/508/397
f 257/491/331 72/385/348 71/377/340 70/376/339
f 41/402/363 40/397/358 73/386/349 258/490/330
f 39/38/36 38/40/38 36/509/178 37/506/434
f 37/506/434 36/509/178 260/510/372 35/142/133
f 32/440/393 31/439/364 30/511/422 26/408/369
f 26/408/369 30/511/422 63/512/115 64/409/114
g Bip001 R Thigh
f 29/30/29 62/49/47 61/513/436 56/64/61
g Bip001 R Foot
f 244/431/386 250/446/395 220/444/227 245/429/384
g Bip001 R Thigh
f 56/64/61 61/513/436 60/514/437 55/387/350
f 52/65/62 56/64/61 55/387/350 51/146/137
g Bip001 R Foot
f 237/271/251 67/452/397 65/448/112 239/433/388
g Bip001 R Toe01
f 436/341/307 435/515/438 433/516/439 434/303/278
g Bip001 R Calf
f 78/352/318 68/507/435 69/378/341 77/504/432
g Bip001 R Foot
f 227/293/270 41/500/363 258/364/330 229/254/234
g Bip001 R Toe1
f 310/461/406 309/460/405 308/457/402 300/455/400
g Bip001 R Foot
f 277/463/408 262/297/274 185/238/220 263/361/327
g Bip001 R Toe1
f 374/473/418 375/270/250 364/350/316 373/343/309
g Bip001 R Thigh
f 50/389/352 54/388/351 53/498/427 49/502/430
g Bip001 R Foot
f 239/433/388 255/450/396 254/288/106 240/287/266
f 275/79/76 264/363/329 192/464/409 265/80/77
f 248/314/289 223/205/190 156/204/189 206/434/389
g Bip001 R Toe01
f 436/341/307 437/340/291 429/517/360 435/515/438
f 439/285/265 427/286/128 428/339/127 438/338/306
f 438/338/306 436/341/307 434/303/278 418/302/277
f 438/338/306 418/302/277 416/279/259 439/285/265
g Bip001 R Foot
f 329/423/378 324/226/209 325/225/208 328/312/287
g Bip001 R Toe01
f 426/136/129 422/282/262 421/467/412 425/133/126
f 423/346/312 421/467/412 419/305/280 420/304/279
f 422/282/262 417/280/260 419/305/280 421/467/412
g Bip001 R Toe1
f 308/457/402 370/306/281 369/308/283 307/456/401
g Bip001 R Toe0
f 273/157/148 333/469/414 332/78/75 274/77/74
g Bip001 R Foot
f 130/243/225 220/245/227 250/518/395 131/437/392
g Bip001 R Toe1
f 307/456/401 369/308/283 306/138/131 301/137/130
g Bip001 R Toe2
f 211/247/228 290/420/125 214/152/143 209/151/142
g Bip001 R Foot
f 187/362/328 263/361/327 185/238/220 188/237/219
g Bip001 R Toe21
f 84/87/82 92/89/84 91/83/80 90/88/83
g Bip001 R Toe01
f 434/303/278 433/516/439 432/519/440 420/304/279
f 420/304/279 432/519/440 431/347/313 423/346/312
g Bip001 R Toe11
f 414/44/42 401/97/92 404/100/95 413/127/120
g Bip001 R Foot
f 314/110/103 299/148/139 182/147/138 313/107/100
g Bip001 R Toe1
f 145/8/8 144/7/7 142/51/49 143/50/48
g Bip001 R Toe01
f 337/357/323 336/356/322 335/258/238 271/249/229
g Bip001 R Foot
f 153/375/242 202/24/24 203/23/23 154/160/151
f 131/437/392 250/518/395 251/359/325 132/358/324
f 111/424/379 319/310/285 118/309/284 117/330/301
g Bip001 R Toe21
f 101/66/63 103/11/11 93/90/85 102/67/64
g Bip001 R Toe2
f 297/235/217 212/233/215 210/74/71 180/73/70
g Bip001 R Toe0
f 109/214/197 389/256/236 348/383/346 349/276/256
g Bip001 R Foot
f 128/37/35 223/205/190 222/436/391 129/34/32
g Bip001 R Toe2
f 212/421/215 215/418/376 211/247/228 210/246/71
g Bip001 R Foot
f 156/204/189 204/22/22 205/478/420 206/434/389
g Bip001 R Toe11
f 360/163/154 368/307/282 361/458/403 358/164/155
g Bip001 R Foot
f 191/465/410 205/478/420 193/466/411 192/464/409
g Bip001 R Calf
f 35/142/133 260/510/372 33/438/365 34/143/134
g Bip001 R Thigh
f 55/387/350 60/514/437 59/501/429 54/388/351
g Bip001 R Toe01
f 337/480/323 269/169/160 270/168/159 346/520/239
g Bip001 R Foot
f 114/405/366 261/296/273 278/295/272 112/477/419
g Bip001 R Calf
f 80/493/123 64/121/114 66/120/113 79/351/317
g Bip001 R Foot
f 379/277/257 376/453/398 316/471/416 108/215/198
f 113/216/199 115/218/201 114/405/366 112/477/419
g Bip001 R Toe21
f 99/70/67 87/12/12 103/11/11 101/66/63
g Bip001 Pelvis
f 17/15/15 18/494/423 19/496/425 20/197/182 21/196/181 22/355/321 23/354/320 57/497/426 58/499/428 59/501/429 60/514/437 61/513/436 62/49/47 25/33/13
