# Blender 5.1.1
# www.blender.org
mtllib tail.mtl
g park_cheshirecat_ob0_L0.tail_park_cheshirecat_model0.001
v -0.074707 -0.009029 0.002378
v -0.061157 -0.033199 0.002500
v -0.040375 -0.050044 0.002256
v 0.000000 -0.060542 0.002134
v 0.000000 -0.060054 -0.054751
v -0.019928 -0.057613 0.002134
v -0.019455 -0.055904 -0.054751
v -0.041229 -0.046138 -0.054751
v -0.057251 -0.031978 -0.054751
v -0.068726 -0.007320 -0.054751
v -0.083984 0.016362 -0.000063
v -0.072266 0.015141 -0.054995
v -0.077271 0.049077 -0.004214
v -0.064514 0.041020 -0.055727
v -0.052826 0.069585 -0.005556
v -0.046204 0.059819 -0.055727
v -0.025269 0.081059 -0.005434
v -0.022446 0.071049 -0.055727
v -0.022491 -0.062740 -0.109194
v -0.045502 -0.051265 -0.109194
v -0.064331 -0.032955 -0.109194
v -0.074341 -0.009761 -0.108950
v -0.074951 0.016118 -0.108706
v -0.065979 0.040776 -0.108706
v -0.047913 0.060551 -0.108706
v -0.023697 0.072514 -0.108462
v 0.000000 0.076665 -0.108462
v -0.030228 0.087163 -0.187075
v -0.037903 0.105717 -0.253481
v -0.045624 0.127446 -0.337221
v 0.000000 0.155034 -0.426577
v -0.052277 0.146001 -0.426577
v -0.056732 0.159917 -0.517886
v 0.000000 0.178471 -0.605288
v -0.060089 0.168217 -0.605776
v 0.000000 0.180913 -0.703432
v -0.060425 0.170659 -0.703921
v -0.058838 0.165288 -0.794253
v -0.055878 0.154790 -0.872378
v -0.050629 0.139653 -0.940737
v 0.000000 0.127690 -1.006167
v -0.044128 0.119389 -1.005190
v -0.037994 0.101567 -1.055972
v 0.000000 0.109624 -1.055972
v 0.000000 0.086674 -1.105776
v -0.032318 0.078862 -1.104800
v -0.027298 0.052006 -1.145815
v -0.011696 0.032963 -1.184878
v -0.018127 0.016118 -1.182925
v -0.010063 -0.000728 -1.181948
v -0.014183 -0.018062 -1.148745
v -0.025772 -0.034419 -1.101870
v -0.037262 -0.057369 -1.040347
v -0.036591 -0.079830 -0.988589
v 0.000000 -0.085201 -0.988589
v -0.041016 -0.098018 -0.929018
v 0.000000 -0.103877 -0.928042
v -0.046387 -0.110957 -0.864565
v -0.051117 -0.120113 -0.791323
v -0.054688 -0.125850 -0.703432
v -0.054626 -0.126949 -0.607241
v 0.000000 -0.136104 -0.607729
v -0.052338 -0.123653 -0.520815
v -0.048401 -0.116573 -0.431460
v -0.042969 -0.105831 -0.341616
v 0.000000 -0.112666 -0.341128
v -0.036041 -0.091670 -0.258120
v 0.000000 -0.097286 -0.258120
v -0.029953 -0.077998 -0.190981
v -0.057343 -0.063472 -0.189028
v -0.079651 -0.040035 -0.187319
v -0.091309 -0.011226 -0.185854
v -0.091614 0.019536 -0.185610
v -0.080200 0.048833 -0.185610
v -0.058563 0.072514 -0.186098
v -0.071228 0.087163 -0.253481
v -0.084961 0.104985 -0.337221
v -0.096252 0.120610 -0.427065
v -0.104797 0.132329 -0.517886
v -0.110229 0.139653 -0.606264
v -0.111694 0.141606 -0.704409
v -0.107300 0.137211 -0.795229
v -0.101196 0.127202 -0.871401
v -0.092102 0.114262 -0.940737
v -0.079041 0.096684 -1.005190
v -0.066284 0.080327 -1.055972
v -0.050812 0.062993 -1.102847
v -0.039368 0.023930 -1.147768
v -0.034393 0.000981 -1.149722
v -0.051758 -0.013423 -1.099917
v -0.064453 0.029301 -1.099917
v -0.084534 0.051030 -1.054995
v -0.102112 0.064702 -1.005190
v -0.120728 0.077641 -0.940737
v -0.133667 0.087407 -0.871401
v -0.143555 0.094487 -0.795229
v -0.149414 0.097172 -0.704409
v -0.147339 0.095952 -0.606264
v -0.139893 0.090825 -0.518374
v -0.128540 0.082524 -0.427065
v -0.113770 0.071294 -0.337221
v -0.096191 0.059086 -0.253481
v -0.068604 -0.074703 -0.256899
v -0.093750 -0.047603 -0.254702
v -0.108154 -0.013179 -0.253970
v -0.109253 0.023930 -0.253481
v -0.128662 0.029545 -0.337710
v -0.145264 0.034917 -0.427065
v -0.157837 0.039555 -0.518374
v -0.166138 0.042729 -0.605776
v -0.168213 0.043461 -0.704409
v -0.161987 0.041508 -0.795229
v -0.150146 0.037846 -0.873354
v -0.132568 0.033452 -0.940737
v -0.110291 0.028569 -1.004214
v -0.088623 0.025151 -1.054995
v -0.078796 -0.010005 -1.054018
v -0.065979 -0.032710 -1.048159
v -0.086060 -0.042964 -0.998354
v -0.058350 -0.069576 -0.990542
v -0.075256 -0.081294 -0.930972
v -0.087341 -0.090694 -0.866518
v -0.096313 -0.097408 -0.792300
v -0.101990 -0.101436 -0.703432
v -0.102356 -0.102046 -0.606753
v -0.097656 -0.099971 -0.520815
v -0.090515 -0.094600 -0.430483
v -0.080933 -0.086055 -0.340639
v -0.124207 -0.058833 -0.428530
v -0.133911 -0.062251 -0.518862
v -0.141113 -0.063228 -0.605776
v -0.141602 -0.063472 -0.704409
v -0.134521 -0.061519 -0.795229
v -0.121582 -0.058345 -0.870425
v -0.105957 -0.052486 -0.935854
v -0.102722 -0.010982 -1.003237
v -0.126587 -0.012691 -0.938784
v -0.145020 -0.013667 -0.872378
v -0.158569 -0.012935 -0.795229
v -0.166138 -0.012447 -0.703921
v -0.163818 -0.012691 -0.604311
v -0.155884 -0.013912 -0.517886
v -0.143555 -0.014400 -0.427065
v -0.127075 -0.013912 -0.337710
v -0.109802 -0.054683 -0.338686
v 0.052826 0.069585 -0.005556
v 0.025269 0.081059 -0.005434
v 0.000000 0.084477 -0.005556
v 0.078796 -0.010005 -1.054018
v 0.088623 0.025151 -1.054995
v 0.102722 -0.010982 -1.003237
v 0.110291 0.028569 -1.004214
v 0.126587 -0.012691 -0.938784
v 0.086060 -0.042964 -0.998354
v 0.065979 -0.032710 -1.048159
v 0.051758 -0.013423 -1.099917
v 0.064453 0.029301 -1.099917
v 0.084534 0.051030 -1.054995
v 0.102112 0.064702 -1.005190
v 0.132568 0.033452 -0.940737
v 0.120728 0.077641 -0.940737
v 0.150146 0.037846 -0.873354
v 0.133667 0.087407 -0.871401
v 0.161987 0.041508 -0.795229
v 0.143555 0.094487 -0.795229
v 0.168213 0.043461 -0.704409
v 0.149414 0.097172 -0.704409
v 0.166138 0.042729 -0.605776
v 0.147339 0.095952 -0.606264
v 0.139893 0.090825 -0.518374
v 0.157837 0.039555 -0.518374
v 0.128540 0.082524 -0.427065
v 0.145264 0.034917 -0.427065
v 0.113770 0.071294 -0.337221
v 0.128662 0.029545 -0.337710
v 0.143555 -0.014400 -0.427065
v 0.127075 -0.013912 -0.337710
v 0.155884 -0.013912 -0.517886
v 0.163818 -0.012691 -0.604311
v 0.166138 -0.012447 -0.703921
v 0.158569 -0.012935 -0.795229
v 0.145020 -0.013667 -0.872378
v 0.109802 -0.054683 -0.338686
v 0.124207 -0.058833 -0.428530
v 0.133911 -0.062251 -0.518862
v 0.141113 -0.063228 -0.605776
v 0.141602 -0.063472 -0.704409
v 0.134521 -0.061519 -0.795229
v 0.121582 -0.058345 -0.870425
v 0.105957 -0.052486 -0.935854
v 0.058350 -0.069576 -0.990542
v 0.075256 -0.081294 -0.930972
v 0.087341 -0.090694 -0.866518
v 0.096313 -0.097408 -0.792300
v 0.101990 -0.101436 -0.703432
v 0.102356 -0.102046 -0.606753
v 0.097656 -0.099971 -0.520815
v 0.090515 -0.094600 -0.430483
v 0.080933 -0.086055 -0.340639
v 0.068604 -0.074703 -0.256899
v 0.093750 -0.047603 -0.254702
v 0.108154 -0.013179 -0.253970
v 0.109253 0.023930 -0.253481
v 0.096191 0.059086 -0.253481
v 0.071228 0.087163 -0.253481
v 0.084961 0.104985 -0.337221
v 0.096252 0.120610 -0.427065
v 0.104797 0.132329 -0.517886
v 0.110229 0.139653 -0.606264
v 0.111694 0.141606 -0.704409
v 0.107300 0.137211 -0.795229
v 0.101196 0.127202 -0.871401
v 0.092102 0.114262 -0.940737
v 0.079041 0.096684 -1.005190
v 0.066284 0.080327 -1.055972
v 0.050812 0.062993 -1.102847
v 0.039368 0.023930 -1.147768
v 0.034393 0.000981 -1.149722
v 0.037903 0.105717 -0.253481
v 0.045624 0.127446 -0.337221
v 0.052277 0.146001 -0.426577
v 0.056732 0.159917 -0.517886
v 0.060089 0.168217 -0.605776
v 0.060425 0.170659 -0.703921
v 0.058838 0.165288 -0.794253
v 0.055878 0.154790 -0.872378
v 0.050629 0.139653 -0.940737
v 0.044128 0.119389 -1.005190
v 0.037994 0.101567 -1.055972
v 0.032318 0.078862 -1.104800
v 0.027298 0.052006 -1.145815
v 0.011696 0.032963 -1.184878
v 0.018127 0.016118 -1.182925
v 0.010063 -0.000728 -1.181948
v 0.014183 -0.018062 -1.148745
v 0.025772 -0.034419 -1.101870
v 0.037262 -0.057369 -1.040347
v 0.036591 -0.079830 -0.988589
v 0.041016 -0.098018 -0.929018
v 0.046387 -0.110957 -0.864565
v 0.051117 -0.120113 -0.791323
v 0.054688 -0.125850 -0.703432
v 0.054626 -0.126949 -0.607241
v 0.052338 -0.123653 -0.520815
v 0.048401 -0.116573 -0.431460
v 0.042969 -0.105831 -0.341616
v 0.036041 -0.091670 -0.258120
v 0.029953 -0.077998 -0.190981
v 0.057343 -0.063472 -0.189028
v 0.079651 -0.040035 -0.187319
v 0.091309 -0.011226 -0.185854
v 0.091614 0.019536 -0.185610
v 0.080200 0.048833 -0.185610
v 0.058563 0.072514 -0.186098
v 0.030228 0.087163 -0.187075
v 0.023697 0.072514 -0.108462
v 0.047913 0.060551 -0.108706
v 0.065979 0.040776 -0.108706
v 0.074951 0.016118 -0.108706
v 0.074341 -0.009761 -0.108950
v 0.064331 -0.032955 -0.109194
v 0.045502 -0.051265 -0.109194
v 0.022491 -0.062740 -0.109194
v 0.000000 -0.066890 -0.109194
v 0.000000 -0.083003 -0.191958
v 0.000000 -0.124263 -0.430483
v 0.000000 -0.132320 -0.521304
v 0.000000 -0.134761 -0.703432
v 0.000000 -0.128169 -0.791323
v 0.000000 -0.117915 -0.864565
v 0.000000 -0.064937 -1.040347
v 0.000000 -0.041011 -1.102847
v 0.000000 -0.021968 -1.149722
v 0.000000 -0.004146 -1.182925
v 0.000000 0.016850 -1.199526
v 0.000000 0.037114 -1.185854
v 0.000000 0.060063 -1.149722
v 0.000000 0.149174 -0.940737
v 0.000000 0.164799 -0.872378
v 0.000000 0.175542 -0.794253
v 0.000000 0.169438 -0.517397
v 0.000000 0.135502 -0.337221
v 0.000000 0.112065 -0.253481
v 0.000000 0.092290 -0.187319
v 0.000000 0.074467 -0.055727
v 0.022446 0.071049 -0.055727
v 0.046204 0.059819 -0.055727
v 0.064514 0.041020 -0.055727
v 0.072266 0.015141 -0.054995
v 0.068726 -0.007320 -0.054751
v 0.057251 -0.031978 -0.054751
v 0.041229 -0.046138 -0.054751
v 0.019455 -0.055904 -0.054751
v 0.019928 -0.057613 0.002134
v 0.040375 -0.050044 0.002256
v 0.061157 -0.033199 0.002500
v 0.074707 -0.009029 0.002378
v 0.083984 0.016362 -0.000063
v 0.077271 0.049077 -0.004214
vn -0.0000 -0.7742 -0.6329
vn 0.4948 -0.6276 -0.6011
vn 0.4555 -0.7768 -0.4347
vn -0.0000 -0.9025 -0.4306
vn 0.5414 -0.8400 0.0365
vn 0.6275 -0.5289 0.5715
vn 0.2028 -0.4930 0.8461
vn 0.2960 -0.9539 0.0484
vn -0.3126 -0.9435 0.1097
vn -0.5966 -0.7938 0.1179
vn -0.5956 -0.7998 0.0750
vn -0.3158 -0.9465 0.0669
vn 0.6436 0.7154 -0.2720
vn 0.3480 0.8978 -0.2699
vn 0.3469 0.9198 -0.1834
vn 0.6438 0.7423 -0.1860
vn -0.0000 -0.9848 -0.1736
vn -0.2914 -0.9407 -0.1737
vn -0.2754 -0.9275 -0.2528
vn -0.0000 -0.9673 -0.2536
vn -0.0000 0.9826 0.1856
vn -0.3343 0.9240 0.1856
vn -0.3285 0.9138 0.2391
vn -0.0000 0.9707 0.2404
vn -0.9964 0.0441 -0.0725
vn -0.9799 0.1429 0.1389
vn -0.9604 -0.2293 0.1586
vn -0.9514 -0.3078 -0.0116
vn -0.0000 -0.9880 0.1546
vn -0.3085 -0.9382 0.1571
vn -0.0000 -0.9942 0.1079
vn -0.3038 -0.9470 -0.1048
vn -0.5685 -0.8156 -0.1075
vn -0.5530 -0.8135 -0.1801
vn -0.0000 -0.5266 0.8501
vn -0.0000 -0.9985 0.0556
vn 0.7944 -0.6069 0.0235
vn 0.8037 -0.2508 0.5395
vn 0.9514 -0.3078 -0.0116
vn 0.8954 0.0952 0.4349
vn 0.9964 0.0441 -0.0725
vn 0.8351 0.4434 0.3255
vn 0.5530 -0.8135 -0.1801
vn 0.2914 -0.9407 -0.1737
vn 0.2754 -0.9275 -0.2528
vn 0.5305 -0.8069 -0.2599
vn -0.0000 0.9966 -0.0829
vn -0.6705 0.6361 0.3818
vn -0.0069 0.2635 0.9646
vn 0.2872 0.9538 -0.0882
vn -0.0000 -0.9866 0.1630
vn 0.3088 -0.9369 0.1640
vn 0.9604 -0.2293 0.1586
vn 0.9799 0.1429 0.1389
vn -0.8606 0.4714 -0.1925
vn -0.9731 0.1050 -0.2051
vn -0.9842 0.1335 -0.1164
vn -0.8635 0.4917 -0.1123
vn 0.8571 0.5028 -0.1120
vn 0.8491 0.5137 0.1232
vn 0.5932 0.7964 0.1177
vn 0.5668 0.8170 -0.1058
vn 0.3047 0.9453 0.1166
vn -0.3135 -0.9487 -0.0419
vn -0.5818 -0.8124 -0.0389
vn -0.0000 0.9931 0.1174
vn 0.3079 0.9200 0.2424
vn -0.0000 0.9701 0.2426
vn 0.3172 0.9078 0.2745
vn -0.0000 0.9610 0.2767
vn 0.3285 0.9138 0.2391
vn 0.3343 0.9240 0.1856
vn 0.3350 0.9333 0.1296
vn -0.0000 0.9916 0.1293
vn 0.8606 0.4933 0.1264
vn 0.9815 0.1495 0.1197
vn 0.9868 0.1502 0.0599
vn 0.8655 0.4970 0.0628
vn -0.0000 0.9980 0.0632
vn 0.3366 0.9395 0.0632
vn 0.3365 0.9415 -0.0187
vn -0.0000 0.9998 -0.0175
vn -0.8676 0.4968 -0.0232
vn -0.6386 0.7693 -0.0211
vn -0.6389 0.7617 -0.1075
vn -0.0000 0.9951 -0.0990
vn 0.3406 0.9347 -0.1014
vn -0.0000 0.9834 -0.1813
vn -0.0000 0.9631 -0.2690
vn 0.3573 0.8720 -0.3347
vn -0.0000 0.9440 -0.3299
vn -0.0000 0.9223 -0.3864
vn 0.3794 0.8386 -0.3910
vn 0.4135 0.7784 -0.4723
vn -0.0000 0.8748 -0.4845
vn -0.0000 -0.0481 -0.9988
vn -0.5461 0.5182 -0.6582
vn -0.0000 0.7308 -0.6826
vn -0.7702 -0.0952 -0.6306
vn -0.4948 -0.6276 -0.6011
vn 0.4186 -0.8197 -0.3909
vn -0.0000 -0.9267 -0.3759
vn -0.0000 -0.9411 -0.3383
vn 0.2646 -0.9052 -0.3326
vn -0.9815 0.1495 0.1197
vn -0.9680 -0.2269 0.1074
vn -0.9632 -0.2215 0.1521
vn -0.9749 0.1487 0.1657
vn -0.0000 -0.9945 -0.1044
vn 0.3038 -0.9470 -0.1048
vn 0.3135 -0.9487 -0.0419
vn -0.0000 -0.9991 -0.0428
vn 0.3169 -0.9483 0.0171
vn -0.0000 -0.9999 0.0150
vn 0.3126 -0.9435 0.1097
vn 0.3085 -0.9382 0.1571
vn 0.3038 -0.9316 0.1996
vn -0.0000 -0.9806 0.1962
vn 0.3051 -0.9294 0.2077
vn -0.0000 -0.9790 0.2037
vn 0.5777 -0.7874 0.2149
vn 0.5662 -0.8079 0.1636
vn -0.7482 -0.6015 -0.2800
vn -0.5305 -0.8069 -0.2599
vn -0.7758 -0.5995 -0.1965
vn 0.9576 0.1642 0.2369
vn 0.8278 0.5069 0.2404
vn 0.5913 0.7694 0.2419
vn 0.6187 0.7501 0.2335
vn 0.6019 0.7522 0.2682
vn 0.6296 0.7552 0.1825
vn -0.9588 -0.2581 -0.1190
vn -0.9704 -0.2399 -0.0291
vn -0.9889 0.1466 -0.0257
vn 0.6373 0.7680 0.0632
vn 0.6349 0.7617 0.1292
vn -0.9868 0.1502 0.0599
vn -0.8655 0.4970 0.0628
vn 0.6389 0.7617 -0.1075
vn 0.6386 0.7693 -0.0211
vn 0.6509 0.6747 -0.3480
vn 0.7143 0.5134 -0.4756
vn 0.6821 0.6025 -0.4145
vn -0.5827 0.6070 -0.5404
vn -0.7143 0.5134 -0.4756
vn -0.4135 0.7784 -0.4723
vn 0.8691 0.0761 -0.4887
vn 0.5827 0.6070 -0.5404
vn 0.8740 0.0584 -0.4824
vn -0.7815 -0.4253 -0.4566
vn -0.8691 0.0761 -0.4887
vn 0.7464 -0.5051 -0.4333
vn 0.7815 -0.4253 -0.4566
vn 0.8491 0.3100 -0.4277
vn 0.8526 0.3799 -0.3589
vn 0.8575 0.4319 -0.2795
vn 0.8606 0.4714 -0.1925
vn 0.8635 0.4917 -0.1123
vn 0.8676 0.4968 -0.0232
vn 0.8537 0.4901 0.1758
vn -0.8249 -0.5492 0.1336
vn -0.8231 -0.5607 0.0906
vn 0.8290 0.4961 0.2582
vn 0.5853 -0.7837 0.2080
vn 0.8428 0.4896 0.2236
vn 0.9569 0.1564 0.2449
vn 0.9660 0.1496 0.2108
vn 0.9749 0.1487 0.1657
vn -0.3406 0.9347 -0.1014
vn -0.3365 0.9415 -0.0187
vn 0.9889 0.1466 -0.0257
vn 0.9842 0.1335 -0.1164
vn 0.9731 0.1050 -0.2051
vn -0.8740 0.0584 -0.4824
vn -0.8987 -0.0475 -0.4360
vn -0.8491 0.3100 -0.4277
vn -0.7464 -0.5051 -0.4333
vn -0.6631 -0.6317 -0.4014
vn -0.8254 -0.3722 -0.4244
vn 0.6631 -0.6317 -0.4014
vn 0.3778 -0.8400 -0.3894
vn -0.2646 -0.9052 -0.3326
vn -0.4938 -0.8000 -0.3410
vn -0.3778 -0.8400 -0.3894
vn 0.5685 -0.8156 -0.1075
vn 0.5818 -0.8124 -0.0389
vn 0.5918 -0.8057 0.0248
vn 0.5956 -0.7998 0.0750
vn 0.3158 -0.9465 0.0669
vn 0.5966 -0.7938 0.1179
vn 0.8231 -0.5607 0.0906
vn 0.8210 -0.5697 0.0385
vn -0.3047 0.9453 0.1166
vn -0.3079 0.9200 0.2424
vn -0.5913 0.7694 0.2419
vn -0.5932 0.7964 0.1177
vn 0.8214 -0.5412 0.1800
vn 0.5935 -0.7876 0.1658
vn 0.8249 -0.5492 0.1336
vn 0.8116 -0.5832 -0.0349
vn -0.0000 -0.9979 0.0649
vn -0.2872 0.9538 -0.0882
vn -0.7800 0.4163 0.4673
vn 0.7758 -0.5995 -0.1965
vn 0.7482 -0.6015 -0.2800
vn 0.4938 -0.8000 -0.3410
vn 0.7041 -0.6113 -0.3613
vn 0.8675 -0.3367 -0.3663
vn 0.9068 -0.3034 -0.2927
vn -0.2960 -0.9539 0.0484
vn -0.3088 -0.9369 0.1640
vn 0.9367 -0.2818 -0.2076
vn 0.9588 -0.2581 -0.1190
vn 0.7969 -0.5930 -0.1159
vn 0.9704 -0.2399 -0.0291
vn -0.8606 0.4933 0.1264
vn -0.6349 0.7617 0.1292
vn -0.6373 0.7680 0.0632
vn 0.9680 -0.2269 0.1074
vn 0.9632 -0.2215 0.1521
vn 0.9567 -0.2149 0.1965
vn 0.9507 -0.2088 0.2293
vn 0.8153 -0.5367 0.2175
vn -0.8278 0.5069 0.2404
vn -0.6019 0.7522 0.2682
vn -0.8290 0.4961 0.2582
vn 0.9716 -0.2306 0.0528
vn 0.9544 0.0609 -0.2923
vn -0.4555 -0.7768 -0.4347
vn -0.4186 -0.8197 -0.3909
vn 0.9312 0.0063 -0.3645
vn 0.8254 -0.3722 -0.4244
vn 0.8987 -0.0475 -0.4360
vn -0.3366 0.9395 0.0632
vn -0.3350 0.9333 0.1296
vn -0.9544 0.0609 -0.2923
vn -0.9068 -0.3034 -0.2927
vn -0.9367 -0.2818 -0.2076
vn -0.4508 0.0319 0.8921
vn -0.7944 -0.6069 0.0235
vn -0.3971 -0.6316 0.6659
vn 0.1410 0.3526 0.9251
vn -0.8526 0.3799 -0.3589
vn -0.6509 0.6747 -0.3480
vn -0.6821 0.6025 -0.4145
vn -0.0000 -0.9266 -0.3760
vn -0.8675 -0.3367 -0.3663
vn -0.9312 0.0063 -0.3645
vn -0.8116 -0.5832 -0.0349
vn -0.7969 -0.5930 -0.1159
vn -0.3794 0.8386 -0.3910
vn -0.3573 0.8720 -0.3347
vn -0.6436 0.7154 -0.2720
vn -0.3480 0.8978 -0.2699
vn -0.0000 0.8407 -0.5416
vn -0.3469 0.9198 -0.1834
vn 0.9520 -0.2032 0.2288
vn 0.8110 -0.5614 0.1649
vn 0.8119 -0.5403 0.2213
vn 0.7702 -0.0952 -0.6306
vn -0.8428 0.4896 0.2236
vn -0.9660 0.1496 0.2108
vn -0.9569 0.1564 0.2449
vn -0.3038 -0.9316 0.1996
vn -0.3051 -0.9294 0.2077
vn -0.5777 -0.7874 0.2149
vn -0.5853 -0.7837 0.2080
vn -0.4447 0.1094 0.8890
vn -0.3172 0.9078 0.2745
vn -0.7041 -0.6113 -0.3613
vn 0.5461 0.5182 -0.6582
vn -0.8537 0.4901 0.1758
vn -0.6296 0.7552 0.1825
vn -0.5662 -0.8079 0.1636
vn -0.8575 0.4319 -0.2795
vn -0.5918 -0.8057 0.0248
vn -0.8210 -0.5697 0.0385
vn -0.2028 -0.4930 0.8461
vn -0.9716 -0.2306 0.0528
vn -0.5668 0.8170 -0.1058
vn -0.8491 0.5137 0.1232
vn -0.8571 0.5028 -0.1120
vn -0.6438 0.7423 -0.1860
vn -0.9567 -0.2149 0.1965
vn -0.8214 -0.5412 0.1800
vn -0.6187 0.7501 0.2335
vn -0.8153 -0.5367 0.2175
vn -0.5935 -0.7876 0.1658
vn -0.3169 -0.9483 0.0171
vn -0.8119 -0.5403 0.2213
vn -0.9520 -0.2032 0.2288
vn -0.9507 -0.2088 0.2293
vn -0.9576 0.1642 0.2369
vn -0.8110 -0.5614 0.1649
vn -0.5414 -0.8400 0.0365
vn -0.3366 -0.4280 0.8388
vn -0.3817 0.2771 0.8818
vn -0.1410 0.3526 0.9251
vn 0.4474 0.8484 0.2830
vt 0.866211 0.292480
vt 0.863770 0.289551
vt 0.854492 0.295898
vt 0.857422 0.299316
vt 0.521973 0.306152
vt 0.505859 0.307617
vt 0.505859 0.312988
vt 0.521973 0.312988
vt 0.632324 0.333984
vt 0.634277 0.320312
vt 0.662598 0.322266
vt 0.661133 0.336914
vt 0.787598 0.257324
vt 0.791016 0.244141
vt 0.770508 0.239258
vt 0.766602 0.252930
vt 0.773438 0.343262
vt 0.769531 0.330078
vt 0.789062 0.325195
vt 0.793945 0.336426
vt 0.627441 0.226074
vt 0.631836 0.240723
vt 0.604980 0.246582
vt 0.600586 0.234375
vt 0.521973 0.285645
vt 0.539062 0.285156
vt 0.540039 0.292480
vt 0.521973 0.293457
vt 0.600586 0.339844
vt 0.604492 0.328125
vt 0.628906 0.348145
vt 0.747070 0.333984
vt 0.745117 0.320312
vt 0.767578 0.317871
vt 0.506348 0.318359
vt 0.521484 0.317871
vt 0.521973 0.300293
vt 0.505859 0.301758
vt 0.505859 0.294434
vt 0.505859 0.285645
vt 0.786621 0.314941
vt 0.520020 0.258301
vt 0.505859 0.258789
vt 0.505859 0.265137
vt 0.520508 0.264160
vt 0.537598 0.319824
vt 0.539062 0.313965
vt 0.765137 0.266602
vt 0.765137 0.279785
vt 0.743164 0.278809
vt 0.743652 0.264648
vt 0.521973 0.277832
vt 0.538086 0.277344
vt 0.537109 0.269531
vt 0.521484 0.270996
vt 0.535156 0.262207
vt 0.719238 0.336914
vt 0.718262 0.321777
vt 0.533691 0.255859
vt 0.559570 0.257812
vt 0.557129 0.249512
vt 0.580078 0.252930
vt 0.576172 0.242676
vt 0.659668 0.235840
vt 0.656250 0.219238
vt 0.662598 0.265137
vt 0.663086 0.279785
vt 0.688965 0.278809
vt 0.688965 0.264160
vt 0.685547 0.214844
vt 0.687012 0.232910
vt 0.718262 0.232422
vt 0.718750 0.214355
vt 0.717285 0.263672
vt 0.717773 0.248535
vt 0.744629 0.250000
vt 0.749512 0.217773
vt 0.746582 0.234863
vt 0.774902 0.223145
vt 0.796875 0.230469
vt 0.808105 0.250000
vt 0.814453 0.238281
vt 0.832031 0.248047
vt 0.825684 0.257812
vt 0.839844 0.265625
vt 0.845703 0.257812
vt 0.870117 0.284668
vt 0.864258 0.279785
vt 0.867188 0.276855
vt 0.863281 0.284668
vt 0.840332 0.301758
vt 0.844727 0.308105
vt 0.809570 0.330078
vt 0.804688 0.320312
vt 0.663086 0.293945
vt 0.636230 0.293945
vt 0.636230 0.280762
vt 0.750000 0.349121
vt 0.720703 0.353027
vt 0.688965 0.337891
vt 0.688477 0.354492
vt 0.580566 0.322266
vt 0.577148 0.331543
vt 0.561523 0.317383
vt 0.559082 0.325195
vt 0.562988 0.309570
vt 0.539551 0.307129
vt 0.785645 0.303711
vt 0.766113 0.305664
vt 0.563965 0.284180
vt 0.562988 0.275391
vt 0.561523 0.266113
vt 0.607422 0.258301
vt 0.582520 0.262695
vt 0.634277 0.254395
vt 0.743164 0.292480
vt 0.716797 0.292480
vt 0.717285 0.278320
vt 0.687988 0.249023
vt 0.661621 0.250977
vt 0.804199 0.261230
vt 0.836914 0.271484
vt 0.822266 0.266602
vt 0.851562 0.273926
vt 0.850586 0.282715
vt 0.834473 0.281250
vt 0.852051 0.288574
vt 0.835938 0.293457
vt 0.819824 0.275391
vt 0.801758 0.271484
vt 0.785645 0.269043
vt 0.635742 0.267578
vt 0.635742 0.307129
vt 0.662598 0.308105
vt 0.583984 0.272949
vt 0.582520 0.312988
vt 0.609375 0.270020
vt 0.584961 0.283203
vt 0.609863 0.282227
vt 0.819336 0.282715
vt 0.819336 0.299316
vt 0.819824 0.291992
vt 0.820312 0.310059
vt 0.802246 0.312500
vt 0.688965 0.322754
vt 0.688477 0.307617
vt 0.608887 0.305176
vt 0.606934 0.316895
vt 0.717773 0.307129
vt 0.659180 0.352539
vt 0.801270 0.302246
vt 0.801270 0.292480
vt 0.784668 0.292480
vt 0.765137 0.292480
vt 0.744141 0.306152
vt 0.609863 0.293457
vt 0.584473 0.292969
vt 0.583984 0.303223
vt 0.688477 0.292969
vt 0.784668 0.280762
vt 0.800781 0.281738
vt 0.505859 0.271973
vt 0.827637 0.319336
vt 0.857910 0.268066
vt 0.563965 0.292480
vt 0.540039 0.299805
vt 0.563965 0.300781
vt 0.505859 0.276855
s 1
g Bip001 Tail5
g park_cheshirecat_ob0_L0.tail_Material.001
usemtl Material.001
f 274/1/1 234/2/2 235/3/3 273/4/4
g Bip001 Pelvis
f 292/5/5 295/6/6 294/7/7 293/8/8
g Bip001 Tail3
f 64/9/9 127/10/10 126/11/11 63/12/12
g Bip001 Tail5
f 213/13/13 227/14/14 226/15/15 212/16/16
f 270/17/17 58/18/18 56/19/19 57/20/20
g Bip001 Tail2
f 31/21/21 32/22/22 30/23/23 282/24/24
g Bip001 Tail1
f 12/25/25 23/26/26 22/27/27 10/28/28
g Bip001 Tail2
f 66/29/29 65/30/30 64/9/9 266/31/31
g Bip001 Tail4
f 59/32/32 123/33/33 122/34/34 58/18/18
g Bip001 Pelvis
f 293/8/8 294/7/7 4/35/35 5/36/36
f 291/37/37 296/38/38 295/6/6 292/5/5
f 290/28/39 297/39/40 296/38/38 291/37/37
f 289/25/41 298/40/42 297/39/40 290/28/39
g Bip001 Tail5
f 193/34/43 240/18/44 239/19/45 192/41/46
g Bip001 Pelvis
f 285/42/47 148/43/48 147/44/49 286/45/50
g Bip001 Tail1
f 293/8/8 5/36/36 264/46/51 263/47/52
f 290/28/39 260/27/53 259/26/54 289/25/41
g Bip001 Tail4
f 95/48/55 113/49/56 112/50/57 96/51/58
g Bip001 Tail1
f 288/52/59 258/53/60 257/54/61 287/55/62
f 287/55/62 257/54/61 256/56/63 286/45/50
g Bip001 Tail4
f 60/57/64 124/58/65 123/33/33 59/32/32
g Bip001 Tail1
f 27/59/66 256/56/63 255/60/67 284/61/68
f 284/61/68 255/60/67 219/62/69 283/63/70
g Bip001 Tail2
f 282/24/24 220/23/71 221/22/72 31/21/21
g Bip001 Tail3
f 31/21/21 221/22/72 222/64/73 281/65/74
f 170/66/75 171/67/76 168/68/77 169/69/78
g Bip001 Tail4
f 34/70/79 223/71/80 224/72/81 36/73/82
f 97/74/83 81/75/84 82/76/85 96/51/58
f 280/77/86 225/78/87 226/15/15 279/79/88
g Bip001 Tail5
f 279/79/88 226/15/15 227/14/14 278/80/89
f 278/80/89 227/14/14 228/81/90 41/82/91
f 44/83/92 229/84/93 230/85/94 45/86/95
f 275/87/96 48/88/97 276/89/98
f 275/87/96 49/90/99 48/88/97
f 275/87/96 50/2/100 49/90/99
f 274/1/1 50/2/100 275/87/96
f 273/4/4 235/3/3 236/91/101 272/92/102
f 55/93/103 238/94/104 239/19/45 57/20/20
f 57/20/20 239/19/45 240/18/44 270/17/17
g Bip001 Tail3
f 109/67/105 142/95/106 143/96/107 108/97/108
g Bip001 Tail4
f 269/98/109 241/32/110 242/57/111 268/99/112
f 268/99/112 242/57/111 243/100/113 62/101/114
g Bip001 Tail2
f 266/31/31 245/9/115 246/30/116 66/29/29
f 66/29/29 246/30/116 247/102/117 68/103/118
g Bip001 Tail1
f 68/103/118 247/102/117 248/104/119 265/105/120
f 265/105/120 248/104/119 263/47/52 264/46/51
f 263/47/52 248/104/119 249/106/121 262/107/122
g Bip001 Tail5
f 135/108/123 121/41/124 122/34/34 134/109/125
g Bip001 Tail1
f 259/26/54 252/110/126 253/111/127 258/53/60
f 258/53/60 253/111/127 254/112/128 257/54/61
f 257/54/61 254/112/128 255/60/67 256/56/63
g Bip001 Tail2
f 206/113/129 220/23/71 219/62/69 205/114/130
f 207/115/131 221/22/72 220/23/71 206/113/129
g Bip001 Tail4
f 112/50/57 139/116/132 140/117/133 111/118/134
g Bip001 Tail3
f 209/119/135 223/71/80 222/64/73 208/120/136
g Bip001 Tail4
f 97/74/83 111/118/134 110/68/137 98/69/138
f 211/76/139 225/78/87 224/72/81 210/75/140
f 212/16/16 226/15/15 225/78/87 211/76/139
g Bip001 Tail5
f 214/121/141 228/81/90 227/14/14 213/13/13
f 216/122/142 230/85/94 229/84/93 215/123/143
f 47/124/144 87/122/145 46/85/146
f 217/125/147 231/124/148 216/122/142 157/126/149
f 49/90/99 89/127/150 88/125/151
f 156/128/152 236/91/101 235/3/3 218/127/153
f 156/128/152 218/127/153 217/125/147 157/126/149
f 157/126/149 216/122/142 215/123/143 158/129/154
f 158/129/154 215/123/143 214/121/141 159/130/155
f 159/130/155 214/121/141 213/13/13 161/131/156
f 161/131/156 213/13/13 212/16/16 163/48/157
g Bip001 Tail4
f 165/51/158 211/76/139 210/75/140 167/74/159
f 96/51/58 112/50/57 111/118/134 97/74/83
g Bip001 Tail3
f 169/69/78 209/119/135 208/120/136 170/66/75
f 170/66/75 208/120/136 207/115/131 172/132/160
f 129/133/161 143/96/107 142/95/106 130/134/162
g Bip001 Tail1
f 205/114/130 254/112/128 253/111/127 204/135/163
f 200/136/164 249/106/121 248/104/119 247/102/117
g Bip001 Tail2
f 174/137/165 204/135/163 203/138/166 175/139/167
g Bip001 Tail3
f 172/132/160 173/97/168 171/67/76 170/66/75
g Bip001 Tail4
f 38/78/169 82/76/85 81/75/84 37/72/170
f 169/69/78 168/68/77 166/118/171 167/74/159
f 167/74/159 166/118/171 164/50/172 165/51/158
f 165/51/158 164/50/172 162/49/173 163/48/157
g Bip001 Tail5
f 91/126/174 116/140/175 92/129/176
f 90/128/177 118/141/178 117/142/179
f 155/141/180 237/143/181 236/91/101 156/128/152
f 54/94/182 120/144/183 53/143/184
g Bip001 Tail4
f 194/33/185 241/32/110 240/18/44 193/34/43
f 195/58/186 242/57/111 241/32/110 194/33/185
f 196/145/187 243/100/113 242/57/111 195/58/186
g Bip001 Tail3
f 197/11/188 244/12/189 243/100/113 196/145/187
f 198/10/190 245/9/115 244/12/189 197/11/188
f 185/134/191 197/11/188 196/145/187 186/146/192
g Bip001 Tail1
f 26/56/193 28/60/194 75/112/195 25/54/196
g Bip001 Tail2
f 183/147/197 199/148/198 198/10/190 184/133/199
g Bip001 Tail3
f 184/133/199 198/10/190 197/11/188 185/134/191
g Bip001 Tail4
f 186/146/192 196/145/187 195/58/186 187/149/200
g Bip001 Tail3
f 267/150/201 244/12/189 245/9/115 266/31/31
g Bip001 Pelvis
f 148/43/48 285/42/47 18/45/202 17/44/203
g Bip001 Tail5
f 189/109/204 193/34/43 192/41/46 190/108/205
f 190/108/205 192/41/46 191/144/206 154/151/207
f 190/108/205 154/151/207 151/152/208 153/153/209
g Bip001 Tail1
f 7/8/210 19/47/211 264/46/51 5/36/36
g Bip001 Tail4
f 189/109/204 182/154/212 181/116/213 188/155/214
f 188/155/214 181/116/213 180/117/215 187/149/200
g Bip001 Tail3
f 99/66/216 79/120/217 80/119/218 98/69/138
f 185/134/191 178/95/219 176/96/220 184/133/199
g Bip001 Tail2
f 177/156/221 202/157/222 201/158/223 183/147/197
f 175/139/167 203/138/166 202/157/222 177/156/221
g Bip001 Tail3
f 178/95/219 171/67/76 173/97/168 176/96/220
g Bip001 Tail1
f 74/111/224 75/112/195 76/114/225 102/135/226
g Bip001 Tail4
f 180/117/215 166/118/171 168/68/77 179/159/227
f 181/116/213 164/50/172 166/118/171 180/117/215
f 182/154/212 162/49/173 164/50/172 181/116/213
g Bip001 Tail5
f 153/153/209 160/160/228 162/49/173 182/154/212
f 90/128/177 89/127/150 51/3/229 52/91/230
f 152/161/231 151/152/208 149/142/232 150/140/233
f 215/123/143 229/84/93 228/81/90 214/121/141
g Bip001 Tail3
f 35/71/234 80/119/218 79/120/217 33/64/235
g Bip001 Tail5
f 155/141/180 149/142/232 151/152/208 154/151/207
f 114/160/236 137/153/237 138/154/238 113/49/56
g Bip001 Pelvis
f 1/39/239 10/28/28 9/37/240 2/38/241
g Bip001 Tail5
f 192/41/46 239/19/45 238/94/104 191/144/206
g Bip001 Pelvis
f 286/45/50 147/44/49 146/162/242 287/55/62
g Bip001 Tail1
f 293/8/8 263/47/52 262/107/122 292/5/5
g Bip001 Tail5
f 93/130/243 85/121/244 86/123/245 92/129/176
f 272/92/102 236/91/101 237/143/181 271/163/246
g Bip001 Tail4
f 163/48/157 212/16/16 211/76/139 165/51/158
f 113/49/56 138/154/238 139/116/132 112/50/57
g Bip001 Tail5
f 116/140/175 117/142/179 136/152/247 115/161/248
g Bip001 Tail4
f 132/149/249 140/117/133 139/116/132 133/155/250
g Bip001 Tail3
f 179/159/227 168/68/77 171/67/76 178/95/219
g Bip001 Tail5
f 46/85/146 87/122/145 86/123/245 43/84/251
f 53/143/184 118/141/178 90/128/177 52/91/230
f 42/81/252 85/121/244 84/13/253 40/14/254
f 272/92/102 52/91/230 51/3/229 273/4/4
f 45/86/95 230/85/94 231/124/148 277/164/255
g Bip001 Tail1
f 204/135/163 253/111/127 252/110/126 203/138/166
g Bip001 Tail5
f 41/82/91 42/81/252 40/14/254 278/80/89
f 41/82/91 228/81/90 229/84/93 44/83/92
g Bip001 Tail2
f 175/139/167 173/97/168 172/132/160 174/137/165
g Bip001 Tail4
f 36/73/82 224/72/81 225/78/87 280/77/86
g Bip001 Tail1
f 286/45/50 256/56/63 27/59/66 285/42/47
g Bip001 Tail4
f 279/79/88 39/15/256 38/78/169 280/77/86
g Bip001 Tail2
f 172/132/160 207/115/131 206/113/129 174/137/165
f 184/133/199 176/96/220 177/156/221 183/147/197
g Bip001 Tail1
f 260/27/53 251/165/257 252/110/126 259/26/54
f 261/166/258 250/167/259 251/165/257 260/27/53
g Bip001 Tail4
f 270/17/17 240/18/44 241/32/110 269/98/109
g Bip001 Tail1
f 219/62/69 255/60/67 254/112/128 205/114/130
f 292/5/5 262/107/122 261/166/258 291/37/37
g Bip001 Tail4
f 133/155/250 139/116/132 138/154/238 134/109/125
g Bip001 Tail5
f 161/131/156 160/160/228 152/161/231 159/130/155
f 218/127/153 235/3/3 234/2/2 233/90/260
f 45/86/95 46/85/146 43/84/251 44/83/92
f 91/126/174 87/122/145 47/124/144 88/125/151
g Bip001 Tail2
f 101/137/261 107/139/262 106/138/263 102/135/226
f 174/137/165 206/113/129 205/114/130 204/135/163
g Bip001 Tail1
f 67/102/264 69/104/265 70/106/266 103/136/267
g Bip001 Pelvis
f 11/40/268 12/25/25 10/28/28 1/39/239
g Bip001 Tail5
f 157/126/149 150/140/233 149/142/232 156/128/152
f 152/161/231 160/160/228 153/153/209 151/152/208
g Bip001 Tail1
f 283/63/70 29/62/269 28/60/194 284/61/68
f 203/138/166 252/110/126 251/165/257 202/157/222
g Bip001 Tail5
f 135/108/123 137/153/237 136/152/247 119/151/270
g Bip001 Tail2
f 68/103/118 67/102/264 65/30/30 66/29/29
g Bip001 Tail5
f 163/48/157 162/49/173 160/160/228 161/131/156
f 277/164/255 231/124/148 232/88/271 276/89/98
f 191/144/206 237/143/181 155/141/180 154/151/207
f 278/80/89 40/14/254 39/15/256 279/79/88
g Bip001 Tail3
f 100/132/272 78/115/273 79/120/217 99/66/216
g Bip001 Tail1
f 20/107/274 70/106/266 69/104/265 19/47/211
g Bip001 Tail2
f 175/139/167 177/156/221 176/96/220 173/97/168
g Bip001 Tail4
f 187/149/200 180/117/215 179/159/227 186/146/192
g Bip001 Tail1
f 202/157/222 251/165/257 250/167/259 201/158/223
g Bip001 Tail5
f 94/131/275 84/13/253 85/121/244 93/130/243
g Bip001 Tail1
f 289/25/41 259/26/54 258/53/60 288/52/59
g Bip001 Tail5
f 271/163/246 237/143/181 238/94/104 55/93/103
g Bip001 Tail4
f 132/149/249 124/58/65 125/145/276 131/146/277
g Bip001 Pelvis
f 6/7/278 7/8/210 5/36/36 4/35/35
g Bip001 Tail4
f 111/118/134 140/117/133 141/159/279 110/68/137
g Bip001 Tail1
f 16/55/280 25/54/196 24/53/281 14/52/282
g Bip001 Tail3
f 186/146/192 179/159/227 178/95/219 185/134/191
g Bip001 Tail4
f 268/99/112 60/57/64 59/32/32 269/98/109
g Bip001 Tail5
f 115/161/248 136/152/247 137/153/237 114/160/236
f 119/151/270 136/152/247 117/142/179 118/141/178
f 156/128/152 149/142/232 155/141/180
f 90/128/177 117/142/179 116/140/175 91/126/174
f 158/129/154 150/140/233 157/126/149
f 92/129/176 116/140/175 115/161/248 93/130/243
f 93/130/243 115/161/248 114/160/236 94/131/275
f 94/131/275 114/160/236 113/49/56 95/48/55
f 95/48/55 83/16/283 84/13/253 94/131/275
g Bip001 Tail4
f 36/73/82 37/72/170 35/71/234 34/70/79
g Bip001 Tail3
f 98/69/138 110/68/137 109/67/105 99/66/216
g Bip001 Tail2
f 100/132/272 108/97/108 107/139/262 101/137/261
f 108/97/108 143/96/107 144/156/284 107/139/262
g Bip001 Tail3
f 110/68/137 141/159/279 142/95/106 109/67/105
f 281/65/74 33/64/235 32/22/22 31/21/21
g Bip001 Tail2
f 129/133/161 145/147/285 144/156/284 143/96/107
f 32/22/22 78/115/273 77/113/286 30/23/23
g Bip001 Tail3
f 130/134/162 142/95/106 141/159/279 131/146/277
g Bip001 Tail4
f 131/146/277 141/159/279 140/117/133 132/149/249
g Bip001 Tail1
f 201/158/223 250/167/259 249/106/121 200/136/164
g Bip001 Tail5
f 134/109/125 138/154/238 137/153/237 135/108/123
g Bip001 Tail1
f 284/61/68 28/60/194 26/56/193 27/59/66
g Bip001 Tail4
f 134/109/125 122/34/34 123/33/33 133/155/250
f 133/155/250 123/33/33 124/58/65 132/149/249
g Bip001 Tail1
f 18/45/202 26/56/193 25/54/196 16/55/280
g Bip001 Tail3
f 131/146/277 125/145/276 126/11/11 130/134/162
g Bip001 Tail5
f 190/108/205 153/153/209 182/154/212 189/109/204
g Bip001 Tail2
f 104/158/287 145/147/285 128/148/288 103/136/267
f 102/135/226 76/114/225 77/113/286 101/137/261
f 101/137/261 77/113/286 78/115/273 100/132/272
g Bip001 Tail3
f 63/12/12 126/11/11 125/145/276 61/100/289
g Bip001 Tail4
f 98/69/138 80/119/218 81/75/84 97/74/83
f 96/51/58 82/76/85 83/16/283 95/48/55
g Bip001 Tail1
f 265/105/120 69/104/265 67/102/264 68/103/118
f 291/37/37 261/166/258 260/27/53 290/28/39
g Bip001 Tail3
f 33/64/235 79/120/217 78/115/273 32/22/22
f 62/101/114 243/100/113 244/12/189 267/150/201
g Bip001 Tail4
f 37/72/170 81/75/84 80/119/218 35/71/234
g Bip001 Tail5
f 40/14/254 84/13/253 83/16/283 39/15/256
f 43/84/251 86/123/245 85/121/244 42/81/252
f 216/122/142 231/124/148 230/85/94
f 49/90/99 88/125/151 47/124/144 48/88/97
f 218/127/153 233/90/260 217/125/147
f 51/3/229 89/127/150 49/90/99 50/2/100
f 53/143/184 120/144/183 119/151/270 118/141/178
f 191/144/206 238/94/104 237/143/181
f 56/19/19 121/41/124 120/144/183 54/94/182
f 58/18/18 122/34/34 121/41/124 56/19/19
g Bip001 Tail4
f 210/75/140 224/72/81 223/71/80 209/119/135
g Bip001 Tail2
f 65/30/30 128/148/288 127/10/10 64/9/9
f 67/102/264 103/136/267 128/148/288 65/30/30
g Bip001 Tail5
f 57/20/20 56/19/19 54/94/182 55/93/103
g Bip001 Tail1
f 71/167/290 104/158/287 103/136/267 70/106/266
f 72/165/291 105/157/292 104/158/287 71/167/290
f 73/110/293 106/138/263 105/157/292 72/165/291
f 102/135/226 106/138/263 73/110/293 74/111/224
f 29/62/269 76/114/225 75/112/195 28/60/194
g Bip001 Tail2
f 183/147/197 201/158/223 200/136/164 199/148/198
g Bip001 Tail4
f 188/155/214 194/33/185 193/34/43 189/109/204
g Bip001 Tail1
f 23/26/26 73/110/293 72/165/291 22/27/27
f 22/27/27 72/165/291 71/167/290 21/166/294
f 21/166/294 71/167/290 70/106/266 20/107/274
g Bip001 Tail2
f 30/23/23 77/113/286 76/114/225 29/62/269
g Bip001 Tail3
f 266/31/31 64/9/9 63/12/12 267/150/201
f 267/150/201 63/12/12 61/100/289 62/101/114
g Bip001 Tail4
f 61/100/289 125/145/276 124/58/65 60/57/64
g Bip001 Tail3
f 99/66/216 109/67/105 108/97/108 100/132/272
g Bip001 Tail4
f 269/98/109 59/32/32 58/18/18 270/17/17
g Bip001 Tail2
f 128/148/288 145/147/285 129/133/161 127/10/10
g Bip001 Tail5
f 55/93/103 54/94/182 53/143/184 271/163/246
f 271/163/246 53/143/184 52/91/230 272/92/102
f 273/4/4 51/3/229 50/2/100 274/1/1
f 275/87/96 234/2/2 274/1/1
f 275/87/96 233/90/260 234/2/2
f 275/87/96 232/88/271 233/90/260
f 276/89/98 232/88/271 275/87/96
f 276/89/98 48/88/97 47/124/144 277/164/255
f 277/164/255 47/124/144 46/85/146 45/86/95
f 44/83/92 43/84/251 42/81/252 41/82/91
g Bip001 Tail1
f 262/107/122 249/106/121 250/167/259 261/166/258
g Bip001 Tail2
f 105/157/292 144/156/284 145/147/285 104/158/287
g Bip001 Tail4
f 280/77/86 38/78/169 37/72/170 36/73/82
f 62/101/114 61/100/289 60/57/64 268/99/112
g Bip001 Tail3
f 34/70/79 35/71/234 33/64/235 281/65/74
g Bip001 Tail2
f 199/148/198 246/30/116 245/9/115 198/10/190
f 107/139/262 144/156/284 105/157/292 106/138/263
f 282/24/24 30/23/23 29/62/269 283/63/70
g Bip001 Tail1
f 24/53/281 74/111/224 73/110/293 23/26/26
f 27/59/66 26/56/193 18/45/202 285/42/47
f 25/54/196 75/112/195 74/111/224 24/53/281
f 14/52/282 24/53/281 23/26/26 12/25/25
f 10/28/28 22/27/27 21/166/294 9/37/240
f 9/37/240 21/166/294 20/107/274 8/5/295
f 8/5/295 20/107/274 19/47/211 7/8/210
g Bip001 Tail4
f 39/15/256 83/16/283 82/76/85 38/78/169
g Bip001 Pelvis
f 3/6/296 8/5/295 7/8/210 6/7/278
f 13/168/297 14/52/282 12/25/25 11/40/268
f 15/162/298 16/55/280 14/52/282 13/168/297
f 17/44/203 18/45/202 16/55/280 15/162/298
f 288/52/59 299/168/299 298/40/42 289/25/41
f 287/55/62 146/162/242 299/168/299 288/52/59
g Bip001 Tail2
f 200/136/164 247/102/117 246/30/116 199/148/198
g Bip001 Tail3
f 130/134/162 126/11/11 127/10/10 129/133/161
g Bip001 Tail1
f 19/47/211 69/104/265 265/105/120 264/46/51
g Bip001 Tail2
f 283/63/70 219/62/69 220/23/71 282/24/24
g Bip001 Tail3
f 281/65/74 222/64/73 223/71/80 34/70/79
g Bip001 Tail5
f 119/151/270 120/144/183 121/41/124 135/108/123
g Bip001 Tail4
f 187/149/200 195/58/186 194/33/185 188/155/214
g Bip001 Tail3
f 208/120/136 222/64/73 221/22/72 207/115/131
g Bip001 Tail5
f 159/130/155 152/161/231 150/140/233 158/129/154
g Bip001 Tail4
f 167/74/159 210/75/140 209/119/135 169/69/78
g Bip001 Pelvis
f 2/38/241 9/37/240 8/5/295 3/6/296
g Bip001 Tail5
f 92/129/176 86/123/245 87/122/145 91/126/174
f 91/126/174 88/125/151 89/127/150 90/128/177
f 217/125/147 233/90/260 232/88/271 231/124/148
g Bip001 Pelvis
f 294/7/7 295/6/6 296/38/38 297/39/40 298/40/42 299/168/299 146/162/242 147/44/49 148/43/48 17/44/203 15/162/298 13/168/297 11/40/268 1/39/239 2/38/241 3/6/296 6/7/278 4/35/35
