# Blender 5.1.1
# www.blender.org
mtllib SonicRightIndex.mtl
o Cube_2.008
v -2.756697 3.070445 0.236216
v -2.756697 3.186010 0.236216
v -2.783665 3.070445 0.137827
v -2.783665 3.186010 0.137827
v -3.270442 3.070445 0.408928
v -3.270442 3.186010 0.408928
v -3.305793 3.070445 0.303776
v -3.305793 3.186010 0.303776
v -3.138114 3.070445 0.362302
v -2.968740 3.070445 0.306183
v -3.138114 3.186010 0.362302
v -2.968740 3.186010 0.306183
v -3.173464 3.186010 0.257150
v -3.004091 3.186010 0.201031
v -3.173464 3.070445 0.257150
v -3.004091 3.070445 0.201031
v -2.774372 3.216050 0.183640
v -2.986415 3.200803 0.253607
v -3.155789 3.200803 0.309725
v -3.288118 3.200803 0.356352
v -3.288118 3.055652 0.356352
v -3.155789 3.055652 0.309725
v -2.986415 3.055652 0.253607
v -2.774372 3.055652 0.183640
v -2.764587 3.128392 0.266337
v -2.964216 3.128227 0.319643
v -3.133590 3.128227 0.375761
v -3.265918 3.128227 0.422387
v -3.358593 3.128227 0.374704
v -3.310318 3.128227 0.290316
v -3.177989 3.128227 0.243690
v -3.008616 3.128227 0.187572
v -2.785203 3.128227 0.139050
v -3.330053 3.088019 0.407011
v -3.330053 3.168435 0.407011
v -3.353980 3.088019 0.335837
v -3.353980 3.168435 0.335837
v -3.342016 3.178448 0.371424
v -3.342016 3.078007 0.371424
v -3.326904 3.128227 0.416377
v -3.357128 3.128227 0.326472
v -3.353319 3.108605 0.390391
v -3.353319 3.147850 0.390391
v -3.363867 3.108605 0.359017
v -3.363867 3.147850 0.359017
v -3.358593 3.152264 0.374704
v -3.358593 3.104191 0.374704
v -3.351782 3.128227 0.394962
v -3.365403 3.128227 0.354446
v -2.827383 3.055652 0.201132
v -2.838771 3.070445 0.153628
v -2.841056 3.128227 0.151180
v -2.838771 3.186010 0.153628
v -2.827383 3.212239 0.201132
v -2.809708 3.186010 0.253708
v -2.814495 3.128350 0.279663
v -2.809708 3.070445 0.253708
v -2.839334 3.070445 0.138040
v -2.946657 3.055652 0.240488
v -2.928982 3.070445 0.293065
v -2.926785 3.128258 0.309648
v -2.928982 3.186010 0.293065
v -2.946657 3.203661 0.240488
v -2.962761 3.186010 0.189180
v -2.966726 3.128227 0.178474
v -2.962761 3.070445 0.189180
v -3.028759 3.055652 0.267637
v -3.046434 3.070445 0.215061
v -3.050959 3.128227 0.201602
v -3.046434 3.186010 0.215061
v -3.028759 3.200803 0.267637
v -3.011084 3.186010 0.320213
v -3.006559 3.128227 0.333672
v -3.011084 3.070445 0.320213
v -3.124032 3.055652 0.299203
v -3.141707 3.070445 0.246627
v -3.146232 3.128227 0.233168
v -3.141707 3.186010 0.246627
v -3.124032 3.200803 0.299203
v -3.106356 3.186010 0.351779
v -3.101832 3.128227 0.365239
v -3.106356 3.070445 0.351779
v -3.188871 3.055652 0.321382
v -3.206546 3.070445 0.268806
v -3.211071 3.128227 0.255347
v -3.206546 3.186010 0.268806
v -3.188871 3.200803 0.321382
v -3.171196 3.186010 0.373958
v -3.166671 3.128227 0.387418
v -3.171196 3.070445 0.373958
vn -0.1262 -0.9913 -0.0370
vn 0.0891 -0.9806 0.1746
vn -0.3041 0.0029 -0.9526
vn 0.4986 0.8558 0.1381
vn -0.0686 0.9444 0.3215
vn -0.0549 0.6572 0.7517
vn 0.0461 0.3650 0.9298
vn -0.1150 -0.5732 0.8113
vn -0.8303 -0.0000 0.5573
vn -0.9479 -0.0000 0.3187
vn -0.9105 -0.2795 0.3049
vn -0.8249 -0.2285 0.5171
vn 0.2373 -0.7001 0.6735
vn 0.3323 -0.0000 0.9432
vn 0.1194 -0.0000 0.9928
vn 0.0109 -0.6839 0.7295
vn 0.2246 0.7001 0.6778
vn 0.3145 -0.0000 0.9493
vn 0.3002 0.0004 0.9539
vn 0.2080 0.6992 0.6840
vn 0.2025 -0.7191 0.6648
vn 0.2859 0.0015 0.9583
vn 0.2157 -0.7036 0.6771
vn 0.2373 0.7001 0.6735
vn -0.0000 1.0000 -0.0000
vn -0.1798 0.9819 0.0598
vn 0.0109 0.6839 0.7295
vn -0.2246 0.7001 -0.6778
vn -0.0151 0.9999 0.0037
vn -0.2151 0.6910 -0.6902
vn 0.1931 0.6951 0.6925
vn -0.0323 0.9995 0.0009
vn -0.2373 0.7001 -0.6735
vn -0.3323 -0.0000 -0.9432
vn -0.4781 -0.0000 -0.8783
vn -0.4138 0.6847 -0.6000
vn -0.2246 -0.7001 -0.6778
vn -0.3145 -0.0000 -0.9493
vn -0.2794 -0.0000 -0.9602
vn -0.2045 -0.6954 -0.6889
vn -0.2153 0.6416 -0.7362
vn -0.2441 -0.0000 -0.9697
vn -0.2373 -0.7001 -0.6735
vn -0.0000 -1.0000 -0.0000
vn -0.1798 -0.9819 0.0598
vn -0.4138 -0.6847 -0.6000
vn 0.2246 -0.7001 0.6778
vn 0.0010 -1.0000 -0.0014
vn -0.1889 -0.6699 -0.7180
vn 0.0008 -1.0000 -0.0066
vn -0.2337 0.5524 -0.8002
vn -0.0357 0.9993 -0.0139
vn 0.2309 0.7002 0.6756
vn -0.2309 0.7001 -0.6756
vn -0.9685 0.2420 0.0585
vn -0.9998 -0.0000 0.0199
vn -0.9105 0.2795 0.3049
vn 0.2309 -0.7001 0.6756
vn -0.2309 -0.7002 -0.6756
vn 0.1947 -0.7444 0.6387
vn -0.0019 -0.9999 -0.0155
vn 0.1969 0.6889 0.6976
vn 0.2858 0.0016 0.9583
vn 0.3234 -0.0000 0.9462
vn -0.8248 0.2285 0.5172
vn -0.9685 -0.2419 0.0584
vn -0.3234 -0.0000 -0.9463
vn -0.1991 -0.6253 -0.7546
vn -0.3959 -0.0000 0.9183
vn -0.5037 -0.5026 0.7026
vn -0.6069 -0.7687 0.2022
vn -0.7995 0.5207 -0.2994
vn -0.6068 0.7687 0.2022
vn -0.8266 -0.0000 -0.5627
vn -0.5037 0.5026 0.7026
vn -0.7995 -0.5207 -0.2994
vt 0.125000 0.500000
vt 0.250000 0.500000
vt 0.250000 0.750000
vt 0.250000 1.000000
vt 0.125000 1.000000
vt 0.000000 1.000000
vt 0.000000 0.750000
vt 0.000000 0.500000
vt 0.086654 0.750000
vt 0.125000 0.750000
vt 0.125000 0.667203
vt 0.093148 0.678090
vt 0.156852 0.821910
vt 0.163346 0.750000
vt 0.125000 0.832797
vt 0.093148 0.821910
vt 0.156852 0.678090
vt 0.039909 0.750000
vt 0.046514 0.589248
vt 0.125000 0.577006
vt 0.203486 0.910752
vt 0.125000 0.922994
vt 0.210091 0.750000
vt 0.046514 0.910752
vt 0.203486 0.589248
s 1
usemtl Mat.5
f 24/1/1 3/2/2 33/3/3 4/4/4 17/5/5 2/6/6 25/7/7 1/8/8
f 48/9/9 29/10/10 47/11/11 42/12/12
f 90/8/13 89/7/14 28/7/15 5/8/16
f 72/6/17 73/7/18 26/7/19 12/6/20
f 60/8/21 61/7/22 26/7/19 10/8/23
f 88/6/24 87/5/25 20/5/26 6/6/27
f 70/4/28 71/5/25 18/5/29 14/4/30
f 62/6/31 63/5/32 18/5/29 12/6/20
f 86/4/33 85/3/34 30/3/35 8/4/36
f 68/2/37 69/3/38 32/3/39 16/2/40
f 64/4/41 65/3/42 32/3/39 14/4/30
f 84/2/43 83/1/44 21/1/45 7/2/46
f 74/8/47 67/1/44 23/1/48 10/8/23
f 66/2/49 59/1/50 23/1/48 16/2/40
f 4/4/4 53/4/51 54/5/52 17/5/5
f 11/6/53 80/6/17 79/5/25 19/5/25
f 13/4/54 86/4/33 87/5/25 19/5/25
f 45/13/55 49/14/56 29/10/10 46/15/57
f 9/8/58 90/8/13 83/1/44 22/1/44
f 15/2/59 76/2/37 75/1/44 22/1/44
f 1/8/8 57/8/60 50/1/61 24/1/1
f 2/6/6 55/6/62 56/7/63 25/7/7
f 9/8/58 82/8/47 81/7/18 27/7/64
f 11/6/53 88/6/24 89/7/14 27/7/64
f 43/16/65 46/15/57 29/10/10 48/9/9
f 44/17/66 47/11/11 29/10/10 49/14/56
f 15/2/59 84/2/43 85/3/34 31/3/67
f 13/4/54 78/4/28 77/3/38 31/3/67
f 3/2/2 51/2/68 52/3/42 33/3/3
f 5/8/16 28/7/15 40/18/69 34/19/70
f 21/1/45 5/8/16 34/19/70 39/20/71
f 20/5/26 8/4/36 37/21/72 38/22/73
f 8/4/36 30/3/35 41/23/74 37/21/72
f 28/7/15 6/6/27 35/24/75 40/18/69
f 6/6/27 20/5/26 38/22/73 35/24/75
f 30/3/35 7/2/46 36/25/76 41/23/74
f 7/2/46 21/1/45 39/20/71 36/25/76
f 34/19/70 40/18/69 48/9/9 42/12/12
f 39/20/71 34/19/70 42/12/12 47/11/11
f 38/22/73 37/21/72 45/13/55 46/15/57
f 37/21/72 41/23/74 49/14/56 45/13/55
f 40/18/69 35/24/75 43/16/65 48/9/9
f 35/24/75 38/22/73 46/15/57 43/16/65
f 41/23/74 36/25/76 44/17/66 49/14/56
f 36/25/76 39/20/71 47/11/11 44/17/66
f 3/2/2 24/1/1 50/1/61 51/2/68
f 66/2/49 65/3/42 52/3/42 51/2/68
f 4/4/4 33/3/3 52/3/42 53/4/51
f 64/4/41 63/5/32 54/5/52 53/4/51
f 2/6/6 17/5/5 54/5/52 55/6/62
f 62/6/31 61/7/22 56/7/63 55/6/62
f 1/8/8 25/7/7 56/7/63 57/8/60
f 60/8/21 59/1/50 50/1/61 57/8/60
f 10/8/23 23/1/48 59/1/50 60/8/21
f 57/8/60 56/7/63 61/7/22 60/8/21
f 12/6/20 26/7/19 61/7/22 62/6/31
f 55/6/62 54/5/52 63/5/32 62/6/31
f 14/4/30 18/5/29 63/5/32 64/4/41
f 53/4/51 52/3/42 65/3/42 64/4/41
f 16/2/40 32/3/39 65/3/42 66/2/49
f 51/2/68 50/1/61 59/1/50 66/2/49
f 16/2/40 23/1/48 67/1/44 68/2/37
f 76/2/37 77/3/38 69/3/38 68/2/37
f 14/4/30 32/3/39 69/3/38 70/4/28
f 78/4/28 79/5/25 71/5/25 70/4/28
f 12/6/20 18/5/29 71/5/25 72/6/17
f 80/6/17 81/7/18 73/7/18 72/6/17
f 10/8/23 26/7/19 73/7/18 74/8/47
f 82/8/47 75/1/44 67/1/44 74/8/47
f 68/2/37 67/1/44 75/1/44 76/2/37
f 15/2/59 31/3/67 77/3/38 76/2/37
f 70/4/28 69/3/38 77/3/38 78/4/28
f 13/4/54 19/5/25 79/5/25 78/4/28
f 72/6/17 71/5/25 79/5/25 80/6/17
f 11/6/53 27/7/64 81/7/18 80/6/17
f 74/8/47 73/7/18 81/7/18 82/8/47
f 9/8/58 22/1/44 75/1/44 82/8/47
f 15/2/59 22/1/44 83/1/44 84/2/43
f 7/2/46 30/3/35 85/3/34 84/2/43
f 13/4/54 31/3/67 85/3/34 86/4/33
f 8/4/36 20/5/26 87/5/25 86/4/33
f 11/6/53 19/5/25 87/5/25 88/6/24
f 6/6/27 28/7/15 89/7/14 88/6/24
f 9/8/58 27/7/64 89/7/14 90/8/13
f 5/8/16 21/1/45 83/1/44 90/8/13
l 3 58
