# Blender 5.1.1
# www.blender.org
mtllib GreyChaosEmerald.mtl
o emerald_6
v 0.009088 0.007388 0.002810
v 0.005760 0.007388 0.007391
v 0.000374 0.007388 0.009141
v -0.005011 0.007388 0.007391
v -0.008339 0.007388 0.002810
v -0.008339 0.007388 -0.002852
v -0.005011 0.007388 -0.007433
v 0.000374 0.007388 -0.009183
v 0.005760 0.007388 -0.007433
v 0.009088 0.007388 -0.002852
v 0.006797 -0.004511 0.002066
v 0.004344 -0.004511 0.005443
v 0.000374 -0.004511 0.006732
v -0.003595 -0.004511 0.005443
v -0.006048 -0.004511 0.002066
v -0.006048 -0.004511 -0.002108
v -0.003595 -0.004511 -0.005485
v 0.000374 -0.004511 -0.006774
v 0.004344 -0.004511 -0.005485
v 0.006797 -0.004511 -0.002108
v 0.000374 -0.012359 -0.000021
v 0.012209 0.004401 0.006009
v 0.009767 0.004401 0.009371
v 0.006405 0.004401 0.011814
v 0.002452 0.004401 0.013098
v -0.001703 0.004401 0.013098
v -0.005656 0.004401 0.011814
v -0.009018 0.004401 0.009371
v -0.011460 0.004401 0.006009
v -0.012745 0.004401 0.002057
v -0.012745 0.004401 -0.002099
v -0.011460 0.004401 -0.006051
v -0.009018 0.004401 -0.009413
v -0.005656 0.004401 -0.011856
v -0.001703 0.004401 -0.013140
v 0.002452 0.004401 -0.013140
v 0.006405 0.004401 -0.011856
v 0.009767 0.004401 -0.009413
v 0.012209 0.004401 -0.006051
v 0.013493 0.004401 -0.002099
v 0.013493 0.004401 0.002057
v 0.012764 0.004617 0.004005
v 0.010913 0.004617 0.007636
v 0.008031 0.004617 0.010518
v 0.004400 0.004617 0.012368
v 0.000374 0.004617 0.013006
v -0.003651 0.004617 0.012368
v -0.007283 0.004617 0.010518
v -0.010164 0.004617 0.007636
v -0.012015 0.004617 0.004005
v -0.012652 0.004617 -0.000021
v -0.012015 0.004617 -0.004046
v -0.010164 0.004617 -0.007678
v -0.007283 0.004617 -0.010560
v -0.003651 0.004617 -0.012410
v 0.000374 0.004617 -0.013048
v 0.004400 0.004617 -0.012410
v 0.008031 0.004617 -0.010560
v 0.010913 0.004617 -0.007678
v 0.012764 0.004617 -0.004046
v 0.013401 0.004617 -0.000021
v 0.012837 0.004134 0.004028
v 0.010975 0.004134 0.007681
v 0.008076 0.004134 0.010580
v 0.004424 0.004134 0.012441
v 0.000374 0.004134 0.013082
v -0.003675 0.004134 0.012441
v -0.007328 0.004134 0.010580
v -0.010226 0.004134 0.007681
v -0.012088 0.004134 0.004028
v -0.012729 0.004134 -0.000021
v -0.012088 0.004134 -0.004070
v -0.010226 0.004134 -0.007723
v -0.007328 0.004134 -0.010622
v -0.003675 0.004134 -0.012483
v 0.000374 0.004134 -0.013124
v 0.004424 0.004134 -0.012483
v 0.008076 0.004134 -0.010622
v 0.010975 0.004134 -0.007723
v 0.012837 0.004134 -0.004070
v 0.013478 0.004134 -0.000021
v -0.005453 0.008157 -0.004294
v -0.006852 0.008157 -0.000036
v -0.005478 0.008157 0.004218
v -0.001860 0.008157 0.006851
v 0.002597 0.008157 0.006855
v 0.006211 0.008157 0.004240
v 0.007601 0.008157 -0.000012
v 0.006233 0.008157 -0.004251
v 0.002618 0.008157 -0.006890
v -0.001835 0.008157 -0.006901
v 0.010974 0.004617 0.007517
v 0.010998 0.004617 0.007470
v 0.011017 0.004599 0.007506
vn 0.1867 0.9479 0.2580
vn -0.0003 0.9479 0.3185
vn -0.1873 0.9480 0.2573
vn -0.3029 0.9480 0.0978
vn -0.3021 0.9481 -0.0992
vn -0.1862 0.9479 -0.2584
vn 0.0008 0.9479 -0.3186
vn 0.1876 0.9480 -0.2570
vn 0.3032 0.9479 -0.0978
vn 0.3025 0.9480 0.0989
vn 0.9393 0.1567 0.3052
vn 0.6334 -0.6221 0.4602
vn 0.2419 -0.6221 0.7446
vn -0.2419 -0.6221 0.7446
vn -0.6334 -0.6221 0.4602
vn -0.7830 -0.6221 -0.0000
vn -0.6334 -0.6221 -0.4602
vn -0.2419 -0.6221 -0.7446
vn 0.2419 -0.6221 -0.7446
vn 0.6334 -0.6221 -0.4602
vn 0.7830 -0.6221 -0.0000
vn 0.7990 0.1567 0.5805
vn 0.5805 0.1568 0.7990
vn 0.5499 -0.7868 0.2802
vn 0.3052 0.1567 0.9393
vn 0.4364 -0.7868 0.4364
vn 0.3448 0.8141 0.4672
vn -0.0000 0.1567 0.9876
vn 0.2802 -0.7868 0.5499
vn -0.3052 0.1567 0.9393
vn 0.0966 -0.7868 0.6096
vn -0.0000 0.8127 0.5827
vn -0.5805 0.1567 0.7990
vn -0.0966 -0.7868 0.6096
vn -0.7990 0.1567 0.5805
vn -0.2802 -0.7868 0.5499
vn -0.3425 0.8127 0.4714
vn -0.9393 0.1567 0.3052
vn -0.4364 -0.7868 0.4364
vn -0.9876 0.1567 -0.0000
vn -0.5499 -0.7868 0.2802
vn -0.5542 0.8127 0.1801
vn -0.9393 0.1567 -0.3052
vn -0.6096 -0.7868 0.0966
vn -0.7990 0.1567 -0.5805
vn -0.6096 -0.7868 -0.0966
vn -0.5542 0.8127 -0.1801
vn -0.5805 0.1567 -0.7990
vn -0.5499 -0.7868 -0.2802
vn -0.3052 0.1567 -0.9393
vn -0.4364 -0.7868 -0.4364
vn -0.3425 0.8127 -0.4714
vn -0.0000 0.1567 -0.9876
vn -0.2802 -0.7868 -0.5499
vn 0.3052 0.1567 -0.9393
vn -0.0966 -0.7868 -0.6096
vn -0.0000 0.8127 -0.5827
vn 0.5805 0.1567 -0.7990
vn 0.0966 -0.7868 -0.6096
vn 0.7990 0.1567 -0.5805
vn 0.2802 -0.7868 -0.5499
vn 0.3425 0.8127 -0.4714
vn 0.9393 0.1567 -0.3052
vn 0.4364 -0.7868 -0.4364
vn 0.9876 0.1567 -0.0000
vn 0.5499 -0.7868 -0.2802
vn 0.5542 0.8127 -0.1801
vn 0.5549 0.8127 0.1780
vn 0.6096 -0.7868 0.0965
vn 0.6096 -0.7868 -0.0966
vn 0.4549 0.8876 0.0720
vn 0.4549 0.8876 -0.0720
vn 0.4103 0.8876 -0.2091
vn 0.3256 0.8876 -0.3256
vn 0.2091 0.8876 -0.4103
vn 0.0720 0.8876 -0.4549
vn -0.0720 0.8876 -0.4549
vn -0.2091 0.8876 -0.4103
vn -0.3256 0.8876 -0.3256
vn -0.4103 0.8876 -0.2091
vn -0.4549 0.8876 -0.0720
vn -0.4549 0.8876 0.0720
vn -0.4103 0.8876 0.2091
vn -0.3256 0.8876 0.3256
vn -0.2091 0.8876 0.4103
vn -0.0720 0.8876 0.4549
vn 0.0720 0.8876 0.4549
vn 0.2091 0.8876 0.4103
vn 0.3256 0.8876 0.3256
vn 0.4103 0.8876 0.2091
vn 0.4104 0.8876 0.2091
vn 0.7212 -0.5872 0.3675
vn 0.7995 -0.5872 0.1266
vn 0.7995 -0.5872 -0.1266
vn 0.7212 -0.5872 -0.3675
vn 0.5724 -0.5872 -0.5724
vn 0.3675 -0.5872 -0.7212
vn 0.1266 -0.5872 -0.7995
vn -0.1266 -0.5872 -0.7995
vn -0.3675 -0.5872 -0.7212
vn -0.5724 -0.5872 -0.5724
vn -0.7212 -0.5872 -0.3675
vn -0.7995 -0.5872 -0.1266
vn -0.7995 -0.5872 0.1266
vn -0.7212 -0.5872 0.3675
vn -0.5724 -0.5872 0.5724
vn -0.3675 -0.5872 0.7212
vn -0.1266 -0.5872 0.7995
vn 0.1266 -0.5872 0.7995
vn 0.3675 -0.5872 0.7212
vn 0.5724 -0.5872 0.5724
vn 0.5209 0.8536 -0.0000
vn 0.4232 0.8525 0.3068
vn 0.1610 0.8536 0.4954
vn -0.1610 0.8536 0.4954
vn -0.4214 0.8536 0.3062
vn -0.5209 0.8536 -0.0000
vn -0.4214 0.8536 -0.3062
vn -0.1610 0.8536 -0.4954
vn 0.1610 0.8536 -0.4954
vn 0.4214 0.8536 -0.3062
vn -0.0000 1.0000 -0.0000
vt 0.597964 0.115164
vt 0.564010 0.203265
vt 0.524375 0.174587
vt 0.500000 0.083333
vt 0.475492 0.174630
vt 0.402036 0.115164
vt 0.435811 0.203513
vt 0.341491 0.198497
vt 0.420745 0.250159
vt 0.341491 0.301503
vt 0.436089 0.296870
vt 0.402036 0.384836
vt 0.475763 0.325458
vt 0.500000 0.416667
vt 0.524605 0.325339
vt 0.597964 0.384836
vt 0.564257 0.296395
vt 0.658509 0.301503
vt 0.579255 0.249901
vt 0.658509 0.198497
vt 0.698137 0.185621
vt 0.262500 0.500000
vt 0.687500 0.625000
vt 0.743882 0.211373
vt 0.400000 0.750000
vt 0.500000 1.000000
vt 0.375000 0.750000
vt 0.331250 0.625000
vt 0.425000 0.750000
vt 0.368750 0.625000
vt 0.450000 0.750000
vt 0.406250 0.625000
vt 0.475000 0.750000
vt 0.443750 0.625000
vt 0.500000 0.750000
vt 0.481250 0.625000
vt 0.525000 0.750000
vt 0.518750 0.625000
vt 0.550000 0.750000
vt 0.556250 0.625000
vt 0.575000 0.750000
vt 0.593750 0.625000
vt 0.600000 0.750000
vt 0.631250 0.625000
vt 0.625000 0.750000
vt 0.668750 0.625000
vt 0.668545 0.127545
vt 0.287500 0.500000
vt 0.720009 0.137900
vt 0.672664 0.128373
vt 0.622455 0.081455
vt 0.312500 0.500000
vt 0.350000 0.625000
vt 0.674600 0.075400
vt 0.312500 0.625000
vt 0.564379 0.051863
vt 0.337500 0.500000
vt 0.612100 0.029991
vt 0.669514 0.129445
vt 0.500000 0.041667
vt 0.362500 0.500000
vt 0.387500 0.625000
vt 0.538627 0.006118
vt 0.435621 0.051863
vt 0.387500 0.500000
vt 0.461373 0.006118
vt 0.377545 0.081455
vt 0.412500 0.500000
vt 0.425000 0.625000
vt 0.387900 0.029991
vt 0.331455 0.127545
vt 0.437500 0.500000
vt 0.325400 0.075400
vt 0.301863 0.185621
vt 0.462500 0.500000
vt 0.462500 0.625000
vt 0.279991 0.137900
vt 0.291667 0.250000
vt 0.487500 0.500000
vt 0.256118 0.211373
vt 0.301863 0.314379
vt 0.512500 0.500000
vt 0.500000 0.625000
vt 0.256118 0.288627
vt 0.331455 0.372455
vt 0.537500 0.500000
vt 0.279991 0.362100
vt 0.377545 0.418545
vt 0.562500 0.500000
vt 0.537500 0.625000
vt 0.325400 0.424600
vt 0.435621 0.448137
vt 0.587500 0.500000
vt 0.387900 0.470009
vt 0.500000 0.458333
vt 0.612500 0.500000
vt 0.575000 0.625000
vt 0.461373 0.493882
vt 0.564378 0.448137
vt 0.637500 0.500000
vt 0.538627 0.493882
vt 0.622455 0.418545
vt 0.662500 0.500000
vt 0.612500 0.625000
vt 0.612100 0.470009
vt 0.668545 0.372455
vt 0.687500 0.500000
vt 0.674600 0.424600
vt 0.698137 0.314379
vt 0.712500 0.500000
vt 0.650000 0.625000
vt 0.720009 0.362100
vt 0.708333 0.250000
vt 0.737500 0.500000
vt 0.743882 0.288627
vt 0.669897 0.130198
s 1
usemtl Silver
f 2/1/1 87/2/1 86/3/1
f 3/4/2 86/3/2 85/5/2
f 4/6/3 85/5/3 84/7/3
f 5/8/4 84/7/4 83/9/4
f 6/10/5 83/9/5 82/11/5
f 7/12/6 82/11/6 91/13/6
f 8/14/7 91/13/7 90/15/7
f 9/16/8 90/15/8 89/17/8
f 10/18/9 89/17/9 88/19/9
f 1/20/10 88/19/10 87/2/10
f 42/21/11 22/22/11 62/23/11 41/24/11
f 12/25/12 21/26/12 11/27/12 63/28/12
f 13/29/13 21/26/13 12/25/13 65/30/13
f 14/31/14 21/26/14 13/29/14 67/32/14
f 15/33/15 21/26/15 14/31/15 69/34/15
f 16/35/16 21/26/16 15/33/16 71/36/16
f 17/37/17 21/26/17 16/35/17 73/38/17
f 18/39/18 21/26/18 17/37/18 75/40/18
f 19/41/19 21/26/19 18/39/19 77/42/19
f 20/43/20 21/26/20 19/41/20 79/44/20
f 11/45/21 21/26/21 20/43/21 81/46/21
f 43/47/22 23/48/22 63/28/22 22/49/22 94/50/22
f 44/51/23 24/52/23 64/53/23 23/54/23
f 62/55/24 22/22/24 63/28/24
f 45/56/25 25/57/25 65/30/25 24/58/25
f 63/28/26 23/48/26 64/53/26
f 44/51/27 43/47/27 92/59/27 2/1/27 45/56/27
f 46/60/28 26/61/28 66/62/28 25/63/28
f 64/53/29 24/52/29 65/30/29
f 47/64/30 27/65/30 67/32/30 26/66/30
f 65/30/31 25/57/31 66/62/31
f 46/60/32 45/56/32 3/4/32 47/64/32
f 48/67/33 28/68/33 68/69/33 27/70/33
f 66/62/34 26/61/34 67/32/34
f 49/71/35 29/72/35 69/34/35 28/73/35
f 67/32/36 27/65/36 68/69/36
f 48/67/37 47/64/37 4/6/37 49/71/37
f 50/74/38 30/75/38 70/76/38 29/77/38
f 68/69/39 28/68/39 69/34/39
f 51/78/40 31/79/40 71/36/40 30/80/40
f 69/34/41 29/72/41 70/76/41
f 50/74/42 49/71/42 5/8/42 51/78/42
f 52/81/43 32/82/43 72/83/43 31/84/43
f 70/76/44 30/75/44 71/36/44
f 53/85/45 33/86/45 73/38/45 32/87/45
f 71/36/46 31/79/46 72/83/46
f 52/81/47 51/78/47 6/10/47 53/85/47
f 54/88/48 34/89/48 74/90/48 33/91/48
f 72/83/49 32/82/49 73/38/49
f 55/92/50 35/93/50 75/40/50 34/94/50
f 73/38/51 33/86/51 74/90/51
f 54/88/52 53/85/52 7/12/52 55/92/52
f 56/95/53 36/96/53 76/97/53 35/98/53
f 74/90/54 34/89/54 75/40/54
f 57/99/55 37/100/55 77/42/55 36/101/55
f 75/40/56 35/93/56 76/97/56
f 56/95/57 55/92/57 8/14/57 57/99/57
f 58/102/58 38/103/58 78/104/58 37/105/58
f 76/97/59 36/96/59 77/42/59
f 59/106/60 39/107/60 79/44/60 38/108/60
f 77/42/61 37/100/61 78/104/61
f 58/102/62 57/99/62 9/16/62 59/106/62
f 60/109/63 40/110/63 80/111/63 39/112/63
f 78/104/64 38/103/64 79/44/64
f 61/113/65 41/114/65 81/46/65 40/115/65
f 79/44/66 39/107/66 80/111/66
f 60/109/67 59/106/67 10/18/67 61/113/67
f 42/21/68 61/113/68 1/20/68 93/116/68
f 81/46/69 41/114/69 62/23/69
f 80/111/70 40/110/70 81/46/70
f 61/113/71 42/21/71 41/24/71
f 60/109/72 61/113/72 40/115/72
f 59/106/73 60/109/73 39/112/73
f 58/102/74 59/106/74 38/108/74
f 57/99/75 58/102/75 37/105/75
f 56/95/76 57/99/76 36/101/76
f 55/92/77 56/95/77 35/98/77
f 54/88/78 55/92/78 34/94/78
f 53/85/79 54/88/79 33/91/79
f 52/81/80 53/85/80 32/87/80
f 51/78/81 52/81/81 31/84/81
f 50/74/82 51/78/82 30/80/82
f 49/71/83 50/74/83 29/77/83
f 48/67/84 49/71/84 28/73/84
f 47/64/85 48/67/85 27/70/85
f 46/60/86 47/64/86 26/66/86
f 45/56/87 46/60/87 25/63/87
f 44/51/88 45/56/88 24/58/88
f 43/47/89 44/51/89 23/54/89
f 42/21/90 93/116/91 94/50/91 22/49/90
f 62/55/92 63/28/92 11/27/92
f 81/46/93 62/23/93 11/45/93
f 80/111/94 81/46/94 20/43/94
f 79/44/95 80/111/95 20/43/95
f 78/104/96 79/44/96 19/41/96
f 77/42/97 78/104/97 19/41/97
f 76/97/98 77/42/98 18/39/98
f 75/40/99 76/97/99 18/39/99
f 74/90/100 75/40/100 17/37/100
f 73/38/101 74/90/101 17/37/101
f 72/83/102 73/38/102 16/35/102
f 71/36/103 72/83/103 16/35/103
f 70/76/104 71/36/104 15/33/104
f 69/34/105 70/76/105 15/33/105
f 68/69/106 69/34/106 14/31/106
f 67/32/107 68/69/107 14/31/107
f 66/62/108 67/32/108 13/29/108
f 65/30/109 66/62/109 13/29/109
f 64/53/110 65/30/110 12/25/110
f 63/28/111 64/53/111 12/25/111
f 1/20/112 61/113/112 10/18/112 88/19/112
f 94/50/91 92/59/91 43/47/91
f 94/50/91 93/116/91 92/59/91
f 2/1/113 92/59/113 93/116/113 1/20/113 87/2/113
f 3/4/114 45/56/114 2/1/114 86/3/114
f 4/6/115 47/64/115 3/4/115 85/5/115
f 5/8/116 49/71/116 4/6/116 84/7/116
f 6/10/117 51/78/117 5/8/117 83/9/117
f 7/12/118 53/85/118 6/10/118 82/11/118
f 8/14/119 55/92/119 7/12/119 91/13/119
f 9/16/120 57/99/120 8/14/120 90/15/120
f 10/18/121 59/106/121 9/16/121 89/17/121
f 87/2/122 88/19/122 89/17/122 90/15/122 91/13/122 82/11/122 83/9/122 84/7/122 85/5/122 86/3/122
