# Blender 5.1.1
# www.blender.org
mtllib SonicLeftIndex.mtl
o Cube_2.003
v 2.756696 3.070445 0.236216
v 2.756696 3.186010 0.236216
v 2.783664 3.070445 0.137826
v 2.783664 3.186010 0.137826
v 3.270442 3.070444 0.408928
v 3.270442 3.186010 0.408928
v 3.305793 3.070444 0.303776
v 3.305793 3.186010 0.303776
v 3.138114 3.070444 0.362302
v 2.968740 3.070444 0.306183
v 3.138114 3.186010 0.362302
v 2.968740 3.186010 0.306183
v 3.173464 3.186010 0.257150
v 3.004090 3.186010 0.201031
v 3.173464 3.070445 0.257150
v 3.004090 3.070445 0.201031
v 2.774372 3.216050 0.183640
v 2.986415 3.200802 0.253607
v 3.155789 3.200802 0.309726
v 3.288117 3.200802 0.356352
v 3.288117 3.055652 0.356352
v 3.155789 3.055652 0.309726
v 2.986415 3.055652 0.253607
v 2.774372 3.055652 0.183640
v 2.764587 3.128392 0.266337
v 2.964215 3.128227 0.319643
v 3.133589 3.128227 0.375761
v 3.265918 3.128227 0.422387
v 3.358592 3.128227 0.374704
v 3.310317 3.128227 0.290317
v 3.177989 3.128227 0.243690
v 3.008615 3.128227 0.187572
v 2.785203 3.128227 0.139050
v 3.330052 3.088019 0.407011
v 3.330052 3.168435 0.407011
v 3.353979 3.088019 0.335838
v 3.353979 3.168435 0.335838
v 3.342016 3.178448 0.371424
v 3.342016 3.078007 0.371424
v 3.326904 3.128227 0.416377
v 3.357128 3.128227 0.326472
v 3.353319 3.108605 0.390391
v 3.353319 3.147850 0.390391
v 3.363866 3.108605 0.359017
v 3.363866 3.147850 0.359017
v 3.358592 3.152264 0.374704
v 3.358592 3.104191 0.374704
v 3.351782 3.128227 0.394962
v 3.365402 3.128227 0.354446
v 2.827383 3.055652 0.201132
v 2.838771 3.070445 0.153628
v 2.841056 3.128227 0.151180
v 2.838771 3.186010 0.153628
v 2.827383 3.212239 0.201132
v 2.809707 3.186010 0.253708
v 2.814494 3.128350 0.279663
v 2.809707 3.070445 0.253708
v 2.840108 3.128227 0.142832
v 2.946657 3.055652 0.240489
v 2.928982 3.070444 0.293065
v 2.926785 3.128258 0.309648
v 2.928982 3.186010 0.293065
v 2.946657 3.203661 0.240489
v 2.962760 3.186010 0.189180
v 2.966725 3.128227 0.178474
v 2.962760 3.070445 0.189180
v 3.028759 3.055652 0.267637
v 3.046433 3.070445 0.215061
v 3.050959 3.128227 0.201601
v 3.046433 3.186010 0.215061
v 3.028759 3.200802 0.267637
v 3.011084 3.186010 0.320213
v 3.006558 3.128227 0.333672
v 3.011084 3.070444 0.320213
v 3.124031 3.055652 0.299203
v 3.141706 3.070445 0.246627
v 3.146231 3.128227 0.233168
v 3.141706 3.186010 0.246627
v 3.124031 3.200802 0.299203
v 3.106356 3.186010 0.351780
v 3.101831 3.128227 0.365239
v 3.106356 3.070444 0.351780
v 3.188871 3.055652 0.321382
v 3.206546 3.070445 0.268806
v 3.211071 3.128227 0.255347
v 3.206546 3.186010 0.268806
v 3.188871 3.200802 0.321382
v 3.171196 3.186010 0.373958
v 3.166671 3.128227 0.387418
v 3.171196 3.070444 0.373958
vn 0.1262 -0.9913 -0.0369
vn 0.1149 -0.5733 0.8112
vn -0.0462 0.3650 0.9299
vn 0.0550 0.6574 0.7515
vn 0.0687 0.9444 0.3214
vn -0.4985 0.8559 0.1381
vn 0.3040 0.0030 -0.9527
vn -0.0891 -0.9806 0.1746
vn 0.8303 -0.0000 0.5573
vn 0.8248 -0.2285 0.5172
vn 0.9105 -0.2795 0.3049
vn 0.9479 -0.0000 0.3187
vn -0.2373 -0.7001 0.6735
vn -0.0109 -0.6839 0.7295
vn -0.1194 -0.0000 0.9928
vn -0.3323 -0.0000 0.9432
vn -0.2246 0.7001 0.6778
vn -0.2075 0.6993 0.6841
vn -0.3003 0.0003 0.9538
vn -0.3145 -0.0000 0.9493
vn -0.2026 -0.7191 0.6647
vn -0.2154 -0.7033 0.6774
vn -0.2860 0.0014 0.9582
vn -0.2373 0.7001 0.6735
vn -0.0109 0.6839 0.7295
vn 0.1798 0.9819 0.0598
vn -0.0000 1.0000 -0.0000
vn 0.2246 0.7001 -0.6778
vn 0.2151 0.6910 -0.6902
vn 0.0151 0.9999 0.0037
vn -0.1937 0.6949 0.6925
vn 0.0324 0.9995 0.0008
vn 0.2373 0.7001 -0.6735
vn 0.4138 0.6847 -0.6000
vn 0.4781 -0.0000 -0.8783
vn 0.3323 -0.0000 -0.9432
vn 0.2246 -0.7001 -0.6778
vn 0.2045 -0.6954 -0.6889
vn 0.2794 -0.0000 -0.9602
vn 0.3145 -0.0000 -0.9493
vn 0.2153 0.6415 -0.7363
vn 0.2441 -0.0000 -0.9697
vn 0.2373 -0.7001 -0.6735
vn 0.4138 -0.6847 -0.6000
vn 0.1798 -0.9819 0.0598
vn -0.0000 -1.0000 -0.0000
vn -0.2246 -0.7001 0.6778
vn -0.0010 -1.0000 -0.0014
vn 0.1892 -0.6701 -0.7177
vn -0.0008 -1.0000 -0.0066
vn 0.0358 0.9993 -0.0140
vn 0.2335 0.5520 -0.8005
vn -0.2309 0.7002 0.6756
vn 0.2310 0.7000 -0.6757
vn 0.9685 0.2419 0.0584
vn 0.9105 0.2795 0.3049
vn 0.9998 -0.0000 0.0199
vn -0.2309 -0.7001 0.6757
vn 0.2310 -0.7001 -0.6756
vn 0.0018 -0.9999 -0.0151
vn -0.1947 -0.7444 0.6387
vn -0.2857 0.0017 0.9583
vn -0.1969 0.6889 0.6976
vn -0.3234 -0.0000 0.9462
vn 0.8248 0.2285 0.5172
vn 0.9685 -0.2419 0.0584
vn 0.3234 -0.0000 -0.9463
vn 0.1994 -0.6251 -0.7547
vn 0.5037 -0.5026 0.7026
vn 0.3959 -0.0000 0.9183
vn 0.6069 -0.7687 0.2022
vn 0.6068 0.7687 0.2022
vn 0.7995 0.5207 -0.2993
vn 0.8266 -0.0000 -0.5627
vn 0.5037 0.5026 0.7026
vn 0.7995 -0.5207 -0.2994
vt 0.125000 0.500000
vt 0.000000 0.500000
vt 0.000000 0.750000
vt 0.000000 1.000000
vt 0.125000 1.000000
vt 0.250000 1.000000
vt 0.250000 0.750000
vt 0.250000 0.500000
vt 0.086654 0.750000
vt 0.093148 0.678090
vt 0.125000 0.667203
vt 0.125000 0.750000
vt 0.156852 0.821910
vt 0.125000 0.832797
vt 0.163346 0.750000
vt 0.093148 0.821910
vt 0.156852 0.678090
vt 0.046514 0.589248
vt 0.039909 0.750000
vt 0.125000 0.577006
vt 0.125000 0.922994
vt 0.203486 0.910752
vt 0.210091 0.750000
vt 0.046514 0.910752
vt 0.203486 0.589248
s 1
usemtl Mat.5
f 24/1/1 1/2/2 25/3/3 2/4/4 17/5/5 4/6/6 33/7/7 3/8/8
f 48/9/9 42/10/10 47/11/11 29/12/12
f 90/2/13 5/2/14 28/3/15 89/3/16
f 72/4/17 12/4/18 26/3/19 73/3/20
f 60/2/21 10/2/22 26/3/19 61/3/23
f 88/4/24 6/4/25 20/5/26 87/5/27
f 70/6/28 14/6/29 18/5/30 71/5/27
f 62/4/31 12/4/18 18/5/30 63/5/32
f 86/6/33 8/6/34 30/7/35 85/7/36
f 68/8/37 16/8/38 32/7/39 69/7/40
f 64/6/41 14/6/29 32/7/39 65/7/42
f 84/8/43 7/8/44 21/1/45 83/1/46
f 74/2/47 10/2/22 23/1/48 67/1/46
f 66/8/49 16/8/38 23/1/48 59/1/50
f 4/6/6 17/5/5 54/5/51 53/6/52
f 11/4/53 19/5/27 79/5/27 80/4/17
f 13/6/54 19/5/27 87/5/27 86/6/33
f 45/13/55 46/14/56 29/12/12 49/15/57
f 9/2/58 22/1/46 83/1/46 90/2/13
f 15/8/59 22/1/46 75/1/46 76/8/37
f 1/2/2 24/1/1 50/1/60 57/2/61
f 2/4/4 25/3/3 56/3/62 55/4/63
f 9/2/58 27/3/64 81/3/20 82/2/47
f 11/4/53 27/3/64 89/3/16 88/4/24
f 43/16/65 48/9/9 29/12/12 46/14/56
f 44/17/66 49/15/57 29/12/12 47/11/11
f 15/8/59 31/7/67 85/7/36 84/8/43
f 13/6/54 31/7/67 77/7/40 78/6/28
f 3/8/8 33/7/7 52/7/42 51/8/68
f 5/2/14 34/18/69 40/19/70 28/3/15
f 21/1/45 39/20/71 34/18/69 5/2/14
f 20/5/26 38/21/72 37/22/73 8/6/34
f 8/6/34 37/22/73 41/23/74 30/7/35
f 28/3/15 40/19/70 35/24/75 6/4/25
f 6/4/25 35/24/75 38/21/72 20/5/26
f 30/7/35 41/23/74 36/25/76 7/8/44
f 7/8/44 36/25/76 39/20/71 21/1/45
f 34/18/69 42/10/10 48/9/9 40/19/70
f 39/20/71 47/11/11 42/10/10 34/18/69
f 38/21/72 46/14/56 45/13/55 37/22/73
f 37/22/73 45/13/55 49/15/57 41/23/74
f 40/19/70 48/9/9 43/16/65 35/24/75
f 35/24/75 43/16/65 46/14/56 38/21/72
f 41/23/74 49/15/57 44/17/66 36/25/76
f 36/25/76 44/17/66 47/11/11 39/20/71
f 3/8/8 51/8/68 50/1/60 24/1/1
f 66/8/49 51/8/68 52/7/42 65/7/42
f 4/6/6 53/6/52 52/7/42 33/7/7
f 64/6/41 53/6/52 54/5/51 63/5/32
f 2/4/4 55/4/63 54/5/51 17/5/5
f 62/4/31 55/4/63 56/3/62 61/3/23
f 1/2/2 57/2/61 56/3/62 25/3/3
f 60/2/21 57/2/61 50/1/60 59/1/50
f 10/2/22 60/2/21 59/1/50 23/1/48
f 57/2/61 60/2/21 61/3/23 56/3/62
f 12/4/18 62/4/31 61/3/23 26/3/19
f 55/4/63 62/4/31 63/5/32 54/5/51
f 14/6/29 64/6/41 63/5/32 18/5/30
f 53/6/52 64/6/41 65/7/42 52/7/42
f 16/8/38 66/8/49 65/7/42 32/7/39
f 51/8/68 66/8/49 59/1/50 50/1/60
f 16/8/38 68/8/37 67/1/46 23/1/48
f 76/8/37 68/8/37 69/7/40 77/7/40
f 14/6/29 70/6/28 69/7/40 32/7/39
f 78/6/28 70/6/28 71/5/27 79/5/27
f 12/4/18 72/4/17 71/5/27 18/5/30
f 80/4/17 72/4/17 73/3/20 81/3/20
f 10/2/22 74/2/47 73/3/20 26/3/19
f 82/2/47 74/2/47 67/1/46 75/1/46
f 68/8/37 76/8/37 75/1/46 67/1/46
f 15/8/59 76/8/37 77/7/40 31/7/67
f 70/6/28 78/6/28 77/7/40 69/7/40
f 13/6/54 78/6/28 79/5/27 19/5/27
f 72/4/17 80/4/17 79/5/27 71/5/27
f 11/4/53 80/4/17 81/3/20 27/3/64
f 74/2/47 82/2/47 81/3/20 73/3/20
f 9/2/58 82/2/47 75/1/46 22/1/46
f 15/8/59 84/8/43 83/1/46 22/1/46
f 7/8/44 84/8/43 85/7/36 30/7/35
f 13/6/54 86/6/33 85/7/36 31/7/67
f 8/6/34 86/6/33 87/5/27 20/5/26
f 11/4/53 88/4/24 87/5/27 19/5/27
f 6/4/25 88/4/24 89/3/16 28/3/15
f 9/2/58 90/2/13 89/3/16 27/3/64
f 5/2/14 90/2/13 83/1/46 21/1/45
l 33 58
