# Blender 5.1.1
# www.blender.org
mtllib SonicRightRing.mtl
o Cube_2.010
v -2.788454 3.070443 0.008816
v -2.788454 3.186008 0.008816
v -2.785757 3.070443 -0.125603
v -2.785757 3.186008 -0.125603
v -3.324461 3.070443 -0.033313
v -3.324461 3.186008 -0.033313
v -3.318581 3.070443 -0.144092
v -3.318581 3.186008 -0.144092
v -3.201242 3.070443 -0.026772
v -3.015534 3.070443 -0.016914
v -3.201242 3.186008 -0.026772
v -3.015534 3.186008 -0.016914
v -3.195362 3.186008 -0.137551
v -3.009654 3.186008 -0.127693
v -3.195362 3.070443 -0.137551
v -3.009654 3.070443 -0.127693
v -2.780824 3.205244 -0.049789
v -3.012607 3.199703 -0.072055
v -3.198316 3.199703 -0.081913
v -3.321535 3.199703 -0.088454
v -3.321535 3.056748 -0.088454
v -3.198316 3.056748 -0.081913
v -3.012607 3.056748 -0.072055
v -2.780824 3.056748 -0.049789
v -2.787791 3.128226 -0.112895
v -3.008970 3.128226 -0.140571
v -3.194678 3.128226 -0.150430
v -3.317897 3.128226 -0.156971
v -3.403385 3.128226 -0.092799
v -3.325172 3.128226 -0.019937
v -3.201953 3.128226 -0.013396
v -3.016244 3.128226 -0.003538
v -3.388481 3.088220 -0.054789
v -3.388481 3.168231 -0.054789
v -3.384520 3.088222 -0.129403
v -3.384520 3.168230 -0.129403
v -3.386510 3.177454 -0.091926
v -3.386510 3.078997 -0.091926
v -3.384047 3.128226 -0.138320
v -3.388973 3.128226 -0.045528
v -3.404234 3.109043 -0.076799
v -3.404234 3.147408 -0.076799
v -3.402522 3.109046 -0.109054
v -3.402522 3.147406 -0.109054
v -3.403382 3.151395 -0.092849
v -3.403382 3.105057 -0.092849
v -3.402295 3.128226 -0.113329
v -3.404470 3.128226 -0.072358
v -2.838770 3.056748 -0.055355
v -2.845224 3.070443 0.002383
v -2.845535 3.128226 0.002757
v -2.845224 3.186008 0.002383
v -2.838770 3.203859 -0.055355
v -2.841731 3.186008 -0.126125
v -2.843086 3.128226 -0.119814
v -2.841731 3.070443 -0.126125
v -2.843206 3.128226 -0.123843
v -2.969148 3.056748 -0.067880
v -2.972957 3.070443 -0.012089
v -2.973567 3.128226 -0.001964
v -2.972957 3.186008 -0.012089
v -2.969148 3.200742 -0.067880
v -2.967673 3.186008 -0.127301
v -2.967499 3.128226 -0.135382
v -2.967673 3.070443 -0.127301
v -3.151888 3.056748 -0.079448
v -3.148935 3.070443 -0.135086
v -3.148251 3.128226 -0.147965
v -3.148935 3.186008 -0.135086
v -3.151888 3.199703 -0.079448
v -3.154815 3.186008 -0.024307
v -3.155526 3.128226 -0.010931
v -3.154815 3.070443 -0.024307
v -3.229120 3.056748 -0.083548
v -3.226167 3.070443 -0.139186
v -3.225483 3.128226 -0.152065
v -3.226167 3.186008 -0.139186
v -3.229120 3.199703 -0.083548
v -3.232047 3.186008 -0.028407
v -3.232757 3.128226 -0.015031
v -3.232047 3.070443 -0.028407
v -3.047428 3.056748 -0.073903
v -3.044474 3.070443 -0.129541
v -3.043790 3.128226 -0.142420
v -3.044474 3.186008 -0.129541
v -3.047428 3.199703 -0.073903
v -3.050354 3.186008 -0.018762
v -3.051065 3.128226 -0.005386
v -3.050354 3.070443 -0.018762
vn -0.0748 -0.0000 0.9972
vn -0.0671 0.6640 0.7447
vn -0.0514 0.6955 0.7167
vn -0.0639 -0.0000 0.9980
vn -0.9727 -0.0000 0.2321
vn -0.9986 -0.0000 -0.0530
vn -0.9580 -0.2824 -0.0506
vn -0.9535 -0.2351 0.1885
vn -0.0378 -0.7017 0.7115
vn -0.0530 -0.0000 0.9986
vn -0.2158 -0.0000 0.9764
vn -0.2231 -0.6894 0.6892
vn -0.0378 0.7017 0.7115
vn -0.0001 1.0000 0.0010
vn -0.1640 0.9864 -0.0077
vn -0.2231 0.6894 0.6892
vn 0.0379 0.6995 -0.7136
vn -0.0094 1.0000 0.0021
vn 0.0387 0.6922 -0.7207
vn -0.0194 0.9998 0.0091
vn 0.0530 -0.0000 -0.9986
vn -0.1109 -0.0000 -0.9938
vn -0.1494 0.6872 -0.7110
vn 0.0379 -0.6995 -0.7136
vn 0.0599 -0.0000 -0.9982
vn 0.0424 -0.6936 -0.7191
vn 0.0413 0.6544 -0.7550
vn 0.0667 -0.0000 -0.9978
vn -0.0001 -1.0000 0.0010
vn -0.1641 -0.9864 -0.0077
vn -0.1494 -0.6872 -0.7110
vn -0.0032 -1.0000 0.0023
vn -0.0480 -0.6971 0.7153
vn 0.0487 -0.6625 -0.7474
vn -0.0067 -0.9999 0.0089
vn -0.1504 0.9762 0.1562
vn 0.0444 0.5863 -0.8089
vn -0.0208 0.9996 0.0215
vn -0.0748 0.9955 0.0586
vn -0.9285 0.2337 -0.2884
vn -0.9425 -0.0000 -0.3342
vn -0.9580 0.2824 -0.0506
vn 0.2059 -0.8977 -0.3896
vn -0.0622 -0.6325 0.7721
vn -0.0068 -0.9998 0.0175
vn -0.2233 -0.9742 0.0326
vn -0.2897 -0.9530 0.0888
vn 0.0519 -0.6060 -0.7938
vn 0.0672 -0.0000 -0.9977
vn -0.9285 -0.2338 -0.2885
vn -0.9535 0.2351 0.1885
vn -0.0594 -0.6741 0.7363
vn -0.6571 -0.0000 0.7538
vn -0.6937 -0.5232 0.4951
vn -0.6167 -0.7866 -0.0319
vn -0.6385 0.5208 -0.5667
vn -0.6167 0.7866 -0.0319
vn -0.5728 -0.0000 -0.8197
vn -0.6385 -0.5208 -0.5667
vn -0.6937 0.5231 0.4951
vn 0.1358 0.9905 -0.0210
vn -0.0716 0.6091 0.7899
vt 0.500000 0.750000
vt 0.500000 1.000000
vt 0.587708 0.750000
vt 0.625000 0.750000
vt 0.625100 0.668947
vt 0.593823 0.679001
vt 0.500000 0.500000
vt 0.625000 1.000000
vt 0.750000 1.000000
vt 0.750000 0.750000
vt 0.750000 0.500000
vt 0.625000 0.500000
vt 0.656590 0.821029
vt 0.662455 0.750000
vt 0.625100 0.831053
vt 0.656590 0.678971
vt 0.593823 0.820999
vt 0.540394 0.750000
vt 0.546704 0.589299
vt 0.625048 0.577804
vt 0.703640 0.910765
vt 0.625048 0.922196
vt 0.709681 0.750000
vt 0.703640 0.589235
vt 0.546704 0.910701
s 1
usemtl Mat.5
f 60/1/1 61/2/2 12/2/3 32/1/4
f 48/3/5 29/4/6 46/5/7 41/6/8
f 81/7/9 80/1/10 30/1/11 5/7/12
f 87/2/13 88/1/10 32/1/4 12/2/3
f 79/2/13 78/8/14 20/8/15 6/2/16
f 85/9/17 86/8/14 18/8/18 14/9/19
f 61/2/2 62/8/20 18/8/18 12/2/3
f 77/9/17 76/10/21 28/10/22 8/9/23
f 83/11/24 84/10/21 26/10/25 16/11/26
f 63/9/27 64/10/28 26/10/25 14/9/19
f 75/11/24 74/12/29 21/12/30 7/11/31
f 89/7/9 82/12/29 23/12/32 10/7/33
f 65/11/34 58/12/35 23/12/32 16/11/26
f 4/9/36 54/9/37 53/8/38 17/8/39
f 11/2/13 71/2/13 70/8/14 19/8/14
f 13/9/17 77/9/17 78/8/14 19/8/14
f 44/13/40 47/14/41 29/4/6 45/15/42
f 9/7/9 81/7/9 74/12/29 22/12/29
f 15/11/24 67/11/24 66/12/29 22/12/29
f 1/7/43 50/7/44 49/12/45 24/12/46
f 3/11/47 56/11/48 55/10/28 25/10/49
f 13/9/17 69/9/17 68/10/21 27/10/21
f 15/11/24 75/11/24 76/10/21 27/10/21
f 43/16/50 46/5/7 29/4/6 47/14/41
f 42/17/51 45/15/42 29/4/6 48/3/5
f 11/2/13 79/2/13 80/1/10 31/1/10
f 9/7/9 73/7/9 72/1/10 31/1/10
f 59/7/52 60/1/1 32/1/4 10/7/33
f 5/7/12 30/1/11 40/18/53 33/19/54
f 21/12/30 5/7/12 33/19/54 38/20/55
f 20/8/15 8/9/23 36/21/56 37/22/57
f 8/9/23 28/10/22 39/23/58 36/21/56
f 28/10/22 7/11/31 35/24/59 39/23/58
f 7/11/31 21/12/30 38/20/55 35/24/59
f 30/1/11 6/2/16 34/25/60 40/18/53
f 6/2/16 20/8/15 37/22/57 34/25/60
f 33/19/54 40/18/53 48/3/5 41/6/8
f 38/20/55 33/19/54 41/6/8 46/5/7
f 37/22/57 36/21/56 44/13/40 45/15/42
f 36/21/56 39/23/58 47/14/41 44/13/40
f 39/23/58 35/24/59 43/16/50 47/14/41
f 35/24/59 38/20/55 46/5/7 43/16/50
f 40/18/53 34/25/60 42/17/51 48/3/5
f 34/25/60 37/22/57 45/15/42 42/17/51
f 59/7/52 58/12/35 49/12/45 50/7/44
f 2/2/61 17/8/39 53/8/38 52/2/62
f 63/9/27 62/8/20 53/8/38 54/9/37
f 4/9/36 25/10/49 55/10/28 54/9/37
f 65/11/34 64/10/28 55/10/28 56/11/48
f 3/11/47 24/12/46 49/12/45 56/11/48
f 10/7/33 23/12/32 58/12/35 59/7/52
f 50/7/44 51/1/1 60/1/1 59/7/52
f 51/1/1 52/2/62 61/2/2 60/1/1
f 52/2/62 53/8/38 62/8/20 61/2/2
f 14/9/19 18/8/18 62/8/20 63/9/27
f 54/9/37 55/10/28 64/10/28 63/9/27
f 16/11/26 26/10/25 64/10/28 65/11/34
f 56/11/48 49/12/45 58/12/35 65/11/34
f 83/11/24 82/12/29 66/12/29 67/11/24
f 15/11/24 27/10/21 68/10/21 67/11/24
f 85/9/17 84/10/21 68/10/21 69/9/17
f 13/9/17 19/8/14 70/8/14 69/9/17
f 87/2/13 86/8/14 70/8/14 71/2/13
f 11/2/13 31/1/10 72/1/10 71/2/13
f 89/7/9 88/1/10 72/1/10 73/7/9
f 9/7/9 22/12/29 66/12/29 73/7/9
f 15/11/24 22/12/29 74/12/29 75/11/24
f 7/11/31 28/10/22 76/10/21 75/11/24
f 13/9/17 27/10/21 76/10/21 77/9/17
f 8/9/23 20/8/15 78/8/14 77/9/17
f 11/2/13 19/8/14 78/8/14 79/2/13
f 6/2/16 30/1/11 80/1/10 79/2/13
f 9/7/9 31/1/10 80/1/10 81/7/9
f 5/7/12 21/12/30 74/12/29 81/7/9
f 16/11/26 23/12/32 82/12/29 83/11/24
f 67/11/24 68/10/21 84/10/21 83/11/24
f 14/9/19 26/10/25 84/10/21 85/9/17
f 69/9/17 70/8/14 86/8/14 85/9/17
f 12/2/3 18/8/18 86/8/14 87/2/13
f 71/2/13 72/1/10 88/1/10 87/2/13
f 10/7/33 32/1/4 88/1/10 89/7/9
f 73/7/9 66/12/29 82/12/29 89/7/9
l 25 57
