# Blender 5.1.1
# www.blender.org
mtllib SonicRightPinky.mtl
o Cube_2.011
v -2.785757 3.070445 -0.125603
v -2.785757 3.186010 -0.125603
v -2.764491 3.070445 -0.236706
v -2.764491 3.186010 -0.236706
v -3.317544 3.070445 -0.250921
v -3.317544 3.186010 -0.250921
v -3.292515 3.070445 -0.358996
v -3.292515 3.186010 -0.358996
v -3.186435 3.070445 -0.223686
v -3.006976 3.070445 -0.180052
v -3.186435 3.186010 -0.223686
v -3.006976 3.186010 -0.180052
v -3.161406 3.186010 -0.331761
v -2.981946 3.186010 -0.288127
v -3.161406 3.070445 -0.331761
v -2.981946 3.070445 -0.288127
v -2.787791 3.128228 -0.112895
v -2.778357 3.214257 -0.169932
v -2.995063 3.204674 -0.228410
v -3.173775 3.204674 -0.279101
v -3.304135 3.204674 -0.313393
v -3.304135 3.051781 -0.313393
v -3.173775 3.051781 -0.279101
v -2.995063 3.051781 -0.228410
v -2.778357 3.051781 -0.169932
v -2.777974 3.128392 -0.256786
v -2.980673 3.128228 -0.300131
v -3.159384 3.128228 -0.350822
v -3.289744 3.128228 -0.385114
v -3.386673 3.128228 -0.322147
v -3.318526 3.128228 -0.241672
v -3.188165 3.128228 -0.207380
v -3.009454 3.128228 -0.156689
v -3.379259 3.087349 -0.276636
v -3.379259 3.169106 -0.276636
v -3.362159 3.087300 -0.350355
v -3.362159 3.169155 -0.350355
v -3.370270 3.181861 -0.319362
v -3.370270 3.074594 -0.319362
v -3.360690 3.128228 -0.368967
v -3.379802 3.128228 -0.270060
v -3.391356 3.107148 -0.300370
v -3.391356 3.149307 -0.300370
v -3.383528 3.107045 -0.333847
v -3.383528 3.149410 -0.333847
v -3.387533 3.155140 -0.319964
v -3.387533 3.101315 -0.319964
v -3.383495 3.128228 -0.343644
v -3.391464 3.128228 -0.296944
v -2.832534 3.051781 -0.184551
v -2.841061 3.070445 -0.139215
v -2.843206 3.128228 -0.123843
v -2.841061 3.186010 -0.139215
v -2.832534 3.211862 -0.184551
v -2.818854 3.186010 -0.249561
v -2.828649 3.128350 -0.267622
v -2.818854 3.070445 -0.249561
v -2.954431 3.051781 -0.217445
v -2.965497 3.070445 -0.169843
v -2.967892 3.128228 -0.148477
v -2.965497 3.186010 -0.169843
v -2.954431 3.206471 -0.217445
v -2.941173 3.186010 -0.278485
v -2.942667 3.128258 -0.292004
v -2.941173 3.070445 -0.278485
v -3.129097 3.051781 -0.266428
v -3.116541 3.070445 -0.320852
v -3.114706 3.128228 -0.338149
v -3.116541 3.186010 -0.320852
v -3.129097 3.204674 -0.266428
v -3.141571 3.186010 -0.212778
v -3.143487 3.128228 -0.194707
v -3.141571 3.070445 -0.212778
v -3.206365 3.051781 -0.287674
v -3.219213 3.070445 -0.230495
v -3.220756 3.128228 -0.215953
v -3.219213 3.186010 -0.230495
v -3.206365 3.204674 -0.287674
v -3.194183 3.186010 -0.338569
v -3.191974 3.128228 -0.359395
v -3.194183 3.070445 -0.338569
v -3.028572 3.051781 -0.237914
v -3.040624 3.070445 -0.188234
v -3.042962 3.128228 -0.166193
v -3.040624 3.186010 -0.188234
v -3.028572 3.204674 -0.237914
v -3.015594 3.186010 -0.296308
v -3.014181 3.128228 -0.309635
v -3.015594 3.070445 -0.296308
vn -0.2282 -0.9716 0.0627
vn -0.1090 -0.5768 -0.8096
vn -0.0393 -0.0335 -0.9987
vn -0.0452 0.5013 -0.8641
vn -0.1961 0.9614 0.1930
vn 0.2125 0.9740 -0.0792
vn -0.2878 0.0018 0.9577
vn 0.0615 -0.9885 -0.1381
vn -0.2166 -0.0000 0.9763
vn -0.1765 0.6795 0.7121
vn -0.1749 0.7090 0.6831
vn -0.2351 -0.0000 0.9720
vn -0.9940 -0.0000 0.1091
vn -0.9762 -0.0004 -0.2168
vn -0.9325 -0.2827 -0.2248
vn -0.9753 -0.2094 0.0699
vn -0.1678 -0.6808 0.7130
vn -0.2291 -0.0000 0.9734
vn -0.3266 -0.0001 0.9452
vn -0.3074 -0.6563 0.6890
vn -0.1796 0.7091 0.6819
vn -0.2547 -0.0000 0.9670
vn -0.1678 0.6808 0.7130
vn 0.0050 0.9998 -0.0214
vn -0.1564 0.9849 -0.0746
vn -0.3071 0.6563 0.6892
vn 0.1863 0.6818 -0.7074
vn -0.0051 0.9998 0.0195
vn -0.0186 0.9994 0.0279
vn 0.1715 0.6747 -0.7179
vn -0.0325 0.9987 0.0380
vn 0.1608 0.7103 -0.6853
vn 0.2291 -0.0000 -0.9734
vn 0.0039 -0.0000 -1.0000
vn -0.0480 0.7079 -0.7046
vn 0.1863 -0.6818 -0.7074
vn 0.2547 -0.0000 -0.9670
vn 0.2377 -0.0000 -0.9713
vn 0.1768 -0.6771 -0.7143
vn 0.1563 0.6714 -0.7244
vn 0.2197 -0.0003 -0.9756
vn 0.1612 -0.7106 -0.6849
vn 0.0050 -0.9998 -0.0214
vn -0.1563 -0.9849 -0.0745
vn -0.0477 -0.7081 -0.7045
vn -0.1796 -0.7091 0.6819
vn -0.0051 -0.9998 0.0195
vn -0.0081 -0.9995 0.0297
vn -0.1690 -0.7119 0.6817
vn 0.1645 -0.6852 -0.7096
vn -0.0107 -0.9992 0.0388
vn 0.1576 0.6681 -0.7272
vn -0.0379 0.9976 0.0585
vn -0.1747 0.6916 0.7009
vn -0.1819 0.6997 0.6908
vn -0.0013 1.0000 0.0049
vn 0.0018 1.0000 -0.0075
vn 0.1723 0.7018 -0.6912
vn -0.8475 0.2887 -0.4453
vn -0.8885 0.0007 -0.4589
vn -0.9327 0.2821 -0.2246
vn -0.1747 -0.6916 0.7008
vn 0.0018 -1.0000 -0.0075
vn 0.1723 -0.7018 -0.6912
vn 0.1836 -0.6928 -0.6973
vn -0.0013 -1.0000 0.0049
vn -0.1684 -0.6676 0.7252
vn -0.0138 -0.9986 0.0511
vn 0.1611 -0.6995 -0.6962
vn 0.2195 -0.0000 -0.9756
vn 0.1836 0.6928 -0.6973
vn 0.2415 -0.0000 -0.9704
vn -0.8483 -0.2894 -0.4434
vn -0.9750 0.2106 0.0709
vn -0.2422 -0.0000 0.9702
vn -0.1819 -0.6997 0.6908
vn -0.1620 -0.6967 0.6988
vn -0.7155 0.0001 0.6986
vn -0.7456 -0.4987 0.4421
vn -0.6063 -0.7752 -0.1774
vn -0.5305 0.5525 -0.6428
vn -0.6067 0.7750 -0.1767
vn -0.5194 0.0008 -0.8545
vn -0.5315 -0.5532 -0.6415
vn -0.7443 0.4998 0.4430
vn -0.2163 -0.0004 0.9763
vn -0.1876 0.6241 0.7585
vt 0.875000 0.500000
vt 1.000000 0.500000
vt 1.000000 0.750000
vt 1.000000 1.000000
vt 0.875000 1.000000
vt 0.750000 1.000000
vt 0.750000 0.750000
vt 0.750000 0.500000
vt 0.875000 0.750000
vt 0.870211 0.661035
vt 0.826615 0.674417
vt 0.904518 0.823900
vt 0.870211 0.838965
vt 0.904519 0.676102
vt 0.826615 0.825583
vt 0.791224 0.587956
vt 0.873009 0.573935
vt 0.946155 0.908872
vt 0.873009 0.926065
vt 0.946153 0.591131
vt 0.791224 0.912044
s 1
usemtl Mat.5
f 25/1/1 3/2/2 26/3/3 4/4/4 18/5/5 2/6/6 17/7/7 1/8/8
f 60/7/9 61/6/10 12/6/11 33/7/12
f 49/7/13 30/9/14 47/10/15 42/11/16
f 75/8/17 76/7/18 31/7/19 5/8/20
f 85/6/21 84/7/22 33/7/12 12/6/11
f 77/6/23 78/5/24 21/5/25 6/6/26
f 87/4/27 86/5/28 19/5/29 14/4/30
f 61/6/10 62/5/31 19/5/29 12/6/11
f 79/4/32 80/3/33 29/3/34 8/4/35
f 89/2/36 88/3/37 27/3/38 16/2/39
f 63/4/40 64/3/41 27/3/38 14/4/30
f 81/2/42 74/1/43 22/1/44 7/2/45
f 83/8/46 82/1/47 24/1/48 10/8/49
f 65/2/50 58/1/51 24/1/48 16/2/39
f 4/4/4 55/4/52 54/5/53 18/5/5
f 11/6/54 71/6/55 70/5/56 20/5/57
f 13/4/58 79/4/32 78/5/24 20/5/57
f 45/12/59 48/3/60 30/9/14 46/13/61
f 9/8/62 75/8/17 74/1/43 23/1/63
f 15/2/64 67/2/65 66/1/66 23/1/63
f 1/8/8 51/8/67 50/1/68 25/1/1
f 3/2/2 57/2/69 56/3/70 26/3/3
f 13/4/58 69/4/71 68/3/37 28/3/72
f 15/2/64 81/2/42 80/3/33 28/3/72
f 44/14/73 47/10/15 30/9/14 48/3/60
f 43/15/74 46/13/61 30/9/14 49/7/13
f 11/6/54 77/6/23 76/7/18 32/7/75
f 9/8/62 73/8/76 72/7/22 32/7/75
f 59/8/77 60/7/9 33/7/12 10/8/49
f 5/8/20 31/7/19 41/7/78 34/16/79
f 22/1/44 5/8/20 34/16/79 39/17/80
f 21/5/25 8/4/35 37/18/81 38/19/82
f 8/4/35 29/3/34 40/3/83 37/18/81
f 29/3/34 7/2/45 36/20/84 40/3/83
f 7/2/45 22/1/44 39/17/80 36/20/84
f 31/7/19 6/6/26 35/21/85 41/7/78
f 6/6/26 21/5/25 38/19/82 35/21/85
f 34/16/79 41/7/78 49/7/13 42/11/16
f 39/17/80 34/16/79 42/11/16 47/10/15
f 38/19/82 37/18/81 45/12/59 46/13/61
f 37/18/81 40/3/83 48/3/60 45/12/59
f 40/3/83 36/20/84 44/14/73 48/3/60
f 36/20/84 39/17/80 47/10/15 44/14/73
f 41/7/78 35/21/85 43/15/74 49/7/13
f 35/21/85 38/19/82 46/13/61 43/15/74
f 59/8/77 58/1/51 50/1/68 51/8/67
f 1/8/8 17/7/7 52/7/86 51/8/67
f 17/7/7 2/6/6 53/6/87 52/7/86
f 2/6/6 18/5/5 54/5/53 53/6/87
f 63/4/40 62/5/31 54/5/53 55/4/52
f 4/4/4 26/3/3 56/3/70 55/4/52
f 65/2/50 64/3/41 56/3/70 57/2/69
f 3/2/2 25/1/1 50/1/68 57/2/69
f 10/8/49 24/1/48 58/1/51 59/8/77
f 51/8/67 52/7/86 60/7/9 59/8/77
f 52/7/86 53/6/87 61/6/10 60/7/9
f 53/6/87 54/5/53 62/5/31 61/6/10
f 14/4/30 19/5/29 62/5/31 63/4/40
f 55/4/52 56/3/70 64/3/41 63/4/40
f 16/2/39 27/3/38 64/3/41 65/2/50
f 57/2/69 50/1/68 58/1/51 65/2/50
f 89/2/36 82/1/47 66/1/66 67/2/65
f 15/2/64 28/3/72 68/3/37 67/2/65
f 87/4/27 88/3/37 68/3/37 69/4/71
f 13/4/58 20/5/57 70/5/56 69/4/71
f 85/6/21 86/5/28 70/5/56 71/6/55
f 11/6/54 32/7/75 72/7/22 71/6/55
f 83/8/46 84/7/22 72/7/22 73/8/76
f 9/8/62 23/1/63 66/1/66 73/8/76
f 5/8/20 22/1/44 74/1/43 75/8/17
f 9/8/62 32/7/75 76/7/18 75/8/17
f 6/6/26 31/7/19 76/7/18 77/6/23
f 11/6/54 20/5/57 78/5/24 77/6/23
f 8/4/35 21/5/25 78/5/24 79/4/32
f 13/4/58 28/3/72 80/3/33 79/4/32
f 7/2/45 29/3/34 80/3/33 81/2/42
f 15/2/64 23/1/63 74/1/43 81/2/42
f 73/8/76 66/1/66 82/1/47 83/8/46
f 10/8/49 33/7/12 84/7/22 83/8/46
f 71/6/55 72/7/22 84/7/22 85/6/21
f 12/6/11 19/5/29 86/5/28 85/6/21
f 69/4/71 70/5/56 86/5/28 87/4/27
f 14/4/30 27/3/38 88/3/37 87/4/27
f 67/2/65 68/3/37 88/3/37 89/2/36
f 16/2/39 24/1/48 82/1/47 89/2/36
