# Blender 5.1.1
# www.blender.org
mtllib WhiteRabbitRightArm.mtl
o Mesh.004_rdmobj04.002
v -10.320951 -5.727406 -0.141210
v -16.270721 -2.232387 -3.163861
v -10.478909 -2.712936 -4.251260
v -10.478909 1.195840 -3.962419
v -10.163004 -2.728431 -4.286305
v -10.163004 1.213269 -3.995032
v -6.092890 1.410699 -4.362769
v -10.320950 3.515745 -0.190930
v -6.092889 3.950288 -0.200655
v -6.092890 1.410696 4.426004
v -0.988312 1.656282 4.569511
v -12.570393 1.080431 3.774227
v -8.071520 1.328676 4.265043
v -8.071520 -2.830962 4.265041
v -6.092892 -2.902438 4.426001
v -10.320951 -5.727406 -0.141210
v -6.092889 -6.173935 -0.145683
v 0.362223 1.517229 4.568122
v -6.092891 -2.902439 -4.681489
v -0.988311 1.656625 -4.394641
v -3.431889 -3.897163 -4.536431
v 0.450879 1.500863 -4.394282
v -0.988310 4.197358 -0.200654
v -16.270720 2.355035 -0.164258
v -16.270721 0.654958 -2.950502
v -16.270721 0.654955 2.932969
v -12.570396 -2.610416 3.774227
v -16.270721 -4.444084 -0.127685
v -16.270721 -2.232387 2.932968
v -6.092889 -6.173935 -0.145683
v -5.707174 -6.544222 -0.178923
v -4.604158 -3.735972 4.780468
v -5.707174 -6.544222 -0.178923
v -14.704233 0.420686 2.469756
v -14.704233 -2.024249 2.469755
v -16.270721 -2.232387 2.932968
v -14.704237 -3.897048 -0.121921
v -16.270721 0.654955 2.932969
v -14.704233 1.860261 -0.152889
v -14.704233 0.420686 -2.512203
v -16.270721 0.654958 -2.950502
v -14.704237 -2.024250 -2.692874
v -16.270721 -2.232387 -3.163861
v -14.704237 -3.897048 -0.121921
v -16.270721 -4.444084 -0.127685
v 1.261590 3.867399 -0.200653
v -1.090158 1.652154 -4.394060
v -1.080541 4.192174 -0.200654
v -1.080541 1.652578 4.567340
v -6.092892 -2.902438 4.426001
v -1.080541 1.652578 4.567340
v -14.704237 0.139314 1.913441
v -16.783983 0.420682 2.469756
v -16.783983 -2.024249 2.469755
v -14.704233 -2.024249 2.469755
v -14.704237 -3.897048 -0.121921
v -14.704237 0.139314 1.913441
v -16.783983 1.860261 -0.152889
v -14.704233 0.420686 2.469756
v -14.704233 0.139314 -1.985809
v -16.783981 0.420686 -2.512203
v -14.704233 1.860261 -0.152889
v -14.704237 -1.774269 -2.127214
v -16.783983 -2.024250 -2.692873
v -14.704237 -2.024250 -2.692874
v -14.704233 -3.240058 -0.114998
v -16.783985 -3.897048 -0.121919
v -14.704233 0.139314 -1.985809
v -14.704237 -1.774269 -2.127214
v -16.464247 -1.672241 -1.963193
v -16.464247 -3.027992 -0.102032
v -16.464247 0.097688 -1.832401
v -16.464247 1.139837 -0.124451
v -14.704233 1.266042 -0.139237
v -16.464247 0.097688 1.774133
v -14.704237 0.139314 1.913441
v -16.464247 -1.672241 1.774131
v -14.704233 -3.240058 -0.114998
v -14.704237 -1.774269 1.913441
v -14.704233 1.266042 -0.139237
v -14.704233 0.420686 -2.512203
v -14.704237 -1.774269 1.913441
v -16.464247 -1.672241 1.774131
v -14.704237 -1.774269 1.913441
v -14.704233 0.139314 -1.985809
v -14.704237 -1.774269 -2.127214
v -14.704237 -1.774269 1.913441
v -21.552395 0.594724 2.627736
v -17.436066 0.165155 1.908825
v -21.552395 1.089204 0.880854
v -17.436066 1.283189 -0.128012
v -21.552399 1.089204 -0.866033
v -17.436068 0.165155 -1.960336
v -21.552395 0.594724 -2.612915
v -22.507095 -0.476303 -2.830082
v -21.552395 -1.547329 -2.612916
v -18.707712 -2.003212 -2.612916
v -17.436068 -1.733654 -2.100652
v -18.707710 -2.003211 -0.063270
v -19.021217 -2.410877 -1.338094
v -17.436066 -3.188129 -0.103962
v -21.552395 -1.547328 2.627735
v -18.650196 -1.547332 2.911887
v -17.436066 -1.733657 1.908823
v -21.552395 -1.547328 0.880852
v -21.552399 -1.547329 -0.866035
v -22.507095 -0.476303 2.844903
v -26.547745 -1.648414 0.007407
v -25.086834 -1.533966 0.007408
v -26.808407 -0.634414 0.916512
v -24.539291 -0.467834 0.948906
v -24.702923 0.598287 0.007408
v -24.375671 0.598279 0.007408
v -26.808407 -0.634414 0.916512
v -26.808407 -0.634411 -0.901691
v -24.539291 -0.467834 -0.934091
v -23.991747 -1.533962 0.007407
v -26.547745 0.396711 0.007410
v -22.507095 -0.476303 0.953242
v -22.507095 -1.547336 0.007407
v -22.507095 -0.476303 -0.938423
v -22.507095 0.594716 0.007408
v -22.507095 -0.476303 0.953242
v -22.507095 -1.547336 0.007407
v -22.507095 -0.476303 -0.938423
v -22.507095 -0.476303 -0.938423
v -22.507095 0.594716 0.007408
v -26.808407 -0.634414 0.916512
v -22.507095 -0.476303 0.953242
v -26.313480 -0.634407 -2.793354
v -24.539295 -0.467834 -2.825748
v -25.086838 -1.533962 -1.884254
v -23.991751 -1.533962 -1.884254
v -24.539295 -0.467834 -0.942758
v -24.375668 0.598287 -1.884254
v -22.507095 0.594724 -1.884254
v -22.507095 -0.476303 -2.830082
v -26.313477 -0.634407 -0.975155
v -26.052811 -1.648411 -1.884254
v -26.313477 -0.634407 -0.975155
v -24.702927 0.598291 -1.884254
v -22.507095 -1.547329 -1.884254
v -26.052811 0.396718 -1.884254
v -22.507095 -1.547329 -1.884254
v -22.507095 0.594724 -1.884254
v -26.313477 -0.634407 -0.975155
v -26.667953 -0.648925 2.808172
v -26.667953 -0.648925 0.989973
v -26.407288 -1.662925 1.899072
v -25.086838 -1.548477 1.899072
v -26.667953 -0.648925 2.808172
v -24.539291 -0.482349 2.840567
v -24.702930 0.583768 1.899073
v -24.375668 0.583772 1.899072
v -23.991743 -1.403373 1.899071
v -22.507095 -0.476303 2.844903
v -22.507093 -1.547332 1.899072
v -24.539288 -0.482349 0.957579
v -22.507093 0.594717 1.899072
v -26.407288 0.382200 1.899074
v -22.507093 0.594717 1.899072
v -26.667953 -0.648925 2.808172
v -22.507093 -1.547332 1.899072
v -21.552395 -1.547328 2.627735
v -22.507095 -0.476303 2.844903
v -19.610394 -3.770721 1.587555
v -20.315599 -3.036529 0.413787
v -19.338182 -3.630500 1.598723
v -20.106314 -2.830810 0.320235
v -17.436066 -3.188129 -0.103962
v -18.707710 -2.003211 -0.063270
v -20.315599 -3.036529 0.413787
v -21.582693 -4.313370 0.274572
v -19.610394 -3.770721 1.587555
v -21.261377 -5.240623 1.537760
v -21.669296 -4.292130 2.705900
v -21.099936 -2.282932 1.461214
v -20.394730 -3.017123 2.634982
v -20.960613 -2.009983 1.461107
v -20.192493 -2.809676 2.739594
v -21.552395 -1.547328 2.627735
v -19.610394 -3.770721 1.587555
v -18.650196 -1.547332 2.911887
v -21.261377 -5.240623 1.537760
v -22.563467 -3.940052 1.427315
v -21.669296 -4.292130 2.705900
v -21.099936 -2.282932 1.461214
v -21.099936 -2.282932 1.461214
v -20.960613 -2.009983 1.461107
v -20.315599 -3.036529 0.413787
v -17.436066 -1.733657 1.908823
v -20.960613 -2.009983 1.461107
v -21.099936 -2.282932 1.461214
v -22.563467 -3.940052 1.427315
v -20.394730 -3.017123 2.634982
v -17.436066 -1.733657 1.908823
v -17.436066 -3.188129 -0.103962
v -16.464247 -1.672241 1.774131
v -16.464247 -3.027992 -0.102032
v -16.464247 -1.672241 1.774131
vn -0.1747 -0.7972 -0.5780
vn -0.1782 0.0725 -0.9813
vn -0.1064 0.0733 -0.9916
vn -0.0933 0.0734 -0.9929
vn -0.0881 0.8505 -0.5185
vn -0.0886 0.8503 -0.5188
vn -0.0886 0.8732 0.4793
vn -0.0556 0.8753 0.4804
vn -0.1004 0.8722 0.4788
vn -0.1085 -0.0000 0.9941
vn -0.0811 -0.0000 0.9967
vn -0.0762 -0.8149 0.5746
vn -0.0850 -0.8103 0.5798
vn -0.0747 0.8798 0.4695
vn -0.0281 -0.0000 0.9996
vn -0.0913 -0.8051 -0.5860
vn -0.0098 0.0737 -0.9972
vn -0.0443 0.8528 -0.5204
vn 0.0507 -0.0101 -0.9987
vn 0.0063 0.0558 -0.9984
vn 0.0923 0.8516 -0.5159
vn -0.0414 0.8546 -0.5177
vn -0.1665 0.8417 -0.5136
vn -0.1680 0.8428 -0.5114
vn -0.1988 0.8814 0.4286
vn -0.2217 -0.0000 0.9751
vn -0.1709 -0.7986 0.5771
vn -0.2053 -0.8198 0.5346
vn -0.1031 -0.8062 0.5826
vn -0.0860 -0.8080 -0.5828
vn -0.6382 -0.6244 -0.4503
vn -0.5106 -0.6992 0.5004
vn -0.5790 -0.6476 0.4954
vn -0.2836 -0.0000 -0.9590
vn -0.2704 0.7803 -0.5639
vn -0.2637 -0.8456 -0.4641
vn -0.2637 -0.8234 0.5024
vn -0.2786 -0.0708 0.9578
vn -0.2736 0.7774 0.5663
vn -0.1665 0.8644 0.4745
vn -0.1730 -0.7961 -0.5799
vn -0.1004 0.8493 -0.5182
vn -0.1044 -0.8039 -0.5856
vn -0.2527 -0.7628 -0.5953
vn -0.0427 0.8818 0.4697
vn 0.0910 0.8789 0.4682
vn 0.1290 0.8796 0.4578
vn 0.1252 0.8535 -0.5058
vn -0.1178 -0.8493 0.5147
vn -0.1222 -0.8809 -0.4572
vn -0.0823 -0.8796 -0.4685
vn 0.0031 0.0276 -0.9996
vn -0.1546 0.1398 0.9780
vn -0.0844 -0.8607 0.5020
vn -0.0023 -0.0247 0.9997
vn -0.2584 -0.0000 -0.9660
vn -0.0000 -0.0000 1.0000
vn -0.0000 -0.8105 0.5857
vn -0.2401 -0.8510 -0.4671
vn -0.0000 0.8766 0.4812
vn -0.2401 -0.8287 0.5056
vn -0.0000 0.8536 -0.5209
vn -0.2538 -0.0713 0.9646
vn -0.0000 0.0737 -0.9973
vn -0.0000 -0.8083 -0.5888
vn -0.2492 0.7828 0.5702
vn -0.0883 0.0734 -0.9934
vn -0.1012 -0.8041 -0.5858
vn -0.0654 0.8518 -0.5198
vn -0.0587 0.8751 0.4804
vn -0.0789 -0.0000 0.9969
vn -0.0929 -0.8070 0.5832
vn -0.2463 0.7856 -0.5677
vn 0.1464 0.9518 0.2694
vn 0.0764 0.8741 0.4798
vn -0.0471 0.9989 -0.0000
vn 0.0531 0.8524 -0.5201
vn 0.1421 0.9524 -0.2696
vn 0.2218 -0.0000 -0.9751
vn -0.0000 -0.0000 -1.0000
vn 0.1730 0.1894 -0.9665
vn 0.3602 0.0687 -0.9303
vn -0.4618 -0.8056 0.3712
vn -0.6261 -0.6848 0.3729
vn -0.1867 -0.9215 -0.3406
vn 0.3782 -0.7483 -0.5451
vn -0.0974 -0.0000 0.9952
vn 0.1977 0.3873 0.9005
vn 0.6369 -0.0000 0.7709
vn -0.1582 -0.9874 -0.0000
vn 0.2218 -0.0000 0.9751
vn -0.1491 -0.9306 -0.3343
vn 0.0516 -0.6593 0.7501
vn 0.0388 -0.6726 0.7390
vn -0.0589 0.6557 0.7527
vn -0.0000 0.6619 0.7496
vn -0.9685 -0.2490 -0.0000
vn 0.0516 -0.6593 -0.7501
vn 0.0388 -0.6726 -0.7390
vn -0.0000 -0.6619 -0.7496
vn -0.0732 0.6699 0.7388
vn -0.0732 0.6699 -0.7388
vn -0.0589 0.6557 -0.7527
vn -0.0000 -0.6619 0.7496
vn -0.0044 -0.6632 0.7484
vn -0.0060 -0.6619 0.7495
vn -0.0000 0.6619 -0.7496
vn 0.0012 0.6618 -0.7496
vn 0.0013 0.6619 -0.7496
vn -0.5656 -0.5459 0.6182
vn -0.0000 -1.0000 -0.0000
vn -0.5656 -0.5459 -0.6182
vn 0.0012 0.6618 0.7496
vn 0.0013 0.6619 0.7496
vn -0.0044 -0.6632 -0.7484
vn -0.0060 -0.6619 -0.7495
vn -0.7170 0.4614 -0.5225
vn -0.4599 0.8880 -0.0000
vn -0.9695 0.2451 -0.0000
vn -0.7170 0.4614 0.5225
vn 0.0500 -0.6754 -0.7357
vn 0.0775 -0.6544 -0.7522
vn 0.0775 -0.6544 0.7522
vn 0.0500 -0.6754 0.7357
vn -0.0751 0.6536 0.7531
vn -0.6244 -0.5170 0.5855
vn -0.4966 -0.5746 -0.6506
vn -0.1004 0.6721 -0.7336
vn -0.0751 0.6536 -0.7531
vn -0.4966 0.5746 -0.6506
vn -0.2035 0.9421 -0.2667
vn -0.1004 0.6721 0.7336
vn -0.7524 0.4360 0.4937
vn 0.0571 -0.6583 -0.7506
vn 0.0571 -0.6583 0.7506
vn 0.0414 -0.6732 0.7383
vn -0.0627 0.6552 0.7528
vn 0.0908 -0.6850 0.7229
vn 0.0006 -0.7147 0.6995
vn -0.0641 -0.6606 0.7480
vn -0.0036 0.6622 -0.7493
vn -0.0039 0.6619 -0.7496
vn 0.0414 -0.6732 -0.7383
vn 0.0908 -0.6850 -0.7229
vn -0.0793 0.6704 -0.7377
vn -0.0627 0.6552 -0.7528
vn 0.0006 -0.7146 -0.6995
vn -0.0641 -0.6606 -0.7480
vn -0.0036 0.6622 0.7493
vn -0.0039 0.6619 0.7495
vn -0.7524 0.4360 -0.4937
vn -0.2035 0.9421 0.2667
vn -0.0793 0.6704 0.7377
vn -0.6244 -0.5170 -0.5855
vn -0.4966 0.5746 0.6506
vn -0.4966 -0.5746 0.6506
vn 0.3716 -0.6702 -0.6425
vn -0.1872 -0.8795 -0.4376
vn -0.1752 -0.1546 -0.9723
vn 0.5716 -0.4960 -0.6537
vn 0.5512 -0.5995 -0.5803
vn 0.4973 -0.5804 0.6449
vn -0.6888 0.3518 0.6339
vn -0.6771 -0.7340 -0.0524
vn 0.3059 -0.6493 0.6963
vn 0.3949 -0.5797 0.7128
vn -0.6518 -0.6809 -0.3340
vn -0.6871 -0.6626 0.2981
vn -0.5651 0.5123 -0.6467
vn -0.4528 0.5277 -0.7187
vn -0.6318 0.3222 -0.7050
vn 0.4658 -0.5768 0.6710
vn 0.5804 -0.6600 0.4769
vn -0.2758 -0.8687 -0.4114
vn -0.6159 -0.7878 -0.0000
vn -0.6172 0.5333 0.5785
vn -0.5158 0.5520 0.6552
vn 0.5102 -0.4700 0.7202
vn -0.4888 0.4923 -0.7202
vn -0.0974 -0.0168 0.9951
vn 0.1313 -0.8035 0.5806
vn 0.1352 0.0730 -0.9881
vn 0.1332 -0.8011 -0.5835
vn 0.1268 0.8467 -0.5167
vn 0.1265 0.8696 0.4773
vn 0.1373 -0.0000 0.9905
vt 0.820763 0.888056
vt 0.703729 0.928989
vt 0.744282 0.855306
vt 0.684245 0.830596
vt 0.761574 0.802936
vt 0.700110 0.781510
vt 0.716269 0.716185
vt 0.619584 0.799539
vt 0.624476 0.729879
vt 0.537754 0.728148
vt 0.529490 0.647748
vt 0.541353 0.826220
vt 0.540116 0.770629
vt 0.471995 0.774399
vt 0.467353 0.734053
vt 0.392769 0.818981
vt 0.376496 0.749224
vt 0.784993 0.737242
vt 0.697372 0.634382
vt 0.794616 0.655093
vt 0.692399 0.593916
vt 0.617996 0.646817
vt 0.607163 0.899480
vt 0.659338 0.911135
vt 0.545242 0.898219
vt 0.481183 0.832120
vt 0.489355 0.903711
vt 0.426398 0.916657
vt 0.849113 0.802907
vt 0.876149 0.752569
vt 0.424531 0.666167
vt 0.358378 0.707452
vt 0.650050 0.936533
vt 0.693416 0.953214
vt 0.742789 0.985494
vt 0.604565 0.927551
vt 0.546877 0.925229
vt 0.492306 0.929895
vt 0.433370 0.944659
vt 0.754818 0.963741
vt 0.525189 0.607716
vt 0.612453 0.592688
vt 0.689604 0.536207
vt 0.609683 0.548506
vt 0.521343 0.548405
vt 0.886470 0.919634
vt 0.811792 0.919340
vt 0.820545 0.853226
vt 0.886431 0.983093
vt 0.983761 0.983093
vt 0.727515 0.919621
vt 0.802624 0.854236
vt 0.811711 0.983093
vt 0.727515 0.983093
vt 0.879018 0.853904
vt 0.971986 0.854106
vt 0.983761 0.919621
vt 0.066871 0.715956
vt 0.069321 0.649506
vt 0.114196 0.658213
vt 0.118889 0.575500
vt 0.116879 0.724610
vt 0.109049 0.783087
vt 0.058927 0.770765
vt 0.091426 0.844472
vt 0.045978 0.830341
vt 0.069424 0.891019
vt 0.069681 0.570596
vt 0.070589 0.496145
vt 0.736605 0.854236
vt 0.019120 0.875312
vt 0.118443 0.504935
vt 0.895808 0.854106
vt 0.247568 0.887995
vt 0.121559 0.855525
vt 0.253819 0.834825
vt 0.137403 0.789014
vt 0.260741 0.783781
vt 0.145803 0.726279
vt 0.269264 0.730928
vt 0.266107 0.667843
vt 0.316061 0.704324
vt 0.181657 0.658608
vt 0.141987 0.655257
vt 0.193175 0.619744
vt 0.195234 0.579261
vt 0.146569 0.579699
vt 0.144232 0.921917
vt 0.228799 0.948306
vt 0.094882 0.905638
vt 0.283693 0.566331
vt 0.274900 0.617087
vt 0.281386 0.930085
vt 0.126045 0.239874
vt 0.123945 0.194057
vt 0.075716 0.249498
vt 0.071868 0.173182
vt 0.019634 0.192749
vt 0.019493 0.158617
vt 0.128443 0.290605
vt 0.122970 0.153304
vt 0.025008 0.239949
vt 0.071893 0.098336
vt 0.124465 0.098351
vt 0.019245 0.098480
vt 0.338687 0.597422
vt 0.362319 0.566046
vt 0.349827 0.622565
vt 0.340563 0.796773
vt 0.312469 0.828175
vt 0.023251 0.291523
vt 0.326278 0.867983
vt 0.326440 0.663303
vt 0.314773 0.763453
vt 0.289633 0.888779
vt 0.329538 0.528078
vt 0.281541 0.503775
vt 0.333360 0.479311
vt 0.305426 0.095138
vt 0.289823 0.050748
vt 0.314637 0.094010
vt 0.297641 0.045659
vt 0.380077 0.050720
vt 0.339454 0.017223
vt 0.218139 0.118275
vt 0.159537 0.069939
vt 0.215776 0.069631
vt 0.149199 0.118276
vt 0.160183 0.165629
vt 0.245200 0.149858
vt 0.290682 0.136197
vt 0.250088 0.157747
vt 0.298581 0.141160
vt 0.274421 0.192005
vt 0.305423 0.092909
vt 0.356413 0.159203
vt 0.109802 0.066385
vt 0.147467 0.022959
vt 0.097640 0.019321
vt 0.216490 0.022332
vt 0.253384 0.025266
vt 0.257079 0.016752
vt 0.290624 0.051805
vt 0.390347 0.125219
vt 0.251984 0.531690
vt 0.218780 0.213715
vt 0.149841 0.214415
vt 0.216437 0.165326
vt 0.147386 0.506533
vt 0.069414 0.891794
s 0
usemtl texture000_texture000.png
f 1/1/1 2/2/1 3/3/1
f 4/4/2 3/3/2 2/2/2
f 3/3/3 4/4/3 5/5/3
f 6/6/3 5/5/3 4/4/3
f 5/5/4 6/6/4 7/7/4
f 8/8/5 7/7/5 6/6/5
f 7/7/6 8/8/6 9/9/6
f 10/10/7 9/9/7 8/8/7
f 9/9/8 10/10/8 11/11/8
f 8/8/9 12/12/9 13/13/9
f 14/14/10 13/13/10 12/12/10
f 13/13/11 14/14/11 15/15/11
f 16/16/12 15/15/12 14/14/12
f 15/15/13 16/16/13 17/17/13
f 8/8/14 13/13/14 10/10/14
f 15/15/11 10/10/11 13/13/11
f 10/10/15 15/15/15 11/11/15
f 1/1/16 5/5/16 19/18/16
f 7/7/4 19/18/4 5/5/4
f 19/18/17 7/7/17 20/19/17
f 9/9/18 20/19/18 7/7/18
f 21/20/19 19/18/19 22/21/19
f 20/19/20 22/21/20 19/18/20
f 22/21/21 20/19/21 23/22/21
f 9/9/22 23/22/22 20/19/22
f 24/23/23 8/8/23 25/24/23
f 4/4/24 25/24/24 8/8/24
f 25/24/2 4/4/2 2/2/2
f 8/8/25 26/25/25 12/12/25
f 27/26/26 12/12/26 26/25/26
f 12/12/10 27/26/10 14/14/10
f 16/16/27 29/27/27 28/28/27
f 29/27/28 16/16/28 27/26/28
f 14/14/29 27/26/29 16/16/29
f 1/1/30 19/18/30 30/29/30
f 31/30/31 30/29/31 19/18/31
f 15/15/32 17/17/32 32/31/32
f 33/32/33 32/31/33 17/17/33
f 34/33/34 35/34/34 36/2/34
f 37/35/35 36/2/35 35/34/35
f 36/2/34 38/24/34 34/33/34
f 24/23/36 34/33/36 38/24/36
f 34/33/36 24/23/36 39/36/36
f 40/37/37 39/36/37 24/23/37
f 24/23/37 41/25/37 40/37/37
f 42/38/38 40/37/38 41/25/38
f 41/25/38 43/27/38 42/38/38
f 44/39/39 42/38/39 43/27/39
f 8/8/40 24/23/40 26/25/40
f 1/1/41 45/40/41 2/2/41
f 6/6/42 4/4/42 8/8/42
f 1/1/43 3/3/43 5/5/43
f 19/18/44 21/20/44 31/30/44
f 44/39/39 43/27/39 28/28/39
f 36/2/35 37/35/35 45/40/35
f 27/26/26 26/25/26 29/27/26
f 9/9/45 11/11/45 23/22/45
f 18/41/46 23/22/46 11/11/46
f 23/22/47 18/41/47 46/42/47
f 22/21/48 23/22/48 46/42/48
f 47/43/49 46/42/49 48/44/49
f 18/41/50 48/44/50 46/42/50
f 48/44/51 18/41/51 49/45/51
f 50/31/52 49/45/52 18/41/52
f 15/15/53 32/31/53 51/41/53
f 46/42/54 47/43/54 22/21/54
f 22/21/55 47/43/55 21/20/55
usemtl texture001_texture001.png
f 54/46/56 53/47/56 52/48/56
f 53/47/57 54/46/57 55/49/57
f 56/50/58 55/49/58 54/46/58
f 53/47/59 58/51/59 57/52/59
f 58/51/60 53/47/60 59/53/60
f 55/49/57 59/53/57 53/47/57
f 58/51/61 61/47/61 60/52/61
f 61/47/62 58/51/62 62/54/62
f 59/53/60 62/54/60 58/51/60
f 63/55/63 61/47/63 64/46/63
f 65/49/64 64/46/64 61/47/64
f 64/46/65 65/49/65 56/50/65
f 66/56/66 64/46/66 67/57/66
f 56/50/65 67/57/65 64/46/65
f 67/57/58 56/50/58 54/46/58
f 68/58/67 69/59/67 70/60/67
f 71/61/68 70/60/68 69/59/68
f 72/62/69 73/63/69 74/64/69
f 75/65/70 74/64/70 73/63/70
f 74/64/70 75/65/70 76/66/70
f 77/67/71 76/66/71 75/65/71
f 69/59/68 78/68/68 71/61/68
f 79/69/72 71/61/72 78/68/72
f 57/52/59 58/51/59 80/70/59
f 60/52/61 80/70/61 58/51/61
f 62/54/62 81/53/62 61/47/62
f 65/49/64 61/47/64 81/53/64
f 68/58/67 70/60/67 72/62/67
f 72/62/69 74/64/69 68/58/69
f 76/66/71 77/67/71 82/71/71
f 71/61/72 79/69/72 83/72/72
f 54/46/56 52/48/56 84/55/56
f 61/47/63 63/55/63 85/48/63
f 64/46/66 66/56/66 86/73/66
f 54/46/73 66/56/73 67/57/73
f 66/56/73 54/46/73 87/73/73
f 88/74/74 89/75/74 90/76/74
f 91/77/75 90/76/75 89/75/75
f 90/76/76 91/77/76 92/78/76
f 93/79/77 92/78/77 91/77/77
f 92/78/78 93/79/78 94/80/78
f 94/80/79 96/81/79 95/82/79
f 96/81/80 94/80/80 97/83/80
f 93/79/81 97/83/81 94/80/81
f 97/83/82 93/79/82 98/84/82
f 100/85/83 99/86/83 96/81/83
f 99/86/84 100/85/84 101/87/84
f 97/83/85 101/87/85 100/85/85
f 101/87/86 97/83/86 98/84/86
f 103/88/87 88/74/87 102/89/87
f 88/74/88 103/88/88 89/75/88
f 104/90/89 89/75/89 103/88/89
f 105/91/90 106/92/90 99/86/90
f 96/81/90 99/86/90 106/92/90
f 88/74/91 107/93/91 102/89/91
f 96/81/92 97/83/92 100/85/92
f 108/94/93 109/95/93 110/96/93
f 111/97/94 110/96/94 109/95/94
f 110/96/95 111/97/95 112/98/95
f 113/99/96 112/98/96 111/97/96
f 115/96/97 108/94/97 114/100/97
f 108/94/98 115/96/98 109/95/98
f 116/97/99 109/95/99 115/96/99
f 109/95/100 116/97/100 117/101/100
f 112/98/101 118/102/101 110/96/101
f 118/102/102 112/98/102 115/96/102
f 116/97/103 115/96/103 112/98/103
f 117/101/104 111/97/104 109/95/104
f 111/97/105 117/101/105 119/103/105
f 120/104/106 119/103/106 117/101/106
f 113/99/107 116/97/107 112/98/107
f 116/97/108 113/99/108 121/103/108
f 122/105/109 121/103/109 113/99/109
f 124/106/110 105/91/110 123/107/110
f 105/91/111 124/106/111 106/92/111
f 125/108/112 106/92/112 124/106/112
f 111/97/113 119/103/113 113/99/113
f 122/105/114 113/99/114 119/103/114
f 116/97/115 121/103/115 117/101/115
f 120/104/116 117/101/116 121/103/116
f 126/109/117 127/110/117 92/78/117
f 90/76/118 92/78/118 127/110/118
f 128/111/119 118/102/119 115/96/119
f 127/110/120 129/112/120 90/76/120
f 130/96/121 131/97/121 132/95/121
f 133/101/100 132/95/100 131/97/100
f 132/95/104 133/101/104 134/97/104
f 121/103/105 134/97/105 133/101/105
f 134/97/113 121/103/113 135/99/113
f 136/105/114 135/99/114 121/103/114
f 135/99/109 136/105/109 137/103/109
f 138/100/97 130/96/97 139/94/97
f 132/95/122 139/94/122 130/96/122
f 139/94/123 132/95/123 140/96/123
f 134/97/124 140/96/124 132/95/124
f 140/96/125 134/97/125 141/98/125
f 135/99/96 141/98/96 134/97/96
f 142/113/126 106/92/126 125/108/126
f 106/92/111 142/113/111 96/81/111
f 95/82/127 96/81/127 142/113/127
f 143/102/128 141/98/128 130/96/128
f 131/97/129 130/96/129 141/98/129
f 141/98/107 135/99/107 131/97/107
f 137/103/108 131/97/108 135/99/108
f 131/97/115 137/103/115 133/101/115
f 144/104/116 133/101/116 137/103/116
f 95/82/130 145/114/130 94/80/130
f 92/78/131 94/80/131 145/114/131
f 146/111/119 143/102/119 130/96/119
f 141/98/132 143/102/132 140/96/132
f 133/101/106 144/104/106 121/103/106
f 92/78/133 145/114/133 126/109/133
f 147/100/97 148/96/97 149/94/97
f 150/95/134 149/94/134 148/96/134
f 149/94/135 150/95/135 151/96/135
f 152/97/136 151/96/136 150/95/136
f 151/96/137 152/97/137 153/98/137
f 154/99/96 153/98/96 152/97/96
f 155/101/138 152/97/138 150/95/138
f 152/97/139 155/101/139 156/103/139
f 157/104/140 156/103/140 155/101/140
f 154/99/107 158/97/107 153/98/107
f 158/97/141 154/99/141 119/103/141
f 159/105/142 119/103/142 154/99/142
f 148/96/143 158/97/143 150/95/143
f 155/101/144 150/95/144 158/97/144
f 160/102/145 153/98/145 148/96/145
f 158/97/146 148/96/146 153/98/146
f 158/97/147 119/103/147 155/101/147
f 157/104/148 155/101/148 119/103/148
f 152/97/149 156/103/149 154/99/149
f 159/105/150 154/99/150 156/103/150
f 129/112/151 161/115/151 90/76/151
f 88/74/152 90/76/152 161/115/152
f 162/111/119 160/102/119 148/96/119
f 153/98/153 160/102/153 151/96/153
f 123/107/154 105/91/154 163/116/154
f 105/91/111 164/117/111 163/116/111
f 161/115/155 107/93/155 88/74/155
f 163/116/156 164/117/156 165/118/156
f 166/119/157 167/120/157 168/121/157
f 169/122/157 168/121/157 167/120/157
f 168/121/158 169/122/158 170/123/158
f 171/124/159 170/123/159 169/122/159
f 174/125/160 173/126/160 172/127/160
f 173/126/161 174/125/161 175/128/161
f 176/129/162 175/128/162 174/125/162
f 177/130/163 178/131/163 179/132/163
f 180/133/163 179/132/163 178/131/163
f 179/132/164 180/133/164 181/134/164
f 168/121/165 178/131/165 182/135/165
f 178/131/165 168/121/165 180/133/165
f 183/136/166 180/133/166 168/121/166
f 173/126/167 184/137/167 185/138/167
f 186/139/168 185/138/168 184/137/168
f 185/138/169 187/140/169 173/126/169
f 172/127/170 173/126/170 187/140/170
f 188/141/171 189/142/171 190/143/171
f 169/122/171 190/143/171 189/142/171
f 183/136/172 168/121/172 191/144/172
f 170/123/173 191/144/173 168/121/173
f 105/91/174 99/86/174 192/145/174
f 105/91/175 192/145/175 164/117/175
f 193/146/176 194/147/176 176/129/176
f 193/146/177 176/129/177 195/148/177
f 195/148/178 176/129/178 174/125/178
f 171/124/179 169/122/179 189/142/179
f 181/134/180 180/133/180 183/136/180
f 196/72/181 197/61/181 198/149/181
f 199/87/181 198/149/181 197/61/181
f 93/79/182 70/60/182 98/84/182
f 71/61/183 98/84/183 70/60/183
f 91/77/184 72/62/184 93/79/184
f 70/60/182 93/79/182 72/62/182
f 71/61/183 101/87/183 98/84/183
f 72/62/184 91/77/184 73/63/184
f 73/63/185 91/77/185 89/75/185
f 73/63/185 89/75/185 75/65/185
f 75/65/186 89/75/186 104/90/186
f 75/65/186 104/90/186 200/150/186
