# Blender 5.1.1
# www.blender.org
mtllib WhiteRabbitFoot.mtl
o Mesh.004_rdmobj04.004
v 0.090684 -1.611345 21.364426
v 1.819704 -1.611349 19.666645
v 0.082115 1.600252 18.403652
v 1.548463 1.102972 17.910423
v 1.696938 2.271650 14.061976
v 2.934310 1.600252 18.403650
v 3.597907 0.953809 14.061975
v 4.403204 0.418653 18.403652
v 4.586582 -1.611350 14.061975
v -4.023698 -4.118754 18.403652
v -3.164926 -4.118754 20.569017
v -5.155927 -1.611346 18.403652
v -3.669042 -1.611345 20.569017
v -4.324593 0.418657 18.403650
v -2.770090 1.600252 18.403650
v -3.508475 0.953809 14.061974
v -1.535234 2.271650 14.061975
v 3.854927 -1.611349 20.569017
v 5.228227 -1.611346 18.403652
v 4.110530 -4.118754 18.403652
v -1.639688 -1.611349 19.666645
v -1.384232 1.102968 17.910423
v 0.078000 -4.118754 21.364424
v -1.480940 -4.118758 19.817028
v 1.634719 -4.118754 19.817028
v 4.110530 -4.118754 18.403652
v 3.316434 -4.118754 20.569016
v -3.164926 -4.118754 20.569017
v -4.023698 -4.118754 18.403652
v -3.387935 -4.118754 14.061975
v 3.316434 -4.118754 20.569016
v 1.819704 -1.611349 19.666645
v -1.480940 -4.118758 19.817028
v 0.078000 -4.118754 21.364424
v 0.090684 -1.611345 21.364426
v 1.634719 -4.118754 19.817028
v -1.639688 -1.611349 19.666645
v -4.499200 -1.611350 14.061975
v -1.535234 2.271650 14.061975
v 3.480939 -4.118754 14.061975
v -3.387935 -4.118754 14.061975
v 3.480939 -4.118754 14.061975
v -3.412354 -1.611350 8.099602
v -0.953032 0.034451 2.361899
v -2.657406 -2.501045 0.385049
v -2.188798 0.034451 0.385049
v -1.236404 -2.501041 -3.411323
v -0.953031 0.034451 -1.720410
v 2.463226 -4.118755 8.099601
v 2.762990 -2.501041 0.385049
v 3.505047 -1.611350 8.099602
v 1.104855 0.034455 2.361898
v 1.435517 0.469056 8.099602
v -1.278517 0.469056 8.099601
v 2.295084 0.034455 0.385049
v 1.400357 -2.501041 -3.411323
v 1.104856 0.034454 -1.720410
v -1.236404 -2.501041 -3.411323
v -2.359292 -4.118755 8.099601
v -1.902588 -4.118755 0.435268
v -0.732790 -4.118755 -2.881246
v 2.463226 -4.118755 8.099601
v -1.902588 -4.118755 0.435268
v 2.016217 -4.118755 0.435268
v -0.732790 -4.118755 -2.881246
v 2.016217 -4.118755 0.435268
v 0.884689 -4.118755 -2.881246
v -1.278517 0.469056 8.099601
v -2.359292 -4.118755 8.099601
v 0.884689 -4.118755 -2.881246
v -0.953032 0.034451 2.361899
v 0.884689 -4.118755 -2.881246
v -0.732790 -4.118755 -2.881246
v -0.953031 0.034451 -1.720410
vn 0.5848 0.5506 0.5956
vn 0.4256 0.5212 0.7398
vn 0.3917 0.8761 0.2812
vn -0.4049 0.8791 0.2513
vn 0.5694 0.8213 -0.0353
vn 0.6267 0.7790 -0.0202
vn 0.9255 0.3567 -0.1277
vn -0.8571 -0.3870 0.3399
vn -0.8133 -0.1635 0.5584
vn -0.7811 0.3199 0.5363
vn -0.4432 0.5831 0.6808
vn -0.6051 0.7960 -0.0156
vn -0.5551 0.8312 -0.0294
vn -0.3625 0.4473 0.8176
vn 0.4684 0.5823 0.6645
vn 0.7987 0.3246 0.5066
vn 0.9179 0.3730 -0.1356
vn 0.9052 -0.4035 -0.1338
vn -0.5855 0.5486 0.5968
vn -0.4254 0.5195 0.7410
vn -0.3917 0.8760 0.2814
vn 0.4049 0.8792 0.2511
vn -0.0000 -1.0000 -0.0000
vn 0.8661 -0.3861 0.3176
vn 0.8309 -0.1785 0.5270
vn -0.4038 0.0867 0.9107
vn 0.3631 0.4489 0.8165
vn 0.4394 0.4585 0.7725
vn -0.7045 0.0036 0.7097
vn 0.7050 -0.0036 0.7092
vn -0.7004 -0.0015 0.7138
vn 0.4064 0.0803 0.9101
vn 0.7006 -0.0089 0.7135
vn -0.4067 0.0846 0.9096
vn -0.9029 -0.4077 -0.1366
vn -0.9165 0.3753 -0.1386
vn -0.4392 0.4567 0.7737
vn -0.0000 0.9883 0.1528
vn 0.4050 0.0814 0.9107
vn -0.9062 -0.4016 -0.1327
vn 0.9070 -0.4000 -0.1315
vn -0.9249 0.3572 -0.1298
vn -0.7639 0.6283 -0.1472
vn -0.8377 0.1548 0.5237
vn -0.9228 0.1706 -0.3454
vn -0.7911 0.3981 -0.4643
vn 0.9225 -0.3833 -0.0445
vn 0.7722 0.6185 -0.1456
vn 0.7058 0.7021 -0.0939
vn -0.0000 0.9971 -0.0755
vn 0.9273 0.1711 -0.3328
vn 0.7998 0.3948 -0.4521
vn -0.0000 0.5548 -0.8320
vn -0.9042 -0.4236 -0.0539
vn -0.8599 -0.4106 -0.3033
vn 0.9060 -0.4199 -0.0528
vn 0.8641 -0.4080 -0.2948
vn -0.6950 0.7129 -0.0934
vn 0.8462 0.1562 0.5095
vn -0.9210 -0.3868 -0.0455
vn -0.8676 -0.3765 -0.3248
vn 0.8706 -0.3799 -0.3125
vn -0.0000 -0.3114 -0.9503
vn -0.9031 -0.4002 -0.1558
vn -0.9092 -0.3819 -0.1657
vn -0.9196 0.3552 -0.1676
vn -0.6650 0.6821 -0.3042
vn -0.5355 0.8018 -0.2654
vn 0.9040 -0.3986 -0.1543
vn 0.9108 -0.3784 -0.1652
vn 0.9200 0.3546 -0.1669
vn 0.5496 0.7927 -0.2638
vn 0.6763 0.6728 -0.3000
vn -0.0000 0.9572 -0.2894
vt 0.190062 0.546179
vt 0.174335 0.503095
vt 0.246724 0.484323
vt 0.226029 0.461116
vt 0.285819 0.406581
vt 0.204377 0.440972
vt 0.262006 0.368730
vt 0.176139 0.418331
vt 0.234176 0.330365
vt 0.112863 0.345625
vt 0.093934 0.408889
vt 0.145385 0.388088
vt 0.120169 0.450880
vt 0.742063 0.059428
vt 0.726545 0.074974
vt 0.726633 0.043818
vt 0.712569 0.019020
vt 0.734200 0.027022
vt 0.712340 0.100362
vt 0.734018 0.091835
vt 0.668941 0.093883
vt 0.080109 0.466478
vt 0.060599 0.421800
vt 0.020420 0.435130
vt 0.035612 0.481163
vt 0.327580 0.453007
vt 0.669134 0.025194
vt 0.201860 0.288348
vt 0.347388 0.282444
vt 0.465480 0.259874
vt 0.460891 0.190089
vt 0.498832 0.222381
vt 0.515729 0.133818
vt 0.533349 0.190323
vt 0.314716 0.240258
vt 0.465480 0.259875
vt 0.378608 0.329656
vt 0.413760 0.368611
vt 0.566276 0.123687
vt 0.439060 0.163370
vt 0.486513 0.114848
vt 0.609482 0.035204
vt 0.532717 0.078647
vt 0.532827 0.039459
vt 0.499581 0.066856
vt 0.609347 0.083429
vt 0.499604 0.050681
vt 0.492134 0.289411
vt 0.519539 0.099530
vt 0.550195 0.093360
vt 0.572613 0.182520
s 0
usemtl texture001_texture001.png
f 1/1/1 2/2/1 3/3/1
f 4/4/2 3/3/2 2/2/2
f 3/3/3 4/4/3 5/5/3
f 6/6/4 5/5/4 4/4/4
f 5/5/5 6/6/5 7/7/5
f 8/8/6 7/7/6 6/6/6
f 7/7/7 8/8/7 9/9/7
f 10/10/8 11/11/8 12/12/8
f 13/13/9 12/12/9 11/11/9
f 12/12/10 13/13/10 14/8/10
f 15/6/11 14/8/11 13/13/11
f 14/8/12 15/6/12 16/7/12
f 17/5/13 16/7/13 15/6/13
f 18/13/14 6/6/14 2/2/14
f 6/6/15 18/13/15 8/8/15
f 19/12/16 8/8/16 18/13/16
f 8/8/17 19/12/17 9/9/17
f 20/10/18 9/9/18 19/12/18
f 3/3/19 21/2/19 1/1/19
f 21/2/20 3/3/20 22/4/20
f 17/5/21 22/4/21 3/3/21
f 22/4/22 17/5/22 15/6/22
f 23/14/23 24/15/23 25/16/23
f 26/17/23 25/16/23 24/15/23
f 25/16/23 26/17/23 27/18/23
f 29/19/23 24/15/23 28/20/23
f 24/15/23 29/19/23 26/17/23
f 30/21/23 26/17/23 29/19/23
f 20/10/24 19/12/24 31/11/24
f 18/13/25 31/11/25 19/12/25
f 31/11/26 18/13/26 32/22/26
f 13/13/27 21/2/27 15/6/27
f 22/4/28 15/6/28 21/2/28
f 33/23/29 34/24/29 35/25/29
f 36/23/30 35/25/30 34/24/30
f 35/25/31 37/22/31 33/23/31
f 11/11/32 33/23/32 37/22/32
f 35/25/33 36/23/33 32/22/33
f 31/11/34 32/22/34 36/23/34
f 10/10/35 12/12/35 38/9/35
f 14/8/36 38/9/36 12/12/36
f 6/6/37 4/4/37 2/2/37
f 5/5/38 39/26/38 3/3/38
f 11/11/39 37/22/39 13/13/39
f 26/17/23 30/21/23 40/27/23
f 10/10/40 38/9/40 41/28/40
f 9/9/41 20/10/41 42/28/41
f 38/9/42 14/8/42 16/7/42
f 43/29/43 44/30/43 45/31/43
f 46/32/44 45/31/44 44/30/44
f 45/31/45 46/32/45 47/33/45
f 48/34/46 47/33/46 46/32/46
f 49/35/47 50/31/47 51/29/47
f 52/36/48 51/29/48 50/31/48
f 51/29/49 52/36/49 53/37/49
f 54/38/50 53/37/50 52/36/50
f 56/33/51 55/32/51 50/31/51
f 55/32/52 56/33/52 57/34/52
f 58/39/53 57/34/53 56/33/53
f 59/35/54 45/31/54 60/40/54
f 61/41/55 60/40/55 45/31/55
f 62/42/23 63/43/23 64/44/23
f 65/45/23 64/44/23 63/43/23
f 49/35/56 66/40/56 50/31/56
f 67/41/57 50/31/57 66/40/57
f 43/29/58 68/37/58 44/30/58
f 50/31/59 55/32/59 52/36/59
f 45/31/60 59/35/60 43/29/60
f 63/43/23 62/42/23 69/46/23
f 61/41/61 45/31/61 47/33/61
f 64/44/23 65/45/23 70/47/23
f 50/31/62 67/41/62 56/33/62
f 54/38/50 52/36/50 71/48/50
f 58/39/63 72/49/63 73/50/63
f 72/49/63 58/39/63 56/33/63
f 57/34/53 58/39/53 74/51/53
f 38/9/64 59/35/64 41/28/64
f 59/35/65 38/9/65 43/29/65
f 16/7/66 43/29/66 38/9/66
f 43/29/67 16/7/67 68/37/67
f 17/5/68 68/37/68 16/7/68
f 42/28/69 49/35/69 9/9/69
f 51/29/70 9/9/70 49/35/70
f 9/9/71 51/29/71 7/7/71
f 30/21/23 69/46/23 40/27/23
f 62/42/23 40/27/23 69/46/23
f 5/5/72 7/7/72 53/37/72
f 51/29/73 53/37/73 7/7/73
f 39/26/74 5/5/74 54/38/74
f 53/37/74 54/38/74 5/5/74
