# Blender 5.1.1
# www.blender.org
mtllib WhiteRabbitBody.mtl
o Mesh.004_rdmobj04
v -0.061638 16.874058 6.611061
v 1.059845 15.996214 7.806097
v -0.061638 15.922792 7.883049
v -0.061638 17.678249 7.561161
v -1.183121 15.996214 7.806097
v -1.183121 17.585670 7.450481
v -5.326915 14.776918 8.882474
v -5.425856 17.429775 7.910271
v -5.425856 16.499260 6.819658
v -5.138863 19.240761 5.494883
v 14.283135 5.129529 -5.856439
v 14.283134 5.129530 1.650989
v 17.706596 -0.703402 -2.213834
v 16.154200 -0.703399 3.451678
v 16.630846 -3.862406 2.953442
v 13.714554 -4.893701 7.966545
v 14.312055 -8.865526 2.775251
v 10.514417 -10.451081 6.333804
v -10.637700 -10.451077 6.333803
v -14.435335 -8.865522 2.775251
v -13.837834 -4.893693 7.966546
v -16.754126 -3.862398 2.953442
v -16.277481 -0.703394 3.451679
v -17.829876 -0.703394 -2.213834
v -14.406411 5.129534 1.650984
v -14.406410 5.129533 -5.856442
v 5.147219 -14.094329 -9.358539
v -0.061641 -11.232841 -14.674826
v 5.929573 -11.004527 -14.106004
v 2.837565 -8.938060 -16.295630
v 6.799869 -5.623985 -16.878143
v -0.061640 -6.137325 -18.161972
v -0.061639 -0.685071 -18.190062
v -6.923150 -5.623981 -16.878143
v 1.059846 16.968124 6.720418
v 1.059846 18.483135 6.144995
v -0.061637 18.566120 6.079311
v -1.183120 18.483135 6.144994
v -0.061641 5.620017 12.395593
v -0.061639 -0.685069 13.774338
v 6.468352 5.620015 11.205712
v 7.359221 -0.685071 12.388400
v 11.658456 5.129530 7.700005
v 13.240715 -0.604905 8.682350
v 7.243924 -5.948068 11.794818
v 3.835263 -13.999514 4.286071
v 6.070543 -10.773068 9.229959
v -0.061641 -10.773068 10.509336
v -0.061639 -6.137322 13.164331
v -6.193825 -10.773065 9.229959
v 10.761748 -11.146564 -10.817598
v 14.276126 -8.882915 -8.083899
v 11.388496 -8.349391 -12.272142
v 12.537784 -4.440524 -13.537769
v 7.048549 -0.685073 -16.767870
v -10.885031 -11.146560 -10.817598
v -14.399406 -8.882911 -8.083899
v -11.511777 -8.349387 -12.272141
v -12.661064 -4.440516 -13.537770
v -7.171828 -0.685069 -16.767870
v -11.781734 5.129532 7.700004
v -13.363994 -0.604902 8.682350
v -7.367204 -5.948068 11.794817
v 5.302579 17.429771 7.910273
v 1.059845 17.585667 7.450479
v 5.203638 14.776918 8.882476
v 5.302581 16.499256 6.819660
v 5.302581 16.499256 6.819660
v 5.015586 19.240757 5.494883
v -1.183122 16.968124 6.720417
v -5.425856 16.499260 6.819658
v -7.164089 -13.303504 -10.061990
v -6.052856 -11.004519 -14.106004
v -5.270503 -14.094325 -9.358539
v -7.482499 -0.685067 12.388399
v -6.591633 5.620017 11.205709
v -0.061641 7.437083 11.959731
v -0.061642 -14.542276 4.491306
v -3.958546 -13.999514 4.286069
v -3.957721 -15.719831 -2.718091
v 18.028896 -3.427027 -2.240877
v 16.136444 -7.476488 -2.413074
v 16.284702 -3.666495 -9.017548
v -16.407982 -3.666491 -9.017550
v -16.259727 -7.476480 -2.413074
v -18.152176 -3.427019 -2.240877
v 15.997366 -0.679316 -9.089577
v 11.538296 5.129529 -11.033292
v 12.198811 -0.623418 -13.674520
v 5.936498 5.129531 -14.056502
v -0.061637 5.129531 -15.226580
v 7.040807 -13.303508 -10.061992
v -2.960848 -8.938060 -16.295630
v -11.661570 5.129533 -11.033298
v -6.059771 5.129531 -14.056503
v -12.322089 -0.623414 -13.674520
v -16.120647 -0.679311 -9.089577
v 2.897058 29.772657 11.074237
v 3.615105 28.038801 11.074237
v 3.615105 28.038809 12.039455
v 3.834438 -15.719831 -2.718091
v -0.061642 -16.180204 -2.718091
v -0.061643 -14.633067 -9.334516
v -0.061643 -14.633067 -9.334516
v -3.738377 28.038809 11.074236
v -3.738376 28.038809 12.039455
v -3.020330 29.772657 11.074235
v 5.147219 -14.094329 -9.358539
v -5.270503 -14.094325 -9.358539
v 6.466790 13.253652 7.911861
v 8.761272 13.466267 5.033439
v 8.080240 8.388875 10.238426
v 10.550653 8.388871 6.985359
v 5.346292 18.981377 1.984444
v 4.151723 18.545437 4.435799
v -6.590066 13.253652 7.911862
v -8.203517 8.388875 10.238426
v -8.884550 13.466270 5.033437
v -10.673928 8.388875 6.985356
v -5.469567 18.981377 1.984443
v -4.274997 18.545437 4.435799
v 11.658456 5.129530 7.700005
v 8.989433 2.067260 12.336812
v 13.396691 2.067261 7.660345
v 14.283134 5.129530 1.650989
v 16.618282 2.067257 2.244210
v 14.283135 5.129529 -5.856439
v 16.571508 2.067260 -5.905365
v 11.538296 5.129529 -11.033292
v -0.061637 5.129531 -15.226580
v 7.323215 2.067260 -16.990046
v 5.936498 5.129531 -14.056502
v 13.262333 2.067258 -12.410580
v -11.661570 5.129533 -11.033298
v -13.385608 2.067266 -12.410581
v -6.059771 5.129531 -14.056503
v -7.446490 2.067261 -16.990046
v -14.406411 5.129534 1.650984
v -16.741568 2.067259 2.244207
v -14.406410 5.129533 -5.856442
v -16.694784 2.067262 -5.905367
v -13.519971 2.067259 7.660337
v -11.781734 5.129532 7.700004
v -9.112712 2.067269 12.336815
v 16.060385 -5.314165 8.031845
v 9.455893 -1.803941 13.317081
v 9.912108 -7.189458 13.557935
v -9.579171 -1.803941 13.317081
v -16.183659 -5.314165 8.031837
v -10.035386 -7.189454 13.557935
v 8.950218 -5.773387 -19.337818
v -0.061637 2.067257 -18.619661
v -0.061636 -6.014843 -21.225374
v 15.612331 -4.579021 -13.922903
v 19.353594 -3.811479 1.988402
v 19.115601 -3.375147 -6.440209
v -15.735610 -4.579013 -13.922910
v -19.238880 -3.375147 -6.440213
v -9.073492 -5.773387 -19.337822
v -19.476881 -3.811483 1.988396
v 9.131704 16.251434 -0.434746
v 7.781167 16.112381 -0.436136
v 14.236284 11.692711 -0.578253
v 9.131705 16.251778 -9.398897
v -6.591633 5.620017 11.205709
v -0.061641 7.437083 11.959731
v -2.412899 4.726552 13.446665
v -0.061640 6.948726 12.944613
v -0.061640 8.388871 12.410044
v 2.289618 4.726552 13.446667
v 6.337792 8.388871 10.821584
v 14.236284 8.421215 -5.149934
v 6.912814 4.895087 12.217417
v 6.468352 5.620015 11.205712
v 13.850567 8.050928 -5.183178
v 11.575283 10.697986 -9.540685
v 11.005503 8.388865 -10.859176
v 9.508779 13.342319 -9.698623
v 5.264019 13.466266 -12.791981
v 11.575283 10.697986 -9.540685
v 7.692518 16.096016 -9.398538
v 9.131704 18.792507 -5.204912
v -13.973841 8.050932 -5.183182
v -11.698555 10.697989 -9.540690
v -11.128778 8.388869 -10.859179
v -9.632049 13.342322 -9.698625
v -5.387292 13.466266 -12.791982
v -8.171267 16.602032 -9.429720
v -3.566750 19.148056 -9.236244
v -7.020590 19.148056 -5.204915
v -0.061639 13.466264 9.603211
v 5.206208 13.466268 8.239754
v 10.550653 8.388871 6.985359
v 11.658456 5.129530 7.700005
v -6.461073 8.388875 10.821583
v -11.781734 5.129532 7.700004
v -10.673928 8.388875 6.985356
v -5.329485 13.466271 8.239755
v 3.443479 19.148056 -9.236242
v 8.047996 16.602028 -9.429718
v 2.826126 18.708427 4.624527
v -0.061638 18.544369 5.460541
v -2.949399 18.708427 4.624527
v -0.061635 13.466262 -13.996683
v -0.061635 19.148056 -10.079509
v 6.080168 8.388865 -14.809848
v -0.061635 8.388865 -16.219833
v -6.203441 8.388869 -14.809849
v -7.036094 4.895089 12.217414
v 6.897318 19.148056 -5.204913
v 12.747549 10.859177 -0.223787
v 13.850567 8.050928 -5.183178
v 8.761272 13.466267 5.033439
v 5.346292 18.981377 1.984444
v 6.881803 18.462555 -5.204912
v -8.884550 13.466270 5.033437
v -5.469567 18.981377 1.984443
v -9.254978 16.251434 -0.434748
v -14.359558 11.692715 -0.578258
v -7.904444 16.112381 -0.436137
v 6.739021 20.577827 5.843976
v 13.142856 24.370235 8.214966
v 5.346292 18.981377 1.984444
v 12.285478 25.481457 1.418933
v 6.897318 19.148056 -5.204913
v 10.984987 26.014084 -4.913222
v 8.695127 25.809238 -10.992214
v 2.346279 19.136784 -6.442097
v -0.061635 19.136780 -7.021104
v -0.061633 25.037172 -16.178780
v -2.469550 19.136784 -6.442097
v -5.269195 25.407358 -14.927312
v -8.818394 25.809238 -10.992214
v 5.145928 25.407358 -14.927309
v 3.443479 19.148056 -9.236242
v -0.061633 25.037172 -16.178780
v -0.061635 19.148056 -10.079509
v -3.566750 19.148056 -9.236244
v 5.145928 25.407358 -14.927309
v 8.695127 25.809238 -10.992214
v 4.611434 18.978180 -2.587889
v 10.984987 26.014084 -4.913222
v 12.285478 25.481457 1.418933
v 4.164479 18.978180 1.526748
v 13.142856 24.370235 8.214966
v 6.739021 20.577827 5.843976
v 2.826126 18.708427 4.624527
v -7.020590 19.148056 -5.204915
v -8.818394 25.809238 -10.992214
v -5.269195 25.407358 -14.927312
v 2.826126 18.708427 4.624527
v -4.734708 18.978180 -2.587892
v 9.233553 16.247303 -9.398316
v 9.223933 18.787319 -5.204912
v 9.223932 16.247726 -0.436917
v 5.346292 18.981377 1.984444
v 11.019621 13.570988 1.134057
v -6.862296 20.577824 5.843972
v -13.266133 24.370239 8.214963
v -5.469567 18.981377 1.984443
v -12.408751 25.481457 1.418927
v -11.108257 26.014088 -4.913224
v -11.108257 26.014088 -4.913224
v -12.408751 25.481457 1.418927
v -4.287753 18.978180 1.526748
v -2.949399 18.708427 4.624527
v -6.862296 20.577824 5.843972
v -13.266133 24.370239 8.214963
v 12.747549 10.859177 -0.223787
v -2.949399 18.708427 4.624527
v 9.473476 15.193357 5.403522
v 7.448124 13.253743 7.839614
v 4.151723 18.545437 4.435799
v 6.466790 13.253652 7.911861
v 5.346292 18.981377 1.984444
v -12.870825 10.859180 -0.223791
v -11.142894 13.570988 1.134054
v -9.347207 16.247730 -0.436919
v -5.469567 18.981377 1.984443
v 6.466790 13.253652 7.911861
v 7.448124 13.253743 7.839614
v 4.151723 18.545437 4.435799
v 9.473476 15.193357 5.403522
v -9.356824 16.247307 -9.398319
v -9.347207 18.787327 -5.204914
v 5.346292 18.981377 1.984444
v 5.346292 18.981377 1.984444
v -8.203517 8.388875 10.238426
v -6.590066 13.253652 7.911862
v -7.571400 13.253743 7.839615
v -4.274997 18.545437 4.435799
v -9.596753 15.193357 5.403518
v -5.469567 18.981377 1.984443
v -10.277710 8.369760 9.517190
v -10.913221 12.634561 6.843988
v -8.203517 8.388875 10.238426
v -7.571400 13.253743 7.839615
v -6.590066 13.253652 7.911862
v -4.274997 18.545437 4.435799
v -9.596753 15.193357 5.403518
v -5.469567 18.981377 1.984443
v -10.277710 8.369760 9.517190
v -10.913221 12.634561 6.843988
v -5.469567 18.981377 1.984443
v 10.789946 12.634557 6.843986
v 8.080240 8.388875 10.238426
v 10.154432 8.369760 9.517192
v 8.989433 2.067260 12.336812
v 9.724193 2.073604 12.079655
v 8.080240 8.388875 10.238426
v 10.789946 12.634557 6.843986
v 8.989433 2.067260 12.336812
v 10.154432 8.369760 9.517192
v 9.724193 2.073604 12.079655
v 9.223932 16.247726 -0.436917
v 9.223933 18.787319 -5.204912
v 9.233553 16.247303 -9.398316
v 9.223932 16.247726 -0.436917
v 14.236284 11.692711 -0.578253
v -9.579171 -1.803941 13.317081
v -9.847471 2.073611 12.079658
v -9.112712 2.067269 12.336815
v -9.847471 2.073611 12.079658
v -9.112712 2.067269 12.336815
v -9.579171 -1.803941 13.317081
v 8.848187 13.403103 5.180884
v 13.738866 8.388870 1.917046
v -13.862144 8.388863 1.917042
v -8.971461 13.403103 5.180882
v 7.323215 2.067260 -16.990046
v 13.262333 2.067258 -12.410580
v -13.385608 2.067266 -12.410581
v -16.694784 2.067262 -5.905367
v 9.455893 -1.803941 13.317081
v 9.455893 -1.803941 13.317081
v 13.396691 2.067261 7.660345
v 8.989433 2.067260 12.336812
v 9.455893 -1.803941 13.317081
v 16.571508 2.067260 -5.905365
v -0.061637 2.067257 -18.619661
v -7.446490 2.067261 -16.990046
v 16.060385 -5.314165 8.031845
v 9.912108 -7.189458 13.557935
v -10.035386 -7.189454 13.557935
v -9.579171 -1.803941 13.317081
v -16.183659 -5.314165 8.031837
v -13.519971 2.067259 7.660337
v 6.466790 13.253652 7.911861
v 8.080240 8.388875 10.238426
v 15.612331 -4.579021 -13.922903
v 8.950218 -5.773387 -19.337818
v 19.115601 -3.375147 -6.440209
v 11.033296 8.388864 6.856883
v 16.618282 2.067257 2.244210
v -0.061636 -6.014843 -21.225374
v 19.353594 -3.811479 1.988402
v -15.735610 -4.579013 -13.922910
v -19.238880 -3.375147 -6.440213
v -19.476881 -3.811483 1.988396
v -16.741568 2.067259 2.244207
v -9.073492 -5.773387 -19.337822
v -9.112712 2.067269 12.336815
v -11.156573 8.388867 6.856881
v -8.203517 8.388875 10.238426
v -6.590066 13.253652 7.911862
v 8.957084 -11.316959 -23.176041
v 6.872693 -10.631717 -18.499964
v 4.624960 -6.016330 -22.047964
v 2.955395 -6.329181 -19.196865
v -0.061640 -5.330993 -20.147491
v 8.024144 -16.009869 -20.323429
v 4.624956 -14.726108 -15.352451
v 2.955392 -11.936141 -14.886573
v -0.061641 -12.992152 -14.169932
v 3.123985 -6.286526 -27.772224
v -0.061641 -4.556599 -23.170090
v -4.748242 -6.016326 -22.047966
v 5.552233 -14.129906 -28.730709
v 8.047635 -13.157772 -21.720690
v 5.419049 -7.760723 -25.870319
v 4.624960 -6.016330 -22.047964
v -0.061641 -4.556599 -23.170090
v 2.149452 -10.912167 -30.156239
v -0.061642 -6.053776 -27.182726
v -5.542333 -7.760723 -25.870316
v -0.061643 -10.654839 -29.518459
v -0.061642 -6.053776 -27.182726
v 4.012983 -11.923893 -28.542753
v 5.419049 -7.760723 -25.870319
v 8.047635 -13.157772 -21.720690
v -1.384012 -15.275524 -30.009329
v -4.136270 -11.923893 -28.542753
v -5.542333 -7.760723 -25.870316
v -5.675521 -14.129906 -28.730705
v -8.170920 -13.157768 -21.720690
v -4.748242 -6.016326 -22.047966
v -9.080366 -11.316952 -23.176039
v -6.995978 -10.631713 -18.499964
v -3.078675 -6.329181 -19.196863
v -8.147430 -16.009861 -20.323425
v -4.748240 -14.726104 -15.352450
v -3.078676 -11.936141 -14.886570
v 2.921331 -18.968075 -26.481327
v 5.967209 -15.936337 -25.457718
v 4.012981 -19.495857 -22.720900
v 4.012981 -19.495857 -22.720900
v -0.061645 -20.758495 -21.750105
v -0.061645 -17.336178 -27.638960
v -4.136270 -19.495853 -22.720900
v -3.044622 -18.968075 -26.481325
v -4.136270 -19.495853 -22.720900
v -6.090498 -15.936333 -25.457716
v -8.170920 -13.157768 -21.720690
v 4.402388 -9.300361 -16.912798
v -0.061642 -16.178516 -14.235942
v 4.624956 -14.726108 -15.352451
v 6.872693 -10.631717 -18.499964
v 5.419045 -17.945606 -18.039455
v -0.061642 -16.178516 -14.235942
v -0.061644 -19.643974 -16.733627
v -5.542332 -17.945606 -18.039452
v 5.419045 -17.945606 -18.039455
v -0.061645 -20.758495 -21.750105
v -0.061644 -19.643974 -16.733627
v -5.542332 -17.945606 -18.039452
v -6.995978 -10.631713 -18.499964
v -4.748240 -14.726104 -15.352450
v -4.525671 -9.300357 -16.912798
v 8.957084 -11.316959 -23.176041
v 6.872693 -10.631717 -18.499964
v 4.624960 -6.016330 -22.047964
v 8.024144 -16.009869 -20.323429
v 4.624956 -14.726108 -15.352451
v 6.872693 -10.631717 -18.499964
v 3.123985 -6.286526 -27.772224
v 4.624960 -6.016330 -22.047964
v -0.061641 -4.556599 -23.170090
v 5.552233 -14.129906 -28.730709
v 8.047635 -13.157772 -21.720690
v 5.419049 -7.760723 -25.870319
v -0.061642 -6.053776 -27.182726
v 2.149452 -10.912167 -30.156239
v 5.419049 -7.760723 -25.870319
v 2.921331 -18.968075 -26.481327
v 4.012981 -19.495857 -22.720900
v 5.967209 -15.936337 -25.457718
v 5.967209 -15.936337 -25.457718
v 1.998568 -18.280422 -29.689867
v 5.967209 -15.936337 -25.457718
v 4.012983 -11.923893 -28.542753
v 1.998568 -18.280422 -29.689867
v 4.012983 -11.923893 -28.542753
v -0.061643 -10.654839 -29.518459
v 1.260723 -15.275524 -30.009329
v 4.012983 -11.923893 -28.542753
v 1.260723 -15.275524 -30.009329
v -0.061643 -10.654839 -29.518459
v -4.136270 -11.923893 -28.542753
v -1.384012 -15.275524 -30.009329
v -4.136270 -11.923893 -28.542753
v -6.090498 -15.936333 -25.457716
v -4.136270 -11.923893 -28.542753
v -6.090498 -15.936333 -25.457716
v -2.121859 -18.280418 -29.689867
v -2.121859 -18.280418 -29.689867
v -6.090498 -15.936333 -25.457716
v -4.136270 -19.495853 -22.720900
v -3.044622 -18.968075 -26.481325
v -5.542333 -7.760723 -25.870316
v -8.170920 -13.157768 -21.720690
v -5.675521 -14.129906 -28.730705
v -2.272739 -10.912163 -30.156240
v -5.542333 -7.760723 -25.870316
v -2.272739 -10.912163 -30.156240
v -4.748242 -6.016326 -22.047966
v -6.995978 -10.631713 -18.499964
v -9.080366 -11.316952 -23.176039
v -6.995978 -10.631713 -18.499964
v -4.748240 -14.726104 -15.352450
v -8.147430 -16.009861 -20.323425
v -3.247268 -6.286526 -27.772224
v -4.748242 -6.016326 -22.047966
v -3.247268 -6.286526 -27.772224
v 7.041087 -19.757120 -5.760826
v 7.041087 -18.336298 -5.760823
v 9.098974 -19.757120 -5.760826
v 9.098973 -18.336298 -5.760824
v 10.334739 -19.757120 -3.655367
v 10.334739 -18.336298 -3.655367
v 9.098974 -19.757120 -1.678517
v 9.098974 -18.336298 -1.678517
v 7.041089 -19.757120 -1.678517
v 7.041087 -18.336298 -1.678516
v 11.539084 -16.883596 -6.087842
v 12.881006 -15.878374 -2.603599
v 12.408123 -16.883596 -2.615482
v 11.450118 -16.883596 0.385143
v 10.176891 -19.283381 -0.857975
v 8.754137 -19.283381 0.443806
v -11.662366 -16.883593 -6.087841
v -13.004290 -15.878366 -2.603599
v -12.531405 -16.883596 -2.615482
v -11.573400 -16.883596 0.385144
v -10.300173 -19.283377 -0.857975
v -8.877420 -19.283373 0.443807
v -9.222258 -18.336294 -1.678517
v -7.164371 -18.336298 -1.678517
v 3.554249 -14.950960 0.936298
v 6.932628 -14.950964 3.362783
v 6.893811 -16.883596 2.325281
v 9.349544 -16.883596 2.233277
v 4.100097 -16.883596 -0.013462
v 6.862299 -19.283381 0.455229
v -5.974142 -18.336290 -3.655367
v -5.414042 -19.283377 -0.887916
v -6.985582 -19.283377 0.455229
v -7.017093 -16.883596 2.325282
v -3.677532 -14.950960 0.936299
v -7.055909 -14.950960 3.362783
v -9.472826 -16.883596 2.233279
v 5.290760 -19.283381 -0.887915
v 5.311317 -19.283381 -4.365807
v 10.827402 -19.283381 -2.706494
v 5.850859 -18.336298 -3.655367
v 5.311317 -19.283381 -4.365807
v 7.047550 -19.283381 -6.292631
v -10.259566 -19.283373 -5.098677
v -10.458024 -18.336290 -3.655367
v -10.950687 -19.283373 -2.706493
v -5.974142 -18.336290 -3.655367
v -5.434601 -19.283377 -4.365808
v -7.164372 -18.336294 -5.760825
v -7.170834 -19.283377 -6.292631
v -9.222258 -18.336294 -5.760825
v -5.434601 -19.283377 -4.365808
v -4.223381 -16.883596 -0.013462
v 9.161945 -19.283381 -6.341189
v 10.136279 -19.283381 -5.098676
v 5.850860 -19.757120 -3.655367
v 5.850859 -18.336298 -3.655367
v 7.041087 -19.757120 -5.760826
v 7.041087 -18.336298 -5.760823
v 7.041087 -18.336298 -1.678516
v 7.041089 -19.757120 -1.678517
v -9.285229 -19.283373 -6.341189
v 12.189841 -14.950964 1.179036
v 7.054186 -16.883596 -8.409987
v -7.177470 -16.883596 -8.409987
v -12.313122 -14.950960 1.179038
v 4.198518 -16.883596 -5.409482
v 5.850859 -18.336298 -3.655367
v -4.321801 -16.883596 -5.409484
v 9.758123 -14.950964 3.353437
v 4.198518 -16.883596 -5.409482
v 5.311317 -19.283381 -4.365807
v 9.620915 -16.883596 -8.361866
v -9.744199 -16.883596 -8.361866
v -4.321801 -16.883596 -5.409484
v -5.434601 -19.283377 -4.365808
v -9.881405 -14.950960 3.353439
v -3.575059 -14.600066 -6.346873
v -3.293782 -14.600061 -2.816731
v -3.644362 -14.571650 1.047181
v -7.059257 -14.600061 3.492411
v -6.996001 -13.052385 4.096049
v -9.992379 -14.600061 3.492409
v -12.760926 -13.735621 -6.994691
v -10.315118 -13.566611 -9.976125
v -10.704919 -11.799335 -10.490785
v -7.129099 -13.560763 -9.946021
v -13.680896 -14.222681 -2.558988
v -12.434644 -14.600061 1.314035
v -10.458024 -19.757120 -3.655367
v -9.222257 -19.757120 -5.760826
v -7.164370 -19.757116 -5.760826
v -5.974142 -18.336290 -3.655367
v -5.974142 -19.757116 -3.655367
v -7.164371 -18.336298 -1.678517
v -10.443192 -11.549986 4.682029
v -13.941973 -9.585158 -7.934786
v -13.980181 -9.527128 2.622498
v -9.222258 -19.757120 -1.678517
v -7.164371 -19.757116 -1.678517
v -7.164371 -19.757116 -1.678517
v -7.164370 -19.757116 -5.760826
v -7.164372 -18.336294 -5.760825
v -3.575059 -14.600066 -6.346873
v -15.728402 -8.110182 -2.441800
v 10.319908 -11.549982 4.682029
v 14.312055 -8.865526 2.775251
v 13.856898 -9.527132 2.622497
v 16.136444 -7.476488 -2.413074
v 15.605122 -8.110186 -2.441801
v 14.276126 -8.882915 -8.083899
v 13.818691 -9.585162 -7.934785
v 10.761748 -11.146564 -10.817598
v 10.581635 -11.799338 -10.490785
v 7.040807 -13.303508 -10.061992
v 7.005815 -13.560760 -9.946019
v 5.147219 -14.094329 -9.358539
v 10.514417 -10.451081 6.333804
v 10.351841 -11.309759 5.099237
v 6.872717 -13.052385 4.096047
v 9.869095 -14.600065 3.492410
v 3.835263 -13.999514 4.286071
v 3.521077 -14.571650 1.047180
v 6.935973 -14.600065 3.492409
v 3.834438 -15.719831 -2.718091
v 3.170498 -14.600065 -2.816731
v 3.451774 -14.600066 -6.346872
v 5.147219 -14.094329 -9.358539
v 10.191836 -13.566615 -9.976123
v 12.637642 -13.735625 -6.994691
v -14.435335 -8.865522 2.775251
v -10.475123 -11.309755 5.099238
v -10.637700 -10.451077 6.333803
v -3.958546 -13.999514 4.286069
v 12.311360 -14.600065 1.314034
v 13.557609 -14.222689 -2.558988
v 3.451774 -14.600066 -6.346872
v -3.957721 -15.719831 -2.718091
v -0.061641 -11.232841 -14.674826
v 2.837565 -8.938060 -16.295630
v -0.061640 -6.137325 -18.161972
v -5.270503 -14.094325 -9.358539
v -7.164089 -13.303504 -10.061990
v -10.885031 -11.146560 -10.817598
v -2.960848 -8.938060 -16.295630
v -5.270503 -14.094325 -9.358539
v -14.399406 -8.882911 -8.083899
v -16.259727 -7.476480 -2.413074
vn 0.0113 -0.8008 -0.5989
vn 0.0556 0.1801 0.9821
vn -0.0556 0.1801 0.9821
vn -0.1136 0.2169 0.9696
vn 0.1859 0.2145 0.9589
vn 0.0885 0.3457 0.9342
vn -0.9993 -0.0284 0.0242
vn -0.9953 0.0738 -0.0629
vn 0.8624 0.5062 -0.0000
vn 0.8982 0.3641 0.2461
vn 0.9593 0.1033 0.2629
vn 0.8589 0.0492 0.5098
vn 0.8264 -0.3972 0.3990
vn 0.6848 -0.5386 0.4909
vn -0.6848 -0.5386 0.4909
vn -0.8264 -0.3972 0.3990
vn -0.8589 0.0492 0.5098
vn -0.9593 0.1033 0.2629
vn -0.8982 0.3641 0.2461
vn -0.8624 0.5062 -0.0000
vn 0.0828 -0.8414 -0.5340
vn 0.0962 -0.6525 -0.7517
vn 0.2745 -0.4751 -0.8360
vn 0.1974 -0.3938 -0.8977
vn 0.1843 -0.0051 -0.9829
vn -0.1843 -0.0051 -0.9829
vn 0.1201 -0.3525 -0.9281
vn 0.0337 -0.2996 -0.9535
vn -0.0337 -0.2996 -0.9535
vn -0.0334 0.8573 0.5137
vn -0.1230 0.8178 0.5622
vn 0.1753 0.2103 0.9618
vn 0.1797 0.2058 0.9620
vn 0.5597 0.2285 0.7966
vn 0.5091 0.2799 0.8139
vn 0.8467 0.3850 0.3674
vn 0.8335 0.3085 0.4584
vn 0.8736 0.0154 0.4863
vn 0.5176 -0.0849 0.8514
vn 0.3276 -0.8522 0.4080
vn 0.1063 -0.8540 0.5093
vn 0.1781 -0.4890 0.8539
vn -0.1781 -0.4890 0.8539
vn 0.7106 -0.4433 -0.5464
vn 0.7321 -0.3950 -0.5550
vn 0.5215 -0.3977 -0.7549
vn 0.5040 -0.0061 -0.8637
vn -0.7106 -0.4433 -0.5464
vn -0.7321 -0.3950 -0.5550
vn -0.5215 -0.3977 -0.7549
vn -0.5040 -0.0061 -0.8637
vn -0.8467 0.3850 0.3674
vn -0.8335 0.3085 0.4584
vn -0.8736 0.0154 0.4863
vn -0.5176 -0.0849 0.8514
vn -0.0311 0.8237 0.5662
vn -0.0885 0.3457 0.9342
vn -0.1859 0.2145 0.9589
vn -0.0584 -0.7649 -0.6415
vn 0.9993 -0.0284 0.0242
vn 0.9953 0.0738 -0.0629
vn -0.0533 0.7959 0.6031
vn -0.1201 -0.3525 -0.9281
vn 0.0853 -0.3538 -0.9314
vn 0.0273 -0.4372 -0.8989
vn -0.3404 -0.7742 -0.5336
vn -0.1572 -0.8393 -0.5204
vn -0.0828 -0.8414 -0.5340
vn -0.1797 0.2058 0.9620
vn -0.1753 0.2103 0.9618
vn -0.1745 0.2297 0.9575
vn 0.1445 -0.8386 0.5252
vn -0.1445 -0.8386 0.5252
vn -0.1462 -0.9607 0.2359
vn 0.9573 0.1106 0.2669
vn 0.8838 -0.4217 0.2025
vn 0.8884 -0.4061 -0.2143
vn -0.8884 -0.4061 -0.2143
vn -0.8838 -0.4217 0.2025
vn -0.9573 0.1106 0.2669
vn -0.1063 -0.8540 0.5093
vn -0.3276 -0.8522 0.4080
vn -0.4984 -0.4983 0.7094
vn -0.0853 -0.3538 -0.9314
vn -0.0273 -0.4372 -0.8989
vn -0.0113 -0.8008 -0.5989
vn -0.1265 -0.7391 -0.6616
vn 0.7834 0.4624 -0.4154
vn 0.7219 0.3555 -0.5937
vn 0.8951 0.3872 -0.2211
vn 0.9668 0.0872 -0.2400
vn 0.4317 0.4168 -0.7999
vn 0.4569 0.4462 -0.7695
vn 0.1716 0.4431 -0.8799
vn 0.1754 0.4470 -0.8771
vn 0.4816 -0.4868 -0.7287
vn 0.3404 -0.7742 -0.5336
vn -0.4816 -0.4868 -0.7287
vn -0.4762 -0.4624 -0.7480
vn -0.1974 -0.3938 -0.8977
vn -0.2745 -0.4751 -0.8360
vn -0.4317 0.4168 -0.7999
vn -0.4569 0.4462 -0.7695
vn -0.8951 0.3872 -0.2211
vn -0.9668 0.0872 -0.2400
vn -0.5091 0.2799 0.8139
vn -0.5597 0.2285 0.7966
vn -0.9239 -0.3826 -0.0000
vn 0.1825 -0.1093 0.9771
vn -0.1825 -0.1093 0.9771
vn 0.1145 -0.9687 0.2201
vn -0.1145 -0.9687 0.2201
vn 0.9016 -0.3831 -0.2008
vn 0.7421 -0.3841 -0.5494
vn 0.1143 -0.9674 -0.2262
vn -0.1143 -0.9674 -0.2262
vn 0.0845 -0.8405 -0.5352
vn -0.0845 -0.8405 -0.5352
vn -0.9016 -0.3831 -0.2008
vn -0.7421 -0.3841 -0.5494
vn 0.9239 -0.3826 -0.0000
vn 0.1136 0.2169 0.9696
vn 0.1230 0.8178 0.5622
vn 0.1265 -0.7391 -0.6616
vn 0.0334 0.8573 0.5137
vn 0.1745 0.2297 0.9575
vn 0.4762 -0.4624 -0.7480
vn 0.1572 -0.8393 -0.5204
vn -0.0962 -0.6525 -0.7517
vn -0.7219 0.3555 -0.5937
vn -0.1754 0.4470 -0.8771
vn -0.1716 0.4431 -0.8799
vn -0.7834 0.4624 -0.4154
vn -0.0666 -0.7434 -0.6655
vn 0.0311 0.8237 0.5662
vn 0.0533 0.7959 0.6031
vn 0.0666 -0.7434 -0.6655
vn 0.0584 -0.7649 -0.6415
vn 0.5311 -0.1064 0.8406
vn 0.1859 -0.1141 0.9759
vn 0.5005 -0.4966 0.7092
vn 0.4984 -0.4983 0.7094
vn 0.1725 -0.4947 0.8518
vn 0.9609 0.1162 -0.2514
vn 0.8863 -0.4179 0.1998
vn 0.1462 -0.9607 0.2359
vn 0.7637 0.0580 -0.6430
vn 0.7695 0.0455 -0.6370
vn 0.5147 0.0150 -0.8572
vn 0.1961 0.0120 -0.9805
vn 0.0994 -0.9709 -0.2180
vn -0.1961 0.0120 -0.9805
vn -0.0994 -0.9709 -0.2180
vn -0.5147 0.0150 -0.8572
vn -0.7695 0.0455 -0.6370
vn -0.7637 0.0580 -0.6430
vn -0.9609 0.1162 -0.2514
vn -0.8863 -0.4179 0.1998
vn -0.5005 -0.4966 0.7092
vn -0.5311 -0.1064 0.8406
vn -0.1725 -0.4947 0.8518
vn -0.1859 -0.1141 0.9759
vn -0.6635 -0.4903 -0.5651
vn -0.7085 -0.4566 -0.5381
vn -0.5780 -0.6387 -0.5079
vn -0.6828 -0.5857 -0.4369
vn 0.6635 -0.4903 -0.5651
vn 0.7085 -0.4566 -0.5381
vn 0.6828 -0.5857 -0.4369
vn 0.5780 -0.6387 -0.5079
vn -0.6785 -0.3698 -0.6348
vn -0.6747 -0.3747 -0.6359
vn -0.8154 -0.4582 -0.3538
vn -0.7952 -0.6064 -0.0000
vn -0.8010 -0.5986 0.0046
vn -0.7348 -0.5553 0.3896
vn -0.1336 -0.7164 0.6847
vn -0.4243 -0.7192 0.5502
vn -0.3958 -0.5527 0.7334
vn 0.3958 -0.5527 0.7334
vn 0.4243 -0.7192 0.5502
vn 0.1336 -0.7164 0.6847
vn 0.7952 -0.6064 -0.0000
vn 0.8010 -0.5986 0.0046
vn 0.7348 -0.5553 0.3896
vn 0.6747 -0.3747 -0.6359
vn 0.6785 -0.3698 -0.6348
vn 0.8154 -0.4582 -0.3538
vn -0.6863 -0.2814 -0.6707
vn -0.6507 -0.0888 -0.7541
vn 0.6863 -0.2814 -0.6707
vn 0.6507 -0.0888 -0.7541
vn -0.7595 -0.3007 -0.5768
vn -0.7041 -0.2529 -0.6636
vn -0.6861 -0.6023 -0.4081
vn -0.8147 -0.3184 -0.4846
vn -0.2042 -0.3195 0.9253
vn -0.1877 -0.3014 0.9348
vn -0.5549 -0.3422 0.7582
vn -0.7862 -0.3434 -0.5138
vn -0.5677 -0.3683 0.7363
vn -0.8097 -0.3867 0.4413
vn -0.9066 -0.4220 0.0052
vn -0.9058 -0.4238 0.0036
vn -0.8094 -0.4188 0.4117
vn -0.7282 -0.5766 0.3704
vn -0.1463 -0.7344 0.6628
vn 0.7282 -0.5766 0.3704
vn 0.1463 -0.7344 0.6628
vn 0.5677 -0.3683 0.7363
vn 0.8094 -0.4188 0.4117
vn 0.8097 -0.3867 0.4413
vn 0.5549 -0.3422 0.7582
vn 0.2042 -0.3195 0.9253
vn 0.9066 -0.4220 0.0052
vn 0.9058 -0.4238 0.0036
vn 0.7862 -0.3434 -0.5138
vn 0.8147 -0.3184 -0.4846
vn 0.6861 -0.6023 -0.4081
vn 0.1877 -0.3014 0.9348
vn 0.7041 -0.2529 -0.6636
vn 0.7595 -0.3007 -0.5768
vn 0.0020 -0.0292 0.9996
vn 0.2594 -0.6277 -0.7340
vn 0.6010 -0.7161 -0.3551
vn -0.1277 0.3451 0.9298
vn 0.1277 0.3451 0.9298
vn 0.2214 0.3945 0.8918
vn -0.1146 -0.8307 -0.5449
vn -0.2594 -0.6277 -0.7340
vn -0.6010 -0.7161 -0.3551
vn 0.8943 0.0341 -0.4462
vn 0.4923 0.3368 -0.8026
vn 0.5592 0.3455 -0.7536
vn -0.0923 0.8516 -0.5159
vn -0.8943 0.0341 -0.4462
vn -0.4923 0.3368 -0.8026
vn -0.5592 0.3455 -0.7536
vn -0.5648 0.3160 -0.7623
vn -0.2842 0.5724 -0.7692
vn -0.4367 0.8181 -0.3741
vn 0.2197 0.4807 0.8489
vn 0.5959 0.4655 0.6544
vn 0.6271 0.3641 0.6886
vn 0.2123 0.4728 0.8552
vn -0.2123 0.4728 0.8552
vn -0.2214 0.3945 0.8918
vn -0.6271 0.3641 0.6886
vn -0.5959 0.4655 0.6544
vn -0.2197 0.4807 0.8489
vn 0.2842 0.5724 -0.7692
vn 0.5648 0.3160 -0.7623
vn 0.1852 0.6212 0.7615
vn -0.1852 0.6212 0.7615
vn 0.6292 0.3754 0.6805
vn 0.2229 0.3931 0.8921
vn 0.1943 0.5568 -0.8076
vn -0.1943 0.5568 -0.8076
vn 0.1824 0.5629 -0.8061
vn 0.2032 0.3897 -0.8983
vn 0.2058 0.3925 -0.8964
vn -0.2058 0.3925 -0.8964
vn -0.6292 0.3754 0.6805
vn -0.2229 0.3931 0.8921
vn -0.2032 0.3897 -0.8983
vn -0.1824 0.5629 -0.8061
vn 0.4367 0.8181 -0.3741
vn -0.3680 -0.8248 -0.4293
vn 0.5106 -0.6992 0.5004
vn 0.5790 -0.6476 0.4954
vn 0.3680 -0.8248 -0.4293
vn 0.1146 -0.8307 -0.5449
vn 0.5236 0.6370 0.5657
vn 0.5189 0.6323 0.5753
vn 0.1974 0.6157 0.7628
vn 0.5938 0.4624 0.6584
vn 0.5788 0.3798 -0.7216
vn -0.1290 0.8796 0.4578
vn -0.0910 0.8789 0.4682
vn -0.1252 0.8535 -0.5058
vn -0.5788 0.3798 -0.7216
vn -0.5189 0.6323 0.5753
vn -0.5236 0.6370 0.5657
vn -0.5938 0.4624 0.6584
vn -0.1974 0.6157 0.7628
vn -0.0020 -0.0292 0.9996
vn 0.4428 -0.8737 0.2016
vn 0.6608 -0.7230 -0.2016
vn 0.6834 -0.7182 0.1308
vn 0.8432 -0.4929 -0.2146
vn 0.8264 -0.4795 -0.2951
vn -0.1291 0.8336 0.5371
vn 0.1291 0.8336 0.5371
vn 0.1886 0.8185 0.5427
vn 0.5191 0.7603 0.3906
vn 0.6157 -0.6152 -0.4925
vn 0.2154 -0.6884 -0.6927
vn 0.1648 -0.7096 -0.6851
vn -0.1648 -0.7096 -0.6851
vn -0.5191 0.7603 0.3906
vn -0.5462 0.7600 0.3523
vn -0.6811 0.6941 0.2332
vn -0.6922 0.6933 0.2005
vn -0.6242 0.7783 -0.0678
vn -0.6105 0.7657 0.2022
vn -0.5042 0.8634 -0.0192
vn -0.4047 0.9094 -0.0956
vn -0.6016 -0.6102 -0.5154
vn -0.6157 -0.6152 -0.4925
vn -0.1886 0.8185 0.5427
vn 0.3546 -0.9023 0.2452
vn 0.6016 -0.6102 -0.5154
vn -0.2154 -0.6884 -0.6927
vn 0.5462 0.7600 0.3523
vn 0.2294 0.1216 -0.9657
vn 0.0586 0.1081 -0.9924
vn 0.2604 0.8261 -0.4998
vn 0.1340 0.8645 -0.4845
vn 0.1356 0.8745 0.4658
vn 0.6317 0.7598 0.1539
vn 0.6748 0.6537 0.3426
vn -0.4428 -0.8737 0.2016
vn -0.6608 -0.7230 -0.2016
vn -0.6834 -0.7182 0.1308
vn -0.8432 -0.4929 -0.2146
vn 0.6922 0.6933 0.2005
vn 0.6242 0.7783 -0.0678
vn 0.4047 0.9094 -0.0956
vn 0.5042 0.8634 -0.0192
vn 0.8371 0.5464 -0.0259
vn -0.3546 -0.9023 0.2452
vn 0.6105 0.7657 0.2022
vn -0.2669 -0.6335 -0.7263
vn -0.0605 -0.5664 -0.8219
vn 0.6828 0.5857 0.4369
vn -0.8371 0.5464 -0.0259
vn -0.6748 0.6537 0.3426
vn -0.6317 0.7598 0.1539
vn 0.0605 0.5664 0.8219
vn 0.2669 0.6335 0.7263
vn -0.2604 0.8261 -0.4998
vn -0.1340 0.8645 -0.4845
vn 0.4482 0.8166 0.3637
vn -0.4482 -0.8166 -0.3637
vn -0.2294 0.1216 -0.9657
vn -0.0586 0.1081 -0.9924
vn -0.1356 0.8745 0.4658
vn 0.0656 -0.4481 -0.8916
vn 0.0605 -0.5664 -0.8219
vn 0.2669 -0.6335 -0.7263
vn 0.4482 -0.8166 -0.3637
vn -0.2927 0.4761 0.8292
vn -0.3306 0.4516 0.8287
vn -0.0656 0.4481 0.8916
vn -0.0605 0.5664 0.8219
vn -0.2669 0.6335 0.7263
vn -0.4482 0.8166 0.3637
vn 0.2927 -0.4761 -0.8292
vn 0.3306 -0.4516 -0.8287
vn -0.6828 0.5857 0.4369
vn -0.3306 -0.4516 -0.8287
vn -0.2927 -0.4761 -0.8292
vn -0.3117 -0.3394 -0.8875
vn -0.3080 -0.3405 -0.8884
vn 0.0656 0.4481 0.8916
vn 0.3306 0.4516 0.8287
vn 0.3117 0.3394 0.8875
vn 0.3080 0.3405 0.8884
vn 0.2927 0.4761 0.8292
vn -0.0656 -0.4481 -0.8916
vn 0.0823 -0.8796 -0.4685
vn 0.1222 -0.8809 -0.4572
vn 0.1178 -0.8493 0.5147
vn 0.0844 -0.8607 0.5020
vn 0.0023 -0.0247 0.9997
vn 0.1546 0.1398 0.9780
vn -0.0031 0.0276 -0.9996
vn -0.3161 0.2685 0.9099
vn -0.3080 0.3405 0.8884
vn -0.3117 0.3394 0.8875
vn 0.3080 -0.3405 -0.8884
vn 0.3117 -0.3394 -0.8875
vn 0.3161 -0.2685 -0.9099
vn 0.6667 0.6387 0.3842
vn 0.7698 0.4693 0.4325
vn 0.8661 0.4770 0.1494
vn 0.9290 0.3702 -0.0030
vn -0.8661 0.4770 0.1494
vn -0.9290 0.3702 -0.0030
vn -0.7698 0.4693 0.4325
vn -0.6667 0.6387 0.3842
vn 0.5683 0.3659 -0.7370
vn 0.5779 0.3832 -0.7205
vn 0.2091 0.3553 -0.9110
vn -0.5779 0.3832 -0.7205
vn -0.8190 0.3946 -0.4166
vn -0.8211 0.4200 -0.3866
vn 0.3161 0.2685 0.9099
vn -0.3161 -0.2685 -0.9099
vn 0.7041 0.2529 0.6636
vn 0.8211 0.4200 -0.3866
vn 0.8190 0.3946 -0.4166
vn -0.2020 0.3476 -0.9156
vn -0.2091 0.3553 -0.9110
vn -0.8264 -0.4795 -0.2951
vn 0.6811 0.6941 0.2332
vn 0.6863 0.2814 0.6707
vn 0.6507 0.0888 0.7541
vn -0.6507 0.0888 0.7541
vn -0.6863 0.2814 0.6707
vn 0.5564 0.6476 0.5206
vn 0.6420 0.4935 0.5868
vn 0.5549 0.3422 -0.7582
vn 0.2042 0.3195 -0.9253
vn 0.2020 0.3476 -0.9156
vn 0.5677 0.3683 -0.7363
vn 0.8097 0.3867 -0.4413
vn 0.8094 0.4188 -0.4117
vn 0.6605 0.4806 0.5768
vn 0.7708 0.4770 0.4222
vn 0.7160 0.3105 0.6253
vn 0.6849 0.3381 0.6455
vn 0.8174 0.3625 0.4477
vn 0.9101 0.4145 -0.0052
vn 0.9101 0.4143 -0.0054
vn 0.7930 0.3856 0.4717
vn 0.8147 0.3184 0.4846
vn 0.1877 0.3014 -0.9348
vn 0.7862 0.3434 0.5138
vn 0.9066 0.4220 -0.0052
vn 0.9058 0.4238 -0.0036
vn -0.8097 0.3867 -0.4413
vn -0.9058 0.4238 -0.0036
vn -0.8094 0.4188 -0.4117
vn -0.7862 0.3434 0.5138
vn -0.9066 0.4220 -0.0052
vn -0.5549 0.3422 -0.7582
vn -0.5677 0.3683 -0.7363
vn -0.9101 0.4145 -0.0052
vn -0.8147 0.3184 0.4846
vn -0.7930 0.3856 0.4717
vn -0.9101 0.4143 -0.0054
vn -0.1877 0.3014 -0.9348
vn -0.2042 0.3195 -0.9253
vn -0.7041 0.2529 0.6636
vn -0.6849 0.3381 0.6455
vn -0.8174 0.3625 0.4477
vn -0.7708 0.4770 0.4222
vn -0.7160 0.3105 0.6253
vn -0.6605 0.4806 0.5768
vn -0.6420 0.4935 0.5868
vn -0.5564 0.6476 0.5206
vn -0.5683 0.3659 -0.7370
vn 0.7740 0.5771 0.2604
vn 0.6281 0.6429 0.4384
vn 0.2355 0.9415 0.2412
vn 0.8234 -0.0160 0.5672
vn 0.6133 0.2414 0.7520
vn 0.2377 -0.0199 0.9711
vn 0.3229 0.9376 -0.1289
vn -0.2355 0.9415 0.2412
vn 0.9192 0.1772 -0.3518
vn 0.9019 0.4318 -0.0097
vn 0.3515 0.8771 -0.3272
vn 0.3582 0.6005 -0.7149
vn 0.3515 0.8771 -0.3273
vn -0.3515 0.8771 -0.3273
vn 0.3341 0.4266 -0.8404
vn 0.8628 0.0324 -0.5044
vn -0.2819 0.1808 -0.9422
vn -0.3341 0.4266 -0.8404
vn -0.9192 0.1772 -0.3518
vn -0.9019 0.4318 -0.0097
vn -0.7740 0.5771 0.2604
vn -0.6281 0.6429 0.4384
vn -0.8234 -0.0160 0.5672
vn -0.6133 0.2414 0.7520
vn -0.2377 -0.0199 0.9711
vn 0.7219 -0.6249 -0.2973
vn 0.8465 -0.5263 -0.0800
vn 0.1466 -0.8553 -0.4970
vn -0.1466 -0.8553 -0.4970
vn -0.7219 -0.6249 -0.2973
vn -0.8465 -0.5263 -0.0800
vn 0.2376 -0.0201 0.9712
vn -0.2376 -0.0201 0.9712
vn 0.8859 -0.1484 0.4396
vn 0.3507 -0.5476 0.7597
vn -0.3507 -0.5476 0.7597
vn 0.3339 -0.9202 0.2044
vn -0.3339 -0.9202 0.2044
vn -0.8859 -0.1484 0.4396
vn -0.7740 -0.5771 -0.2604
vn -0.8234 0.0160 -0.5672
vn -0.3229 -0.9376 0.1289
vn -0.9192 -0.1772 0.3518
vn -0.3582 -0.6005 0.7149
vn -0.7219 0.6249 0.2973
vn 0.3831 -0.6860 -0.6186
vn -0.7572 0.1242 0.6412
vn 0.7572 -0.1242 -0.6412
vn 0.3938 -0.4320 -0.8113
vn -0.2819 -0.1808 0.9422
vn 0.2819 0.1808 -0.9422
vn 0.1446 -0.2679 -0.9525
vn 0.2819 -0.1808 0.9422
vn -0.1446 -0.2679 -0.9525
vn -0.3938 -0.4320 -0.8113
vn 0.7572 0.1242 0.6412
vn -0.7572 -0.1242 -0.6412
vn -0.3831 -0.6860 -0.6186
vn 0.7219 0.6249 0.2973
vn 0.9192 -0.1772 0.3518
vn -0.3582 0.6005 -0.7149
vn 0.3582 -0.6005 0.7149
vn 0.7740 -0.5771 -0.2604
vn 0.8234 0.0160 -0.5672
vn -0.3229 0.9376 -0.1289
vn 0.3229 -0.9376 0.1289
vn -0.8628 0.0324 -0.5044
vn -0.0000 -0.0000 -1.0000
vn 0.8624 -0.0000 -0.5062
vn 0.8480 -0.0000 0.5301
vn -0.0000 -0.0000 1.0000
vn 0.8835 -0.4130 -0.2211
vn 0.8682 -0.4117 0.2772
vn 0.7940 -0.5526 0.2535
vn 0.5425 -0.5950 0.5930
vn -0.3910 -0.8152 -0.4273
vn -0.0000 -0.9132 -0.4075
vn -0.8835 -0.4130 -0.2211
vn -0.8682 -0.4117 0.2772
vn -0.7940 -0.5526 0.2535
vn -0.5425 -0.5950 0.5930
vn 0.3910 -0.8152 -0.4273
vn -0.5370 -0.3906 0.7477
vn 0.0330 -0.4732 0.8803
vn 0.0299 -0.6023 0.7977
vn 0.5351 -0.5863 0.6082
vn -0.5605 -0.4874 0.6696
vn -0.5531 -0.5076 0.6607
vn 0.0048 -0.6147 0.7887
vn -0.0025 -0.9139 -0.4059
vn -0.3810 -0.8957 -0.2294
vn -0.3109 -0.8781 -0.3637
vn 0.0024 -0.9139 -0.4059
vn -0.0048 -0.6147 0.7887
vn 0.5370 -0.3906 0.7477
vn -0.0330 -0.4732 0.8803
vn -0.0299 -0.6023 0.7977
vn -0.5351 -0.5863 0.6082
vn 0.3109 -0.8781 -0.3637
vn -0.5573 -0.5141 0.6520
vn -0.8966 -0.4429 -0.0053
vn -0.4872 -0.8184 -0.3046
vn -0.7282 -0.6356 -0.2563
vn 0.7967 -0.5354 0.2804
vn 0.6584 -0.6542 0.3722
vn 0.6965 -0.3477 0.6276
vn -0.0000 -0.4896 0.8719
vn 0.9379 -0.2164 0.2710
vn 0.7282 -0.6356 -0.2563
vn -0.7967 -0.5354 0.2804
vn -0.6584 -0.6542 0.3722
vn -0.6965 -0.3477 0.6276
vn -0.8672 -0.4979 0.0051
vn 0.8966 -0.4429 -0.0053
vn 0.5573 -0.5141 0.6520
vn -0.7228 -0.3954 0.5668
vn -0.7426 -0.5086 0.4358
vn -0.8705 -0.0000 -0.4921
vn -0.8567 -0.0000 0.5158
vn 0.7228 -0.3954 0.5668
vn 0.7426 -0.5086 0.4358
vn 0.5605 -0.4874 0.6696
vn 0.5531 -0.5076 0.6607
vn 0.5760 -0.4894 0.6547
vn 0.8595 -0.4375 0.2643
vn -0.0172 -0.6615 -0.7498
vn 0.0196 -0.5214 0.8531
vn -0.0196 -0.5214 0.8531
vn 0.0172 -0.6615 -0.7498
vn -0.8595 -0.4375 0.2643
vn -0.5760 -0.4894 0.6547
vn -0.9644 -0.2637 -0.0176
vn 0.8672 -0.4979 0.0051
vn 0.3810 -0.8957 -0.2294
vn -0.9379 -0.2164 0.2710
vn 0.4872 -0.8184 -0.3046
vn 0.9644 -0.2637 -0.0176
vn 0.0029 -0.5019 0.8649
vn 0.5784 -0.4972 0.6468
vn -0.9043 -0.4265 -0.0165
vn -0.6270 -0.5364 -0.5649
vn -0.6194 -0.5184 -0.5895
vn 0.0143 -0.6456 -0.7635
vn 0.6294 -0.5674 -0.5309
vn 0.6403 -0.5813 -0.5021
vn 0.8070 -0.5550 -0.2020
vn 0.8157 -0.5283 -0.2357
vn -0.0143 -0.6456 -0.7635
vn -0.6403 -0.5813 -0.5021
vn -0.6294 -0.5674 -0.5309
vn 0.6194 -0.5184 -0.5895
vn 0.6270 -0.5364 -0.5649
vn 0.9043 -0.4265 -0.0165
vn -0.8157 -0.5283 -0.2357
vn -0.8070 -0.5550 -0.2020
vn -0.0029 -0.5019 0.8649
vn -0.5784 -0.4972 0.6468
vn 0.9383 -0.3375 -0.0748
vn 0.8891 -0.4552 0.0484
vn 0.9895 -0.1130 0.0906
vn 0.5609 -0.2771 0.7801
vn 0.5529 -0.3223 0.7684
vn -0.0000 -0.3634 0.9316
vn -0.6964 -0.4123 -0.5874
vn -0.6944 -0.4080 -0.5928
vn -0.7188 -0.3358 -0.6087
vn 0.0096 -0.2776 -0.9606
vn -0.8947 -0.3799 -0.2350
vn -0.9036 -0.3631 -0.2273
vn -0.8928 -0.3717 0.2543
vn -0.8831 -0.4001 0.2452
vn -0.8624 -0.0000 -0.5062
vn 0.8705 -0.0000 -0.4921
vn 0.8567 -0.0000 0.5158
vn -0.0168 -0.4399 -0.8979
vn 0.0093 -0.4197 -0.9076
vn -0.5939 -0.4515 0.6659
vn -0.6203 -0.3629 0.6954
vn -0.7152 -0.3416 -0.6098
vn -0.9223 -0.3136 -0.2257
vn -0.9038 -0.3418 0.2575
vn -0.6159 -0.3674 0.6969
vn -0.8480 -0.0000 0.5301
vn 0.6427 -0.4613 -0.6117
vn 0.6196 -0.3368 -0.7090
vn -0.5920 -0.4597 0.6620
vn -0.0031 -0.3691 0.9294
vn -0.0000 -0.3465 0.9380
vn 0.5596 -0.2825 0.7791
vn -0.9264 -0.3061 -0.2191
vn -0.9214 -0.3130 0.2305
vn 0.6321 -0.5588 0.5368
vn 0.8033 -0.5819 0.1267
vn 0.7618 -0.6425 0.0832
vn 0.7650 -0.6372 -0.0929
vn 0.8207 -0.5594 -0.1167
vn 0.7035 -0.5530 -0.4464
vn 0.7224 -0.4585 -0.5177
vn 0.0913 -0.4658 -0.8801
vn 0.0677 -0.4177 -0.9061
vn -0.1760 -0.3846 -0.9062
vn 0.6372 -0.6695 0.3817
vn 0.6321 -0.6915 0.3498
vn 0.2874 -0.8394 0.4613
vn 0.3027 -0.9432 0.1372
vn -0.5529 -0.3223 0.7684
vn 0.5686 0.7988 -0.1963
vn 0.8604 0.5030 -0.0818
vn 0.8555 0.5133 0.0682
vn 0.1983 0.9423 0.2699
vn -0.0096 -0.2776 -0.9606
vn 0.7188 -0.3358 -0.6087
vn -0.6372 -0.6695 0.3817
vn -0.2675 -0.8072 0.5262
vn 0.6159 -0.3674 0.6969
vn 0.9038 -0.3418 0.2575
vn 0.9223 -0.3136 -0.2257
vn 0.7152 -0.3416 -0.6098
vn 0.2675 -0.8072 0.5262
vn 0.2910 -0.8422 0.4538
vn 0.2738 -0.9618 -0.0074
vn 0.6203 -0.3629 0.6954
vn 0.9214 -0.3130 0.2305
vn 0.9264 -0.3061 -0.2191
vn -0.6321 -0.6915 0.3498
vn -0.2874 -0.8394 0.4613
vn -0.2910 -0.8422 0.4538
vn -0.3027 -0.9432 0.1372
vn -0.5686 0.7988 -0.1963
vn 0.3921 0.1462 0.9083
vn 0.3847 0.7535 0.5331
vn 0.2793 0.6670 0.6907
vn 0.1847 0.9106 0.3698
vn -0.2738 -0.9618 -0.0074
vn 0.1760 -0.3845 -0.9062
vn -0.0677 -0.4177 -0.9061
vn -0.0913 -0.4658 -0.8801
vn -0.3847 0.7535 0.5331
vn -0.2793 0.6670 0.6907
vn -0.1847 0.9106 0.3698
vn -0.3921 0.1462 0.9083
vn -0.1825 0.5343 0.8254
vn -0.1306 0.2735 0.9530
vn -0.1983 0.9423 0.2699
vn -0.8555 0.5133 0.0682
vn -0.8604 0.5030 -0.0818
vn -0.7224 -0.4585 -0.5177
vn -0.7035 -0.5530 -0.4464
vn -0.8207 -0.5594 -0.1167
vn -0.7650 -0.6372 -0.0929
vn -0.7618 -0.6425 0.0832
vn -0.8033 -0.5819 0.1267
vn 0.1825 0.5343 0.8254
vn 0.1306 0.2735 0.9530
vn -0.6321 -0.5588 0.5368
vn 0.8928 -0.3717 0.2543
vn 0.9036 -0.3631 -0.2273
vn 0.8947 -0.3799 -0.2350
vn 0.6964 -0.4122 -0.5874
vn -0.9895 -0.1130 0.0906
vn -0.8891 -0.4552 0.0484
vn -0.9383 -0.3375 -0.0748
vn 0.5939 -0.4515 0.6659
vn 0.5920 -0.4597 0.6620
vn 0.8831 -0.4001 0.2452
vn -0.5609 -0.2771 0.7801
vn -0.5596 -0.2825 0.7791
vn 0.0031 -0.3691 0.9294
vn -0.6427 -0.4613 -0.6117
vn -0.6196 -0.3368 -0.7090
vn -0.0093 -0.4197 -0.9076
vn 0.0168 -0.4399 -0.8979
vn 0.6944 -0.4080 -0.5928
vt 0.794687 0.209375
vt 0.827167 0.160848
vt 0.795242 0.157668
vt 0.826879 0.209375
vt 0.940212 0.133965
vt 0.947688 0.209375
vt 0.986611 0.207677
vt 0.940195 0.133969
vt 0.420378 0.976256
vt 0.589005 0.952793
vt 0.498912 0.842222
vt 0.605485 0.836467
vt 0.594812 0.753873
vt 0.700584 0.726444
vt 0.592813 0.660085
vt 0.753836 0.610331
vt 0.147146 0.547200
vt 0.035257 0.640426
vt 0.144033 0.652400
vt 0.080482 0.698926
vt 0.148938 0.764840
vt 0.022115 0.755392
vt 0.022021 0.855746
vt 0.826873 0.209375
vt 0.972125 0.940911
vt 0.975904 0.822180
vt 0.851538 0.941653
vt 0.838755 0.823152
vt 0.727885 0.946985
vt 0.712689 0.825370
vt 0.838161 0.725647
vt 0.849513 0.623423
vt 0.880398 0.494632
vt 0.963320 0.623423
vt 0.973172 0.721240
vt 0.260601 0.702134
vt 0.356183 0.669912
vt 0.248056 0.630620
vt 0.269537 0.779025
vt 0.153748 0.855738
vt 0.183657 0.574287
vt 0.970912 0.975282
vt 0.960350 0.492953
vt 0.877975 0.361974
vt 0.497644 0.767145
vt 0.487935 0.686146
vt 0.370088 0.782510
vt 0.371059 0.857292
vt 0.284027 0.971977
vt 0.262882 0.857025
vt 0.155539 0.975265
vt 0.032589 0.975388
vt 0.262896 0.857025
vt 0.371055 0.857292
vt 0.977973 0.014536
vt 0.917615 0.014536
vt 0.917616 0.045580
vt 0.957509 0.356958
vt 0.948437 0.232309
vt 0.054441 0.525533
vt 0.845017 0.238433
vt 0.440976 0.471295
vt 0.474118 0.462585
vt 0.462090 0.521409
vt 0.499160 0.513225
vt 0.447481 0.398759
vt 0.424612 0.410407
vt 0.519467 0.546078
vt 0.477428 0.585000
vt 0.536168 0.574223
vt 0.590837 0.529768
vt 0.602193 0.564153
vt 0.652985 0.498055
vt 0.669539 0.529495
vt 0.692566 0.460654
vt 0.733212 0.352887
vt 0.757396 0.425027
vt 0.719578 0.408022
vt 0.719285 0.483383
vt 0.563700 0.642838
vt 0.480542 0.622236
vt 0.487342 0.663810
vt 0.829116 0.454536
vt 0.775479 0.357109
vt 0.852921 0.372313
vt 0.774718 0.527017
vt 0.628586 0.618263
vt 0.701092 0.575779
vt 0.467353 0.734053
vt 0.529490 0.647748
vt 0.525189 0.607716
vt 0.063707 0.848751
vt 0.149278 0.731954
vt 0.060987 0.748950
vt 0.120476 0.720839
vt 0.112484 0.859255
vt 0.037939 0.842312
vt 0.442654 0.291457
vt 0.481940 0.325827
vt 0.554603 0.255551
vt 0.474417 0.387505
vt 0.385511 0.426184
vt 0.617996 0.646817
vt 0.697372 0.634382
vt 0.692399 0.593916
vt 0.480557 0.454611
vt 0.439246 0.542577
vt 0.574579 0.511883
vt 0.226886 0.882357
vt 0.256746 0.777161
vt 0.105003 0.973491
vt 0.031837 0.973952
vt 0.362653 0.896760
vt 0.376150 0.832744
vt 0.300973 0.481054
vt 0.383159 0.578377
vt 0.335542 0.337301
vt 0.237898 0.400503
vt 0.037890 0.842336
vt 0.376496 0.749224
vt 0.424531 0.666167
vt 0.358378 0.707452
vt 0.222502 0.978468
vt 0.366511 0.975100
vt 0.612453 0.592688
vt 0.270787 0.561339
vt 0.216412 0.722665
vt 0.283133 0.626260
vt 0.151964 0.640839
vt 0.190148 0.485906
vt 0.096427 0.560877
vt 0.055672 0.472247
vt 0.964283 0.719233
vt 0.883993 0.784241
vt 0.894896 0.805042
vt 0.989655 0.763372
vt 0.991928 0.813718
vt 0.169275 0.409008
vt 0.040634 0.393909
vt 0.057006 0.315009
vt 0.177635 0.355546
vt 0.887259 0.846770
vt 0.976077 0.873277
vt 0.949247 0.928626
vt 0.864231 0.878553
vt 0.915071 0.984863
vt 0.867010 0.928499
vt 0.838034 0.897109
vt 0.324516 0.572789
vt 0.496614 0.438356
vt 0.563971 0.469739
vt 0.642915 0.426406
vt 0.699051 0.509335
vt 0.671183 0.366562
vt 0.645380 0.307528
vt 0.780641 0.547202
vt 0.821227 0.563480
vt 0.814174 0.480165
vt 0.831534 0.557600
vt 0.839727 0.459944
vt 0.975119 0.496349
vt 0.951131 0.475215
vt 0.990409 0.687314
vt 0.879604 0.493195
vt 0.934582 0.695279
vt 0.783208 0.469987
vt 0.848850 0.621526
vt 0.969528 0.340994
vt 0.866068 0.394526
vt 0.915009 0.299622
vt 0.825219 0.632008
vt 0.786496 0.586541
vt 0.878501 0.694898
vt 0.870063 0.698474
vt 0.982139 0.168182
vt 0.962780 0.153841
vt 0.521343 0.548405
vt 0.609683 0.548506
vt 0.689604 0.536207
vt 0.794615 0.655093
vt 0.989256 0.064523
vt 0.896047 0.738854
vt 0.754392 0.383051
vt 0.684966 0.258454
vt 0.278927 0.225249
vt 0.405260 0.168669
vt 0.538209 0.132648
vt 0.804784 0.155394
vt 0.918346 0.189647
vt 0.946298 0.119113
vt 0.161970 0.301447
vt 0.816726 0.010546
vt 0.972708 0.022808
vt 0.817566 0.405179
vt 0.865876 0.308882
vt 0.365556 0.040428
vt 0.212305 0.086376
vt 0.524887 0.021176
vt 0.786419 0.281109
vt 0.691217 0.130247
vt 0.067891 0.176081
vt 0.686697 0.010559
vt 0.561294 0.656952
vt 0.457230 0.646421
vt 0.491919 0.725869
vt 0.543545 0.607079
vt 0.587590 0.577563
vt 0.369025 0.678667
vt 0.389559 0.578903
vt 0.438218 0.559629
vt 0.434506 0.507398
vt 0.628171 0.606557
vt 0.649401 0.697760
vt 0.886256 0.652318
vt 0.875971 0.541642
vt 0.787183 0.613618
vt 0.949627 0.637292
vt 0.974106 0.709974
vt 0.914879 0.737317
vt 0.822885 0.723238
vt 0.404802 0.760986
vt 0.361065 0.853313
vt 0.488003 0.785285
vt 0.472976 0.885998
vt 0.617221 0.877615
vt 0.445568 0.673191
vt 0.623678 0.696336
vt 0.595243 0.779052
vt 0.685662 0.744061
vt 0.973269 0.169279
vt 0.910577 0.225160
vt 0.852617 0.127856
vt 0.617222 0.877615
vt 0.479714 0.600090
vt 0.385178 0.494676
vt 0.950863 0.457454
vt 0.940825 0.542651
vt 0.887718 0.442009
vt 0.976081 0.385079
vt 0.917211 0.357372
vt 0.738842 0.830548
vt 0.752366 0.688804
vt 0.828565 0.756224
vt 0.446458 0.389843
vt 0.393816 0.428678
vt 0.445871 0.449048
vt 0.979844 0.088028
vt 0.563072 0.684609
vt 0.913992 0.021812
vt 0.826930 0.017222
vt 0.555488 0.230382
vt 0.556929 0.265314
vt 0.581469 0.239946
vt 0.585605 0.278826
vt 0.610806 0.228935
vt 0.615878 0.264337
vt 0.630589 0.186999
vt 0.654810 0.226667
vt 0.639783 0.148189
vt 0.658078 0.183578
vt 0.614744 0.365165
vt 0.670473 0.358243
vt 0.661454 0.342484
vt 0.697871 0.312154
vt 0.660616 0.285108
vt 0.686222 0.258224
vt 0.739806 0.244115
vt 0.763775 0.254322
vt 0.778796 0.198496
vt 0.725193 0.279167
vt 0.747420 0.190988
vt 0.700320 0.224699
vt 0.658469 0.142920
vt 0.706648 0.188221
vt 0.696967 0.136451
vt 0.635120 0.307565
vt 0.530755 0.246383
vt 0.525919 0.292112
vt 0.551674 0.319592
vt 0.602900 0.323982
vt 0.580683 0.329700
vt 0.718837 0.329236
vt 0.537156 0.363746
vt 0.731745 0.114190
vt 0.748784 0.292503
vt 0.496068 0.319826
vt 0.526339 0.291730
vt 0.572676 0.375020
vt 0.774827 0.143934
vt 0.763188 0.093836
vt 0.817244 0.184064
vt 0.802922 0.262016
vt 0.827208 0.268307
vt 0.783593 0.310136
vt 0.620382 0.445932
vt 0.567174 0.431612
vt 0.565171 0.464780
vt 0.520972 0.420610
vt 0.689997 0.405395
vt 0.747943 0.357944
vt 0.830344 0.335521
vt 0.639500 0.521633
vt 0.813825 0.423594
vt 0.470401 0.347103
vt 0.745423 0.505003
vt 0.851266 0.452807
vt 0.771594 0.547371
vt 0.745427 0.505002
vt 0.648180 0.568174
vt 0.550267 0.539780
vt 0.467417 0.487050
vt 0.490301 0.409613
vt 0.868970 0.342314
vt 0.896731 0.355374
vt 0.858480 0.221424
vt 0.823725 0.112753
vt 0.765389 0.043155
vt 0.689994 0.405392
vt 0.490018 0.574589
vt 0.462383 0.516275
vt 0.559164 0.558450
s 0
usemtl texture004_texture004.png
f 1/1/1 2/2/1 3/3/1
f 4/1/2 3/3/2 2/2/2
f 3/3/3 4/1/3 5/2/3
f 6/4/4 5/2/4 4/1/4
f 5/2/5 6/4/5 7/5/5
f 8/6/6 7/5/6 6/4/6
f 7/5/7 8/6/7 9/7/7
f 10/8/8 9/7/8 8/6/8
f 11/9/9 12/10/9 13/11/9
f 14/12/10 13/11/10 12/10/10
f 13/11/11 14/12/11 15/13/11
f 16/14/12 15/13/12 14/12/12
f 15/13/13 16/14/13 17/15/13
f 18/16/14 17/15/14 16/14/14
f 21/14/15 20/15/15 19/16/15
f 20/15/16 21/14/16 22/13/16
f 23/12/17 22/13/17 21/14/17
f 22/13/18 23/12/18 24/11/18
f 25/10/19 24/11/19 23/12/19
f 24/11/20 25/10/20 26/9/20
f 27/17/21 28/18/21 29/19/21
f 30/20/22 29/19/22 28/18/22
f 29/19/23 30/20/23 31/21/23
f 32/22/24 31/21/24 30/20/24
f 31/21/25 32/22/25 33/23/25
f 34/21/26 33/23/26 32/22/26
f 1/1/27 36/2/27 35/24/27
f 36/2/28 1/1/28 37/3/28
f 37/3/29 1/1/29 38/2/29
f 37/3/30 38/2/30 4/1/30
f 6/4/31 4/1/31 38/2/31
f 39/25/32 40/26/32 41/27/32
f 42/28/33 41/27/33 40/26/33
f 41/27/34 42/28/34 43/29/34
f 44/30/35 43/29/35 42/28/35
f 12/10/36 43/29/36 14/12/36
f 44/30/37 14/12/37 43/29/37
f 14/12/38 44/30/38 16/14/38
f 45/31/39 16/14/39 44/30/39
f 47/32/40 46/33/40 18/16/40
f 46/33/41 47/32/41 48/34/41
f 49/35/42 48/34/42 47/32/42
f 48/34/43 49/35/43 50/32/43
f 53/36/44 52/37/44 51/38/44
f 52/37/45 53/36/45 54/39/45
f 31/21/46 54/39/46 53/36/46
f 54/39/47 31/21/47 55/40/47
f 56/38/48 57/37/48 58/36/48
f 59/39/49 58/36/49 57/37/49
f 58/36/50 59/39/50 34/21/50
f 60/40/51 34/21/51 59/39/51
f 23/12/52 61/29/52 25/10/52
f 61/29/53 23/12/53 62/30/53
f 21/14/54 62/30/54 23/12/54
f 62/30/55 21/14/55 63/31/55
f 65/4/56 64/6/56 36/2/56
f 64/6/57 65/4/57 66/5/57
f 2/2/58 66/5/58 65/4/58
f 66/5/59 2/2/59 67/6/59
f 66/5/60 68/7/60 64/6/60
f 69/8/61 64/6/61 68/7/61
f 64/6/62 69/8/62 36/2/62
f 38/2/63 1/1/63 70/24/63
f 38/2/64 70/24/64 10/8/64
f 71/6/65 10/8/65 70/24/65
f 73/19/66 72/41/66 56/38/66
f 72/41/67 73/19/67 74/17/67
f 28/18/68 74/17/68 73/19/68
f 75/28/69 40/26/69 76/27/69
f 39/25/70 76/27/70 40/26/70
f 76/27/71 39/25/71 77/42/71
f 46/33/72 48/34/72 78/43/72
f 79/33/73 78/43/73 48/34/73
f 78/43/74 79/33/74 80/44/74
f 13/11/75 15/13/75 81/45/75
f 82/46/76 81/45/76 15/13/76
f 81/45/77 82/46/77 83/47/77
f 84/47/78 85/46/78 86/45/78
f 22/13/79 86/45/79 85/46/79
f 86/45/80 22/13/80 24/11/80
f 50/32/81 79/33/81 48/34/81
f 79/33/82 50/32/82 19/16/82
f 63/31/83 19/16/83 50/32/83
f 36/2/84 69/8/84 35/24/84
f 67/6/85 35/24/85 69/8/85
f 5/2/86 1/1/86 3/3/86
f 70/24/87 1/1/87 5/2/87
f 11/9/88 87/48/88 88/49/88
f 89/50/89 88/49/89 87/48/89
f 11/9/90 13/11/90 87/48/90
f 83/47/91 87/48/91 13/11/91
f 88/49/92 89/50/92 90/51/92
f 55/40/93 90/51/93 89/50/93
f 90/51/94 55/40/94 91/52/94
f 33/23/95 91/52/95 55/40/95
f 53/36/96 51/38/96 29/19/96
f 92/41/97 29/19/97 51/38/97
f 56/38/98 58/36/98 73/19/98
f 34/21/99 73/19/99 58/36/99
f 32/22/100 93/20/100 34/21/100
f 73/19/101 34/21/101 93/20/101
f 94/49/102 95/51/102 96/53/102
f 60/40/103 96/53/103 95/51/103
f 26/9/104 97/54/104 24/11/104
f 84/47/105 24/11/105 97/54/105
f 62/30/106 75/28/106 61/29/106
f 76/27/107 61/29/107 75/28/107
f 98/55/108 99/56/108 100/57/108
f 42/28/109 40/26/109 49/35/109
f 75/28/110 49/35/110 40/26/110
f 101/44/111 78/43/111 102/58/111
f 80/44/112 102/58/112 78/43/112
f 82/46/113 52/37/113 83/47/113
f 54/39/114 83/47/114 52/37/114
f 101/44/115 102/58/115 103/59/115
f 80/44/116 103/59/116 102/58/116
f 27/17/117 104/60/117 28/18/117
f 74/17/118 28/18/118 104/60/118
f 85/46/119 84/47/119 57/37/119
f 59/39/120 57/37/120 84/47/120
f 107/55/121 106/57/121 105/56/121
f 2/2/122 65/4/122 4/1/122
f 4/1/123 65/4/123 36/2/123
f 1/1/124 35/24/124 2/2/124
f 4/1/125 36/2/125 37/3/125
f 41/27/126 77/42/126 39/25/126
f 53/36/127 29/19/127 31/21/127
f 92/41/128 27/17/128 29/19/128
f 93/20/129 28/18/129 73/19/129
f 94/49/130 96/53/130 97/54/130
f 91/52/131 33/23/131 60/40/131
f 91/52/132 60/40/132 95/51/132
f 94/49/133 97/54/133 26/9/133
f 67/6/134 2/2/134 35/24/134
f 38/2/135 8/6/135 6/4/135
f 8/6/136 38/2/136 10/8/136
f 5/2/137 71/6/137 70/24/137
f 71/6/138 5/2/138 7/5/138
f 45/31/139 44/30/139 42/28/139
f 42/28/140 49/35/140 45/31/140
f 45/31/141 18/16/141 16/14/141
f 18/16/142 45/31/142 47/32/142
f 49/35/143 47/32/143 45/31/143
f 83/47/144 13/11/144 81/45/144
f 82/46/145 15/13/145 17/15/145
f 78/43/146 101/44/146 46/33/146
f 54/39/147 87/48/147 83/47/147
f 87/48/148 54/39/148 89/50/148
f 54/39/149 55/40/149 89/50/149
f 31/21/150 33/23/150 55/40/150
f 101/44/151 103/59/151 108/61/151
f 33/23/152 34/21/152 60/40/152
f 103/59/153 80/44/153 109/61/153
f 60/40/154 59/39/154 96/53/154
f 59/39/155 97/54/155 96/53/155
f 97/54/156 59/39/156 84/47/156
f 24/11/157 84/47/157 86/45/157
f 22/13/158 85/46/158 20/15/158
f 19/16/159 63/31/159 21/14/159
f 62/30/160 63/31/160 75/28/160
f 50/32/161 49/35/161 63/31/161
f 49/35/162 75/28/162 63/31/162
f 110/62/163 111/63/163 112/64/163
f 113/65/164 112/64/164 111/63/164
f 111/63/165 110/62/165 114/66/165
f 115/67/166 114/66/166 110/62/166
f 116/62/167 117/64/167 118/63/167
f 119/65/168 118/63/168 117/64/168
f 120/66/169 121/67/169 116/62/169
f 120/66/170 116/62/170 118/63/170
f 122/68/171 123/69/171 113/65/171
f 123/69/172 122/68/172 124/70/172
f 124/70/173 122/68/173 125/71/173
f 126/72/174 125/71/174 127/73/174
f 126/72/175 127/73/175 128/74/175
f 128/74/176 127/73/176 129/75/176
f 130/76/177 131/77/177 132/78/177
f 133/79/178 132/78/178 131/77/178
f 132/78/179 133/79/179 129/75/179
f 134/75/180 135/79/180 136/78/180
f 137/77/181 136/78/181 135/79/181
f 130/76/182 136/78/182 137/77/182
f 138/71/183 139/72/183 140/73/183
f 141/74/184 140/73/184 139/72/184
f 134/75/185 140/73/185 141/74/185
f 142/70/186 143/68/186 144/69/186
f 119/65/187 144/69/187 143/68/187
f 138/71/188 143/68/188 142/70/188
f 124/70/189 145/80/189 146/81/189
f 147/82/190 146/81/190 145/80/190
f 142/70/191 148/81/191 149/80/191
f 150/82/192 149/80/192 148/81/192
f 123/69/193 112/64/193 113/65/193
f 124/70/194 146/81/194 123/69/194
f 124/70/195 125/71/195 126/72/195
f 145/80/196 124/70/196 126/72/196
f 151/83/197 131/77/197 152/84/197
f 152/84/198 153/85/198 151/83/198
f 131/77/199 151/83/199 154/86/199
f 126/72/200 155/87/200 145/80/200
f 154/86/201 133/79/201 131/77/201
f 133/79/202 154/86/202 156/88/202
f 155/87/203 126/72/203 128/74/203
f 128/74/204 156/88/204 155/87/204
f 156/88/205 128/74/205 133/79/205
f 128/74/206 129/75/206 133/79/206
f 131/77/207 130/76/207 152/84/207
f 135/79/208 134/75/208 141/74/208
f 152/84/209 130/76/209 137/77/209
f 137/77/210 135/79/210 157/86/210
f 135/79/211 141/74/211 158/88/211
f 158/88/212 157/86/212 135/79/212
f 157/86/213 159/83/213 137/77/213
f 152/84/214 137/77/214 159/83/214
f 141/74/215 139/72/215 160/87/215
f 160/87/216 158/88/216 141/74/216
f 149/80/217 160/87/217 139/72/217
f 139/72/218 142/70/218 149/80/218
f 139/72/219 138/71/219 142/70/219
f 159/83/220 153/85/220 152/84/220
f 144/69/221 148/81/221 142/70/221
f 119/65/222 117/64/222 144/69/222
usemtl texture000_texture000.png
f 163/89/223 161/90/223 162/91/223
f 165/92/224 166/93/224 167/94/224
f 168/95/225 167/94/225 166/93/225
f 167/94/226 168/95/226 169/93/226
f 170/94/227 169/93/227 168/95/227
f 169/93/228 170/94/228 171/96/228
f 170/94/229 174/92/229 173/97/229
f 174/92/230 170/94/230 166/93/230
f 168/95/231 166/93/231 170/94/231
f 177/98/232 176/99/232 175/100/232
f 176/99/233 177/98/233 178/101/233
f 179/102/234 178/101/234 177/98/234
f 182/103/235 164/104/235 181/105/235
f 183/100/236 184/99/236 185/98/236
f 186/101/237 185/98/237 184/99/237
f 185/98/238 186/101/238 187/102/238
f 188/106/239 187/102/239 186/101/239
f 187/102/240 188/106/240 189/107/240
f 190/108/241 189/107/241 188/106/241
f 171/96/242 192/109/242 191/110/242
f 192/109/243 171/96/243 193/111/243
f 194/112/244 193/111/244 171/96/244
f 171/96/245 191/110/245 169/93/245
f 195/96/246 169/93/246 191/110/246
f 169/93/247 195/96/247 167/94/247
f 195/96/248 197/111/248 196/112/248
f 197/111/249 195/96/249 198/109/249
f 191/110/250 198/109/250 195/96/250
f 199/107/251 200/106/251 179/102/251
f 178/101/252 179/102/252 200/106/252
f 201/113/253 202/114/253 191/110/253
f 203/113/254 191/110/254 202/114/254
f 194/112/255 171/96/255 173/97/255
f 170/94/256 173/97/256 171/96/256
f 199/107/257 204/115/257 205/116/257
f 189/107/258 205/116/258 204/115/258
f 199/107/259 179/102/259 204/115/259
f 206/117/260 204/115/260 179/102/260
f 206/117/261 207/118/261 204/115/261
f 208/117/262 204/115/262 207/118/262
f 196/112/263 209/119/263 195/96/263
f 167/94/264 195/96/264 209/119/264
f 208/117/265 187/102/265 204/115/265
f 189/107/266 204/115/266 187/102/266
f 200/106/267 199/107/267 210/108/267
f 173/97/268 174/92/268 194/112/268
f 172/120/269 163/89/269 211/121/269
f 172/120/270 211/121/270 212/122/270
f 196/112/271 165/92/271 209/119/271
f 209/119/272 165/92/272 167/94/272
f 201/113/273 213/123/273 214/124/273
f 213/123/274 201/113/274 192/109/274
f 201/113/275 191/110/275 192/109/275
f 192/109/276 193/111/276 213/123/276
f 179/102/277 177/98/277 206/117/277
f 162/91/278 182/103/278 215/125/278
f 182/103/279 162/91/279 161/90/279
f 182/103/280 181/105/280 215/125/280
f 185/98/281 187/102/281 208/117/281
f 203/113/282 216/123/282 198/109/282
f 216/123/283 203/113/283 217/124/283
f 197/111/284 198/109/284 216/123/284
f 191/110/285 203/113/285 198/109/285
f 220/91/286 218/90/286 219/89/286
f 223/126/287 222/127/287 221/128/287
f 222/127/288 223/126/288 224/129/288
f 225/130/289 224/129/289 223/126/289
f 224/129/290 225/130/290 226/131/290
f 227/132/291 226/131/291 225/130/291
f 230/133/292 229/134/292 228/135/292
f 229/134/293 230/133/293 231/135/293
f 232/136/294 231/135/294 230/133/294
f 231/135/295 232/136/295 233/137/295
f 235/138/296 234/139/296 227/132/296
f 234/139/297 235/138/297 236/140/297
f 237/141/298 236/140/298 235/138/298
f 236/140/299 237/141/299 238/138/299
f 239/136/300 228/135/300 240/137/300
f 241/142/301 240/137/301 228/135/301
f 240/137/302 241/142/302 242/143/302
f 242/143/303 241/142/303 243/144/303
f 244/145/304 243/144/304 241/142/304
f 243/144/305 244/145/305 245/146/305
f 245/146/306 244/145/306 246/147/306
f 247/148/307 246/147/307 244/145/307
f 248/130/308 249/132/308 238/138/308
f 250/139/309 238/138/309 249/132/309
f 228/135/310 239/136/310 230/133/310
f 223/126/311 221/128/311 251/149/311
f 225/130/312 235/138/312 227/132/312
f 238/138/313 250/139/313 236/140/313
f 233/137/314 252/142/314 231/135/314
f 176/99/315 178/101/315 253/150/315
f 200/106/316 253/150/316 178/101/316
f 253/150/317 200/106/317 254/151/317
f 210/108/318 254/151/318 200/106/318
f 254/151/319 210/108/319 255/152/319
f 256/153/320 255/152/320 210/108/320
f 255/152/321 256/153/321 257/154/321
f 258/128/322 259/127/322 260/126/322
f 261/129/323 260/126/323 259/127/323
f 260/126/324 261/129/324 248/130/324
f 262/131/325 248/130/325 261/129/325
f 263/143/326 264/144/326 252/142/326
f 265/145/327 252/142/327 264/144/327
f 266/148/328 265/145/328 267/147/328
f 268/146/329 267/147/329 265/145/329
f 255/152/330 257/154/330 269/155/330
f 270/149/331 258/128/331 260/126/331
f 264/144/332 268/146/332 265/145/332
f 271/156/333 272/157/333 273/158/333
f 274/159/334 273/158/334 272/157/334
f 273/158/335 274/159/335 275/160/335
f 276/155/336 277/154/336 278/152/336
f 279/153/337 278/152/337 277/154/337
f 278/152/338 279/153/338 190/108/338
f 280/161/339 281/162/339 282/163/339
f 283/164/340 282/163/340 281/162/340
f 284/150/341 285/151/341 188/106/341
f 190/108/342 188/106/342 285/151/342
f 283/164/343 286/165/343 282/163/343
f 273/158/344 287/166/344 271/156/344
f 284/150/345 186/101/345 184/99/345
f 186/101/346 284/150/346 188/106/346
f 190/108/347 285/151/347 278/152/347
f 290/157/348 289/159/348 288/167/348
f 289/159/349 290/157/349 291/158/349
f 292/156/350 291/158/350 290/157/350
f 291/158/351 292/156/351 293/166/351
f 296/168/352 295/169/352 294/170/352
f 295/169/353 296/168/353 297/162/353
f 298/161/354 297/162/354 296/168/354
f 297/162/355 298/161/355 299/163/355
f 297/162/356 299/163/356 300/164/356
f 301/165/357 300/164/357 299/163/357
f 288/167/358 302/171/358 303/172/358
f 288/167/359 303/172/359 290/157/359
f 289/159/360 291/158/360 304/160/360
f 272/157/361 305/172/361 306/167/361
f 307/171/362 306/167/362 305/172/362
f 306/167/363 307/171/363 308/173/363
f 309/174/364 308/173/364 307/171/364
f 280/161/365 310/168/365 281/162/365
f 311/169/366 281/162/366 310/168/366
f 310/168/367 312/175/367 313/170/367
f 314/176/368 313/170/368 312/175/368
f 310/168/369 313/170/369 311/169/369
f 306/167/370 274/159/370 272/157/370
f 315/177/371 162/91/371 316/178/371
f 215/125/372 316/178/372 162/91/372
f 316/178/373 215/125/373 317/179/373
f 181/105/374 317/179/374 215/125/374
f 317/179/375 181/105/375 180/180/375
f 318/91/376 211/121/376 163/89/376
f 162/91/377 315/177/377 319/121/377
f 322/175/378 321/176/378 320/181/378
f 321/176/379 322/175/379 294/170/379
f 296/168/380 294/170/380 322/175/380
f 323/174/381 302/171/381 324/173/381
f 288/167/382 324/173/382 302/171/382
f 325/182/383 323/174/383 324/173/383
f 256/153/384 326/183/384 257/154/384
f 327/184/385 257/154/385 326/183/385
f 257/154/386 327/184/386 269/155/386
f 175/100/387 269/155/387 327/184/387
f 277/154/388 276/155/388 328/184/388
f 183/100/389 328/184/389 276/155/389
f 277/154/390 328/184/390 329/183/390
f 277/154/391 329/183/391 279/153/391
f 330/185/392 206/117/392 331/186/392
f 177/98/393 331/186/393 206/117/393
f 206/117/394 330/185/394 207/118/394
f 208/117/395 332/186/395 185/98/395
f 333/187/396 185/98/396 332/186/396
f 185/98/397 333/187/397 183/100/397
f 334/181/398 314/176/398 312/175/398
f 308/173/399 309/174/399 335/182/399
f 336/188/400 337/189/400 338/190/400
f 175/100/401 339/187/401 177/98/401
f 331/186/402 177/98/402 339/187/402
f 207/118/403 340/191/403 341/185/403
f 207/118/404 341/185/404 208/117/404
f 248/130/405 262/131/405 249/132/405
f 233/137/406 263/143/406 252/142/406
f 336/188/407 338/190/407 342/192/407
f 343/193/408 342/192/408 338/190/408
f 344/193/409 345/190/409 346/192/409
f 347/188/410 346/192/410 345/190/410
f 348/194/411 326/183/411 256/153/411
f 326/183/412 348/194/412 349/195/412
f 350/196/413 351/197/413 330/185/413
f 330/185/414 351/197/414 340/191/414
f 330/185/415 340/191/415 207/118/415
f 331/186/416 350/196/416 330/185/416
f 352/198/417 350/196/417 331/186/417
f 339/187/418 352/198/418 331/186/418
f 349/195/419 353/199/419 326/183/419
f 326/183/420 353/199/420 327/184/420
f 349/195/421 337/189/421 353/199/421
f 337/189/422 336/188/422 353/199/422
f 353/199/423 336/188/423 327/184/423
f 354/200/424 339/187/424 175/100/424
f 327/184/425 354/200/425 175/100/425
f 336/188/426 354/200/426 327/184/426
f 354/200/427 336/188/427 342/192/427
f 351/197/428 355/201/428 340/191/428
f 342/192/429 356/202/429 354/200/429
f 354/200/430 356/202/430 339/187/430
f 356/202/431 352/198/431 339/187/431
f 332/186/432 357/196/432 358/198/432
f 333/187/433 358/198/433 359/202/433
f 332/186/434 358/198/434 333/187/434
f 360/200/435 359/202/435 346/192/435
f 333/187/436 359/202/436 360/200/436
f 341/185/437 361/197/437 357/196/437
f 341/185/438 357/196/438 332/186/438
f 183/100/439 333/187/439 360/200/439
f 346/192/440 347/188/440 360/200/440
f 328/184/441 360/200/441 347/188/441
f 183/100/442 360/200/442 328/184/442
f 340/191/443 355/201/443 361/197/443
f 340/191/444 361/197/444 341/185/444
f 345/190/445 362/189/445 347/188/445
f 363/199/446 347/188/446 362/189/446
f 328/184/447 347/188/447 363/199/447
f 328/184/448 363/199/448 329/183/448
f 363/199/449 362/189/449 364/195/449
f 329/183/450 363/199/450 364/195/450
f 364/195/451 365/194/451 329/183/451
f 279/153/452 329/183/452 365/194/452
f 208/117/453 341/185/453 332/186/453
usemtl texture001_texture001.png
f 368/203/454 367/204/454 366/205/454
f 367/204/455 368/203/455 369/206/455
f 370/207/456 369/206/456 368/203/456
f 371/208/457 367/204/457 372/209/457
f 373/210/458 372/209/458 367/204/458
f 372/209/459 373/210/459 374/211/459
f 376/212/460 368/203/460 375/213/460
f 368/203/456 376/212/456 370/207/456
f 377/203/461 370/207/461 376/212/461
f 380/214/462 379/215/462 378/216/462
f 379/215/463 380/214/463 381/217/463
f 382/218/464 381/217/464 380/214/464
f 384/219/465 380/214/465 383/220/465
f 380/214/466 384/219/466 382/218/466
f 385/214/467 382/218/467 384/219/467
f 386/221/468 387/222/468 388/223/468
f 389/224/468 388/223/468 387/222/468
f 388/223/469 389/224/469 390/225/469
f 392/223/470 386/221/470 391/226/470
f 386/221/471 392/223/471 387/222/471
f 393/224/471 387/222/471 392/223/471
f 394/216/472 395/215/472 385/214/472
f 396/217/473 385/214/473 395/215/473
f 385/214/467 396/217/467 382/218/467
f 397/205/474 398/204/474 377/203/474
f 399/206/475 377/203/475 398/204/475
f 377/203/461 399/206/461 370/207/461
f 401/209/476 398/204/476 400/208/476
f 398/204/477 401/209/477 402/210/477
f 374/211/478 402/210/478 401/209/478
f 403/227/479 404/228/479 405/229/479
f 390/225/480 405/229/480 404/228/480
f 406/230/481 407/231/481 408/232/481
f 409/230/482 408/232/482 407/231/482
f 410/227/483 411/229/483 412/228/483
f 413/233/484 412/228/484 411/229/484
f 373/210/458 367/204/458 414/234/458
f 369/206/455 414/234/455 367/204/455
f 372/209/485 374/211/485 415/235/485
f 401/209/486 415/235/486 374/211/486
f 416/236/487 379/215/487 417/237/487
f 381/217/463 417/237/463 379/215/463
f 379/215/487 416/236/487 418/238/487
f 419/239/488 418/238/488 416/236/488
f 418/238/488 419/239/488 420/240/488
f 421/238/489 420/240/489 419/239/489
f 390/225/480 422/241/480 405/229/480
f 423/242/490 405/229/490 422/241/490
f 422/241/490 424/243/490 423/242/490
f 425/241/491 423/242/491 424/243/491
f 413/233/484 411/229/484 425/241/484
f 423/242/491 425/241/491 411/229/491
f 396/217/473 395/215/473 426/237/473
f 427/236/492 426/237/492 395/215/492
f 395/215/492 421/238/492 427/236/492
f 419/239/489 427/236/489 421/238/489
f 399/206/475 398/204/475 428/234/475
f 402/210/477 428/234/477 398/204/477
f 429/244/493 430/245/493 431/246/493
f 432/244/494 433/245/494 434/246/494
f 435/244/495 436/245/495 437/246/495
f 438/244/496 439/245/496 440/246/496
f 441/246/497 442/244/497 443/245/497
f 444/244/498 445/245/498 446/246/498
f 406/230/499 408/232/499 447/247/499
f 448/244/500 449/245/500 450/246/500
f 404/228/501 451/248/501 388/223/501
f 447/247/502 408/232/502 452/249/502
f 453/246/503 454/244/503 455/245/503
f 388/223/504 456/226/504 386/221/504
f 452/249/505 408/232/505 457/250/505
f 458/245/506 459/244/506 453/246/506
f 457/250/507 408/232/507 460/249/507
f 460/249/508 408/232/508 461/247/508
f 462/246/509 463/245/509 464/244/509
f 392/223/510 465/248/510 412/228/510
f 461/247/511 408/232/511 409/230/511
f 466/246/512 467/245/512 468/244/512
f 469/246/513 470/245/513 471/244/513
f 384/219/514 472/220/514 385/214/514
f 473/245/515 474/244/515 441/246/515
f 475/246/516 476/245/516 477/244/516
f 478/246/517 479/245/517 480/244/517
f 376/212/518 481/213/518 377/203/518
f 437/246/519 482/245/519 483/244/519
f 388/223/469 390/225/469 404/228/469
f 413/233/520 392/223/520 412/228/520
f 392/223/520 413/233/520 393/224/520
f 484/251/521 485/252/521 486/253/521
f 487/254/521 486/253/521 485/252/521
f 486/253/522 487/254/522 488/255/522
f 489/256/522 488/255/522 487/254/522
f 488/255/523 489/256/523 490/257/523
f 491/258/523 490/257/523 489/256/523
f 490/257/524 491/258/524 492/259/524
f 493/260/524 492/259/524 491/258/524
f 494/261/525 495/262/525 496/263/525
f 497/264/526 496/263/526 495/262/526
f 496/263/527 497/264/527 498/265/527
f 499/266/528 498/265/528 497/264/528
f 498/265/529 499/266/529 491/258/529
f 493/260/530 491/258/530 499/266/530
f 502/263/531 501/262/531 500/261/531
f 501/262/532 502/263/532 503/264/532
f 504/265/533 503/264/533 502/263/533
f 503/264/534 504/265/534 505/266/534
f 506/258/535 505/266/535 504/265/535
f 505/266/530 506/258/530 507/260/530
f 510/267/536 509/268/536 508/269/536
f 509/268/537 510/267/537 511/270/537
f 499/266/538 511/270/538 510/267/538
f 511/270/539 499/266/539 497/264/539
f 508/269/540 512/271/540 510/267/540
f 513/272/541 510/267/541 512/271/541
f 510/267/542 513/272/542 499/266/542
f 493/260/543 499/266/543 513/272/543
f 514/273/544 515/274/544 507/260/544
f 516/272/545 507/260/545 515/274/545
f 507/260/546 516/272/546 505/266/546
f 517/267/547 505/266/547 516/272/547
f 518/269/548 519/268/548 517/267/548
f 520/270/549 517/267/549 519/268/549
f 517/267/550 520/270/550 505/266/550
f 503/264/551 505/266/551 520/270/551
f 493/260/552 513/272/552 521/274/552
f 512/271/553 521/274/553 513/272/553
f 521/274/554 512/271/554 522/275/554
f 491/258/555 489/256/555 498/265/555
f 523/276/556 498/265/556 489/256/556
f 498/265/557 523/276/557 496/263/557
f 524/277/558 525/278/558 485/252/558
f 526/279/559 485/252/559 525/278/559
f 485/252/560 526/279/560 487/254/560
f 527/280/561 528/256/561 529/276/561
f 504/265/562 529/276/562 528/256/562
f 529/276/563 504/265/563 502/263/563
f 532/252/564 531/278/564 530/277/564
f 531/278/565 532/252/565 533/279/565
f 534/254/560 533/279/560 532/252/560
f 514/273/566 535/275/566 515/274/566
f 536/271/567 515/274/567 535/275/567
f 515/274/568 536/271/568 516/272/568
f 537/281/569 538/280/569 487/254/569
f 489/256/570 487/254/570 538/280/570
f 539/255/571 540/256/571 541/253/571
f 542/254/571 541/253/571 540/256/571
f 540/256/572 539/255/572 543/258/572
f 544/257/572 543/258/572 539/255/572
f 545/281/573 534/254/573 527/280/573
f 528/256/574 527/280/574 534/254/574
f 518/269/575 517/267/575 536/271/575
f 516/272/576 536/271/576 517/267/576
f 511/270/577 497/264/577 546/282/577
f 495/262/578 546/282/578 497/264/578
f 547/283/579 537/281/579 526/279/579
f 487/254/580 526/279/580 537/281/580
f 534/254/581 545/281/581 533/279/581
f 548/283/582 533/279/582 545/281/582
f 501/262/583 503/264/583 549/282/583
f 520/270/584 549/282/584 503/264/584
f 550/284/585 512/271/585 508/269/585
f 522/275/586 551/273/586 521/274/586
f 521/274/587 551/273/587 493/260/587
f 523/276/588 489/256/588 538/280/588
f 504/265/589 528/256/589 506/258/589
f 518/269/590 536/271/590 552/284/590
f 509/268/591 511/270/591 553/285/591
f 511/270/592 546/282/592 553/285/592
f 522/275/593 512/271/593 550/284/593
f 554/286/594 526/279/594 555/287/594
f 526/279/595 554/286/595 547/283/595
f 537/281/596 547/283/596 556/288/596
f 494/261/597 537/281/597 556/288/597
f 537/281/598 494/261/598 538/280/598
f 496/263/599 538/280/599 494/261/599
f 538/280/600 496/263/600 523/276/600
f 548/283/601 545/281/601 557/288/601
f 500/261/602 545/281/602 527/280/602
f 545/281/603 500/261/603 557/288/603
f 558/286/604 533/279/604 548/283/604
f 533/279/605 558/286/605 559/287/605
f 536/271/606 535/275/606 552/284/606
f 502/263/607 527/280/607 529/276/607
f 527/280/608 502/263/608 500/261/608
f 520/270/609 519/268/609 560/285/609
f 549/282/610 520/270/610 560/285/610
f 562/289/611 552/284/611 561/290/611
f 552/284/612 562/289/612 518/269/612
f 563/291/613 518/269/613 562/289/613
f 518/269/614 563/291/614 564/292/614
f 565/293/615 564/292/615 563/291/615
f 564/292/616 565/293/616 566/294/616
f 567/295/617 557/288/617 500/261/617
f 557/288/618 567/295/618 568/296/618
f 569/297/619 568/296/619 567/295/619
f 568/296/620 569/297/620 570/298/620
f 501/262/621 567/295/621 500/261/621
f 567/295/622 501/262/622 571/299/622
f 549/282/623 571/299/623 501/262/623
f 571/299/624 549/282/624 572/300/624
f 534/254/625 573/255/625 528/256/625
f 573/255/625 534/254/625 574/253/625
f 532/252/521 574/253/521 534/254/521
f 575/253/626 576/256/626 577/255/626
f 578/258/627 577/255/627 576/256/627
f 557/288/628 568/296/628 548/283/628
f 570/298/629 548/283/629 568/296/629
f 560/285/630 566/294/630 572/300/630
f 579/301/631 572/300/631 566/294/631
f 569/297/632 567/295/632 580/302/632
f 571/299/633 580/302/633 567/295/633
f 571/299/634 572/300/634 581/303/634
f 579/301/635 581/303/635 572/300/635
f 528/256/636 573/255/636 582/257/636
f 528/256/636 582/257/636 506/258/636
f 506/258/524 582/257/524 583/259/524
f 506/258/524 583/259/524 507/260/524
f 578/258/627 584/257/627 577/255/627
f 532/252/521 585/251/521 574/253/521
f 576/256/626 575/253/626 586/254/626
f 548/283/637 587/304/637 558/286/637
f 587/304/638 548/283/638 570/298/638
f 572/300/639 549/282/639 560/285/639
f 566/294/640 560/285/640 519/268/640
f 566/294/641 519/268/641 564/292/641
f 564/292/642 519/268/642 518/269/642
f 580/302/643 571/299/643 588/305/643
f 571/299/644 581/303/644 588/305/644
f 566/294/616 565/293/616 579/301/616
f 591/303/645 590/306/645 589/301/645
f 590/306/646 591/303/646 592/307/646
f 593/308/647 592/307/647 591/303/647
f 592/307/648 593/308/648 594/309/648
f 595/302/649 594/309/649 593/308/649
f 594/309/650 595/302/650 596/310/650
f 597/297/651 596/310/651 595/302/651
f 596/310/652 597/297/652 598/311/652
f 599/298/653 598/311/653 597/297/653
f 598/311/654 599/298/654 600/312/654
f 602/313/655 590/306/655 601/314/655
f 590/306/656 602/313/656 589/301/656
f 603/293/657 589/301/657 602/313/657
f 589/301/616 603/293/616 604/294/616
f 605/315/658 606/291/658 603/293/658
f 607/292/659 603/293/659 606/291/659
f 603/293/616 607/292/616 604/294/616
f 605/315/660 608/316/660 606/291/660
f 609/289/661 606/291/661 608/316/661
f 609/289/662 608/316/662 610/290/662
f 611/317/663 610/290/663 608/316/663
f 599/298/664 597/297/664 612/296/664
f 613/295/665 612/296/665 597/297/665
f 614/306/666 615/313/666 616/314/666
f 617/315/667 616/314/667 615/313/667
f 589/301/668 618/300/668 591/303/668
f 619/318/669 591/303/669 618/300/669
f 619/318/670 613/295/670 595/302/670
f 597/297/671 595/302/671 613/295/671
f 602/313/672 601/314/672 605/315/672
f 602/313/673 605/315/673 603/293/673
f 599/298/674 620/304/674 600/312/674
f 618/300/675 589/301/675 604/294/675
f 591/303/676 619/318/676 593/308/676
f 619/318/677 595/302/677 593/308/677
f 614/306/678 579/301/678 615/313/678
f 565/293/679 615/313/679 579/301/679
f 615/313/680 565/293/680 617/315/680
f 563/291/681 617/315/681 565/293/681
f 617/315/682 563/291/682 621/316/682
f 414/234/683 623/319/683 622/320/683
f 623/319/684 414/234/684 624/321/684
f 369/206/685 624/321/685 414/234/685
f 624/321/686 369/206/686 370/207/686
f 570/298/687 625/312/687 587/304/687
f 625/312/688 570/298/688 626/311/688
f 569/297/689 626/311/689 570/298/689
f 626/311/690 569/297/690 627/310/690
f 624/321/691 428/234/691 628/319/691
f 428/234/692 624/321/692 399/206/692
f 370/207/693 399/206/693 624/321/693
f 628/319/694 428/234/694 622/320/694
f 402/210/695 622/320/695 428/234/695
f 622/320/696 402/210/696 374/211/696
f 621/316/697 561/290/697 629/317/697
f 561/290/698 621/316/698 562/289/698
f 563/291/699 562/289/699 621/316/699
f 569/297/700 580/302/700 627/310/700
f 630/309/701 627/310/701 580/302/701
f 580/302/702 588/305/702 630/309/702
f 631/307/703 630/309/703 588/305/703
f 588/305/704 581/303/704 631/307/704
f 614/306/705 631/307/705 581/303/705
f 622/320/706 373/210/706 414/234/706
f 373/210/707 622/320/707 374/211/707
f 614/306/708 581/303/708 579/301/708
f 495/262/709 619/318/709 546/282/709
f 619/318/710 495/262/710 613/295/710
f 494/261/711 613/295/711 495/262/711
f 613/295/712 494/261/712 556/288/712
f 609/289/713 508/269/713 606/291/713
f 508/269/714 609/289/714 550/284/714
f 610/290/715 550/284/715 609/289/715
f 604/294/716 553/285/716 618/300/716
f 546/282/717 618/300/717 553/285/717
f 618/300/718 546/282/718 619/318/718
f 606/291/719 508/269/719 607/292/719
f 509/268/720 607/292/720 508/269/720
f 607/292/641 509/268/641 604/294/641
f 553/285/721 604/294/721 509/268/721
f 554/286/722 620/304/722 547/283/722
f 599/298/723 547/283/723 620/304/723
f 599/298/724 612/296/724 547/283/724
f 556/288/725 547/283/725 612/296/725
f 613/295/726 556/288/726 612/296/726
o Mesh.004_rdmobj04.004
v -8.508809 -20.715086 18.411106
v -6.779789 -20.715090 16.713326
v -8.517378 -17.503489 15.450333
v -7.051030 -18.000769 14.957104
v -6.902555 -16.832090 11.108657
v -5.665183 -17.503489 15.450331
v -5.001586 -18.149931 11.108655
v -4.196289 -18.685087 15.450333
v -4.012911 -20.715090 11.108655
v -12.623191 -23.222494 15.450333
v -11.764419 -23.222494 17.615698
v -13.755420 -20.715086 15.450333
v -12.268535 -20.715086 17.615698
v -12.924086 -18.685083 15.450331
v -11.369583 -17.503489 15.450331
v -12.107968 -18.149931 11.108654
v -10.134727 -16.832090 11.108655
v -4.744566 -20.715090 17.615698
v -3.371266 -20.715086 15.450333
v -4.488963 -23.222494 15.450333
v -10.239182 -20.715090 16.713326
v -9.983725 -18.000772 14.957104
v -8.521493 -23.222494 18.411104
v -10.080433 -23.222498 16.863708
v -6.964774 -23.222494 16.863708
v -4.488963 -23.222494 15.450333
v -5.283059 -23.222494 17.615696
v -11.764419 -23.222494 17.615698
v -12.623191 -23.222494 15.450333
v -11.987428 -23.222496 11.108655
v -5.283059 -23.222494 17.615696
v -6.779789 -20.715090 16.713326
v -10.080433 -23.222498 16.863708
v -8.521493 -23.222494 18.411104
v -8.508809 -20.715086 18.411106
v -6.964774 -23.222494 16.863708
v -10.239182 -20.715090 16.713326
v -13.098693 -20.715090 11.108655
v -10.134727 -16.832090 11.108655
v -5.118554 -23.222496 11.108655
v -11.987428 -23.222496 11.108655
v -5.118554 -23.222496 11.108655
v -12.011847 -20.715092 5.146282
v -9.552525 -19.069290 -0.591421
v -11.256899 -21.604786 -2.568271
v -10.788291 -19.069290 -2.568271
v -9.835897 -21.604782 -6.364643
v -9.552524 -19.069290 -4.673730
v -6.136267 -23.222496 5.146281
v -5.836503 -21.604782 -2.568271
v -5.094446 -20.715092 5.146282
v -7.494638 -19.069286 -0.591422
v -7.163976 -18.634686 5.146282
v -9.878010 -18.634686 5.146281
v -6.304409 -19.069286 -2.568271
v -7.199136 -21.604782 -6.364643
v -7.494637 -19.069286 -4.673730
v -9.835897 -21.604782 -6.364643
v -10.958785 -23.222496 5.146281
v -10.502081 -23.222496 -2.518052
v -9.332283 -23.222496 -5.834566
v -6.136267 -23.222496 5.146281
v -10.502081 -23.222496 -2.518052
v -6.583276 -23.222496 -2.518052
v -9.332283 -23.222496 -5.834566
v -6.583276 -23.222496 -2.518052
v -7.714804 -23.222496 -5.834566
v -9.878010 -18.634686 5.146281
v -10.958785 -23.222496 5.146281
v -7.714804 -23.222496 -5.834566
v -9.552525 -19.069290 -0.591421
v -7.714804 -23.222496 -5.834566
v -9.332283 -23.222496 -5.834566
v -9.552524 -19.069290 -4.673730
vn 0.5848 0.5506 0.5956
vn 0.4256 0.5212 0.7398
vn 0.3917 0.8761 0.2812
vn -0.4049 0.8791 0.2513
vn 0.5694 0.8213 -0.0353
vn 0.6267 0.7790 -0.0202
vn 0.9255 0.3567 -0.1277
vn -0.8571 -0.3870 0.3399
vn -0.8133 -0.1635 0.5584
vn -0.7811 0.3199 0.5363
vn -0.4432 0.5831 0.6808
vn -0.6051 0.7960 -0.0156
vn -0.5551 0.8312 -0.0294
vn -0.3625 0.4473 0.8176
vn 0.4684 0.5823 0.6645
vn 0.7987 0.3246 0.5066
vn 0.9179 0.3730 -0.1356
vn 0.9052 -0.4035 -0.1338
vn -0.5855 0.5486 0.5968
vn -0.4254 0.5195 0.7410
vn -0.3917 0.8760 0.2814
vn 0.4049 0.8792 0.2511
vn -0.0000 -1.0000 -0.0000
vn 0.8661 -0.3861 0.3176
vn 0.8309 -0.1785 0.5270
vn -0.4038 0.0867 0.9107
vn 0.3631 0.4489 0.8165
vn 0.4394 0.4585 0.7725
vn -0.7045 0.0036 0.7097
vn 0.7050 -0.0036 0.7092
vn -0.7004 -0.0015 0.7138
vn 0.4064 0.0803 0.9101
vn 0.7006 -0.0089 0.7135
vn -0.4067 0.0846 0.9096
vn -0.9029 -0.4077 -0.1366
vn -0.9165 0.3753 -0.1386
vn -0.4392 0.4567 0.7737
vn -0.0000 0.9883 0.1528
vn 0.4050 0.0814 0.9107
vn -0.9062 -0.4016 -0.1327
vn 0.9070 -0.4000 -0.1315
vn -0.9249 0.3572 -0.1298
vn -0.7639 0.6283 -0.1472
vn -0.8377 0.1548 0.5237
vn -0.9228 0.1706 -0.3454
vn -0.7911 0.3981 -0.4643
vn 0.9225 -0.3833 -0.0445
vn 0.7722 0.6185 -0.1456
vn 0.7058 0.7021 -0.0939
vn -0.0000 0.9971 -0.0755
vn 0.9273 0.1711 -0.3328
vn 0.7998 0.3948 -0.4521
vn -0.0000 0.5548 -0.8320
vn -0.9042 -0.4236 -0.0539
vn -0.8599 -0.4106 -0.3033
vn 0.9060 -0.4199 -0.0528
vn 0.8641 -0.4080 -0.2948
vn -0.6950 0.7129 -0.0934
vn 0.8462 0.1562 0.5095
vn -0.9210 -0.3868 -0.0455
vn -0.8676 -0.3765 -0.3248
vn 0.8706 -0.3799 -0.3125
vn -0.0000 -0.3114 -0.9503
vn -0.9031 -0.4002 -0.1558
vn -0.9092 -0.3819 -0.1657
vn -0.9196 0.3552 -0.1676
vn -0.6650 0.6821 -0.3042
vn -0.5355 0.8018 -0.2654
vn 0.9040 -0.3986 -0.1543
vn 0.9108 -0.3784 -0.1652
vn 0.9200 0.3546 -0.1669
vn 0.5496 0.7927 -0.2638
vn 0.6763 0.6728 -0.3000
vn -0.0000 0.9572 -0.2894
vt 0.190062 0.546179
vt 0.174335 0.503095
vt 0.246724 0.484323
vt 0.226029 0.461116
vt 0.285819 0.406581
vt 0.204377 0.440972
vt 0.262006 0.368730
vt 0.176139 0.418331
vt 0.234176 0.330365
vt 0.112863 0.345625
vt 0.093934 0.408889
vt 0.145385 0.388088
vt 0.120169 0.450880
vt 0.742063 0.059428
vt 0.726545 0.074974
vt 0.726633 0.043818
vt 0.712569 0.019020
vt 0.734200 0.027022
vt 0.712340 0.100362
vt 0.734018 0.091835
vt 0.668941 0.093883
vt 0.080109 0.466478
vt 0.060599 0.421800
vt 0.020420 0.435130
vt 0.035612 0.481163
vt 0.327580 0.453007
vt 0.669134 0.025194
vt 0.201860 0.288348
vt 0.347388 0.282444
vt 0.465480 0.259874
vt 0.460891 0.190089
vt 0.498832 0.222381
vt 0.515729 0.133818
vt 0.533349 0.190323
vt 0.314716 0.240258
vt 0.465480 0.259875
vt 0.378608 0.329656
vt 0.413760 0.368611
vt 0.566276 0.123687
vt 0.439060 0.163370
vt 0.486513 0.114848
vt 0.609482 0.035204
vt 0.532717 0.078647
vt 0.532827 0.039459
vt 0.499581 0.066856
vt 0.609347 0.083429
vt 0.499604 0.050681
vt 0.492134 0.289411
vt 0.519539 0.099530
vt 0.550195 0.093360
vt 0.572613 0.182520
s 0
usemtl texture001_texture001.png
f 632/322/727 633/323/727 634/324/727
f 635/325/728 634/324/728 633/323/728
f 634/324/729 635/325/729 636/326/729
f 637/327/730 636/326/730 635/325/730
f 636/326/731 637/327/731 638/328/731
f 639/329/732 638/328/732 637/327/732
f 638/328/733 639/329/733 640/330/733
f 641/331/734 642/332/734 643/333/734
f 644/334/735 643/333/735 642/332/735
f 643/333/736 644/334/736 645/329/736
f 646/327/737 645/329/737 644/334/737
f 645/329/738 646/327/738 647/328/738
f 648/326/739 647/328/739 646/327/739
f 649/334/740 637/327/740 633/323/740
f 637/327/741 649/334/741 639/329/741
f 650/333/742 639/329/742 649/334/742
f 639/329/743 650/333/743 640/330/743
f 651/331/744 640/330/744 650/333/744
f 634/324/745 652/323/745 632/322/745
f 652/323/746 634/324/746 653/325/746
f 648/326/747 653/325/747 634/324/747
f 653/325/748 648/326/748 646/327/748
f 654/335/749 655/336/749 656/337/749
f 657/338/749 656/337/749 655/336/749
f 656/337/749 657/338/749 658/339/749
f 660/340/749 655/336/749 659/341/749
f 655/336/749 660/340/749 657/338/749
f 661/342/749 657/338/749 660/340/749
f 651/331/750 650/333/750 662/332/750
f 649/334/751 662/332/751 650/333/751
f 662/332/752 649/334/752 663/343/752
f 644/334/753 652/323/753 646/327/753
f 653/325/754 646/327/754 652/323/754
f 664/344/755 665/345/755 666/346/755
f 667/344/756 666/346/756 665/345/756
f 666/346/757 668/343/757 664/344/757
f 642/332/758 664/344/758 668/343/758
f 666/346/759 667/344/759 663/343/759
f 662/332/760 663/343/760 667/344/760
f 641/331/761 643/333/761 669/330/761
f 645/329/762 669/330/762 643/333/762
f 637/327/763 635/325/763 633/323/763
f 636/326/764 670/347/764 634/324/764
f 642/332/765 668/343/765 644/334/765
f 657/338/749 661/342/749 671/348/749
f 641/331/766 669/330/766 672/349/766
f 640/330/767 651/331/767 673/349/767
f 669/330/768 645/329/768 647/328/768
f 674/350/769 675/351/769 676/352/769
f 677/353/770 676/352/770 675/351/770
f 676/352/771 677/353/771 678/354/771
f 679/355/772 678/354/772 677/353/772
f 680/356/773 681/352/773 682/350/773
f 683/357/774 682/350/774 681/352/774
f 682/350/775 683/357/775 684/358/775
f 685/359/776 684/358/776 683/357/776
f 687/354/777 686/353/777 681/352/777
f 686/353/778 687/354/778 688/355/778
f 689/360/779 688/355/779 687/354/779
f 690/356/780 676/352/780 691/361/780
f 692/362/781 691/361/781 676/352/781
f 693/363/749 694/364/749 695/365/749
f 696/366/749 695/365/749 694/364/749
f 680/356/782 697/361/782 681/352/782
f 698/362/783 681/352/783 697/361/783
f 674/350/784 699/358/784 675/351/784
f 681/352/785 686/353/785 683/357/785
f 676/352/786 690/356/786 674/350/786
f 694/364/749 693/363/749 700/367/749
f 692/362/787 676/352/787 678/354/787
f 695/365/749 696/366/749 701/368/749
f 681/352/788 698/362/788 687/354/788
f 685/359/776 683/357/776 702/369/776
f 689/360/789 703/370/789 704/371/789
f 703/370/789 689/360/789 687/354/789
f 688/355/779 689/360/779 705/372/779
f 669/330/790 690/356/790 672/349/790
f 690/356/791 669/330/791 674/350/791
f 647/328/792 674/350/792 669/330/792
f 674/350/793 647/328/793 699/358/793
f 648/326/794 699/358/794 647/328/794
f 673/349/795 680/356/795 640/330/795
f 682/350/796 640/330/796 680/356/796
f 640/330/797 682/350/797 638/328/797
f 661/342/749 700/367/749 671/348/749
f 693/363/749 671/348/749 700/367/749
f 636/326/798 638/328/798 684/358/798
f 682/350/799 684/358/799 638/328/799
f 670/347/800 636/326/800 685/359/800
f 684/358/800 685/359/800 636/326/800
o Mesh.004_rdmobj04.005
v 7.372396 -17.663486 15.126804
v 5.906047 -18.160770 14.633579
v 5.634806 -20.875092 16.389801
v 4.520200 -17.663490 15.126804
v 3.599584 -20.875088 17.292171
v 3.051307 -18.845085 15.126804
v 2.226284 -20.875088 15.126804
v 2.867929 -20.875088 10.785130
v 3.343981 -23.382492 15.126808
v 7.363829 -20.875088 18.087578
v 9.094199 -20.875088 16.389797
v 8.838743 -18.160770 14.633575
v 8.989744 -16.992088 10.785128
v 10.224600 -17.663490 15.126801
v 10.962987 -18.309929 10.785128
v 11.779102 -18.845085 15.126804
v 11.953712 -20.875088 10.785129
v 11.123552 -20.875088 17.292171
v 12.610438 -20.875092 15.126804
v 11.478209 -23.382492 15.126804
v 5.757571 -16.992088 10.785129
v 8.989744 -16.992088 10.785128
v 3.856603 -18.309929 10.785130
v 4.138076 -23.382496 17.292171
v 5.634806 -20.875092 16.389801
v 10.619437 -23.382496 17.292171
v 9.094199 -20.875088 16.389797
v 10.619437 -23.382496 17.292171
v 8.935452 -23.382492 16.540180
v 11.478209 -23.382492 15.126804
v 3.343981 -23.382492 15.126808
v 10.842445 -23.382496 10.785129
v 4.138076 -23.382496 17.292171
v 5.819791 -23.382492 16.540180
v 7.376511 -23.382492 18.087582
v 8.935452 -23.382492 16.540180
v 7.363829 -20.875088 18.087578
v 5.819791 -23.382492 16.540180
v 7.376511 -23.382492 18.087582
v 10.842445 -23.382496 10.785129
v 3.973571 -23.382496 10.785130
v 3.973571 -23.382496 10.785130
v 6.349654 -19.229286 -0.914947
v 4.691518 -21.764784 -2.891796
v 5.159425 -19.229288 -2.891796
v 6.054149 -21.764784 -6.688169
v 6.349652 -19.229288 -4.997255
v 8.690912 -21.764784 -6.688169
v 8.407539 -19.229288 -4.997255
v 9.643304 -19.229288 -2.891796
v 8.690912 -21.764784 -6.688169
v 10.111913 -21.764784 -2.891797
v 8.187296 -23.382498 -6.158092
v 8.407539 -19.229286 -0.914947
v 10.866865 -20.875088 4.822756
v 9.813802 -23.382496 4.822756
v 3.949462 -20.875088 4.822757
v 6.018993 -18.794685 4.822756
v 8.733026 -18.794685 4.822757
v 4.991283 -23.382496 4.822758
v 6.569818 -23.382498 -6.158092
v 5.438290 -23.382498 -2.841577
v 9.357097 -23.382498 -2.841577
v 8.187296 -23.382498 -6.158092
v 9.357097 -23.382498 -2.841577
v 5.438290 -23.382498 -2.841577
v 4.991283 -23.382496 4.822758
v 8.733026 -18.794685 4.822757
v 8.407539 -19.229288 -4.997255
v 8.407539 -19.229286 -0.914947
v 6.569818 -23.382498 -6.158092
v 8.187296 -23.382498 -6.158092
v 6.569818 -23.382498 -6.158092
v 9.813802 -23.382496 4.822756
vn -0.4256 0.5212 0.7398
vn 0.4392 0.4567 0.7737
vn 0.3625 0.4473 0.8176
vn -0.4684 0.5823 0.6645
vn -0.7987 0.3246 0.5066
vn -0.9179 0.3730 -0.1356
vn -0.9052 -0.4035 -0.1338
vn 0.5855 0.5486 0.5968
vn 0.4254 0.5195 0.7410
vn 0.3917 0.8760 0.2814
vn -0.4049 0.8792 0.2511
vn 0.5551 0.8312 -0.0294
vn 0.6051 0.7960 -0.0156
vn 0.9249 0.3572 -0.1298
vn -0.4394 0.4585 0.7725
vn -0.3631 0.4489 0.8165
vn 0.4432 0.5831 0.6808
vn 0.7811 0.3199 0.5363
vn 0.9165 0.3753 -0.1386
vn 0.9029 -0.4077 -0.1366
vn 0.4049 0.8791 0.2513
vn -0.3917 0.8761 0.2812
vn -0.0000 0.9883 0.1528
vn -0.5694 0.8213 -0.0353
vn -0.6267 0.7790 -0.0202
vn -0.9255 0.3567 -0.1277
vn -0.8661 -0.3861 0.3176
vn -0.8309 -0.1785 0.5270
vn 0.4038 0.0867 0.9107
vn 0.8571 -0.3870 0.3399
vn 0.8133 -0.1635 0.5584
vn -0.4050 0.0814 0.9107
vn -0.0000 -1.0000 -0.0000
vn -0.4064 0.0803 0.9101
vn 0.7004 -0.0015 0.7138
vn 0.4067 0.0846 0.9096
vn -0.7006 -0.0089 0.7135
vn -0.7050 -0.0036 0.7092
vn 0.7045 0.0036 0.7097
vn -0.5848 0.5506 0.5956
vn 0.9062 -0.4016 -0.1327
vn -0.9070 -0.4000 -0.1315
vn -0.8462 0.1562 0.5095
vn -0.9273 0.1711 -0.3328
vn -0.7998 0.3948 -0.4521
vn -0.0000 0.5548 -0.8320
vn 0.7911 0.3981 -0.4643
vn 0.9228 0.1706 -0.3454
vn 0.8676 -0.3765 -0.3248
vn 0.8377 0.1548 0.5237
vn 0.7639 0.6283 -0.1472
vn 0.9210 -0.3868 -0.0455
vn -0.7058 0.7021 -0.0939
vn -0.0000 0.9971 -0.0755
vn -0.7722 0.6185 -0.1456
vn -0.9225 -0.3833 -0.0445
vn -0.8641 -0.4080 -0.2948
vn -0.9060 -0.4199 -0.0528
vn 0.8599 -0.4106 -0.3033
vn 0.9042 -0.4236 -0.0539
vn 0.6950 0.7129 -0.0934
vn -0.8706 -0.3799 -0.3125
vn -0.0000 -0.3114 -0.9503
vn 0.6650 0.6821 -0.3042
vn 0.9196 0.3552 -0.1676
vn 0.9092 -0.3819 -0.1657
vn 0.9031 -0.4002 -0.1558
vn -0.0000 0.9572 -0.2894
vn -0.6763 0.6728 -0.3000
vn -0.5496 0.7927 -0.2638
vn -0.9108 -0.3784 -0.1652
vn -0.9200 0.3546 -0.1669
vn 0.5355 0.8018 -0.2655
vn -0.9040 -0.3986 -0.1543
vt 0.246724 0.484323
vt 0.226029 0.461116
vt 0.174335 0.503095
vt 0.204377 0.440972
vt 0.120169 0.450880
vt 0.176139 0.418331
vt 0.145385 0.388088
vt 0.234176 0.330365
vt 0.112863 0.345625
vt 0.190062 0.546179
vt 0.285819 0.406581
vt 0.262006 0.368730
vt 0.327580 0.453007
vt 0.093934 0.408889
vt 0.080109 0.466478
vt 0.734018 0.091835
vt 0.726545 0.074974
vt 0.712340 0.100362
vt 0.712569 0.019020
vt 0.668941 0.093883
vt 0.734200 0.027022
vt 0.726633 0.043818
vt 0.742063 0.059428
vt 0.060599 0.421800
vt 0.035612 0.481163
vt 0.020420 0.435130
vt 0.201860 0.288348
vt 0.669134 0.025194
vt 0.498832 0.222381
vt 0.460891 0.190089
vt 0.465480 0.259874
vt 0.515729 0.133818
vt 0.533349 0.190323
vt 0.566276 0.123687
vt 0.486513 0.114848
vt 0.347388 0.282444
vt 0.314716 0.240258
vt 0.378608 0.329656
vt 0.413760 0.368611
vt 0.439060 0.163370
vt 0.499581 0.066856
vt 0.532717 0.078647
vt 0.532827 0.039459
vt 0.609482 0.035204
vt 0.572613 0.182520
vt 0.492134 0.289411
vt 0.519539 0.099530
vt 0.550195 0.093360
vt 0.499604 0.050681
vt 0.609347 0.083429
s 0
usemtl texture001_texture001.png
f 706/373/801 707/374/801 708/375/801
f 709/376/802 708/375/802 707/374/802
f 708/375/803 709/376/803 710/377/803
f 711/378/804 710/377/804 709/376/804
f 710/377/805 711/378/805 712/379/805
f 713/380/806 712/379/806 711/378/806
f 712/379/807 713/380/807 714/381/807
f 716/375/808 706/373/808 715/382/808
f 717/374/809 706/373/809 716/375/809
f 706/373/810 717/374/810 718/383/810
f 719/376/811 718/383/811 717/374/811
f 718/383/812 719/376/812 720/384/812
f 721/378/813 720/384/813 719/376/813
f 720/384/814 721/378/814 722/380/814
f 717/374/815 716/375/815 719/376/815
f 723/377/816 719/376/816 716/375/816
f 719/376/817 723/377/817 721/378/817
f 724/379/818 721/378/818 723/377/818
f 721/378/819 724/379/819 722/380/819
f 725/381/820 722/380/820 724/379/820
f 709/376/821 707/374/821 726/383/821
f 706/373/822 726/383/822 707/374/822
f 726/383/823 706/373/823 727/385/823
f 728/384/824 709/376/824 726/383/824
f 709/376/825 728/384/825 711/378/825
f 713/380/826 711/378/826 728/384/826
f 729/386/827 712/379/827 714/381/827
f 712/379/828 729/386/828 710/377/828
f 730/387/829 710/377/829 729/386/829
f 725/381/830 724/379/830 731/386/830
f 723/377/831 731/386/831 724/379/831
f 731/386/832 723/377/832 732/387/832
f 733/388/833 734/389/833 735/390/833
f 736/391/833 735/390/833 734/389/833
f 735/390/833 736/391/833 737/392/833
f 738/393/833 736/391/833 739/394/833
f 734/389/833 739/394/833 736/391/833
f 739/394/833 734/389/833 740/395/833
f 731/386/834 732/387/834 741/396/834
f 742/397/835 741/396/835 732/387/835
f 729/386/836 743/396/836 730/387/836
f 742/397/837 730/387/837 743/396/837
f 743/396/838 744/398/838 742/397/838
f 741/396/839 742/397/839 744/398/839
f 715/382/840 706/373/840 708/375/840
f 722/380/841 725/381/841 745/399/841
f 714/381/842 713/380/842 746/399/842
f 737/392/833 736/391/833 747/400/833
f 750/401/843 749/402/843 748/403/843
f 749/402/844 750/401/844 751/404/844
f 752/405/845 751/404/845 750/401/845
f 751/404/846 752/405/846 753/406/846
f 754/405/847 755/401/847 756/404/847
f 757/402/848 756/404/848 755/401/848
f 756/404/849 757/402/849 758/407/849
f 755/401/850 759/403/850 757/402/850
f 760/408/851 757/402/851 759/403/851
f 757/402/852 760/408/852 761/409/852
f 762/408/853 763/410/853 748/403/853
f 764/411/854 748/403/854 763/410/854
f 748/403/855 749/402/855 762/408/855
f 765/409/856 762/408/856 749/402/856
f 766/407/857 767/412/857 749/402/857
f 765/409/858 749/402/858 767/412/858
f 758/407/859 757/402/859 768/412/859
f 761/409/860 768/412/860 757/402/860
f 769/413/833 770/414/833 771/415/833
f 772/416/833 771/415/833 770/414/833
f 759/403/861 773/410/861 760/408/861
f 753/406/846 752/405/846 774/417/846
f 748/403/854 764/411/854 775/418/854
f 766/407/862 749/402/862 751/404/862
f 753/406/863 776/419/863 751/404/863
f 776/419/863 753/406/863 777/420/863
f 769/413/833 771/415/833 778/421/833
f 772/416/833 770/414/833 779/422/833
f 773/410/864 720/384/864 760/408/864
f 722/380/865 760/408/865 720/384/865
f 760/408/866 722/380/866 761/409/866
f 745/399/867 761/409/867 722/380/867
f 763/410/868 726/383/868 764/411/868
f 727/385/868 764/411/868 726/383/868
f 762/408/869 728/384/869 763/410/869
f 726/383/870 763/410/870 728/384/870
f 765/409/871 713/380/871 762/408/871
f 728/384/872 762/408/872 713/380/872
f 720/384/873 773/410/873 718/383/873
f 747/400/833 772/416/833 779/422/833
f 713/380/874 765/409/874 746/399/874
f 747/400/833 779/422/833 737/392/833
