# Blender 5.1.1
# www.blender.org
mtllib WhiteRabbitClockArm.mtl
o Mesh.004_rdmobj04.003
v 19.662642 -21.447094 28.044790
v 20.313408 -19.507351 31.627916
v 20.313408 -20.991531 28.044794
v 20.964172 -21.447094 28.044794
v 20.964176 -19.829468 24.139536
v 20.313410 -20.541401 23.427618
v 20.313408 -18.567108 22.609846
v 19.662643 -19.829468 24.139536
v 20.313412 -12.341080 31.627907
v 20.964172 -10.401340 28.044785
v 20.964176 -12.018959 31.950043
v 20.313410 -11.307032 32.661957
v 20.313408 -15.924205 34.574444
v 19.662643 -15.924212 33.567661
v 20.313408 -20.541393 32.661972
v 20.964172 -19.829472 31.950048
v 20.313410 -15.924212 33.112106
v 19.662642 -19.829472 31.950048
v 19.662642 -12.018959 31.950035
v 19.662645 -10.401341 28.044785
v 20.313410 -12.341094 24.461658
v 20.964172 -12.018970 24.139523
v 20.313410 -11.307034 23.427612
v 20.313410 -13.281325 22.609842
v 19.662643 -12.018970 24.139523
v 20.313408 -22.453876 28.044790
v 20.964170 -15.924216 33.567661
v 20.313412 -10.856894 28.044785
v 20.313410 -9.394555 28.044785
v 20.313410 -13.281325 24.072195
v 20.313408 -19.507336 24.461664
v 20.313410 -18.567108 24.072195
v 19.662643 -13.281327 23.616644
v 20.964176 -13.281325 23.616644
v 20.964174 -18.567108 23.616644
v 19.662643 -18.567112 23.616644
v 17.793039 -15.924225 19.247171
v 16.619581 -9.099154 16.947998
v 17.793037 -8.863960 17.355370
v 17.793041 -3.695499 12.186912
v 22.799236 -3.695503 12.186913
v 22.799236 -1.803708 5.126686
v 23.907021 -4.102887 11.951713
v 17.445219 -27.499273 11.809528
v 16.619583 -29.574324 5.126697
v 16.619583 -27.745562 11.951723
v 17.793039 -28.152945 12.186919
v 17.793039 -22.984486 17.355375
v 22.799232 -22.984486 17.355379
v 17.793039 -15.924225 19.247171
v 23.907021 -15.924232 -8.523406
v 23.907021 -22.749296 -6.694639
v 22.799236 -22.984491 -7.102029
v 22.799240 -28.152960 -1.933555
v 17.793039 -28.152956 -1.933557
v 17.793041 -30.044744 5.126696
v 16.619585 -27.745565 -1.698354
v 22.799236 -15.924232 -8.993819
v 22.799240 -8.863972 -7.102032
v 17.793041 -8.863970 -7.102034
v 17.793043 -3.695501 -1.933565
v 16.619585 -9.099154 -6.694638
v 23.276619 -15.924229 19.903124
v 21.786379 -13.342879 19.903120
v 21.603237 -13.660111 20.553663
v 18.989040 -13.660110 20.553663
v 17.681946 -15.924225 20.553667
v 17.315662 -15.924225 19.903120
v 18.989042 -18.188328 20.553667
v 23.723862 -15.924225 25.272760
v 22.009995 -18.892902 25.272760
v 21.358238 -17.763954 26.281755
v 19.234034 -17.763954 26.281755
v 18.171938 -15.924225 26.281755
v 16.868414 -15.924225 25.272764
v 19.234034 -14.084479 26.281759
v 16.214960 -21.253660 -3.357513
v 16.214956 -21.802664 -5.763789
v 16.214958 -20.092318 -3.984377
v 16.214960 -20.489794 -2.953254
v 16.468826 -15.059915 12.590378
v 16.468822 -15.654492 14.985790
v 16.468822 -16.379145 12.626470
v 16.468822 -15.559560 11.885191
v 17.445221 -15.924226 18.492384
v 17.445221 -9.241346 16.701714
v 16.619585 -4.102887 11.951713
v 16.619587 -2.274132 5.126687
v 17.445221 -29.289942 5.126697
v 22.799236 -30.044744 5.126697
v 17.793041 -22.984491 -7.102031
v 16.619583 -22.749296 -6.694640
v 16.619583 -15.924232 -8.523406
v 17.445223 -22.607107 -6.448363
v 21.786381 -18.505566 19.903120
v 21.603235 -18.188328 20.553667
v 22.910332 -15.924225 20.553667
v 16.214958 -16.351343 4.713675
v 16.214958 -15.325018 4.803256
v 16.214958 -16.035093 4.542969
v 16.214960 -20.173536 -3.123958
v 23.907024 -9.099155 -6.694636
v 22.799240 -3.695501 -1.933565
v 17.445223 -2.558510 5.126686
v 16.619587 -4.102891 -1.698362
v 17.836502 -15.924225 19.247171
v 17.315662 -15.924225 19.903120
v 19.066317 -13.936680 18.714605
v 18.805893 -13.342877 19.903120
v 21.786379 -13.342879 19.903120
v 22.755779 -15.924225 19.247168
v 23.276619 -15.924229 19.903124
v 21.525959 -13.936680 18.714605
v 21.673521 -13.538362 23.892447
v 21.199074 -13.281327 24.618124
v 21.821911 -13.281327 22.339190
v 18.770369 -13.281327 22.339190
v 23.347675 -15.924225 22.339193
v 18.918751 -13.538362 23.892447
v 19.393202 -13.281325 24.618124
v 21.673521 -13.538362 23.892447
v 18.918755 -18.310078 23.892447
v 18.770369 -18.567112 22.339193
v 19.393200 -18.567112 24.618124
v 21.199072 -18.567112 24.618124
v 21.673519 -18.310078 23.892447
v 16.214958 -15.562975 5.795924
v 16.214956 -16.523409 5.450120
v 22.799232 -15.924229 19.247168
v 22.799236 -8.863962 17.355370
v 23.907021 -9.099155 16.948000
v 17.445221 -27.499277 -1.556166
v 16.619581 -22.749290 16.947998
v 16.619583 -15.924230 18.776770
v 23.907021 -27.745562 11.951724
v 23.907017 -22.749287 16.948004
v 22.799232 -15.924229 19.247168
v 22.799236 -28.152948 12.186919
v 23.907024 -29.574324 5.126694
v 17.793039 -15.924228 -8.993817
v 21.821909 -18.567112 22.339193
v 21.673519 -18.310078 23.892447
v 18.918755 -18.310078 23.892447
v 17.244602 -15.924225 22.339197
v 22.420341 -15.924225 26.281759
v 21.358238 -14.084479 26.281759
v 22.009996 -12.955529 25.272760
v 16.468826 -15.918809 11.895017
v 16.468822 -16.116064 4.684952
v 17.793041 -1.803708 5.126686
v 17.445223 -9.241343 -6.448360
v 17.445225 -4.349180 -1.556171
v 17.445221 -29.289942 5.126697
v 17.445219 -27.499273 11.809528
v 17.445221 -27.499277 -1.556166
v 17.445223 -22.607098 16.701715
v 23.907024 -29.574324 5.126694
v 23.907024 -27.745565 -1.698354
v 23.907021 -27.745562 11.951724
v 23.907017 -22.749287 16.948004
v 17.315662 -15.924225 19.903120
v 19.066317 -17.911762 18.714609
v 18.805891 -18.505566 19.903124
v 21.786381 -18.505566 19.903120
v 21.525961 -17.911762 18.714609
v 23.276619 -15.924229 19.903124
v 22.755779 -15.924225 19.247168
v 17.445223 -2.558510 5.126686
v 17.445225 -4.349180 -1.556171
v 17.445223 -4.349175 11.809521
v 17.445221 -9.241346 16.701714
v 16.619583 -15.924230 18.776770
v 17.445223 -22.607107 -6.448363
v 17.445223 -15.924228 -8.239026
v 17.445223 -22.607098 16.701715
v 23.907021 -15.924232 -8.523406
v 23.907021 -15.924226 18.776770
v 23.907021 -9.099155 16.948000
v 23.907021 -22.749296 -6.694639
v 23.907024 -27.745565 -1.698354
v 18.805891 -18.505566 19.903124
v 18.805893 -13.342877 19.903120
v 21.146879 -14.450596 22.339190
v 19.445402 -14.450600 20.553663
v 19.445402 -14.450596 22.339190
v 18.594654 -15.924225 20.553667
v 21.146877 -14.450596 20.553663
v 21.997616 -15.924229 20.553667
v 21.997618 -15.924225 22.339193
v 21.146875 -17.397846 20.553667
v 21.146877 -17.397842 22.339197
v 19.445404 -17.397842 22.339193
v 19.445402 -17.397842 20.553667
v 18.594656 -15.924225 22.339193
v 21.673521 -13.538362 23.892447
v 23.050907 -15.924225 23.892447
v 21.673519 -18.310078 23.892447
v 23.050907 -15.924225 23.892447
v 17.541378 -15.924225 23.892447
v 21.673521 -13.538362 23.892447
v 18.582272 -18.892902 25.272760
v 18.582273 -12.955527 25.272760
v 16.868414 -15.924225 25.272764
v 18.582273 -12.955527 25.272760
v 19.257744 -14.125534 23.892447
v 22.009996 -12.955529 25.272760
v 21.334538 -14.125534 23.892447
v 23.723862 -15.924225 25.272760
v 22.372936 -15.924225 23.892447
v 21.334534 -17.722897 23.892447
v 19.257742 -17.722897 23.892447
v 18.582272 -18.892902 25.272760
v 22.009995 -18.892902 25.272760
v 16.468822 -15.756819 4.675121
v 17.445221 -15.924226 18.492384
v 17.445223 -15.924228 -8.239026
v 17.445223 -4.349175 11.809521
v 17.445223 -9.241343 -6.448360
v 23.907024 -9.099155 -6.694636
v 23.907021 -4.102887 11.951713
v 23.907024 -2.274132 5.126683
v 23.907024 -4.102891 -1.698362
v 17.836502 -15.924225 19.247171
v 21.673519 -18.310078 23.892447
v 23.907024 -4.102891 -1.698362
v 23.907024 -2.274132 5.126683
v 23.907021 -15.924226 18.776770
v 17.445221 -15.924226 18.492384
v 23.907021 -15.924226 18.776770
v 21.525961 -17.911762 18.714609
v 18.918751 -13.538362 23.892447
v 18.918755 -18.310078 23.892447
v 17.541378 -15.924225 23.892447
v 18.918751 -13.538362 23.892447
v 18.918755 -18.310078 23.892447
v 18.918751 -13.538362 23.892447
v 18.219345 -15.924225 23.892447
v 14.909616 -6.002759 -0.055523
v 8.959843 -7.286085 -0.069047
v 14.909616 -3.791066 -3.091700
v 9.117804 -4.271612 -4.179095
v 9.117805 -0.362839 -3.890258
v 8.801897 -4.287111 -4.214141
v 8.801897 -0.345410 -3.922870
v 4.731784 -0.147976 -4.290606
v 8.959843 1.957073 -0.118767
v 4.731782 2.391609 -0.128495
v 4.731781 -0.147979 4.498162
v -0.372797 0.097611 4.641670
v 4.731783 -4.461114 4.498164
v 6.710411 -0.230007 4.337203
v 11.209288 -0.478241 3.846386
v 14.909615 -0.903721 3.005129
v 11.209291 -4.169091 3.846388
v 4.731785 -4.461119 -4.609326
v -0.372796 0.097953 -4.322481
v 4.731783 -7.732610 -0.073518
v 8.959843 -7.286085 -0.069047
v 6.710411 -4.389642 4.337203
v 14.909615 0.796356 -0.092096
v 14.909616 -0.903721 -2.878341
v 2.070782 -5.455839 -4.464268
v 4.346066 -8.102897 -0.106762
v 4.731783 -7.732610 -0.073518
v -1.811983 -0.057808 -4.322122
v -0.372797 2.638683 -0.128495
v 14.909615 -3.791066 3.005129
v 14.909616 -6.002759 -0.055523
v 13.343126 -5.455724 -0.049758
v 13.343128 -3.582925 2.541916
v 14.909615 -3.791066 3.005129
v 13.343128 -1.137993 2.541917
v 14.909615 -0.903721 3.005129
v 13.343126 -5.455724 -0.049758
v 14.909616 -3.791066 -3.091700
v 13.343130 -3.582925 -2.620710
v 14.909616 -0.903721 -2.878341
v 13.343130 0.301582 -0.080727
v 13.343130 -1.137993 -2.440041
v 16.074961 -4.746812 -0.031798
v 15.103140 -4.586671 -0.029870
v 16.074959 -3.292337 -2.028488
v 15.103138 -3.230916 -1.891031
v 16.074961 -1.393521 -1.888173
v 15.103136 -1.460991 -1.760240
v 16.074961 -0.275490 -0.055848
v 15.103138 -0.418842 -0.052288
v 16.074961 -1.393520 1.980987
v 15.103138 -1.460991 1.846294
v 20.191294 -0.469479 0.953016
v 20.191290 -0.469483 -0.793869
v 20.191294 -0.963963 -2.540751
v 17.346605 -3.561891 -2.540754
v 20.191294 -3.106012 -2.540752
v 17.660109 -3.969556 -1.265931
v 16.074961 -3.292332 1.980986
v 17.289089 -3.106007 2.984050
v 20.191292 -0.963959 2.699898
v 20.191292 -3.106015 2.699898
v 21.145990 -2.034985 2.917066
v 17.346605 -3.561891 0.008892
v 20.191294 -3.106015 -0.793872
v 13.343130 -1.137993 -2.440041
v 13.343130 -3.582925 -2.620710
v 15.422874 -3.582925 -2.620708
v 15.422874 -5.455724 -0.049758
v 13.343128 -4.798734 -0.042836
v 15.422876 -3.582928 2.541916
v 13.343128 -3.582925 2.541916
v 13.343128 -1.137993 2.541917
v 15.422878 -1.137993 2.541916
v 15.422874 0.301582 -0.080727
v 13.343130 -1.419361 1.985603
v 13.343126 -5.455724 -0.049758
v 13.343130 -1.419361 1.985603
v 13.343130 0.301582 -0.080727
v 15.422874 -1.137993 -2.440041
v 13.343130 -3.332948 -2.055053
v 13.343130 -1.419361 -1.913647
v 15.103140 -4.586671 -0.029870
v 16.074961 -4.746812 -0.031798
v 15.103138 -3.230916 1.846293
v 16.074961 -3.292332 1.980986
v 15.103138 -3.230916 1.846293
v 15.103138 -3.230916 1.846293
v 13.343130 -1.419361 1.985603
v 13.343128 -0.292637 -0.067073
v 13.343128 -3.332944 1.985602
v 13.343128 -4.798734 -0.042836
v 13.343130 -3.332948 -2.055053
v 13.343128 -0.292637 -0.067073
v 13.343130 -1.419361 -1.913647
v 21.145992 -2.034986 -2.757917
v 20.191296 -3.106015 0.953015
v 13.343128 -3.332944 1.985602
v 13.343128 -3.332944 1.985602
v 13.343130 -3.332948 -2.055053
v 13.343128 -3.332944 1.985602
v 15.103138 -3.230916 1.846293
v 13.343130 -1.419361 -1.913647
v 18.954491 -4.595209 0.485952
v 19.738829 -3.841615 1.533378
v 20.221586 -5.872045 0.346735
v 21.202360 -5.498727 1.499483
v 19.900274 -6.799303 1.609928
v 20.308191 -5.850801 2.778068
v 19.738829 -3.841615 1.533378
v 19.033623 -4.575803 2.707148
v 20.308191 -5.850801 2.778068
v 18.249289 -5.329401 1.659721
v 19.900274 -6.799303 1.609928
v 21.202360 -5.498727 1.499483
v 21.145994 -2.034986 1.025407
v 21.145988 -3.106011 1.971236
v 22.630646 -2.962052 1.971237
v 21.145990 -2.034985 2.917066
v 23.178192 -2.041020 2.912732
v 23.014572 -0.974907 1.971238
v 21.145996 -3.106012 -1.812090
v 21.145992 -2.034986 -0.866260
v 21.145992 -2.034986 -0.866260
v 21.146000 -0.963959 -1.812089
v 23.014576 -0.960396 -1.812089
v 21.145992 -2.034986 -2.757917
v 23.178200 -2.026513 -2.753583
v 21.145996 -3.106012 -1.812090
v 22.630653 -3.092645 -1.812089
v 23.178200 -2.026513 -0.870594
v 21.145992 -0.963955 1.971237
v 21.145994 -2.034986 1.025407
v 21.145992 -2.034986 -0.866260
v 21.146000 -0.963959 -1.812089
v 21.145992 -0.963955 1.971237
v 23.178192 -2.041020 1.029744
v 21.145990 -2.034985 2.917066
v 20.191292 -3.106015 2.699898
v 21.145988 -3.106011 1.971236
v 21.145994 -2.034986 1.025407
v 23.178196 -2.026509 1.021072
v 23.014576 -0.960392 0.079573
v 23.341831 -0.960396 0.079573
v 23.178196 -2.026509 -0.861927
v 25.447319 -2.193093 -0.829527
v 23.725742 -3.092645 0.079574
v 25.186653 -3.207093 0.079574
v 25.447315 -2.193093 0.988677
v 22.630650 -3.092645 0.079572
v 21.145994 -3.106008 0.079572
v 25.186657 -1.161968 0.079575
v 21.145996 -0.963955 0.079573
v 21.145996 -0.963955 0.079573
v 21.145994 -3.106008 0.079572
v 25.447315 -2.193093 0.988677
v 25.447315 -2.193093 0.988677
v 25.306854 -2.207604 1.062140
v 23.341827 -0.974907 1.971237
v 25.046185 -1.176479 1.971239
v 25.306854 -2.207604 2.880336
v 23.725739 -3.107156 1.971237
v 25.046185 -3.221604 1.971237
v 25.306854 -2.207604 2.880336
v 25.306854 -2.207604 2.880336
v 24.952385 -2.193101 -0.902991
v 23.725742 -3.092645 -1.812089
v 24.691723 -3.207101 -1.812088
v 24.952389 -2.193101 -2.721187
v 24.691719 -1.161972 -1.812088
v 23.341831 -0.960400 -1.812089
v 24.952385 -2.193101 -0.902991
v 24.952385 -2.193101 -0.902991
v 16.074961 -3.292332 1.980986
v 17.289089 -3.106007 2.984050
v 17.977076 -5.189176 1.670885
v 18.831385 -4.368349 2.811757
v 19.033623 -4.575803 2.707148
v 19.599503 -3.568654 1.533271
v 19.738829 -3.841615 1.533378
v 16.074961 -4.746812 -0.031798
v 18.745209 -4.389482 0.392398
v 17.346605 -3.561891 0.008892
v 19.599503 -3.568654 1.533271
v 20.191292 -3.106015 2.699898
v 18.954491 -4.595209 0.485952
v 19.738829 -3.841615 1.533378
v 18.954491 -4.595209 0.485952
v 18.249289 -5.329401 1.659721
v 19.599503 -3.568654 1.533271
v 18.249289 -5.329401 1.659721
vn -0.5431 0.7758 -0.3213
vn 0.5431 0.7758 -0.3213
vn 0.5431 0.7758 0.3213
vn 0.8194 -0.5296 -0.2194
vn 0.8194 -0.2194 -0.5296
vn -0.8194 -0.2194 -0.5296
vn 0.5431 -0.7758 -0.3213
vn 0.8194 0.5296 0.2194
vn 0.8194 0.2194 0.5296
vn -0.8194 0.2194 0.5296
vn -0.8194 -0.2194 0.5296
vn 0.8194 -0.5296 0.2194
vn 0.5431 0.3213 -0.7758
vn -0.5431 0.3213 -0.7758
vn 0.5431 -0.3213 -0.7758
vn -0.5431 -0.3213 -0.7758
vn -0.5431 -0.7758 -0.3213
vn -0.8194 0.5296 0.2194
vn 0.5431 -0.7758 0.3213
vn 0.8194 0.5296 -0.2194
vn 0.8194 0.2194 -0.5296
vn -0.8194 0.2194 -0.5296
vn -0.8194 -0.5296 0.2194
vn -0.8194 -0.5296 -0.2194
vn -0.5431 -0.7758 0.3213
vn -0.8194 0.5296 -0.2194
vn -0.5431 -0.3213 0.7758
vn -0.5431 0.7758 0.3213
vn 0.5431 0.3213 0.7758
vn -0.5431 0.3213 0.7758
vn 0.5431 -0.3213 0.7758
vn 0.8194 -0.2194 0.5296
vn -0.3611 0.2414 0.9008
vn -0.3611 0.6594 0.6594
vn -0.0000 0.7071 0.7071
vn -0.0000 0.9659 0.2588
vn 0.3795 0.8937 0.2395
vn -0.3157 0.9165 -0.2456
vn -0.3611 -0.9008 0.2414
vn -0.3611 -0.6594 0.6594
vn -0.0000 -0.7071 0.7071
vn -0.0000 -0.2588 0.9659
vn 0.3795 -0.2395 -0.8937
vn 0.3795 -0.6542 -0.6542
vn -0.0000 -0.7071 -0.7071
vn -0.0000 -0.9659 -0.2588
vn -0.3611 -0.9008 -0.2414
vn 0.3795 0.2395 -0.8937
vn -0.0000 0.2588 -0.9659
vn -0.0000 0.7071 -0.7071
vn -0.3611 0.6594 -0.6594
vn 0.7784 0.4494 0.4383
vn -0.0000 0.8988 0.4383
vn -0.0000 -0.0000 1.0000
vn -0.7784 0.4494 0.4383
vn -0.7784 -0.4494 0.4383
vn 0.5771 -0.3332 0.7456
vn -0.0000 -0.6664 0.7456
vn -0.5771 -0.3332 0.7456
vn -0.5771 0.3332 0.7456
vn 1.0000 -0.0000 -0.0000
vn -1.0000 -0.0000 -0.0000
vn -0.3157 -0.2456 -0.9165
vn -0.3157 -0.6709 -0.6709
vn -0.3611 0.9008 0.2414
vn -0.3157 0.9165 0.2456
vn -0.0000 -0.9659 0.2588
vn -0.3611 -0.6594 -0.6594
vn -0.3611 -0.2414 -0.9008
vn -0.3157 0.2456 0.9165
vn -0.0000 -0.8988 0.4383
vn 0.7784 -0.4494 0.4383
vn 0.3795 0.6542 -0.6542
vn -0.0000 0.9659 -0.2588
vn -0.3157 -0.9165 -0.2456
vn -0.3157 -0.9165 0.2456
vn -0.3611 0.9008 -0.2414
vn -0.7463 0.3030 -0.5926
vn -0.7928 0.4577 -0.4024
vn -0.0000 0.8946 -0.4469
vn 0.7463 0.3030 -0.5926
vn 0.7928 0.4577 -0.4024
vn 0.6698 0.7196 0.1831
vn -0.0000 1.0000 -0.0000
vn -0.0000 -0.0000 -1.0000
vn -0.6698 0.7196 0.1831
vn -0.0000 -0.9426 0.3339
vn -0.6698 -0.7196 0.1831
vn -0.0000 -1.0000 -0.0000
vn -0.0000 0.9426 0.3339
vn -0.0000 0.2588 0.9659
vn 0.3795 0.6542 0.6542
vn -0.3157 0.6709 0.6709
vn -0.3157 0.6709 -0.6709
vn -0.3611 -0.2414 0.9008
vn 0.3795 -0.6542 0.6542
vn 0.3795 -0.2395 0.8937
vn 0.3795 -0.8937 0.2395
vn 0.3795 -0.8937 -0.2395
vn -0.0000 -0.2588 -0.9659
vn -0.3611 0.2414 -0.9008
vn 0.8544 -0.4933 0.1633
vn -0.8544 -0.4933 0.1633
vn 0.5771 0.3332 0.7456
vn -0.0000 0.6664 0.7456
vn -0.3157 -0.2456 0.9165
vn -0.3157 -0.6709 0.6709
vn -0.7928 -0.4577 -0.4024
vn -0.0000 -0.8946 -0.4469
vn 0.7928 -0.4577 -0.4024
vn 0.7463 -0.3030 -0.5926
vn -0.3157 0.2456 -0.9165
vn -0.8660 0.5000 -0.0000
vn 0.8660 0.5000 -0.0000
vn 0.8660 -0.5000 -0.0000
vn -0.8660 -0.5000 -0.0000
vn 0.8544 0.4933 0.1632
vn 0.8544 -0.4933 0.1632
vn -0.6607 0.3814 -0.6466
vn -0.0000 0.7628 -0.6466
vn 0.6607 0.3814 -0.6466
vn 0.6607 -0.3814 -0.6466
vn -0.6607 -0.3814 -0.6466
vn -0.0000 -0.7628 -0.6466
vn 0.3795 0.8937 -0.2395
vn -0.7463 -0.3030 -0.5926
vn 0.6698 -0.7196 0.1831
vn 0.3795 0.2395 0.8937
vn -0.8544 0.4933 0.1633
vn -0.8544 0.4933 0.1632
vn 0.8544 0.4933 0.1633
vn 0.1730 -0.7961 -0.5799
vn 0.1746 -0.7972 -0.5780
vn 0.1782 0.0725 -0.9813
vn 0.1064 0.0733 -0.9916
vn 0.0933 0.0734 -0.9929
vn 0.0881 0.8505 -0.5185
vn 0.0886 0.8503 -0.5188
vn 0.0886 0.8732 0.4793
vn 0.0556 0.8753 0.4804
vn 0.0281 -0.0000 0.9996
vn 0.0811 -0.0000 0.9967
vn 0.0747 0.8798 0.4695
vn 0.1004 0.8722 0.4788
vn 0.1988 0.8814 0.4286
vn 0.2217 -0.0000 0.9751
vn 0.1044 -0.8039 -0.5856
vn 0.0913 -0.8051 -0.5860
vn 0.0098 0.0737 -0.9972
vn 0.0443 0.8528 -0.5204
vn 0.0850 -0.8103 0.5798
vn 0.0762 -0.8149 0.5746
vn 0.1085 -0.0000 0.9941
vn 0.1665 0.8644 0.4745
vn 0.1665 0.8417 -0.5136
vn 0.1680 0.8428 -0.5114
vn 0.2527 -0.7628 -0.5953
vn 0.6382 -0.6244 -0.4503
vn 0.0860 -0.8080 -0.5828
vn -0.0063 0.0558 -0.9984
vn 0.0414 0.8546 -0.5177
vn 0.1031 -0.8062 0.5826
vn 0.2053 -0.8198 0.5346
vn 0.1709 -0.7986 0.5771
vn 0.2704 0.7803 -0.5639
vn 0.2836 -0.0000 -0.9590
vn 0.2637 -0.8456 -0.4641
vn 0.2736 0.7774 0.5663
vn 0.2786 -0.0708 0.9578
vn 0.2637 -0.8234 0.5024
vn -0.0507 -0.0101 -0.9987
vn 0.1004 0.8493 -0.5182
vn 0.0427 0.8818 0.4697
vn -0.1332 -0.8011 -0.5835
vn -0.1351 0.0730 -0.9881
vn -0.1268 0.8467 -0.5167
vn -0.1265 0.8696 0.4773
vn 0.0471 0.9989 -0.0000
vn -0.0531 0.8524 -0.5201
vn -0.1421 0.9524 -0.2696
vn -0.1730 0.1894 -0.9665
vn 0.1491 -0.9306 -0.3343
vn -0.6369 -0.0000 0.7709
vn -0.1977 0.3873 0.9005
vn 0.0974 -0.0000 0.9952
vn -0.2218 -0.0000 0.9751
vn 0.1867 -0.9215 -0.3406
vn 0.6261 -0.6848 0.3729
vn 0.4618 -0.8056 0.3712
vn 0.1582 -0.9874 -0.0000
vn -0.0000 0.0737 -0.9973
vn -0.0000 -0.8083 -0.5888
vn 0.2492 0.7828 0.5702
vn 0.2463 0.7856 -0.5677
vn -0.0000 0.8766 0.4812
vn 0.2401 -0.8510 -0.4671
vn -0.0000 -0.8105 0.5857
vn 0.2584 -0.0000 -0.9660
vn -0.0000 0.8536 -0.5209
vn 0.2538 -0.0713 0.9646
vn 0.2401 -0.8287 0.5056
vn -0.1313 -0.8035 0.5806
vn -0.1373 -0.0000 0.9905
vn -0.1464 0.9518 0.2694
vn -0.0764 0.8741 0.4798
vn 0.0789 -0.0000 0.9969
vn 0.0587 0.8751 0.4804
vn 0.0929 -0.8070 0.5832
vn 0.1012 -0.8041 -0.5858
vn 0.0883 0.0734 -0.9934
vn 0.0654 0.8518 -0.5198
vn -0.3602 0.0687 -0.9303
vn -0.3782 -0.7483 -0.5451
vn -0.2218 -0.0000 -0.9751
vn 0.0655 0.8518 -0.5197
vn 0.4528 0.5277 -0.7187
vn 0.5651 0.5123 -0.6467
vn 0.6518 -0.6809 -0.3340
vn 0.6871 -0.6626 0.2981
vn 0.5158 0.5520 0.6552
vn -0.5102 -0.4700 0.7202
vn -0.4973 -0.5804 0.6449
vn -0.5512 -0.5995 -0.5803
vn -0.5716 -0.4960 -0.6537
vn 0.6172 0.5333 0.5785
vn 0.0641 -0.6606 -0.7480
vn 0.0641 -0.6606 0.7480
vn -0.0006 -0.7146 0.6995
vn 0.0036 0.6622 0.7493
vn 0.4966 -0.5746 -0.6506
vn 0.6244 -0.5170 0.5855
vn -0.0013 0.6619 0.7496
vn -0.0013 0.6619 -0.7496
vn -0.0012 0.6618 -0.7496
vn 0.0060 -0.6619 -0.7495
vn 0.0060 -0.6619 0.7495
vn 0.0044 -0.6632 0.7484
vn 0.2035 0.9421 0.2667
vn 0.7524 0.4360 -0.4937
vn 0.7524 0.4360 0.4937
vn 0.2035 0.9421 -0.2667
vn 0.0039 0.6619 -0.7496
vn 0.0036 0.6622 -0.7493
vn 0.4966 0.5746 0.6506
vn 0.4966 0.5746 -0.6506
vn 0.4966 -0.5746 0.6506
vn 0.0039 0.6619 0.7496
vn 0.6244 -0.5170 -0.5855
vn 0.0044 -0.6632 -0.7484
vn -0.0012 0.6618 0.7496
vn -0.0006 -0.7146 -0.6995
vn -0.0000 0.6619 0.7496
vn -0.0000 0.6619 -0.7496
vn 0.0589 0.6557 -0.7527
vn -0.0388 -0.6726 -0.7390
vn -0.0516 -0.6593 -0.7501
vn -0.0516 -0.6593 0.7501
vn -0.0000 -0.6619 -0.7496
vn -0.0000 -0.6619 0.7496
vn -0.0388 -0.6726 0.7390
vn 0.0589 0.6557 0.7527
vn 0.0732 0.6699 0.7388
vn 0.0732 0.6699 -0.7388
vn 0.4599 0.8880 -0.0000
vn 0.7170 0.4614 -0.5225
vn 0.5656 -0.5459 0.6182
vn 0.7170 0.4614 0.5225
vn 0.5656 -0.5459 -0.6182
vn 0.9695 0.2451 -0.0000
vn 0.9685 -0.2490 -0.0000
vn 0.0793 0.6704 -0.7377
vn 0.0793 0.6704 0.7377
vn -0.0571 -0.6583 0.7506
vn -0.0571 -0.6583 -0.7506
vn -0.0775 -0.6544 0.7522
vn -0.0775 -0.6544 -0.7522
vn 0.1004 0.6721 0.7336
vn 0.1004 0.6721 -0.7336
vn -0.4658 -0.5768 0.6710
vn -0.3949 -0.5797 0.7128
vn -0.3059 -0.6493 0.6963
vn 0.6888 0.3518 0.6339
vn -0.5804 -0.6600 0.4769
vn 0.1872 -0.8795 -0.4376
vn 0.1752 -0.1546 -0.9723
vn 0.4888 0.4923 -0.7202
vn 0.0974 -0.0168 0.9951
vn 0.6771 -0.7341 -0.0524
vn 0.6319 0.3222 -0.7049
vn 0.6318 0.3222 -0.7050
vn -0.3716 -0.6702 -0.6425
vn 0.6159 -0.7878 -0.0000
vn 0.2758 -0.8687 -0.4114
vn 0.0627 0.6552 -0.7528
vn -0.0415 -0.6732 -0.7383
vn -0.0908 -0.6850 0.7229
vn -0.0415 -0.6732 0.7383
vn -0.0908 -0.6850 -0.7229
vn 0.0627 0.6552 0.7528
vn 0.0751 0.6536 -0.7531
vn -0.0500 -0.6754 -0.7357
vn -0.0500 -0.6754 0.7357
vn 0.0751 0.6536 0.7531
vt 0.356988 0.517048
vt 0.380057 0.420612
vt 0.375806 0.513706
vt 0.396257 0.610789
vt 0.372861 0.627353
vt 0.409260 0.659240
vt 0.361640 0.415552
vt 0.334031 0.407949
vt 0.390304 0.304944
vt 0.409975 0.326010
vt 0.424414 0.338513
vt 0.411838 0.599747
vt 0.409250 0.659289
vt 0.328758 0.522070
vt 0.429990 0.616159
vt 0.430112 0.616164
vt 0.420634 0.632809
vt 0.420713 0.632790
vt 0.420713 0.632789
vt 0.901408 0.896801
vt 0.915077 0.976776
vt 0.915077 0.896801
vt 0.915077 0.816391
vt 0.970064 0.816391
vt 0.970064 0.737456
vt 0.983459 0.816391
vt 0.891934 0.181679
vt 0.901408 0.261453
vt 0.901408 0.181679
vt 0.915077 0.181679
vt 0.915077 0.101682
vt 0.970064 0.101682
vt 0.915077 0.022933
vt 0.983459 0.499053
vt 0.983459 0.420368
vt 0.970064 0.420368
vt 0.970064 0.340760
vt 0.915077 0.340760
vt 0.915077 0.261453
vt 0.901408 0.340760
vt 0.970064 0.499053
vt 0.970064 0.577646
vt 0.915077 0.577646
vt 0.915077 0.657120
vt 0.901408 0.577646
vt 0.034855 0.919022
vt 0.071332 0.855838
vt 0.084433 0.868952
vt 0.148421 0.868579
vt 0.180415 0.923998
vt 0.197999 0.919022
vt 0.578573 0.914519
vt 0.606331 0.943423
vt 0.633078 0.859566
vt 0.528089 0.926959
vt 0.492073 0.889455
vt 0.454292 0.903619
vt 0.869231 0.194367
vt 0.846029 0.275110
vt 0.824311 0.193954
vt 0.853111 0.169758
vt 0.891934 0.896801
vt 0.891934 0.976776
vt 0.901408 0.816391
vt 0.901408 0.737456
vt 0.891934 0.261453
vt 0.970064 0.261453
vt 0.915077 0.420368
vt 0.901408 0.420368
vt 0.901408 0.499053
vt 0.891934 0.420368
vt 0.052439 0.923998
vt 0.826816 0.041691
vt 0.843720 0.060909
vt 0.856008 0.061121
vt 0.840878 0.169742
vt 0.983459 0.577646
vt 0.970064 0.657120
vt 0.891934 0.737456
vt 0.901408 0.657120
vt 0.028727 0.936301
vt 0.014210 0.950778
vt 0.085258 0.952024
vt 0.078883 0.984544
vt 0.151837 0.984544
vt 0.145463 0.952023
vt 0.216511 0.950777
vt 0.201993 0.936301
vt 0.111867 0.057960
vt 0.062816 0.030264
vt 0.084859 0.032288
vt 0.060104 0.111859
vt 0.183789 0.077001
vt 0.031359 0.061538
vt 0.033300 0.084165
vt 0.058567 0.008162
vt 0.850128 0.015926
vt 0.873169 0.041934
vt 0.970064 0.896801
vt 0.970064 0.976776
vt 0.983459 0.896801
vt 0.891934 0.340760
vt 0.901408 0.101682
vt 0.901408 0.022933
vt 0.983459 0.181679
vt 0.983459 0.101682
vt 0.970064 0.022933
vt 0.970064 0.181679
vt 0.983459 0.261453
vt 0.915077 0.499053
vt 0.125607 0.021475
vt 0.080353 0.184237
vt 0.023843 0.126429
vt 0.593042 0.864576
vt 0.578573 0.914520
vt 0.840879 0.169646
vt 0.915077 0.737456
vt 0.891934 0.577646
vt 0.891934 0.657120
vt 0.439865 0.014699
vt 0.224537 0.072396
vt 0.655195 0.072396
vt 0.066906 0.230027
vt 0.840698 0.892620
vt 0.788433 0.940170
vt 0.862185 0.825308
vt 0.847138 0.756271
vt 0.014115 0.951166
vt 0.085166 0.952212
vt 0.078884 0.984750
vt 0.145555 0.952006
vt 0.216606 0.950960
vt 0.202129 0.936443
vt 0.439866 0.876014
vt 0.655195 0.818317
vt 0.224537 0.818317
vt 0.066906 0.660686
vt 0.901408 0.976776
vt 0.812826 0.230027
vt 0.870524 0.445357
vt 0.891934 0.101682
vt 0.652084 0.933730
vt 0.799588 0.704007
vt 0.719396 0.955217
vt 0.983459 0.340760
vt 0.161522 0.855838
vt 0.106895 0.787168
vt 0.065247 0.830873
vt 0.065248 0.787168
vt 0.023598 0.830873
vt 0.106895 0.830873
vt 0.148545 0.830873
vt 0.148545 0.787169
vt 0.106895 0.787169
vt 0.065248 0.787169
vt 0.065248 0.830874
vt 0.023598 0.787169
vt 0.190762 0.038829
vt 0.080329 0.184149
vt 0.516938 0.965450
vt 0.440254 0.935386
vt 0.376365 0.989777
vt 0.360246 0.945334
vt 0.292468 0.988995
vt 0.309413 0.944860
vt 0.229605 0.933422
vt 0.271326 0.911189
vt 0.309414 0.944860
vt 0.009208 0.445357
vt 0.891934 0.499053
vt 0.891934 0.816391
vt 0.812826 0.660686
vt 0.862185 0.825309
vt 0.983459 0.737456
vt 0.983459 0.657120
vt 0.028592 0.936649
vt 0.983459 0.976776
vt 0.891934 0.022933
vt 0.983459 0.022933
vt 0.145371 0.952041
vt 0.010312 0.055259
vt 0.042293 0.191288
vt 0.398954 0.912379
vt 0.754818 0.963741
vt 0.820763 0.888056
vt 0.703729 0.928989
vt 0.744282 0.855306
vt 0.684245 0.830596
vt 0.761574 0.802936
vt 0.700110 0.781510
vt 0.716269 0.716185
vt 0.619584 0.799539
vt 0.624476 0.729879
vt 0.537754 0.728148
vt 0.529490 0.647748
vt 0.467353 0.734053
vt 0.540116 0.770629
vt 0.541353 0.826220
vt 0.545242 0.898219
vt 0.481183 0.832120
vt 0.784993 0.737242
vt 0.697372 0.634382
vt 0.376496 0.749224
vt 0.392769 0.818981
vt 0.471995 0.774399
vt 0.607163 0.899480
vt 0.659338 0.911135
vt 0.876149 0.752569
vt 0.794615 0.655093
vt 0.849113 0.802907
vt 0.692399 0.593916
vt 0.617996 0.646817
vt 0.489355 0.903711
vt 0.426398 0.916657
vt 0.742789 0.985494
vt 0.693416 0.953214
vt 0.650050 0.936533
vt 0.433370 0.944659
vt 0.492306 0.929895
vt 0.604565 0.927551
vt 0.546877 0.925229
vt 0.146569 0.579699
vt 0.118889 0.575500
vt 0.141987 0.655257
vt 0.114196 0.658213
vt 0.145803 0.726279
vt 0.116879 0.724609
vt 0.137403 0.789014
vt 0.109049 0.783087
vt 0.121559 0.855525
vt 0.091426 0.844472
vt 0.260741 0.783781
vt 0.253819 0.834825
vt 0.269264 0.730928
vt 0.181657 0.658608
vt 0.266107 0.667843
vt 0.193175 0.619744
vt 0.144232 0.921917
vt 0.094882 0.905638
vt 0.247568 0.887995
vt 0.228799 0.948306
vt 0.281386 0.930085
vt 0.195234 0.579261
vt 0.274900 0.617087
vt 0.886470 0.919634
vt 0.886431 0.983093
vt 0.811711 0.983093
vt 0.983761 0.919621
vt 0.971986 0.854106
vt 0.811792 0.919340
vt 0.727515 0.919621
vt 0.802624 0.854236
vt 0.983761 0.983093
vt 0.820545 0.853226
vt 0.727515 0.983093
vt 0.879018 0.853904
vt 0.147386 0.506533
vt 0.118443 0.504935
vt 0.069414 0.891794
vt 0.069424 0.891019
vt 0.045978 0.830341
vt 0.058927 0.770765
vt 0.070589 0.496145
vt 0.069681 0.570596
vt 0.069321 0.649506
vt 0.736605 0.854236
vt 0.066871 0.715956
vt 0.316061 0.704324
vt 0.283693 0.566331
vt 0.895808 0.854106
vt 0.019120 0.875312
vt 0.215776 0.069631
vt 0.216490 0.022332
vt 0.159537 0.069939
vt 0.147467 0.022959
vt 0.109802 0.066385
vt 0.097640 0.019321
vt 0.218780 0.213715
vt 0.216437 0.165326
vt 0.160183 0.165629
vt 0.218139 0.118275
vt 0.149199 0.118276
vt 0.149841 0.214415
vt 0.122970 0.153304
vt 0.124465 0.098351
vt 0.071893 0.098336
vt 0.071868 0.173182
vt 0.019493 0.158617
vt 0.326440 0.663303
vt 0.349827 0.622565
vt 0.019245 0.098480
vt 0.289633 0.888779
vt 0.326278 0.867983
vt 0.340563 0.796773
vt 0.314773 0.763453
vt 0.333360 0.479311
vt 0.281541 0.503775
vt 0.329538 0.528078
vt 0.362319 0.566046
vt 0.019634 0.192749
vt 0.075716 0.249498
vt 0.123945 0.194057
vt 0.126045 0.239874
vt 0.025008 0.239949
vt 0.312469 0.828175
vt 0.338687 0.597422
vt 0.023251 0.291523
vt 0.128443 0.290605
vt 0.314637 0.094010
vt 0.356413 0.159203
vt 0.390347 0.125219
vt 0.298581 0.141160
vt 0.290682 0.136197
vt 0.250088 0.157747
vt 0.245200 0.149858
vt 0.380077 0.050720
vt 0.297641 0.045659
vt 0.339454 0.017223
vt 0.257079 0.016752
vt 0.274421 0.192005
vt 0.290624 0.051805
vt 0.253384 0.025266
vt 0.289823 0.050748
vt 0.305426 0.095138
vt 0.251984 0.531690
vt 0.305423 0.092909
s 0
usemtl texture004_texture004.png
f 1/1/1 2/2/1 3/3/1
f 4/1/2 3/3/2 2/2/2
f 3/3/3 4/1/3 5/4/3
f 6/5/4 5/4/4 4/1/4
f 5/4/5 6/5/5 7/6/5
f 8/4/6 7/6/6 6/5/6
f 9/2/7 10/1/7 11/7/7
f 12/8/8 11/7/8 10/1/8
f 11/7/9 12/8/9 13/9/9
f 14/10/10 13/9/10 12/8/10
f 13/9/11 14/10/11 15/8/11
f 15/8/12 4/1/12 16/7/12
f 2/2/2 16/7/2 4/1/2
f 16/7/13 2/2/13 17/11/13
f 18/7/14 17/11/14 2/2/14
f 11/7/15 17/11/15 9/2/15
f 19/7/16 9/2/16 17/11/16
f 9/2/17 19/7/17 20/1/17
f 12/8/18 20/1/18 19/7/18
f 22/4/19 10/1/19 21/12/19
f 10/1/20 22/4/20 23/5/20
f 24/13/21 23/5/21 22/4/21
f 23/5/22 24/13/22 25/4/22
f 1/1/23 15/8/23 18/7/23
f 14/10/11 18/7/11 15/8/11
f 18/7/14 14/10/14 17/11/14
f 19/7/16 17/11/16 14/10/16
f 4/1/12 15/8/12 26/14/12
f 1/1/23 26/14/23 15/8/23
f 26/14/24 1/1/24 6/5/24
f 16/7/13 17/11/13 27/10/13
f 11/7/15 27/10/15 17/11/15
f 27/10/9 11/7/9 13/9/9
f 10/1/7 9/2/7 28/3/7
f 20/1/17 28/3/17 9/2/17
f 28/3/25 20/1/25 21/12/25
f 12/8/8 10/1/8 29/14/8
f 23/5/20 29/14/20 10/1/20
f 29/14/26 23/5/26 20/1/26
f 25/4/26 20/1/26 23/5/26
f 20/1/25 25/4/25 21/12/25
f 30/15/27 21/12/27 25/4/27
f 1/1/28 3/3/28 31/12/28
f 5/4/3 31/12/3 3/3/3
f 31/12/29 5/4/29 32/16/29
f 6/5/24 1/1/24 8/4/24
f 31/12/28 8/4/28 1/1/28
f 8/4/30 31/12/30 32/16/30
f 30/15/27 25/4/27 33/17/27
f 24/13/22 33/17/22 25/4/22
f 30/15/31 34/17/31 22/4/31
f 24/13/21 22/4/21 34/17/21
f 32/16/29 5/4/29 35/18/29
f 7/6/5 35/18/5 5/4/5
f 32/16/30 36/19/30 8/4/30
f 7/6/6 8/4/6 36/19/6
f 15/8/32 27/10/32 13/9/32
f 27/10/32 15/8/32 16/7/32
f 21/12/19 10/1/19 28/3/19
f 6/5/4 4/1/4 26/14/4
f 2/2/1 1/1/1 18/7/1
f 14/10/10 12/8/10 19/7/10
f 20/1/18 12/8/18 29/14/18
f 30/15/31 22/4/31 21/12/31
usemtl texture003_texture003.png
f 38/20/33 37/21/33 39/22/33
f 38/20/34 39/22/34 40/23/34
f 41/24/35 40/23/35 39/22/35
f 40/23/36 41/24/36 42/25/36
f 43/26/37 42/25/37 41/24/37
f 44/27/38 45/28/38 46/29/38
f 47/30/39 46/29/39 45/28/39
f 46/29/40 47/30/40 48/31/40
f 49/32/41 48/31/41 47/30/41
f 48/31/42 49/32/42 50/33/42
f 51/34/43 52/35/43 53/36/43
f 54/37/44 53/36/44 52/35/44
f 53/36/45 54/37/45 55/38/45
f 56/39/46 55/38/46 54/37/46
f 55/38/47 56/39/47 57/40/47
f 58/41/43 51/34/43 53/36/43
f 51/34/48 58/41/48 59/42/48
f 60/43/49 59/42/49 58/41/49
f 59/42/50 60/43/50 61/44/50
f 62/45/51 61/44/51 60/43/51
f 63/46/52 64/47/52 65/48/52
f 66/49/53 65/48/53 64/47/53
f 65/48/54 66/49/54 67/50/54
f 68/51/55 67/50/55 66/49/55
f 67/50/56 68/51/56 69/49/56
f 72/52/57 71/53/57 70/54/57
f 71/53/58 72/52/58 73/55/58
f 74/56/54 73/55/54 72/52/54
f 73/55/59 74/56/59 75/57/59
f 76/55/60 75/57/60 74/56/60
f 77/58/61 78/59/61 79/60/61
f 79/60/62 77/58/62 80/61/62
f 81/58/61 82/59/61 83/60/61
f 83/60/62 81/58/62 84/61/62
f 38/20/63 86/62/63 85/63/63
f 86/62/64 38/20/64 87/64/64
f 40/23/34 87/64/34 38/20/34
f 87/64/65 40/23/65 88/65/65
f 89/66/66 57/40/66 45/28/66
f 56/39/47 45/28/47 57/40/47
f 45/28/39 56/39/39 47/30/39
f 90/67/67 47/30/67 56/39/67
f 53/36/45 55/38/45 91/68/45
f 92/69/68 91/68/68 55/38/68
f 91/68/69 92/69/69 93/70/69
f 94/71/70 93/70/70 92/69/70
f 96/48/71 69/49/71 95/47/71
f 69/49/54 96/48/54 97/72/54
f 63/46/72 97/72/72 96/48/72
f 97/72/52 63/46/52 65/48/52
f 99/73/62 100/74/62 98/75/62
f 80/61/62 98/75/62 100/74/62
f 98/75/61 80/61/61 101/76/61
f 59/42/48 102/77/48 51/34/48
f 102/77/73 59/42/73 103/78/73
f 61/44/50 103/78/50 59/42/50
f 103/78/74 61/44/74 42/25/74
f 88/65/75 104/79/75 87/64/75
f 104/79/76 88/65/76 105/80/76
f 61/44/77 105/80/77 88/65/77
f 105/80/51 61/44/51 62/45/51
f 106/81/78 107/82/78 108/83/78
f 109/84/79 108/83/79 107/82/79
f 108/83/80 109/84/80 110/85/80
f 113/86/81 112/87/81 111/88/81
f 112/87/82 113/86/82 110/85/82
f 108/83/80 110/85/80 113/86/80
f 116/89/83 115/90/83 114/91/83
f 115/90/84 116/89/84 117/92/84
f 118/93/85 117/92/85 116/89/85
f 120/94/86 117/92/86 119/95/86
f 117/92/84 120/94/84 115/90/84
f 121/96/87 115/90/87 120/94/87
f 122/95/88 123/92/88 124/94/88
f 125/90/89 124/94/89 123/92/89
f 124/94/90 125/90/90 126/96/90
f 127/97/61 128/98/61 99/73/61
f 98/75/61 99/73/61 128/98/61
f 130/99/91 39/22/91 129/100/91
f 39/22/35 130/99/35 41/24/35
f 131/101/92 41/24/92 130/99/92
f 89/66/66 132/102/66 57/40/66
f 92/69/93 57/40/93 132/102/93
f 57/40/68 92/69/68 55/38/68
f 44/27/94 46/29/94 133/103/94
f 48/31/40 133/103/40 46/29/40
f 133/103/95 48/31/95 134/104/95
f 135/105/96 136/106/96 49/32/96
f 137/107/97 49/32/97 136/106/97
f 49/32/42 137/107/42 50/33/42
f 135/105/96 49/32/96 138/108/96
f 47/30/41 138/108/41 49/32/41
f 138/108/67 47/30/67 90/67/67
f 90/67/98 139/109/98 135/105/98
f 139/109/99 90/67/99 54/37/99
f 56/39/46 54/37/46 90/67/46
f 58/41/100 91/68/100 140/110/100
f 93/70/69 140/110/69 91/68/69
f 140/110/101 93/70/101 60/43/101
f 125/90/89 123/92/89 141/89/89
f 118/93/85 141/89/85 123/92/85
f 141/89/102 118/93/102 142/111/102
f 144/112/103 123/92/103 143/113/103
f 123/92/85 144/112/85 118/93/85
f 117/92/85 118/93/85 144/112/85
f 72/52/57 70/54/57 145/114/57
f 146/115/104 145/114/104 70/54/104
f 145/114/54 146/115/54 74/56/54
f 70/54/104 147/53/104 146/115/104
f 76/55/105 146/115/105 147/53/105
f 146/115/54 76/55/54 74/56/54
f 101/76/62 80/61/62 100/74/62
f 80/61/61 79/60/61 101/76/61
f 84/61/61 83/60/61 148/116/61
f 148/116/62 84/61/62 149/74/62
f 88/65/65 40/23/65 150/117/65
f 42/25/36 150/117/36 40/23/36
f 150/117/74 42/25/74 61/44/74
f 60/43/101 93/70/101 62/45/101
f 151/118/106 62/45/106 93/70/106
f 62/45/107 151/118/107 152/119/107
f 153/120/62 154/121/62 155/122/62
f 156/123/62 155/122/62 154/121/62
f 157/124/61 158/125/61 159/126/61
f 160/127/61 159/126/61 158/125/61
f 161/128/108 162/129/108 163/130/108
f 164/85/109 163/130/109 162/129/109
f 164/85/110 165/131/110 166/132/110
f 167/133/111 166/132/111 165/131/111
f 168/134/62 169/135/62 170/136/62
f 171/137/62 170/136/62 169/135/62
f 37/21/33 38/20/33 172/138/33
f 85/63/63 172/138/63 38/20/63
f 155/122/62 156/123/62 173/139/62
f 174/140/62 173/139/62 156/123/62
f 44/27/94 133/103/94 175/141/94
f 134/104/112 175/141/112 133/103/112
f 160/127/61 176/142/61 177/143/61
f 178/127/61 177/143/61 176/142/61
f 176/142/61 160/127/61 179/144/61
f 158/125/61 179/144/61 160/127/61
f 139/109/99 54/37/99 180/145/99
f 52/35/44 180/145/44 54/37/44
f 69/49/54 97/72/54 67/50/54
f 65/48/54 67/50/54 97/72/54
f 95/47/71 69/49/71 181/146/71
f 68/51/56 181/146/56 69/49/56
f 64/47/53 182/146/53 66/49/53
f 68/51/55 66/49/55 182/146/55
f 183/147/84 184/148/84 185/149/84
f 186/150/113 185/149/113 184/148/113
f 184/148/84 183/147/84 187/151/84
f 188/152/114 187/151/114 183/147/114
f 183/147/114 189/153/114 188/152/114
f 190/151/115 188/152/115 189/153/115
f 189/153/115 191/154/115 190/151/115
f 192/155/89 190/151/89 191/154/89
f 190/151/89 192/155/89 193/156/89
f 194/157/116 193/156/116 192/155/116
f 195/111/117 196/158/117 118/93/117
f 142/111/118 118/93/118 196/158/118
f 197/89/54 198/93/54 199/159/54
f 200/89/54 199/159/54 198/93/54
f 71/53/58 73/55/58 201/160/58
f 75/57/59 201/160/59 73/55/59
f 147/53/105 202/160/105 76/55/105
f 75/57/60 76/55/60 202/160/60
f 203/161/119 204/162/119 205/163/119
f 206/164/120 205/163/120 204/162/120
f 205/163/120 206/164/120 207/165/120
f 208/166/121 207/165/121 206/164/121
f 207/165/121 208/166/121 209/167/121
f 210/168/122 209/167/122 208/166/122
f 203/161/123 211/163/123 212/162/123
f 213/164/124 212/162/124 211/163/124
f 208/166/122 213/164/122 210/168/122
f 211/163/124 210/168/124 213/164/124
f 149/74/61 214/75/61 84/61/61
f 156/123/62 215/169/62 174/140/62
f 171/137/62 174/140/62 215/169/62
f 94/71/70 216/170/70 93/70/70
f 151/118/106 93/70/106 216/170/106
f 86/62/64 87/64/64 217/171/64
f 104/79/75 217/171/75 87/64/75
f 174/140/62 171/137/62 218/172/62
f 169/135/62 218/172/62 171/137/62
f 176/142/61 219/144/61 178/127/61
f 220/173/61 178/127/61 219/144/61
f 43/26/37 221/174/37 42/25/37
f 103/78/125 42/25/125 221/174/125
f 102/77/73 103/78/73 222/175/73
f 221/174/125 222/175/125 103/78/125
f 62/45/107 152/119/107 105/80/107
f 104/79/76 105/80/76 152/119/76
f 161/128/126 223/176/126 162/129/126
f 224/91/127 125/90/127 141/89/127
f 225/125/61 226/124/61 220/173/61
f 39/22/91 37/21/91 129/100/91
f 130/99/128 227/177/128 131/101/128
f 227/177/128 130/99/128 129/100/128
f 92/69/93 132/102/93 94/71/93
f 45/28/38 44/27/38 89/66/38
f 175/141/112 134/104/112 228/178/112
f 137/107/97 136/106/97 229/179/97
f 90/67/98 135/105/98 138/108/98
f 134/104/95 48/31/95 50/33/95
f 91/68/100 58/41/100 53/36/100
f 63/46/72 96/48/72 95/47/72
f 164/85/109 162/129/109 230/180/109
f 185/149/113 186/150/113 194/157/113
f 193/156/116 194/157/116 186/150/116
f 121/96/87 120/94/87 231/181/87
f 124/94/90 126/96/90 232/181/90
f 144/112/103 143/113/103 233/182/103
f 234/113/129 144/112/129 233/182/129
f 144/112/130 234/113/130 117/92/130
f 195/111/131 118/93/131 116/89/131
f 197/89/54 199/159/54 235/92/54
f 199/159/54 200/89/54 236/92/54
f 74/56/54 72/52/54 145/114/54
f 203/161/119 205/163/119 237/183/119
f 211/163/123 203/161/123 237/183/123
f 98/75/61 101/76/61 100/74/61
f 60/43/49 58/41/49 140/110/49
f 41/24/92 131/101/92 43/26/92
f 220/173/61 219/144/61 225/125/61
f 61/44/77 88/65/77 150/117/77
usemtl texture000_texture000.png
f 238/184/132 239/185/132 240/186/132
f 241/187/133 240/186/133 239/185/133
f 240/186/134 241/187/134 242/188/134
f 243/189/135 242/188/135 241/187/135
f 242/188/135 243/189/135 244/190/135
f 245/191/136 244/190/136 243/189/136
f 244/190/137 245/191/137 246/192/137
f 247/193/138 246/192/138 245/191/138
f 246/192/139 247/193/139 248/194/139
f 249/195/140 248/194/140 247/193/140
f 249/195/141 250/196/141 248/194/141
f 251/197/142 248/194/142 250/196/142
f 248/194/143 251/197/143 246/192/143
f 252/198/144 246/192/144 251/197/144
f 246/192/145 252/198/145 253/199/145
f 254/200/146 253/199/146 252/198/146
f 241/187/147 239/185/147 243/189/147
f 255/201/148 243/189/148 239/185/148
f 243/189/136 255/201/136 245/191/136
f 256/202/149 245/191/149 255/201/149
f 245/191/150 256/202/150 247/193/150
f 257/203/151 258/204/151 250/196/151
f 259/205/152 250/196/152 258/204/152
f 250/196/142 259/205/142 251/197/142
f 252/198/153 251/197/153 259/205/153
f 253/199/154 260/206/154 246/192/154
f 261/207/155 246/192/155 260/206/155
f 246/192/156 261/207/156 242/188/156
f 240/186/134 242/188/134 261/207/134
f 255/201/157 263/208/157 262/209/157
f 263/208/158 255/201/158 264/210/158
f 239/185/159 264/210/159 255/201/159
f 255/201/160 265/211/160 256/202/160
f 256/202/161 266/212/161 247/193/161
f 258/204/162 254/200/162 259/205/162
f 254/200/163 258/204/163 267/213/163
f 268/214/164 267/213/164 258/204/164
f 269/215/165 270/216/165 271/186/165
f 272/217/166 271/186/166 270/216/166
f 271/186/166 272/217/166 273/207/166
f 260/206/167 273/207/167 272/217/167
f 274/218/168 275/213/168 276/219/168
f 277/199/169 276/219/169 275/213/169
f 272/217/167 278/220/167 260/206/167
f 279/221/170 260/206/170 278/220/170
f 276/219/169 277/199/169 279/221/169
f 260/206/170 279/221/170 277/199/170
f 255/201/171 262/209/171 265/211/171
f 259/205/153 254/200/153 252/198/153
f 246/192/172 242/188/172 244/190/172
f 249/195/173 247/193/173 266/212/173
f 253/199/146 254/200/146 267/213/146
f 271/186/165 238/184/165 269/215/165
f 275/213/168 274/218/168 268/214/168
usemtl texture001_texture001.png
f 280/222/174 281/223/174 282/224/174
f 283/225/174 282/224/174 281/223/174
f 282/224/175 283/225/175 284/226/175
f 285/227/175 284/226/175 283/225/175
f 284/226/176 285/227/176 286/228/176
f 287/229/176 286/228/176 285/227/176
f 286/228/177 287/229/177 288/230/177
f 289/231/177 288/230/177 287/229/177
f 291/232/178 286/228/178 290/233/178
f 286/228/179 291/232/179 284/226/179
f 292/234/180 284/226/180 291/232/180
f 284/226/181 292/234/181 293/235/181
f 294/236/85 293/235/85 292/234/85
f 293/235/182 294/236/182 295/237/182
f 297/238/183 288/230/183 296/239/183
f 288/230/184 297/238/184 298/240/184
f 299/241/185 298/240/185 297/238/185
f 298/240/186 299/241/186 300/242/186
f 295/237/187 280/222/187 293/235/187
f 280/222/188 295/237/188 301/243/188
f 294/236/189 301/243/189 295/237/189
f 301/243/190 294/236/190 302/244/190
f 305/245/191 304/246/191 303/247/191
f 304/246/192 305/245/192 306/248/192
f 307/249/193 306/248/193 305/245/193
f 306/248/194 307/249/194 308/245/194
f 311/250/54 310/247/54 309/246/54
f 310/247/195 311/250/195 312/251/195
f 313/252/196 312/251/196 311/250/196
f 308/245/197 309/246/197 314/253/197
f 309/246/54 308/245/54 311/250/54
f 315/254/198 311/250/198 308/245/198
f 317/250/199 303/247/199 316/255/199
f 303/247/191 317/250/191 305/245/191
f 318/256/200 305/245/200 317/250/200
f 312/251/195 316/255/195 310/247/195
f 316/255/199 312/251/199 317/250/199
f 319/252/201 317/250/201 312/251/201
f 320/222/202 321/223/202 322/257/202
f 323/258/202 322/257/202 321/223/202
f 324/259/203 296/239/203 289/231/203
f 288/230/203 289/231/203 296/239/203
f 298/240/204 290/233/204 288/230/204
f 286/228/205 288/230/205 290/233/205
f 308/245/197 314/253/197 306/248/197
f 304/246/192 306/248/192 314/253/192
f 325/260/206 289/231/206 326/261/206
f 327/262/207 326/261/207 289/231/207
f 328/263/208 329/264/208 281/223/208
f 330/265/209 281/223/209 329/264/209
f 313/252/196 331/266/196 312/251/196
f 319/252/201 312/251/201 331/266/201
f 281/223/209 330/265/209 283/225/209
f 332/267/210 283/225/210 330/265/210
f 285/227/211 327/262/211 287/229/211
f 289/231/207 287/229/207 327/262/207
f 284/226/212 293/235/212 282/224/212
f 282/224/213 293/235/213 280/222/213
f 294/236/214 292/234/214 333/268/214
f 334/269/190 301/243/190 302/244/190
f 308/245/194 307/249/194 335/270/194
f 315/254/198 308/245/198 336/256/198
f 307/249/193 305/245/193 337/270/193
f 325/260/206 326/261/206 338/271/206
f 328/263/208 281/223/208 339/258/208
f 318/256/200 317/250/200 340/254/200
f 283/225/210 332/267/210 285/227/210
f 327/262/215 285/227/215 332/267/215
f 341/272/216 342/273/216 343/274/216
f 344/275/217 343/274/217 342/273/217
f 343/274/218 344/275/218 345/276/218
f 346/277/219 345/276/219 344/275/219
f 347/278/220 348/279/220 349/280/220
f 350/281/221 349/280/221 348/279/221
f 349/280/222 350/281/222 351/282/222
f 343/274/223 351/282/223 350/281/223
f 341/272/224 343/274/224 350/281/224
f 349/280/225 352/283/225 347/278/225
f 355/284/226 354/285/226 353/286/226
f 354/285/227 355/284/227 356/286/227
f 357/287/228 356/286/228 355/284/228
f 356/286/229 357/287/229 358/288/229
f 359/289/230 294/236/230 333/268/230
f 294/236/89 359/289/89 302/244/89
f 360/290/231 302/244/231 359/289/231
f 363/288/232 362/291/232 361/286/232
f 362/291/233 363/288/233 364/286/233
f 365/287/234 364/286/234 363/288/234
f 367/284/235 366/285/235 364/286/235
f 366/285/236 367/284/236 361/286/236
f 368/287/237 361/286/237 367/284/237
f 298/240/238 369/292/238 290/233/238
f 370/293/239 290/233/239 369/292/239
f 371/294/240 372/295/240 291/232/240
f 292/234/241 291/232/241 372/295/241
f 373/291/242 358/288/242 353/286/242
f 374/287/243 353/286/243 358/288/243
f 298/240/244 300/242/244 369/292/244
f 292/234/245 372/295/245 333/268/245
f 375/296/246 376/297/246 377/298/246
f 377/298/89 376/297/89 334/269/89
f 358/288/247 373/291/247 356/286/247
f 377/298/248 334/269/248 378/299/248
f 364/286/249 365/287/249 367/284/249
f 361/286/250 368/287/250 363/288/250
f 353/286/251 374/287/251 355/284/251
f 353/286/250 379/287/250 380/288/250
f 381/300/252 380/288/252 379/287/252
f 380/288/253 381/300/253 382/287/253
f 383/301/254 382/287/254 381/300/254
f 382/287/255 383/301/255 384/302/255
f 385/303/256 384/302/256 383/301/256
f 384/302/257 385/303/257 386/301/257
f 361/286/249 382/287/249 387/284/249
f 384/302/258 387/284/258 382/287/258
f 387/284/259 384/302/259 379/287/259
f 386/301/260 379/287/260 384/302/260
f 387/284/235 388/285/235 361/286/235
f 388/285/236 387/284/236 353/286/236
f 379/287/237 353/286/237 387/284/237
f 379/287/261 386/301/261 381/300/261
f 389/304/262 381/300/262 386/301/262
f 381/300/263 389/304/263 383/301/263
f 290/233/264 390/305/264 291/232/264
f 371/294/265 291/232/265 390/305/265
f 391/291/233 380/288/233 361/286/233
f 382/287/234 361/286/234 380/288/234
f 302/244/89 392/306/89 334/269/89
f 378/299/266 334/269/266 392/306/266
f 290/233/267 370/293/267 390/305/267
f 380/288/232 391/291/232 353/286/232
f 392/306/268 302/244/268 360/290/268
f 383/301/269 389/304/269 393/307/269
f 394/308/270 385/303/270 383/301/270
f 395/301/271 396/300/271 397/304/271
f 398/301/272 397/304/272 396/300/272
f 398/301/273 399/302/273 400/303/273
f 395/301/274 400/303/274 399/302/274
f 395/301/269 397/304/269 401/307/269
f 402/308/270 400/303/270 395/301/270
f 403/301/275 404/302/275 405/303/275
f 406/301/276 405/303/276 404/302/276
f 403/301/277 407/304/277 408/300/277
f 408/300/278 407/304/278 406/301/278
f 406/301/269 407/304/269 409/307/269
f 410/308/270 405/303/270 406/301/270
f 413/309/279 412/310/279 411/311/279
f 412/310/280 413/309/280 414/312/280
f 415/313/281 414/312/281 413/309/281
f 414/312/282 415/313/282 416/314/282
f 417/315/282 416/314/282 415/313/282
f 418/316/283 413/309/283 411/311/283
f 413/309/284 418/316/284 419/317/284
f 420/318/285 419/317/285 418/316/285
f 419/317/286 420/318/286 421/319/286
f 412/310/287 414/312/287 422/320/287
f 416/314/288 422/320/288 414/312/288
f 419/317/289 421/319/289 423/321/289
f 424/322/290 423/321/290 421/319/290
f 419/317/291 425/323/291 413/309/291
f 426/324/291 413/309/291 425/323/291
f 376/297/292 427/325/292 334/269/292
f 301/243/293 334/269/293 427/325/293
f 413/309/281 428/326/281 415/313/281
f 396/300/252 358/288/252 357/287/252
f 358/288/253 396/300/253 374/287/253
f 395/301/294 374/287/294 396/300/294
f 374/287/295 395/301/295 399/302/295
f 355/284/296 399/302/296 357/287/296
f 398/301/297 357/287/297 399/302/297
f 374/287/298 399/302/298 355/284/298
f 357/287/299 398/301/299 396/300/299
f 363/288/253 408/300/253 365/287/253
f 406/301/300 365/287/300 408/300/300
f 365/287/301 406/301/301 404/302/301
f 403/301/302 368/287/302 404/302/302
f 367/284/259 404/302/259 368/287/259
f 404/302/258 367/284/258 365/287/258
f 363/288/252 368/287/252 408/300/252
f 403/301/303 408/300/303 368/287/303
