# Blender 5.1.1
# www.blender.org
mtllib LampPost.mtl
o Object_2
v -0.808543 13.903345 1.578315
v -1.349824 13.903343 0.640787
v -0.267262 13.370270 0.640787
v 0.274022 13.903343 1.578315
v -0.808543 13.903345 1.578315
v 0.815304 13.903343 0.640787
v 0.274022 13.903343 1.578315
v 0.274022 13.903345 -0.296742
v 0.815304 13.903343 0.640787
v -0.808543 13.903346 -0.296742
v 0.274022 13.903345 -0.296742
v -1.349824 13.903343 0.640787
v -0.808543 13.903346 -0.296742
v 24.426123 9.298404 0.248736
v 24.426123 9.298404 0.248736
v 0.130730 9.298403 0.242795
v -0.534374 9.703403 0.373672
v 0.003312 9.703403 0.370215
v -0.659311 9.298404 0.248736
v -0.665253 9.298404 1.038778
v -0.000148 9.703403 0.907902
v -0.537832 9.703403 0.911358
v 0.124792 9.298403 1.032838
v 0.124792 9.298403 1.032838
v 0.003312 9.703403 0.370215
v -0.000148 9.703403 0.907902
v 0.130730 9.298403 0.242795
v -0.659311 9.298404 0.248736
v -0.537832 9.703403 0.911358
v -0.534374 9.703403 0.373672
v -0.665253 9.298404 1.038778
v 3.730855 0.386273 2.091250
v 3.730855 0.386273 -0.809684
v 2.245687 0.386273 2.091250
v 2.245685 0.386273 -0.809684
v 3.730853 0.386271 3.541716
v 3.730855 0.386273 2.091250
v -0.266600 0.386271 3.541716
v 2.245687 0.386273 2.091250
v 3.730855 0.386273 -0.809684
v 3.730856 0.386272 -2.260150
v 2.245685 0.386273 -0.809684
v -0.266595 0.386272 -2.260152
v -1.204790 16.860970 -0.983060
v -1.349825 17.653463 0.640788
v -0.808542 17.653463 -0.296741
v -2.142318 16.860970 0.640787
v -1.349827 15.778405 -1.234271
v -2.432389 15.778403 0.640787
v -1.204790 14.695838 -0.983062
v -2.142319 14.695837 0.640787
v -0.808543 13.903346 -0.296742
v -1.349824 13.903343 0.640787
v 0.670267 14.695838 2.264636
v -1.204790 14.695838 2.264636
v -0.808543 13.903345 1.578315
v 0.815304 15.778403 2.515846
v 1.897869 15.778403 0.640787
v 1.607798 16.860970 0.640787
v 0.670267 16.860970 -0.983061
v 0.274022 17.653463 -0.296741
v -0.267261 17.943535 0.640789
v -0.808542 17.653461 1.578317
v -1.204790 16.860970 2.264637
v -1.349825 15.778403 2.515846
v 0.274022 13.903343 1.578315
v 0.670268 16.860970 2.264637
v 0.274022 17.653461 1.578317
v 1.607797 14.695838 0.640787
v 0.815304 13.903343 0.640787
v 0.815304 17.653463 0.640788
v 0.815302 15.778404 -1.234271
v 0.670267 14.695839 -0.983062
v 0.274022 13.903345 -0.296742
v 0.003312 9.703403 0.370215
v -0.000741 13.834405 0.374267
v -0.000148 9.703403 0.907902
v 0.003312 9.703403 0.370215
v -0.527844 13.834404 0.380205
v -0.000741 13.834405 0.374267
v -0.534374 9.703403 0.373672
v -0.534374 9.703403 0.373672
v -0.533781 13.834403 0.907309
v -0.537832 9.703403 0.911358
v -0.533781 13.834403 0.907309
v -0.534374 9.703403 0.373672
v -0.537832 9.703403 0.911358
v -0.006678 13.834405 0.901371
v -0.000148 9.703403 0.907902
v -0.000148 9.703403 0.907902
v -0.266595 8.081274 0.640783
v 0.462404 7.271273 -0.088217
v -1.076595 7.271274 -0.088217
v -1.076595 7.271274 -0.088217
v -1.076595 7.271272 1.369783
v -0.266595 8.081274 0.640783
v -1.076595 7.271272 1.369783
v 0.462405 7.271272 1.369783
v -0.266595 8.081274 0.640783
v -0.266595 8.081274 0.640783
v 0.462405 7.271272 1.369783
v 0.462404 7.271273 -0.088217
v 24.426123 9.298404 0.248736
v 0.139396 7.273403 0.234129
v -0.659311 9.298404 0.248736
v 0.130730 9.298403 0.242795
v -0.673919 7.273404 0.234129
v -0.673919 7.273403 1.047444
v 0.124792 9.298403 1.032838
v -0.665253 9.298404 1.038778
v 0.139396 7.273403 1.047444
v 0.139396 7.273403 1.047444
v 0.130730 9.298403 0.242795
v 0.124792 9.298403 1.032838
v 0.139396 7.273403 0.234129
v -0.673919 7.273404 0.234129
v -0.665253 9.298404 1.038778
v -0.659311 9.298404 0.248736
v -0.673919 7.273403 1.047444
v 1.414011 5.246274 -0.329515
v -0.266597 0.791272 -1.823777
v -0.266595 5.246274 -1.299816
v -2.400966 0.791272 -0.591498
v -1.947203 5.246273 -0.329516
v -2.400966 0.791272 1.873061
v -1.947202 5.246272 1.611081
v -0.266595 0.791272 3.105340
v -0.266595 5.246272 2.581381
v 1.867775 0.791271 1.873062
v 1.414011 5.246273 1.611082
v 1.867775 0.791272 -0.591498
v 3.730854 -0.423728 2.091250
v 3.730855 -0.423727 -0.809684
v 3.730855 0.386273 2.091250
v 3.730855 0.386273 -0.809684
v 3.730856 0.386272 -2.260150
v 3.730855 0.386273 -0.809684
v 3.730855 -0.423728 -2.347178
v 3.730855 -0.423727 -0.809684
v 3.730855 -0.423728 -2.347178
v 3.730854 -0.423727 3.628744
v 3.730854 -0.423728 2.091250
v 3.730853 0.386271 3.541716
v 3.730855 0.386273 2.091250
v -0.266595 5.246272 2.581381
v 1.414011 5.246273 1.611082
v -0.266595 6.461273 2.260783
v 1.136366 6.461273 1.450783
v -2.400966 0.791272 -0.591498
v -0.266597 0.791272 -1.823777
v -2.778879 0.386273 -0.809687
v -0.266595 0.386272 -2.260152
v -2.854246 -0.423727 -0.853200
v -0.266595 -0.423728 -2.347179
v -1.669558 6.461273 1.450783
v -0.266595 6.461273 2.260783
v 1.867775 0.791272 -0.591498
v 1.867775 0.791271 1.873062
v 2.245685 0.386273 -0.809684
v 2.245687 0.386273 2.091250
v 1.414011 5.246273 1.611082
v 1.414011 5.246274 -0.329515
v 1.136366 6.461273 1.450783
v 1.136366 6.461274 -0.169218
v -1.669556 6.461273 -0.169218
v -1.669558 6.461273 1.450783
v 1.136366 6.461274 -0.169218
v 1.136366 6.461273 1.450783
v -0.266597 0.791272 -1.823777
v 1.867775 0.791272 -0.591498
v -0.266595 0.386272 -2.260152
v 2.245685 0.386273 -0.809684
v 1.414011 5.246274 -0.329515
v -0.266595 5.246274 -1.299816
v 1.136366 6.461274 -0.169218
v -0.266595 6.461275 -0.979218
v 1.867775 0.791271 1.873062
v -0.266595 0.791272 3.105340
v 2.245687 0.386273 2.091250
v -0.266600 0.386271 3.541716
v 1.136366 6.461274 -0.169218
v -0.266595 6.461275 -0.979218
v -0.266595 5.246274 -1.299816
v -1.947203 5.246273 -0.329516
v -0.266595 6.461275 -0.979218
v -1.947203 5.246273 -0.329516
v -1.947202 5.246272 1.611081
v -1.669556 6.461273 -0.169218
v -1.669558 6.461273 1.450783
v -2.854246 -0.423728 2.134761
v -0.266600 -0.423728 3.628743
v -2.778878 0.386273 2.091247
v -0.266600 0.386271 3.541716
v -2.400966 0.791272 1.873061
v -0.266595 0.791272 3.105340
v -2.854246 -0.423727 -0.853200
v -2.854246 -0.423728 2.134761
v -2.778879 0.386273 -0.809687
v -2.778878 0.386273 2.091247
v -2.400966 0.791272 -0.591498
v -2.400966 0.791272 1.873061
v 3.730856 0.386272 -2.260150
v 3.730855 -0.423728 -2.347178
v -0.266595 -0.423728 -2.347179
v 3.730854 -0.423727 3.628744
v 3.730853 0.386271 3.541716
v -0.266600 -0.423728 3.628743
v -1.947202 5.246272 1.611081
v -0.266595 5.246272 2.581381
v -1.669558 6.461273 1.450783
v -0.266595 6.461273 2.260783
v 0.462404 7.271273 -0.088217
v 0.462405 7.271272 1.369783
v 0.624404 6.461273 -0.250217
v 0.624404 6.461272 1.531783
v -1.076595 7.271274 -0.088217
v 0.462404 7.271273 -0.088217
v -1.238593 6.461274 -0.250217
v 0.624404 6.461273 -0.250217
v -1.076595 7.271272 1.369783
v -1.076595 7.271274 -0.088217
v -1.238594 6.461273 1.531783
v -1.238593 6.461274 -0.250217
v 0.462405 7.271272 1.369783
v -1.076595 7.271272 1.369783
v 0.624404 6.461272 1.531783
v -1.238594 6.461273 1.531783
v 0.815304 13.903343 0.640787
v 0.274022 13.903345 -0.296742
v -0.808543 13.903346 -0.296742
v -0.534374 9.703403 0.373672
v -0.000148 9.703403 0.907902
v 0.003312 9.703403 0.370215
v 0.124792 9.298403 1.032838
v -0.659311 9.298404 0.248736
v 0.130730 9.298403 0.242795
v -0.527844 13.834404 0.380205
v -0.006678 13.834405 0.901371
v -0.000741 13.834405 0.374267
v 0.462404 7.271273 -0.088217
v -1.076595 7.271272 1.369783
v -1.076595 7.271274 -0.088217
v 0.139396 7.273403 0.234129
v -0.673919 7.273403 1.047444
v -0.673919 7.273404 0.234129
v -1.947202 5.246272 1.611081
v -0.266595 5.246272 2.581381
v 1.414011 5.246273 1.611082
v -0.266595 0.791272 3.105340
v -2.400966 0.791272 1.873061
v -2.400966 0.791272 -0.591498
v 3.730855 0.386273 -0.809684
v 2.245685 0.386273 -0.809684
v 2.245687 0.386273 2.091250
v -1.349824 13.903343 0.640787
v -0.808543 13.903345 1.578315
v 0.274022 13.903343 1.578315
v -0.537832 9.703403 0.911358
v -0.665253 9.298404 1.038778
v -0.533781 13.834403 0.907309
v 0.462405 7.271272 1.369783
v 0.139396 7.273403 1.047444
v -0.266595 5.246274 -1.299816
v -1.947203 5.246273 -0.329516
v -0.266597 0.791272 -1.823777
v 1.867775 0.791272 -0.591498
v 1.867775 0.791271 1.873062
v 3.730853 0.386271 3.541716
v 3.730855 0.386273 2.091250
v 2.245687 0.386273 2.091250
v 2.245687 0.386273 2.091250
v 3.730856 0.386272 -2.260150
v 2.245685 0.386273 -0.809684
v -0.266595 0.386272 -2.260152
v 2.245685 0.386273 -0.809684
v -0.266600 0.386271 3.541716
vn -0.2215 -0.8971 0.3823
vn -0.4418 -0.8971 0.0006
vn -0.0000 -1.0000 -0.0000
vn 0.2204 -0.8971 0.3829
vn -0.2204 -0.8971 0.3829
vn 0.4418 -0.8971 0.0006
vn 0.2215 -0.8971 0.3823
vn 0.2214 -0.8971 -0.3823
vn 0.4418 -0.8971 -0.0006
vn -0.2204 -0.8971 -0.3829
vn 0.2204 -0.8971 -0.3829
vn -0.4418 -0.8971 -0.0006
vn -0.2215 -0.8971 -0.3823
vn 0.4088 0.3879 -0.8261
vn -0.4166 0.3836 -0.8242
vn 0.8263 0.3876 -0.4086
vn -0.8244 0.3834 -0.4164
vn -0.4088 0.3879 0.8261
vn 0.4166 0.3836 0.8242
vn -0.8263 0.3876 0.4086
vn 0.8244 0.3834 0.4164
vn 0.4088 0.3878 -0.8261
vn -0.4088 0.3878 0.8261
vn -0.0000 1.0000 -0.0000
vn -0.4128 0.5066 -0.7569
vn -0.5367 0.8398 -0.0819
vn -0.1974 0.8398 -0.5057
vn -0.8619 0.5066 -0.0209
vn -0.5000 -0.0000 -0.8660
vn -1.0000 -0.0000 -0.0000
vn -0.4491 -0.5066 -0.7360
vn -0.8619 -0.5066 0.0209
vn -0.4665 -0.7007 -0.5398
vn -0.7008 -0.7007 0.1341
vn 0.4491 -0.5066 0.7360
vn -0.4128 -0.5066 0.7569
vn -0.2341 -0.7008 0.6739
vn 0.5000 -0.0000 0.8660
vn 1.0000 -0.0000 -0.0000
vn 0.8619 0.5066 0.0209
vn 0.4491 0.5066 -0.7360
vn 0.3393 0.8398 -0.4238
vn -0.3393 0.8398 0.4238
vn -0.4491 0.5066 0.7360
vn -0.5000 -0.0000 0.8660
vn 0.4665 -0.7007 0.5398
vn 0.4128 0.5066 0.7569
vn 0.1974 0.8398 0.5057
vn 0.8619 -0.5066 -0.0209
vn 0.7008 -0.7007 -0.1341
vn 0.5367 0.8398 0.0819
vn 0.5000 -0.0000 -0.8660
vn 0.4128 -0.5066 -0.7569
vn 0.2342 -0.7007 -0.6739
vn 1.0000 0.0025 0.0063
vn 1.0000 0.0013 0.0087
vn 0.8672 -0.4096 0.2832
vn -0.0083 0.0014 -1.0000
vn -0.6207 -0.4798 -0.6201
vn 0.5449 0.5909 -0.5948
vn -0.1287 -0.2243 -0.9660
vn -0.8918 0.0019 -0.4524
vn -0.5444 0.5918 0.5944
vn -0.6199 -0.4798 -0.6208
vn -1.0000 0.0020 -0.0063
vn -1.0000 0.0013 -0.0085
vn -0.9650 -0.1047 -0.2403
vn 0.0068 0.0015 1.0000
vn 0.6207 -0.4798 0.6201
vn -0.5445 0.5918 0.5944
vn 0.4316 -0.2519 0.8662
vn 0.8918 0.0019 0.4524
vn 0.5449 0.5910 -0.5948
vn 0.6199 -0.4798 0.6208
vn 0.0166 0.9397 -0.3415
vn 0.3466 0.2754 -0.8967
vn -0.3503 0.2953 -0.8889
vn -0.6622 0.5515 -0.5073
vn -0.8848 0.3289 0.3301
vn -0.3268 0.9451 -0.0000
vn -0.5112 0.5397 0.6689
vn 0.3467 0.2755 0.8966
vn 0.0166 0.9397 0.3415
vn 0.3473 0.9377 -0.0000
vn 0.6782 0.5182 0.5211
vn 0.6781 0.5183 -0.5211
vn 0.5789 -0.5733 -0.5799
vn -0.0047 0.0052 -1.0000
vn -0.0067 0.0058 -1.0000
vn -0.5794 -0.5723 -0.5804
vn -0.5792 -0.5727 0.5802
vn 0.0043 0.0054 1.0000
vn 0.0070 0.0053 1.0000
vn 0.5794 -0.5722 0.5804
vn 1.0000 0.0073 0.0043
vn 1.0000 0.0058 0.0080
vn 0.5789 -0.5732 -0.5799
vn -0.5794 -0.5723 -0.5803
vn -1.0000 0.0073 -0.0045
vn -0.9999 0.0065 -0.0077
vn 0.7514 0.1147 -0.6498
vn 0.1870 0.1147 -0.9756
vn -0.1870 0.1147 -0.9756
vn -0.7514 0.1147 -0.6498
vn -0.9384 0.1147 -0.3259
vn -0.9384 0.1147 0.3259
vn -0.7514 0.1147 0.6498
vn -0.1870 0.1147 0.9756
vn 0.1870 0.1147 0.9756
vn 0.7514 0.1147 0.6498
vn 0.9384 0.1147 0.3259
vn 0.9384 0.1147 -0.3259
vn 0.7067 -0.7075 -0.0000
vn 0.2250 -0.6511 -0.7249
vn 0.5716 -0.5478 0.6108
vn 0.7066 -0.7076 -0.0000
vn -0.1836 0.2508 0.9505
vn 0.7314 0.2508 0.6342
vn 0.1587 0.5431 0.8245
vn 0.6567 0.7192 0.2269
vn -0.6490 0.7268 -0.2248
vn -0.1304 0.7267 -0.6744
vn -0.7818 0.4599 -0.4211
vn -0.1031 0.3972 -0.9119
vn -0.7972 -0.3913 -0.4597
vn -0.2057 -0.6152 -0.7610
vn -0.4352 0.8177 0.3768
vn 0.6571 0.7186 0.2276
vn 0.5192 0.7268 -0.4497
vn 0.6493 0.7267 0.2242
vn 0.6493 0.7267 -0.2242
vn 0.5192 0.7268 0.4497
vn 0.9149 0.2508 -0.3162
vn 0.6562 0.7194 0.2277
vn 0.4348 0.8180 -0.3766
vn -0.6571 0.7186 -0.2277
vn -0.4352 0.8177 0.3769
vn 0.4352 0.8177 -0.3769
vn 0.6571 0.7186 0.2277
vn -0.1298 0.7268 -0.6745
vn 0.5188 0.7267 -0.4502
vn -0.1029 0.3969 -0.9121
vn 0.6490 0.7268 -0.2248
vn 0.1836 0.2508 -0.9505
vn 0.4347 0.8183 -0.3760
vn -0.1593 0.5433 -0.8243
vn 0.6491 0.7268 0.2248
vn 0.1304 0.7267 0.6744
vn 0.5188 0.7267 0.4502
vn -0.1941 0.5032 0.8421
vn 0.4352 0.8177 -0.3768
vn -0.1587 0.5431 -0.8245
vn -0.6571 0.7186 -0.2276
vn -0.7314 0.2508 -0.6342
vn -0.6567 0.7192 -0.2269
vn -0.9149 0.2508 0.3162
vn -0.6562 0.7194 -0.2277
vn -0.4348 0.8180 0.3766
vn -0.5656 -0.6109 0.5540
vn -0.2058 -0.6144 0.7617
vn -0.7556 0.4599 0.4665
vn -0.1942 0.5033 0.8420
vn -0.5188 0.7267 0.4502
vn 0.1298 0.7268 0.6745
vn -0.7967 -0.3913 -0.4605
vn -0.5657 -0.6104 0.5545
vn -0.6493 0.7267 -0.2242
vn -0.5192 0.7268 0.4497
vn -0.0000 0.1068 -0.9943
vn 0.2252 -0.6515 -0.7244
vn -0.1022 0.3967 -0.9123
vn -0.2061 -0.6153 -0.7609
vn 0.5719 -0.5482 0.6102
vn -0.0000 0.1068 0.9943
vn -0.2063 -0.6144 0.7616
vn -0.1936 0.5035 0.8420
vn -0.4347 0.8183 0.3760
vn 0.1593 0.5433 0.8243
vn -0.2061 -0.6143 -0.7616
vn 0.2251 -0.6507 -0.7252
vn 0.7075 -0.7067 -0.0000
vn 0.4324 0.2592 -0.8636
vn 0.8639 0.2591 0.4319
vn 0.6990 -0.1469 -0.6998
vn 0.7553 -0.5771 0.3105
vn -0.8636 0.2592 -0.4324
vn 0.4319 0.2592 -0.8639
vn -0.7007 -0.1387 -0.6999
vn 0.6998 -0.1469 -0.6990
vn -0.4324 0.2592 0.8636
vn -0.8639 0.2591 -0.4319
vn -0.6990 -0.1469 0.6998
vn -0.6999 -0.1386 -0.7007
vn 0.8636 0.2592 0.4324
vn -0.4319 0.2591 0.8639
vn 0.7557 -0.5767 0.3103
vn -0.6995 -0.1467 0.6994
vn 0.0315 0.9761 0.2148
vn -0.0315 0.9761 -0.2148
vn -0.2183 0.9752 0.0356
vn -0.2002 -0.9747 0.0991
vn 0.2002 -0.9747 -0.0991
vn 0.1022 -0.9736 0.2040
vn -0.6204 -0.4796 -0.6205
vn 0.6204 -0.4796 0.6205
vn 0.5450 0.5909 -0.5948
vn 0.4697 -0.8507 -0.2358
vn -0.2255 -0.8582 0.4611
vn -0.4567 -0.8582 -0.2342
vn 0.5789 -0.5733 -0.5798
vn -0.5792 -0.5727 0.5801
vn -0.5793 -0.5723 -0.5804
vn 0.0067 0.9878 -0.1554
vn -0.1312 0.9878 -0.0835
vn -0.1379 0.9878 0.0719
vn 0.1418 -0.9877 -0.0663
vn 0.1284 -0.9877 0.0896
vn -0.0134 -0.9877 0.1560
vn 0.0989 0.9938 -0.0513
vn -0.0620 0.9938 -0.0926
vn -0.7003 -0.1378 -0.7004
vn 0.6996 -0.1461 -0.6995
vn -0.2061 -0.6135 0.7623
vn -0.5658 -0.6104 0.5544
vn -0.7969 -0.3916 -0.4600
vn 0.2183 0.9752 -0.0356
vn -0.1022 -0.9736 -0.2040
vn 0.4697 -0.8507 0.2359
vn 0.1312 0.9878 0.0835
vn 0.1379 0.9878 -0.0719
vn -0.1418 -0.9877 0.0663
vn -0.1284 -0.9877 -0.0896
vn 0.0135 -0.9877 -0.1560
vn 0.1037 0.9938 -0.0405
vn -0.0060 0.9938 -0.1112
vn 0.0263 0.9938 -0.1082
vn 0.0427 0.9988 0.0247
vn -0.1111 0.9938 -0.0082
vn 0.1035 0.9945 -0.0142
vt 0.742188 0.007812
vt 0.507812 0.007812
vt 0.624531 0.242188
vt 0.507812 0.359836
vt 0.742188 0.257812
vt 0.582250 0.257812
vt 0.742188 0.359836
vt 0.241273 0.741273
vt 0.007812 0.741273
vt 0.241273 0.507812
vt 0.007812 0.507812
vt 0.675086 0.820320
vt 0.683359 0.774359
vt 0.653945 0.774359
vt 0.725641 0.820320
vt 0.683359 0.882805
vt 0.742188 0.882805
vt 0.675086 0.945312
vt 0.725641 0.945312
vt 0.653945 0.991273
vt 0.683359 0.991273
vt 0.574000 0.945312
vt 0.565727 0.882805
vt 0.507812 0.882805
vt 0.523445 0.820320
vt 0.574000 0.820320
vt 0.595117 0.774359
vt 0.624531 0.757812
vt 0.595117 0.991273
vt 0.523445 0.945312
vt 0.565727 0.991273
vt 0.565727 0.774359
vt 0.507812 0.742188
vt 0.757812 0.492188
vt 0.991273 0.007812
vt 0.762406 0.007812
vt 0.991273 0.492188
vt 0.489590 0.007812
vt 0.007812 0.490307
vt 0.109853 0.007812
vt 0.489590 0.490307
vt 0.757812 0.742188
vt 0.992188 0.742188
vt 0.757812 0.585016
vt 0.984828 0.585016
vt 0.879125 0.585930
vt 0.878211 0.742188
vt 0.991273 0.742188
vt 0.796414 0.507812
vt 0.991273 0.507812
vt 0.950820 0.507812
vt 0.757812 0.507812
vt 0.873617 0.630977
vt 0.758727 0.507812
vt 0.992188 0.562961
vt 0.758727 0.562961
vt 0.221047 0.896609
vt 0.028039 0.896609
vt 0.242188 0.992188
vt 0.007812 0.992188
vt 0.507812 0.242188
vt 0.582250 0.492188
vt 0.742188 0.492188
vt 0.502217 0.872357
vt 0.743947 0.653570
vt 0.627217 0.653570
vt 0.109853 0.490068
vt 0.489590 0.490068
vt 0.742188 0.242188
s 1
usemtl COMMON
f 1/1/1 2/2/2 3/3/3
f 4/1/4 5/2/5 3/3/3
f 6/1/6 7/2/7 3/3/3
f 8/1/8 9/2/9 3/3/3
f 10/1/10 11/2/11 3/3/3
f 12/1/12 13/2/13 3/3/3
f 16/4/14 17/5/15 18/6/16
f 16/4/14 19/7/17 17/5/15
f 20/4/18 21/5/19 22/6/20
f 20/4/18 23/7/21 21/5/19
f 24/4/21 25/5/16 26/6/19
f 24/4/21 27/7/22 25/5/16
f 28/4/17 29/5/20 30/6/15
f 28/4/17 31/7/23 29/5/20
s 0
f 32/8/24 33/9/24 34/10/24
f 33/9/24 35/11/24 34/10/24
f 36/8/24 37/9/24 38/10/24
f 37/9/24 39/11/24 38/10/24
f 40/8/24 41/9/24 42/10/24
f 41/9/24 43/11/24 42/10/24
s 1
f 44/12/25 45/13/26 46/14/27
f 44/12/25 47/15/28 45/13/26
f 48/16/29 47/15/28 44/12/25
f 48/16/29 49/17/30 47/15/28
f 50/18/31 49/17/30 48/16/29
f 50/18/31 51/19/32 49/17/30
f 52/20/33 51/19/32 50/18/31
f 52/20/33 53/21/34 51/19/32
f 54/22/35 55/18/36 56/20/37
f 54/22/35 57/23/38 55/18/36
f 58/24/39 57/23/38 54/22/35
f 58/24/39 59/25/40 57/23/38
f 60/26/41 59/25/40 58/24/39
f 60/26/41 61/27/42 59/25/40
f 46/14/27 61/27/42 60/26/41
f 46/14/27 62/28/24 61/27/42
f 45/13/26 62/28/24 46/14/27
f 45/13/26 63/14/43 62/28/24
f 47/15/28 63/14/43 45/13/26
f 47/15/28 64/12/44 63/14/43
f 49/17/30 64/12/44 47/15/28
f 49/17/30 65/16/45 64/12/44
f 51/19/32 65/16/45 49/17/30
f 51/19/32 55/18/36 65/16/45
f 53/21/34 55/18/36 51/19/32
f 53/21/34 56/20/37 55/18/36
f 56/20/37 66/29/46 54/22/35
f 65/16/45 55/18/36 57/23/38
f 65/16/45 57/23/38 67/26/47
f 64/12/44 65/16/45 67/26/47
f 64/12/44 67/26/47 68/27/48
f 63/14/43 64/12/44 68/27/48
f 63/14/43 68/27/48 62/28/24
f 69/30/49 58/24/39 54/22/35
f 69/30/49 54/22/35 66/29/46
f 70/31/50 69/30/49 66/29/46
f 67/26/47 57/23/38 59/25/40
f 67/26/47 59/25/40 71/32/51
f 68/27/48 67/26/47 71/32/51
f 68/27/48 71/32/51 62/28/24
f 72/23/52 60/26/41 58/24/39
f 72/23/52 58/24/39 69/30/49
f 73/22/53 72/23/52 69/30/49
f 73/22/53 69/30/49 70/31/50
f 74/29/54 73/22/53 70/31/50
f 61/27/42 71/32/51 59/25/40
f 61/27/42 62/28/24 71/32/51
f 44/12/25 46/14/27 60/26/41
f 44/12/25 60/26/41 72/23/52
f 48/16/29 44/12/25 72/23/52
f 48/16/29 72/23/52 73/22/53
f 50/18/31 48/16/29 73/22/53
f 50/18/31 73/22/53 74/29/54
f 52/20/33 50/18/31 74/29/54
f 75/33/55 76/33/56 77/33/57
f 78/33/58 79/33/59 80/33/60
f 81/33/61 79/33/59 78/33/58
f 82/33/62 83/33/63 79/33/64
f 84/33/65 85/33/66 86/33/67
f 87/33/68 88/33/69 83/33/70
f 89/33/71 88/33/69 87/33/68
f 90/33/72 80/33/73 88/33/74
f 91/33/75 92/33/76 93/33/77
f 94/33/78 95/33/79 96/33/80
f 97/33/81 98/33/82 99/33/83
f 100/33/84 101/33/85 102/33/86
f 104/34/87 105/35/88 106/36/89
f 104/34/87 107/37/90 105/35/88
f 108/34/91 109/35/92 110/36/93
f 108/34/91 111/37/94 109/35/92
f 112/34/94 113/35/95 114/36/96
f 112/34/94 115/37/97 113/35/95
f 116/34/98 117/35/99 118/36/100
f 116/34/98 119/37/91 117/35/99
f 120/38/101 121/39/102 122/40/103
f 121/39/102 123/41/104 122/40/103
f 122/40/103 123/41/104 124/38/105
f 123/41/104 125/39/106 124/38/105
f 124/38/105 125/39/106 126/40/107
f 125/39/106 127/41/108 126/40/107
f 126/40/107 127/41/108 128/38/109
f 127/41/108 129/39/110 128/38/109
f 128/38/109 129/39/110 130/40/111
f 129/39/110 131/41/112 130/40/111
f 130/40/111 131/41/112 120/38/101
f 131/41/112 121/39/102 120/38/101
f 132/42/113 133/43/113 134/44/39
f 133/43/113 135/45/39 134/44/39
s 0
f 136/46/39 137/44/39 138/47/39
s 1
f 137/44/39 139/42/113 140/47/114
f 141/42/115 142/47/116 143/44/39
f 142/47/116 144/46/39 143/44/39
f 145/42/117 146/48/118 147/49/119
f 146/48/118 148/50/120 147/49/119
f 149/51/121 150/52/122 151/45/123
f 150/52/122 152/44/124 151/45/123
f 151/45/123 152/44/124 153/43/125
f 152/44/124 154/42/126 153/43/125
f 155/53/127 156/54/119 148/50/128
f 157/51/129 158/52/130 159/45/131
f 158/52/130 160/44/132 159/45/131
f 161/42/118 162/48/133 163/49/134
f 162/48/133 164/50/135 163/49/134
f 165/50/136 166/55/137 167/54/138
f 166/55/137 168/56/139 167/54/138
f 169/51/140 170/52/141 171/45/142
f 170/52/141 172/44/143 171/45/142
f 173/42/133 174/48/144 175/49/145
f 174/48/144 176/50/146 175/49/145
f 177/51/147 178/52/148 179/45/149
f 178/52/148 180/44/150 179/45/149
f 181/53/151 182/54/152 165/50/153
f 183/42/144 184/48/154 185/49/152
f 184/48/154 165/50/155 185/49/152
f 186/42/154 187/48/156 188/49/157
f 187/48/156 189/50/158 188/49/157
f 190/42/159 191/43/160 192/44/161
f 191/43/160 193/45/162 192/44/161
f 192/44/161 193/45/162 194/52/163
f 193/45/162 195/51/164 194/52/163
f 196/42/165 197/43/166 198/44/123
f 197/43/166 199/45/161 198/44/123
f 198/44/123 199/45/161 200/52/167
f 199/45/161 201/51/168 200/52/167
f 202/44/169 203/42/170 171/45/171
f 203/42/170 204/43/172 171/45/171
f 205/43/173 206/45/174 207/42/175
f 206/45/174 180/44/176 207/42/175
f 208/42/156 209/48/117 210/49/177
f 209/48/117 211/50/178 210/49/177
f 154/42/179 203/42/180 139/42/181
f 212/57/182 213/58/183 214/59/184
f 213/58/183 215/60/185 214/59/184
f 216/57/186 217/58/187 218/59/188
f 217/58/187 219/60/189 218/59/188
f 220/57/190 221/58/191 222/59/192
f 221/58/191 223/60/193 222/59/192
f 224/57/194 225/58/195 226/59/196
f 225/58/195 227/60/197 226/59/196
s 0
f 228/61/24 229/61/24 230/61/24
s 1
f 231/62/198 232/63/199 233/63/200
f 234/4/201 235/4/202 236/7/203
f 237/64/204 238/64/205 239/64/206
f 240/33/207 241/33/208 242/33/209
f 243/65/210 244/66/211 245/66/212
f 246/67/213 247/68/214 248/67/215
f 249/41/216 250/39/217 251/41/218
f 252/44/24 253/45/219 254/45/220
f 226/59/196 223/60/221 219/60/222
f 139/42/181 142/47/116 207/42/223
f 142/47/116 141/42/115 207/42/223
f 207/42/223 190/42/224 154/42/179
f 139/42/181 207/42/223 154/42/179
f 190/42/224 196/42/225 154/42/179
s 0
f 230/61/24 255/69/24 228/61/24
f 255/69/24 256/61/24 228/61/24
f 256/61/24 257/61/24 228/61/24
s 1
f 231/62/198 258/63/226 232/63/199
f 234/4/201 259/4/227 235/4/202
f 237/64/204 260/64/63 238/64/205
f 240/33/207 261/33/228 241/33/208
f 243/65/210 262/66/94 244/66/211
f 263/67/229 264/68/230 246/67/213
f 251/41/218 265/39/231 249/41/216
f 265/39/231 266/41/232 249/41/216
f 266/41/232 267/39/233 249/41/216
f 268/44/24 269/46/24 270/45/234
f 269/46/24 252/44/24 271/45/235
f 252/44/24 272/44/24 273/45/236
f 272/44/24 274/45/237 275/45/238
f 270/45/234 276/44/239 268/44/24
f 226/59/196 227/60/197 223/60/221
