# Blender 5.1.1
# www.blender.org
mtllib SteampunkRobotRightForeArm.mtl
o Sphere.003
v 0.318094 0.463107 0.192211
v 0.318094 0.390596 0.265626
v 0.318095 0.453392 0.228919
v 0.318095 0.426851 0.255790
v 0.318094 -0.463006 0.192211
v 0.318095 -0.390495 0.265626
v 0.318095 -0.453291 0.228918
v 0.318094 -0.426751 0.255790
v 0.377419 0.463107 0.182815
v 0.400105 0.390596 0.252637
v 0.388762 0.453392 0.217726
v 0.397066 0.426851 0.243282
v 0.377419 -0.463006 0.182815
v 0.400105 -0.390495 0.252636
v 0.388762 -0.453292 0.217726
v 0.397066 -0.426751 0.243282
v 0.430936 0.463107 0.155547
v 0.474088 0.390596 0.214940
v 0.452512 0.453392 0.185243
v 0.468307 0.426852 0.206983
v 0.430936 -0.463006 0.155546
v 0.474088 -0.390495 0.214940
v 0.452512 -0.453291 0.185243
v 0.468307 -0.426751 0.206983
v 0.473408 0.463107 0.113075
v 0.532802 0.390596 0.156227
v 0.503105 0.453393 0.134651
v 0.524844 0.426852 0.150446
v 0.473408 -0.463006 0.113075
v 0.532802 -0.390495 0.156227
v 0.503104 -0.453291 0.134651
v 0.524844 -0.426751 0.150446
v 0.500676 0.463107 0.059558
v 0.570498 0.390596 0.082244
v 0.535587 0.453392 0.070901
v 0.561143 0.426852 0.079204
v 0.500676 -0.463006 0.059557
v 0.570498 -0.390495 0.082244
v 0.535587 -0.453291 0.070900
v 0.561144 -0.426751 0.079204
v 0.510073 0.463107 0.000233
v 0.583487 0.390596 0.000233
v 0.546780 0.453392 0.000233
v 0.573651 0.426852 0.000233
v 0.510072 -0.463006 0.000233
v 0.583487 -0.390495 0.000233
v 0.546780 -0.453291 0.000233
v 0.573652 -0.426751 0.000233
v 0.500676 0.463107 -0.059092
v 0.570498 0.390596 -0.081778
v 0.535587 0.453392 -0.070435
v 0.561144 0.426852 -0.078739
v 0.500676 -0.463006 -0.059092
v 0.570498 -0.390495 -0.081778
v 0.535588 -0.453291 -0.070435
v 0.561144 -0.426751 -0.078739
v 0.473408 0.463107 -0.112609
v 0.532802 0.390596 -0.155761
v 0.503105 0.453392 -0.134185
v 0.524844 0.426852 -0.149980
v 0.473408 -0.463006 -0.112609
v 0.532802 -0.390495 -0.155762
v 0.503105 -0.453291 -0.134185
v 0.524844 -0.426751 -0.149980
v 0.430936 0.463107 -0.155081
v 0.474089 0.390596 -0.214475
v 0.452512 0.453392 -0.184777
v 0.468307 0.426852 -0.206518
v 0.430936 -0.463006 -0.155081
v 0.474088 -0.390495 -0.214475
v 0.452512 -0.453291 -0.184778
v 0.468307 -0.426751 -0.206518
v 0.377419 0.463107 -0.182349
v 0.400105 0.390596 -0.252171
v 0.388762 0.453392 -0.217260
v 0.397066 0.426852 -0.242816
v 0.377419 -0.463006 -0.182350
v 0.400105 -0.390495 -0.252171
v 0.388762 -0.453291 -0.217260
v 0.397066 -0.426751 -0.242817
v 0.318094 0.463107 -0.191745
v 0.318094 0.390596 -0.265160
v 0.318094 0.453392 -0.228453
v 0.318094 0.426852 -0.255325
v 0.318094 -0.463006 -0.191745
v 0.318095 -0.390495 -0.265160
v 0.318094 -0.453291 -0.228453
v 0.318094 -0.426751 -0.255325
v 0.258770 0.463107 -0.182349
v 0.236083 0.390596 -0.252171
v 0.247427 0.453392 -0.217260
v 0.239122 0.426852 -0.242817
v 0.258770 -0.463006 -0.182350
v 0.236083 -0.390495 -0.252171
v 0.247426 -0.453291 -0.217261
v 0.239123 -0.426751 -0.242817
v 0.205252 0.463107 -0.155081
v 0.162100 0.390596 -0.214475
v 0.183676 0.453392 -0.184778
v 0.167881 0.426852 -0.206517
v 0.205252 -0.463006 -0.155081
v 0.162100 -0.390495 -0.214475
v 0.183676 -0.453291 -0.184778
v 0.167881 -0.426751 -0.206518
v 0.162780 0.463107 -0.112609
v 0.103387 0.390596 -0.155761
v 0.133083 0.453392 -0.134185
v 0.111344 0.426852 -0.149980
v 0.162780 -0.463006 -0.112609
v 0.103387 -0.390495 -0.155762
v 0.133083 -0.453291 -0.134186
v 0.111344 -0.426751 -0.149980
v 0.135512 0.463107 -0.059092
v 0.065690 0.390596 -0.081778
v 0.100601 0.453393 -0.070435
v 0.075045 0.426852 -0.078739
v 0.135512 -0.463006 -0.059092
v 0.065690 -0.390495 -0.081779
v 0.100602 -0.453291 -0.070435
v 0.075045 -0.426751 -0.078739
v 0.126116 0.463107 0.000233
v 0.052701 0.390596 0.000233
v 0.089409 0.453393 0.000233
v 0.062537 0.426852 0.000233
v 0.126116 -0.463006 0.000232
v 0.052701 -0.390495 0.000233
v 0.089409 -0.453291 0.000233
v 0.062537 -0.426751 0.000233
v 0.135512 0.463107 0.059558
v 0.065690 0.390596 0.082244
v 0.100601 0.453393 0.070901
v 0.075045 0.426852 0.079204
v 0.135512 -0.463006 0.059557
v 0.065690 -0.390495 0.082243
v 0.100602 -0.453291 0.070900
v 0.075045 -0.426751 0.079204
v 0.162780 0.463107 0.113075
v 0.103387 0.390596 0.156227
v 0.133083 0.453392 0.134651
v 0.111344 0.426852 0.150446
v 0.162781 -0.463006 0.113074
v 0.103387 -0.390495 0.156227
v 0.133084 -0.453291 0.134651
v 0.111344 -0.426751 0.150446
v 0.205252 0.463107 0.155547
v 0.162100 0.390596 0.214940
v 0.183676 0.453392 0.185243
v 0.167881 0.426851 0.206983
v 0.205252 -0.463006 0.155546
v 0.162100 -0.390495 0.214940
v 0.183676 -0.453291 0.185243
v 0.167881 -0.426751 0.206983
v 0.258770 0.463107 0.182815
v 0.236083 0.390596 0.252637
v 0.247426 0.453392 0.217726
v 0.239123 0.426851 0.243282
v 0.258770 -0.463006 0.182815
v 0.236083 -0.390495 0.252636
v 0.247427 -0.453291 0.217726
v 0.239123 -0.426751 0.243282
v 0.318094 0.205979 0.265626
v 0.318095 -0.205879 0.265626
v 0.400105 -0.205879 0.252637
v 0.400105 0.205979 0.252637
v 0.236083 -0.205879 0.252637
v 0.236083 0.205979 0.252637
v 0.474088 -0.205879 0.214940
v 0.474088 0.205979 0.214940
v 0.532802 0.205979 0.156227
v 0.532802 -0.205879 0.156227
v 0.570498 0.205980 0.082244
v 0.570498 -0.205879 0.082244
v 0.583487 0.205980 0.000233
v 0.583487 -0.205879 0.000233
v 0.570498 0.205980 -0.081778
v 0.570498 -0.205879 -0.081778
v 0.532802 0.205980 -0.155761
v 0.532802 -0.205878 -0.155762
v 0.474088 0.205980 -0.214475
v 0.474088 -0.205878 -0.214475
v 0.400105 0.205980 -0.252171
v 0.400105 -0.205878 -0.252171
v 0.318094 0.205980 -0.265160
v 0.318095 -0.205878 -0.265160
v 0.236083 0.205980 -0.252171
v 0.236083 -0.205878 -0.252171
v 0.162100 0.205980 -0.214475
v 0.162100 -0.205878 -0.214475
v 0.103386 0.205980 -0.155761
v 0.103387 -0.205878 -0.155762
v 0.065690 0.205980 -0.081778
v 0.065690 -0.205879 -0.081778
v 0.052701 0.205980 0.000233
v 0.052701 -0.205879 0.000233
v 0.065690 0.205979 0.082244
v 0.065690 -0.205879 0.082244
v 0.103387 0.205979 0.156227
v 0.103387 -0.205879 0.156227
v 0.162100 0.205979 0.214940
v 0.162100 -0.205879 0.214940
v 0.318094 0.469807 0.000233
v 0.318095 -0.469706 0.000233
v 0.318095 -0.362831 0.000233
v 0.318095 -0.225436 0.000233
v 0.409660 -0.362832 0.282041
v 0.318095 -0.362832 0.296543
v 0.492261 -0.362832 0.239953
v 0.557815 -0.362832 0.174400
v 0.599903 -0.362832 0.091798
v 0.614405 -0.362832 0.000233
v 0.599903 -0.362831 -0.091332
v 0.557815 -0.362831 -0.173934
v 0.492261 -0.362831 -0.239488
v 0.409660 -0.362831 -0.281576
v 0.318095 -0.362831 -0.296078
v 0.226529 -0.362831 -0.281576
v 0.154882 -0.362831 -0.244538
v 0.226530 -0.362832 0.282041
v 0.154883 -0.362832 0.245004
v 0.409660 -0.225436 0.282041
v 0.318095 -0.225436 0.296543
v 0.492261 -0.225436 0.239953
v 0.557815 -0.225436 0.174400
v 0.599903 -0.225436 0.091798
v 0.614405 -0.225436 0.000233
v 0.599903 -0.225436 -0.091332
v 0.557815 -0.225436 -0.173934
v 0.492262 -0.225436 -0.239488
v 0.409660 -0.225436 -0.281575
v 0.318095 -0.225436 -0.296078
v 0.226529 -0.225436 -0.281576
v 0.154882 -0.225436 -0.244538
v 0.226530 -0.225436 0.282041
v 0.154883 -0.225436 0.245004
v -0.055055 -0.225436 0.243504
v -0.055055 -0.362831 -0.243039
v -0.055055 -0.362832 0.243504
v -0.055055 -0.225436 -0.243039
v 0.318095 0.362933 0.000233
v 0.318095 0.225538 0.000233
v 0.409659 0.362933 0.282041
v 0.318095 0.362933 0.296544
v 0.492262 0.362933 0.239953
v 0.557815 0.362933 0.174400
v 0.599903 0.362933 0.091798
v 0.614405 0.362933 0.000233
v 0.599903 0.362933 -0.091332
v 0.557815 0.362933 -0.173934
v 0.492262 0.362933 -0.239488
v 0.409660 0.362933 -0.281576
v 0.318095 0.362933 -0.296078
v 0.226529 0.362933 -0.281576
v 0.154882 0.362933 -0.244538
v 0.226530 0.362933 0.282041
v 0.154883 0.362933 0.245004
v 0.409660 0.225538 0.282041
v 0.318095 0.225537 0.296544
v 0.492262 0.225538 0.239953
v 0.557815 0.225538 0.174400
v 0.599903 0.225538 0.091798
v 0.614405 0.225538 0.000233
v 0.599903 0.225538 -0.091332
v 0.557815 0.225538 -0.173934
v 0.492262 0.225538 -0.239488
v 0.409660 0.225538 -0.281576
v 0.318095 0.225538 -0.296078
v 0.226529 0.225538 -0.281576
v 0.154882 0.225537 -0.244538
v 0.226530 0.225537 0.282041
v 0.154883 0.225537 0.245004
v -0.055055 0.225537 0.243505
v -0.055055 0.362933 -0.243039
v -0.055055 0.362933 0.243505
v -0.055055 0.225537 -0.243039
v 0.318094 0.203084 0.309644
v 0.318094 -0.202984 0.309644
v 0.413707 -0.202984 0.294500
v 0.413707 0.203084 0.294500
v 0.222481 -0.202984 0.294500
v 0.222481 0.203084 0.294500
v 0.499961 -0.202984 0.250551
v 0.499961 0.203084 0.250551
v 0.568413 0.203084 0.182100
v 0.568412 -0.202984 0.182100
v 0.612361 0.203084 0.095846
v 0.612361 -0.202984 0.095846
v 0.627505 0.203084 0.000233
v 0.627505 -0.202984 0.000233
v 0.612361 0.203084 -0.095380
v 0.612361 -0.202984 -0.095380
v 0.568412 0.203084 -0.181634
v 0.568412 -0.202984 -0.181634
v 0.499961 0.203084 -0.250086
v 0.499961 -0.202984 -0.250086
v 0.413707 0.203084 -0.294034
v 0.413707 -0.202984 -0.294034
v 0.318095 0.203084 -0.309178
v 0.318095 -0.202984 -0.309178
v 0.222481 0.203084 -0.294034
v 0.222481 -0.202984 -0.294034
v 0.136227 0.203084 -0.250086
v 0.136227 -0.202984 -0.250086
v 0.067776 0.203084 -0.181634
v 0.067776 -0.202984 -0.181634
v 0.023827 0.203084 -0.095380
v 0.023827 -0.202984 -0.095381
v 0.023827 0.203084 0.095846
v 0.023827 -0.202984 0.095846
v 0.067776 0.203084 0.182100
v 0.067776 -0.202984 0.182100
v 0.136227 0.203084 0.250551
v 0.136227 -0.202984 0.250551
v 0.323596 0.237274 0.344384
v 0.323596 -0.237173 0.344383
v 0.424576 -0.237173 0.327951
v 0.424576 0.237274 0.327951
v 0.520636 -0.237173 0.279007
v 0.520635 0.237274 0.279007
v 0.596869 0.237274 0.202774
v 0.596868 -0.237173 0.202774
v 0.645813 0.237274 0.106715
v 0.645813 -0.237173 0.106715
v 0.662678 0.237274 0.000233
v 0.662678 -0.237173 0.000233
v 0.645813 0.237274 -0.106249
v 0.645813 -0.237173 -0.106250
v 0.596869 0.237274 -0.202308
v 0.596868 -0.237173 -0.202309
v 0.520636 0.237274 -0.278541
v 0.520635 -0.237173 -0.278541
v 0.424576 0.237274 -0.327486
v 0.424576 -0.237173 -0.327486
v 0.323596 0.237274 -0.343918
v 0.323596 -0.237173 -0.343918
v 1.396540 0.237274 0.344383
v 1.396540 -0.237173 0.344383
v 1.396540 0.237274 -0.343918
v 1.396540 -0.237173 -0.343918
v 1.610207 0.316694 0.459602
v 1.610207 -0.316593 0.459602
v 1.610207 0.316694 -0.459137
v 1.610207 -0.316593 -0.459137
v 1.837184 0.316694 -0.171704
v 1.837184 -0.316593 -0.171704
v 1.837184 0.316694 0.172169
v 1.837184 -0.316593 0.172169
v 1.927578 0.316694 0.459602
v 1.927578 -0.316593 0.459602
v 1.927578 0.316694 -0.459136
v 1.927577 -0.316593 -0.459137
v 1.927578 0.316694 -0.270117
v 1.927578 -0.316593 -0.270117
v 1.927578 0.316694 0.270583
v 1.927577 -0.316593 0.270583
v 0.318096 0.203084 0.000233
v 0.318096 -0.202984 0.000233
v 1.772160 -0.057218 -0.222098
v 1.920367 -0.057218 -0.222098
v 1.772159 -0.148287 -0.176903
v 1.920367 -0.148287 -0.176903
v 1.772159 -0.210728 -0.096670
v 1.920367 -0.210728 -0.096670
v 1.772159 -0.232174 0.002710
v 1.920367 -0.232174 0.002710
v 1.772160 -0.208377 0.101552
v 1.920367 -0.208377 0.101552
v 1.772160 -0.144050 0.180281
v 1.920367 -0.144050 0.180281
v 1.772161 -0.051934 0.223303
v 1.920367 -0.051934 0.223303
v 1.772160 0.049726 0.222097
v 1.920367 0.049726 0.222097
v 1.772160 0.140795 0.176902
v 1.920367 0.140795 0.176902
v 1.772161 0.203236 0.096669
v 1.920367 0.203236 0.096669
v 1.772159 0.224681 -0.002711
v 1.920367 0.224681 -0.002711
v 1.772159 0.200884 -0.101553
v 1.920367 0.200884 -0.101553
v 1.772160 0.136558 -0.180282
v 1.920367 0.136558 -0.180282
v 1.772159 0.044442 -0.223304
v 1.920367 0.044442 -0.223304
v 1.962766 -0.068464 -0.262887
v 1.962766 -0.176662 -0.209192
v 1.962767 -0.250848 -0.113867
v 1.962767 -0.276327 0.004205
v 1.962767 -0.248054 0.121639
v 1.962767 -0.171628 0.215176
v 1.962767 -0.062186 0.266291
v 1.962767 0.058596 0.264858
v 1.962766 0.166794 0.211162
v 1.962767 0.240980 0.115837
v 1.962766 0.266459 -0.002235
v 1.962767 0.238186 -0.119669
v 1.962766 0.161760 -0.213206
v 1.962766 0.052318 -0.264320
v 1.986565 -0.068633 -0.263120
v 1.986565 -0.176960 -0.209360
v 1.986565 -0.251233 -0.113924
v 1.986566 -0.276742 0.004287
v 1.986566 -0.248436 0.121860
v 1.986566 -0.171919 0.215508
v 1.986566 -0.062348 0.266682
v 1.986565 0.058576 0.265248
v 1.986566 0.166902 0.211489
v 1.986566 0.241176 0.116052
v 1.986566 0.266685 -0.002160
v 1.986566 0.238378 -0.119733
v 1.986565 0.161862 -0.213380
v 1.986565 0.052290 -0.264555
v 2.094134 -0.002637 -0.000921
v 2.224651 0.174845 -0.180979
v 2.224652 0.174845 0.181443
v 2.295091 0.157251 -0.180979
v 2.295091 0.157251 0.181443
v 2.351580 0.107954 -0.180979
v 2.351581 0.107953 0.181443
v 2.382928 0.036717 -0.180979
v 2.382929 0.036717 0.181443
v 2.382928 -0.042349 -0.180978
v 2.382929 -0.042349 0.181443
v 2.351580 -0.113585 -0.180979
v 2.351581 -0.113586 0.181443
v 2.295091 -0.162882 -0.180979
v 2.295091 -0.162882 0.181443
v 2.224651 -0.180476 -0.180979
v 2.224652 -0.180476 0.181443
v 1.981536 -0.180476 0.181443
v 1.981535 -0.180476 -0.180979
v 1.981536 0.174845 0.181443
v 1.981535 0.174845 -0.180979
v 2.224652 0.174845 -0.131158
v 2.224652 0.174845 0.131622
v 2.295091 0.157251 0.131623
v 2.295091 0.157251 -0.131158
v 2.351580 0.107953 0.131622
v 2.351580 0.107954 -0.131159
v 2.382929 0.036717 0.131623
v 2.382928 0.036717 -0.131158
v 2.382929 -0.042349 0.131623
v 2.382928 -0.042349 -0.131158
v 2.351580 -0.113586 0.131622
v 2.351580 -0.113586 -0.131159
v 2.295091 -0.162882 0.131623
v 2.295091 -0.162882 -0.131158
v 2.224652 -0.180476 0.131623
v 2.224652 -0.180476 -0.131158
v 1.981536 -0.180476 0.131623
v 1.981535 -0.180476 -0.131158
v 1.981535 0.174845 -0.131158
v 1.981536 0.174845 0.131623
v 2.287127 -0.144785 0.131623
v 2.287127 -0.144785 -0.131158
v 2.037827 0.154758 -0.131159
v 2.222597 0.154885 -0.131158
v 2.037827 0.154758 0.131622
v 2.222597 0.154885 0.131622
v 2.037827 -0.160390 0.131623
v 2.222597 -0.160516 0.131623
v 2.037827 -0.160390 -0.131159
v 2.222597 -0.160516 -0.131158
v 2.224652 0.174845 -0.061436
v 2.224652 0.174845 0.061900
v 2.295091 0.157251 0.061900
v 2.295091 0.157251 -0.061436
v 2.351580 0.107953 0.061900
v 2.351580 0.107954 -0.061436
v 2.382928 0.036717 0.061901
v 2.382928 0.036717 -0.061436
v 2.382928 -0.042349 0.061901
v 2.382928 -0.042349 -0.061436
v 2.351580 -0.113586 0.061900
v 2.351580 -0.113586 -0.061436
v 2.295091 -0.162882 0.061900
v 2.295091 -0.162882 -0.061436
v 2.224652 -0.180476 0.061900
v 2.224652 -0.180476 -0.061436
v 1.981536 -0.180476 -0.061436
v 1.981535 -0.180476 0.061900
v 1.981535 0.174845 0.061900
v 1.981536 0.174845 -0.061436
v 2.337230 -0.101062 -0.131159
v 2.337230 -0.101062 0.131622
v 2.365035 -0.037879 -0.131158
v 2.365035 -0.037879 0.131623
v 2.365035 0.032248 -0.131158
v 2.365035 0.032248 0.131623
v 2.337230 0.095430 -0.131159
v 2.337230 0.095430 0.131622
v 2.287127 0.139153 -0.131158
v 2.287127 0.139153 0.131623
v 2.222597 0.154885 0.061900
v 2.287127 0.139153 0.061900
v 2.287128 0.139153 -0.061436
v 2.222597 0.154885 -0.061436
v 2.337230 0.095430 0.061900
v 2.337230 0.095430 -0.061436
v 2.365035 0.032248 0.061900
v 2.365035 0.032248 -0.061436
v 2.365035 -0.037879 0.061900
v 2.365035 -0.037879 -0.061436
v 2.337230 -0.101062 0.061900
v 2.337230 -0.101062 -0.061436
v 2.287127 -0.144785 0.061900
v 2.287128 -0.144785 -0.061436
v 2.222597 -0.160516 0.061900
v 2.222597 -0.160516 -0.061436
v 2.037827 0.154758 -0.061436
v 2.037827 0.154758 0.061900
v 2.037827 -0.160390 0.061900
v 2.037827 -0.160390 -0.061436
vn 0.3064 0.1304 0.9429
vn 0.5878 -0.0000 0.8090
vn 0.5828 0.1304 0.8021
vn 0.8021 0.1304 0.5828
vn 0.9511 -0.0000 0.3090
vn 0.9429 0.1304 0.3064
vn 0.9915 0.1304 -0.0000
vn 1.0000 -0.0000 -0.0000
vn 0.9429 0.1304 -0.3064
vn 0.8090 -0.0000 -0.5878
vn 0.8021 0.1304 -0.5828
vn 0.5828 0.1304 -0.8021
vn 0.5878 -0.0000 -0.8090
vn 0.3064 0.1304 -0.9429
vn 0.3090 -0.0000 -0.9511
vn -0.0000 0.1304 -0.9915
vn -0.0000 -0.0000 -1.0000
vn -0.3064 0.1304 -0.9429
vn -0.3090 -0.0000 -0.9511
vn -0.5828 0.1304 -0.8021
vn -0.5878 -0.0000 -0.8090
vn -0.8021 0.1304 -0.5828
vn -0.9511 -0.0000 -0.3090
vn -0.9429 0.1304 -0.3064
vn -0.9915 0.1304 -0.0000
vn -1.0000 -0.0000 -0.0000
vn -0.9429 0.1304 0.3064
vn -0.9510 -0.0000 0.3090
vn -0.8021 0.1304 0.5828
vn -0.8090 -0.0000 0.5878
vn -0.5828 0.1304 0.8021
vn -0.3090 -0.0000 0.9511
vn -0.3064 0.1304 0.9429
vn -0.5878 -0.0000 0.8090
vn -0.3064 -0.1304 0.9429
vn 0.0924 -0.9876 -0.1272
vn 0.1272 -0.9876 -0.0924
vn -0.0000 -1.0000 -0.0000
vn -0.0000 0.1304 0.9915
vn -0.0000 0.4931 0.8700
vn 0.1591 0.8573 0.4897
vn -0.0000 0.8573 0.5149
vn 0.0486 0.9876 0.1495
vn -0.0000 0.9876 0.1572
vn -0.0000 -0.1304 0.9915
vn 0.2688 -0.4930 0.8274
vn 0.3064 -0.1304 0.9429
vn -0.0000 -0.8573 0.5149
vn 0.1591 -0.8573 0.4897
vn 0.0486 -0.9876 0.1495
vn 0.2688 0.4931 0.8274
vn 0.3026 0.8573 0.4165
vn 0.5828 -0.1304 0.8021
vn 0.5114 -0.4931 0.7038
vn 0.3026 -0.8573 0.4165
vn 0.0924 -0.9876 0.1272
vn 0.5114 0.4931 0.7038
vn 0.4165 0.8573 0.3026
vn 0.0924 0.9876 0.1272
vn 0.7038 -0.4931 0.5114
vn 0.8021 -0.1304 0.5828
vn 0.4165 -0.8573 0.3026
vn 0.1272 -0.9876 0.0924
vn 0.7038 0.4931 0.5114
vn 0.8274 0.4931 0.2688
vn 0.1495 0.9876 0.0486
vn 0.1271 0.9876 0.0924
vn 0.8274 -0.4931 0.2688
vn 0.9429 -0.1304 0.3064
vn 0.4897 -0.8573 0.1591
vn 0.1495 -0.9876 0.0486
vn 0.5149 0.8573 -0.0000
vn 0.4897 0.8573 0.1591
vn 0.1572 0.9876 -0.0000
vn 0.9915 -0.1304 -0.0000
vn 0.8700 -0.4930 -0.0000
vn 0.5149 -0.8573 -0.0000
vn 0.1572 -0.9876 -0.0000
vn 0.8700 0.4931 -0.0000
vn 0.4897 0.8573 -0.1591
vn 0.8274 -0.4931 -0.2688
vn 0.9429 -0.1304 -0.3064
vn 0.4897 -0.8573 -0.1591
vn 0.1495 -0.9876 -0.0486
vn 0.8274 0.4931 -0.2688
vn 0.4165 0.8573 -0.3026
vn 0.1495 0.9876 -0.0486
vn 0.7038 -0.4931 -0.5114
vn 0.8021 -0.1304 -0.5828
vn 0.4165 -0.8573 -0.3026
vn 0.7038 0.4931 -0.5114
vn 0.3026 0.8573 -0.4165
vn 0.1272 0.9876 -0.0924
vn 0.5827 -0.1304 -0.8021
vn 0.5114 -0.4931 -0.7038
vn 0.3026 -0.8573 -0.4165
vn 0.5114 0.4931 -0.7038
vn 0.2688 0.4931 -0.8274
vn 0.0486 0.9876 -0.1495
vn 0.0924 0.9876 -0.1272
vn 0.2688 -0.4931 -0.8274
vn 0.3064 -0.1304 -0.9429
vn 0.1591 -0.8573 -0.4897
vn 0.0486 -0.9876 -0.1495
vn -0.0000 0.8573 -0.5149
vn 0.1591 0.8573 -0.4897
vn -0.0000 -0.1304 -0.9915
vn -0.0000 -0.4931 -0.8700
vn -0.0000 -0.8573 -0.5149
vn -0.0000 -0.9876 -0.1572
vn -0.0000 0.4931 -0.8700
vn -0.1591 0.8573 -0.4897
vn -0.0000 0.9876 -0.1572
vn -0.3064 -0.1304 -0.9429
vn -0.2688 -0.4931 -0.8274
vn -0.1591 -0.8573 -0.4897
vn -0.0486 -0.9876 -0.1495
vn -0.2688 0.4931 -0.8274
vn -0.3026 0.8573 -0.4165
vn -0.0486 0.9876 -0.1495
vn -0.5827 -0.1304 -0.8021
vn -0.5114 -0.4930 -0.7038
vn -0.3026 -0.8573 -0.4165
vn -0.0924 -0.9876 -0.1272
vn -0.7038 0.4931 -0.5114
vn -0.5114 0.4931 -0.7038
vn -0.4165 0.8573 -0.3026
vn -0.0924 0.9876 -0.1272
vn -0.7038 -0.4931 -0.5114
vn -0.8021 -0.1304 -0.5828
vn -0.4165 -0.8573 -0.3026
vn -0.1272 -0.9876 -0.0924
vn -0.8274 0.4930 -0.2688
vn -0.4897 0.8573 -0.1591
vn -0.1271 0.9876 -0.0924
vn -0.9429 -0.1304 -0.3064
vn -0.8274 -0.4931 -0.2688
vn -0.4897 -0.8573 -0.1591
vn -0.1495 -0.9876 -0.0486
vn -0.8700 0.4931 -0.0000
vn -0.5149 0.8573 -0.0000
vn -0.1495 0.9876 -0.0486
vn -0.9915 -0.1304 -0.0000
vn -0.8700 -0.4931 -0.0000
vn -0.5149 -0.8573 -0.0000
vn -0.1572 -0.9876 -0.0000
vn -0.4897 0.8573 0.1591
vn -0.1495 0.9876 0.0486
vn -0.1572 0.9876 -0.0000
vn -0.9429 -0.1304 0.3064
vn -0.8274 -0.4931 0.2688
vn -0.4897 -0.8573 0.1591
vn -0.1495 -0.9876 0.0486
vn -0.8274 0.4930 0.2688
vn -0.4165 0.8573 0.3026
vn -0.8021 -0.1304 0.5828
vn -0.7038 -0.4931 0.5114
vn -0.4165 -0.8573 0.3026
vn -0.1272 -0.9876 0.0924
vn -0.7038 0.4931 0.5114
vn -0.3026 0.8573 0.4165
vn -0.1272 0.9876 0.0924
vn -0.5114 -0.4931 0.7038
vn -0.5828 -0.1304 0.8021
vn -0.3026 -0.8573 0.4165
vn -0.0924 -0.9876 0.1272
vn -0.5114 0.4931 0.7038
vn -0.1591 0.8573 0.4897
vn -0.0924 0.9876 0.1272
vn -0.2688 -0.4931 0.8274
vn -0.1591 -0.8573 0.4897
vn -0.0486 -0.9876 0.1495
vn -0.2688 0.4931 0.8274
vn -0.0486 0.9876 0.1495
vn -0.0000 -0.4931 0.8700
vn -0.0000 -0.9876 0.1572
vn -0.0000 1.0000 -0.0000
vn -0.0000 -0.0000 1.0000
vn 0.3090 -0.0000 0.9511
vn 0.8090 -0.0000 0.5878
vn -0.9510 -0.0000 -0.3091
vn -0.8090 -0.0000 -0.5878
vn 0.9511 -0.0000 -0.3090
vn -0.3118 -0.0000 -0.9501
vn -0.3118 -0.0000 0.9501
vn -0.2398 -0.0000 0.9708
vn -0.2398 -0.0000 -0.9708
vn -0.0071 -0.0000 -1.0000
vn -0.0071 -0.0000 1.0000
vn -0.4097 -0.7171 -0.5639
vn -0.2159 -0.7180 -0.6617
vn -0.2160 -0.7180 -0.6616
vn -0.6629 -0.7171 0.2154
vn -0.6970 -0.7171 -0.0000
vn -0.9510 -0.0000 0.3091
vn -0.1564 -0.0000 -0.9877
vn -0.5639 0.7171 -0.4097
vn -0.6629 0.7171 -0.2154
vn -0.2159 0.7182 -0.6615
vn -0.1108 0.7150 -0.6903
vn -0.2158 0.7181 -0.6616
vn -0.4097 0.7171 0.5639
vn -0.2161 0.7178 0.6618
vn -0.2163 0.7177 0.6619
vn -0.9877 -0.0000 -0.1564
vn -0.6629 -0.7171 -0.2154
vn -0.5639 -0.7171 -0.4097
vn -0.4097 -0.7171 0.5639
vn -0.2159 -0.7180 0.6617
vn -0.6629 0.7171 0.2154
vn -0.5639 0.7171 0.4097
vn -0.1109 -0.7149 -0.6904
vn -0.1109 -0.7149 -0.6903
vn -0.1564 -0.0000 0.9877
vn -0.1999 0.9798 -0.0000
vn -0.1999 -0.9798 -0.0000
vn -0.6970 0.7171 -0.0000
vn -0.5639 -0.7171 0.4097
vn -0.4097 0.7171 -0.5639
vn -0.2159 -0.7181 0.6616
vn -0.1108 -0.7150 0.6902
vn -0.9877 -0.0000 0.1564
vn -0.1109 0.7149 0.6904
vn -0.1108 0.7150 0.6903
vn -0.2671 -0.0000 -0.9637
vn -0.2173 -0.0000 -0.9761
vn -0.1459 -0.9893 -0.0000
vn -0.2671 -0.0000 0.9637
vn -0.1459 0.9893 -0.0000
vn -0.2173 -0.0000 0.9761
vn 0.9318 -0.0000 -0.3630
vn 0.9318 -0.0000 0.3630
vn -0.2394 -0.0000 -0.9709
vn -0.2394 -0.0000 0.9709
vn -0.1109 0.7149 -0.6903
vn -0.1108 -0.7150 0.6903
vn -0.0000 -0.2341 -0.9722
vn -0.0000 0.2109 -0.9775
vn -0.0000 -0.6327 -0.7744
vn -0.0000 -0.9061 -0.4232
vn -0.0000 -0.9999 0.0119
vn -0.0000 -0.8958 0.4445
vn -0.0000 -0.6142 0.7892
vn -0.0000 -0.2109 0.9775
vn -0.0000 0.2341 0.9722
vn -0.0000 0.6327 0.7744
vn -0.0000 0.9061 0.4232
vn -0.0000 0.9999 -0.0119
vn -0.0000 0.8958 -0.4445
vn -0.0000 0.6142 -0.7892
vn -0.0185 -0.8957 0.4443
vn -0.0175 -0.9998 0.0114
vn -0.0175 -0.9998 0.0123
vn -0.7064 0.6405 0.3014
vn -0.7063 0.6426 0.2971
vn -0.7118 0.4467 0.5420
vn -0.7017 0.1521 -0.6961
vn -0.6992 0.4396 -0.5638
vn -0.6992 0.4387 -0.5645
vn -0.7173 0.1612 0.6778
vn -0.7173 0.1657 0.6768
vn -0.7215 -0.1443 0.6772
vn -0.7238 -0.4233 0.5449
vn -0.7238 -0.6184 0.3062
vn -0.7238 -0.6179 0.3072
vn -0.7214 -0.6925 0.0064
vn -0.7171 -0.6304 -0.2973
vn -0.7172 -0.6323 -0.2931
vn -0.7117 -0.4422 -0.5459
vn -0.7061 -0.1631 -0.6890
vn -0.7062 -0.1677 -0.6878
vn -0.7018 0.7123 -0.0070
vn -0.7018 0.7123 -0.0104
vn -0.7119 0.4426 0.5452
vn -0.6992 0.6401 -0.3184
vn -0.7215 -0.1473 0.6765
vn -0.7214 -0.6924 0.0096
vn -0.7118 -0.4462 -0.5425
vn -0.7017 0.1489 -0.6967
vn -0.6992 0.6406 -0.3173
vn -0.0084 0.8958 -0.4444
vn -0.0084 0.8957 -0.4447
vn -0.0094 0.9999 -0.0123
vn -0.0185 -0.6139 0.7891
vn -0.0185 -0.8955 0.4446
vn -0.0084 0.6140 -0.7892
vn -0.0084 0.6143 -0.7890
vn -0.0175 -0.2113 0.9773
vn -0.0175 -0.2105 0.9774
vn -0.0112 -0.2334 -0.9723
vn -0.0094 0.2114 -0.9774
vn -0.0094 0.2105 -0.9776
vn -0.0157 0.2334 0.9723
vn -0.0157 0.2347 0.9719
vn -0.0134 -0.6321 -0.7748
vn -0.0112 -0.2347 -0.9720
vn -0.0135 0.6321 0.7748
vn -0.0135 0.6332 0.7738
vn -0.0157 -0.9057 -0.4237
vn -0.0134 -0.6332 -0.7738
vn -0.0113 0.9057 0.4237
vn -0.0113 0.9063 0.4225
vn -0.0157 -0.9062 -0.4225
vn -0.0094 0.9999 -0.0114
vn 0.9304 -0.3323 -0.1547
vn 0.9298 -0.2333 -0.2848
vn 1.0000 0.0031 -0.0026
vn 0.9292 0.3347 0.1568
vn 0.9298 0.2325 0.2853
vn 0.9309 -0.3652 0.0046
vn 0.9287 0.3709 -0.0041
vn 0.9312 -0.3265 0.1622
vn 0.9284 0.3330 -0.1651
vn 0.9312 -0.2240 0.2876
vn 0.9284 0.2282 -0.2934
vn 0.9309 -0.0773 0.3569
vn 0.9292 -0.0869 -0.3593
vn 0.9287 0.0780 -0.3627
vn 0.9304 0.0854 0.3564
vn 0.4628 0.8865 -0.0000
vn 0.1221 0.9925 -0.0000
vn 0.8057 0.5923 -0.0000
vn 0.9786 0.2058 -0.0000
vn 0.9786 -0.2058 -0.0000
vn 0.8057 -0.5923 -0.0000
vn 0.4628 -0.8865 -0.0000
vn 0.1221 -0.9925 -0.0000
vn 0.4603 0.8878 -0.0000
vn 0.1189 0.9929 -0.0000
vn 0.1706 -0.9853 -0.0000
vn 0.3361 -0.9418 -0.0000
vn 0.1217 -0.9926 -0.0000
vn 0.1189 -0.9929 -0.0000
vn 0.1702 -0.9854 -0.0000
vn 0.4603 -0.8878 -0.0000
vn 0.1702 0.9854 -0.0000
vn 0.3361 0.9418 -0.0000
vn -0.7238 -0.4241 0.5443
vn -0.0185 -0.6142 0.7889
vn 0.1217 0.9926 -0.0000
vt 0.695904 0.349948
vt 0.678261 0.342635
vt 0.695904 0.342635
vt 0.695904 0.335322
vt 0.678261 0.328009
vt 0.695904 0.328009
vt 0.695904 0.320696
vt 0.678261 0.320696
vt 0.695904 0.313383
vt 0.678261 0.306070
vt 0.695904 0.306070
vt 0.695904 0.298757
vt 0.678261 0.298757
vt 0.695904 0.291444
vt 0.678261 0.291444
vt 0.695904 0.284131
vt 0.678261 0.284131
vt 0.695904 0.276818
vt 0.678261 0.423077
vt 0.695904 0.415765
vt 0.695904 0.423077
vt 0.678261 0.415765
vt 0.695904 0.408452
vt 0.678261 0.401139
vt 0.695904 0.401139
vt 0.695904 0.393826
vt 0.678261 0.393826
vt 0.695904 0.386513
vt 0.678261 0.386513
vt 0.695904 0.379200
vt 0.678261 0.379200
vt 0.695904 0.371887
vt 0.678261 0.364574
vt 0.695904 0.364574
vt 0.706666 0.656325
vt 0.689022 0.649012
vt 0.706666 0.649012
vt 0.866827 0.954960
vt 0.863521 0.950409
vt 0.879539 0.942248
vt 0.695904 0.357261
vt 0.699491 0.357261
vt 0.703079 0.349948
vt 0.703079 0.357261
vt 0.706666 0.349948
vt 0.706666 0.357261
vt 0.689022 0.641699
vt 0.685435 0.634386
vt 0.689022 0.634386
vt 0.681848 0.641699
vt 0.681848 0.634386
vt 0.678261 0.634386
vt 0.699491 0.349948
vt 0.703079 0.342635
vt 0.689022 0.627073
vt 0.685435 0.627073
vt 0.681848 0.627073
vt 0.678261 0.627073
vt 0.699491 0.342635
vt 0.703079 0.335322
vt 0.706666 0.342635
vt 0.685435 0.619760
vt 0.689022 0.619760
vt 0.681848 0.619760
vt 0.678261 0.619760
vt 0.699491 0.335322
vt 0.699491 0.328009
vt 0.706666 0.328009
vt 0.706666 0.335322
vt 0.685435 0.612447
vt 0.689022 0.612447
vt 0.681848 0.612447
vt 0.678261 0.612447
vt 0.703079 0.320696
vt 0.703079 0.328009
vt 0.706666 0.320696
vt 0.689022 0.605134
vt 0.685435 0.605134
vt 0.681848 0.605134
vt 0.678261 0.605134
vt 0.699491 0.320696
vt 0.703079 0.313383
vt 0.685435 0.597821
vt 0.689022 0.597821
vt 0.681848 0.597821
vt 0.678261 0.597821
vt 0.699491 0.313383
vt 0.703079 0.306070
vt 0.706666 0.313383
vt 0.685435 0.590508
vt 0.689022 0.590508
vt 0.681848 0.590508
vt 0.678261 0.590508
vt 0.699491 0.306070
vt 0.703079 0.298757
vt 0.706666 0.306070
vt 0.689022 0.583196
vt 0.685435 0.583196
vt 0.681848 0.583196
vt 0.678261 0.583196
vt 0.699491 0.298757
vt 0.699491 0.291444
vt 0.706666 0.291444
vt 0.706666 0.298757
vt 0.685435 0.575882
vt 0.689022 0.575882
vt 0.681848 0.575882
vt 0.678261 0.575882
vt 0.703079 0.284131
vt 0.703079 0.291444
vt 0.689022 0.568570
vt 0.685435 0.568570
vt 0.681848 0.568570
vt 0.678261 0.568570
vt 0.699491 0.284131
vt 0.703079 0.276818
vt 0.706666 0.284131
vt 0.689022 0.561257
vt 0.685435 0.561257
vt 0.681848 0.561257
vt 0.678261 0.561257
vt 0.699491 0.423077
vt 0.703079 0.415765
vt 0.703079 0.423077
vt 0.706666 0.423077
vt 0.689022 0.700203
vt 0.685435 0.707516
vt 0.685435 0.700203
vt 0.681848 0.707516
vt 0.681848 0.700203
vt 0.678261 0.707516
vt 0.678261 0.700203
vt 0.699491 0.408452
vt 0.699491 0.415765
vt 0.703079 0.408452
vt 0.706666 0.415765
vt 0.685435 0.692890
vt 0.689022 0.692890
vt 0.681848 0.692890
vt 0.678261 0.692890
vt 0.699491 0.401139
vt 0.703079 0.401139
vt 0.706666 0.408452
vt 0.689022 0.685577
vt 0.685435 0.685577
vt 0.681848 0.685577
vt 0.678261 0.685577
vt 0.699491 0.393826
vt 0.703079 0.393826
vt 0.706666 0.401139
vt 0.689022 0.678264
vt 0.685435 0.678264
vt 0.681848 0.678264
vt 0.678261 0.678264
vt 0.703079 0.386513
vt 0.706666 0.386513
vt 0.706666 0.393826
vt 0.689022 0.670951
vt 0.685435 0.670951
vt 0.681848 0.670951
vt 0.678261 0.670951
vt 0.699491 0.386513
vt 0.703079 0.379200
vt 0.689022 0.663638
vt 0.685435 0.663638
vt 0.681848 0.663638
vt 0.678261 0.663638
vt 0.699491 0.379200
vt 0.703079 0.371887
vt 0.706666 0.379200
vt 0.685435 0.656325
vt 0.689022 0.656325
vt 0.681848 0.656325
vt 0.678261 0.656325
vt 0.699491 0.371887
vt 0.703079 0.364574
vt 0.706666 0.371887
vt 0.685435 0.649012
vt 0.681848 0.649012
vt 0.678261 0.649012
vt 0.699491 0.364574
vt 0.706666 0.364574
vt 0.685435 0.641699
vt 0.678261 0.641699
vt 0.564421 0.933331
vt 0.561115 0.937881
vt 0.548403 0.925169
vt 0.706666 0.641699
vt 0.706666 0.634386
vt 0.706666 0.627073
vt 0.678261 0.335322
vt 0.706666 0.663638
vt 0.706666 0.685577
vt 0.706666 0.692890
vt 0.689022 0.707516
vt 0.706666 0.700203
vt 0.706666 0.707516
vt 0.706666 0.561257
vt 0.706666 0.568570
vt 0.706666 0.575882
vt 0.706666 0.583196
vt 0.706666 0.597821
vt 0.706666 0.590508
vt 0.706666 0.605134
vt 0.706666 0.612447
vt 0.706666 0.619760
vt 0.678261 0.357261
vt 0.535690 0.912457
vt 0.540241 0.909151
vt 0.895558 0.934086
vt 0.897296 0.939435
vt 0.861783 0.945060
vt 0.897296 0.945060
vt 0.861783 0.939435
vt 0.895558 0.950409
vt 0.863521 0.934086
vt 0.892251 0.954960
vt 0.866827 0.929535
vt 0.887701 0.958266
vt 0.871377 0.926229
vt 0.882352 0.960004
vt 0.876727 0.924491
vt 0.876727 0.960004
vt 0.882352 0.924491
vt 0.871377 0.958266
vt 0.887701 0.926229
vt 0.892251 0.929535
vt 0.556564 0.941188
vt 0.551215 0.942926
vt 0.545590 0.942926
vt 0.551215 0.907412
vt 0.556564 0.909151
vt 0.540241 0.941188
vt 0.561115 0.912457
vt 0.535690 0.937881
vt 0.564421 0.917007
vt 0.545590 0.907412
vt 0.532384 0.933331
vt 0.566159 0.922357
vt 0.530646 0.927981
vt 0.566159 0.927981
vt 0.530646 0.922357
vt 0.532384 0.917007
vt 0.139202 0.840884
vt 0.111876 0.836110
vt 0.114689 0.827900
vt 0.119901 0.820960
vt 0.350650 0.853666
vt 0.323187 0.849762
vt 0.325737 0.841467
vt 0.127002 0.815971
vt 0.166665 0.836981
vt 0.166528 0.845658
vt 0.323187 0.885046
vt 0.325814 0.865569
vt 0.135298 0.813421
vt 0.164039 0.852787
vt 0.143976 0.813559
vt 0.152186 0.816371
vt 0.159126 0.821583
vt 0.368282 0.891456
vt 0.166665 0.872265
vt 0.121570 0.878675
vt 0.542615 0.713690
vt 0.555477 0.705011
vt 0.555477 0.713690
vt 0.555477 0.652937
vt 0.542615 0.644259
vt 0.555477 0.644259
vt 0.542615 0.609543
vt 0.555477 0.601993
vt 0.555477 0.609543
vt 0.542615 0.721240
vt 0.555477 0.721240
vt 0.555477 0.661616
vt 0.542615 0.652937
vt 0.542615 0.618222
vt 0.555477 0.618222
vt 0.555477 0.670295
vt 0.542615 0.661616
vt 0.555477 0.678974
vt 0.542615 0.670295
vt 0.555477 0.740894
vt 0.542615 0.687653
vt 0.555477 0.687653
vt 0.542615 0.626901
vt 0.555477 0.626901
vt 0.542615 0.696332
vt 0.555477 0.696332
vt 0.542615 0.635580
vt 0.555477 0.635580
vt 0.542615 0.705011
vt 0.542615 0.582338
vt 0.542615 0.601993
vt 0.111738 0.844788
vt 0.114289 0.853084
vt 0.118665 0.859236
vt 0.323325 0.858440
vt 0.371187 0.872018
vt 0.164115 0.828685
vt 0.418474 0.841624
vt 0.442987 0.828639
vt 0.445799 0.836850
vt 0.437774 0.821700
vt 0.430673 0.816711
vt 0.391148 0.846398
vt 0.391010 0.837720
vt 0.643564 0.876995
vt 0.625933 0.839205
vt 0.646469 0.857557
vt 0.422377 0.814160
vt 0.393637 0.853526
vt 0.601096 0.851107
vt 0.598607 0.843979
vt 0.413700 0.814298
vt 0.598469 0.835301
vt 0.405489 0.817111
vt 0.601020 0.827005
vt 0.398550 0.822323
vt 0.598469 0.870585
vt 0.436105 0.879414
vt 0.391010 0.873004
vt 0.039925 0.696858
vt 0.052788 0.705536
vt 0.039925 0.705536
vt 0.039925 0.636105
vt 0.052788 0.644784
vt 0.039925 0.644784
vt 0.039925 0.601390
vt 0.052788 0.593839
vt 0.052788 0.601390
vt 0.039925 0.713087
vt 0.052788 0.713087
vt 0.052788 0.653463
vt 0.039925 0.653463
vt 0.052788 0.610069
vt 0.039925 0.610069
vt 0.052788 0.662142
vt 0.039925 0.662142
vt 0.052788 0.670821
vt 0.039925 0.670821
vt 0.039925 0.732741
vt 0.052788 0.679500
vt 0.039925 0.679500
vt 0.052788 0.618748
vt 0.039925 0.618748
vt 0.052788 0.688179
vt 0.039925 0.688179
vt 0.039925 0.627427
vt 0.052788 0.627427
vt 0.052788 0.696858
vt 0.052788 0.636105
vt 0.039925 0.593839
vt 0.052788 0.574185
vt 0.445937 0.845527
vt 0.443387 0.853823
vt 0.439010 0.859976
vt 0.393560 0.829424
vt 0.909658 0.376818
vt 0.914226 0.386391
vt 0.909658 0.386391
vt 0.909658 0.338526
vt 0.914226 0.348099
vt 0.909658 0.348099
vt 0.813907 0.530734
vt 0.851922 0.521671
vt 0.851922 0.530734
vt 0.813907 0.539797
vt 0.851922 0.539797
vt 0.851922 0.548859
vt 0.813907 0.548859
vt 0.813907 0.566984
vt 0.851922 0.576047
vt 0.813907 0.576047
vt 0.851922 0.585109
vt 0.813907 0.585109
vt 0.851922 0.594172
vt 0.813907 0.594172
vt 0.851922 0.603235
vt 0.813907 0.603235
vt 0.914226 0.466451
vt 0.909658 0.456878
vt 0.914226 0.456878
vt 0.914226 0.485598
vt 0.909658 0.494913
vt 0.909658 0.485598
vt 0.914226 0.418586
vt 0.909658 0.409013
vt 0.914226 0.409013
vt 0.007312 0.345249
vt 0.004019 0.304033
vt 0.007312 0.307234
vt 0.909658 0.357672
vt 0.914226 0.367245
vt 0.909658 0.367245
vt 0.909658 0.319380
vt 0.914226 0.309806
vt 0.914226 0.319380
vt 0.914226 0.437732
vt 0.909658 0.428159
vt 0.914226 0.428159
vt 0.914226 0.395707
vt 0.909658 0.395707
vt 0.813907 0.512609
vt 0.813907 0.521671
vt 0.061238 0.875338
vt 0.058437 0.883957
vt 0.032629 0.870806
vt 0.004019 0.875338
vt 0.004019 0.866275
vt 0.467932 0.123285
vt 0.458939 0.127867
vt 0.445682 0.053004
vt 0.508580 0.143996
vt 0.503998 0.135003
vt 0.510118 0.053004
vt 0.185673 0.430068
vt 0.176680 0.425486
vt 0.198930 0.355205
vt 0.140614 0.437205
vt 0.136032 0.446197
vt 0.134493 0.355205
vt 0.496861 0.127867
vt 0.487869 0.123285
vt 0.197392 0.446197
vt 0.192809 0.437205
vt 0.156743 0.425486
vt 0.147750 0.430068
vt 0.447220 0.143996
vt 0.445682 0.153450
vt 0.477900 0.121706
vt 0.510118 0.153450
vt 0.914226 0.376818
vt 0.914226 0.447305
vt 0.909658 0.437732
vt 0.909658 0.328953
vt 0.914226 0.328953
vt 0.914226 0.476024
vt 0.909658 0.466451
vt 0.909658 0.476024
vt 0.909658 0.418586
vt 0.909658 0.309806
vt 0.914226 0.300491
vt 0.914226 0.357672
vt 0.981470 0.552560
vt 0.984763 0.593776
vt 0.981470 0.590575
vt 0.909658 0.399697
vt 0.914226 0.399697
vt 0.909658 0.447305
vt 0.914226 0.338526
vt 0.474247 0.477903
vt 0.526099 0.455178
vt 0.518664 0.477903
vt 0.209716 0.333866
vt 0.451802 0.135003
vt 0.166712 0.423907
vt 0.474247 0.578349
vt 0.518664 0.578349
vt 0.534091 0.425466
vt 0.578508 0.525912
vt 0.534091 0.525912
vt 0.198930 0.455651
vt 0.134493 0.455651
vt 0.434896 0.031664
vt 0.434896 0.001953
vt 0.461804 0.010416
vt 0.123707 0.333866
vt 0.123707 0.304154
vt 0.150615 0.312617
vt 0.526656 0.548638
vt 0.585943 0.578349
vt 0.526656 0.578349
vt 0.493996 0.010416
vt 0.520905 0.031664
vt 0.466812 0.455178
vt 0.526099 0.425466
vt 0.182808 0.312617
vt 0.209716 0.304154
vt 0.520905 0.001953
vt 0.503209 0.001953
vt 0.452591 0.001953
vt 0.141402 0.304154
vt 0.773454 0.690602
vt 0.714167 0.722794
vt 0.714167 0.690602
vt 0.773454 0.735304
vt 0.714167 0.752999
vt 0.714167 0.735304
vt 0.773454 0.678092
vt 0.714167 0.660397
vt 0.773454 0.660397
vt 0.192021 0.304154
vt 0.483995 0.891766
vt 0.474932 0.891766
vt 0.479463 0.863156
vt 0.466313 0.837348
vt 0.474932 0.834547
vt 0.492614 0.837348
vt 0.499945 0.842674
vt 0.037160 0.899416
vt 0.028097 0.899416
vt 0.037160 0.842197
vt 0.045779 0.844997
vt 0.450854 0.867688
vt 0.450854 0.858625
vt 0.483995 0.834547
vt 0.061238 0.866275
vt 0.012146 0.850324
vt 0.019478 0.844997
vt 0.466313 0.888965
vt 0.028097 0.842197
vt 0.045779 0.896615
vt 0.505272 0.850006
vt 0.453654 0.850006
vt 0.006819 0.857656
vt 0.058437 0.857656
vt 0.458981 0.883638
vt 0.053110 0.891288
vt 0.458981 0.842674
vt 0.508073 0.858625
vt 0.053110 0.850324
vt 0.453654 0.876307
vt 0.678261 0.349948
vt 0.678261 0.313383
vt 0.678261 0.276818
vt 0.678261 0.408452
vt 0.678261 0.371887
vt 0.699491 0.276818
vt 0.706666 0.276818
vt 0.706666 0.670951
vt 0.706666 0.678264
vt 0.542615 0.678974
vt 0.542615 0.740894
vt 0.555477 0.582338
vt 0.052788 0.732741
vt 0.039925 0.574185
vt 0.851922 0.566984
vt 0.914226 0.494913
vt 0.004019 0.348449
vt 0.851922 0.512609
vt 0.909658 0.300491
vt 0.984763 0.549360
vt 0.578508 0.425466
vt 0.585943 0.548638
vt 0.466812 0.425466
vt 0.773454 0.722794
vt 0.773454 0.752999
vt 0.714167 0.678092
vt 0.799855 0.030506
vt 0.799855 0.040024
vt 0.785980 0.040024
vt 0.785980 0.030506
vt 0.785980 0.020989
vt 0.799855 0.020989
vt 0.785980 0.011471
vt 0.799855 0.001953
vt 0.799855 0.011471
vt 0.799855 0.125684
vt 0.799855 0.135201
vt 0.785980 0.135201
vt 0.799855 0.116166
vt 0.785980 0.125684
vt 0.799855 0.106648
vt 0.785980 0.116166
vt 0.785980 0.106648
vt 0.785980 0.097130
vt 0.799855 0.097130
vt 0.785980 0.087613
vt 0.799855 0.078095
vt 0.799855 0.087613
vt 0.785980 0.078095
vt 0.785980 0.068577
vt 0.799855 0.059059
vt 0.799855 0.068577
vt 0.799855 0.049542
vt 0.785980 0.059059
vt 0.785980 0.049542
vt 0.752302 0.149043
vt 0.752302 0.160357
vt 0.750074 0.160357
vt 0.763636 0.064396
vt 0.758053 0.064396
vt 0.758053 0.053989
vt 0.758053 0.106025
vt 0.758053 0.095618
vt 0.763636 0.095618
vt 0.763636 0.043582
vt 0.758053 0.043582
vt 0.758053 0.033175
vt 0.758053 0.022768
vt 0.758053 0.012360
vt 0.763636 0.012360
vt 0.758053 0.147654
vt 0.758053 0.137247
vt 0.763636 0.137247
vt 0.758053 0.126840
vt 0.758053 0.116432
vt 0.763636 0.116432
vt 0.763636 0.074804
vt 0.758053 0.074804
vt 0.763636 0.053989
vt 0.758053 0.085211
vt 0.763636 0.033175
vt 0.758053 0.001953
vt 0.763636 0.001953
vt 0.763636 0.126840
vt 0.763636 0.106025
vt 0.763636 0.085211
vt 0.750074 0.069841
vt 0.752302 0.069841
vt 0.752302 0.081155
vt 0.752302 0.137728
vt 0.750074 0.149043
vt 0.750074 0.058526
vt 0.752302 0.058526
vt 0.750074 0.126414
vt 0.752302 0.126414
vt 0.752302 0.035897
vt 0.752302 0.047211
vt 0.750074 0.047211
vt 0.750074 0.115099
vt 0.752302 0.115099
vt 0.752302 0.024582
vt 0.750074 0.035897
vt 0.750074 0.103784
vt 0.752302 0.103784
vt 0.752302 0.013268
vt 0.750074 0.024582
vt 0.750074 0.092470
vt 0.752302 0.092470
vt 0.752302 0.001953
vt 0.750074 0.013268
vt 0.750074 0.081155
vt 0.105090 0.919684
vt 0.093625 0.922304
vt 0.093349 0.895878
vt 0.082157 0.872062
vt 0.093625 0.869448
vt 0.114283 0.912350
vt 0.072958 0.879395
vt 0.119384 0.901755
vt 0.067853 0.889993
vt 0.119384 0.889996
vt 0.067853 0.901758
vt 0.114283 0.879401
vt 0.082157 0.919689
vt 0.072958 0.912357
vt 0.105090 0.872067
vt 0.922301 0.167830
vt 0.922301 0.174627
vt 0.917637 0.174627
vt 0.922301 0.160811
vt 0.917637 0.167830
vt 0.922301 0.153525
vt 0.917637 0.160811
vt 0.922301 0.146123
vt 0.917637 0.153525
vt 0.917637 0.146123
vt 0.917637 0.138837
vt 0.922301 0.138837
vt 0.917637 0.131818
vt 0.922301 0.131818
vt 0.917637 0.125021
vt 0.914322 0.201376
vt 0.914322 0.224136
vt 0.909658 0.224136
vt 0.922301 0.125021
vt 0.917637 0.102261
vt 0.089148 0.949045
vt 0.055884 0.949045
vt 0.055884 0.926285
vt 0.270397 0.933448
vt 0.249657 0.933448
vt 0.256326 0.930513
vt 0.909658 0.273741
vt 0.914322 0.273741
vt 0.914322 0.296501
vt 0.936133 0.063004
vt 0.936133 0.069222
vt 0.929606 0.069222
vt 0.917637 0.197386
vt 0.911596 0.156666
vt 0.909658 0.156666
vt 0.909658 0.150246
vt 0.909658 0.266944
vt 0.914322 0.266944
vt 0.909658 0.517348
vt 0.909658 0.498903
vt 0.911623 0.498903
vt 0.909658 0.259926
vt 0.914322 0.259926
vt 0.706188 0.203964
vt 0.706188 0.197778
vt 0.708126 0.197778
vt 0.909658 0.252640
vt 0.914322 0.252640
vt 0.911623 0.542201
vt 0.909658 0.542201
vt 0.909658 0.535769
vt 0.909658 0.245238
vt 0.914322 0.245238
vt 0.911596 0.162851
vt 0.909658 0.162851
vt 0.909658 0.237952
vt 0.914322 0.237952
vt 0.955482 0.138463
vt 0.953543 0.138463
vt 0.953543 0.132042
vt 0.909658 0.230933
vt 0.914322 0.230933
vt 0.955482 0.169431
vt 0.953543 0.169431
vt 0.953543 0.150725
vt 0.706188 0.191700
vt 0.955482 0.112915
vt 0.953543 0.112915
vt 0.953543 0.106838
vt 0.909658 0.168928
vt 0.909658 0.529439
vt 0.911623 0.529439
vt 0.706188 0.235593
vt 0.706188 0.229514
vt 0.708126 0.229514
vt 0.936133 0.180672
vt 0.936133 0.186267
vt 0.929606 0.186267
vt 0.909658 0.125041
vt 0.909658 0.106336
vt 0.911596 0.106336
vt 0.955482 0.144647
vt 0.953543 0.144647
vt 0.911596 0.131119
vt 0.909658 0.131119
vt 0.929606 0.007548
vt 0.929606 0.001953
vt 0.936133 0.001953
vt 0.861360 0.833907
vt 0.849814 0.833907
vt 0.849814 0.827110
vt 0.861360 0.827110
vt 0.849814 0.820091
vt 0.849814 0.812805
vt 0.861360 0.812805
vt 0.849814 0.805403
vt 0.861360 0.805403
vt 0.849814 0.798117
vt 0.849814 0.791098
vt 0.861360 0.791098
vt 0.849814 0.784301
vt 0.861360 0.784301
vt 0.861360 0.856667
vt 0.849814 0.761542
vt 0.861360 0.761542
vt 0.909658 0.560622
vt 0.909658 0.554630
vt 0.911623 0.554630
vt 0.936133 0.024846
vt 0.929606 0.024846
vt 0.936133 0.031064
vt 0.929606 0.031064
vt 0.936133 0.037289
vt 0.929606 0.037289
vt 0.936133 0.043752
vt 0.929606 0.043752
vt 0.936133 0.050317
vt 0.929606 0.050317
vt 0.936133 0.056779
vt 0.929606 0.056779
vt 0.929606 0.086520
vt 0.929606 0.063004
vt 0.929606 0.125216
vt 0.936133 0.125216
vt 0.936133 0.131441
vt 0.929606 0.137903
vt 0.929606 0.131441
vt 0.929606 0.144468
vt 0.936133 0.137903
vt 0.936133 0.144468
vt 0.936133 0.150931
vt 0.929606 0.157156
vt 0.929606 0.150931
vt 0.936133 0.157156
vt 0.936133 0.163374
vt 0.929606 0.118998
vt 0.936133 0.118998
vt 0.929606 0.163374
vt 0.936133 0.101700
vt 0.911623 0.579067
vt 0.909658 0.579067
vt 0.955482 0.132042
vt 0.953543 0.125520
vt 0.706188 0.210385
vt 0.708126 0.203964
vt 0.911623 0.548531
vt 0.909658 0.548531
vt 0.911596 0.150246
vt 0.909658 0.143724
vt 0.953543 0.088132
vt 0.955482 0.088132
vt 0.706188 0.216908
vt 0.708126 0.210385
vt 0.911623 0.523340
vt 0.909658 0.523340
vt 0.953543 0.119100
vt 0.955482 0.119100
vt 0.909658 0.137303
vt 0.911596 0.137303
vt 0.929606 0.096105
vt 0.936133 0.096105
vt 0.708126 0.223329
vt 0.706188 0.223329
vt 0.911596 0.187634
vt 0.909658 0.187634
vt 0.706188 0.172991
vt 0.708126 0.172991
vt 0.936133 0.092115
vt 0.929606 0.092115
vt 0.708126 0.254301
vt 0.706188 0.254301
vt 0.087501 0.955639
vt 0.057531 0.955639
vt 0.062146 0.960927
vt 0.076217 0.963862
vt 0.068815 0.963862
vt 0.276659 0.968090
vt 0.243395 0.968090
vt 0.243395 0.945330
vt 0.276659 0.945330
vt 0.245042 0.938736
vt 0.785980 0.001953
vt 0.763636 0.022768
vt 0.763636 0.147654
vt 0.750074 0.137728
vt 0.750074 0.001953
vt 0.909658 0.201376
vt 0.922301 0.102261
vt 0.089148 0.926285
vt 0.263728 0.930513
vt 0.909658 0.296501
vt 0.922301 0.197386
vt 0.911623 0.517348
vt 0.911623 0.535769
vt 0.955482 0.150725
vt 0.708126 0.191700
vt 0.955482 0.106838
vt 0.911596 0.168928
vt 0.708126 0.235593
vt 0.929606 0.180672
vt 0.911596 0.125041
vt 0.936133 0.007548
vt 0.861360 0.820091
vt 0.861360 0.798117
vt 0.849814 0.856667
vt 0.911623 0.560622
vt 0.936133 0.086520
vt 0.929606 0.101700
vt 0.955482 0.125520
vt 0.911596 0.143724
vt 0.708126 0.216908
vt 0.082886 0.960927
vt 0.275012 0.938736
s 1
usemtl Material.003
f 10/1/1 168/2/2 18/3/3
f 26/4/4 171/5/5 34/6/6
f 171/5/5 42/7/7 34/6/6
f 173/8/8 50/9/9 42/7/7
f 50/9/9 177/10/10 58/11/11
f 177/10/10 66/12/12 58/11/11
f 179/13/13 74/14/14 66/12/12
f 181/15/15 82/16/16 74/14/14
f 183/17/17 90/18/18 82/16/16
f 185/19/19 98/20/20 90/21/18
f 187/22/21 106/23/22 98/20/20
f 106/23/22 191/24/23 114/25/24
f 191/24/23 122/26/25 114/25/24
f 193/27/26 130/28/27 122/26/25
f 195/29/28 138/30/29 130/28/27
f 197/31/30 146/32/31 138/30/29
f 146/32/31 166/33/32 154/34/33
f 200/35/34 158/36/35 165/37/32
f 69/38/36 61/39/37 202/40/38
f 166/33/32 2/41/39 154/34/33
f 10/1/1 4/42/40 2/41/39
f 4/42/40 11/43/41 3/44/42
f 3/44/42 9/45/43 1/46/44
f 6/47/45 16/48/46 14/49/47
f 16/48/46 7/50/48 15/51/49
f 7/50/48 13/52/50 15/51/49
f 18/3/3 12/53/51 10/1/1
f 12/53/51 19/54/52 11/43/41
f 19/54/52 9/45/43 11/43/41
f 22/55/53 16/48/46 24/56/54
f 16/48/46 23/57/55 24/56/54
f 23/57/55 13/52/50 21/58/56
f 26/4/4 20/59/57 18/3/3
f 20/59/57 27/60/58 19/54/52
f 27/60/58 17/61/59 19/54/52
f 22/55/53 32/62/60 30/63/61
f 24/56/54 31/64/62 32/62/60
f 31/64/62 21/58/56 29/65/63
f 34/6/6 28/66/64 26/4/4
f 36/67/65 27/60/58 28/66/64
f 27/60/58 33/68/66 25/69/67
f 30/63/61 40/70/68 38/71/69
f 32/62/60 39/72/70 40/70/68
f 31/64/62 37/73/71 39/72/70
f 42/7/7 36/67/65 34/6/6
f 36/67/65 43/74/72 35/75/73
f 35/75/73 41/76/74 33/68/66
f 46/77/75 40/70/68 48/78/76
f 40/70/68 47/79/77 48/78/76
f 47/79/77 37/73/71 45/80/78
f 50/9/9 44/81/79 42/7/7
f 44/81/79 51/82/80 43/74/72
f 51/82/80 41/76/74 43/74/72
f 46/77/75 56/83/81 54/84/82
f 48/78/76 55/85/83 56/83/81
f 55/85/83 45/80/78 53/86/84
f 58/11/11 52/87/85 50/9/9
f 52/87/85 59/88/86 51/82/80
f 59/88/86 49/89/87 51/82/80
f 54/84/82 64/90/88 62/91/89
f 56/83/81 63/92/90 64/90/88
f 63/92/90 53/86/84 61/93/37
f 66/12/12 60/94/91 58/11/11
f 60/94/91 67/95/92 59/88/86
f 67/95/92 57/96/93 59/88/86
f 70/97/94 64/90/88 72/98/95
f 64/90/88 71/99/96 72/98/95
f 63/92/90 69/100/36 71/99/96
f 74/14/14 68/101/97 66/12/12
f 76/102/98 67/95/92 68/101/97
f 67/95/92 73/103/99 65/104/100
f 70/97/94 80/105/101 78/106/102
f 80/105/101 71/99/96 79/107/103
f 71/99/96 77/108/104 79/107/103
f 82/16/16 76/102/98 74/14/14
f 76/102/98 83/109/105 75/110/106
f 83/109/105 73/103/99 75/110/106
f 86/111/107 80/105/101 88/112/108
f 88/112/108 79/107/103 87/113/109
f 87/113/109 77/108/104 85/114/110
f 90/18/18 84/115/111 82/16/16
f 84/115/111 91/116/112 83/109/105
f 91/116/112 81/117/113 83/109/105
f 94/118/114 88/112/108 96/119/115
f 96/119/115 87/113/109 95/120/116
f 87/113/109 93/121/117 95/120/116
f 98/20/20 92/122/118 90/21/18
f 92/122/118 99/123/119 91/124/112
f 99/123/119 89/125/120 91/124/112
f 102/126/121 96/127/115 104/128/122
f 104/128/122 95/129/116 103/130/123
f 103/130/123 93/131/117 101/132/124
f 98/20/20 108/133/125 100/134/126
f 108/133/125 99/123/119 100/134/126
f 107/135/127 97/136/128 99/123/119
f 102/126/121 112/137/129 110/138/130
f 112/137/129 103/130/123 111/139/131
f 111/139/131 101/132/124 109/140/132
f 106/23/22 116/141/133 108/133/125
f 116/141/133 107/135/127 108/133/125
f 115/142/134 105/143/135 107/135/127
f 118/144/136 112/137/129 120/145/137
f 112/137/129 119/146/138 120/145/137
f 119/146/138 109/140/132 117/147/139
f 114/25/24 124/148/140 116/141/133
f 116/141/133 123/149/141 115/142/134
f 123/149/141 113/150/142 115/142/134
f 126/151/143 120/145/137 128/152/144
f 120/145/137 127/153/145 128/152/144
f 119/146/138 125/154/146 127/153/145
f 130/28/27 124/148/140 122/26/25
f 124/148/140 131/155/147 123/149/141
f 123/149/141 129/156/148 121/157/149
f 134/158/150 128/152/144 136/159/151
f 128/152/144 135/160/152 136/159/151
f 135/160/152 125/154/146 133/161/153
f 138/30/29 132/162/154 130/28/27
f 132/162/154 139/163/155 131/155/147
f 139/163/155 129/156/148 131/155/147
f 142/164/156 136/159/151 144/165/157
f 136/159/151 143/166/158 144/165/157
f 143/166/158 133/161/153 141/167/159
f 146/32/31 140/168/160 138/30/29
f 140/168/160 147/169/161 139/163/155
f 147/169/161 137/170/162 139/163/155
f 142/164/156 152/171/163 150/172/164
f 144/165/157 151/173/165 152/171/163
f 151/173/165 141/167/159 149/174/166
f 154/34/33 148/175/167 146/32/31
f 148/175/167 155/176/168 147/169/161
f 155/176/168 145/177/169 147/169/161
f 158/36/35 152/171/163 160/178/170
f 152/171/163 159/179/171 160/178/170
f 151/173/165 157/180/172 159/179/171
f 2/41/39 156/181/173 154/34/33
f 156/181/173 3/44/42 155/176/168
f 155/176/168 1/46/44 153/182/174
f 6/47/45 160/178/170 8/183/175
f 8/183/175 159/179/171 7/50/48
f 159/179/171 5/184/176 7/50/48
f 57/185/93 65/186/100 201/187/177
f 165/37/32 6/47/45 162/188/178
f 163/189/179 22/55/53 167/190/2
f 18/3/3 169/191/180 26/4/4
f 142/164/156 200/35/34 198/192/30
f 110/138/130 192/193/181 190/194/182
f 94/195/114 188/196/21 186/197/19
f 86/111/107 186/198/19 184/199/17
f 78/106/102 184/199/17 182/200/15
f 180/201/13 78/106/102 182/200/15
f 176/202/183 62/91/89 178/203/10
f 46/77/75 176/202/183 174/204/8
f 38/71/69 174/204/8 172/205/5
f 30/63/61 172/205/5 170/206/180
f 22/55/53 170/206/180 167/190/2
f 161/207/178 10/1/1 2/41/39
f 162/188/178 14/49/47 163/189/179
f 145/208/169 153/209/174 201/187/177
f 141/210/159 133/211/153 202/40/38
f 61/39/37 53/212/84 202/40/38
f 133/211/153 125/213/146 202/40/38
f 53/212/84 45/214/78 202/40/38
f 125/213/146 117/215/139 202/40/38
f 45/214/78 37/216/71 202/40/38
f 117/215/139 109/217/132 202/40/38
f 37/216/71 29/218/63 202/40/38
f 109/217/132 101/219/124 202/40/38
f 29/218/63 21/220/56 202/40/38
f 101/219/124 93/221/117 202/40/38
f 21/220/56 13/222/50 202/40/38
f 93/221/117 85/223/110 202/40/38
f 13/222/50 5/224/176 202/40/38
f 85/223/110 77/225/104 202/40/38
f 157/226/172 149/227/166 202/40/38
f 5/224/176 157/226/172 202/40/38
f 77/225/104 69/38/36 202/40/38
f 149/227/166 141/210/159 202/40/38
f 73/228/99 81/229/113 201/187/177
f 81/229/113 89/230/120 201/187/177
f 9/231/43 17/232/59 201/187/177
f 89/230/120 97/233/128 201/187/177
f 17/232/59 25/234/67 201/187/177
f 97/233/128 105/235/135 201/187/177
f 25/234/67 33/236/66 201/187/177
f 1/237/44 9/231/43 201/187/177
f 105/235/135 113/238/142 201/187/177
f 33/236/66 41/239/74 201/187/177
f 153/209/174 1/237/44 201/187/177
f 113/238/142 121/240/149 201/187/177
f 41/239/74 49/241/87 201/187/177
f 121/240/149 129/242/148 201/187/177
f 49/241/87 57/185/93 201/187/177
f 129/242/148 137/243/162 201/187/177
f 65/186/100 73/228/99 201/187/177
f 137/243/162 145/208/169 201/187/177
f 203/244/38 214/245/38 213/246/38
f 203/244/38 213/246/38 212/247/38
f 204/248/177 221/249/177 220/250/177
f 203/244/38 212/247/38 211/251/38
f 203/244/38 206/252/38 218/253/38
f 235/254/177 234/255/177 204/248/177
f 203/244/38 211/251/38 210/256/38
f 203/244/38 218/253/38 219/257/38
f 203/244/38 210/256/38 209/258/38
f 203/244/38 209/258/38 208/259/38
f 203/244/38 208/259/38 207/260/38
f 204/248/177 238/261/177 235/254/177
f 203/244/38 237/262/38 236/263/38
f 231/264/184 215/265/17 216/266/184
f 209/267/5 223/268/180 208/269/180
f 233/270/185 219/271/186 218/272/185
f 232/273/187 216/266/184 217/274/187
f 210/275/8 224/276/5 209/267/5
f 221/277/178 218/272/185 206/278/178
f 211/279/183 225/280/8 210/275/8
f 212/281/10 226/282/183 211/279/183
f 236/283/188 232/273/187 217/274/187
f 228/284/13 212/281/10 213/285/13
f 220/286/179 206/278/178 205/287/179
f 229/288/15 213/285/13 214/289/15
f 222/290/2 205/287/179 207/291/2
f 230/292/17 214/289/15 215/265/17
f 208/269/180 222/290/2 207/291/2
f 235/293/189 219/271/186 234/294/186
f 203/244/38 215/295/38 214/245/38
f 203/244/38 216/296/38 215/295/38
f 203/244/38 217/297/38 216/296/38
f 204/248/177 234/255/177 233/298/177
f 204/248/177 232/299/177 238/261/177
f 204/248/177 233/298/177 221/249/177
f 236/263/38 217/297/38 203/244/38
f 203/244/38 205/300/38 206/252/38
f 203/244/38 219/257/38 237/262/38
f 203/244/38 207/260/38 205/300/38
f 239/301/177 249/302/177 250/303/177
f 239/301/177 248/304/177 249/302/177
f 239/301/177 247/305/177 248/304/177
f 239/301/177 254/306/177 242/307/177
f 271/308/38 240/309/38 270/310/38
f 239/301/177 246/311/177 247/305/177
f 239/301/177 255/312/177 254/306/177
f 240/309/38 268/313/38 267/314/38
f 239/301/177 245/315/177 246/311/177
f 240/309/38 267/314/38 266/316/38
f 239/301/177 244/317/177 245/315/177
f 240/309/38 266/316/38 265/318/38
f 239/301/177 243/319/177 244/317/177
f 240/309/38 271/308/38 274/320/38
f 239/301/177 272/321/177 273/322/177
f 251/323/17 267/324/184 252/325/184
f 244/326/180 260/327/5 245/328/5
f 254/329/185 270/330/186 269/331/185
f 253/332/187 267/324/184 268/333/187
f 245/328/5 261/334/8 246/335/8
f 254/329/185 257/336/178 242/337/178
f 246/335/8 262/338/183 247/339/183
f 247/339/183 263/340/10 248/341/10
f 268/333/187 272/342/188 253/332/187
f 248/341/10 264/343/13 249/344/13
f 242/337/178 256/345/179 241/346/179
f 249/344/13 265/347/15 250/348/15
f 243/349/2 256/345/179 258/350/2
f 250/348/15 266/351/17 251/323/17
f 243/349/2 259/352/180 244/326/180
f 255/353/186 271/354/189 270/330/186
f 239/301/177 250/303/177 251/355/177
f 239/301/177 251/355/177 252/356/177
f 239/301/177 252/356/177 253/357/177
f 240/309/38 274/320/38 268/313/38
f 272/321/177 239/301/177 253/357/177
f 239/301/177 242/307/177 241/358/177
f 239/301/177 273/322/177 255/312/177
f 239/301/177 241/358/177 243/319/177
f 281/359/190 315/360/191 277/361/192
f 290/362/193 324/363/194 288/364/194
f 312/365/34 280/366/32 311/367/34
f 310/368/30 311/367/34 309/369/30
f 310/368/30 307/370/195 308/371/195
f 306/372/181 303/373/182 304/374/182
f 304/374/182 301/375/21 302/376/21
f 302/376/21 299/377/19 300/378/19
f 300/378/19 297/379/196 298/380/196
f 283/381/197 321/382/198 285/383/198
f 278/384/199 313/385/200 316/386/201
f 293/387/202 331/388/203 295/389/204
f 297/390/205 334/391/205 298/392/205
f 286/393/206 320/394/207 284/395/207
f 294/396/208 332/397/209 330/398/208
f 289/399/210 327/400/211 291/401/211
f 277/361/192 314/402/212 276/403/213
f 276/404/214 280/366/32 279/405/32
f 293/406/177 295/407/177 355/408/177
f 309/409/177 311/410/177 355/408/177
f 321/411/177 319/412/177 335/413/215
f 331/414/177 329/415/177 337/416/215
f 320/417/38 322/418/38 336/419/216
f 330/420/38 332/421/38 338/422/216
f 327/423/177 325/424/177 337/416/215
f 315/425/38 317/426/38 336/419/216
f 326/427/38 328/428/38 338/422/216
f 316/429/177 313/430/177 335/413/215
f 323/431/177 321/411/177 335/413/215
f 333/432/177 331/414/177 337/416/215
f 284/395/207 317/433/190 281/359/190
f 287/434/217 325/435/210 289/399/210
f 292/436/218 330/398/208 328/437/218
f 282/438/219 319/439/197 283/381/197
f 278/384/199 318/440/219 282/438/219
f 291/401/211 329/441/202 293/387/202
f 296/442/220 334/443/221 332/397/209
f 288/364/194 322/444/206 286/393/206
f 276/445/222 313/446/222 275/447/222
f 295/389/204 333/448/223 297/449/224
f 287/434/217 321/382/198 323/450/217
f 292/436/218 326/451/193 290/362/193
f 337/452/225 342/453/226 338/454/225
f 338/422/216 340/455/227 336/419/216
f 318/456/177 316/429/177 335/413/215
f 324/457/38 338/422/216 336/419/216
f 317/426/38 320/417/38 336/419/216
f 333/458/17 338/454/225 334/459/17
f 323/431/177 337/416/215 325/424/177
f 313/460/178 336/461/228 335/462/228
f 328/428/38 330/420/38 338/422/216
f 319/412/177 318/456/177 335/413/215
f 314/463/38 315/425/38 336/419/216
f 329/415/177 327/423/177 337/416/215
f 332/421/38 334/464/38 338/422/216
f 322/418/38 324/457/38 336/419/216
f 339/465/229 347/466/177 345/467/177
f 342/468/227 350/469/38 344/470/38
f 339/471/230 348/472/178 347/473/178
f 339/465/229 343/474/177 341/475/229
f 341/476/226 350/477/17 342/453/226
f 340/455/227 346/478/38 348/479/38
f 342/468/227 346/478/38 340/455/227
f 337/416/215 339/465/229 341/475/229
f 336/461/228 339/471/230 335/462/228
f 349/480/177 343/474/177 351/481/177
f 345/467/177 347/466/177 353/482/177
f 344/470/38 350/469/38 352/483/38
f 346/484/231 343/485/232 345/486/231
f 341/475/229 343/474/177 349/480/177
f 352/487/232 349/488/8 351/489/232
f 354/490/231 347/491/8 348/492/8
f 345/486/231 354/490/231 346/484/231
f 343/485/232 352/487/232 351/489/232
f 348/479/38 346/478/38 354/493/38
f 304/494/38 302/495/38 356/496/38
f 286/497/38 284/498/38 356/496/38
f 277/499/38 276/500/38 356/496/38
f 301/501/177 303/502/177 355/408/177
f 283/503/177 285/504/177 355/408/177
f 294/505/38 292/506/38 356/496/38
f 284/498/38 281/507/38 356/496/38
f 291/508/177 293/406/177 355/408/177
f 275/509/177 278/510/177 355/408/177
f 302/495/38 300/511/38 356/496/38
f 282/512/177 283/503/177 355/408/177
f 281/507/38 277/499/38 356/496/38
f 299/513/177 301/501/177 355/408/177
f 276/500/38 279/514/38 356/496/38
f 292/506/38 290/515/38 356/496/38
f 280/516/177 275/509/177 355/408/177
f 289/517/177 291/508/177 355/408/177
f 278/510/177 282/512/177 355/408/177
f 300/511/38 298/518/38 356/496/38
f 297/519/177 299/513/177 355/408/177
f 290/515/38 288/520/38 356/496/38
f 279/514/38 312/521/38 356/496/38
f 287/522/177 289/517/177 355/408/177
f 298/518/38 296/523/38 356/496/38
f 311/410/177 280/516/177 355/408/177
f 295/407/177 297/519/177 355/408/177
f 288/520/38 286/497/38 356/496/38
f 285/504/177 287/522/177 355/408/177
f 296/523/38 294/505/38 356/496/38
f 10/1/1 164/524/179 168/2/2
f 171/5/5 173/8/8 42/7/7
f 173/8/8 175/525/183 50/9/9
f 50/9/9 175/525/183 177/10/10
f 177/10/10 179/13/13 66/12/12
f 179/13/13 181/15/15 74/14/14
f 181/15/15 183/17/17 82/16/16
f 183/17/17 185/526/19 90/18/18
f 185/19/19 187/22/21 98/20/20
f 187/22/21 189/527/182 106/23/22
f 106/23/22 189/527/182 191/24/23
f 191/24/23 193/27/26 122/26/25
f 197/31/30 199/528/34 146/32/31
f 146/32/31 199/528/34 166/33/32
f 200/35/34 150/172/164 158/36/35
f 166/33/32 161/207/178 2/41/39
f 10/1/1 12/53/51 4/42/40
f 4/42/40 12/53/51 11/43/41
f 3/44/42 11/43/41 9/45/43
f 6/47/45 8/183/175 16/48/46
f 16/48/46 8/183/175 7/50/48
f 7/50/48 5/184/176 13/52/50
f 18/3/3 20/59/57 12/53/51
f 12/53/51 20/59/57 19/54/52
f 19/54/52 17/61/59 9/45/43
f 22/55/53 14/49/47 16/48/46
f 16/48/46 15/51/49 23/57/55
f 23/57/55 15/51/49 13/52/50
f 26/4/4 28/66/64 20/59/57
f 20/59/57 28/66/64 27/60/58
f 27/60/58 25/69/67 17/61/59
f 22/55/53 24/56/54 32/62/60
f 24/56/54 23/57/55 31/64/62
f 31/64/62 23/57/55 21/58/56
f 34/6/6 36/67/65 28/66/64
f 36/67/65 35/75/73 27/60/58
f 27/60/58 35/75/73 33/68/66
f 30/63/61 32/62/60 40/70/68
f 32/62/60 31/64/62 39/72/70
f 31/64/62 29/65/63 37/73/71
f 42/7/7 44/81/79 36/67/65
f 36/67/65 44/81/79 43/74/72
f 35/75/73 43/74/72 41/76/74
f 46/77/75 38/71/69 40/70/68
f 40/70/68 39/72/70 47/79/77
f 47/79/77 39/72/70 37/73/71
f 50/9/9 52/87/85 44/81/79
f 44/81/79 52/87/85 51/82/80
f 51/82/80 49/89/87 41/76/74
f 46/77/75 48/78/76 56/83/81
f 48/78/76 47/79/77 55/85/83
f 55/85/83 47/79/77 45/80/78
f 58/11/11 60/94/91 52/87/85
f 52/87/85 60/94/91 59/88/86
f 59/88/86 57/96/93 49/89/87
f 54/84/82 56/83/81 64/90/88
f 56/83/81 55/85/83 63/92/90
f 63/92/90 55/85/83 53/86/84
f 66/12/12 68/101/97 60/94/91
f 60/94/91 68/101/97 67/95/92
f 67/95/92 65/104/100 57/96/93
f 70/97/94 62/91/89 64/90/88
f 64/90/88 63/92/90 71/99/96
f 63/92/90 61/93/37 69/100/36
f 74/14/14 76/102/98 68/101/97
f 76/102/98 75/110/106 67/95/92
f 67/95/92 75/110/106 73/103/99
f 70/97/94 72/98/95 80/105/101
f 80/105/101 72/98/95 71/99/96
f 71/99/96 69/100/36 77/108/104
f 82/16/16 84/115/111 76/102/98
f 76/102/98 84/115/111 83/109/105
f 83/109/105 81/117/113 73/103/99
f 86/111/107 78/106/102 80/105/101
f 88/112/108 80/105/101 79/107/103
f 87/113/109 79/107/103 77/108/104
f 90/18/18 92/529/118 84/115/111
f 84/115/111 92/529/118 91/116/112
f 91/116/112 89/530/120 81/117/113
f 94/118/114 86/111/107 88/112/108
f 96/119/115 88/112/108 87/113/109
f 87/113/109 85/114/110 93/121/117
f 98/20/20 100/134/126 92/122/118
f 92/122/118 100/134/126 99/123/119
f 99/123/119 97/136/128 89/125/120
f 102/126/121 94/195/114 96/127/115
f 104/128/122 96/127/115 95/129/116
f 103/130/123 95/129/116 93/131/117
f 98/20/20 106/23/22 108/133/125
f 108/133/125 107/135/127 99/123/119
f 107/135/127 105/143/135 97/136/128
f 102/126/121 104/128/122 112/137/129
f 112/137/129 104/128/122 103/130/123
f 111/139/131 103/130/123 101/132/124
f 106/23/22 114/25/24 116/141/133
f 116/141/133 115/142/134 107/135/127
f 115/142/134 113/150/142 105/143/135
f 118/144/136 110/138/130 112/137/129
f 112/137/129 111/139/131 119/146/138
f 119/146/138 111/139/131 109/140/132
f 114/25/24 122/26/25 124/148/140
f 116/141/133 124/148/140 123/149/141
f 123/149/141 121/157/149 113/150/142
f 126/151/143 118/144/136 120/145/137
f 120/145/137 119/146/138 127/153/145
f 119/146/138 117/147/139 125/154/146
f 130/28/27 132/162/154 124/148/140
f 124/148/140 132/162/154 131/155/147
f 123/149/141 131/155/147 129/156/148
f 134/158/150 126/151/143 128/152/144
f 128/152/144 127/153/145 135/160/152
f 135/160/152 127/153/145 125/154/146
f 138/30/29 140/168/160 132/162/154
f 132/162/154 140/168/160 139/163/155
f 139/163/155 137/170/162 129/156/148
f 142/164/156 134/158/150 136/159/151
f 136/159/151 135/160/152 143/166/158
f 143/166/158 135/160/152 133/161/153
f 146/32/31 148/175/167 140/168/160
f 140/168/160 148/175/167 147/169/161
f 147/169/161 145/177/169 137/170/162
f 142/164/156 144/165/157 152/171/163
f 144/165/157 143/166/158 151/173/165
f 151/173/165 143/166/158 141/167/159
f 154/34/33 156/181/173 148/175/167
f 148/175/167 156/181/173 155/176/168
f 155/176/168 153/182/174 145/177/169
f 158/36/35 150/172/164 152/171/163
f 152/171/163 151/173/165 159/179/171
f 151/173/165 149/174/166 157/180/172
f 2/41/39 4/42/40 156/181/173
f 156/181/173 4/42/40 3/44/42
f 155/176/168 3/44/42 1/46/44
f 6/47/45 158/36/35 160/178/170
f 8/183/175 160/178/170 159/179/171
f 159/179/171 157/180/172 5/184/176
f 165/37/32 158/36/35 6/47/45
f 163/189/179 14/49/47 22/55/53
f 142/164/156 150/172/164 200/35/34
f 196/531/195 134/158/150 142/164/156
f 194/532/26 126/151/143 134/158/150
f 192/193/181 118/144/136 126/151/143
f 110/138/130 118/144/136 192/193/181
f 102/126/121 110/138/130 190/194/182
f 94/195/114 102/126/121 188/196/21
f 86/111/107 94/118/114 186/198/19
f 78/106/102 86/111/107 184/199/17
f 180/201/13 70/97/94 78/106/102
f 178/203/10 62/91/89 70/97/94
f 176/202/183 54/84/82 62/91/89
f 46/77/75 54/84/82 176/202/183
f 38/71/69 46/77/75 174/204/8
f 30/63/61 38/71/69 172/205/5
f 22/55/53 30/63/61 170/206/180
f 161/207/178 164/524/179 10/1/1
f 162/188/178 6/47/45 14/49/47
f 231/264/184 230/292/17 215/265/17
f 209/267/5 224/276/5 223/268/180
f 233/270/185 234/294/186 219/271/186
f 232/273/187 231/264/184 216/266/184
f 210/275/8 225/280/8 224/276/5
f 221/277/178 233/270/185 218/272/185
f 211/279/183 226/282/183 225/280/8
f 212/281/10 227/533/10 226/282/183
f 236/283/188 238/534/188 232/273/187
f 228/284/13 227/533/10 212/281/10
f 220/286/179 221/277/178 206/278/178
f 229/288/15 228/284/13 213/285/13
f 222/290/2 220/286/179 205/287/179
f 230/292/17 229/288/15 214/289/15
f 208/269/180 223/268/180 222/290/2
f 235/293/189 237/535/189 219/271/186
f 251/323/17 266/351/17 267/324/184
f 244/326/180 259/352/180 260/327/5
f 254/329/185 255/353/186 270/330/186
f 253/332/187 252/325/184 267/324/184
f 245/328/5 260/327/5 261/334/8
f 254/329/185 269/331/185 257/336/178
f 246/335/8 261/334/8 262/338/183
f 247/339/183 262/338/183 263/340/10
f 268/333/233 274/536/188 272/342/188
f 248/341/10 263/340/10 264/343/13
f 242/337/178 257/336/178 256/345/179
f 249/344/13 264/343/13 265/347/15
f 243/349/2 241/346/179 256/345/179
f 250/348/15 265/347/15 266/351/17
f 243/349/2 258/350/2 259/352/180
f 255/353/234 273/537/189 271/354/189
f 281/359/190 317/433/190 315/360/191
f 290/362/193 326/451/193 324/363/194
f 312/365/34 279/405/32 280/366/32
f 310/368/30 312/365/34 311/367/34
f 310/368/30 309/369/30 307/370/195
f 306/372/181 305/538/181 303/373/182
f 304/374/182 303/373/182 301/375/21
f 302/376/21 301/375/21 299/377/19
f 300/378/19 299/377/19 297/379/196
f 283/381/197 319/439/197 321/382/198
f 278/384/199 275/539/235 313/385/200
f 293/387/202 329/441/202 331/388/203
f 297/390/205 333/540/205 334/391/205
f 286/393/206 322/444/206 320/394/207
f 294/396/208 296/442/220 332/397/209
f 289/399/210 325/435/210 327/400/211
f 277/361/192 315/360/191 314/402/212
f 276/404/214 275/541/214 280/366/32
f 284/395/207 320/394/207 317/433/190
f 287/434/217 323/450/217 325/435/210
f 292/436/218 294/396/208 330/398/208
f 282/438/219 318/440/219 319/439/197
f 278/384/199 316/386/201 318/440/219
f 291/401/211 327/400/211 329/441/202
f 296/442/220 298/542/236 334/443/221
f 288/364/194 324/363/194 322/444/206
f 276/445/222 314/543/222 313/446/222
f 295/389/204 331/388/203 333/448/223
f 287/434/217 285/383/198 321/382/198
f 292/436/218 328/437/218 326/451/193
f 337/452/225 341/476/226 342/453/226
f 338/422/216 342/468/227 340/455/227
f 324/457/38 326/427/38 338/422/216
f 333/458/17 337/452/225 338/454/225
f 323/431/177 335/413/215 337/416/215
f 313/460/178 314/544/178 336/461/228
f 339/471/230 340/545/230 348/472/178
f 339/465/229 345/467/177 343/474/177
f 341/476/226 349/546/17 350/477/17
f 342/468/227 344/470/38 346/478/38
f 337/416/215 335/413/215 339/465/229
f 336/461/228 340/545/230 339/471/230
f 346/484/231 344/547/232 343/485/232
f 352/487/232 350/548/8 349/488/8
f 354/490/231 353/549/231 347/491/8
f 345/486/231 353/549/231 354/490/231
f 343/485/232 344/547/232 352/487/232
f 357/550/237 383/551/238 384/552/238
f 357/550/237 358/553/237 360/554/239
f 359/555/239 360/554/239 362/556/240
f 363/557/241 361/558/240 362/556/240
f 365/559/242 363/560/241 364/561/241
f 367/562/243 365/559/242 366/563/242
f 369/564/244 367/562/243 368/565/243
f 369/564/244 370/566/244 372/567/245
f 371/568/245 372/567/245 374/569/246
f 375/570/247 373/571/246 374/569/246
f 375/570/247 376/572/247 378/573/248
f 379/574/249 377/575/248 378/573/248
f 381/576/250 379/574/249 380/577/249
f 381/576/250 382/578/250 384/552/238
f 389/579/251 388/580/252 402/581/253
f 394/582/254 376/583/255 374/584/256
f 384/585/257 382/586/258 397/587/259
f 392/588/260 372/589/261 370/590/262
f 368/591/263 366/592/264 389/593/265
f 364/594/266 362/595/267 387/596/268
f 360/597/269 358/598/270 385/599/271
f 395/600/272 378/601/273 376/583/255
f 393/602/274 374/584/256 372/589/261
f 397/587/259 382/586/258 380/603/275
f 391/604/276 370/590/262 368/591/263
f 366/592/264 364/605/266 388/606/277
f 362/595/267 360/597/269 386/607/278
f 358/598/270 384/585/257 398/608/279
f 396/609/280 380/603/275 378/601/273
f 410/610/281 396/611/282 395/612/283
f 390/613/284 389/579/251 403/614/285
f 411/615/286 397/616/287 396/611/282
f 405/617/288 391/618/289 390/613/284
f 385/619/290 398/620/291 412/621/292
f 398/620/291 397/616/287 411/615/286
f 406/622/293 392/623/294 391/618/289
f 386/624/295 385/619/290 399/625/296
f 407/626/297 393/627/298 392/623/294
f 387/628/299 386/624/295 400/629/300
f 408/630/301 394/631/302 393/627/298
f 388/632/252 387/628/299 401/633/303
f 409/634/304 395/612/283 394/631/302
f 401/635/305 400/636/306 413/637/307
f 408/638/308 407/639/309 413/637/307
f 402/640/310 401/635/305 413/637/307
f 409/641/311 408/638/308 413/637/307
f 403/642/312 402/640/310 413/637/307
f 410/643/313 409/641/311 413/637/307
f 404/644/314 403/642/312 413/637/307
f 411/645/315 410/643/313 413/637/307
f 405/646/316 404/644/314 413/637/307
f 399/647/317 412/648/318 413/637/307
f 412/648/318 411/645/315 413/637/307
f 406/649/319 405/646/316 413/637/307
f 400/636/306 399/647/317 413/637/307
f 407/639/309 406/649/319 413/637/307
f 436/650/320 435/651/321 415/652/321
f 438/653/322 436/650/320 417/654/320
f 440/655/323 438/653/322 419/656/322
f 442/657/324 440/655/323 421/658/323
f 442/657/324 423/659/324 425/660/325
f 444/661/325 425/660/325 427/662/326
f 446/663/326 427/662/326 429/664/327
f 452/665/177 434/666/321 414/667/321
f 448/668/327 429/664/327 430/669/38
f 429/670/178 415/671/178 432/672/178
f 424/673/17 418/674/17 420/675/17
f 428/676/327 449/677/327 451/678/38
f 492/679/328 457/680/329 497/681/329
f 432/682/177 415/652/321 435/651/321
f 484/683/178 445/684/178 443/685/178
f 426/686/326 447/687/326 449/677/327
f 465/688/178 482/689/178 511/690/178
f 426/686/326 424/691/325 445/692/325
f 444/693/17 446/694/17 454/695/17
f 422/696/324 443/697/324 445/692/325
f 502/698/178 472/699/178 470/700/178
f 422/696/324 420/701/323 441/702/323
f 455/703/178 447/704/178 445/684/178
f 420/701/323 418/705/322 439/706/322
f 499/707/17 469/708/17 471/709/17
f 416/710/320 437/711/320 439/706/322
f 510/712/17 483/713/17 464/714/17
f 416/710/320 414/667/321 434/666/321
f 454/695/17 446/694/17 448/715/17
f 507/716/17 477/717/17 479/718/17
f 449/719/178 447/704/178 455/703/178
f 470/700/178 468/720/178 498/721/178
f 435/722/17 436/723/17 493/724/17
f 460/725/330 450/726/331 481/727/331
f 434/728/178 452/729/178 456/730/178
f 496/731/17 467/732/17 469/708/17
f 492/733/178 437/734/178 434/728/178
f 513/735/330 480/736/331 451/737/331
f 464/738/321 465/739/321 466/740/320
f 467/741/320 466/740/320 468/742/322
f 468/742/322 470/743/323 471/744/323
f 471/744/323 470/743/323 472/745/324
f 473/746/324 472/745/324 474/747/325
f 474/747/325 476/748/326 477/749/326
f 476/748/326 478/750/327 479/751/327
f 465/739/321 464/738/321 483/752/177
f 478/750/332 481/753/38 480/754/38
f 478/755/178 476/756/178 506/757/178
f 463/758/333 509/759/333 513/735/334
f 455/760/335 507/761/335 509/759/333
f 455/760/335 484/762/325 505/763/325
f 486/764/324 503/765/324 505/763/325
f 486/764/324 488/766/323 501/767/323
f 488/766/323 490/768/322 499/769/322
f 510/770/336 497/681/329 457/680/329
f 492/679/328 496/771/328 499/769/322
f 495/772/328 493/773/328 491/774/322
f 500/775/323 498/776/322 491/774/322
f 502/777/324 500/775/323 489/778/323
f 502/777/324 487/779/324 485/780/325
f 506/781/335 504/782/325 485/780/325
f 506/781/335 454/783/335 461/784/333
f 495/772/328 494/785/329 459/786/329
f 508/787/333 461/784/333 460/725/334
f 458/788/336 459/786/329 494/785/329
f 512/789/178 481/790/178 478/755/178
f 501/791/17 471/709/17 473/792/17
f 442/793/17 444/693/17 485/794/17
f 504/795/178 474/796/178 472/699/178
f 486/797/178 443/685/178 441/798/178
f 479/718/17 480/799/17 513/800/17
f 440/801/17 442/793/17 487/802/17
f 495/803/178 466/804/178 465/688/178
f 473/792/17 475/805/17 505/806/17
f 441/798/178 439/807/178 490/808/178
f 482/809/337 453/810/337 458/788/336
f 506/757/178 476/756/178 474/796/178
f 491/811/17 438/812/17 440/801/17
f 464/714/17 467/732/17 496/731/17
f 462/813/178 451/814/178 449/719/178
f 439/807/178 437/734/178 492/733/178
f 468/720/178 466/804/178 495/803/178
f 448/715/17 450/815/17 460/816/17
f 475/805/17 477/717/17 507/716/17
f 493/724/17 436/723/17 438/812/17
f 452/817/337 483/818/337 510/770/336
f 458/819/17 453/820/17 435/722/17
f 427/821/178 417/822/178 415/671/178
f 419/823/178 417/822/178 427/821/178
f 423/824/178 421/825/178 419/823/178
f 431/826/17 433/827/17 414/828/17
f 428/829/17 414/828/17 416/830/17
f 416/830/17 418/674/17 424/673/17
f 357/550/237 384/552/238 358/553/237
f 357/550/237 360/554/239 359/555/239
f 359/555/239 362/556/240 361/558/240
f 363/557/241 362/556/240 364/831/241
f 365/559/242 364/561/241 366/563/242
f 367/562/243 366/563/242 368/565/243
f 369/564/244 368/565/243 370/566/244
f 369/564/244 372/567/245 371/568/245
f 371/568/245 374/569/246 373/571/246
f 375/570/247 374/569/246 376/572/247
f 375/570/247 378/573/248 377/575/248
f 379/574/249 378/573/248 380/577/249
f 381/576/250 380/577/249 382/578/250
f 381/576/250 384/552/238 383/551/238
f 389/579/251 402/581/253 403/614/285
f 394/582/254 374/584/256 393/602/274
f 384/585/257 397/587/259 398/608/279
f 392/588/260 370/590/262 391/604/276
f 368/591/263 389/593/265 390/832/338
f 364/594/266 387/596/268 388/833/277
f 360/597/269 385/599/271 386/607/278
f 395/600/272 376/583/255 394/582/254
f 393/602/274 372/589/261 392/588/260
f 397/587/259 380/603/275 396/609/280
f 391/604/276 368/591/263 390/832/338
f 366/592/264 388/606/277 389/593/265
f 362/595/267 386/607/278 387/596/268
f 358/598/270 398/608/279 385/599/271
f 396/609/280 378/601/273 395/600/272
f 410/610/281 395/612/283 409/634/304
f 390/613/284 403/614/285 404/834/339
f 411/615/286 396/611/282 410/610/281
f 405/617/288 390/613/284 404/834/339
f 385/619/290 412/621/292 399/625/296
f 398/620/291 411/615/286 412/621/292
f 406/622/293 391/618/289 405/617/288
f 386/624/295 399/625/296 400/629/300
f 407/626/297 392/623/294 406/622/293
f 387/628/299 400/629/300 401/633/303
f 408/630/301 393/627/298 407/626/297
f 388/632/252 401/633/303 402/835/253
f 409/634/304 394/631/302 408/630/301
f 436/650/320 415/652/321 417/654/320
f 438/653/322 417/654/320 419/656/322
f 440/655/323 419/656/322 421/658/323
f 442/657/324 421/658/323 423/659/324
f 442/657/324 425/660/325 444/661/325
f 444/661/325 427/662/326 446/663/326
f 446/663/326 429/664/327 448/668/327
f 452/665/177 414/667/340 433/836/177
f 448/668/327 430/669/38 450/837/38
f 429/670/178 432/672/178 430/838/178
f 424/673/17 420/675/17 422/839/17
f 428/676/327 451/678/38 431/840/38
f 492/679/328 497/681/329 496/771/328
f 432/682/177 435/651/340 453/841/177
f 484/683/178 443/685/178 486/797/178
f 426/686/326 449/677/327 428/676/327
f 465/688/178 511/690/178 494/842/178
f 426/686/326 445/692/325 447/687/326
f 444/693/17 454/695/17 485/794/17
f 422/696/324 445/692/325 424/691/325
f 502/698/178 470/700/178 500/843/178
f 422/696/324 441/702/323 443/697/324
f 455/703/178 445/684/178 484/683/178
f 420/701/323 439/706/322 441/702/323
f 499/707/17 471/709/17 501/791/17
f 416/710/320 439/706/322 418/705/322
f 510/712/17 464/714/17 497/844/17
f 416/710/320 434/666/321 437/711/320
f 454/695/17 448/715/17 461/845/17
f 507/716/17 479/718/17 509/846/17
f 449/719/178 455/703/178 463/847/178
f 470/700/178 498/721/178 500/843/178
f 435/722/17 493/724/17 459/848/17
f 460/725/334 481/727/331 512/849/334
f 434/728/178 456/730/178 457/850/178
f 496/731/17 469/708/17 499/707/17
f 492/733/178 434/728/178 457/850/178
f 513/735/334 451/737/331 462/851/334
f 464/738/321 466/740/320 467/741/320
f 467/741/320 468/742/322 469/852/322
f 468/742/322 471/744/323 469/852/322
f 471/744/323 472/745/324 473/746/324
f 473/746/324 474/747/325 475/853/325
f 474/747/325 477/749/326 475/853/325
f 476/748/326 479/751/327 477/749/326
f 465/739/321 483/752/177 482/854/177
f 478/750/327 480/754/38 479/751/327
f 478/755/178 506/757/178 508/855/178
f 463/758/333 513/735/334 462/851/334
f 455/760/335 509/759/333 463/758/333
f 455/760/335 505/763/325 507/761/335
f 486/764/324 505/763/325 484/762/325
f 486/764/324 501/767/323 503/765/324
f 488/766/323 499/769/322 501/767/323
f 510/770/336 457/680/329 456/856/336
f 492/679/328 499/769/322 490/768/322
f 495/772/328 491/774/322 498/776/322
f 500/775/323 491/774/322 489/778/323
f 502/777/324 489/778/323 487/779/324
f 502/777/324 485/780/325 504/782/325
f 506/781/335 485/780/325 454/783/335
f 506/781/335 461/784/333 508/787/333
f 495/772/328 459/786/329 493/773/328
f 508/787/333 460/725/334 512/849/334
f 458/788/336 494/785/329 511/857/336
f 512/789/178 478/755/178 508/855/178
f 501/791/17 473/792/17 503/858/17
f 442/793/17 485/794/17 487/802/17
f 504/795/178 472/699/178 502/698/178
f 486/797/178 441/798/178 488/859/178
f 479/718/17 513/800/17 509/846/17
f 440/801/17 487/802/17 489/860/17
f 495/803/178 465/688/178 494/842/178
f 473/792/17 505/806/17 503/858/17
f 441/798/178 490/808/178 488/859/178
f 482/809/337 458/788/336 511/857/336
f 506/757/178 474/796/178 504/795/178
f 491/811/17 440/801/17 489/860/17
f 464/714/17 496/731/17 497/844/17
f 462/813/178 449/719/178 463/847/178
f 439/807/178 492/733/178 490/808/178
f 468/720/178 495/803/178 498/721/178
f 448/715/17 460/816/17 461/845/17
f 475/805/17 507/716/17 505/806/17
f 493/724/17 438/812/17 491/811/17
f 452/817/337 510/770/336 456/856/336
f 458/819/17 435/722/17 459/848/17
f 427/821/178 415/671/178 429/670/178
f 419/823/178 427/821/178 425/861/178
f 423/824/178 419/823/178 425/861/178
f 431/826/17 414/828/17 428/829/17
f 428/829/17 416/830/17 426/862/17
f 416/830/17 424/673/17 426/862/17
