# Blender 5.1.1
# www.blender.org
mtllib Tree3.mtl
o Roxa
v -0.232639 -1.295019 0.126726
v -0.226068 -1.295019 0.138109
v -0.232457 -1.288451 0.141220
v -0.238528 -1.288451 0.130703
v 0.676665 4.032771 0.648923
v 0.673589 4.031665 0.648096
v 0.675296 4.030715 0.651219
v -0.257511 -1.295019 -0.062197
v -0.264229 -1.288451 -0.064514
v -0.261086 -1.288451 -0.076244
v -0.254110 -1.295019 -0.074892
v 0.670859 4.037373 0.620963
v 0.673763 4.038839 0.620076
v 0.671899 4.037817 0.617458
v -0.138108 -1.295019 -0.226068
v -0.141220 -1.288451 -0.232456
v -0.130703 -1.288451 -0.238528
v -0.126726 -1.295019 -0.232639
v 0.689164 4.038323 0.595598
v 0.692119 4.039376 0.596834
v 0.692342 4.038002 0.593763
v 0.062197 -1.295019 -0.257511
v 0.064514 -1.288451 -0.264229
v 0.076244 -1.288451 -0.261086
v 0.074892 -1.295019 -0.254110
v 0.719490 4.033010 0.589981
v 0.720983 4.034069 0.592813
v 0.722945 4.032111 0.590892
v 0.226068 -1.295019 -0.138108
v 0.232457 -1.288451 -0.141220
v 0.238529 -1.288451 -0.130703
v 0.232639 -1.295019 -0.126726
v 0.744071 4.024545 0.607403
v 0.743445 4.026025 0.610368
v 0.745779 4.023595 0.610526
v 0.257512 -1.295019 0.062197
v 0.264229 -1.288451 0.064514
v 0.261086 -1.288451 0.076244
v 0.254110 -1.295019 0.074892
v 0.748509 4.017888 0.637659
v 0.746348 4.019956 0.639216
v 0.747469 4.017443 0.641165
v 0.138108 -1.295019 0.226068
v 0.141220 -1.288451 0.232457
v 0.130703 -1.288451 0.238529
v 0.126726 -1.295019 0.232639
v 0.730203 4.016938 0.663025
v 0.727991 4.019419 0.662458
v 0.727025 4.017258 0.664860
v -0.062197 -1.295019 0.257512
v -0.064514 -1.288451 0.264229
v -0.076244 -1.288451 0.261086
v -0.074892 -1.295019 0.254110
v 0.699877 4.022251 0.668642
v 0.699128 4.024726 0.666479
v 0.696423 4.023149 0.667731
v -1.296056 -0.626896 0.740766
v -1.289550 -0.626896 0.752035
v -1.055129 0.260774 0.607873
v -1.048745 0.260799 0.618884
v -0.808362 1.166045 0.509072
v -0.802255 1.165742 0.519560
v -0.578248 2.046505 0.529240
v -0.572154 2.045277 0.539652
v -0.169249 2.975548 0.635075
v -0.163210 2.973104 0.645632
v -0.219071 3.047537 0.171221
v -0.222464 3.046457 0.183134
v -0.647807 2.089508 -0.074162
v -0.651162 2.089104 -0.062402
v -0.888852 1.173931 -0.199014
v -0.892266 1.173940 -0.187118
v -1.170563 0.259580 -0.313074
v -1.173893 0.259580 -0.300644
v -1.440251 -0.626896 -0.392650
v -1.443619 -0.626896 -0.380080
v 0.077756 3.052017 -0.200298
v 0.066893 3.052839 -0.194026
v -0.259090 2.089270 -0.562161
v -0.269918 2.089681 -0.555910
v -0.432212 1.170471 -0.773148
v -0.443152 1.170580 -0.766831
v -0.598833 0.259580 -1.050078
v -0.609977 0.259580 -1.043643
v -0.740766 -0.626896 -1.296057
v -0.752035 -0.626896 -1.289550
v 0.547851 2.987579 -0.261608
v 0.535886 2.989863 -0.264654
v 0.361499 2.048849 -0.647062
v 0.349546 2.049927 -0.649984
v 0.295590 1.160203 -0.872927
v 0.283545 1.160431 -0.875898
v 0.326572 0.259578 -1.166938
v 0.314145 0.259579 -1.170270
v 0.392650 -0.626896 -1.440251
v 0.380081 -0.626896 -1.443619
v 0.911327 2.892171 0.011703
v 0.917214 2.889725 0.022005
v 0.844550 1.985019 -0.291874
v 0.850511 1.983681 -0.281674
v 0.861805 1.141598 -0.454876
v 0.867720 1.141172 -0.444679
v 1.055742 0.262134 -0.610543
v 1.061860 0.262135 -0.599896
v 1.296057 -0.626896 -0.740766
v 1.289550 -0.626896 -0.752035
v 0.969760 2.813995 0.475451
v 0.966416 2.812799 0.487049
v 0.922306 1.926613 0.310825
v 0.919018 1.925894 0.322362
v 0.950055 1.116733 0.251731
v 0.946723 1.116441 0.263251
v 1.174598 0.260608 0.303705
v 1.171304 0.260577 0.315533
v 1.445867 -0.624089 0.380937
v 1.442626 -0.624089 0.393033
v 0.678529 2.805661 0.853421
v 0.667936 2.806517 0.859537
v 0.539316 1.920403 0.804829
v 0.528718 1.920935 0.810947
v 0.499605 1.114093 0.830927
v 0.488998 1.114329 0.837051
v 0.607387 0.260248 1.040493
v 0.596671 0.260276 1.046681
v 0.740766 -0.626896 1.296057
v 0.752035 -0.626896 1.289550
v 0.197379 2.874941 0.919223
v 0.209308 2.872518 0.922246
v -0.091822 1.974759 0.894628
v -0.079874 1.973359 0.897572
v -0.238735 1.139265 0.936038
v -0.226708 1.138730 0.938975
v -0.324483 0.261140 1.167102
v -0.312158 0.261112 1.170275
v -0.392650 -0.626896 1.440251
v -0.380080 -0.626896 1.443619
v -0.223197 -0.174269 -0.066091
v -0.226340 -0.174269 -0.054361
v -0.232447 -0.170112 -0.055548
v -0.229079 -0.170112 -0.068117
v -0.111090 -0.174269 -0.204558
v -0.121607 -0.174269 -0.198486
v -0.125086 -0.170112 -0.203643
v -0.113817 -0.170112 -0.210149
v 0.066092 -0.174269 -0.223197
v 0.054362 -0.174269 -0.226340
v 0.055548 -0.170112 -0.232447
v 0.068117 -0.170112 -0.229079
v 0.204558 -0.174269 -0.111090
v 0.198486 -0.174269 -0.121607
v 0.203643 -0.170112 -0.125086
v 0.210150 -0.170112 -0.113817
v 0.223197 -0.174269 0.066092
v 0.226340 -0.174269 0.054362
v 0.232447 -0.170112 0.055548
v 0.229079 -0.170112 0.068118
v 0.111090 -0.174269 0.204558
v 0.121607 -0.174269 0.198486
v 0.125086 -0.170112 0.203643
v 0.113817 -0.170112 0.210150
v -0.066091 -0.174269 0.223197
v -0.054361 -0.174269 0.226340
v -0.055548 -0.170112 0.232447
v -0.068117 -0.170112 0.229079
v -0.203643 -0.170112 0.125086
v -0.210149 -0.170112 0.113817
v -0.204558 -0.174269 0.111090
v -0.198486 -0.174269 0.121607
v -0.287968 0.791370 0.183579
v -0.281948 0.791202 0.193976
v -0.313615 0.793434 -0.070344
v -0.316973 0.793405 -0.058555
v -0.148352 0.792683 -0.273132
v -0.159163 0.792767 -0.266891
v 0.111329 0.789879 -0.305835
v 0.099408 0.790050 -0.308803
v 0.307076 0.785769 -0.159970
v 0.314636 0.787341 -0.150173
v 0.343269 0.783658 0.092644
v 0.339793 0.783541 0.104765
v 0.172691 0.782023 0.306770
v 0.184491 0.783636 0.301855
v -0.086529 0.786507 0.339561
v -0.074632 0.786253 0.342535
v -0.150630 1.781135 0.232093
v -0.144675 1.780043 0.242374
v -0.171573 1.795533 0.020723
v -0.174880 1.795077 0.032373
v -0.032855 1.795602 -0.148116
v -0.043573 1.795998 -0.141928
v 0.184241 1.781587 -0.174966
v 0.172401 1.782633 -0.177870
v 0.348065 1.762943 -0.055711
v 0.354178 1.761777 -0.045218
v 0.378801 1.745997 0.155581
v 0.375389 1.745420 0.167539
v 0.246494 1.744220 0.331652
v 0.235536 1.744671 0.337978
v 0.017479 1.759498 0.362854
v 0.029288 1.758346 0.365808
v 0.100151 2.681811 0.380730
v 0.106077 2.679565 0.391119
v 0.084260 2.706709 0.206683
v 0.080973 2.705674 0.218372
v 0.197871 2.707953 0.068875
v 0.187240 2.708711 0.075013
v 0.374615 2.684633 0.048838
v 0.362847 2.686758 0.045840
v 0.506284 2.653373 0.146480
v 0.512324 2.651066 0.157072
v 0.531881 2.626158 0.321113
v 0.528507 2.625052 0.333089
v 0.425080 2.622647 0.466648
v 0.414218 2.623443 0.472920
v 0.236277 2.646986 0.490296
v 0.247998 2.644813 0.493366
v 0.371058 3.385093 0.549255
v 0.376853 3.382165 0.559660
v 0.361505 3.410153 0.415751
v 0.358095 3.408787 0.427445
v 0.449267 3.411272 0.311535
v 0.438648 3.412262 0.317665
v 0.582957 3.387808 0.297621
v 0.571352 3.390578 0.294596
v 0.680263 3.357302 0.371040
v 0.686190 3.354299 0.381685
v 0.699254 3.330338 0.504608
v 0.695762 3.328928 0.516570
v 0.617895 3.326787 0.615577
v 0.607032 3.327803 0.621849
v 0.472323 3.350734 0.633840
v 0.483925 3.347955 0.636864
v -0.010454 -1.295019 0.013624
v -0.017025 -1.295019 0.002242
v -0.013623 -1.295019 -0.010454
v -0.002241 -1.295019 -0.017025
v 0.010454 -1.295019 -0.013623
v 0.017025 -1.295019 -0.002241
v 0.013624 -1.295019 0.010454
v 0.002242 -1.295019 0.017025
vn -0.4890 0.3838 0.7833
vn -0.1305 0.0325 -0.9909
vn 0.6084 0.0325 -0.7929
vn 0.9909 0.0325 -0.1305
vn 0.7929 0.0325 0.6084
vn 0.1305 0.0325 0.9909
vn -0.7691 0.6110 0.1875
vn 0.3637 -0.9303 -0.0479
vn -0.7929 0.0325 -0.6084
vn -0.4844 0.5985 0.6380
vn -0.5183 0.4886 0.7018
vn -0.5290 0.3858 0.7558
vn -0.5167 0.3572 0.7781
vn 0.4085 -0.8598 0.3064
vn 0.1082 0.5982 0.7940
vn 0.1259 0.4496 0.8843
vn 0.1456 0.2385 0.9602
vn 0.1486 0.1243 0.9810
vn -0.1815 -0.4262 -0.8862
vn 0.6333 0.5979 0.4914
vn 0.7094 0.4362 0.5536
vn 0.7723 0.1854 0.6076
vn 0.7850 0.0393 0.6182
vn -0.7328 -0.3511 -0.5829
vn 0.7948 0.5980 -0.1035
vn 0.8827 0.4586 -0.1026
vn 0.9586 0.2674 -0.0982
vn 0.9811 0.1671 -0.0974
vn -0.8868 -0.4617 0.0211
vn 0.4855 0.6031 -0.6330
vn 0.5283 0.4998 -0.6864
vn 0.5605 0.4116 -0.7187
vn 0.5849 0.4045 -0.7030
vn -0.5585 -0.6599 0.5026
vn -0.1041 0.6094 -0.7860
vn -0.1063 0.5341 -0.8387
vn -0.1034 0.5141 -0.8515
vn -0.0689 0.5789 -0.8125
vn -0.0333 -0.8091 0.5867
vn -0.6278 0.6094 -0.4842
vn -0.6645 0.5444 -0.5120
vn -0.6557 0.5518 -0.5154
vn -0.6066 0.6385 -0.4736
vn -0.7908 0.6033 0.1033
vn -0.8425 0.5264 0.1148
vn -0.8495 0.5135 0.1210
vn -0.8095 0.5676 0.1502
vn 0.3560 -0.6210 -0.6983
vn -0.0000 -1.0000 -0.0000
vn -0.9909 0.0325 0.1305
vn 0.2233 -0.9303 -0.2910
vn 0.2910 -0.9303 0.2233
vn 0.0479 -0.9303 0.3637
vn -0.2233 -0.9303 0.2910
vn -0.3621 -0.9308 0.0503
vn -0.2884 -0.9308 -0.2246
vn -0.0479 -0.9303 -0.3637
vn 0.5413 -0.8379 -0.0701
vn 0.3285 -0.8354 -0.4407
vn 0.4282 -0.8409 0.3309
vn 0.0701 -0.8413 0.5360
vn -0.3296 -0.8394 0.4322
vn -0.5454 -0.8358 0.0635
vn -0.4366 -0.8326 -0.3408
vn -0.0791 -0.8333 -0.5471
vn 0.6631 -0.7421 -0.0981
vn 0.3942 -0.7011 -0.5942
vn 0.5217 -0.7467 0.4127
vn 0.0787 -0.7339 0.6747
vn -0.4415 -0.7083 0.5508
vn -0.7467 -0.6625 0.0593
vn -0.6101 -0.6279 -0.4833
vn -0.1325 -0.6452 -0.7524
vn 0.6643 -0.7331 -0.1458
vn 0.4076 -0.6038 -0.6850
vn 0.5022 -0.7714 0.3909
vn 0.0400 -0.7328 0.6792
vn -0.5213 -0.6303 0.5753
vn -0.8739 -0.4833 0.0532
vn -0.7211 -0.3930 -0.5706
vn -0.1641 -0.4490 -0.8783
vn 0.5748 -0.7942 -0.1972
vn -0.6084 0.0325 0.7929
vn -0.5650 0.7030 -0.4320
vn -0.0205 0.6353 -0.7720
vn 0.6131 0.4360 -0.6587
vn 0.9785 0.1902 -0.0803
vn 0.7840 0.0636 0.6175
vn 0.1555 0.1492 0.9765
vn 0.2023 0.9623 0.1821
vn -0.5886 -0.7335 0.3398
vn -0.4073 0.7877 0.4621
vn -0.6565 -0.7335 -0.1759
vn -0.4561 0.8897 -0.0224
vn -0.3398 -0.7335 -0.5886
vn -0.1476 0.8988 -0.4128
vn 0.1759 -0.7335 -0.6565
vn 0.3373 0.8095 -0.4805
vn 0.5886 -0.7335 -0.3398
vn 0.7148 0.6743 -0.1856
vn 0.6565 -0.7335 0.1759
vn 0.7635 0.5724 0.2990
vn 0.3398 -0.7335 0.5886
vn 0.4550 0.5634 0.6896
vn -0.1759 -0.7335 0.6565
vn -0.0299 0.6526 0.7571
vn -0.5376 -0.8308 -0.1441
vn -0.2783 -0.8308 -0.4820
vn 0.1441 -0.8308 -0.5376
vn 0.4820 -0.8308 -0.2783
vn 0.5376 -0.8308 0.1441
vn 0.2783 -0.8308 0.4820
vn -0.1441 -0.8308 0.5376
vn -0.4820 -0.8308 0.2783
vn -0.7124 -0.6955 0.0938
vn -0.3828 0.8955 0.2269
vn -0.6738 0.5314 0.5134
vn -0.9653 0.0352 -0.2587
vn -0.5700 -0.6955 -0.4374
vn -0.2610 0.9476 -0.1843
vn -0.4997 0.0352 -0.8655
vn -0.0938 -0.6955 -0.7124
vn 0.1118 0.9100 -0.3992
vn 0.2587 0.0352 -0.9653
vn 0.4374 -0.6955 -0.5700
vn 0.5167 0.8046 -0.2924
vn 0.8655 0.0352 -0.4997
vn 0.7124 -0.6955 -0.0938
vn 0.7169 0.6933 0.0737
vn 0.9653 0.0352 0.2587
vn 0.5700 -0.6955 0.4374
vn 0.5949 0.6412 0.4847
vn 0.4997 0.0352 0.8655
vn 0.0938 -0.6955 0.7124
vn 0.2224 0.6788 0.6999
vn -0.2587 0.0352 0.9653
vn -0.4374 -0.6955 0.5700
vn -0.1827 0.7842 0.5930
vn 0.2964 -0.9396 -0.1711
vn 0.4456 -0.8555 -0.2639
vn 0.5473 -0.7516 -0.3683
vn 0.5600 -0.7015 -0.4407
vn 0.4868 -0.7399 -0.4644
vn -0.7058 0.6956 -0.1342
vn -0.7518 0.6374 -0.1687
vn -0.8013 0.5627 -0.2032
vn -0.7983 0.5647 -0.2093
vn -0.7438 0.6364 -0.2046
vn -0.3101 0.7060 -0.6367
vn -0.3524 0.6400 -0.6828
vn -0.3970 0.5606 -0.7267
vn -0.4033 0.5692 -0.7164
vn -0.3824 0.6399 -0.6666
vn 0.3126 0.5685 -0.7610
vn 0.2879 0.5196 -0.8045
vn 0.2572 0.4900 -0.8329
vn 0.2305 0.5463 -0.8053
vn 0.1974 0.6363 -0.7457
vn 0.8538 0.3356 -0.3981
vn 0.8529 0.3065 -0.4226
vn 0.8271 0.3649 -0.4276
vn 0.7571 0.5087 -0.4099
vn 0.6247 0.6281 -0.4640
vn 0.9475 0.1351 0.2897
vn 0.9520 0.1120 0.2848
vn 0.9285 0.2444 0.2796
vn 0.8429 0.4766 0.2498
vn 0.7482 0.6292 0.2106
vn 0.5040 0.1131 0.8563
vn 0.5028 0.0876 0.8599
vn 0.4951 0.2269 0.8387
vn 0.4487 0.4716 0.7591
vn 0.3102 0.6264 0.7151
vn -0.1795 0.2843 0.9418
vn -0.1939 0.2589 0.9462
vn -0.1951 0.3342 0.9221
vn -0.1904 0.4978 0.8461
vn -0.1890 0.6286 0.7544
vn 0.3306 -0.9396 0.0886
vn 0.1711 -0.9396 0.2964
vn -0.0886 -0.9396 0.3306
vn -0.2964 -0.9396 0.1711
vn -0.3283 -0.9405 -0.0880
vn -0.1711 -0.9396 -0.2964
vn 0.0886 -0.9396 -0.3306
vn -0.8655 0.0352 0.4997
vn -0.5711 -0.8174 0.0752
vn -0.4570 -0.8174 -0.3507
vn -0.0752 -0.8174 -0.5711
vn 0.3507 -0.8174 -0.4570
vn 0.5711 -0.8174 -0.0752
vn 0.4570 -0.8174 0.3507
vn 0.0752 -0.8174 0.5711
vn -0.3507 -0.8174 0.4570
vn -0.6700 0.6303 0.3922
vn 0.4959 -0.8577 0.1359
vn 0.2528 -0.8599 0.4435
vn -0.1342 -0.8584 0.4951
vn -0.3989 -0.8545 0.3326
vn -0.4998 -0.8536 -0.1466
vn -0.1842 -0.8493 -0.4948
vn 0.1188 -0.8534 -0.5075
vn -0.7180 0.5369 0.4430
vn 0.6174 -0.7699 0.1616
vn 0.3093 -0.7638 0.5665
vn -0.1960 -0.7475 0.6347
vn -0.6259 -0.7162 0.3087
vn -0.7035 -0.6735 -0.2270
vn -0.3901 -0.6629 -0.6390
vn 0.1240 -0.7008 -0.7025
vn -0.7332 0.4805 0.4812
vn 0.6108 -0.7818 0.1250
vn 0.2811 -0.7790 0.5604
vn -0.2592 -0.7103 0.6544
vn -0.7408 -0.5882 0.3244
vn -0.8413 -0.4656 -0.2745
vn -0.4685 -0.4440 -0.7638
vn 0.1250 -0.5556 -0.8220
vn -0.7083 0.4950 0.5033
vn 0.5109 -0.8577 0.0584
vn 0.1954 -0.8637 0.4646
vn -0.3097 -0.7637 0.5664
vn -0.7593 -0.5899 0.2748
vn -0.8531 -0.4304 -0.2951
vn -0.4827 -0.4094 -0.7742
vn 0.0915 -0.5507 -0.8297
vt 0.451300 0.777198
vt 0.448043 0.895102
vt 0.450596 0.895879
vt 0.494144 0.787278
vt 0.622433 0.122425
vt 0.620016 0.191071
vt 0.616081 0.191071
vt 0.617790 0.122425
vt 0.617261 0.122425
vt 0.615552 0.191071
vt 0.606053 0.191071
vt 0.606053 0.122425
vt 0.605305 0.122425
vt 0.605305 0.191071
vt 0.595806 0.191071
vt 0.594097 0.122425
vt 0.593568 0.122425
vt 0.595277 0.191071
vt 0.591343 0.191071
vt 0.588926 0.122425
vt 0.495393 0.787529
vt 0.450961 0.895977
vt 0.453514 0.896563
vt 0.538315 0.794810
vt 0.543848 0.464515
vt 0.543848 0.417610
vt 0.651099 0.417610
vt 0.560054 0.464515
vt 0.435260 0.417610
vt 0.517425 0.562746
vt 0.540405 0.563228
vt 0.542511 0.417610
vt 0.456051 0.508798
vt 0.510014 0.662658
vt 0.529053 0.664768
vt 0.541989 0.508763
vt 0.472196 0.598969
vt 0.487447 0.753790
vt 0.502952 0.757136
vt 0.538166 0.601688
vt 0.468336 0.684762
vt 0.462563 0.826055
vt 0.474061 0.829283
vt 0.524565 0.692003
vt 0.487647 0.832156
vt 0.539201 0.794921
vt 0.556999 0.795466
vt 0.492408 0.832373
vt 0.389890 0.417610
vt 0.507032 0.562285
vt 0.516550 0.562720
vt 0.434315 0.417610
vt 0.419465 0.508710
vt 0.501030 0.661136
vt 0.509145 0.662540
vt 0.455136 0.508795
vt 0.443635 0.596408
vt 0.479856 0.751373
vt 0.486572 0.753567
vt 0.471318 0.598914
vt 0.443917 0.679235
vt 0.456713 0.823700
vt 0.461698 0.825770
vt 0.467461 0.684618
vt 0.432449 0.770172
vt 0.450419 0.776949
vt 0.434159 0.417898
vt 0.516417 0.562441
vt 0.506864 0.562451
vt 0.454982 0.508741
vt 0.509007 0.661213
vt 0.501030 0.661089
vt 0.419465 0.508707
vt 0.471161 0.596625
vt 0.486423 0.751538
vt 0.479856 0.751291
vt 0.443635 0.596384
vt 0.467327 0.679744
vt 0.461519 0.823816
vt 0.456713 0.823596
vt 0.443917 0.679181
vt 0.450248 0.770817
vt 0.432449 0.770084
vt 0.542511 0.417610
vt 0.540380 0.562832
vt 0.517316 0.562453
vt 0.435068 0.417898
vt 0.542008 0.508901
vt 0.529016 0.662892
vt 0.509895 0.661272
vt 0.455864 0.508744
vt 0.538173 0.599165
vt 0.502907 0.754209
vt 0.487315 0.751652
vt 0.472015 0.596655
vt 0.524561 0.685678
vt 0.474006 0.826421
vt 0.462404 0.823961
vt 0.468184 0.679818
vt 0.494130 0.778716
vt 0.451108 0.770940
vt 0.651099 0.417610
vt 0.564661 0.563092
vt 0.541639 0.562670
vt 0.543847 0.417610
vt 0.630186 0.508638
vt 0.549279 0.664926
vt 0.530263 0.663012
vt 0.543269 0.508901
vt 0.605631 0.601119
vt 0.519603 0.757656
vt 0.504159 0.754446
vt 0.539383 0.599209
vt 0.582161 0.692370
vt 0.486782 0.829862
vt 0.475257 0.826730
vt 0.525774 0.685816
vt 0.538315 0.788764
vt 0.495349 0.778967
vt 0.696468 0.417610
vt 0.575085 0.563380
vt 0.565537 0.563110
vt 0.652044 0.417610
vt 0.667307 0.508638
vt 0.558038 0.666365
vt 0.550146 0.665034
vt 0.631120 0.508638
vt 0.634125 0.602173
vt 0.526895 0.760051
vt 0.520473 0.757874
vt 0.606514 0.601143
vt 0.606474 0.696521
vt 0.492408 0.832271
vt 0.487647 0.830146
vt 0.583035 0.692481
vt 0.556999 0.795381
vt 0.539201 0.788999
vt 0.652044 0.417610
vt 0.565537 0.563457
vt 0.575085 0.563389
vt 0.631120 0.508638
vt 0.550146 0.666358
vt 0.558038 0.666406
vt 0.606514 0.602529
vt 0.520473 0.759923
vt 0.526895 0.760128
vt 0.634125 0.602185
vt 0.583035 0.696545
vt 0.606474 0.696563
vt 0.541639 0.563245
vt 0.564661 0.563454
vt 0.543296 0.508761
vt 0.530273 0.664880
vt 0.549279 0.666312
vt 0.630186 0.508638
vt 0.539412 0.601719
vt 0.504180 0.757366
vt 0.519603 0.759817
vt 0.605631 0.602530
vt 0.525804 0.692129
vt 0.475284 0.829583
vt 0.486782 0.832016
vt 0.582161 0.696504
vt 0.594428 0.122020
vt 0.605274 0.122020
vt 0.617503 0.122020
vt 0.621996 0.122020
vt 0.606657 0.122020
vt 0.616931 0.122020
vt 0.606084 0.122020
vt 0.593855 0.122020
vt 0.589363 0.122020
vt 0.604702 0.122020
vt 0.526305 0.464515
vt 0.542511 0.464515
vt 0.560998 0.464515
vt 0.567711 0.464515
vt 0.543847 0.464515
vt 0.525360 0.464515
vt 0.518647 0.464515
vt 0.453773 0.896609
vt 0.454830 0.896660
vt 0.454830 0.896628
vt 0.453773 0.896115
vt 0.453514 0.896023
vt 0.450961 0.895246
vt 0.450596 0.895148
vt 0.448043 0.894562
vt 0.447784 0.894516
vt 0.446727 0.894465
vt 0.446727 0.894497
vt 0.447784 0.895010
vt 0.453444 0.896713
vt 0.450730 0.896090
vt 0.448015 0.895264
vt 0.446891 0.894719
vt 0.448015 0.894774
vt 0.450730 0.895398
vt 0.453444 0.896224
vt 0.454569 0.896769
vt 0.560516 0.464088
vt 0.559635 0.464088
vt 0.567074 0.464088
vt 0.542556 0.464088
vt 0.543803 0.464088
vt 0.525842 0.464088
vt 0.526724 0.464088
vt 0.519285 0.464088
s 0
usemtl Material
f 127/1/1 56/2/1 7/3/1 66/4/1
f 17/5/2 141/6/2 146/7/2 23/8/2
f 24/9/3 145/10/3 150/11/3 30/12/3
f 31/13/4 149/14/4 154/15/4 37/16/4
f 38/17/5 153/18/5 158/19/5 44/20/5
f 45/20/6 157/19/6 162/18/6 51/17/6
f 65/21/7 6/22/7 12/23/7 68/24/7
f 166/25/8 57/26/8 76/27/8 139/28/8
f 10/8/9 137/7/9 142/6/9 16/5/9
f 135/29/10 183/30/10 170/31/10 58/32/10
f 133/33/11 199/34/11 186/35/11 60/36/11
f 131/37/12 215/38/12 202/39/12 62/40/12
f 129/41/13 231/42/13 218/43/13 64/44/13
f 219/45/14 67/46/14 78/47/14 222/48/14
f 125/49/15 181/50/15 184/51/15 136/52/15
f 124/53/16 198/54/16 200/55/16 134/56/16
f 122/57/17 214/58/17 216/59/17 132/60/17
f 120/61/18 230/62/18 232/63/18 130/64/18
f 230/62/19 118/65/19 128/66/19 232/63/19
f 116/67/20 180/68/20 182/69/20 126/49/20
f 114/70/21 196/71/21 197/72/21 123/73/21
f 112/74/22 212/75/22 213/76/22 121/77/22
f 110/78/23 228/79/23 229/80/23 119/81/23
f 228/79/24 108/82/24 117/83/24 229/80/24
f 105/84/25 178/85/25 179/86/25 115/87/25
f 104/88/26 194/89/26 195/90/26 113/91/26
f 102/92/27 210/93/27 211/94/27 111/95/27
f 100/96/28 226/97/28 227/98/28 109/99/28
f 226/97/29 98/100/29 107/101/29 227/98/29
f 95/102/30 175/103/30 177/104/30 106/105/30
f 93/106/31 191/107/31 193/108/31 103/109/31
f 91/110/32 207/111/32 209/112/32 101/113/32
f 89/114/33 223/115/33 225/116/33 99/117/33
f 223/115/34 87/118/34 97/119/34 225/116/34
f 85/120/35 173/121/35 176/122/35 96/123/35
f 83/124/36 189/125/36 192/126/36 94/127/36
f 81/128/37 205/129/37 208/130/37 92/131/37
f 79/132/38 221/133/38 224/134/38 90/135/38
f 221/133/39 77/136/39 88/137/39 224/134/39
f 75/138/40 171/139/40 174/140/40 86/120/40
f 73/141/41 187/142/41 190/143/41 84/124/41
f 71/144/42 203/145/42 206/146/42 82/147/42
f 69/148/43 219/45/43 222/48/43 80/149/43
f 57/26/44 169/150/44 172/151/44 76/27/44
f 59/152/45 185/153/45 188/154/45 74/155/45
f 61/156/46 201/157/46 204/158/46 72/159/46
f 63/160/47 217/161/47 220/162/47 70/163/47
f 231/42/48 127/1/48 66/4/48 218/43/48
f 53/164/49 2/165/49 233/165/49
f 11/166/49 15/167/49 235/168/49
f 18/167/49 22/166/49 236/168/49
f 25/169/49 29/170/49 237/170/49
f 32/165/49 36/164/49 238/165/49
f 39/171/49 43/172/49 239/173/49
f 46/172/49 50/171/49 240/173/49
f 4/12/50 167/11/50 138/10/50 9/9/50
f 164/174/51 135/29/51 58/32/51 165/175/51
f 140/176/52 75/138/52 86/120/52 143/177/52
f 144/177/53 85/120/53 96/123/53 147/176/53
f 148/28/54 95/102/54 106/105/54 151/178/54
f 152/175/55 105/84/55 115/87/55 155/174/55
f 156/179/56 116/67/56 126/49/56 159/180/56
f 160/180/57 125/49/57 136/52/57 163/179/57
f 169/150/58 59/152/58 74/155/58 172/151/58
f 183/30/59 133/33/59 60/36/59 170/31/59
f 171/139/60 73/141/60 84/124/60 174/140/60
f 173/121/61 83/124/61 94/127/61 176/122/61
f 175/103/62 93/106/62 103/109/62 177/104/62
f 178/85/63 104/88/63 113/91/63 179/86/63
f 180/68/64 114/70/64 123/73/64 182/69/64
f 181/50/65 124/53/65 134/56/65 184/51/65
f 185/153/66 61/156/66 72/159/66 188/154/66
f 199/34/67 131/37/67 62/40/67 186/35/67
f 187/142/68 71/144/68 82/147/68 190/143/68
f 189/125/69 81/128/69 92/131/69 192/126/69
f 191/107/70 91/110/70 101/113/70 193/108/70
f 194/89/71 102/92/71 111/95/71 195/90/71
f 196/71/72 112/74/72 121/77/72 197/72/72
f 198/54/73 122/57/73 132/60/73 200/55/73
f 201/157/74 63/160/74 70/163/74 204/158/74
f 215/38/75 129/41/75 64/44/75 202/39/75
f 203/145/76 69/148/76 80/149/76 206/146/76
f 205/129/77 79/132/77 90/135/77 208/130/77
f 207/111/78 89/114/78 99/117/78 209/112/78
f 210/93/79 100/96/79 109/99/79 211/94/79
f 212/75/80 110/78/80 119/81/80 213/76/80
f 214/58/81 120/61/81 130/64/81 216/59/81
f 217/161/82 65/21/82 68/24/82 220/162/82
f 52/16/83 161/15/83 168/14/83 3/13/83
f 67/46/84 14/181/84 19/182/84 78/47/84
f 77/136/85 21/183/85 26/184/85 88/137/85
f 87/118/86 28/185/86 33/186/86 97/119/86
f 98/100/87 35/187/87 40/188/87 107/101/87
f 108/82/88 42/189/88 47/190/88 117/83/88
f 118/65/89 49/191/89 54/192/89 128/66/89
f 13/193/90 5/194/90 55/195/90 48/196/90 41/197/90 34/198/90 27/199/90 20/200/90
f 1/170/91 2/165/91 3/13/91 4/12/91
f 5/194/92 6/22/92 7/3/92
f 8/169/93 9/9/93 10/8/93 11/166/93
f 12/23/94 13/193/94 14/181/94
f 15/167/95 16/5/95 17/5/95 18/167/95
f 19/182/96 20/200/96 21/183/96
f 22/166/97 23/8/97 24/9/97 25/169/97
f 26/184/98 27/199/98 28/185/98
f 29/170/99 30/12/99 31/13/99 32/165/99
f 33/186/100 34/198/100 35/187/100
f 36/164/101 37/16/101 38/17/101 39/171/101
f 40/188/102 41/197/102 42/189/102
f 43/172/103 44/20/103 45/20/103 46/172/103
f 47/190/104 48/196/104 49/191/104
f 50/171/105 51/17/105 52/16/105 53/164/105
f 54/192/106 55/195/106 56/2/106
f 137/201/107 138/202/107 139/28/107 140/176/107
f 141/203/108 142/203/108 143/177/108 144/177/108
f 145/202/109 146/201/109 147/176/109 148/28/109
f 149/204/110 150/205/110 151/178/110 152/175/110
f 153/206/111 154/207/111 155/174/111 156/179/111
f 157/208/112 158/208/112 159/180/112 160/180/112
f 161/207/113 162/206/113 163/179/113 164/174/113
f 165/175/114 166/25/114 167/205/114 168/204/114
f 233/165/49 234/170/49 235/168/49 236/168/49 237/170/49 238/165/49 239/173/49 240/173/49
f 4/12/115 9/9/115 8/169/115 1/170/115
f 12/23/116 6/22/116 5/194/116 13/193/116
f 66/4/117 7/3/117 6/22/117 65/21/117
f 137/7/118 10/8/118 9/9/118 138/10/118
f 10/8/119 16/5/119 15/167/119 11/166/119
f 19/182/120 14/181/120 13/193/120 20/200/120
f 141/6/121 17/5/121 16/5/121 142/6/121
f 17/5/122 23/8/122 22/166/122 18/167/122
f 26/184/123 21/183/123 20/200/123 27/199/123
f 145/10/124 24/9/124 23/8/124 146/7/124
f 24/9/125 30/12/125 29/170/125 25/169/125
f 33/186/126 28/185/126 27/199/126 34/198/126
f 149/14/127 31/13/127 30/12/127 150/11/127
f 31/13/128 37/16/128 36/164/128 32/165/128
f 40/188/129 35/187/129 34/198/129 41/197/129
f 153/18/130 38/17/130 37/16/130 154/15/130
f 38/17/131 44/20/131 43/172/131 39/171/131
f 47/190/132 42/189/132 41/197/132 48/196/132
f 157/19/133 45/20/133 44/20/133 158/19/133
f 45/20/134 51/17/134 50/171/134 46/172/134
f 54/192/135 49/191/135 48/196/135 55/195/135
f 161/15/136 52/16/136 51/17/136 162/18/136
f 52/16/137 3/13/137 2/165/137 53/164/137
f 7/3/138 56/2/138 55/195/138 5/194/138
f 165/175/139 58/32/139 57/26/139 166/25/139
f 170/31/140 60/36/140 59/152/140 169/150/140
f 186/35/141 62/40/141 61/156/141 185/153/141
f 202/39/142 64/44/142 63/160/142 201/157/142
f 218/43/143 66/4/143 65/21/143 217/161/143
f 14/181/144 67/46/144 68/24/144 12/23/144
f 219/45/145 69/148/145 70/163/145 220/162/145
f 203/145/146 71/144/146 72/159/146 204/158/146
f 187/142/147 73/141/147 74/155/147 188/154/147
f 171/139/148 75/138/148 76/27/148 172/151/148
f 21/183/149 77/136/149 78/47/149 19/182/149
f 221/133/150 79/132/150 80/149/150 222/48/150
f 205/129/151 81/128/151 82/147/151 206/146/151
f 189/125/152 83/124/152 84/124/152 190/143/152
f 173/121/153 85/120/153 86/120/153 174/140/153
f 28/185/154 87/118/154 88/137/154 26/184/154
f 223/115/155 89/114/155 90/135/155 224/134/155
f 207/111/156 91/110/156 92/131/156 208/130/156
f 191/107/157 93/106/157 94/127/157 192/126/157
f 175/103/158 95/102/158 96/123/158 176/122/158
f 35/187/159 98/100/159 97/119/159 33/186/159
f 226/97/160 100/96/160 99/117/160 225/116/160
f 210/93/161 102/92/161 101/113/161 209/112/161
f 194/89/162 104/88/162 103/109/162 193/108/162
f 178/85/163 105/84/163 106/105/163 177/104/163
f 42/189/164 108/82/164 107/101/164 40/188/164
f 228/79/165 110/78/165 109/99/165 227/98/165
f 212/75/166 112/74/166 111/95/166 211/94/166
f 196/71/167 114/70/167 113/91/167 195/90/167
f 180/68/168 116/67/168 115/87/168 179/86/168
f 49/191/169 118/65/169 117/83/169 47/190/169
f 230/62/170 120/61/170 119/81/170 229/80/170
f 214/58/171 122/57/171 121/77/171 213/76/171
f 198/54/172 124/53/172 123/73/172 197/72/172
f 181/50/173 125/49/173 126/49/173 182/69/173
f 56/2/174 127/1/174 128/66/174 54/192/174
f 231/42/175 129/41/175 130/64/175 232/63/175
f 215/38/176 131/37/176 132/60/176 216/59/176
f 199/34/177 133/33/177 134/56/177 200/55/177
f 183/30/178 135/29/178 136/52/178 184/51/178
f 75/138/179 140/176/179 139/28/179 76/27/179
f 85/120/180 144/177/180 143/177/180 86/120/180
f 95/102/181 148/28/181 147/176/181 96/123/181
f 105/84/182 152/175/182 151/178/182 106/105/182
f 116/67/183 156/179/183 155/174/183 115/87/183
f 125/49/184 160/180/184 159/180/184 126/49/184
f 135/29/185 164/174/185 163/179/185 136/52/185
f 3/13/186 168/14/186 167/11/186 4/12/186
f 166/25/187 139/28/187 138/202/187 167/205/187
f 140/176/188 143/177/188 142/203/188 137/201/188
f 144/177/189 147/176/189 146/201/189 141/203/189
f 148/28/190 151/178/190 150/205/190 145/202/190
f 152/175/191 155/174/191 154/207/191 149/204/191
f 156/179/192 159/180/192 158/208/192 153/206/192
f 160/180/193 163/179/193 162/206/193 157/208/193
f 164/174/194 165/175/194 168/204/194 161/207/194
f 58/32/195 170/31/195 169/150/195 57/26/195
f 73/141/196 171/139/196 172/151/196 74/155/196
f 83/124/197 173/121/197 174/140/197 84/124/197
f 93/106/198 175/103/198 176/122/198 94/127/198
f 104/88/199 178/85/199 177/104/199 103/109/199
f 114/70/200 180/68/200 179/86/200 113/91/200
f 124/53/201 181/50/201 182/69/201 123/73/201
f 133/33/202 183/30/202 184/51/202 134/56/202
f 60/36/203 186/35/203 185/153/203 59/152/203
f 71/144/204 187/142/204 188/154/204 72/159/204
f 81/128/205 189/125/205 190/143/205 82/147/205
f 91/110/206 191/107/206 192/126/206 92/131/206
f 102/92/207 194/89/207 193/108/207 101/113/207
f 112/74/208 196/71/208 195/90/208 111/95/208
f 122/57/209 198/54/209 197/72/209 121/77/209
f 131/37/210 199/34/210 200/55/210 132/60/210
f 62/40/211 202/39/211 201/157/211 61/156/211
f 69/148/212 203/145/212 204/158/212 70/163/212
f 79/132/213 205/129/213 206/146/213 80/149/213
f 89/114/214 207/111/214 208/130/214 90/135/214
f 100/96/215 210/93/215 209/112/215 99/117/215
f 110/78/216 212/75/216 211/94/216 109/99/216
f 120/61/217 214/58/217 213/76/217 119/81/217
f 129/41/218 215/38/218 216/59/218 130/64/218
f 64/44/219 218/43/219 217/161/219 63/160/219
f 67/46/220 219/45/220 220/162/220 68/24/220
f 77/136/221 221/133/221 222/48/221 78/47/221
f 87/118/222 223/115/222 224/134/222 88/137/222
f 98/100/223 226/97/223 225/116/223 97/119/223
f 108/82/224 228/79/224 227/98/224 107/101/224
f 118/65/225 230/62/225 229/80/225 117/83/225
f 127/1/226 231/42/226 232/63/226 128/66/226
f 233/165/49 2/165/49 1/170/49 234/170/49
f 11/166/49 235/168/49 234/170/49 8/169/49
f 18/167/49 236/168/49 235/168/49 15/167/49
f 25/169/49 237/170/49 236/168/49 22/166/49
f 32/165/49 238/165/49 237/170/49 29/170/49
f 39/171/49 239/173/49 238/165/49 36/164/49
f 46/172/49 240/173/49 239/173/49 43/172/49
f 53/164/49 233/165/49 240/173/49 50/171/49
f 1/170/49 8/169/49 234/170/49
