# Blender 5.1.1
# www.blender.org
mtllib shrub.mtl
o leaves
v -0.476229 0.240562 -0.142353
v -0.816010 0.468578 0.004726
v -0.680737 0.412270 0.398104
v -0.340956 0.184254 0.251025
v 0.308491 0.057911 -0.003655
v 0.475519 0.568117 0.079999
v 0.322564 0.553916 0.467964
v 0.155536 0.043710 0.384309
v 0.028004 0.130273 -0.438689
v -0.186413 0.491670 -0.683977
v -0.506095 0.392356 -0.444200
v -0.291678 0.030958 -0.198911
v 0.119021 0.147906 -0.015584
v 0.470172 0.417809 -0.014078
v 0.465104 0.427269 0.406320
v 0.113953 0.157365 0.404815
v 0.206338 0.644997 -0.141958
v 0.343656 0.261908 -0.437282
v -0.017074 0.221345 -0.612190
v -0.154393 0.604434 -0.316866
v 0.371687 0.527606 -0.344941
v 0.214277 0.298106 -0.707768
v -0.106815 0.357752 -0.582448
v 0.050596 0.587252 -0.219621
v 0.341069 0.065322 0.162309
v 0.597796 0.290024 0.438270
v 0.308083 0.324497 0.725020
v 0.051355 0.099795 0.449059
v -0.314302 0.179107 0.363670
v -0.383188 0.689313 0.567598
v 0.008227 0.777393 0.605620
v 0.077113 0.267187 0.401692
v 0.295848 0.024164 0.177961
v 0.331589 0.597740 0.162686
v 0.046486 0.649624 0.453189
v 0.010745 0.076049 0.468464
v 0.032307 0.160617 0.413189
v 0.198446 0.584045 0.650751
v 0.440084 0.728683 0.332928
v 0.273945 0.305256 0.095366
v -0.270120 0.099736 0.046090
v -0.623922 0.117648 -0.145047
v -0.799252 0.231912 0.223579
v -0.445450 0.213999 0.414717
v -0.429973 0.205774 0.332954
v -0.380291 0.795907 0.348564
v 0.013801 0.720839 0.360889
v -0.035882 0.130706 0.345279
v -0.084016 0.132083 0.388613
v 0.140021 0.340530 0.714387
v -0.186118 0.503368 0.929412
v -0.410155 0.294921 0.603639
v -0.413393 -0.075201 -0.337651
v -0.332839 0.356445 -0.602896
v 0.010731 0.451970 -0.403342
v -0.069822 0.020324 -0.138096
v -0.201358 0.316459 0.356694
v -0.164534 0.325648 0.741425
v 0.223138 0.463879 0.692347
v 0.186314 0.454690 0.307616
v 0.173448 0.360073 -0.414026
v -0.064186 0.779673 -0.574438
v -0.356831 0.604082 -0.318392
v -0.119197 0.184481 -0.157979
v -0.307286 0.029810 -0.059185
v -0.453655 0.205023 -0.302354
v -0.201551 0.209261 -0.470591
v -0.055181 0.034048 -0.227422
v -0.135797 -0.011971 0.065204
v -0.429441 -0.083834 0.078875
v -0.477688 0.267699 -0.097368
v -0.184043 0.339562 -0.111039
v 0.072947 0.699725 0.404223
v 0.369827 0.403586 0.629787
v 0.547387 0.177094 0.275676
v 0.250508 0.473233 0.050112
v 0.146308 0.052800 0.137406
v 0.504996 0.237984 0.048969
v 0.545289 0.196229 0.429576
v 0.186601 0.011044 0.518013
v 0.181438 0.668637 0.077578
v 0.494924 0.398224 -0.104066
v 0.276515 0.210207 -0.439358
v -0.036971 0.480620 -0.257714
v -0.558843 0.143776 -0.138626
v -0.837950 0.325850 0.131684
v -0.579405 0.271642 0.448732
v -0.300298 0.089569 0.178423
v -0.223963 0.006795 -0.142643
v 0.046040 0.313548 -0.362294
v -0.226514 0.729724 -0.447255
v -0.496517 0.422971 -0.227604
v -0.534347 0.274617 -0.094470
v -0.655234 0.836603 -0.041246
v -0.410069 0.892532 0.287341
v -0.289182 0.330546 0.234118
v 0.300848 0.001480 0.480453
v 0.060844 0.184429 0.787885
v -0.067665 0.611366 0.540326
v 0.172339 0.428417 0.232894
v 0.304438 0.160821 0.340447
v 0.391024 0.341315 0.728833
v 0.026102 0.185649 0.856341
v -0.060484 0.005155 0.467954
v -0.474749 0.055091 -0.256484
v -0.305450 0.397639 -0.543293
v 0.048423 0.315984 -0.361393
v -0.120876 -0.026564 -0.074584
v -0.160011 0.133087 -0.306349
v -0.439851 0.133703 -0.414967
v -0.542508 0.126680 -0.118935
v -0.262668 0.126064 -0.010316
v -0.270312 0.232263 -0.170241
v -0.092898 0.272322 -0.421973
v 0.145099 0.194343 -0.240824
v -0.032314 0.154284 0.010908
v -0.227227 0.653994 0.368294
v -0.237557 0.374184 0.685699
v 0.154883 0.277522 0.699515
v 0.165213 0.557331 0.382110
v -0.104543 0.302440 0.001540
v -0.312557 0.262524 0.225534
v -0.467758 -0.003527 0.038960
v -0.259744 0.036389 -0.185034
v 0.124606 0.102966 -0.003511
v 0.511603 0.180465 0.073756
v 0.436522 0.195765 0.486523
v 0.049525 0.118266 0.409256
v 0.029074 0.689906 0.306407
v 0.295680 0.424288 0.554619
v 0.509138 0.266545 0.216534
v 0.242532 0.532163 -0.031678
v 0.100672 0.098683 0.134670
v 0.395493 0.110222 0.416531
v 0.135019 0.000630 0.723894
v -0.159802 -0.010910 0.442033
v 0.179538 0.172246 -0.180026
v 0.545234 0.401635 -0.131554
v 0.479035 0.458104 0.280457
v 0.113340 0.228715 0.231984
v -0.371005 0.132787 -0.075934
v -0.713475 0.392736 -0.227928
v -0.553135 0.434045 -0.609541
v -0.210665 0.174096 -0.457546
v 0.105024 0.878921 0.347471
v 0.234326 0.917043 0.668059
v 0.474333 0.357491 0.552056
v 0.345031 0.319369 0.231468
v -0.071434 0.482237 -0.654465
v -0.460181 0.529972 -0.573777
v -0.399104 0.325829 -0.184114
v -0.010357 0.278093 -0.264802
v -0.223852 0.285914 -0.609901
v -0.419135 0.793389 -0.535080
v -0.401631 0.686419 -0.121851
v -0.206348 0.178944 -0.196672
v -0.308454 0.725804 0.343516
v -0.176901 0.586427 -0.040860
v -0.452933 0.160108 -0.069460
v -0.584486 0.299486 0.314916
v -0.344475 0.671240 0.337413
v -0.503226 0.246208 0.637559
v -0.168895 0.312587 0.858370
v -0.010144 0.737619 0.558225
v -0.445828 0.735752 0.328740
v -0.546000 0.374046 0.674811
v -0.188122 0.519699 0.838646
v -0.087950 0.881405 0.492574
v 0.211526 0.927371 0.060160
v 0.563391 0.585378 0.099272
v 0.552692 0.395238 -0.307432
v 0.200826 0.737230 -0.346543
v 0.517526 0.228682 -0.166524
v 0.249932 0.120386 -0.370144
v 0.026878 0.675443 -0.249691
v 0.294473 0.783740 -0.046071
v -0.469909 0.837632 -0.050141
v -0.529650 0.438632 0.148197
v -0.262038 0.215759 0.014666
v -0.202296 0.614759 -0.183673
v -0.483104 0.833240 -0.264602
v -0.835290 0.564755 -0.139910
v -0.717955 0.607420 0.258832
v -0.365770 0.875905 0.134141
v -0.275318 0.839405 0.391270
v -0.326222 0.474790 0.719237
v 0.065974 0.474650 0.787299
v 0.116878 0.839265 0.459332
v 0.180185 0.867749 -0.071145
v 0.485303 0.630828 -0.289861
v 0.278251 0.689151 -0.645769
v -0.026866 0.926072 -0.427053
v -0.013225 1.029091 0.340893
v 0.384089 1.017173 0.347071
v 0.388310 0.903982 -0.065721
v -0.009005 0.915900 -0.071899
v -0.179902 0.826683 0.544890
v -0.001609 0.543259 0.884621
v 0.329581 0.431264 0.660743
v 0.151288 0.714688 0.321013
v 0.123701 0.935630 0.170200
v 0.462779 0.855586 -0.041733
v 0.261934 0.871389 -0.404408
v -0.077144 0.951432 -0.192474
v -0.350137 1.015425 -0.025503
v -0.366887 1.056651 0.288016
v -0.133922 0.781864 0.319981
v -0.117172 0.740638 0.006462
v -0.458477 0.641040 -0.431478
v -0.124615 0.901649 -0.333093
v 0.071631 0.711711 -0.615147
v -0.262230 0.451102 -0.713532
v -0.057036 0.934926 -0.036891
v -0.080580 0.893552 -0.349911
v -0.372403 0.813012 -0.320029
v -0.348859 0.854387 -0.007009
v -0.176900 1.040489 -0.039367
v -0.228407 0.686693 -0.373092
v -0.607805 0.602357 -0.262925
v -0.556298 0.956152 0.070800
v -0.662415 0.572424 -0.217060
v -0.907491 0.409904 0.035460
v -0.629995 0.331577 0.332910
v -0.384918 0.494096 0.080390
v 0.077593 1.052456 0.291082
v 0.384771 0.866034 0.522629
v 0.579614 0.705257 0.172163
v 0.272436 0.891678 -0.059384
v 0.106094 0.615295 -0.048066
v 0.117305 0.426339 0.350496
v 0.368217 0.867294 0.446929
v 0.357006 1.056251 0.048367
v 0.281139 0.843131 0.275641
v 0.582749 0.396024 0.327349
v 0.620121 0.332557 -0.089776
v 0.318511 0.779663 -0.141485
v 0.315098 0.963678 0.215914
v 0.521814 0.802951 -0.122259
v 0.245605 0.772055 -0.372758
v 0.038890 0.932783 -0.034585
v -0.247108 0.662341 -0.022697
v -0.459327 0.736564 0.192464
v -0.313203 1.099639 0.291287
v -0.100984 1.025417 0.076127
v -0.531497 1.043734 0.163404
v -0.647843 0.833095 0.547592
v -0.276724 0.758174 0.664213
v -0.160379 0.968812 0.280025
v -0.222782 0.854181 -0.200095
v -0.484384 0.673214 -0.280766
v -0.569033 0.677591 0.021601
v -0.307431 0.858557 0.102273
v -0.178109 0.992061 -0.122731
v -0.282888 0.546242 -0.378328
v -0.665546 0.644903 -0.288621
v -0.560767 1.090723 -0.033024
v 0.028391 0.708447 0.672310
v 0.399867 0.493156 0.760887
v 0.511004 0.661341 0.371691
v 0.139528 0.876632 0.283114
v 0.073178 0.453433 0.507293
v 0.468111 0.429581 0.546272
v 0.507077 0.752647 0.168607
v 0.112144 0.776499 0.129627
v 0.024228 0.755471 -0.014874
v -0.052241 0.440185 0.193214
v 0.161762 0.582061 0.388526
v 0.238231 0.897347 0.180438
v 0.276237 0.571799 0.208904
v 0.467790 0.373705 0.383063
v 0.613734 0.458235 0.142803
v 0.422181 0.656328 -0.031356
v 0.131455 0.979234 0.241767
v 0.148801 0.386824 0.205347
v 0.182045 0.440412 -0.211955
v 0.164699 1.032822 -0.175536
v 0.149887 0.954708 0.198845
v 0.514888 0.722627 0.227167
v 0.553937 0.758232 -0.190532
v 0.188936 0.990312 -0.218854
v 0.422380 0.591802 -0.171205
v 0.300454 0.452632 -0.561576
v -0.043682 0.693992 -0.483206
v 0.078244 0.833162 -0.092835
v 0.288374 0.900174 0.058349
v 0.553283 0.621408 -0.185526
v 0.295050 0.631178 -0.505087
v 0.030142 0.909944 -0.261212
v 0.187843 1.012635 0.077481
v 0.365546 0.485675 0.023826
v 0.238701 0.471007 -0.374537
v 0.060998 0.997967 -0.320883
v -0.469828 0.647004 -0.111435
v -0.728810 0.748121 0.027402
v -0.600241 0.707847 0.310499
v -0.341259 0.606729 0.171662
v -0.412857 1.029292 0.060873
v -0.445743 0.771976 -0.331940
v -0.775021 0.400595 -0.223515
v -0.742135 0.657911 0.169298
v -0.512094 0.833450 0.085169
v -0.465742 0.416754 0.187126
v -0.172481 0.495213 0.197920
v -0.218833 0.911909 0.095964
v -0.533659 1.012178 -0.041590
v -0.159020 1.111932 -0.162988
v -0.026815 0.874467 0.196324
v -0.401454 0.774713 0.317721
v -0.632758 0.672220 -0.051999
v -0.883184 0.411353 0.239853
v -0.623149 0.595261 0.540850
v -0.372723 0.856129 0.248998
v -0.301962 0.988020 -0.184847
v -0.404189 1.075722 0.135658
v -0.050473 1.012999 0.183548
v 0.051754 0.925297 -0.136958
v -0.413897 0.982929 -0.051221
v -0.704889 0.829890 0.212171
v -0.463009 0.705015 0.519349
v -0.172018 0.858053 0.255957
v -0.385052 0.957878 0.142602
v -0.426828 0.545261 0.254560
v -0.140328 0.527000 0.340639
v -0.098551 0.939617 0.228680
v -0.241558 0.864819 0.108259
v -0.548657 0.599973 -0.082101
v -0.772501 0.690229 0.259452
v -0.465402 0.955074 0.449813
v -0.413771 0.867410 0.521321
v -0.069926 0.742257 0.712768
v 0.111788 0.717061 0.339227
v -0.232057 0.842214 0.147780
v -0.370880 0.834754 0.328699
v -0.250306 1.051727 -0.041495
v 0.122637 1.079270 0.102530
v 0.002064 0.862297 0.472724
v -0.166273 1.006802 0.331976
v -0.136384 0.807150 0.731245
v 0.227624 0.533586 0.660593
v 0.197734 0.733238 0.261324
v -0.318695 0.898950 0.302068
v -0.530553 0.672036 0.619672
v -0.195820 0.580345 0.836915
v 0.016038 0.807260 0.519311
v -0.604570 0.382070 -0.363475
v -0.405396 0.877664 -0.264340
v -0.682459 1.012795 0.021616
v -0.881633 0.517201 -0.077518
v -0.139814 0.966395 -0.249619
v -0.136926 0.535556 -0.539728
v -0.528191 0.460438 -0.488415
v -0.531079 0.891278 -0.198305
v -0.285442 0.502416 -0.404681
v -0.664453 0.280856 -0.389013
v -0.662059 0.358410 0.029151
v -0.283048 0.579969 0.013483
v -0.411944 0.708517 0.061735
v -0.752131 0.575822 -0.140165
v -0.907939 0.458191 0.203860
v -0.567753 0.590886 0.405761
v -0.475719 0.818176 -0.192025
v -0.642674 0.767008 0.066719
v -0.403518 0.623412 0.225284
v -0.236563 0.674580 -0.033460
v -0.307165 1.002566 -0.334860
v -0.515237 0.707618 -0.579893
v -0.724155 0.460188 -0.252733
v -0.516083 0.755136 -0.007700
v -0.163794 0.627877 -0.063325
v 0.107031 0.688137 0.061346
v 0.136309 1.067936 -0.101464
v -0.134515 1.007677 -0.226136
v -0.066638 0.795229 -0.249561
v -0.260795 0.854811 -0.485119
v -0.485307 0.857173 -0.277679
v -0.291150 0.797591 -0.042121
v -0.205581 0.838899 -0.476716
v -0.529235 0.550167 -0.608028
v -0.680466 0.462724 -0.238267
v -0.356812 0.751456 -0.106955
v -0.545329 0.696520 0.187854
v -0.503812 0.359974 0.390341
v -0.211670 0.448192 0.396468
v -0.253186 0.784738 0.193981
v -0.617190 0.890998 0.115945
v -0.788658 0.374363 0.219351
v -0.587175 0.369734 0.581787
v -0.415707 0.886370 0.478380
v -0.711783 0.611438 0.145564
v -0.676381 0.603555 0.538011
v -0.309370 0.840468 0.536938
v -0.344772 0.848352 0.144491
v -0.345100 0.922583 0.236604
v -0.739800 0.836195 0.246633
v -0.717408 0.594875 0.617476
v -0.322707 0.681263 0.607447
v 0.223175 0.792247 0.147862
v 0.402165 0.623986 -0.021230
v 0.207501 0.497762 -0.189200
v 0.028512 0.666022 -0.020109
v 0.162600 0.864489 0.243234
v 0.320738 0.435454 0.297352
v 0.421832 0.434692 -0.036333
v 0.263694 0.863727 -0.090451
v 0.028363 1.058472 0.172229
v 0.044988 0.525048 0.357961
v 0.345101 0.369617 0.105107
v 0.328476 0.903040 -0.080625
v -0.121263 0.597766 0.055225
v 0.053472 0.837336 -0.070324
v -0.127657 1.126799 -0.076845
v -0.302392 0.887229 0.048704
v -0.093163 1.019113 -0.081026
v -0.182570 0.606816 -0.251325
v -0.405744 0.508872 -0.001833
v -0.316337 0.921169 0.168467
v -0.359254 1.087072 -0.118722
v -0.678166 0.918926 0.102311
v -0.455196 0.885079 0.449571
v -0.136283 1.053225 0.228538
v -0.133752 0.955892 0.372893
v -0.504959 0.753293 0.313274
v -0.552089 0.550428 0.696786
v -0.180882 0.753026 0.756405
v -0.327011 0.916742 -0.031465
v -0.702502 0.722105 -0.022466
v -0.721610 0.842883 0.388779
v -0.346119 1.037521 0.379780
v -0.543653 0.984408 -0.063912
v -0.852720 0.596010 0.050574
v -0.710812 0.548992 0.442209
v -0.401745 0.937390 0.327722
v -0.296156 0.354411 -0.333143
v -0.577380 0.256509 -0.409474
v -0.657191 0.295503 -0.106956
v -0.375967 0.393406 -0.030626
v -0.387675 0.000847 -0.325176
v -0.030380 -0.095735 -0.155039
v -0.154963 0.134180 0.207308
v -0.512259 0.230763 0.037171
v -0.261499 0.143521 -0.008723
v -0.373699 0.399947 -0.366094
v -0.754865 0.312561 -0.265520
v -0.642666 0.056135 0.091851
v -0.496118 0.098605 0.066756
v -0.174731 -0.111470 -0.127402
v 0.015847 -0.138137 0.241078
v -0.305540 0.071937 0.435236
v -0.344353 0.006052 0.211979
v -0.570756 0.199357 0.532975
v -0.253083 0.464223 0.733841
v -0.026679 0.270919 0.412845
v -0.360584 0.294853 -0.162580
v -0.490463 0.423330 -0.551711
v -0.822026 0.537222 -0.401809
v -0.692147 0.408745 -0.012678
v -0.250352 0.227367 -0.397836
v -0.537137 0.276907 -0.319819
v -0.456193 0.415939 -0.033757
v -0.169408 0.366398 -0.111773
v -0.034613 0.010154 -0.387604
v -0.038292 0.295724 -0.716979
v -0.399267 0.535288 -0.616811
v -0.395587 0.249717 -0.287436
v -0.096089 0.411616 -0.083450
v 0.029787 0.353272 0.199230
v 0.153279 -0.014453 0.097269
v 0.027403 0.043891 -0.185411
v 0.093029 0.289540 -0.155661
v 0.093904 0.231852 -0.468205
v -0.204169 0.229566 -0.468914
v -0.205044 0.287254 -0.156370
v 0.130172 0.168617 -0.423363
v -0.031278 0.448170 -0.747896
v -0.375441 0.532833 -0.575454
v -0.213991 0.253280 -0.250921
v -0.138013 0.402084 0.035342
v 0.071597 0.170131 0.062880
v -0.060498 -0.110130 -0.068400
v -0.270108 0.121824 -0.095938
v -0.208492 -0.071666 -0.261471
v -0.586002 0.091135 -0.317828
v -0.634843 0.123905 0.098789
v -0.257333 -0.038895 0.155146
v -0.238643 0.093249 -0.173381
v -0.526520 0.281698 -0.428606
v -0.797221 0.164759 -0.132794
v -0.509345 -0.023690 0.122431
vn 0.5368 0.8413 -0.0642
vn -0.8783 0.3423 -0.3338
vn 0.3136 0.6536 0.6888
vn -0.6091 0.7927 -0.0252
vn 0.2726 0.6468 -0.7123
vn -0.0446 0.8529 -0.5202
vn -0.3067 0.8576 -0.4130
vn 0.0065 0.3719 -0.9283
vn -0.7112 0.0256 -0.7025
vn -0.7808 0.5094 -0.3618
vn 0.1668 0.9614 -0.2187
vn 0.0357 0.0234 -0.9991
vn 0.0441 0.8275 -0.5598
vn -0.5333 0.5129 0.6727
vn -0.3348 0.9423 0.0095
vn 0.3738 0.5083 0.7758
vn 0.2817 0.8508 0.4435
vn -0.0660 0.4400 0.8956
vn 0.7302 0.6798 -0.0686
vn -0.4259 0.8934 0.1431
vn 0.2896 0.7419 -0.6047
vn 0.4088 0.8946 -0.1804
vn 0.2936 0.3721 0.8805
vn 0.7631 0.2216 -0.6071
vn 0.8127 0.4554 0.3635
vn -0.4591 0.8403 -0.2882
vn -0.2015 0.6854 0.6997
vn -0.0062 0.9997 0.0216
vn 0.1292 0.9611 0.2440
vn 0.1587 0.7381 0.6558
vn -0.6039 0.6628 -0.4427
vn -0.1825 0.9807 -0.0696
vn 0.6675 0.7408 0.0758
vn -0.2024 0.9640 0.1722
vn -0.5023 0.8422 -0.1961
vn 0.4911 0.8196 0.2951
vn 0.8184 0.4301 -0.3812
vn 0.1975 0.8807 0.4305
vn 0.9346 0.3520 0.0515
vn -0.7409 0.5091 -0.4382
vn -0.5162 0.6143 0.5969
vn -0.5176 0.6620 0.5421
vn 0.6773 0.6595 -0.3261
vn 0.4669 0.3627 -0.8065
vn 0.6050 0.2799 0.7454
vn -0.5847 0.8067 0.0857
vn -0.1262 0.6731 0.7287
vn 0.5259 0.8335 -0.1693
vn 0.0330 0.9640 -0.2640
vn 0.5140 0.7719 0.3742
vn 0.1916 0.9794 -0.0634
vn 0.7645 0.6431 -0.0437
vn -0.3219 0.6663 -0.6726
vn -0.2746 0.9557 -0.1057
vn -0.3404 0.6709 -0.6587
vn -0.1792 0.8973 0.4035
vn 0.5560 0.8282 -0.0708
vn -0.8662 0.4417 0.2338
vn 0.8295 0.5584 -0.0106
vn 0.1903 0.9267 -0.3241
vn -0.5689 0.4212 -0.7064
vn 0.0236 0.8736 0.4861
vn -0.5278 0.8342 -0.1598
vn -0.0701 0.5085 -0.8582
vn 0.3628 0.8132 0.4550
vn -0.0181 0.7607 0.6489
vn -0.7428 0.4849 0.4617
vn 0.3626 0.7880 0.4975
vn 0.9963 0.0241 0.0825
vn 0.5259 0.8419 0.1209
vn 0.4543 0.7847 -0.4217
vn 0.4891 0.7894 -0.3711
vn 0.8952 0.3321 -0.2973
vn 0.3513 0.9359 -0.0264
vn -0.7540 0.5767 -0.3146
vn -0.0963 0.2264 0.9693
vn 0.0385 -0.8271 -0.5608
vn -0.6542 0.7486 0.1078
vn 0.1972 0.9598 -0.1997
vn -0.0829 0.8987 0.4306
vn -0.2602 0.2773 0.9249
vn -0.3934 0.7919 -0.4671
vn 0.3003 0.9503 0.0820
vn 0.2321 -0.8703 -0.4345
vn 0.6083 0.7272 0.3181
vn -0.1115 0.8423 0.5274
vn 0.5707 -0.3754 0.7303
vn -0.2110 0.5450 -0.8115
vn -0.5033 0.8501 -0.1548
vn -0.4205 0.8997 0.1172
vn 0.2910 0.8853 0.3628
vn -0.7955 0.6038 -0.0513
vn -0.4552 0.3802 0.8051
vn 0.1360 0.9813 0.1361
vn -0.6442 0.7602 -0.0837
vn -0.1668 0.4931 0.8538
vn -0.8130 0.3612 0.4566
vn -0.5410 0.8384 0.0656
vn -0.1660 0.8219 0.5449
vn 0.0822 0.7486 -0.6579
vn 0.8921 0.3628 0.2694
vn 0.6969 0.2551 0.6703
vn 0.3376 0.2318 0.9123
vn -0.7582 0.3825 -0.5280
vn -0.2913 0.9158 0.2763
vn -0.4909 0.7936 0.3595
vn -0.4481 0.8519 -0.2710
vn -0.6899 0.6455 0.3275
vn -0.2752 0.9416 -0.1940
vn -0.4073 -0.8280 0.3853
vn -0.0298 0.8077 0.5889
vn -0.4619 -0.8693 0.1760
vn -0.2351 0.7504 -0.6177
vn 0.3879 0.9060 0.1696
vn 0.0337 0.8951 -0.4446
vn 0.5648 0.6266 0.5370
vn 0.8720 0.3788 -0.3101
vn -0.0071 0.9834 -0.1815
vn 0.4230 0.7799 0.4614
vn 0.3814 0.2386 -0.8931
vn 0.3991 0.9166 -0.0253
vn 0.1456 0.8673 0.4761
vt 1.000000 0.000000
vt 1.000000 1.000000
vt 0.000000 1.000000
vt 0.000000 0.000000
s 1
usemtl gbushy
f 1/1/1 2/2/1 3/3/1 4/4/1
f 8/1/2 7/2/2 6/3/2 5/4/2
f 9/1/3 10/2/3 11/3/3 12/4/3
f 16/1/4 15/2/4 14/3/4 13/4/4
f 17/1/5 18/2/5 19/3/5 20/4/5
f 21/1/6 22/2/6 23/3/6 24/4/6
f 28/1/7 27/2/7 26/3/7 25/4/7
f 29/1/8 30/2/8 31/3/8 32/4/8
f 36/1/9 35/2/9 34/3/9 33/4/9
f 37/1/10 38/2/10 39/3/10 40/4/10
f 41/1/11 42/2/11 43/3/11 44/4/11
f 45/1/12 46/2/12 47/3/12 48/4/12
f 52/1/13 51/2/13 50/3/13 49/4/13
f 56/1/14 55/2/14 54/3/14 53/4/14
f 57/1/15 58/2/15 59/3/15 60/4/15
f 61/1/16 62/2/16 63/3/16 64/4/16
f 68/1/17 67/2/17 66/3/17 65/4/17
f 72/1/18 71/2/18 70/3/18 69/4/18
f 73/1/19 74/2/19 75/3/19 76/4/19
f 80/1/20 79/2/20 78/3/20 77/4/20
f 81/1/21 82/2/21 83/3/21 84/4/21
f 85/1/22 86/2/22 87/3/22 88/4/22
f 89/1/23 90/2/23 91/3/23 92/4/23
f 93/1/24 94/2/24 95/3/24 96/4/24
f 100/1/25 99/2/25 98/3/25 97/4/25
f 104/1/26 103/2/26 102/3/26 101/4/26
f 108/1/27 107/2/27 106/3/27 105/4/27
f 109/1/28 110/2/28 111/3/28 112/4/28
f 116/1/29 115/2/29 114/3/29 113/4/29
f 117/1/30 118/2/30 119/3/30 120/4/30
f 124/1/31 123/2/31 122/3/31 121/4/31
f 128/1/32 127/2/32 126/3/32 125/4/32
f 129/1/33 130/2/33 131/3/33 132/4/33
f 136/1/34 135/2/34 134/3/34 133/4/34
f 140/1/35 139/2/35 138/3/35 137/4/35
f 144/1/36 143/2/36 142/3/36 141/4/36
f 145/1/37 146/2/37 147/3/37 148/4/37
f 149/1/38 150/2/38 151/3/38 152/4/38
f 153/1/39 154/2/39 155/3/39 156/4/39
f 157/1/40 158/2/40 159/3/40 160/4/40
f 161/1/41 162/2/41 163/3/41 164/4/41
f 165/1/42 166/2/42 167/3/42 168/4/42
f 169/1/43 170/2/43 171/3/43 172/4/43
f 173/1/44 174/2/44 175/3/44 176/4/44
f 177/1/45 178/2/45 179/3/45 180/4/45
f 181/1/46 182/2/46 183/3/46 184/4/46
f 185/1/47 186/2/47 187/3/47 188/4/47
f 189/1/48 190/2/48 191/3/48 192/4/48
f 193/1/49 194/2/49 195/3/49 196/4/49
f 197/1/50 198/2/50 199/3/50 200/4/50
f 201/1/51 202/2/51 203/3/51 204/4/51
f 205/1/52 206/2/52 207/3/52 208/4/52
f 209/1/53 210/2/53 211/3/53 212/4/53
f 213/1/54 214/2/54 215/3/54 216/4/54
f 217/1/55 218/2/55 219/3/55 220/4/55
f 221/1/56 222/2/56 223/3/56 224/4/56
f 225/1/57 226/2/57 227/3/57 228/4/57
f 229/1/58 230/2/58 231/3/58 232/4/58
f 233/1/59 234/2/59 235/3/59 236/4/59
f 237/1/60 238/2/60 239/3/60 240/4/60
f 241/1/61 242/2/61 243/3/61 244/4/61
f 245/1/62 246/2/62 247/3/62 248/4/62
f 249/1/63 250/2/63 251/3/63 252/4/63
f 253/1/64 254/2/64 255/3/64 256/4/64
f 257/1/65 258/2/65 259/3/65 260/4/65
f 261/1/66 262/2/66 263/3/66 264/4/66
f 265/1/67 266/2/67 267/3/67 268/4/67
f 269/1/68 270/2/68 271/3/68 272/4/68
f 273/1/69 274/2/69 275/3/69 276/4/69
f 277/1/70 278/2/70 279/3/70 280/4/70
f 281/1/71 282/2/71 283/3/71 284/4/71
f 285/1/72 286/2/72 287/3/72 288/4/72
f 289/1/73 290/2/73 291/3/73 292/4/73
f 293/1/74 294/2/74 295/3/74 296/4/74
f 297/1/75 298/2/75 299/3/75 300/4/75
f 301/1/76 302/2/76 303/3/76 304/4/76
f 305/1/77 306/2/77 307/3/77 308/4/77
f 309/1/78 310/2/78 311/3/78 312/4/78
f 313/1/79 314/2/79 315/3/79 316/4/79
f 317/1/80 318/2/80 319/3/80 320/4/80
f 321/1/81 322/2/81 323/3/81 324/4/81
f 325/1/82 326/2/82 327/3/82 328/4/82
f 329/1/83 330/2/83 331/3/83 332/4/83
f 333/1/84 334/2/84 335/3/84 336/4/84
f 337/1/85 338/2/85 339/3/85 340/4/85
f 341/1/86 342/2/86 343/3/86 344/4/86
f 345/1/87 346/2/87 347/3/87 348/4/87
f 349/1/88 350/2/88 351/3/88 352/4/88
f 353/1/89 354/2/89 355/3/89 356/4/89
f 357/1/90 358/2/90 359/3/90 360/4/90
f 361/1/91 362/2/91 363/3/91 364/4/91
f 365/1/92 366/2/92 367/3/92 368/4/92
f 369/1/93 370/2/93 371/3/93 372/4/93
f 373/1/94 374/2/94 375/3/94 376/4/94
f 377/1/95 378/2/95 379/3/95 380/4/95
f 381/1/96 382/2/96 383/3/96 384/4/96
f 385/1/97 386/2/97 387/3/97 388/4/97
f 389/1/98 390/2/98 391/3/98 392/4/98
f 393/1/99 394/2/99 395/3/99 396/4/99
f 397/1/100 398/2/100 399/3/100 400/4/100
f 401/1/101 402/2/101 403/3/101 404/4/101
f 405/1/102 406/2/102 407/3/102 408/4/102
f 409/1/103 410/2/103 411/3/103 412/4/103
f 413/1/104 414/2/104 415/3/104 416/4/104
f 417/1/105 418/2/105 419/3/105 420/4/105
f 421/1/106 422/2/106 423/3/106 424/4/106
f 425/1/107 426/2/107 427/3/107 428/4/107
f 429/1/108 430/2/108 431/3/108 432/4/108
f 433/1/109 434/2/109 435/3/109 436/4/109
f 437/1/110 438/2/110 439/3/110 440/4/110
f 441/1/111 442/2/111 443/3/111 444/4/111
f 445/1/112 446/2/112 447/3/112 448/4/112
f 449/1/113 450/2/113 451/3/113 452/4/113
f 453/1/114 454/2/114 455/3/114 456/4/114
f 457/1/115 458/2/115 459/3/115 460/4/115
f 461/1/116 462/2/116 463/3/116 464/4/116
f 465/1/117 466/2/117 467/3/117 468/4/117
f 469/1/118 470/2/118 471/3/118 472/4/118
f 473/1/119 474/2/119 475/3/119 476/4/119
f 477/1/120 478/2/120 479/3/120 480/4/120
f 481/1/121 482/2/121 483/3/121 484/4/121
f 485/1/122 486/2/122 487/3/122 488/4/122
