# Blender 5.1.1
# www.blender.org
mtllib Tree2.mtl
o Verde.001
v -0.616391 -1.554023 -0.013827
v -0.610997 -1.554023 0.000994
v -0.619195 -1.546141 0.003340
v -0.624179 -1.546141 -0.010354
v 0.517383 4.856263 -0.418095
v 0.511335 4.853825 -0.419814
v 0.513854 4.853825 -0.412890
v -0.606417 -1.554023 -0.242273
v -0.613873 -1.546141 -0.246411
v -0.607715 -1.546141 -0.259618
v -0.599752 -1.554023 -0.256567
v 0.513082 4.848306 -0.475234
v 0.519242 4.850395 -0.477018
v 0.516029 4.846958 -0.481850
v -0.431163 -1.554023 -0.411050
v -0.433509 -1.546141 -0.419248
v -0.419815 -1.546141 -0.424232
v -0.416343 -1.554023 -0.416444
v 0.555463 4.833634 -0.518895
v 0.561168 4.836229 -0.516405
v 0.562150 4.831727 -0.521329
v -0.187896 -1.554023 -0.406470
v -0.183758 -1.546141 -0.413926
v -0.170551 -1.546141 -0.407767
v -0.173603 -1.554023 -0.399804
v 0.616171 4.818403 -0.518299
v 0.618603 4.822062 -0.513182
v 0.622681 4.817054 -0.515124
v -0.019119 -1.554023 -0.231216
v -0.010921 -1.546141 -0.233562
v -0.005937 -1.546141 -0.219868
v -0.013725 -1.554023 -0.216395
v 0.659643 4.811536 -0.473794
v 0.657901 4.816195 -0.469239
v 0.662163 4.811536 -0.466870
v -0.023699 -1.554023 0.012051
v -0.016243 -1.546141 0.016189
v -0.022402 -1.546141 0.029396
v -0.030365 -1.554023 0.026345
v 0.660415 4.817054 -0.411450
v 0.656043 4.822062 -0.410316
v 0.657468 4.818403 -0.404834
v -0.198953 -1.554023 0.180828
v -0.196607 -1.546141 0.189026
v -0.210301 -1.546141 0.194010
v -0.213774 -1.554023 0.186222
v 0.618035 4.831727 -0.367789
v 0.614116 4.836229 -0.370930
v 0.611347 4.833634 -0.365355
v -0.442220 -1.554023 0.176248
v -0.446358 -1.546141 0.183704
v -0.459565 -1.546141 0.177545
v -0.456514 -1.554023 0.169583
v 0.557327 4.846958 -0.368385
v 0.556682 4.850395 -0.374152
v 0.550817 4.848306 -0.371560
v -2.001057 -0.752275 0.490234
v -1.995717 -0.752275 0.504908
v -1.682133 0.313009 0.374248
v -1.676852 0.313009 0.388758
v -1.337571 1.405952 0.248951
v -1.332362 1.405952 0.263261
v -1.053790 2.478525 0.145743
v -1.048633 2.478525 0.159911
v -0.549860 3.629768 -0.037687
v -0.544693 3.629768 -0.023493
v -0.527908 3.586174 -0.607504
v -0.533817 3.588236 -0.593986
v -1.027719 2.447446 -0.605677
v -1.033538 2.448563 -0.592214
v -1.304303 1.393671 -0.634576
v -1.310297 1.394057 -0.620935
v -1.628322 0.313280 -0.743398
v -1.634821 0.313274 -0.729413
v -1.935283 -0.752275 -0.879249
v -1.941882 -0.752275 -0.865096
v -0.121728 3.482174 -0.983349
v -0.135231 3.485122 -0.978434
v -0.499042 2.371494 -1.100718
v -0.512462 2.373163 -1.095834
v -0.677392 1.361015 -1.218960
v -0.691013 1.361662 -1.214002
v -0.804317 0.312660 -1.493331
v -0.818680 0.312686 -1.488103
v -0.920403 -0.752275 -1.801110
v -0.935077 -0.752275 -1.795770
v 0.430435 3.377434 -0.944946
v 0.417241 3.379561 -0.951510
v 0.222761 2.291310 -1.049469
v 0.209634 2.292586 -1.056037
v 0.174317 1.322417 -1.161290
v 0.161052 1.322975 -1.167922
v 0.299871 0.309132 -1.433584
v 0.286080 0.309192 -1.440184
v 0.449080 -0.752275 -1.735336
v 0.434927 -0.752275 -1.741935
v 0.802928 3.335151 -0.529865
v 0.807968 3.335151 -0.516019
v 0.714245 2.257470 -0.497603
v 0.719295 2.257470 -0.483728
v 0.754321 1.305878 -0.512203
v 0.759379 1.305878 -0.498305
v 1.041944 0.308975 -0.616947
v 1.047040 0.308975 -0.602947
v 1.370941 -0.752275 -0.720456
v 1.365600 -0.752275 -0.735130
v 0.791948 3.378474 0.042571
v 0.786204 3.380549 0.055749
v 0.699516 2.292316 0.255971
v 0.693802 2.293566 0.269161
v 0.734691 1.324096 0.373118
v 0.728962 1.324639 0.386332
v 1.005968 0.311670 0.501153
v 0.999869 0.311727 0.514584
v 1.314245 -0.748908 0.636356
v 1.307894 -0.748908 0.649974
v 0.392172 3.483602 0.428125
v 0.378999 3.486479 0.432920
v 0.178318 2.372710 0.760194
v 0.165175 2.374345 0.764977
v 0.117767 1.362843 0.966022
v 0.104538 1.363473 0.970837
v 0.196825 0.315241 1.258009
v 0.182968 0.315267 1.263053
v 0.290287 -0.752275 1.570888
v 0.304961 -0.752275 1.565547
v -0.174822 3.588236 0.392344
v -0.161606 3.586174 0.398901
v -0.558769 2.448563 0.712201
v -0.545658 2.447446 0.718774
v -0.752318 1.394057 0.912100
v -0.738958 1.393671 0.918697
v -0.931189 0.313274 1.203799
v -0.917221 0.313280 1.210335
v -1.079196 -0.752275 1.505115
v -1.065043 -0.752275 1.511714
v -0.565054 -0.209123 -0.239725
v -0.571212 -0.209123 -0.226518
v -0.578182 -0.204134 -0.229193
v -0.571582 -0.204134 -0.243345
v -0.403716 -0.209123 -0.380000
v -0.417410 -0.209123 -0.375016
v -0.420447 -0.204134 -0.381835
v -0.405773 -0.204134 -0.387176
v -0.190444 -0.209123 -0.365106
v -0.203651 -0.209123 -0.371265
v -0.200977 -0.204134 -0.378234
v -0.186824 -0.204134 -0.371635
v -0.050169 -0.209123 -0.203769
v -0.055153 -0.209123 -0.217462
v -0.048331 -0.204134 -0.220500
v -0.042990 -0.204134 -0.205827
v -0.065063 -0.209123 0.009503
v -0.058904 -0.209123 -0.003704
v -0.051935 -0.204134 -0.001029
v -0.058534 -0.204134 0.013123
v -0.226400 -0.209123 0.149778
v -0.212707 -0.209123 0.144794
v -0.209670 -0.204134 0.151613
v -0.224343 -0.204134 0.156954
v -0.439672 -0.209123 0.134884
v -0.426465 -0.209123 0.141043
v -0.429140 -0.204134 0.148013
v -0.443292 -0.204134 0.141413
v -0.581782 -0.204134 -0.009722
v -0.587123 -0.204134 -0.024396
v -0.579947 -0.209123 -0.026453
v -0.574963 -0.209123 -0.012759
v -0.685180 0.941725 0.011607
v -0.680041 0.941725 0.025727
v -0.668501 0.938438 -0.303301
v -0.674523 0.938704 -0.289803
v -0.440289 0.930550 -0.509605
v -0.453944 0.930971 -0.504635
v -0.133098 0.922058 -0.486865
v -0.146431 0.922379 -0.493319
v 0.069306 0.918476 -0.263003
v 0.076345 0.920492 -0.249353
v 0.065141 0.924099 0.053348
v 0.058919 0.924430 0.067232
v -0.171070 0.930971 0.272556
v -0.156494 0.932659 0.269330
v -0.478134 0.938704 0.249770
v -0.464844 0.938438 0.256240
v -0.526268 2.114167 -0.046164
v -0.521172 2.114167 -0.032164
v -0.512714 2.103690 -0.309041
v -0.518588 2.104707 -0.295692
v -0.323886 2.079322 -0.479969
v -0.337299 2.080813 -0.475087
v -0.068695 2.054711 -0.459440
v -0.081850 2.055797 -0.465864
v 0.100606 2.045904 -0.274503
v 0.105814 2.045904 -0.260193
v 0.096852 2.055972 -0.009148
v 0.090773 2.057084 0.004524
v -0.086311 2.080730 0.171613
v -0.100021 2.082256 0.176603
v -0.354895 2.104707 0.154049
v -0.341815 2.103690 0.160499
v -0.220028 3.209569 -0.157569
v -0.214969 3.209569 -0.143671
v -0.207665 3.193599 -0.371396
v -0.213572 3.195495 -0.358116
v -0.052555 3.157072 -0.509947
v -0.065994 3.159786 -0.505056
v 0.156640 3.120838 -0.492863
v 0.143414 3.122792 -0.499178
v 0.294415 3.106956 -0.344964
v 0.299572 3.106956 -0.330796
v 0.291109 3.121661 -0.128399
v 0.284919 3.123654 -0.114800
v 0.140919 3.158140 0.020171
v 0.127219 3.160908 0.025158
v -0.081114 3.195495 0.005808
v -0.068053 3.193599 0.012183
v 0.134848 4.078593 -0.286720
v 0.139898 4.078593 -0.272845
v 0.145590 4.062422 -0.449118
v 0.139731 4.064892 -0.435875
v 0.265550 4.025804 -0.553826
v 0.252106 4.029328 -0.548933
v 0.424463 3.990175 -0.539509
v 0.411351 3.992681 -0.545847
v 0.526526 3.977167 -0.429460
v 0.531693 3.977167 -0.415266
v 0.526665 3.991041 -0.264723
v 0.520572 3.993600 -0.251139
v 0.413046 4.027031 -0.150404
v 0.399308 4.030634 -0.145403
v 0.239514 4.064892 -0.161725
v 0.252515 4.062422 -0.155346
v -0.330251 -1.554023 -0.101189
v -0.335645 -1.554023 -0.116010
v -0.328980 -1.554023 -0.130304
v -0.314159 -1.554023 -0.135698
v -0.299865 -1.554023 -0.129032
v -0.294471 -1.554023 -0.114212
v -0.301137 -1.554023 -0.099918
v -0.315957 -1.554023 -0.094524
vn -0.5395 0.6410 0.5460
vn 0.0436 0.0325 -0.9985
vn 0.7369 0.0325 -0.6752
vn 0.9985 0.0325 0.0436
vn 0.6752 0.0325 0.7369
vn -0.0436 0.0325 0.9985
vn -0.7642 0.6410 -0.0715
vn 0.3665 -0.9303 0.0160
vn -0.6752 0.0325 -0.7369
vn -0.5860 0.6069 0.5369
vn -0.6225 0.5342 0.5719
vn -0.6274 0.5218 0.5780
vn -0.5849 0.5882 0.5585
vn 0.3643 -0.7194 0.5914
vn -0.0337 0.6041 0.7962
vn -0.0364 0.5167 0.8554
vn -0.0276 0.4618 0.8866
vn 0.0011 0.4786 0.8780
vn -0.0941 -0.7214 -0.6861
vn 0.5404 0.6034 0.5865
vn 0.6002 0.4910 0.6314
vn 0.6624 0.3452 0.6649
vn 0.6879 0.2741 0.6721
vn -0.6493 -0.5442 -0.5313
vn 0.7952 0.6056 0.0300
vn 0.8821 0.4702 0.0281
vn 0.9692 0.2454 0.0224
vn 0.9939 0.1077 0.0218
vn -0.9184 -0.3957 0.0047
vn 0.5881 0.6059 -0.5358
vn 0.6549 0.4700 -0.5917
vn 0.7250 0.2456 -0.6435
vn 0.7439 0.1085 -0.6594
vn -0.7015 -0.3966 0.5922
vn 0.0394 0.6036 -0.7963
vn 0.0538 0.4904 -0.8698
vn 0.0800 0.3448 -0.9352
vn 0.0949 0.2742 -0.9570
vn -0.1558 -0.5440 0.8245
vn -0.5376 0.6041 -0.5883
vn -0.5748 0.5162 -0.6350
vn -0.5878 0.4609 -0.6649
vn -0.5600 0.4774 -0.6771
vn -0.7940 0.6069 -0.0346
vn -0.8445 0.5342 -0.0379
vn -0.8521 0.5218 -0.0395
vn -0.8071 0.5882 -0.0518
vn 0.3807 -0.8211 -0.4252
vn -0.0000 -1.0000 -0.0000
vn -0.9985 0.0325 -0.0436
vn 0.2704 -0.9303 -0.2478
vn 0.2478 -0.9303 0.2704
vn -0.0160 -0.9303 0.3665
vn -0.2704 -0.9303 0.2478
vn -0.3653 -0.9308 -0.0133
vn -0.2450 -0.9308 -0.2713
vn 0.0160 -0.9303 -0.3665
vn 0.5387 -0.8422 0.0239
vn 0.3973 -0.8422 -0.3646
vn 0.3620 -0.8425 0.3991
vn -0.0340 -0.8432 0.5365
vn -0.3999 -0.8429 0.3600
vn -0.5386 -0.8424 -0.0162
vn -0.3705 -0.8436 -0.3887
vn 0.0233 -0.8433 -0.5369
vn 0.6620 -0.7487 0.0350
vn 0.4847 -0.7487 -0.4523
vn 0.4375 -0.7357 0.5170
vn -0.0827 -0.6990 0.7103
vn -0.5688 -0.6598 0.4910
vn -0.7514 -0.6598 -0.0059
vn -0.5196 -0.6996 -0.4905
vn 0.0075 -0.7362 -0.6767
vn 0.6667 -0.7434 0.0539
vn 0.4761 -0.7434 -0.4698
vn 0.4428 -0.6803 0.5841
vn -0.1200 -0.5560 0.8225
vn -0.6814 -0.4433 0.5825
vn -0.8966 -0.4428 -0.0036
vn -0.6206 -0.5561 -0.5528
vn -0.0318 -0.6812 -0.7315
vn 0.5649 -0.8211 0.0810
vn -0.7369 0.0325 0.6752
vn -0.5203 0.5010 -0.6916
vn 0.1094 0.2723 -0.9560
vn 0.7459 0.0973 -0.6589
vn 0.9950 0.0976 0.0210
vn 0.6982 0.2739 0.6614
vn 0.0418 0.5030 0.8633
vn 0.2432 0.9659 -0.0885
vn -0.6387 -0.7335 0.2325
vn -0.4055 0.9021 0.1476
vn -0.6160 -0.7335 -0.2872
vn -0.3899 0.8528 -0.3474
vn -0.2324 -0.7335 -0.6387
vn -0.0377 0.7338 -0.6783
vn 0.2872 -0.7335 -0.6160
vn 0.4449 0.6148 -0.6512
vn 0.6387 -0.7335 -0.2325
vn 0.7750 0.5655 -0.2821
vn 0.6160 -0.7335 0.2872
vn 0.7594 0.6148 0.2128
vn 0.2324 -0.7335 0.6387
vn 0.4072 0.7338 0.5438
vn -0.2872 -0.7335 0.6160
vn -0.0752 0.8529 0.5167
vn -0.5044 -0.8308 -0.2352
vn -0.1904 -0.8308 -0.5230
vn 0.2352 -0.8308 -0.5044
vn 0.5229 -0.8309 -0.1903
vn 0.5044 -0.8308 0.2352
vn 0.1904 -0.8308 0.5230
vn -0.2352 -0.8308 0.5044
vn -0.5230 -0.8308 0.1904
vn -0.7178 -0.6955 -0.0313
vn -0.3462 0.9324 -0.1038
vn -0.6911 0.6776 0.2515
vn -0.9057 0.0352 -0.4224
vn -0.4854 -0.6955 -0.5297
vn -0.1735 0.8533 -0.4916
vn -0.3418 0.0352 -0.9391
vn 0.0313 -0.6955 -0.7178
vn 0.2185 0.7415 -0.6343
vn 0.4224 0.0352 -0.9057
vn 0.5297 -0.6955 -0.4854
vn 0.6001 0.6625 -0.4482
vn 0.9391 0.0352 -0.3418
vn 0.7178 -0.6955 0.0313
vn 0.7478 0.6625 -0.0424
vn 0.9057 0.0352 0.4224
vn 0.4854 -0.6955 0.5297
vn 0.5751 0.7416 0.3455
vn 0.3418 0.0352 0.9391
vn -0.0313 -0.6955 0.7178
vn 0.1831 0.8533 0.4882
vn -0.4224 0.0352 0.9057
vn -0.5297 -0.6955 0.4854
vn -0.1986 0.9324 0.3021
vn 0.3216 -0.9396 -0.1171
vn 0.4791 -0.8603 -0.1744
vn 0.5960 -0.7731 -0.2169
vn 0.5976 -0.7718 -0.2175
vn 0.4929 -0.8514 -0.1794
vn -0.6845 0.6069 -0.4039
vn -0.7255 0.5649 -0.3931
vn -0.7636 0.5208 -0.3817
vn -0.7501 0.5547 -0.3601
vn -0.7001 0.6355 -0.3257
vn -0.2216 0.4144 -0.8827
vn -0.2430 0.4037 -0.8820
vn -0.2608 0.4314 -0.8636
vn -0.2636 0.5327 -0.8042
vn -0.2563 0.6334 -0.7301
vn 0.4621 0.1965 -0.8648
vn 0.4556 0.2059 -0.8660
vn 0.4406 0.3165 -0.8401
vn 0.3918 0.5099 -0.7658
vn 0.3374 0.6352 -0.6947
vn 0.9346 0.1036 -0.3402
vn 0.9334 0.1154 -0.3397
vn 0.9068 0.2622 -0.3301
vn 0.8140 0.4996 -0.2963
vn 0.6913 0.6337 -0.3472
vn 0.9096 0.1984 0.3650
vn 0.9059 0.2056 0.3702
vn 0.8774 0.3169 0.3601
vn 0.7923 0.5105 0.3340
vn 0.7049 0.6358 0.3146
vn 0.3978 0.4160 0.8177
vn 0.3813 0.4035 0.8317
vn 0.3561 0.4318 0.8287
vn 0.3157 0.5333 0.7848
vn 0.1843 0.6310 0.7536
vn -0.2648 0.6069 0.7494
vn -0.3031 0.5649 0.7675
vn -0.3396 0.5208 0.7832
vn -0.3432 0.5547 0.7580
vn -0.3269 0.6355 0.6995
vn 0.3102 -0.9396 0.1447
vn 0.1171 -0.9396 0.3216
vn -0.1447 -0.9396 0.3102
vn -0.3216 -0.9396 0.1171
vn -0.3080 -0.9405 -0.1436
vn -0.1171 -0.9396 -0.3216
vn 0.1447 -0.9396 -0.3102
vn -0.9391 0.0352 0.3418
vn -0.5755 -0.8174 -0.0251
vn -0.3892 -0.8174 -0.4247
vn 0.0251 -0.8174 -0.5755
vn 0.4246 -0.8175 -0.3891
vn 0.5754 -0.8175 0.0251
vn 0.3892 -0.8174 0.4247
vn -0.0251 -0.8174 0.5755
vn -0.4247 -0.8174 0.3892
vn -0.7243 0.6371 0.2636
vn 0.4605 -0.8605 0.2180
vn 0.1615 -0.8614 0.4815
vn -0.2300 -0.8615 0.4527
vn -0.4450 -0.8576 0.2578
vn -0.4668 -0.8619 -0.1983
vn -0.0956 -0.8598 -0.5015
vn 0.2127 -0.8605 -0.4630
vn -0.7760 0.5639 0.2824
vn 0.5701 -0.7685 0.2906
vn 0.1747 -0.7463 0.6423
vn -0.3485 -0.7062 0.6163
vn -0.6847 -0.6849 0.2492
vn -0.6628 -0.7067 -0.2476
vn -0.2794 -0.7468 -0.6035
vn 0.2499 -0.7685 -0.5891
vn -0.7845 0.5505 0.2855
vn 0.5792 -0.7420 0.3376
vn 0.1638 -0.6504 0.7417
vn -0.4244 -0.5276 0.7359
vn -0.8317 -0.4654 0.3027
vn -0.7981 -0.5277 -0.2908
vn -0.3517 -0.6505 -0.6731
vn 0.2267 -0.7420 -0.6309
vn -0.7372 0.6201 0.2683
vn 0.4851 -0.8017 0.3491
vn 0.1102 -0.6631 0.7404
vn -0.4513 -0.4954 0.7422
vn -0.8543 -0.4164 0.3110
vn -0.8228 -0.4957 -0.2780
vn -0.3918 -0.6633 -0.6376
vn 0.1472 -0.8017 -0.5793
vt 0.539526 0.738801
vt 0.465577 0.833154
vt 0.458923 0.833568
vt 0.472657 0.741911
vt 0.446857 0.097971
vt 0.450009 0.148029
vt 0.454057 0.148029
vt 0.451633 0.097971
vt 0.452263 0.097971
vt 0.454686 0.148029
vt 0.466626 0.148029
vt 0.466350 0.097971
vt 0.467326 0.097971
vt 0.467602 0.148029
vt 0.480440 0.148029
vt 0.482474 0.097971
vt 0.483224 0.097971
vt 0.481190 0.148029
vt 0.487406 0.148029
vt 0.490558 0.097971
vt 0.490643 0.097971
vt 0.487491 0.148029
vt 0.483443 0.148029
vt 0.485867 0.097971
vt 0.470634 0.741911
vt 0.457937 0.833568
vt 0.450801 0.833154
vt 0.398953 0.738801
vt 0.471063 0.454829
vt 0.488694 0.413785
vt 0.314755 0.413785
vt 0.444781 0.454829
vt 0.454276 0.097971
vt 0.456310 0.148029
vt 0.450094 0.148029
vt 0.446942 0.097971
vt 0.652558 0.413785
vt 0.510458 0.540405
vt 0.474339 0.540631
vt 0.490785 0.413785
vt 0.618580 0.493573
vt 0.502316 0.627714
vt 0.472349 0.628423
vt 0.486797 0.493553
vt 0.586925 0.574501
vt 0.492592 0.709392
vt 0.468524 0.710446
vt 0.482487 0.575392
vt 0.567702 0.653462
vt 0.481993 0.774492
vt 0.464097 0.775518
vt 0.478939 0.655706
vt 0.441405 0.774307
vt 0.397404 0.738646
vt 0.362899 0.731079
vt 0.432150 0.771829
vt 0.708750 0.413785
vt 0.524101 0.539825
vt 0.511760 0.540385
vt 0.653907 0.413785
vt 0.665042 0.493722
vt 0.514113 0.626033
vt 0.503609 0.627638
vt 0.619915 0.493573
vt 0.624367 0.572211
vt 0.502354 0.706802
vt 0.493874 0.709250
vt 0.588247 0.574472
vt 0.599744 0.647905
vt 0.489673 0.771927
vt 0.483274 0.774307
vt 0.569011 0.653379
vt 0.564065 0.731181
vt 0.540837 0.738646
vt 0.624571 0.414037
vt 0.505441 0.539336
vt 0.524189 0.539952
vt 0.708567 0.413785
vt 0.596272 0.493457
vt 0.498406 0.624148
vt 0.513942 0.625919
vt 0.664869 0.493720
vt 0.570192 0.569303
vt 0.489667 0.704013
vt 0.502183 0.706595
vt 0.624202 0.572164
vt 0.553753 0.641856
vt 0.480162 0.769154
vt 0.489501 0.771657
vt 0.599580 0.647782
vt 0.529255 0.723249
vt 0.563900 0.730966
vt 0.448806 0.413785
vt 0.464937 0.539041
vt 0.503854 0.539311
vt 0.623024 0.414037
vt 0.452796 0.493251
vt 0.464554 0.623311
vt 0.496842 0.624065
vt 0.594740 0.493452
vt 0.456375 0.567898
vt 0.462128 0.702763
vt 0.488116 0.703864
vt 0.568675 0.569263
vt 0.456873 0.639153
vt 0.459236 0.767924
vt 0.478610 0.768962
vt 0.552239 0.641762
vt 0.455765 0.719850
vt 0.527744 0.723094
vt 0.284942 0.413785
vt 0.426807 0.539158
vt 0.462919 0.538890
vt 0.446715 0.413785
vt 0.318935 0.493262
vt 0.432609 0.623971
vt 0.462515 0.623311
vt 0.450800 0.493251
vt 0.349925 0.569137
vt 0.436109 0.703802
vt 0.460109 0.702763
vt 0.454394 0.567898
vt 0.366131 0.641687
vt 0.439371 0.768898
vt 0.457213 0.767924
vt 0.454895 0.639153
vt 0.386930 0.723016
vt 0.453792 0.719850
vt 0.228750 0.413785
vt 0.413165 0.539794
vt 0.425505 0.539182
vt 0.283593 0.413785
vt 0.272756 0.493527
vt 0.421064 0.625814
vt 0.431317 0.624052
vt 0.317598 0.493267
vt 0.312801 0.572027
vt 0.426612 0.706515
vt 0.434829 0.703948
vt 0.348602 0.569179
vt 0.334361 0.647691
vt 0.431982 0.771566
vt 0.438092 0.769085
vt 0.364822 0.641783
vt 0.362731 0.730859
vt 0.385619 0.723175
vt 0.313147 0.413785
vt 0.432014 0.540385
vt 0.413335 0.539825
vt 0.228933 0.413785
vt 0.341468 0.493573
vt 0.436690 0.627638
vt 0.421231 0.625925
vt 0.272935 0.493528
vt 0.366874 0.574472
vt 0.439207 0.709250
vt 0.426779 0.706718
vt 0.312971 0.572075
vt 0.380250 0.653379
vt 0.334529 0.647816
vt 0.472327 0.540631
vt 0.433558 0.540405
vt 0.484729 0.493553
vt 0.470354 0.628423
vt 0.438219 0.627714
vt 0.343058 0.493573
vt 0.480447 0.575392
vt 0.466543 0.710446
vt 0.440725 0.709392
vt 0.368437 0.574501
vt 0.476919 0.655706
vt 0.462120 0.775518
vt 0.442921 0.774492
vt 0.381796 0.653462
vt 0.484774 0.097676
vt 0.471140 0.097676
vt 0.469390 0.097676
vt 0.454613 0.097676
vt 0.447515 0.097676
vt 0.467521 0.097676
vt 0.447423 0.097676
vt 0.452045 0.097676
vt 0.467429 0.097676
vt 0.452726 0.097676
vt 0.466360 0.097676
vt 0.468110 0.097676
vt 0.467416 0.097676
vt 0.482075 0.097676
vt 0.469167 0.097676
vt 0.482887 0.097676
vt 0.489985 0.097676
vt 0.469979 0.097676
vt 0.490077 0.097676
vt 0.485455 0.097676
vt 0.470071 0.097676
vt 0.470174 0.097971
vt 0.469898 0.148029
vt 0.457060 0.148029
vt 0.455026 0.097971
vt 0.497599 0.454829
vt 0.473155 0.454829
vt 0.443172 0.454829
vt 0.430447 0.454829
vt 0.430264 0.454829
vt 0.438551 0.454829
vt 0.439901 0.454829
vt 0.464345 0.454829
vt 0.466437 0.454829
vt 0.492720 0.454829
vt 0.494328 0.454829
vt 0.507053 0.454829
vt 0.507236 0.454829
vt 0.498949 0.454829
vt 0.485238 0.097971
vt 0.482814 0.148029
vt 0.470874 0.148029
vt 0.471150 0.097971
vt 0.450044 0.833053
vt 0.446606 0.832056
vt 0.446522 0.831913
vt 0.448796 0.830915
vt 0.449434 0.830814
vt 0.456087 0.830401
vt 0.457074 0.830401
vt 0.464210 0.830814
vt 0.464967 0.830915
vt 0.468405 0.831913
vt 0.468488 0.832056
vt 0.466215 0.833053
vt 0.450784 0.833311
vt 0.458370 0.833750
vt 0.465444 0.833311
vt 0.467861 0.832250
vt 0.464205 0.831189
vt 0.456618 0.830750
vt 0.449545 0.831189
vt 0.447128 0.832250
vt 0.470084 0.097676
vt 0.455425 0.097676
vt 0.443870 0.454456
vt 0.445370 0.454456
vt 0.431268 0.454456
vt 0.431438 0.454456
vt 0.440623 0.454456
vt 0.439363 0.454456
vt 0.466454 0.454456
vt 0.464502 0.454456
vt 0.493630 0.454456
vt 0.492130 0.454456
vt 0.506232 0.454456
vt 0.506061 0.454456
vt 0.496877 0.454456
vt 0.498137 0.454456
vt 0.471046 0.454456
vt 0.472998 0.454456
vt 0.468334 0.097676
s 0
usemtl Arvore
f 127/1/1 56/2/1 7/3/1 66/4/1
f 17/5/2 141/6/2 146/7/2 23/8/2
f 24/9/3 145/10/3 150/11/3 30/12/3
f 31/13/4 149/14/4 154/15/4 37/16/4
f 38/17/5 153/18/5 158/19/5 44/20/5
f 45/21/6 157/22/6 162/23/6 51/24/6
f 65/25/7 6/26/7 12/27/7 68/28/7
f 166/29/8 57/30/8 76/31/8 139/32/8
f 10/33/9 137/34/9 142/35/9 16/36/9
f 135/37/10 183/38/10 170/39/10 58/40/10
f 133/41/11 199/42/11 186/43/11 60/44/11
f 131/45/12 215/46/12 202/47/12 62/48/12
f 129/49/13 231/50/13 218/51/13 64/52/13
f 219/53/14 67/54/14 78/55/14 222/56/14
f 125/57/15 181/58/15 184/59/15 136/60/15
f 124/61/16 198/62/16 200/63/16 134/64/16
f 122/65/17 214/66/17 216/67/17 132/68/17
f 120/69/18 230/70/18 232/71/18 130/72/18
f 230/70/19 118/73/19 128/74/19 232/71/19
f 116/75/20 180/76/20 182/77/20 126/78/20
f 114/79/21 196/80/21 197/81/21 123/82/21
f 112/83/22 212/84/22 213/85/22 121/86/22
f 110/87/23 228/88/23 229/89/23 119/90/23
f 228/88/24 108/91/24 117/92/24 229/89/24
f 105/93/25 178/94/25 179/95/25 115/96/25
f 104/97/26 194/98/26 195/99/26 113/100/26
f 102/101/27 210/102/27 211/103/27 111/104/27
f 100/105/28 226/106/28 227/107/28 109/108/28
f 226/106/29 98/109/29 107/110/29 227/107/29
f 95/111/30 175/112/30 177/113/30 106/114/30
f 93/115/31 191/116/31 193/117/31 103/118/31
f 91/119/32 207/120/32 209/121/32 101/122/32
f 89/123/33 223/124/33 225/125/33 99/126/33
f 223/124/34 87/127/34 97/128/34 225/125/34
f 85/129/35 173/130/35 176/131/35 96/132/35
f 83/133/36 189/134/36 192/135/36 94/136/36
f 81/137/37 205/138/37 208/139/37 92/140/37
f 79/141/38 221/142/38 224/143/38 90/144/38
f 221/142/39 77/145/39 88/146/39 224/143/39
f 75/147/40 171/148/40 174/149/40 86/150/40
f 73/151/41 187/152/41 190/153/41 84/154/41
f 71/155/42 203/156/42 206/157/42 82/158/42
f 69/159/43 219/53/43 222/56/43 80/160/43
f 57/30/44 169/161/44 172/162/44 76/31/44
f 59/163/45 185/164/45 188/165/45 74/166/45
f 61/167/46 201/168/46 204/169/46 72/170/46
f 63/171/47 217/172/47 220/173/47 70/174/47
f 231/50/48 127/1/48 66/4/48 218/51/48
f 53/175/49 2/176/49 233/177/49
f 11/178/49 15/179/49 235/180/49
f 18/181/49 22/182/49 236/183/49
f 25/184/49 29/185/49 237/186/49
f 32/187/49 36/188/49 238/189/49
f 39/190/49 43/191/49 239/192/49
f 46/193/49 50/194/49 240/195/49
f 4/196/50 167/197/50 138/198/50 9/199/50
f 164/200/51 135/37/51 58/40/51 165/201/51
f 140/202/52 75/147/52 86/150/52 143/203/52
f 144/204/53 85/129/53 96/132/53 147/205/53
f 148/206/54 95/111/54 106/114/54 151/207/54
f 152/208/55 105/93/55 115/96/55 155/209/55
f 156/210/56 116/75/56 126/78/56 159/211/56
f 160/212/57 125/57/57 136/60/57 163/213/57
f 169/161/58 59/163/58 74/166/58 172/162/58
f 183/38/59 133/41/59 60/44/59 170/39/59
f 171/148/60 73/151/60 84/154/60 174/149/60
f 173/130/61 83/133/61 94/136/61 176/131/61
f 175/112/62 93/115/62 103/118/62 177/113/62
f 178/94/63 104/97/63 113/100/63 179/95/63
f 180/76/64 114/79/64 123/82/64 182/77/64
f 181/58/65 124/61/65 134/64/65 184/59/65
f 185/164/66 61/167/66 72/170/66 188/165/66
f 199/42/67 131/45/67 62/48/67 186/43/67
f 187/152/68 71/155/68 82/158/68 190/153/68
f 189/134/69 81/137/69 92/140/69 192/135/69
f 191/116/70 91/119/70 101/122/70 193/117/70
f 194/98/71 102/101/71 111/104/71 195/99/71
f 196/80/72 112/83/72 121/86/72 197/81/72
f 198/62/73 122/65/73 132/68/73 200/63/73
f 201/168/74 63/171/74 70/174/74 204/169/74
f 215/46/75 129/49/75 64/52/75 202/47/75
f 203/156/76 69/159/76 80/160/76 206/157/76
f 205/138/77 79/141/77 90/144/77 208/139/77
f 207/120/78 89/123/78 99/126/78 209/121/78
f 210/102/79 100/105/79 109/108/79 211/103/79
f 212/84/80 110/87/80 119/90/80 213/85/80
f 214/66/81 120/69/81 130/72/81 216/67/81
f 217/172/82 65/25/82 68/28/82 220/173/82
f 52/214/83 161/215/83 168/216/83 3/217/83
f 67/54/84 14/218/84 19/219/84 78/55/84
f 77/145/85 21/220/85 26/221/85 88/146/85
f 87/127/86 28/222/86 33/223/86 97/128/86
f 98/109/87 35/224/87 40/225/87 107/110/87
f 108/91/88 42/226/88 47/227/88 117/92/88
f 118/73/89 49/228/89 54/229/89 128/74/89
f 13/230/90 5/231/90 55/232/90 48/233/90 41/234/90 34/235/90 27/236/90 20/237/90
f 1/238/91 2/176/91 3/217/91 4/196/91
f 5/231/92 6/26/92 7/3/92
f 8/239/93 9/199/93 10/33/93 11/178/93
f 12/27/94 13/230/94 14/218/94
f 15/179/95 16/36/95 17/5/95 18/181/95
f 19/219/96 20/237/96 21/220/96
f 22/182/97 23/8/97 24/9/97 25/184/97
f 26/221/98 27/236/98 28/222/98
f 29/185/99 30/12/99 31/13/99 32/187/99
f 33/223/100 34/235/100 35/224/100
f 36/188/101 37/16/101 38/17/101 39/190/101
f 40/225/102 41/234/102 42/226/102
f 43/191/103 44/20/103 45/21/103 46/193/103
f 47/227/104 48/233/104 49/228/104
f 50/194/105 51/24/105 52/214/105 53/175/105
f 54/229/106 55/232/106 56/2/106
f 137/240/107 138/241/107 139/32/107 140/202/107
f 141/242/108 142/243/108 143/203/108 144/204/108
f 145/244/109 146/245/109 147/205/109 148/206/109
f 149/246/110 150/247/110 151/207/110 152/208/110
f 153/248/111 154/249/111 155/209/111 156/210/111
f 157/250/112 158/251/112 159/211/112 160/212/112
f 161/252/113 162/253/113 163/213/113 164/200/113
f 165/201/114 166/29/114 167/254/114 168/255/114
f 233/177/49 234/256/49 235/180/49 236/183/49 237/186/49 238/189/49 239/192/49 240/195/49
f 4/196/115 9/199/115 8/239/115 1/238/115
f 12/27/116 6/26/116 5/231/116 13/230/116
f 66/4/117 7/3/117 6/26/117 65/25/117
f 137/34/118 10/33/118 9/199/118 138/198/118
f 10/33/119 16/36/119 15/179/119 11/178/119
f 19/219/120 14/218/120 13/230/120 20/237/120
f 141/6/121 17/5/121 16/36/121 142/35/121
f 17/5/122 23/8/122 22/182/122 18/181/122
f 26/221/123 21/220/123 20/237/123 27/236/123
f 145/10/124 24/9/124 23/8/124 146/7/124
f 24/9/125 30/12/125 29/185/125 25/184/125
f 33/223/126 28/222/126 27/236/126 34/235/126
f 149/14/127 31/13/127 30/12/127 150/11/127
f 31/13/128 37/16/128 36/188/128 32/187/128
f 40/225/129 35/224/129 34/235/129 41/234/129
f 153/18/130 38/17/130 37/16/130 154/15/130
f 38/17/131 44/20/131 43/191/131 39/190/131
f 47/227/132 42/226/132 41/234/132 48/233/132
f 157/22/133 45/21/133 44/20/133 158/19/133
f 45/21/134 51/24/134 50/194/134 46/193/134
f 54/229/135 49/228/135 48/233/135 55/232/135
f 161/215/136 52/214/136 51/24/136 162/23/136
f 52/214/137 3/217/137 2/176/137 53/175/137
f 7/3/138 56/2/138 55/232/138 5/231/138
f 165/201/139 58/40/139 57/30/139 166/29/139
f 170/39/140 60/44/140 59/163/140 169/161/140
f 186/43/141 62/48/141 61/167/141 185/164/141
f 202/47/142 64/52/142 63/171/142 201/168/142
f 218/51/143 66/4/143 65/25/143 217/172/143
f 14/218/144 67/54/144 68/28/144 12/27/144
f 219/53/145 69/159/145 70/174/145 220/173/145
f 203/156/146 71/155/146 72/170/146 204/169/146
f 187/152/147 73/151/147 74/166/147 188/165/147
f 171/148/148 75/147/148 76/31/148 172/162/148
f 21/220/149 77/145/149 78/55/149 19/219/149
f 221/142/150 79/141/150 80/160/150 222/56/150
f 205/138/151 81/137/151 82/158/151 206/157/151
f 189/134/152 83/133/152 84/154/152 190/153/152
f 173/130/153 85/129/153 86/150/153 174/149/153
f 28/222/154 87/127/154 88/146/154 26/221/154
f 223/124/155 89/123/155 90/144/155 224/143/155
f 207/120/156 91/119/156 92/140/156 208/139/156
f 191/116/157 93/115/157 94/136/157 192/135/157
f 175/112/158 95/111/158 96/132/158 176/131/158
f 35/224/159 98/109/159 97/128/159 33/223/159
f 226/106/160 100/105/160 99/126/160 225/125/160
f 210/102/161 102/101/161 101/122/161 209/121/161
f 194/98/162 104/97/162 103/118/162 193/117/162
f 178/94/163 105/93/163 106/114/163 177/113/163
f 42/226/164 108/91/164 107/110/164 40/225/164
f 228/88/165 110/87/165 109/108/165 227/107/165
f 212/84/166 112/83/166 111/104/166 211/103/166
f 196/80/167 114/79/167 113/100/167 195/99/167
f 180/76/168 116/75/168 115/96/168 179/95/168
f 49/228/169 118/73/169 117/92/169 47/227/169
f 230/70/170 120/69/170 119/90/170 229/89/170
f 214/66/171 122/65/171 121/86/171 213/85/171
f 198/62/172 124/61/172 123/82/172 197/81/172
f 181/58/173 125/57/173 126/78/173 182/77/173
f 56/2/174 127/1/174 128/74/174 54/229/174
f 231/50/175 129/49/175 130/72/175 232/71/175
f 215/46/176 131/45/176 132/68/176 216/67/176
f 199/42/177 133/41/177 134/64/177 200/63/177
f 183/38/178 135/37/178 136/60/178 184/59/178
f 75/147/179 140/202/179 139/32/179 76/31/179
f 85/129/180 144/204/180 143/203/180 86/150/180
f 95/111/181 148/206/181 147/205/181 96/132/181
f 105/93/182 152/208/182 151/207/182 106/114/182
f 116/75/183 156/210/183 155/209/183 115/96/183
f 125/57/184 160/212/184 159/211/184 126/78/184
f 135/37/185 164/200/185 163/213/185 136/60/185
f 3/217/186 168/216/186 167/197/186 4/196/186
f 166/29/187 139/32/187 138/241/187 167/254/187
f 140/202/188 143/203/188 142/243/188 137/240/188
f 144/204/189 147/205/189 146/245/189 141/242/189
f 148/206/190 151/207/190 150/247/190 145/244/190
f 152/208/191 155/209/191 154/249/191 149/246/191
f 156/210/192 159/211/192 158/251/192 153/248/192
f 160/212/193 163/213/193 162/253/193 157/250/193
f 164/200/194 165/201/194 168/255/194 161/252/194
f 58/40/195 170/39/195 169/161/195 57/30/195
f 73/151/196 171/148/196 172/162/196 74/166/196
f 83/133/197 173/130/197 174/149/197 84/154/197
f 93/115/198 175/112/198 176/131/198 94/136/198
f 104/97/199 178/94/199 177/113/199 103/118/199
f 114/79/200 180/76/200 179/95/200 113/100/200
f 124/61/201 181/58/201 182/77/201 123/82/201
f 133/41/202 183/38/202 184/59/202 134/64/202
f 60/44/203 186/43/203 185/164/203 59/163/203
f 71/155/204 187/152/204 188/165/204 72/170/204
f 81/137/205 189/134/205 190/153/205 82/158/205
f 91/119/206 191/116/206 192/135/206 92/140/206
f 102/101/207 194/98/207 193/117/207 101/122/207
f 112/83/208 196/80/208 195/99/208 111/104/208
f 122/65/209 198/62/209 197/81/209 121/86/209
f 131/45/210 199/42/210 200/63/210 132/68/210
f 62/48/211 202/47/211 201/168/211 61/167/211
f 69/159/212 203/156/212 204/169/212 70/174/212
f 79/141/213 205/138/213 206/157/213 80/160/213
f 89/123/214 207/120/214 208/139/214 90/144/214
f 100/105/215 210/102/215 209/121/215 99/126/215
f 110/87/216 212/84/216 211/103/216 109/108/216
f 120/69/217 214/66/217 213/85/217 119/90/217
f 129/49/218 215/46/218 216/67/218 130/72/218
f 64/52/219 218/51/219 217/172/219 63/171/219
f 67/54/220 219/53/220 220/173/220 68/28/220
f 77/145/221 221/142/221 222/56/221 78/55/221
f 87/127/222 223/124/222 224/143/222 88/146/222
f 98/109/223 226/106/223 225/125/223 97/128/223
f 108/91/224 228/88/224 227/107/224 107/110/224
f 118/73/225 230/70/225 229/89/225 117/92/225
f 127/1/226 231/50/226 232/71/226 128/74/226
f 233/177/49 2/176/49 1/238/49 234/256/49
f 11/178/49 235/180/49 234/256/49 8/239/49
f 18/181/49 236/183/49 235/180/49 15/179/49
f 25/184/49 237/186/49 236/183/49 22/182/49
f 32/187/49 238/189/49 237/186/49 29/185/49
f 39/190/49 239/192/49 238/189/49 36/188/49
f 46/193/49 240/195/49 239/192/49 43/191/49
f 53/175/49 233/177/49 240/195/49 50/194/49
f 1/238/49 8/239/49 234/256/49
