# Blender 5.1.1
# www.blender.org
mtllib Tree1.mtl
o Roxa.001
v -0.016536 -1.295019 -0.264400
v -0.029629 -1.295019 -0.263254
v -0.029748 -1.288451 -0.270359
v -0.017651 -1.288451 -0.271418
v -0.874096 4.032771 0.339020
v -0.872046 4.031665 0.336581
v -0.875598 4.030715 0.336809
v 0.165198 -1.295019 -0.207099
v 0.170138 -1.288451 -0.212208
v 0.179440 -1.288451 -0.204402
v 0.175266 -1.295019 -0.198651
v -0.846301 4.037373 0.345574
v -0.846724 4.038839 0.348581
v -0.843563 4.037817 0.347998
v 0.263254 -1.295019 -0.029628
v 0.270359 -1.288451 -0.029748
v 0.271418 -1.288451 -0.017651
v 0.264399 -1.295019 -0.016535
v -0.831048 4.038323 0.372885
v -0.833417 4.039376 0.375040
v -0.830728 4.038002 0.376540
v 0.207099 -1.295019 0.165198
v 0.212208 -1.288451 0.170138
v 0.204402 -1.288451 0.179440
v 0.198651 -1.295019 0.175267
v -0.838774 4.033010 0.402743
v -0.841972 4.034069 0.402899
v -0.841059 4.032111 0.405489
v 0.029628 -1.295019 0.263254
v 0.029748 -1.288451 0.270359
v 0.017651 -1.288451 0.271418
v 0.016535 -1.295019 0.264400
v -0.864953 4.024545 0.417658
v -0.867375 4.026025 0.415838
v -0.868504 4.023595 0.417885
v -0.165199 -1.295019 0.207099
v -0.170138 -1.288451 0.212208
v -0.179440 -1.288451 0.204402
v -0.175267 -1.295019 0.198651
v -0.894249 4.017888 0.408893
v -0.894747 4.019956 0.406277
v -0.896987 4.017443 0.406469
v -0.263254 -1.295019 0.029628
v -0.270360 -1.288451 0.029748
v -0.271418 -1.288451 0.017651
v -0.264400 -1.295019 0.016535
v -0.909502 4.016938 0.381582
v -0.908053 4.019419 0.379817
v -0.909822 4.017258 0.377926
v -0.207099 -1.295019 -0.165198
v -0.212208 -1.288451 -0.170138
v -0.204403 -1.288451 -0.179440
v -0.198651 -1.295019 -0.175266
v -0.901776 4.022251 0.351724
v -0.899499 4.024726 0.351959
v -0.899491 4.023149 0.348978
v -0.123625 -0.626896 -1.487687
v -0.136588 -0.626896 -1.486553
v -0.105003 0.260774 -1.213170
v -0.117680 0.260799 -1.212037
v -0.119747 1.166045 -0.947768
v -0.131834 1.165742 -0.946665
v -0.235276 2.046505 -0.747737
v -0.247288 2.045277 -0.746614
v -0.504046 2.975548 -0.421786
v -0.516166 2.973104 -0.420774
v -0.062595 3.047537 -0.270907
v -0.071958 3.046457 -0.279017
v 0.340989 2.089508 -0.555771
v 0.331748 2.089104 -0.563781
v 0.556014 1.173931 -0.721467
v 0.546674 1.173940 -0.729588
v 0.778443 0.259580 -0.928580
v 0.768585 0.259580 -0.936851
v 0.964538 -0.626896 -1.139369
v 0.954570 -0.626896 -1.147734
v 0.148670 3.052017 0.155121
v 0.147577 3.052839 0.142625
v 0.618987 2.089270 0.002764
v 0.617898 2.089681 -0.009691
v 0.883370 1.170471 -0.064971
v 0.882269 1.170580 -0.077555
v 1.204771 0.259580 -0.098945
v 1.203650 0.259580 -0.111764
v 1.487687 -0.626896 -0.123624
v 1.486553 -0.626896 -0.136588
v 0.005565 2.987579 0.607081
v 0.013383 2.989863 0.597525
v 0.433661 2.048849 0.601090
v 0.441361 2.049927 0.591491
v 0.666219 1.160203 0.636811
v 0.674002 1.160431 0.627150
v 0.919590 0.259578 0.789144
v 0.927862 0.259579 0.779290
v 1.139369 -0.626896 0.964538
v 1.147734 -0.626896 0.954570
v -0.395750 2.892171 0.820997
v -0.407574 2.889725 0.821978
v -0.092395 1.985019 0.888773
v -0.104158 1.983681 0.889865
v 0.048043 1.141598 0.973300
v 0.036302 1.141172 0.974351
v 0.107164 0.262134 1.214853
v 0.094929 0.262135 1.215899
v 0.123624 -0.626896 1.487687
v 0.136588 -0.626896 1.486553
v -0.840744 2.813995 0.677967
v -0.849842 2.812799 0.670034
v -0.671487 1.926613 0.704532
v -0.680553 1.925894 0.696677
v -0.629656 1.116733 0.754656
v -0.638689 1.116441 0.746768
v -0.771657 0.260608 0.936196
v -0.780985 0.260577 0.928211
v -0.956297 -0.624089 1.149410
v -0.965889 -0.624089 1.141361
v -1.060221 2.805661 0.254285
v -1.061287 2.806517 0.242100
v -0.957348 1.920403 0.148651
v -0.958414 1.920935 0.136460
v -0.964218 1.114093 0.101631
v -0.965286 1.114329 0.089429
v -1.199700 0.260248 0.110748
v -1.200779 0.260276 0.098421
v -1.487688 -0.626896 0.123624
v -1.486554 -0.626896 0.136588
v -0.916515 2.874941 -0.209595
v -0.924296 2.872518 -0.200061
v -0.772003 1.974759 -0.461305
v -0.779721 1.973359 -0.451721
v -0.747444 1.139265 -0.611954
v -0.755189 1.138730 -0.602295
v -0.920621 0.261140 -0.787321
v -0.928705 0.261112 -0.777491
v -1.139370 -0.626896 -0.964538
v -1.147735 -0.626896 -0.954569
v 0.154226 -0.174269 -0.174354
v 0.144924 -0.174269 -0.182159
v 0.148580 -0.170112 -0.187193
v 0.158548 -0.170112 -0.178828
v 0.232341 -0.174269 -0.014232
v 0.231283 -0.174269 -0.026330
v 0.237427 -0.170112 -0.027303
v 0.238561 -0.170112 -0.014340
v 0.174353 -0.174269 0.154226
v 0.182159 -0.174269 0.144924
v 0.187193 -0.170112 0.148580
v 0.178828 -0.170112 0.158548
v 0.014232 -0.174269 0.232341
v 0.026329 -0.174269 0.231283
v 0.027303 -0.170112 0.237427
v 0.014340 -0.170112 0.238561
v -0.154226 -0.174269 0.174354
v -0.144924 -0.174269 0.182159
v -0.148580 -0.170112 0.187193
v -0.158548 -0.170112 0.178828
v -0.232341 -0.174269 0.014232
v -0.231283 -0.174269 0.026330
v -0.237427 -0.170112 0.027303
v -0.238561 -0.170112 0.014340
v -0.174354 -0.174269 -0.154226
v -0.182160 -0.174269 -0.144924
v -0.187193 -0.170112 -0.148580
v -0.178828 -0.170112 -0.158548
v -0.027304 -0.170112 -0.237427
v -0.014340 -0.170112 -0.238561
v -0.014232 -0.174269 -0.232341
v -0.026330 -0.174269 -0.231283
v -0.044678 0.791370 -0.338571
v -0.056645 0.791202 -0.337510
v 0.196293 0.793434 -0.254503
v 0.187027 0.793405 -0.262529
v 0.310239 0.792683 -0.019022
v 0.309151 0.792767 -0.031457
v 0.230131 0.789879 0.230150
v 0.237859 0.790050 0.220600
v 0.015206 0.785769 0.345912
v 0.003132 0.787341 0.348623
v -0.229036 0.783658 0.271955
v -0.238552 0.783541 0.263682
v -0.351011 0.782023 0.026865
v -0.351543 0.783636 0.039636
v -0.271178 0.786507 -0.221927
v -0.278901 0.786253 -0.212401
v -0.146689 1.781135 -0.234603
v -0.158523 1.780043 -0.233552
v 0.053729 1.795533 -0.164256
v 0.044568 1.795077 -0.172176
v 0.148124 1.795602 0.032820
v 0.147045 1.795998 0.020490
v 0.080709 1.781587 0.240923
v 0.088346 1.782633 0.231420
v -0.096607 1.762943 0.338999
v -0.108701 1.761777 0.340104
v -0.301093 1.745997 0.277559
v -0.310488 1.745420 0.269413
v -0.404751 1.744220 0.083237
v -0.405854 1.744671 0.070632
v -0.336245 1.759498 -0.137507
v -0.343912 1.758346 -0.128053
v -0.387384 2.681811 -0.070136
v -0.399304 2.679565 -0.069156
v -0.222928 2.706709 -0.010983
v -0.232133 2.705674 -0.018902
v -0.146046 2.707953 0.150224
v -0.147116 2.708711 0.137995
v -0.202581 2.684633 0.318877
v -0.194891 2.686758 0.309478
v -0.346721 2.653373 0.396944
v -0.358873 2.651066 0.397942
v -0.515810 2.626158 0.346340
v -0.525238 2.625052 0.338221
v -0.602574 2.622647 0.188039
v -0.603667 2.623443 0.175545
v -0.544215 2.646986 0.006932
v -0.551950 2.644813 0.016258
v -0.654610 3.385093 0.104168
v -0.666489 3.382165 0.105022
v -0.529577 3.410153 0.151931
v -0.538735 3.408787 0.143898
v -0.472215 3.411272 0.275514
v -0.473283 3.412262 0.263299
v -0.516105 3.387808 0.402558
v -0.508458 3.390578 0.393319
v -0.623768 3.357302 0.459719
v -0.635921 3.354299 0.460592
v -0.752848 3.330338 0.420483
v -0.762214 3.328928 0.412263
v -0.819036 3.326787 0.299849
v -0.820129 3.327803 0.287353
v -0.774066 3.350734 0.160198
v -0.781710 3.347955 0.169435
v -0.007929 -1.295019 -0.015232
v 0.005164 -1.295019 -0.016377
v 0.015232 -1.295019 -0.007929
v 0.016377 -1.295019 0.005164
v 0.007929 -1.295019 0.015232
v -0.005164 -1.295019 0.016377
v -0.015232 -1.295019 0.007929
v -0.016378 -1.295019 -0.005164
vn -0.5033 0.3838 -0.7742
vn 0.9532 0.0325 0.3005
vn 0.4615 0.0325 0.8865
vn -0.3005 0.0325 0.9532
vn -0.8865 0.0325 0.4615
vn -0.9532 0.0325 -0.3005
vn 0.1551 0.6110 -0.7763
vn -0.1103 -0.9303 0.3498
vn 0.8865 0.0325 -0.4615
vn -0.3735 0.5985 -0.7087
vn -0.4170 0.4886 -0.7664
vn -0.4615 0.3858 -0.7989
vn -0.4868 0.3572 -0.7971
vn -0.4504 -0.8598 0.2408
vn -0.7654 0.5982 -0.2375
vn -0.8547 0.4496 -0.2596
vn -0.9317 0.2385 -0.2738
vn -0.9519 0.1243 -0.2799
vn 0.8799 -0.4262 0.2100
vn -0.7130 0.5979 0.3663
vn -0.8015 0.4362 0.4090
vn -0.8771 0.1854 0.4432
vn -0.8921 0.0393 0.4502
vn 0.8380 -0.3511 -0.4178
vn -0.2420 0.5980 0.7641
vn -0.2801 0.4586 0.8434
vn -0.3161 0.2674 0.9102
vn -0.3263 0.1671 0.9304
vn 0.3557 -0.4617 -0.8126
vn 0.3685 0.6031 0.7075
vn 0.3988 0.4998 0.7689
vn 0.4145 0.4116 0.8117
vn 0.3899 0.4045 0.8272
vn -0.2194 -0.6599 -0.7186
vn 0.7564 0.6094 0.2379
vn 0.8050 0.5341 0.2581
vn 0.8154 0.5141 0.2662
vn 0.7655 0.5789 0.2809
vn -0.5177 -0.8091 -0.2782
vn 0.7042 0.6094 -0.3644
vn 0.7448 0.5444 -0.3858
vn 0.7442 0.5518 -0.3764
vn 0.6856 0.6385 -0.3497
vn 0.2405 0.6033 -0.7604
vn 0.2520 0.5264 -0.8120
vn 0.2494 0.5135 -0.8210
vn 0.2060 0.5676 -0.7971
vn 0.4824 -0.6210 0.6178
vn -0.0000 -1.0000 -0.0000
vn 0.3005 0.0325 -0.9532
vn 0.1694 -0.9303 0.3254
vn -0.3254 -0.9303 0.1694
vn -0.3498 -0.9303 -0.1103
vn -0.1694 -0.9303 -0.3254
vn 0.1074 -0.9308 -0.3494
vn 0.3255 -0.9308 -0.1665
vn 0.3498 -0.9303 0.1103
vn -0.1652 -0.8379 0.5202
vn 0.2606 -0.8354 0.4840
vn -0.4808 -0.8409 0.2483
vn -0.5154 -0.8413 -0.1630
vn -0.2524 -0.8394 -0.4814
vn 0.1730 -0.8358 -0.5211
vn 0.4934 -0.8326 -0.2517
vn 0.5293 -0.8333 0.1596
vn -0.1913 -0.7421 0.6424
vn 0.3719 -0.7011 0.6084
vn -0.5945 -0.7467 0.2984
vn -0.6448 -0.7339 -0.2138
vn -0.3126 -0.7083 -0.6329
vn 0.2618 -0.6625 -0.7018
vn 0.6958 -0.6279 -0.3487
vn 0.7380 -0.6452 0.1979
vn -0.1486 -0.7331 0.6637
vn 0.4486 -0.6038 0.6589
vn -0.5665 -0.7714 0.2899
vn -0.6325 -0.7328 -0.2508
vn -0.3011 -0.6303 -0.7156
vn 0.3211 -0.4833 -0.8145
vn 0.8219 -0.3930 -0.4124
vn 0.8654 -0.4490 0.2224
vn -0.0642 -0.7942 0.6043
vn -0.4615 0.0325 -0.8865
vn 0.6303 0.7030 -0.3295
vn 0.7083 0.6353 0.3077
vn 0.3379 0.4360 0.8341
vn -0.3407 0.1902 0.9207
vn -0.8910 0.0636 0.4496
vn -0.9507 0.1492 -0.2718
vn -0.2505 0.9623 0.1064
vn -0.0592 -0.7335 -0.6771
vn -0.2467 0.7877 -0.5645
vn 0.4369 -0.7335 -0.5206
vn 0.2130 0.8897 -0.4039
vn 0.6771 -0.7335 -0.0592
vn 0.4365 0.8988 0.0407
vn 0.5206 -0.7335 0.4369
vn 0.2930 0.8095 0.5088
vn 0.0592 -0.7335 0.6771
vn -0.1338 0.6743 0.7262
vn -0.4369 -0.7335 0.5206
vn -0.5937 0.5724 0.5656
vn -0.6771 -0.7335 0.0592
vn -0.8173 0.5634 0.1210
vn -0.5206 -0.7335 -0.4369
vn -0.6735 0.6526 -0.3471
vn 0.3578 -0.8308 -0.4264
vn 0.5544 -0.8308 -0.0485
vn 0.4264 -0.8308 0.3578
vn 0.0485 -0.8308 0.5544
vn -0.3578 -0.8308 0.4264
vn -0.5544 -0.8308 0.0485
vn -0.4264 -0.8308 -0.3578
vn -0.0485 -0.8308 -0.5545
vn 0.2161 -0.6955 -0.6852
vn -0.0439 0.8955 -0.4428
vn -0.1805 0.5314 -0.8276
vn 0.6424 0.0352 -0.7656
vn 0.6373 -0.6955 -0.3318
vn 0.2773 0.9476 -0.1586
vn 0.9956 0.0352 -0.0871
vn 0.6852 -0.6955 0.2161
vn 0.3146 0.9100 0.2700
vn 0.7656 0.0352 0.6424
vn 0.3318 -0.6955 0.6373
vn 0.0467 0.8046 0.5919
vn 0.0871 0.0352 0.9956
vn -0.2161 -0.6955 0.6852
vn -0.3697 0.6933 0.6186
vn -0.6424 0.0352 0.7656
vn -0.6373 -0.6955 0.3318
vn -0.6907 0.6412 0.3343
vn -0.9956 0.0352 0.0871
vn -0.6852 -0.6955 -0.2161
vn -0.7283 0.6788 -0.0942
vn -0.7656 0.0352 -0.6424
vn -0.3318 -0.6955 -0.6373
vn -0.4602 0.7842 -0.4162
vn 0.0298 -0.9396 0.3410
vn 0.0508 -0.8555 0.5154
vn 0.1025 -0.7516 0.6517
vn 0.1628 -0.7015 0.6938
vn 0.2152 -0.7399 0.6374
vn 0.4199 0.6956 -0.5830
vn 0.4707 0.6374 -0.6101
vn 0.5228 0.5627 -0.6404
vn 0.5271 0.5647 -0.6350
vn 0.4998 0.6364 -0.5876
vn 0.7081 0.7060 -0.0120
vn 0.7678 0.6400 -0.0308
vn 0.8264 0.5606 -0.0527
vn 0.8198 0.5692 -0.0627
vn 0.7657 0.6399 -0.0649
vn 0.5575 0.5685 0.6049
vn 0.6074 0.5196 0.6009
vn 0.6462 0.4900 0.5851
vn 0.6324 0.5463 0.5493
vn 0.5925 0.6363 0.4940
vn -0.0000 0.3356 0.9420
vn 0.0225 0.3065 0.9516
vn 0.0380 0.3649 0.9303
vn 0.0516 0.5087 0.8594
vn 0.1565 0.6281 0.7622
vn -0.6630 0.1351 0.7363
vn -0.6605 0.1120 0.7425
vn -0.6458 0.2444 0.7234
vn -0.5826 0.4766 0.6583
vn -0.5070 0.6292 0.5891
vn -0.9890 0.1131 0.0949
vn -0.9919 0.0876 0.0923
vn -0.9693 0.2269 0.0943
vn -0.8776 0.4716 0.0859
vn -0.7792 0.6264 -0.0211
vn -0.7777 0.2843 -0.5607
vn -0.7756 0.2589 -0.5756
vn -0.7532 0.3342 -0.5665
vn -0.6864 0.4978 -0.5302
vn -0.6039 0.6286 -0.4902
vn -0.2200 -0.9396 0.2622
vn -0.3410 -0.9396 0.0298
vn -0.2622 -0.9396 -0.2200
vn -0.0298 -0.9396 -0.3410
vn 0.2185 -0.9405 -0.2603
vn 0.3410 -0.9396 -0.0298
vn 0.2622 -0.9396 0.2200
vn -0.0871 0.0352 -0.9956
vn 0.1732 -0.8174 -0.5494
vn 0.5109 -0.8174 -0.2660
vn 0.5494 -0.8174 0.1732
vn 0.2660 -0.8174 0.5109
vn -0.1732 -0.8174 0.5494
vn -0.5109 -0.8174 0.2660
vn -0.5494 -0.8174 -0.1732
vn -0.2660 -0.8174 -0.5109
vn -0.0723 0.6303 -0.7729
vn -0.3327 -0.8577 0.3920
vn -0.5088 -0.8599 0.0417
vn -0.3920 -0.8584 -0.3309
vn -0.1329 -0.8545 -0.5021
vn 0.3441 -0.8536 -0.3910
vn 0.5263 -0.8493 0.0422
vn 0.4097 -0.8534 0.3222
vn -0.0980 0.5369 -0.8380
vn -0.4074 -0.7699 0.4913
vn -0.6441 -0.7638 0.0409
vn -0.4924 -0.7475 -0.4459
vn -0.0153 -0.7162 -0.6977
vn 0.5031 -0.6735 -0.5416
vn 0.7440 -0.6629 -0.0834
vn 0.5843 -0.7008 0.4093
vn -0.1263 0.4805 -0.8679
vn -0.3715 -0.7818 0.5008
vn -0.6267 -0.7790 0.0179
vn -0.4836 -0.7103 -0.5115
vn 0.0190 -0.5882 -0.8085
vn 0.6044 -0.4656 -0.6465
vn 0.8902 -0.4440 -0.1018
vn 0.6922 -0.5556 0.4606
vn -0.1568 0.4950 -0.8546
vn -0.2688 -0.8577 0.4384
vn -0.5036 -0.8637 -0.0193
vn -0.3825 -0.7637 -0.5200
vn 0.0718 -0.5899 -0.8043
vn 0.6280 -0.4304 -0.6484
vn 0.9056 -0.4094 -0.1103
vn 0.7133 -0.5507 0.4335
vt 0.451300 0.777198
vt 0.448043 0.895102
vt 0.450596 0.895879
vt 0.494144 0.787278
vt 0.622433 0.122425
vt 0.620016 0.191071
vt 0.616081 0.191071
vt 0.617790 0.122425
vt 0.617261 0.122425
vt 0.615552 0.191071
vt 0.606053 0.191071
vt 0.606053 0.122425
vt 0.605305 0.122425
vt 0.605305 0.191071
vt 0.595806 0.191071
vt 0.594097 0.122425
vt 0.593568 0.122425
vt 0.595277 0.191071
vt 0.591343 0.191071
vt 0.588926 0.122425
vt 0.495393 0.787529
vt 0.450961 0.895977
vt 0.453514 0.896563
vt 0.538315 0.794810
vt 0.543848 0.464515
vt 0.543848 0.417610
vt 0.651099 0.417610
vt 0.560054 0.464515
vt 0.435260 0.417610
vt 0.517425 0.562746
vt 0.540405 0.563228
vt 0.542511 0.417610
vt 0.456051 0.508798
vt 0.510014 0.662658
vt 0.529053 0.664768
vt 0.541989 0.508763
vt 0.472196 0.598969
vt 0.487447 0.753790
vt 0.502952 0.757136
vt 0.538166 0.601688
vt 0.468336 0.684762
vt 0.462563 0.826055
vt 0.474061 0.829283
vt 0.524565 0.692003
vt 0.487647 0.832156
vt 0.539201 0.794921
vt 0.556999 0.795466
vt 0.492408 0.832373
vt 0.389890 0.417610
vt 0.507032 0.562285
vt 0.516550 0.562720
vt 0.434315 0.417610
vt 0.419465 0.508710
vt 0.501030 0.661136
vt 0.509145 0.662540
vt 0.455136 0.508795
vt 0.443635 0.596408
vt 0.479856 0.751373
vt 0.486572 0.753567
vt 0.471318 0.598914
vt 0.443917 0.679235
vt 0.456713 0.823700
vt 0.461698 0.825770
vt 0.467461 0.684618
vt 0.432449 0.770172
vt 0.450419 0.776949
vt 0.434159 0.417898
vt 0.516417 0.562441
vt 0.506864 0.562451
vt 0.454982 0.508741
vt 0.509007 0.661213
vt 0.501030 0.661089
vt 0.419465 0.508707
vt 0.471161 0.596625
vt 0.486423 0.751538
vt 0.479856 0.751291
vt 0.443635 0.596384
vt 0.467327 0.679744
vt 0.461519 0.823816
vt 0.456713 0.823596
vt 0.443917 0.679181
vt 0.450248 0.770817
vt 0.432449 0.770084
vt 0.542511 0.417610
vt 0.540380 0.562832
vt 0.517316 0.562453
vt 0.435068 0.417898
vt 0.542008 0.508901
vt 0.529016 0.662892
vt 0.509895 0.661272
vt 0.455864 0.508744
vt 0.538173 0.599165
vt 0.502907 0.754209
vt 0.487315 0.751652
vt 0.472015 0.596655
vt 0.524561 0.685678
vt 0.474006 0.826421
vt 0.462404 0.823961
vt 0.468184 0.679818
vt 0.494130 0.778716
vt 0.451108 0.770940
vt 0.651099 0.417610
vt 0.564661 0.563092
vt 0.541639 0.562670
vt 0.543847 0.417610
vt 0.630186 0.508638
vt 0.549279 0.664926
vt 0.530263 0.663012
vt 0.543269 0.508901
vt 0.605631 0.601119
vt 0.519603 0.757656
vt 0.504159 0.754446
vt 0.539383 0.599209
vt 0.582161 0.692370
vt 0.486782 0.829862
vt 0.475257 0.826730
vt 0.525774 0.685816
vt 0.538315 0.788764
vt 0.495349 0.778967
vt 0.696468 0.417610
vt 0.575085 0.563380
vt 0.565537 0.563110
vt 0.652044 0.417610
vt 0.667307 0.508638
vt 0.558038 0.666365
vt 0.550146 0.665034
vt 0.631120 0.508638
vt 0.634125 0.602173
vt 0.526895 0.760051
vt 0.520473 0.757874
vt 0.606514 0.601143
vt 0.606474 0.696521
vt 0.492408 0.832271
vt 0.487647 0.830146
vt 0.583035 0.692481
vt 0.556999 0.795381
vt 0.539201 0.788999
vt 0.652044 0.417610
vt 0.565537 0.563457
vt 0.575085 0.563389
vt 0.631120 0.508638
vt 0.550146 0.666358
vt 0.558038 0.666406
vt 0.606514 0.602529
vt 0.520473 0.759923
vt 0.526895 0.760128
vt 0.634125 0.602185
vt 0.583035 0.696545
vt 0.606474 0.696563
vt 0.541639 0.563245
vt 0.564661 0.563454
vt 0.543296 0.508761
vt 0.530273 0.664880
vt 0.549279 0.666312
vt 0.630186 0.508638
vt 0.539412 0.601719
vt 0.504180 0.757366
vt 0.519603 0.759817
vt 0.605631 0.602530
vt 0.525804 0.692129
vt 0.475284 0.829583
vt 0.486782 0.832016
vt 0.582161 0.696504
vt 0.594428 0.122020
vt 0.605274 0.122020
vt 0.617503 0.122020
vt 0.621996 0.122020
vt 0.606657 0.122020
vt 0.616931 0.122020
vt 0.606084 0.122020
vt 0.593855 0.122020
vt 0.589363 0.122020
vt 0.604702 0.122020
vt 0.526305 0.464515
vt 0.542511 0.464515
vt 0.560998 0.464515
vt 0.567711 0.464515
vt 0.543847 0.464515
vt 0.525360 0.464515
vt 0.518647 0.464515
vt 0.453773 0.896609
vt 0.454830 0.896660
vt 0.454830 0.896628
vt 0.453773 0.896115
vt 0.453514 0.896023
vt 0.450961 0.895246
vt 0.450596 0.895148
vt 0.448043 0.894562
vt 0.447784 0.894516
vt 0.446727 0.894465
vt 0.446727 0.894497
vt 0.447784 0.895010
vt 0.453444 0.896713
vt 0.450730 0.896090
vt 0.448015 0.895264
vt 0.446891 0.894719
vt 0.448015 0.894774
vt 0.450730 0.895398
vt 0.453444 0.896224
vt 0.454569 0.896769
vt 0.560516 0.464088
vt 0.559635 0.464088
vt 0.567074 0.464088
vt 0.542556 0.464088
vt 0.543803 0.464088
vt 0.525842 0.464088
vt 0.526724 0.464088
vt 0.519285 0.464088
s 0
usemtl Material
f 127/1/1 56/2/1 7/3/1 66/4/1
f 17/5/2 141/6/2 146/7/2 23/8/2
f 24/9/3 145/10/3 150/11/3 30/12/3
f 31/13/4 149/14/4 154/15/4 37/16/4
f 38/17/5 153/18/5 158/19/5 44/20/5
f 45/20/6 157/19/6 162/18/6 51/17/6
f 65/21/7 6/22/7 12/23/7 68/24/7
f 166/25/8 57/26/8 76/27/8 139/28/8
f 10/8/9 137/7/9 142/6/9 16/5/9
f 135/29/10 183/30/10 170/31/10 58/32/10
f 133/33/11 199/34/11 186/35/11 60/36/11
f 131/37/12 215/38/12 202/39/12 62/40/12
f 129/41/13 231/42/13 218/43/13 64/44/13
f 219/45/14 67/46/14 78/47/14 222/48/14
f 125/49/15 181/50/15 184/51/15 136/52/15
f 124/53/16 198/54/16 200/55/16 134/56/16
f 122/57/17 214/58/17 216/59/17 132/60/17
f 120/61/18 230/62/18 232/63/18 130/64/18
f 230/62/19 118/65/19 128/66/19 232/63/19
f 116/67/20 180/68/20 182/69/20 126/49/20
f 114/70/21 196/71/21 197/72/21 123/73/21
f 112/74/22 212/75/22 213/76/22 121/77/22
f 110/78/23 228/79/23 229/80/23 119/81/23
f 228/79/24 108/82/24 117/83/24 229/80/24
f 105/84/25 178/85/25 179/86/25 115/87/25
f 104/88/26 194/89/26 195/90/26 113/91/26
f 102/92/27 210/93/27 211/94/27 111/95/27
f 100/96/28 226/97/28 227/98/28 109/99/28
f 226/97/29 98/100/29 107/101/29 227/98/29
f 95/102/30 175/103/30 177/104/30 106/105/30
f 93/106/31 191/107/31 193/108/31 103/109/31
f 91/110/32 207/111/32 209/112/32 101/113/32
f 89/114/33 223/115/33 225/116/33 99/117/33
f 223/115/34 87/118/34 97/119/34 225/116/34
f 85/120/35 173/121/35 176/122/35 96/123/35
f 83/124/36 189/125/36 192/126/36 94/127/36
f 81/128/37 205/129/37 208/130/37 92/131/37
f 79/132/38 221/133/38 224/134/38 90/135/38
f 221/133/39 77/136/39 88/137/39 224/134/39
f 75/138/40 171/139/40 174/140/40 86/120/40
f 73/141/41 187/142/41 190/143/41 84/124/41
f 71/144/42 203/145/42 206/146/42 82/147/42
f 69/148/43 219/45/43 222/48/43 80/149/43
f 57/26/44 169/150/44 172/151/44 76/27/44
f 59/152/45 185/153/45 188/154/45 74/155/45
f 61/156/46 201/157/46 204/158/46 72/159/46
f 63/160/47 217/161/47 220/162/47 70/163/47
f 231/42/48 127/1/48 66/4/48 218/43/48
f 53/164/49 2/165/49 233/165/49
f 11/166/49 15/167/49 235/168/49
f 18/167/49 22/166/49 236/168/49
f 25/169/49 29/170/49 237/170/49
f 32/165/49 36/164/49 238/165/49
f 39/171/49 43/172/49 239/173/49
f 46/172/49 50/171/49 240/173/49
f 4/12/50 167/11/50 138/10/50 9/9/50
f 164/174/51 135/29/51 58/32/51 165/175/51
f 140/176/52 75/138/52 86/120/52 143/177/52
f 144/177/53 85/120/53 96/123/53 147/176/53
f 148/28/54 95/102/54 106/105/54 151/178/54
f 152/175/55 105/84/55 115/87/55 155/174/55
f 156/179/56 116/67/56 126/49/56 159/180/56
f 160/180/57 125/49/57 136/52/57 163/179/57
f 169/150/58 59/152/58 74/155/58 172/151/58
f 183/30/59 133/33/59 60/36/59 170/31/59
f 171/139/60 73/141/60 84/124/60 174/140/60
f 173/121/61 83/124/61 94/127/61 176/122/61
f 175/103/62 93/106/62 103/109/62 177/104/62
f 178/85/63 104/88/63 113/91/63 179/86/63
f 180/68/64 114/70/64 123/73/64 182/69/64
f 181/50/65 124/53/65 134/56/65 184/51/65
f 185/153/66 61/156/66 72/159/66 188/154/66
f 199/34/67 131/37/67 62/40/67 186/35/67
f 187/142/68 71/144/68 82/147/68 190/143/68
f 189/125/69 81/128/69 92/131/69 192/126/69
f 191/107/70 91/110/70 101/113/70 193/108/70
f 194/89/71 102/92/71 111/95/71 195/90/71
f 196/71/72 112/74/72 121/77/72 197/72/72
f 198/54/73 122/57/73 132/60/73 200/55/73
f 201/157/74 63/160/74 70/163/74 204/158/74
f 215/38/75 129/41/75 64/44/75 202/39/75
f 203/145/76 69/148/76 80/149/76 206/146/76
f 205/129/77 79/132/77 90/135/77 208/130/77
f 207/111/78 89/114/78 99/117/78 209/112/78
f 210/93/79 100/96/79 109/99/79 211/94/79
f 212/75/80 110/78/80 119/81/80 213/76/80
f 214/58/81 120/61/81 130/64/81 216/59/81
f 217/161/82 65/21/82 68/24/82 220/162/82
f 52/16/83 161/15/83 168/14/83 3/13/83
f 67/46/84 14/181/84 19/182/84 78/47/84
f 77/136/85 21/183/85 26/184/85 88/137/85
f 87/118/86 28/185/86 33/186/86 97/119/86
f 98/100/87 35/187/87 40/188/87 107/101/87
f 108/82/88 42/189/88 47/190/88 117/83/88
f 118/65/89 49/191/89 54/192/89 128/66/89
f 13/193/90 5/194/90 55/195/90 48/196/90 41/197/90 34/198/90 27/199/90 20/200/90
f 1/170/91 2/165/91 3/13/91 4/12/91
f 5/194/92 6/22/92 7/3/92
f 8/169/93 9/9/93 10/8/93 11/166/93
f 12/23/94 13/193/94 14/181/94
f 15/167/95 16/5/95 17/5/95 18/167/95
f 19/182/96 20/200/96 21/183/96
f 22/166/97 23/8/97 24/9/97 25/169/97
f 26/184/98 27/199/98 28/185/98
f 29/170/99 30/12/99 31/13/99 32/165/99
f 33/186/100 34/198/100 35/187/100
f 36/164/101 37/16/101 38/17/101 39/171/101
f 40/188/102 41/197/102 42/189/102
f 43/172/103 44/20/103 45/20/103 46/172/103
f 47/190/104 48/196/104 49/191/104
f 50/171/105 51/17/105 52/16/105 53/164/105
f 54/192/106 55/195/106 56/2/106
f 137/201/107 138/202/107 139/28/107 140/176/107
f 141/203/108 142/203/108 143/177/108 144/177/108
f 145/202/109 146/201/109 147/176/109 148/28/109
f 149/204/110 150/205/110 151/178/110 152/175/110
f 153/206/111 154/207/111 155/174/111 156/179/111
f 157/208/112 158/208/112 159/180/112 160/180/112
f 161/207/113 162/206/113 163/179/113 164/174/113
f 165/175/114 166/25/114 167/205/114 168/204/114
f 233/165/49 234/170/49 235/168/49 236/168/49 237/170/49 238/165/49 239/173/49 240/173/49
f 4/12/115 9/9/115 8/169/115 1/170/115
f 12/23/116 6/22/116 5/194/116 13/193/116
f 66/4/117 7/3/117 6/22/117 65/21/117
f 137/7/118 10/8/118 9/9/118 138/10/118
f 10/8/119 16/5/119 15/167/119 11/166/119
f 19/182/120 14/181/120 13/193/120 20/200/120
f 141/6/121 17/5/121 16/5/121 142/6/121
f 17/5/122 23/8/122 22/166/122 18/167/122
f 26/184/123 21/183/123 20/200/123 27/199/123
f 145/10/124 24/9/124 23/8/124 146/7/124
f 24/9/125 30/12/125 29/170/125 25/169/125
f 33/186/126 28/185/126 27/199/126 34/198/126
f 149/14/127 31/13/127 30/12/127 150/11/127
f 31/13/128 37/16/128 36/164/128 32/165/128
f 40/188/129 35/187/129 34/198/129 41/197/129
f 153/18/130 38/17/130 37/16/130 154/15/130
f 38/17/131 44/20/131 43/172/131 39/171/131
f 47/190/132 42/189/132 41/197/132 48/196/132
f 157/19/133 45/20/133 44/20/133 158/19/133
f 45/20/134 51/17/134 50/171/134 46/172/134
f 54/192/135 49/191/135 48/196/135 55/195/135
f 161/15/136 52/16/136 51/17/136 162/18/136
f 52/16/137 3/13/137 2/165/137 53/164/137
f 7/3/138 56/2/138 55/195/138 5/194/138
f 165/175/139 58/32/139 57/26/139 166/25/139
f 170/31/140 60/36/140 59/152/140 169/150/140
f 186/35/141 62/40/141 61/156/141 185/153/141
f 202/39/142 64/44/142 63/160/142 201/157/142
f 218/43/143 66/4/143 65/21/143 217/161/143
f 14/181/144 67/46/144 68/24/144 12/23/144
f 219/45/145 69/148/145 70/163/145 220/162/145
f 203/145/146 71/144/146 72/159/146 204/158/146
f 187/142/147 73/141/147 74/155/147 188/154/147
f 171/139/148 75/138/148 76/27/148 172/151/148
f 21/183/149 77/136/149 78/47/149 19/182/149
f 221/133/150 79/132/150 80/149/150 222/48/150
f 205/129/151 81/128/151 82/147/151 206/146/151
f 189/125/152 83/124/152 84/124/152 190/143/152
f 173/121/153 85/120/153 86/120/153 174/140/153
f 28/185/154 87/118/154 88/137/154 26/184/154
f 223/115/155 89/114/155 90/135/155 224/134/155
f 207/111/156 91/110/156 92/131/156 208/130/156
f 191/107/157 93/106/157 94/127/157 192/126/157
f 175/103/158 95/102/158 96/123/158 176/122/158
f 35/187/159 98/100/159 97/119/159 33/186/159
f 226/97/160 100/96/160 99/117/160 225/116/160
f 210/93/161 102/92/161 101/113/161 209/112/161
f 194/89/162 104/88/162 103/109/162 193/108/162
f 178/85/163 105/84/163 106/105/163 177/104/163
f 42/189/164 108/82/164 107/101/164 40/188/164
f 228/79/165 110/78/165 109/99/165 227/98/165
f 212/75/166 112/74/166 111/95/166 211/94/166
f 196/71/167 114/70/167 113/91/167 195/90/167
f 180/68/168 116/67/168 115/87/168 179/86/168
f 49/191/169 118/65/169 117/83/169 47/190/169
f 230/62/170 120/61/170 119/81/170 229/80/170
f 214/58/171 122/57/171 121/77/171 213/76/171
f 198/54/172 124/53/172 123/73/172 197/72/172
f 181/50/173 125/49/173 126/49/173 182/69/173
f 56/2/174 127/1/174 128/66/174 54/192/174
f 231/42/175 129/41/175 130/64/175 232/63/175
f 215/38/176 131/37/176 132/60/176 216/59/176
f 199/34/177 133/33/177 134/56/177 200/55/177
f 183/30/178 135/29/178 136/52/178 184/51/178
f 75/138/179 140/176/179 139/28/179 76/27/179
f 85/120/180 144/177/180 143/177/180 86/120/180
f 95/102/181 148/28/181 147/176/181 96/123/181
f 105/84/182 152/175/182 151/178/182 106/105/182
f 116/67/183 156/179/183 155/174/183 115/87/183
f 125/49/184 160/180/184 159/180/184 126/49/184
f 135/29/185 164/174/185 163/179/185 136/52/185
f 3/13/186 168/14/186 167/11/186 4/12/186
f 166/25/187 139/28/187 138/202/187 167/205/187
f 140/176/188 143/177/188 142/203/188 137/201/188
f 144/177/189 147/176/189 146/201/189 141/203/189
f 148/28/190 151/178/190 150/205/190 145/202/190
f 152/175/191 155/174/191 154/207/191 149/204/191
f 156/179/192 159/180/192 158/208/192 153/206/192
f 160/180/193 163/179/193 162/206/193 157/208/193
f 164/174/194 165/175/194 168/204/194 161/207/194
f 58/32/195 170/31/195 169/150/195 57/26/195
f 73/141/196 171/139/196 172/151/196 74/155/196
f 83/124/197 173/121/197 174/140/197 84/124/197
f 93/106/198 175/103/198 176/122/198 94/127/198
f 104/88/199 178/85/199 177/104/199 103/109/199
f 114/70/200 180/68/200 179/86/200 113/91/200
f 124/53/201 181/50/201 182/69/201 123/73/201
f 133/33/202 183/30/202 184/51/202 134/56/202
f 60/36/203 186/35/203 185/153/203 59/152/203
f 71/144/204 187/142/204 188/154/204 72/159/204
f 81/128/205 189/125/205 190/143/205 82/147/205
f 91/110/206 191/107/206 192/126/206 92/131/206
f 102/92/207 194/89/207 193/108/207 101/113/207
f 112/74/208 196/71/208 195/90/208 111/95/208
f 122/57/209 198/54/209 197/72/209 121/77/209
f 131/37/210 199/34/210 200/55/210 132/60/210
f 62/40/211 202/39/211 201/157/211 61/156/211
f 69/148/212 203/145/212 204/158/212 70/163/212
f 79/132/213 205/129/213 206/146/213 80/149/213
f 89/114/214 207/111/214 208/130/214 90/135/214
f 100/96/215 210/93/215 209/112/215 99/117/215
f 110/78/216 212/75/216 211/94/216 109/99/216
f 120/61/217 214/58/217 213/76/217 119/81/217
f 129/41/218 215/38/218 216/59/218 130/64/218
f 64/44/219 218/43/219 217/161/219 63/160/219
f 67/46/220 219/45/220 220/162/220 68/24/220
f 77/136/221 221/133/221 222/48/221 78/47/221
f 87/118/222 223/115/222 224/134/222 88/137/222
f 98/100/223 226/97/223 225/116/223 97/119/223
f 108/82/224 228/79/224 227/98/224 107/101/224
f 118/65/225 230/62/225 229/80/225 117/83/225
f 127/1/226 231/42/226 232/63/226 128/66/226
f 233/165/49 2/165/49 1/170/49 234/170/49
f 11/166/49 235/168/49 234/170/49 8/169/49
f 18/167/49 236/168/49 235/168/49 15/167/49
f 25/169/49 237/170/49 236/168/49 22/166/49
f 32/165/49 238/165/49 237/170/49 29/170/49
f 39/171/49 239/173/49 238/165/49 36/164/49
f 46/172/49 240/173/49 239/173/49 43/172/49
f 53/164/49 233/165/49 240/173/49 50/171/49
f 1/170/49 8/169/49 234/170/49
