# Blender 5.1.1
# www.blender.org
mtllib Helix1.mtl
o balloon.002
v -0.124598 1.432449 2.050581
v -0.111018 1.863980 2.299927
v -0.443627 1.974718 1.508313
v -0.408549 2.211343 1.950327
v -0.016093 1.487754 1.995275
v -0.092498 1.916055 2.244413
v -0.389109 2.019680 1.463351
v -0.397628 2.252372 1.909300
v -0.212489 0.404107 0.844191
v -0.367460 0.822899 0.481244
v -0.146595 0.404107 0.844191
v -0.325413 0.822898 0.481244
v -0.242915 0.327123 0.523190
v -0.323344 0.508422 0.332726
v -0.205120 0.325900 0.522765
v -0.300322 0.509996 0.339993
v -0.291150 1.594726 1.875772
v -0.365225 1.716130 1.766899
v -0.309264 2.057636 2.098628
v -0.239657 1.970304 2.195336
v -0.216698 1.791838 1.691193
v -0.142623 1.670435 1.800065
v -0.171931 2.035711 2.124193
v -0.267442 2.118895 2.042776
v -0.295767 0.563625 0.709422
v -0.357436 0.692224 0.598425
v -0.259800 0.692224 0.598425
v -0.211672 0.580694 0.708306
v -0.316958 0.462217 0.388792
v -0.264582 0.372601 0.474328
v -0.277308 0.457746 0.389105
v -0.235361 0.394054 0.451966
v -0.113478 1.614732 2.198227
v -0.424092 2.128264 1.694124
v -0.388373 2.164140 1.658248
v -0.032672 1.671378 2.145020
v -0.129466 1.838331 1.976759
v -0.223117 1.959603 1.862786
v -0.360751 1.889447 1.932941
v -0.267100 1.768177 2.046913
v -0.254660 0.500472 0.250311
v -0.352307 0.472749 0.273636
v -0.290081 0.236568 0.506686
v -0.192435 0.264291 0.483361
v -0.403128 0.383970 0.358387
v -0.377354 0.286140 0.454920
v -0.167387 0.450900 0.302077
v -0.141613 0.353071 0.398608
v -0.248307 0.383536 0.126311
v -0.345909 0.356015 0.149424
v -0.284188 0.119968 0.382403
v -0.186583 0.147489 0.359290
v -0.396845 0.267418 0.234007
v -0.371283 0.169644 0.330510
v -0.161213 0.333860 0.178204
v -0.135645 0.236085 0.274706
v -0.183611 0.352381 0.674706
v -0.321925 0.658508 0.363148
v -0.349078 0.656557 0.365101
v -0.236281 0.352380 0.674706
v -0.340857 0.580919 0.470425
v -0.278773 0.455289 0.584198
v -0.221222 0.476428 0.575741
v -0.270289 0.580919 0.470425
v -0.085389 0.947878 1.417176
v -0.354859 1.420276 0.963154
v -0.195128 0.914129 1.450924
v -0.395817 1.382422 1.001009
v -0.359774 1.192190 1.186301
v -0.293459 1.079176 1.292597
v -0.177145 1.125564 1.254186
v -0.236693 1.230045 1.148446
v -0.182982 2.072141 2.292361
v -0.311032 2.220557 2.143944
v -0.173182 2.105735 2.258765
v -0.306422 2.237873 2.126628
v -0.266936 2.181308 2.215802
v -0.225482 2.133264 2.262990
v -0.215680 2.166860 2.229396
v -0.255992 2.201967 2.195034
v -0.206591 0.369401 0.414084
v -0.209584 0.308238 0.470869
v -0.258040 0.298089 0.481766
v -0.326527 0.468977 0.309836
v -0.341345 0.411283 0.366921
v -0.239691 0.435376 0.351292
v -0.306355 0.332929 0.445878
v -0.278719 0.476430 0.307314
v -0.220786 0.381405 0.433695
v -0.321940 0.441066 0.373261
v -0.261721 0.445728 0.372410
v -0.285468 0.352765 0.460103
v -0.288649 0.489482 0.325480
v -0.211537 0.319061 0.490952
v -0.250479 0.312606 0.502478
v -0.324934 0.488700 0.321282
v -0.253672 0.282400 0.131709
v -0.310294 0.266434 0.145117
v -0.274489 0.129497 0.280274
v -0.217867 0.145463 0.266865
v -0.339846 0.215036 0.194186
v -0.325014 0.158315 0.250170
v -0.203148 0.253582 0.161814
v -0.188317 0.196861 0.217797
v -0.252596 0.182231 0.030268
v -0.309218 0.166266 0.043679
v -0.273413 0.029329 0.178835
v -0.216792 0.045295 0.165425
v -0.338768 0.114870 0.092747
v -0.323939 0.058148 0.148730
v -0.202071 0.153413 0.060374
v -0.187239 0.096693 0.116356
v -0.261718 2.160431 2.118904
v -0.352025 2.245123 2.017964
v -0.193805 2.101285 2.176795
v -0.232569 2.051785 2.229164
v -0.288100 2.119472 2.157215
v -0.132840 2.010896 2.251588
v -0.147000 1.968061 2.296142
v -0.359790 2.215951 2.047135
v -0.385973 -0.007272 -0.268146
v -0.385973 -0.089800 -0.255073
v -0.385973 -0.164250 -0.217138
v -0.385971 -0.223334 -0.158056
v -0.385973 -0.261267 -0.083604
v -0.385973 -0.274338 -0.001079
v -0.385973 -0.261267 0.081450
v -0.385973 -0.223334 0.155898
v -0.385973 -0.164250 0.214980
v -0.385971 -0.089800 0.252917
v -0.385971 -0.007272 0.265988
v -0.385973 0.075256 0.252917
v -0.385973 0.149705 0.214980
v -0.385973 0.208788 0.155898
v -0.385973 0.246723 0.081450
v -0.385973 0.259794 -0.001079
v -0.385973 0.246722 -0.083608
v -0.385973 0.208788 -0.158056
v -0.385973 0.149704 -0.217138
v -0.385973 0.075256 -0.255073
v -0.382277 -0.007267 -0.232036
v -0.382277 -0.078639 -0.220733
v -0.285761 -0.121165 -0.157840
v -0.382277 -0.194117 -0.136831
v -0.382277 -0.226923 -0.072444
v -0.382277 -0.238226 -0.001075
v -0.382277 -0.226923 0.070294
v -0.382277 -0.194117 0.134676
v -0.382277 -0.143023 0.185772
v -0.382277 -0.078639 0.218579
v -0.382277 -0.007267 0.229884
v -0.382277 0.064102 0.218579
v -0.382277 0.128486 0.185772
v -0.382277 0.179581 0.134676
v -0.382277 0.212387 0.070294
v -0.382277 0.223691 -0.001075
v -0.382277 0.212387 -0.072446
v -0.382277 0.179581 -0.136831
v -0.382277 0.128486 -0.187925
v -0.382277 0.064102 -0.220733
v -0.157583 -0.007267 -0.232036
v -0.157585 -0.078637 -0.220733
v -0.157585 -0.143023 -0.187927
v -0.157586 -0.194119 -0.136831
v -0.157586 -0.226923 -0.072446
v -0.157584 -0.238228 -0.001075
v -0.157586 -0.226923 0.070292
v -0.157584 -0.194119 0.134678
v -0.157586 -0.143021 0.185772
v -0.157586 -0.078639 0.218579
v -0.157584 -0.007267 0.229884
v -0.157586 0.064102 0.218579
v -0.157586 0.128486 0.185772
v -0.157584 0.179582 0.134676
v -0.157584 0.212387 0.070294
v -0.157586 0.223691 -0.001075
v -0.157586 0.212387 -0.072448
v -0.157586 0.179582 -0.136831
v -0.157585 0.128486 -0.187925
v -0.157583 0.064102 -0.220733
v -0.151267 -0.007269 -0.150871
v -0.151266 -0.053557 -0.143539
v -0.151266 -0.095314 -0.122263
v -0.151265 -0.128453 -0.089124
v -0.151266 -0.149729 -0.047367
v -0.151266 -0.157061 -0.001079
v -0.151266 -0.149729 0.045208
v -0.151266 -0.128453 0.086966
v -0.151266 -0.095314 0.120106
v -0.151266 -0.053557 0.141381
v -0.151266 -0.007269 0.148713
v -0.120201 0.036035 0.132196
v -0.151267 0.080776 0.120106
v -0.151266 0.113914 0.086966
v -0.151266 0.135191 0.045210
v -0.151264 0.142523 -0.001079
v -0.151266 0.135191 -0.047367
v -0.151266 0.113914 -0.089124
v -0.151267 0.080776 -0.122263
v -0.151265 0.039018 -0.143539
v -0.038635 -0.007269 -0.150871
v -0.038635 -0.053557 -0.143539
v -0.038635 -0.095314 -0.122263
v -0.038635 -0.128453 -0.089124
v -0.038635 -0.149729 -0.047367
v -0.038635 -0.157061 -0.001079
v -0.038635 -0.149729 0.045208
v -0.038635 -0.128453 0.086966
v -0.038635 -0.095314 0.120106
v -0.038635 -0.053557 0.141381
v -0.038635 -0.007269 0.148714
v -0.038635 0.039019 0.141381
v -0.038635 0.080777 0.120106
v -0.038634 0.113915 0.086966
v -0.038635 0.135191 0.045210
v -0.038634 0.142522 -0.001079
v -0.038635 0.135191 -0.047367
v -0.038635 0.113915 -0.089124
v -0.038635 0.080777 -0.122263
v -0.038635 0.039018 -0.143539
v -0.001248 -0.007267 -0.109796
v -0.001248 -0.040863 -0.104475
v -0.001248 -0.071169 -0.089033
v -0.001248 -0.095223 -0.064979
v -0.001248 -0.110665 -0.034673
v -0.001248 -0.115984 -0.001077
v -0.001248 -0.110665 0.032517
v -0.001248 -0.095223 0.062825
v -0.001250 -0.071169 0.086876
v -0.001248 -0.040863 0.102316
v -0.001250 -0.007267 0.107640
v -0.001248 0.026329 0.102318
v -0.001248 0.056634 0.086876
v -0.001248 0.080687 0.062825
v -0.001248 0.096128 0.032517
v -0.001248 0.101450 -0.001079
v -0.001248 0.096129 -0.034675
v -0.001248 0.080687 -0.064979
v -0.001248 0.056634 -0.089033
v -0.001248 0.026329 -0.104475
v -0.001248 -0.007266 -0.001079
v -0.124598 -2.058930 1.438640
v -0.111018 -2.308274 1.870173
v -0.443627 -1.516659 1.980910
v -0.408549 -1.958676 2.217536
v -0.016093 -2.003625 1.493948
v -0.092497 -2.252763 1.922248
v -0.389109 -1.471699 2.025873
v -0.397628 -1.917649 2.258565
v -0.212489 -0.852539 0.410299
v -0.367460 -0.489590 0.829091
v -0.146595 -0.852539 0.410299
v -0.325413 -0.489590 0.829091
v -0.242915 -0.531537 0.333315
v -0.323344 -0.341073 0.514615
v -0.205120 -0.531109 0.332093
v -0.300322 -0.348338 0.516188
v -0.291152 -1.884122 1.600918
v -0.365225 -1.775250 1.722323
v -0.309264 -2.106976 2.063829
v -0.239657 -2.203686 1.976496
v -0.216698 -1.699540 1.798030
v -0.142623 -1.808411 1.676628
v -0.171929 -2.132542 2.041903
v -0.267442 -2.051125 2.125087
v -0.295767 -0.717766 0.569815
v -0.357436 -0.606770 0.698416
v -0.259799 -0.606770 0.698416
v -0.211672 -0.716653 0.586886
v -0.316958 -0.397137 0.468409
v -0.264582 -0.482674 0.378794
v -0.277308 -0.397450 0.463938
v -0.235361 -0.460312 0.400246
v -0.113478 -2.206578 1.620925
v -0.424092 -1.702473 2.134455
v -0.388373 -1.666596 2.170333
v -0.032672 -2.153371 1.677570
v -0.129466 -1.985108 1.844525
v -0.223117 -1.871136 1.965793
v -0.360751 -1.941289 1.895642
v -0.267100 -2.055260 1.774370
v -0.254660 -0.258656 0.506665
v -0.352307 -0.281981 0.478941
v -0.290083 -0.515030 0.242760
v -0.192435 -0.491707 0.270483
v -0.403128 -0.366732 0.390162
v -0.377354 -0.463265 0.292332
v -0.167387 -0.310421 0.457093
v -0.141613 -0.406954 0.359263
v -0.248307 -0.134655 0.389729
v -0.345908 -0.157769 0.362208
v -0.284188 -0.390747 0.126160
v -0.186585 -0.367634 0.153681
v -0.396845 -0.242352 0.273610
v -0.371281 -0.338856 0.175837
v -0.161213 -0.186549 0.340054
v -0.135647 -0.283051 0.242278
v -0.183609 -0.683052 0.358572
v -0.321925 -0.371493 0.664702
v -0.349078 -0.373446 0.662749
v -0.236281 -0.683052 0.358572
v -0.340857 -0.478772 0.587111
v -0.278773 -0.592545 0.461482
v -0.221222 -0.584084 0.482621
v -0.270289 -0.478772 0.587111
v -0.085391 -1.425526 0.954071
v -0.354861 -0.971505 1.426468
v -0.195128 -1.459275 0.920321
v -0.395819 -1.009358 1.388613
v -0.359774 -1.194647 1.198382
v -0.293459 -1.300946 1.085368
v -0.177145 -1.262536 1.131755
v -0.236691 -1.156794 1.236236
v -0.182982 -2.300710 2.078334
v -0.311030 -2.152291 2.226750
v -0.173182 -2.267114 2.111928
v -0.306422 -2.134976 2.244066
v -0.266934 -2.224152 2.187501
v -0.225482 -2.271340 2.139457
v -0.215680 -2.237744 2.173053
v -0.255992 -2.203381 2.208159
v -0.206591 -0.422429 0.375594
v -0.209586 -0.479218 0.314431
v -0.258040 -0.490113 0.304282
v -0.326527 -0.318181 0.475171
v -0.341345 -0.375267 0.417473
v -0.239691 -0.359639 0.441569
v -0.306353 -0.454224 0.339121
v -0.278717 -0.315659 0.482623
v -0.220787 -0.442040 0.387598
v -0.321940 -0.381606 0.447260
v -0.261721 -0.380757 0.451920
v -0.285469 -0.468449 0.358958
v -0.288649 -0.333825 0.495675
v -0.211535 -0.499299 0.325253
v -0.250477 -0.510823 0.318798
v -0.324934 -0.329627 0.494893
v -0.253672 -0.140053 0.288592
v -0.310294 -0.153462 0.272627
v -0.274489 -0.288620 0.135689
v -0.217867 -0.275212 0.151656
v -0.339846 -0.202530 0.221228
v -0.325014 -0.258515 0.164507
v -0.203146 -0.170159 0.259774
v -0.188317 -0.226143 0.203053
v -0.252596 -0.038613 0.188425
v -0.309220 -0.052023 0.172459
v -0.273413 -0.187180 0.035521
v -0.216792 -0.173771 0.051487
v -0.338770 -0.101092 0.121062
v -0.323939 -0.157076 0.064339
v -0.202073 -0.068718 0.159605
v -0.187241 -0.124703 0.102885
v -0.261718 -2.127255 2.166623
v -0.352025 -2.026314 2.251314
v -0.193805 -2.185143 2.107478
v -0.232569 -2.237511 2.057977
v -0.288098 -2.165562 2.125666
v -0.132840 -2.259938 2.017087
v -0.147002 -2.304490 1.974252
v -0.359792 -2.055485 2.222142
v -0.124598 2.044390 -1.440794
v -0.111017 2.293735 -1.872325
v -0.443626 1.502121 -1.983062
v -0.408548 1.944135 -2.219690
v -0.016092 1.989083 -1.496101
v -0.092495 2.238222 -1.924400
v -0.389107 1.457159 -2.028024
v -0.397629 1.903108 -2.260717
v -0.212488 0.837999 -0.412452
v -0.367460 0.475052 -0.831245
v -0.146595 0.837999 -0.412452
v -0.325413 0.475052 -0.831245
v -0.242914 0.516998 -0.335468
v -0.323344 0.326535 -0.516767
v -0.205120 0.516572 -0.334245
v -0.300324 0.333800 -0.518341
v -0.291151 1.869580 -1.603073
v -0.365225 1.760708 -1.724475
v -0.309263 2.092436 -2.065981
v -0.239656 2.189145 -1.978649
v -0.216698 1.685001 -1.800182
v -0.142622 1.793873 -1.678779
v -0.171928 2.118002 -2.044056
v -0.267443 2.036586 -2.127240
v -0.295767 0.703229 -0.571970
v -0.357437 0.592233 -0.700569
v -0.259800 0.592233 -0.700569
v -0.211672 0.702114 -0.589040
v -0.316958 0.382600 -0.470562
v -0.264582 0.468134 -0.380947
v -0.277308 0.382912 -0.466091
v -0.235361 0.445774 -0.402401
v -0.113478 2.192034 -1.623077
v -0.424091 1.687933 -2.136610
v -0.388372 1.652057 -2.172487
v -0.032671 2.138829 -1.679723
v -0.129465 1.970565 -1.846675
v -0.223116 1.856595 -1.967947
v -0.360750 1.926749 -1.897792
v -0.267099 2.040720 -1.776521
v -0.254660 0.244119 -0.508817
v -0.352307 0.267444 -0.481094
v -0.290079 0.500494 -0.244915
v -0.192435 0.477167 -0.272638
v -0.403128 0.352195 -0.392314
v -0.377354 0.448728 -0.294485
v -0.167387 0.295885 -0.459245
v -0.141615 0.392417 -0.361417
v -0.248308 0.120119 -0.391882
v -0.345906 0.143232 -0.364360
v -0.284186 0.376211 -0.128313
v -0.186585 0.353097 -0.155834
v -0.396845 0.227815 -0.275764
v -0.371283 0.324318 -0.177990
v -0.161213 0.172011 -0.342205
v -0.135648 0.268513 -0.244432
v -0.183611 0.668514 -0.360727
v -0.321923 0.356956 -0.666853
v -0.349077 0.358907 -0.664901
v -0.236281 0.668514 -0.360727
v -0.340855 0.464233 -0.589265
v -0.278773 0.578005 -0.463636
v -0.221222 0.569547 -0.484773
v -0.270291 0.464232 -0.589265
v -0.085388 1.410984 -0.956224
v -0.354859 0.956963 -1.428621
v -0.195128 1.444732 -0.922475
v -0.395817 0.994817 -1.390768
v -0.359774 1.180109 -1.200534
v -0.293459 1.286404 -1.087522
v -0.177145 1.247994 -1.133909
v -0.236691 1.142255 -1.238390
v -0.182983 2.286169 -2.080486
v -0.311031 2.137752 -2.228902
v -0.173182 2.252573 -2.114082
v -0.306421 2.120435 -2.246218
v -0.266932 2.209611 -2.189655
v -0.225481 2.256799 -2.141610
v -0.215679 2.223204 -2.175206
v -0.255991 2.188841 -2.210313
v -0.206591 0.407892 -0.377746
v -0.209585 0.464677 -0.316583
v -0.258040 0.475573 -0.306434
v -0.326527 0.303644 -0.477323
v -0.341345 0.360730 -0.419628
v -0.239689 0.345101 -0.443721
v -0.306355 0.439685 -0.341274
v -0.278717 0.301120 -0.484775
v -0.220787 0.427502 -0.389749
v -0.321940 0.367068 -0.449411
v -0.261721 0.366218 -0.454074
v -0.285467 0.453910 -0.361110
v -0.288649 0.319288 -0.497827
v -0.211535 0.484759 -0.327406
v -0.250477 0.496286 -0.320951
v -0.324934 0.315089 -0.497045
v -0.253672 0.125516 -0.290744
v -0.310293 0.138925 -0.274780
v -0.274489 0.274082 -0.137842
v -0.217867 0.260673 -0.153808
v -0.339846 0.187994 -0.223383
v -0.325014 0.243978 -0.166662
v -0.203146 0.155621 -0.261926
v -0.188317 0.211605 -0.205205
v -0.252596 0.024076 -0.190578
v -0.309218 0.037487 -0.174612
v -0.273413 0.172643 -0.037675
v -0.216792 0.159233 -0.053640
v -0.338770 0.086554 -0.123214
v -0.323939 0.142538 -0.066494
v -0.202070 0.054182 -0.161758
v -0.187241 0.110164 -0.105037
v -0.261717 2.112714 -2.168776
v -0.352026 2.011772 -2.253467
v -0.193804 2.170602 -2.109630
v -0.232569 2.222970 -2.060129
v -0.288099 2.151024 -2.127817
v -0.132837 2.245397 -2.019241
v -0.147001 2.289951 -1.976406
v -0.359789 2.040943 -2.224296
v -0.124598 -1.446987 -2.052734
v -0.111017 -1.878521 -2.302080
v -0.443626 -1.989258 -1.510466
v -0.408548 -2.225884 -1.952480
v -0.016092 -1.502293 -1.997429
v -0.092497 -1.930596 -2.246567
v -0.389109 -2.034222 -1.465504
v -0.397627 -2.266912 -1.911453
v -0.212488 -0.418644 -0.846344
v -0.367460 -0.837437 -0.483396
v -0.146595 -0.418644 -0.846344
v -0.325413 -0.837437 -0.483396
v -0.242914 -0.341660 -0.525343
v -0.323344 -0.522961 -0.334878
v -0.205118 -0.340437 -0.524917
v -0.300322 -0.524533 -0.342145
v -0.291151 -1.609268 -1.877926
v -0.365225 -1.730671 -1.769053
v -0.309263 -2.072175 -2.100781
v -0.239656 -1.984844 -2.197489
v -0.216700 -1.806378 -1.693346
v -0.142622 -1.684975 -1.802218
v -0.171928 -2.050251 -2.126347
v -0.267441 -2.133434 -2.044930
v -0.295767 -0.578164 -0.711574
v -0.357435 -0.706761 -0.600578
v -0.259800 -0.706761 -0.600578
v -0.211672 -0.595234 -0.710458
v -0.316960 -0.476754 -0.390945
v -0.264582 -0.387139 -0.476478
v -0.277308 -0.472283 -0.391258
v -0.235359 -0.408591 -0.454118
v -0.113478 -1.629273 -2.200382
v -0.424091 -2.142803 -1.696278
v -0.388372 -2.178681 -1.660400
v -0.032671 -1.685917 -2.147173
v -0.129465 -1.852871 -1.978912
v -0.223116 -1.974140 -1.864941
v -0.360750 -1.903988 -1.935095
v -0.267099 -1.782719 -2.049065
v -0.254660 -0.515011 -0.252464
v -0.352307 -0.487286 -0.275789
v -0.290081 -0.251107 -0.508838
v -0.192435 -0.278830 -0.485513
v -0.403128 -0.398507 -0.360540
v -0.377354 -0.300677 -0.457073
v -0.167387 -0.465439 -0.304229
v -0.141611 -0.367608 -0.400760
v -0.248307 -0.398074 -0.128463
v -0.345908 -0.370552 -0.151577
v -0.284188 -0.134507 -0.384555
v -0.186587 -0.162026 -0.361442
v -0.396845 -0.281956 -0.236160
v -0.371283 -0.184182 -0.332662
v -0.161215 -0.348397 -0.180357
v -0.135647 -0.250624 -0.276859
v -0.183611 -0.366919 -0.676860
v -0.321923 -0.673047 -0.365301
v -0.349077 -0.671093 -0.367252
v -0.236281 -0.366919 -0.676860
v -0.340857 -0.595459 -0.472578
v -0.278773 -0.469826 -0.586351
v -0.221222 -0.490967 -0.577892
v -0.270289 -0.595459 -0.472578
v -0.085390 -0.962419 -1.419331
v -0.354857 -1.434815 -0.965309
v -0.195128 -0.928670 -1.453079
v -0.395819 -1.396961 -1.003162
v -0.359774 -1.206728 -1.188454
v -0.293459 -1.093714 -1.294750
v -0.177145 -1.140104 -1.256340
v -0.236693 -1.244585 -1.150599
v -0.182981 -2.086682 -2.294514
v -0.311029 -2.235096 -2.146097
v -0.173182 -2.120278 -2.260918
v -0.306421 -2.252415 -2.128780
v -0.266933 -2.195851 -2.217957
v -0.225481 -2.147804 -2.265144
v -0.215679 -2.181400 -2.231548
v -0.255991 -2.216507 -2.197186
v -0.206591 -0.383938 -0.416236
v -0.209585 -0.322777 -0.473024
v -0.258040 -0.312626 -0.483919
v -0.326527 -0.483517 -0.311988
v -0.341345 -0.425820 -0.369075
v -0.239691 -0.449913 -0.353447
v -0.306353 -0.347468 -0.448032
v -0.278717 -0.490967 -0.309467
v -0.220787 -0.395943 -0.435848
v -0.321940 -0.455605 -0.375412
v -0.261721 -0.460268 -0.374563
v -0.285469 -0.367302 -0.462255
v -0.288649 -0.504021 -0.327634
v -0.211535 -0.333600 -0.493103
v -0.250479 -0.327145 -0.504631
v -0.324934 -0.503239 -0.323434
v -0.253672 -0.296936 -0.133863
v -0.310295 -0.280972 -0.147272
v -0.274489 -0.144036 -0.282426
v -0.217867 -0.160000 -0.269018
v -0.339846 -0.229573 -0.196338
v -0.325014 -0.172854 -0.252323
v -0.203148 -0.268118 -0.163967
v -0.188317 -0.211398 -0.219951
v -0.252596 -0.196770 -0.032423
v -0.309218 -0.180804 -0.045831
v -0.273413 -0.043868 -0.180988
v -0.216791 -0.059834 -0.167577
v -0.338768 -0.129406 -0.094898
v -0.323939 -0.072686 -0.150884
v -0.202071 -0.167950 -0.062526
v -0.187243 -0.111229 -0.118511
v -0.261717 -2.174973 -2.121058
v -0.352024 -2.259663 -2.020117
v -0.193804 -2.115826 -2.178947
v -0.232569 -2.066326 -2.231316
v -0.288099 -2.134014 -2.159369
v -0.132841 -2.025437 -2.253742
v -0.147001 -1.982601 -2.298296
v -0.359789 -2.230492 -2.049289
v -0.285761 -0.067147 -0.185365
v -0.285761 -0.007267 -0.194848
v -0.382277 -0.143023 -0.187927
v -0.285761 -0.164032 -0.114973
v -0.285761 -0.191555 -0.060954
v -0.285761 -0.201039 -0.001075
v -0.285761 -0.191555 0.058802
v -0.285761 -0.164032 0.112818
v -0.285761 -0.121165 0.155687
v -0.285761 -0.067147 0.183211
v -0.285761 -0.007267 0.192695
v -0.285761 0.052610 0.183211
v -0.285761 0.106628 0.155687
v -0.285761 0.149496 0.112818
v -0.285761 0.177019 0.058802
v -0.285761 0.186504 -0.001075
v -0.285761 0.177019 -0.060955
v -0.285761 0.149496 -0.114973
v -0.285761 0.106628 -0.157840
v -0.285761 0.052610 -0.185365
v -0.120203 -0.050572 -0.134353
v -0.120205 -0.007269 -0.141212
v -0.120203 -0.089638 -0.114450
v -0.120201 -0.120640 -0.083447
v -0.120203 -0.140543 -0.044382
v -0.120203 -0.147404 -0.001079
v -0.120203 -0.140543 0.042224
v -0.120203 -0.120640 0.081290
v -0.120203 -0.089638 0.112293
v -0.120203 -0.050572 0.132196
v -0.120203 -0.007269 0.139055
v -0.151265 0.039019 0.141381
v -0.120205 0.075099 0.112292
v -0.120203 0.106101 0.081290
v -0.120203 0.126005 0.042225
v -0.120201 0.132865 -0.001079
v -0.120203 0.126005 -0.044382
v -0.120203 0.106101 -0.083447
v -0.120205 0.075099 -0.114448
v -0.120201 0.036034 -0.134353
vn -0.8643 -0.1482 0.4806
vn -0.7920 -0.1895 0.5804
vn -0.8035 -0.1871 0.5651
vn -0.5677 0.3688 0.7360
vn -0.9759 0.2138 -0.0433
vn -0.9400 0.2208 0.2600
vn -0.8806 0.4733 0.0217
vn -0.8375 0.4769 -0.2668
vn -0.9411 -0.3006 0.1546
vn -0.9368 -0.3155 0.1511
vn -0.9208 -0.1165 0.3721
vn -0.9401 -0.1757 0.2921
vn 0.7328 -0.3109 0.6052
vn 0.8125 0.1289 0.5685
vn 0.8136 0.0007 0.5814
vn 0.7161 -0.3443 0.6071
vn 0.9090 0.2839 -0.3053
vn 0.9209 0.2574 -0.2925
vn 0.9386 0.2230 -0.2633
vn 0.9277 0.2459 -0.2810
vn 0.8588 0.4397 -0.2631
vn 0.8258 0.5153 -0.2291
vn 0.8128 0.5053 -0.2900
vn 0.8586 0.4265 -0.2844
vn -0.6031 0.5398 0.5872
vn -0.5208 0.8355 0.1752
vn -0.3259 0.8499 0.4141
vn -0.3864 0.6526 0.6518
vn 0.3877 -0.7058 0.5929
vn 0.3814 -0.7073 0.5952
vn 0.1284 -0.8741 0.4685
vn 0.1475 -0.8573 0.4933
vn -0.9406 0.1899 -0.2815
vn -0.6680 0.4600 -0.5849
vn -0.2959 0.5765 -0.7617
vn -0.8322 0.3024 -0.4647
vn -0.8971 -0.3153 0.3094
vn -0.9113 -0.3016 0.2801
vn -0.9328 -0.2938 0.2087
vn -0.9305 -0.2878 0.2266
vn 0.1387 0.3136 0.9394
vn -0.2777 0.2673 0.9228
vn -0.1034 0.4349 0.8945
vn 0.9353 0.2022 -0.2905
vn 0.9390 0.1990 -0.2805
vn 0.9058 0.4160 -0.0799
vn 0.9336 0.3229 -0.1551
vn -0.0056 -0.9713 0.2376
vn -0.0066 -0.9738 0.2274
vn 0.0584 -0.9618 0.2675
vn 0.0465 -0.9668 0.2511
vn 0.0218 0.4072 -0.9131
vn 0.0275 0.3907 -0.9201
vn 0.1165 0.3992 -0.9094
vn 0.1165 0.3998 -0.9092
vn -0.9723 -0.2260 0.0593
vn -0.9907 -0.1333 -0.0267
vn -0.9966 -0.0733 0.0364
vn -0.9727 -0.0938 0.2125
vn -0.9318 -0.1891 0.3099
vn -0.8935 -0.1641 0.4180
vn 0.9550 0.1800 -0.2357
vn 0.9637 0.1584 -0.2148
vn 0.9680 0.2166 -0.1263
vn 0.9311 0.3574 -0.0733
vn 0.8270 0.4829 -0.2878
vn 0.7893 0.5152 -0.3339
vn 0.7821 0.5231 -0.3385
vn 0.8084 0.4991 -0.3122
vn 0.8932 0.3488 -0.2838
vn 0.8557 0.4443 -0.2651
vn 0.9081 0.3593 -0.2152
vn 0.9153 0.3031 -0.2652
vn 0.9310 0.2251 -0.2874
vn 0.9313 0.2168 -0.2928
vn 0.9525 0.1744 -0.2498
vn 0.9505 0.1876 -0.2476
vn -0.9635 -0.2069 0.1697
vn -0.9739 -0.1994 0.1086
vn 0.6075 0.6031 0.5169
vn 0.6890 0.4560 0.5633
vn 0.4214 0.5380 0.7301
vn 0.3594 0.6386 0.6805
vn 0.8141 0.4869 -0.3165
vn 0.8075 0.4977 -0.3166
vn 0.9108 0.2730 -0.3098
vn 0.8957 0.3135 -0.3154
vn -0.9494 -0.2135 0.2305
vn -0.8756 -0.3180 0.3636
vn -0.8368 -0.2774 0.4721
vn -0.7974 -0.3102 0.5176
vn -0.7577 -0.2550 0.6008
vn -0.8021 -0.2152 0.5571
vn -0.8428 -0.3428 0.4150
vn 0.9161 0.2606 -0.3046
vn -0.9663 0.1868 -0.1771
vn 0.8861 0.3391 -0.3159
vn 0.5705 -0.5808 0.5806
vn 0.5665 -0.5865 0.5789
vn -0.7799 0.4461 -0.4390
vn 0.3460 -0.6755 0.6512
vn -0.1672 -0.7229 0.6704
vn -0.1650 -0.7232 0.6707
vn 0.8611 0.3903 -0.3257
vn 0.9937 -0.0538 0.0986
vn 0.9943 -0.0491 0.0942
vn 0.8590 0.3929 -0.3283
vn -0.9944 0.0476 -0.0948
vn -0.6963 0.5047 -0.5103
vn -0.6888 0.5102 -0.5151
vn -0.9935 0.0533 -0.1001
vn 0.4919 0.7627 0.4198
vn 0.2578 0.7816 0.5681
vn -0.5060 0.3919 0.7684
vn -0.2886 0.5507 0.7832
vn 0.4457 0.8158 0.3686
vn 0.2153 0.8350 0.5064
vn -0.1523 0.9816 -0.1148
vn -0.1773 0.9422 0.2844
vn 0.7805 -0.4958 -0.3807
vn 0.7302 -0.6423 -0.2331
vn 0.8615 -0.5076 -0.0128
vn 0.9344 -0.3054 -0.1833
vn -0.4447 -0.1342 -0.8856
vn -0.2194 -0.0404 -0.9748
vn -0.2992 0.3006 -0.9056
vn -0.6353 0.1537 -0.7568
vn 0.6342 0.5780 -0.5135
vn -0.8585 -0.3946 0.3277
vn -0.8616 -0.3908 0.3240
vn -0.3460 0.6742 -0.6525
vn 0.9232 -0.2566 0.2860
vn -0.6543 0.6200 0.4330
vn -0.7310 0.3720 0.5721
vn -0.2099 0.7338 0.6461
vn 0.1099 0.6868 0.7185
vn 0.2875 0.6341 0.7178
vn 0.7006 0.3895 0.5979
vn 0.5200 0.5224 0.6758
vn 0.8851 0.4189 -0.2029
vn 0.8707 0.4280 -0.2423
vn 0.7914 0.2945 0.5357
vn 0.7925 0.2950 0.5338
vn -0.8738 0.2240 0.4316
vn -0.7538 0.5540 0.3533
vn -0.7232 -0.2187 0.6551
vn -0.7323 -0.2185 0.6450
vn -0.7810 0.0118 0.6244
vn -0.7768 0.0995 0.6219
vn 0.0344 0.6202 -0.7837
vn 0.0232 0.6262 -0.7793
vn 0.7660 0.6273 0.1408
vn 0.7418 0.6455 0.1818
vn -0.9006 0.2156 0.3774
vn 0.8572 0.4807 0.1850
vn 0.9486 0.2970 0.1091
vn 0.2081 -0.8826 0.4215
vn 0.2077 -0.8828 0.4212
vn 0.2808 -0.8321 0.4783
vn -0.9693 0.1760 0.1717
vn 0.5883 0.2179 -0.7787
vn 0.8127 0.0572 -0.5798
vn 0.8608 0.3667 -0.3529
vn 0.6361 0.5524 -0.5387
vn 0.3253 -0.8934 0.3100
vn -0.1420 -0.9549 0.2608
vn -0.1740 -0.7016 0.6910
vn 0.3445 -0.6662 0.6615
vn 0.9943 -0.0703 0.0800
vn -0.7432 -0.4024 -0.5345
vn -0.9201 -0.1978 -0.3380
vn 0.6379 -0.1803 -0.7487
vn 0.2564 -0.9643 -0.0656
vn -0.0798 -0.9918 -0.1001
vn 0.4798 -0.0721 -0.8744
vn -0.5914 -0.7724 -0.2317
vn -0.7956 -0.6054 0.0218
vn -0.8620 -0.3652 0.3515
vn -0.9946 0.0684 -0.0781
vn -0.3445 0.6662 -0.6615
vn -0.6952 0.5077 -0.5088
vn 0.9233 -0.2684 0.2749
vn 0.5904 -0.8071 -0.0000
vn 0.5904 -0.7676 -0.2494
vn -0.0000 -0.5878 -0.8090
vn -0.0000 -0.3090 -0.9511
vn 0.5904 -0.0000 -0.8071
vn 0.5903 0.2494 -0.7676
vn 0.5903 0.6530 0.4744
vn 0.5903 0.4744 0.6530
vn 0.5904 -0.7676 0.2494
vn 0.5903 0.7677 0.2494
vn 0.5904 -0.6530 0.4744
vn 0.5903 0.8072 -0.0000
vn 0.5903 -0.4744 0.6530
vn 0.5904 -0.2494 -0.7676
vn 0.5903 0.7677 -0.2494
vn 0.5903 -0.2494 0.7676
vn 0.5904 -0.4744 -0.6530
vn 0.5903 0.6530 -0.4744
vn 0.5903 -0.0000 0.8072
vn 0.5904 -0.6530 -0.4744
vn 0.5903 0.4744 -0.6530
vn 0.5903 0.2494 0.7677
vn 0.5903 0.2494 0.7676
vn 0.9247 0.3620 0.1176
vn 0.9247 0.3079 0.2237
vn -0.0000 0.8090 -0.5878
vn -0.0000 0.9511 -0.3090
vn -0.0000 -0.0000 1.0000
vn -0.0000 -0.3090 0.9511
vn -0.0000 -0.8090 -0.5878
vn -0.0000 0.5878 -0.8090
vn -0.0000 0.3090 0.9511
vn -0.0000 -0.9511 -0.3090
vn -0.0000 0.3090 -0.9511
vn -0.0000 0.5878 0.8090
vn -0.0000 -1.0000 -0.0000
vn -0.0000 -0.0000 -1.0000
vn -0.0000 0.8090 0.5878
vn -0.0000 -0.9511 0.3090
vn -0.0000 0.9511 0.3090
vn -0.0000 -0.8090 0.5878
vn -0.0000 1.0000 -0.0000
vn -0.0000 -0.5878 0.8090
vn 0.9247 -0.3079 0.2237
vn 0.9247 -0.3620 0.1176
vn 0.9247 0.3806 -0.0000
vn 0.9247 -0.2237 0.3079
vn 0.9247 -0.1176 -0.3620
vn 0.9247 -0.0000 -0.3806
vn 0.9247 0.3620 -0.1176
vn 0.9247 -0.1176 0.3620
vn 0.9247 -0.2237 -0.3079
vn 0.9247 0.3079 -0.2237
vn 0.9247 -0.0000 0.3806
vn 0.9247 -0.3079 -0.2237
vn 0.9247 0.2237 -0.3079
vn 0.9247 0.1176 0.3620
vn 0.9247 -0.3620 -0.1176
vn 0.9247 0.1176 -0.3620
vn 0.9247 0.2237 0.3079
vn 0.9247 -0.3806 -0.0000
vn 0.7395 -0.3956 0.5446
vn 0.7395 -0.5446 0.3957
vn 1.0000 -0.0000 -0.0000
vn 0.7395 -0.2080 -0.6402
vn 0.7395 -0.0000 -0.6731
vn 0.7395 0.6402 -0.2080
vn 0.7395 0.6731 -0.0000
vn 0.7395 -0.2080 0.6402
vn 0.7395 -0.3957 -0.5446
vn 0.7395 0.5446 -0.3957
vn 0.7395 -0.0000 0.6731
vn 0.7395 -0.5446 -0.3957
vn 0.7395 0.3957 -0.5446
vn 0.7395 0.2080 0.6402
vn 0.7395 -0.6402 -0.2080
vn 0.7395 0.2080 -0.6402
vn 0.7395 0.3957 0.5446
vn 0.7395 -0.6731 -0.0000
vn 0.7395 0.5446 0.3957
vn 0.7395 -0.6402 0.2080
vn 0.7395 0.6402 0.2080
vn -0.8643 -0.4806 -0.1482
vn -0.7920 -0.5804 -0.1895
vn -0.8035 -0.5651 -0.1872
vn -0.5677 -0.7360 0.3688
vn -0.9759 0.0433 0.2138
vn -0.9400 -0.2600 0.2209
vn -0.8806 -0.0217 0.4733
vn -0.8375 0.2668 0.4769
vn -0.9411 -0.1546 -0.3006
vn -0.9368 -0.1511 -0.3155
vn -0.9208 -0.3721 -0.1165
vn -0.9401 -0.2921 -0.1757
vn 0.7328 -0.6052 -0.3109
vn 0.8125 -0.5685 0.1289
vn 0.8136 -0.5814 0.0007
vn 0.7161 -0.6071 -0.3443
vn 0.9090 0.3053 0.2839
vn 0.9209 0.2925 0.2574
vn 0.9386 0.2633 0.2230
vn 0.9277 0.2810 0.2459
vn 0.8588 0.2631 0.4397
vn 0.8258 0.2291 0.5153
vn 0.8128 0.2900 0.5053
vn 0.8586 0.2844 0.4265
vn -0.6031 -0.5872 0.5398
vn -0.5208 -0.1752 0.8355
vn -0.3259 -0.4141 0.8499
vn -0.3864 -0.6518 0.6526
vn 0.3877 -0.5929 -0.7058
vn 0.3814 -0.5952 -0.7073
vn 0.1284 -0.4685 -0.8741
vn 0.1475 -0.4933 -0.8573
vn -0.9406 0.2815 0.1899
vn -0.6680 0.5849 0.4600
vn -0.2959 0.7617 0.5765
vn -0.8322 0.4647 0.3024
vn -0.8971 -0.3094 -0.3153
vn -0.9113 -0.2801 -0.3016
vn -0.9328 -0.2087 -0.2938
vn -0.9305 -0.2266 -0.2878
vn 0.1387 -0.9394 0.3136
vn -0.2777 -0.9228 0.2672
vn -0.1035 -0.8945 0.4349
vn 0.9353 0.2905 0.2022
vn 0.9390 0.2805 0.1990
vn 0.9058 0.0799 0.4160
vn 0.9336 0.1551 0.3229
vn -0.0056 -0.2376 -0.9713
vn -0.0066 -0.2274 -0.9738
vn 0.0584 -0.2675 -0.9618
vn 0.0465 -0.2511 -0.9668
vn 0.0218 0.9131 0.4072
vn 0.0274 0.9201 0.3907
vn 0.1164 0.9094 0.3992
vn 0.1165 0.9092 0.3998
vn -0.9723 -0.0593 -0.2260
vn -0.9907 0.0267 -0.1333
vn -0.9966 -0.0364 -0.0733
vn -0.9727 -0.2125 -0.0938
vn -0.9318 -0.3099 -0.1891
vn -0.8935 -0.4180 -0.1641
vn 0.9550 0.2357 0.1800
vn 0.9637 0.2148 0.1584
vn 0.9680 0.1263 0.2167
vn 0.9311 0.0733 0.3574
vn 0.8270 0.2878 0.4829
vn 0.7893 0.3339 0.5152
vn 0.7821 0.3385 0.5231
vn 0.8084 0.3122 0.4991
vn 0.8932 0.2838 0.3488
vn 0.8557 0.2651 0.4443
vn 0.9081 0.2152 0.3593
vn 0.9153 0.2652 0.3031
vn 0.9310 0.2874 0.2251
vn 0.9313 0.2928 0.2168
vn 0.9525 0.2497 0.1744
vn 0.9505 0.2476 0.1876
vn -0.9635 -0.1697 -0.2069
vn -0.9739 -0.1086 -0.1994
vn 0.6075 -0.5169 0.6031
vn 0.6891 -0.5632 0.4560
vn 0.4214 -0.7301 0.5380
vn 0.3594 -0.6805 0.6386
vn 0.8141 0.3165 0.4869
vn 0.8075 0.3166 0.4977
vn 0.9108 0.3098 0.2730
vn 0.8957 0.3154 0.3135
vn -0.9494 -0.2305 -0.2135
vn -0.8756 -0.3636 -0.3180
vn -0.8368 -0.4721 -0.2774
vn -0.7974 -0.5176 -0.3102
vn -0.7577 -0.6008 -0.2550
vn -0.8021 -0.5571 -0.2152
vn -0.8428 -0.4150 -0.3428
vn 0.9161 0.3046 0.2606
vn -0.9663 0.1771 0.1868
vn 0.8861 0.3159 0.3391
vn 0.5705 -0.5806 -0.5808
vn 0.5665 -0.5789 -0.5865
vn -0.7799 0.4390 0.4461
vn 0.3460 -0.6512 -0.6755
vn -0.1673 -0.6704 -0.7229
vn -0.1650 -0.6707 -0.7232
vn 0.8611 0.3257 0.3903
vn 0.9937 -0.0986 -0.0538
vn 0.9943 -0.0942 -0.0491
vn 0.8590 0.3283 0.3929
vn -0.9944 0.0948 0.0476
vn -0.6963 0.5103 0.5047
vn -0.6888 0.5151 0.5102
vn -0.9935 0.1001 0.0533
vn 0.4919 -0.4198 0.7627
vn 0.2578 -0.5681 0.7816
vn -0.5060 -0.7684 0.3918
vn -0.2886 -0.7832 0.5507
vn 0.4457 -0.3686 0.8158
vn 0.2153 -0.5064 0.8350
vn -0.1523 0.1148 0.9816
vn -0.1773 -0.2844 0.9422
vn 0.7806 0.3806 -0.4958
vn 0.7302 0.2331 -0.6423
vn 0.8615 0.0128 -0.5076
vn 0.9344 0.1833 -0.3054
vn -0.4447 0.8856 -0.1342
vn -0.2195 0.9748 -0.0404
vn -0.2992 0.9056 0.3006
vn -0.6353 0.7568 0.1537
vn -0.5914 0.2317 -0.7724
vn -0.7432 0.5344 -0.4025
vn -0.9201 0.3380 -0.1979
vn -0.7956 -0.0218 -0.6054
vn 0.6342 0.5135 0.5780
vn -0.8585 -0.3277 -0.3946
vn -0.8616 -0.3240 -0.3908
vn -0.3460 0.6525 0.6742
vn 0.9232 -0.2860 -0.2567
vn -0.6543 -0.4330 0.6200
vn -0.7310 -0.5721 0.3720
vn -0.2099 -0.6461 0.7338
vn 0.1100 -0.7185 0.6868
vn 0.2876 -0.7178 0.6341
vn 0.7006 -0.5979 0.3895
vn 0.5200 -0.6758 0.5224
vn 0.8851 0.2029 0.4189
vn 0.8707 0.2423 0.4280
vn 0.7914 -0.5357 0.2945
vn 0.7925 -0.5339 0.2949
vn -0.8738 -0.4316 0.2240
vn -0.7538 -0.3533 0.5540
vn -0.7232 -0.6551 -0.2187
vn -0.7323 -0.6450 -0.2185
vn -0.7810 -0.6244 0.0117
vn -0.7768 -0.6219 0.0995
vn 0.0344 0.7836 0.6203
vn 0.0232 0.7793 0.6263
vn 0.7660 -0.1408 0.6273
vn 0.7418 -0.1818 0.6455
vn -0.9006 -0.3774 0.2156
vn 0.8572 -0.1850 0.4807
vn 0.9486 -0.1090 0.2970
vn 0.2081 -0.4215 -0.8826
vn 0.2077 -0.4212 -0.8829
vn 0.2808 -0.4782 -0.8321
vn -0.9693 -0.1717 0.1760
vn 0.5883 0.7787 0.2179
vn 0.8127 0.5798 0.0572
vn 0.8608 0.3529 0.3666
vn 0.6361 0.5387 0.5524
vn 0.3253 -0.3100 -0.8934
vn -0.1420 -0.2608 -0.9549
vn -0.1740 -0.6910 -0.7016
vn 0.3445 -0.6615 -0.6662
vn 0.9943 -0.0800 -0.0704
vn 0.6379 0.7487 -0.1803
vn 0.2564 0.0656 -0.9643
vn -0.0798 0.1001 -0.9918
vn 0.4799 0.8744 -0.0721
vn -0.8620 -0.3515 -0.3652
vn -0.9946 0.0781 0.0684
vn -0.3445 0.6615 0.6662
vn -0.6952 0.5088 0.5078
vn 0.9233 -0.2748 -0.2684
vn -0.8643 0.4806 0.1482
vn -0.7920 0.5804 0.1895
vn -0.8035 0.5651 0.1871
vn -0.5677 0.7360 -0.3689
vn -0.9759 -0.0433 -0.2138
vn -0.9400 0.2600 -0.2208
vn -0.8806 0.0217 -0.4733
vn -0.8375 -0.2668 -0.4769
vn -0.9411 0.1546 0.3006
vn -0.9368 0.1511 0.3155
vn -0.9208 0.3721 0.1165
vn -0.9401 0.2921 0.1757
vn 0.7328 0.6052 0.3109
vn 0.8125 0.5685 -0.1289
vn 0.8136 0.5814 -0.0007
vn 0.7161 0.6071 0.3443
vn 0.9090 -0.3053 -0.2839
vn 0.9209 -0.2925 -0.2574
vn 0.9386 -0.2633 -0.2230
vn 0.9277 -0.2810 -0.2459
vn 0.8588 -0.2631 -0.4397
vn 0.8258 -0.2291 -0.5153
vn 0.8128 -0.2900 -0.5053
vn 0.8586 -0.2844 -0.4265
vn -0.6031 0.5873 -0.5398
vn -0.5208 0.1752 -0.8355
vn -0.3259 0.4141 -0.8499
vn -0.3865 0.6518 -0.6526
vn 0.3877 0.5929 0.7058
vn 0.3814 0.5952 0.7073
vn 0.1284 0.4685 0.8741
vn 0.1475 0.4933 0.8573
vn -0.9406 -0.2815 -0.1899
vn -0.6680 -0.5849 -0.4600
vn -0.2959 -0.7617 -0.5765
vn -0.8322 -0.4647 -0.3024
vn -0.8971 0.3094 0.3153
vn -0.9113 0.2801 0.3016
vn -0.9328 0.2087 0.2938
vn -0.9305 0.2266 0.2878
vn 0.1387 0.9394 -0.3136
vn -0.2777 0.9228 -0.2673
vn -0.1034 0.8945 -0.4349
vn 0.9353 -0.2905 -0.2022
vn 0.9390 -0.2805 -0.1990
vn 0.9058 -0.0799 -0.4160
vn 0.9336 -0.1551 -0.3229
vn -0.0056 0.2376 0.9713
vn -0.0066 0.2275 0.9738
vn 0.0584 0.2675 0.9618
vn 0.0465 0.2511 0.9668
vn 0.0218 -0.9131 -0.4072
vn 0.0275 -0.9201 -0.3907
vn 0.1165 -0.9094 -0.3992
vn 0.1165 -0.9092 -0.3998
vn -0.9723 0.0593 0.2260
vn -0.9907 -0.0267 0.1333
vn -0.9966 0.0364 0.0733
vn -0.9727 0.2125 0.0938
vn -0.9318 0.3099 0.1891
vn -0.8935 0.4180 0.1641
vn 0.9550 -0.2357 -0.1800
vn 0.9637 -0.2148 -0.1584
vn 0.9680 -0.1263 -0.2167
vn 0.9311 -0.0733 -0.3574
vn 0.8270 -0.2878 -0.4829
vn 0.7893 -0.3339 -0.5152
vn 0.7821 -0.3385 -0.5231
vn 0.8084 -0.3122 -0.4991
vn 0.8932 -0.2838 -0.3488
vn 0.8557 -0.2651 -0.4443
vn 0.9081 -0.2152 -0.3593
vn 0.9153 -0.2652 -0.3031
vn 0.9310 -0.2874 -0.2251
vn 0.9313 -0.2928 -0.2168
vn 0.9525 -0.2498 -0.1744
vn 0.9505 -0.2476 -0.1876
vn -0.9635 0.1697 0.2069
vn -0.9739 0.1086 0.1994
vn 0.6075 0.5170 -0.6031
vn 0.6890 0.5632 -0.4560
vn 0.4214 0.7301 -0.5380
vn 0.3594 0.6805 -0.6386
vn 0.8141 -0.3165 -0.4869
vn 0.8075 -0.3167 -0.4977
vn 0.9108 -0.3098 -0.2730
vn 0.8957 -0.3154 -0.3135
vn -0.9494 0.2305 0.2135
vn -0.8756 0.3636 0.3180
vn -0.8368 0.4721 0.2774
vn -0.7974 0.5176 0.3102
vn -0.7577 0.6008 0.2550
vn -0.8021 0.5571 0.2152
vn -0.8428 0.4150 0.3428
vn 0.9161 -0.3046 -0.2606
vn -0.9663 -0.1771 -0.1868
vn 0.8861 -0.3159 -0.3391
vn 0.5705 0.5806 0.5808
vn 0.5665 0.5789 0.5865
vn -0.7799 -0.4391 -0.4461
vn 0.3460 0.6512 0.6755
vn -0.1672 0.6704 0.7229
vn -0.1650 0.6707 0.7232
vn 0.8611 -0.3257 -0.3903
vn 0.9937 0.0986 0.0538
vn 0.9943 0.0942 0.0491
vn 0.8590 -0.3283 -0.3929
vn -0.9944 -0.0948 -0.0476
vn -0.6963 -0.5103 -0.5047
vn -0.6888 -0.5151 -0.5102
vn -0.9935 -0.1001 -0.0533
vn 0.4919 0.4199 -0.7627
vn 0.2578 0.5681 -0.7816
vn -0.5059 0.7684 -0.3919
vn -0.2886 0.7832 -0.5507
vn 0.4456 0.3686 -0.8158
vn 0.2153 0.5064 -0.8350
vn -0.1523 -0.1148 -0.9816
vn -0.1773 0.2844 -0.9422
vn 0.7806 -0.3806 0.4958
vn 0.7302 -0.2331 0.6423
vn 0.8615 -0.0128 0.5076
vn 0.9344 -0.1833 0.3054
vn -0.4447 -0.8856 0.1342
vn -0.2195 -0.9748 0.0404
vn -0.2992 -0.9056 -0.3006
vn -0.6353 -0.7568 -0.1537
vn -0.5914 -0.2317 0.7724
vn -0.7432 -0.5344 0.4025
vn -0.9201 -0.3380 0.1979
vn -0.7956 0.0218 0.6054
vn 0.6342 -0.5135 -0.5780
vn -0.8585 0.3277 0.3946
vn -0.8616 0.3240 0.3908
vn -0.3460 -0.6525 -0.6742
vn 0.9232 0.2860 0.2566
vn -0.6543 0.4330 -0.6200
vn -0.7310 0.5721 -0.3720
vn -0.2099 0.6461 -0.7338
vn 0.1099 0.7185 -0.6868
vn 0.2875 0.7178 -0.6341
vn 0.7005 0.5979 -0.3895
vn 0.5200 0.6758 -0.5224
vn 0.8851 -0.2029 -0.4189
vn 0.8707 -0.2423 -0.4280
vn 0.7914 0.5357 -0.2945
vn 0.7924 0.5339 -0.2950
vn -0.8738 0.4316 -0.2240
vn -0.7538 0.3533 -0.5540
vn -0.7232 0.6551 0.2187
vn -0.7323 0.6450 0.2185
vn -0.7810 0.6244 -0.0118
vn -0.7768 0.6219 -0.0995
vn 0.0344 -0.7836 -0.6203
vn 0.0232 -0.7793 -0.6263
vn 0.7659 0.1408 -0.6273
vn 0.7418 0.1818 -0.6455
vn -0.9006 0.3774 -0.2156
vn 0.8572 0.1850 -0.4807
vn 0.9486 0.1090 -0.2970
vn 0.2081 0.4215 0.8826
vn 0.2077 0.4212 0.8829
vn 0.2808 0.4782 0.8321
vn -0.9693 0.1717 -0.1760
vn 0.5883 -0.7787 -0.2179
vn 0.8127 -0.5798 -0.0572
vn 0.8608 -0.3529 -0.3666
vn 0.6361 -0.5387 -0.5524
vn 0.3253 0.3100 0.8934
vn -0.1420 0.2608 0.9549
vn -0.1740 0.6910 0.7016
vn 0.3445 0.6615 0.6662
vn 0.9943 0.0800 0.0704
vn 0.6379 -0.7487 0.1803
vn 0.2564 -0.0656 0.9643
vn -0.0798 -0.1001 0.9918
vn 0.4798 -0.8744 0.0721
vn -0.8620 0.3515 0.3652
vn -0.9946 -0.0781 -0.0684
vn -0.3445 -0.6615 -0.6662
vn -0.6952 -0.5088 -0.5078
vn 0.9233 0.2748 0.2684
vn -0.8643 0.1482 -0.4806
vn -0.7920 0.1895 -0.5804
vn -0.8035 0.1871 -0.5651
vn -0.5677 -0.3689 -0.7360
vn -0.9759 -0.2138 0.0433
vn -0.9400 -0.2209 -0.2600
vn -0.8806 -0.4733 -0.0217
vn -0.8375 -0.4769 0.2668
vn -0.9411 0.3006 -0.1546
vn -0.9368 0.3155 -0.1511
vn -0.9208 0.1165 -0.3721
vn -0.9401 0.1757 -0.2921
vn 0.7328 0.3109 -0.6052
vn 0.8125 -0.1289 -0.5685
vn 0.8136 -0.0007 -0.5814
vn 0.7161 0.3443 -0.6071
vn 0.9090 -0.2839 0.3052
vn 0.9209 -0.2574 0.2925
vn 0.9386 -0.2230 0.2633
vn 0.9277 -0.2459 0.2810
vn 0.8588 -0.4397 0.2631
vn 0.8258 -0.5153 0.2291
vn 0.8128 -0.5053 0.2900
vn 0.8586 -0.4265 0.2844
vn -0.6031 -0.5398 -0.5873
vn -0.5207 -0.8356 -0.1752
vn -0.3259 -0.8499 -0.4141
vn -0.3865 -0.6526 -0.6518
vn 0.3877 0.7058 -0.5929
vn 0.3814 0.7073 -0.5952
vn 0.1284 0.8741 -0.4685
vn 0.1475 0.8573 -0.4933
vn -0.9406 -0.1899 0.2815
vn -0.6680 -0.4600 0.5849
vn -0.2958 -0.5765 0.7617
vn -0.8322 -0.3024 0.4647
vn -0.8971 0.3153 -0.3094
vn -0.9113 0.3016 -0.2801
vn -0.9328 0.2938 -0.2087
vn -0.9305 0.2878 -0.2266
vn 0.1387 -0.3136 -0.9394
vn -0.2777 -0.2672 -0.9228
vn -0.1035 -0.4349 -0.8945
vn 0.9353 -0.2022 0.2905
vn 0.9390 -0.1990 0.2805
vn 0.9058 -0.4160 0.0799
vn 0.9336 -0.3229 0.1551
vn -0.0056 0.9713 -0.2376
vn -0.0066 0.9738 -0.2275
vn 0.0584 0.9618 -0.2674
vn 0.0465 0.9668 -0.2511
vn 0.0218 -0.4072 0.9131
vn 0.0275 -0.3907 0.9201
vn 0.1165 -0.3992 0.9094
vn 0.1166 -0.3998 0.9092
vn -0.9723 0.2260 -0.0593
vn -0.9907 0.1333 0.0267
vn -0.9966 0.0733 -0.0364
vn -0.9727 0.0938 -0.2125
vn -0.9318 0.1891 -0.3099
vn -0.8935 0.1641 -0.4180
vn 0.9550 -0.1800 0.2357
vn 0.9637 -0.1584 0.2148
vn 0.9680 -0.2166 0.1263
vn 0.9311 -0.3574 0.0733
vn 0.8270 -0.4829 0.2878
vn 0.7893 -0.5152 0.3339
vn 0.7821 -0.5231 0.3385
vn 0.8084 -0.4991 0.3122
vn 0.8932 -0.3488 0.2838
vn 0.8557 -0.4443 0.2651
vn 0.9081 -0.3593 0.2152
vn 0.9153 -0.3031 0.2652
vn 0.9310 -0.2251 0.2874
vn 0.9313 -0.2168 0.2928
vn 0.9525 -0.1744 0.2498
vn 0.9505 -0.1876 0.2476
vn -0.9635 0.2069 -0.1697
vn -0.9739 0.1994 -0.1086
vn 0.6075 -0.6031 -0.5169
vn 0.6891 -0.4560 -0.5632
vn 0.4214 -0.5380 -0.7301
vn 0.3594 -0.6386 -0.6805
vn 0.8141 -0.4869 0.3165
vn 0.8075 -0.4977 0.3166
vn 0.9108 -0.2730 0.3098
vn 0.8957 -0.3135 0.3154
vn -0.9494 0.2135 -0.2305
vn -0.8756 0.3180 -0.3636
vn -0.8368 0.2774 -0.4721
vn -0.7974 0.3102 -0.5176
vn -0.7577 0.2550 -0.6008
vn -0.8021 0.2152 -0.5571
vn -0.8428 0.3428 -0.4150
vn 0.9161 -0.2606 0.3046
vn -0.9663 -0.1868 0.1771
vn 0.8861 -0.3391 0.3159
vn 0.5705 0.5808 -0.5807
vn 0.5665 0.5865 -0.5789
vn -0.7799 -0.4461 0.4390
vn 0.3460 0.6755 -0.6512
vn -0.1672 0.7229 -0.6704
vn -0.1650 0.7232 -0.6707
vn 0.8611 -0.3903 0.3258
vn 0.9937 0.0538 -0.0986
vn 0.9943 0.0491 -0.0942
vn 0.8590 -0.3929 0.3283
vn -0.9944 -0.0476 0.0948
vn -0.6963 -0.5047 0.5103
vn -0.6888 -0.5102 0.5151
vn -0.9935 -0.0533 0.1001
vn 0.4919 -0.7627 -0.4198
vn 0.2578 -0.7816 -0.5681
vn -0.5060 -0.3918 -0.7684
vn -0.2886 -0.5507 -0.7832
vn 0.4457 -0.8158 -0.3686
vn 0.2153 -0.8350 -0.5064
vn -0.1523 -0.9816 0.1148
vn -0.1773 -0.9422 -0.2844
vn 0.7806 0.4958 0.3806
vn 0.7302 0.6423 0.2331
vn 0.8615 0.5076 0.0128
vn 0.9344 0.3054 0.1833
vn -0.4447 0.1342 0.8856
vn -0.2195 0.0404 0.9748
vn -0.2992 -0.3006 0.9056
vn -0.6353 -0.1537 0.7568
vn -0.5914 0.7724 0.2317
vn -0.7432 0.4025 0.5344
vn -0.9201 0.1979 0.3380
vn -0.7956 0.6054 -0.0218
vn 0.6343 -0.5780 0.5135
vn -0.8585 0.3946 -0.3277
vn -0.8616 0.3908 -0.3240
vn -0.3460 -0.6742 0.6525
vn 0.9232 0.2567 -0.2860
vn -0.6543 -0.6200 -0.4330
vn -0.7310 -0.3720 -0.5721
vn -0.2099 -0.7338 -0.6461
vn 0.1100 -0.6868 -0.7185
vn 0.2875 -0.6341 -0.7178
vn 0.7006 -0.3895 -0.5979
vn 0.5200 -0.5224 -0.6758
vn 0.8851 -0.4189 0.2029
vn 0.8707 -0.4280 0.2423
vn 0.7914 -0.2945 -0.5357
vn 0.7925 -0.2950 -0.5338
vn -0.8738 -0.2240 -0.4316
vn -0.7538 -0.5540 -0.3533
vn -0.7232 0.2187 -0.6551
vn -0.7323 0.2185 -0.6450
vn -0.7810 -0.0118 -0.6244
vn -0.7768 -0.0995 -0.6219
vn 0.0345 -0.6202 0.7837
vn 0.0232 -0.6262 0.7793
vn 0.7660 -0.6273 -0.1408
vn 0.7418 -0.6455 -0.1818
vn -0.9006 -0.2156 -0.3774
vn 0.8572 -0.4807 -0.1850
vn 0.9486 -0.2970 -0.1090
vn 0.2081 0.8826 -0.4215
vn 0.2077 0.8828 -0.4212
vn 0.2808 0.8321 -0.4783
vn -0.9693 -0.1760 -0.1717
vn 0.5883 -0.2179 0.7787
vn 0.8127 -0.0572 0.5798
vn 0.8608 -0.3667 0.3529
vn 0.6361 -0.5524 0.5387
vn 0.3253 0.8934 -0.3100
vn -0.1420 0.9549 -0.2608
vn -0.1740 0.7016 -0.6910
vn 0.3445 0.6662 -0.6615
vn 0.9943 0.0704 -0.0800
vn 0.6379 0.1803 0.7487
vn 0.2564 0.9644 0.0656
vn -0.0798 0.9918 0.1001
vn 0.4799 0.0721 0.8744
vn -0.8620 0.3652 -0.3515
vn -0.3445 -0.6662 0.6615
vn -0.6952 -0.5078 0.5088
vn 0.9233 0.2684 -0.2748
vn -0.9946 -0.0685 0.0782
vt 0.131633 0.649450
vt 0.132331 0.647698
vt 0.134033 0.648619
vt 0.133586 0.649882
vt 0.125777 0.308405
vt 0.128188 0.312905
vt 0.127389 0.312878
vt 0.124878 0.308855
vt 0.083068 0.629284
vt 0.082502 0.631459
vt 0.079498 0.630512
vt 0.079929 0.629503
vt 0.117032 0.317506
vt 0.122212 0.319401
vt 0.121808 0.320521
vt 0.115999 0.319274
vt 0.108273 0.294141
vt 0.105081 0.297497
vt 0.092673 0.285752
vt 0.094737 0.283726
vt 0.125358 0.315361
vt 0.121466 0.312509
vt 0.077501 0.631970
vt 0.077317 0.633217
vt 0.076438 0.633376
vt 0.076355 0.631515
vt 0.100517 0.302155
vt 0.098659 0.303753
vt 0.087352 0.290500
vt 0.088511 0.289823
vt 0.108992 0.293218
vt 0.095269 0.283040
vt 0.104262 0.634125
vt 0.103044 0.637938
vt 0.086095 0.632696
vt 0.086886 0.629191
vt 0.083659 0.282581
vt 0.083011 0.283708
vt 0.081583 0.283993
vt 0.082782 0.282109
vt 0.091064 0.281157
vt 0.089913 0.283068
vt 0.087058 0.280897
vt 0.087964 0.279907
vt 0.086439 0.286735
vt 0.085396 0.287166
vt 0.083990 0.284232
vt 0.084689 0.283791
vt 0.091377 0.280664
vt 0.088234 0.279403
vt 0.081759 0.634220
vt 0.080627 0.635880
vt 0.078251 0.633645
vt 0.078745 0.632608
vt 0.124352 0.647782
vt 0.129680 0.649018
vt 0.128517 0.652668
vt 0.122700 0.652727
vt 0.088307 0.284967
vt 0.085773 0.282192
vt 0.125435 0.317844
vt 0.126480 0.316583
vt 0.127601 0.317805
vt 0.126994 0.318542
vt 0.119478 0.314594
vt 0.123876 0.317146
vt 0.103413 0.299350
vt 0.091061 0.287608
vt 0.102251 0.640536
vt 0.100968 0.644373
vt 0.084732 0.638015
vt 0.085442 0.635470
vt 0.084732 0.281373
vt 0.083704 0.280521
vt 0.127682 0.314659
vt 0.127975 0.316439
vt 0.115768 0.311028
vt 0.117729 0.309134
vt 0.119215 0.645975
vt 0.119971 0.643186
vt 0.125302 0.644769
vt 0.126850 0.640481
vt 0.131906 0.643510
vt 0.130629 0.646776
vt 0.121852 0.638554
vt 0.112986 0.314567
vt 0.117352 0.651367
vt 0.121628 0.305045
vt 0.111351 0.316445
vt 0.122700 0.304036
vt 0.078444 0.281315
vt 0.080251 0.279909
vt 0.084696 0.279404
vt 0.081546 0.278598
vt 0.082672 0.277447
vt 0.073081 0.632571
vt 0.073766 0.630948
vt 0.085895 0.280254
vt 0.078112 0.630347
vt 0.076777 0.630164
vt 0.086745 0.279235
vt 0.085974 0.278526
vt 0.087642 0.278561
vt 0.087711 0.277712
vt 0.078766 0.629298
vt 0.077668 0.628637
vt 0.078852 0.278147
vt 0.080076 0.277142
vt 0.085319 0.274517
vt 0.083890 0.276224
vt 0.082245 0.274870
vt 0.083104 0.273619
vt 0.074190 0.629426
vt 0.074424 0.627723
vt 0.128269 0.316620
vt 0.127949 0.318141
vt 0.127167 0.319224
vt 0.125937 0.319928
vt 0.126003 0.319229
vt 0.124108 0.319315
vt 0.123872 0.320224
vt 0.130554 0.651898
vt 0.132590 0.651128
vt 0.128229 0.314763
vt 0.132967 0.645357
vt 0.134027 0.647204
vt 0.079341 0.629420
vt 0.078796 0.630424
vt 0.087908 0.279003
vt 0.087292 0.279589
vt 0.086518 0.280596
vt 0.078151 0.632379
vt 0.085220 0.281806
vt 0.084143 0.283104
vt 0.083536 0.283916
vt 0.077787 0.633423
vt 0.081262 0.276101
vt 0.078324 0.273226
vt 0.079251 0.272197
vt 0.077603 0.279091
vt 0.075029 0.276029
vt 0.076212 0.275085
vt 0.077306 0.274176
vt 0.071661 0.631398
vt 0.072178 0.630334
vt 0.072580 0.629161
vt 0.072683 0.627995
vt 0.069579 0.628373
vt 0.069843 0.627361
vt 0.069286 0.629387
vt 0.080188 0.271068
vt 0.068960 0.630379
vt 0.783657 0.481357
vt 0.784046 0.480066
vt 0.785262 0.480460
vt 0.784885 0.481693
vt 0.786185 0.478048
vt 0.786730 0.476869
vt 0.789215 0.478128
vt 0.788716 0.479164
vt 0.786201 0.475073
vt 0.786890 0.473866
vt 0.788012 0.474560
vt 0.787339 0.475707
vt 0.792412 0.466911
vt 0.793594 0.465752
vt 0.794653 0.466951
vt 0.793462 0.468001
vt 0.783322 0.482665
vt 0.784567 0.482947
vt 0.791327 0.468054
vt 0.792354 0.469050
vt 0.783040 0.483996
vt 0.784306 0.484225
vt 0.790298 0.469185
vt 0.791351 0.470129
vt 0.782810 0.485353
vt 0.784102 0.485530
vt 0.785574 0.476295
vt 0.789344 0.470334
vt 0.790416 0.471215
vt 0.782632 0.486743
vt 0.783954 0.486865
vt 0.785005 0.477532
vt 0.788459 0.471497
vt 0.789548 0.472315
vt 0.782509 0.488178
vt 0.783864 0.488233
vt 0.784489 0.478788
vt 0.785705 0.479248
vt 0.787642 0.472674
vt 0.788748 0.473429
vt 0.782448 0.489690
vt 0.783849 0.489603
vt 0.794896 0.464555
vt 0.795936 0.465922
vt 0.794549 0.471381
vt 0.795603 0.470518
vt 0.796841 0.472184
vt 0.795881 0.472912
vt 0.792693 0.473195
vt 0.791871 0.474140
vt 0.786828 0.487017
vt 0.786830 0.488265
vt 0.788262 0.480212
vt 0.791112 0.475108
vt 0.786973 0.489620
vt 0.787870 0.481292
vt 0.790417 0.476096
vt 0.798149 0.468901
vt 0.796774 0.469685
vt 0.787537 0.482395
vt 0.789784 0.477104
vt 0.787265 0.483517
vt 0.787054 0.484658
vt 0.793584 0.472274
vt 0.786907 0.485823
vt 0.788778 0.489102
vt 0.788686 0.488103
vt 0.790385 0.488083
vt 0.790418 0.489023
vt 0.788995 0.483926
vt 0.788813 0.484966
vt 0.794979 0.473687
vt 0.788692 0.486014
vt 0.791355 0.478012
vt 0.790796 0.478942
vt 0.794138 0.474499
vt 0.788640 0.487065
vt 0.790278 0.479888
vt 0.793356 0.475341
vt 0.788667 0.488103
vt 0.789883 0.480885
vt 0.792632 0.476210
vt 0.788759 0.489102
vt 0.789533 0.481885
vt 0.791966 0.477101
vt 0.798865 0.470941
vt 0.797848 0.471526
vt 0.789237 0.482898
vt 0.117223 0.004196
vt 0.117525 0.003293
vt 0.118463 0.003791
vt 0.118271 0.004380
vt 0.789552 0.481891
vt 0.789901 0.480892
vt 0.791531 0.481549
vt 0.791211 0.482445
vt 0.791982 0.477113
vt 0.792648 0.476223
vt 0.794080 0.477408
vt 0.793453 0.478200
vt 0.797860 0.471545
vt 0.798876 0.470960
vt 0.799915 0.472652
vt 0.798932 0.473256
vt 0.789256 0.482903
vt 0.790944 0.483362
vt 0.791372 0.478023
vt 0.792881 0.479012
vt 0.796854 0.472203
vt 0.797997 0.473863
vt 0.789015 0.483930
vt 0.790728 0.484293
vt 0.795895 0.472929
vt 0.797109 0.474503
vt 0.788832 0.484969
vt 0.790563 0.485236
vt 0.794994 0.473703
vt 0.796273 0.475181
vt 0.788711 0.486016
vt 0.790451 0.486184
vt 0.790813 0.478952
vt 0.792365 0.479839
vt 0.794153 0.474514
vt 0.795490 0.475894
vt 0.788659 0.487066
vt 0.790392 0.487135
vt 0.790296 0.479897
vt 0.791911 0.480682
vt 0.793371 0.475355
vt 0.794759 0.476637
vt 0.119325 0.002924
vt 0.119911 0.002729
vt 0.120232 0.004683
vt 0.122344 0.002504
vt 0.122918 0.003257
vt 0.121989 0.003766
vt 0.121619 0.003270
vt 0.122437 0.006817
vt 0.121665 0.007403
vt 0.121151 0.006449
vt 0.121654 0.006078
vt 0.117215 0.005150
vt 0.118271 0.005002
vt 0.121573 0.001968
vt 0.121116 0.002911
vt 0.122983 0.006025
vt 0.122014 0.005569
vt 0.117502 0.006062
vt 0.118463 0.005593
vt 0.120683 0.001693
vt 0.120528 0.002720
vt 0.123257 0.005107
vt 0.122198 0.004974
vt 0.118059 0.006843
vt 0.118830 0.006097
vt 0.119752 0.001694
vt 0.123233 0.004153
vt 0.122189 0.004353
vt 0.118834 0.007416
vt 0.119336 0.006463
vt 0.118857 0.001981
vt 0.119754 0.007721
vt 0.119932 0.006652
vt 0.118089 0.002531
vt 0.118826 0.003289
vt 0.120736 0.007721
vt 0.120556 0.006641
vt 0.078745 0.632607
vt 0.073081 0.632572
vt 0.076212 0.275086
vt 0.130629 0.646777
vt 0.088234 0.279402
s 1
usemtl airship
f 117/1/1 116/2/2 78/3/3 77/4/4
f 34/5/5 4/6/6 8/7/7 35/8/8
f 60/9/9 62/10/10 30/11/11 13/12/12
f 36/13/13 6/14/14 2/15/15 33/16/16
f 66/17/17 72/18/18 27/19/19 12/20/20
f 35/8/21 8/7/22 24/21/23 38/22/24
f 85/23/25 84/24/26 42/25/27 45/26/28
f 65/27/29 67/28/30 9/29/31 11/30/32
f 68/31/33 66/17/34 12/20/35 10/32/36
f 67/33/37 70/34/38 25/35/39 9/36/40
f 82/37/41 83/38/42 43/39/43 44/40/41
f 58/41/44 64/42/45 31/43/46 16/44/47
f 57/45/48 60/46/49 13/47/50 15/48/51
f 59/49/52 58/41/53 16/44/54 14/50/55
f 61/51/56 59/52/57 14/53/58 29/54/59
f 39/55/60 19/56/61 4/57/6 34/58/5
f 63/59/62 57/45/63 15/48/64 32/60/65
f 115/61/66 113/62/67 80/63/68 79/64/69
f 37/65/70 23/66/71 6/14/72 36/13/73
f 71/67/74 65/27/75 11/30/76 28/68/77
f 69/69/78 68/70/33 10/71/36 26/72/79
f 61/51/56 29/54/59 30/11/11 62/10/10
f 81/73/80 82/37/81 44/40/82 48/74/83
f 69/69/78 26/72/79 25/35/39 70/34/38
f 63/59/62 32/60/65 31/43/46 64/42/45
f 113/62/67 114/75/84 76/76/85 80/63/68
f 71/67/74 28/68/77 27/19/19 72/18/18
f 37/65/70 22/77/86 21/78/87 38/22/24
f 39/55/60 18/79/88 17/80/89 40/81/90
f 33/82/91 2/83/92 20/84/93 40/81/90
f 1/85/94 33/82/91 40/81/90 17/80/89
f 19/56/61 39/55/60 40/81/90 20/84/93
f 23/66/71 37/65/70 38/22/24 24/21/23
f 22/77/86 37/65/70 36/13/73 5/86/95
f 18/79/88 39/55/60 34/58/5 3/87/96
f 7/88/97 35/8/21 38/22/24 21/78/87
f 5/86/98 36/13/13 33/16/16 1/89/99
f 3/90/96 34/5/5 35/8/8 7/88/100
f 44/40/101 43/39/102 51/91/103 52/92/101
f 47/93/104 48/74/105 56/94/106 55/95/107
f 45/26/108 42/25/109 50/96/110 53/97/111
f 86/98/112 81/73/80 48/74/83 47/93/113
f 87/99/114 85/23/25 45/26/28 46/100/115
f 88/101/116 86/98/112 47/93/113 41/102/117
f 84/103/26 88/101/118 41/102/119 42/104/27
f 83/105/42 87/99/114 46/100/115 43/106/43
f 56/94/120 52/92/121 100/107/122 104/108/123
f 50/109/124 49/110/125 97/111/126 98/112/127
f 41/102/128 47/93/104 55/95/107 49/110/128
f 43/106/102 46/100/129 54/113/130 51/114/103
f 46/100/129 45/26/108 53/97/111 54/113/130
f 42/104/109 41/102/131 49/110/131 50/109/110
f 48/74/105 44/40/132 52/92/132 56/94/106
f 28/68/77 63/59/62 64/42/45 27/19/19
f 26/72/79 61/51/56 62/10/10 25/35/39
f 28/68/77 11/30/76 57/45/63 63/59/62
f 26/72/79 10/71/36 59/52/57 61/51/56
f 10/32/36 12/20/35 58/41/53 59/49/52
f 11/30/32 9/29/31 60/46/49 57/45/48
f 12/20/20 27/19/19 64/42/45 58/41/44
f 9/36/40 25/35/39 62/10/10 60/9/9
f 22/77/86 71/67/74 72/18/18 21/78/87
f 18/79/88 69/69/78 70/34/38 17/80/89
f 18/79/88 3/87/96 68/70/33 69/69/78
f 22/77/86 5/86/95 65/27/75 71/67/74
f 1/85/94 17/80/89 70/34/38 67/33/37
f 3/90/96 7/88/100 66/17/34 68/31/33
f 5/86/98 1/89/99 67/28/30 65/27/29
f 7/88/97 21/78/87 72/18/18 66/17/17
f 76/76/133 74/115/134 77/116/4 80/63/135
f 79/64/136 78/117/137 73/118/138 75/119/139
f 78/117/137 79/64/136 80/63/135 77/116/4
f 118/120/140 115/61/66 79/64/69 75/119/141
f 119/121/142 118/120/143 75/119/139 73/118/138
f 120/122/144 117/1/1 77/4/4 74/123/134
f 114/75/145 120/124/144 74/115/134 76/76/133
f 116/2/2 119/125/146 73/126/147 78/3/3
f 95/127/148 92/128/149 87/99/114 83/105/42
f 96/129/150 93/130/151 88/101/118 84/103/26
f 93/130/152 91/131/153 86/98/112 88/101/116
f 92/128/149 90/132/154 85/23/25 87/99/114
f 91/131/153 89/133/155 81/73/80 86/98/112
f 89/133/155 94/134/156 82/37/81 81/73/80
f 94/134/157 95/135/158 83/38/159 82/37/159
f 90/132/154 96/136/160 84/24/26 85/23/25
f 29/54/59 14/53/58 96/136/160 90/132/154
f 15/48/51 13/47/50 95/135/158 94/134/157
f 32/60/65 15/48/64 94/134/156 89/133/155
f 31/43/46 32/60/65 89/133/155 91/131/153
f 30/11/11 29/54/59 90/132/154 92/128/149
f 16/44/47 31/43/46 91/131/153 93/130/152
f 14/50/55 16/44/54 93/130/151 96/129/150
f 13/12/12 30/11/11 92/128/149 95/127/148
f 97/111/161 103/137/162 111/138/163 105/139/164
f 100/107/165 99/140/166 107/141/167 108/142/168
f 103/137/162 104/108/123 112/143/169 111/138/163
f 53/97/170 50/96/124 98/144/127 101/145/171
f 55/95/172 56/94/120 104/108/123 103/137/162
f 52/92/173 51/91/174 99/140/166 100/107/165
f 49/110/175 55/95/172 103/137/162 97/111/161
f 51/114/174 54/113/176 102/146/177 99/147/166
f 99/147/166 102/146/177 110/148/178 107/149/167
f 102/146/177 101/145/171 109/150/179 110/148/178
f 98/112/127 97/111/126 105/139/180 106/151/181
f 104/108/123 100/107/122 108/142/182 112/143/169
f 101/145/171 98/144/127 106/152/181 109/150/179
f 20/84/93 2/83/92 119/125/146 116/2/2
f 8/7/7 4/6/6 120/124/144 114/75/145
f 4/57/6 19/56/61 117/1/1 120/122/144
f 2/15/15 6/14/14 118/120/143 119/121/142
f 6/14/72 23/66/71 115/61/66 118/120/140
f 24/21/23 8/7/22 114/75/84 113/62/67
f 23/66/71 24/21/23 113/62/67 115/61/66
f 19/56/61 20/84/93 116/2/2 117/1/1
f 126/153/183 125/154/184 606/155/184 607/156/183
f 604/157/185 142/158/186 162/159/186 163/160/185
f 121/161/187 140/162/188 621/163/188 603/164/187
f 134/165/189 133/166/190 614/167/190 615/168/189
f 127/169/191 126/153/183 607/156/183 608/170/191
f 135/171/192 134/165/189 615/168/189 616/172/192
f 128/173/193 127/169/191 608/170/191 609/174/193
f 136/175/194 135/171/192 616/172/192 617/176/194
f 129/177/195 128/173/193 609/174/193 610/178/195
f 122/179/196 121/161/187 603/164/187 602/158/196
f 137/180/197 136/175/194 617/176/194 618/181/197
f 130/182/198 129/177/195 610/178/195 611/183/198
f 123/184/199 122/179/196 602/158/196 143/157/199
f 138/185/200 137/180/197 618/181/197 619/186/200
f 131/187/201 130/182/198 611/183/198 612/188/201
f 124/189/202 123/184/199 143/157/199 605/190/202
f 139/191/203 138/185/200 619/186/200 620/192/203
f 132/193/204 131/187/201 612/188/201 613/194/205
f 125/154/184 124/189/202 605/190/202 606/155/184
f 140/162/188 139/191/203 620/192/203 621/163/188
f 133/166/190 132/195/204 613/196/205 614/167/190
f 175/197/206 174/198/207 635/199/207 636/200/206
f 158/186/208 157/181/209 177/201/209 178/202/208
f 151/188/210 150/183/211 170/203/211 171/204/210
f 144/190/212 604/157/185 163/160/185 164/205/212
f 159/192/213 158/186/208 178/202/208 179/206/213
f 152/194/214 151/188/210 171/204/210 172/207/214
f 145/155/215 144/190/212 164/205/212 165/208/215
f 160/163/216 159/192/213 179/206/213 180/209/216
f 153/167/217 152/196/214 172/210/214 173/211/217
f 146/156/218 145/155/215 165/208/215 166/212/218
f 141/164/219 160/163/216 180/209/216 161/213/219
f 154/168/220 153/167/217 173/211/217 174/198/220
f 147/170/221 146/156/218 166/212/218 167/214/221
f 155/172/222 154/168/220 174/198/220 175/197/222
f 148/174/223 147/170/221 167/214/221 168/215/223
f 156/176/224 155/172/222 175/197/222 176/216/224
f 149/178/225 148/174/223 168/215/223 169/217/225
f 142/158/186 141/164/219 161/213/219 162/159/186
f 157/181/209 156/176/224 176/216/224 177/201/209
f 150/183/211 149/178/225 169/217/225 170/203/211
f 633/218/214 191/219/210 211/220/210 212/221/214
f 168/215/226 167/214/227 628/222/227 629/223/226
f 176/216/228 175/197/206 636/200/206 637/224/228
f 169/217/229 168/215/226 629/223/226 630/225/229
f 162/159/230 161/213/231 623/226/231 622/227/230
f 177/201/232 176/216/228 637/224/228 638/228/232
f 170/203/233 169/217/229 630/225/229 631/229/233
f 163/160/234 162/159/230 622/227/230 624/230/234
f 178/202/235 177/201/232 638/228/232 639/231/235
f 171/204/236 170/203/233 631/229/233 632/232/236
f 164/205/237 163/160/234 624/230/234 625/233/237
f 179/206/238 178/202/235 639/231/235 640/234/238
f 172/207/239 171/204/236 632/232/236 192/235/239
f 165/208/240 164/205/237 625/233/237 626/236/240
f 180/209/241 179/206/238 640/234/238 641/237/241
f 173/211/242 172/210/239 192/238/239 634/239/242
f 166/212/243 165/208/240 626/236/240 627/240/243
f 161/213/231 180/209/241 641/237/241 623/226/231
f 174/198/207 173/211/242 634/239/242 635/199/207
f 167/214/227 166/212/243 627/240/243 628/222/227
f 209/241/244 208/242/245 228/243/245 229/244/244
f 185/245/215 184/246/212 204/247/212 205/248/215
f 200/249/216 199/250/213 219/251/213 220/252/216
f 193/253/217 633/254/214 212/255/214 213/256/217
f 186/257/218 185/245/215 205/248/215 206/258/218
f 181/259/219 200/249/216 220/252/216 201/260/219
f 194/261/220 193/253/217 213/256/217 214/262/220
f 187/263/221 186/257/218 206/258/218 207/264/221
f 195/265/222 194/261/220 214/262/220 215/266/222
f 188/267/223 187/263/221 207/264/221 208/268/223
f 196/269/224 195/265/222 215/266/222 216/270/224
f 189/271/225 188/267/223 208/268/223 209/272/225
f 182/273/186 181/259/219 201/260/219 202/274/186
f 197/275/209 196/269/224 216/270/224 217/276/209
f 190/277/211 189/271/225 209/272/225 210/278/211
f 183/279/185 182/273/186 202/274/186 203/280/185
f 198/281/208 197/275/209 217/276/209 218/282/208
f 191/219/210 190/277/211 210/278/211 211/220/210
f 184/246/212 183/279/185 203/280/185 204/247/212
f 199/250/213 198/281/208 218/282/208 219/251/213
f 226/283/246 225/284/246 241/285/246
f 202/286/247 201/287/248 221/288/248 222/289/247
f 217/290/249 216/291/250 236/292/250 237/293/249
f 210/294/251 209/241/244 229/244/244 230/295/251
f 203/296/252 202/286/247 222/289/247 223/297/252
f 218/298/253 217/290/249 237/293/249 238/299/253
f 211/300/254 210/294/251 230/295/251 231/301/254
f 204/302/255 203/296/252 223/297/252 224/303/255
f 219/304/256 218/298/253 238/299/253 239/305/256
f 212/306/257 211/300/254 231/301/254 232/307/257
f 205/308/258 204/302/255 224/303/255 225/284/258
f 220/309/259 219/304/256 239/305/256 240/310/259
f 213/311/260 212/306/257 232/307/257 233/312/260
f 206/313/261 205/308/258 225/284/258 226/283/261
f 201/287/248 220/309/259 240/310/259 221/288/248
f 214/314/262 213/311/260 233/312/260 234/315/262
f 207/316/263 206/313/261 226/283/261 227/317/263
f 215/318/264 214/314/262 234/315/262 235/319/264
f 208/242/245 207/316/263 227/317/263 228/243/245
f 216/291/250 215/318/264 235/319/264 236/292/250
f 221/288/246 240/310/246 241/285/246
f 234/315/246 233/312/246 241/285/246
f 227/317/246 226/283/246 241/285/246
f 235/319/246 234/315/246 241/285/246
f 228/243/246 227/317/246 241/285/246
f 236/292/246 235/319/246 241/285/246
f 229/244/246 228/243/246 241/285/246
f 222/289/246 221/288/246 241/285/246
f 237/293/246 236/292/246 241/285/246
f 230/295/246 229/244/246 241/285/246
f 223/297/246 222/289/246 241/285/246
f 238/299/246 237/293/246 241/285/246
f 231/301/246 230/295/246 241/285/246
f 224/303/246 223/297/246 241/285/246
f 239/305/246 238/299/246 241/285/246
f 232/307/246 231/301/246 241/285/246
f 225/284/246 224/303/246 241/285/246
f 240/310/246 239/305/246 241/285/246
f 233/312/246 232/307/246 241/285/246
f 358/1/265 357/2/266 319/3/267 318/4/268
f 275/5/269 245/6/270 249/7/271 276/8/272
f 301/9/273 303/10/274 271/11/275 254/12/276
f 277/13/277 247/14/278 243/15/279 274/16/280
f 307/17/281 313/18/282 268/19/283 253/20/284
f 276/8/285 249/7/286 265/21/287 279/22/288
f 326/23/289 325/24/290 283/25/291 286/26/292
f 306/27/293 308/28/294 250/29/295 252/30/296
f 309/31/297 307/17/298 253/20/299 251/32/300
f 308/33/301 311/34/302 266/35/303 250/36/304
f 323/37/305 324/38/306 284/39/307 285/40/305
f 299/41/308 305/42/309 272/43/310 257/44/311
f 298/45/312 301/46/313 254/47/314 256/48/315
f 300/49/316 299/41/317 257/44/318 255/50/319
f 302/51/320 300/52/321 255/53/322 270/320/323
f 280/55/324 260/56/325 245/57/270 275/58/269
f 304/59/326 298/45/327 256/48/328 273/60/329
f 356/61/330 354/62/331 321/63/332 320/64/333
f 278/65/334 264/66/335 247/14/336 277/13/337
f 312/67/338 306/27/339 252/30/340 269/68/341
f 310/69/342 309/70/297 251/71/300 267/72/343
f 302/51/320 270/320/323 271/11/275 303/10/274
f 322/73/344 323/37/345 285/40/346 289/74/347
f 310/69/342 267/72/343 266/35/303 311/34/302
f 304/59/326 273/60/329 272/43/310 305/42/309
f 354/62/331 355/75/348 317/76/349 321/63/332
f 312/67/338 269/68/341 268/19/283 313/18/282
f 278/65/334 263/77/350 262/78/351 279/22/288
f 280/55/324 259/79/352 258/80/353 281/81/354
f 274/82/355 243/83/356 261/84/357 281/81/354
f 242/85/358 274/82/355 281/81/354 258/80/353
f 260/56/325 280/55/324 281/81/354 261/84/357
f 264/66/335 278/65/334 279/22/288 265/21/287
f 263/77/350 278/65/334 277/13/337 246/86/359
f 259/79/352 280/55/324 275/58/269 244/87/360
f 248/88/361 276/8/285 279/22/288 262/78/351
f 246/86/362 277/13/277 274/16/280 242/89/363
f 244/90/360 275/5/269 276/8/272 248/88/364
f 285/40/365 284/39/366 292/91/367 293/92/365
f 288/93/368 289/74/369 297/94/370 296/95/371
f 286/26/372 283/25/373 291/321/374 294/97/375
f 327/98/376 322/73/344 289/74/347 288/93/377
f 328/99/378 326/23/289 286/26/292 287/100/379
f 329/101/380 327/98/376 288/93/377 282/102/381
f 325/103/290 329/101/382 282/102/383 283/104/291
f 324/105/306 328/99/378 287/100/379 284/106/307
f 297/94/384 293/92/385 341/107/386 345/108/387
f 291/109/388 290/110/389 338/111/390 339/112/391
f 295/113/392 294/97/393 342/145/394 343/146/395
f 282/102/396 288/93/368 296/95/371 290/110/396
f 284/106/366 287/100/397 295/113/398 292/114/367
f 287/100/397 286/26/372 294/97/375 295/113/398
f 283/104/373 282/102/399 290/110/399 291/109/374
f 289/74/369 285/40/400 293/92/400 297/94/370
f 269/68/341 304/59/326 305/42/309 268/19/283
f 267/72/343 302/51/320 303/10/274 266/35/303
f 269/68/341 252/30/340 298/45/327 304/59/326
f 267/72/343 251/71/300 300/52/321 302/51/320
f 251/32/300 253/20/299 299/41/317 300/49/316
f 252/30/296 250/29/295 301/46/313 298/45/312
f 253/20/284 268/19/283 305/42/309 299/41/308
f 250/36/304 266/35/303 303/10/274 301/9/273
f 263/77/350 312/67/338 313/18/282 262/78/351
f 259/79/352 310/69/342 311/34/302 258/80/353
f 259/79/352 244/87/360 309/70/297 310/69/342
f 263/77/350 246/86/359 306/27/339 312/67/338
f 242/85/358 258/80/353 311/34/302 308/33/301
f 244/90/360 248/88/364 307/17/298 309/31/297
f 246/86/362 242/89/363 308/28/294 306/27/293
f 248/88/361 262/78/351 313/18/282 307/17/281
f 317/76/401 315/115/402 318/116/268 321/63/403
f 320/64/404 319/117/405 314/118/406 316/119/407
f 319/117/405 320/64/404 321/63/403 318/116/268
f 359/120/408 356/61/330 320/64/333 316/119/409
f 360/121/410 359/120/411 316/119/407 314/118/406
f 361/122/412 358/1/265 318/4/268 315/123/402
f 355/75/413 361/124/412 315/115/402 317/76/401
f 357/2/266 360/125/414 314/126/415 319/3/267
f 336/127/416 333/128/417 328/99/378 324/105/306
f 337/129/418 334/130/419 329/101/382 325/103/290
f 334/130/420 332/131/421 327/98/376 329/101/380
f 333/128/417 331/132/422 326/23/289 328/99/378
f 332/131/421 330/133/423 322/73/344 327/98/376
f 330/133/423 335/134/424 323/37/345 322/73/344
f 335/134/425 336/135/426 324/38/427 323/37/427
f 331/132/422 337/136/428 325/24/290 326/23/289
f 270/320/323 255/53/322 337/136/428 331/132/422
f 256/48/315 254/47/314 336/135/426 335/134/425
f 273/60/329 256/48/328 335/134/424 330/133/423
f 272/43/310 273/60/329 330/133/423 332/131/421
f 271/11/275 270/320/323 331/132/422 333/128/417
f 257/44/311 272/43/310 332/131/421 334/130/420
f 255/50/319 257/44/318 334/130/419 337/129/418
f 254/12/276 271/11/275 333/128/417 336/127/416
f 338/111/429 344/137/430 352/138/431 346/139/432
f 341/107/433 340/140/434 348/141/435 349/322/436
f 344/137/430 345/108/387 353/143/437 352/138/431
f 294/97/393 291/321/388 339/144/391 342/145/394
f 296/95/438 297/94/384 345/108/387 344/137/430
f 293/92/439 292/91/440 340/140/434 341/107/433
f 290/110/441 296/95/438 344/137/430 338/111/429
f 292/114/440 295/113/392 343/146/395 340/147/434
f 340/147/434 343/146/395 351/148/442 348/149/435
f 343/146/395 342/145/394 350/150/443 351/148/442
f 339/112/391 338/111/390 346/139/444 347/151/445
f 345/108/387 341/107/386 349/322/446 353/143/437
f 342/145/394 339/144/391 347/152/445 350/150/443
f 261/84/357 243/83/356 360/125/414 357/2/266
f 249/7/271 245/6/270 361/124/412 355/75/413
f 245/57/270 260/56/325 358/1/265 361/122/412
f 243/15/279 247/14/278 359/120/411 360/121/410
f 247/14/336 264/66/335 356/61/330 359/120/408
f 265/21/287 249/7/286 355/75/348 354/62/331
f 264/66/335 265/21/287 354/62/331 356/61/330
f 260/56/325 261/84/357 357/2/266 358/1/265
f 478/1/447 477/2/448 439/3/449 438/4/450
f 395/5/451 365/6/452 369/7/453 396/8/454
f 421/9/455 423/10/456 391/11/457 374/12/458
f 397/13/459 367/14/460 363/15/461 394/16/462
f 427/17/463 433/18/464 388/19/465 373/20/466
f 396/8/467 369/7/468 385/21/469 399/22/470
f 446/23/471 445/24/472 403/25/473 406/26/474
f 426/27/475 428/28/476 370/29/477 372/30/478
f 429/31/479 427/17/480 373/20/481 371/32/482
f 428/33/483 431/34/484 386/35/485 370/36/486
f 443/37/487 444/38/488 404/39/489 405/40/487
f 419/41/490 425/42/491 392/43/492 377/44/493
f 418/45/494 421/46/495 374/47/496 376/48/497
f 420/49/498 419/41/499 377/44/500 375/50/501
f 422/51/502 420/52/503 375/53/504 390/320/505
f 400/55/506 380/56/507 365/57/452 395/58/451
f 424/59/508 418/45/509 376/48/510 393/60/511
f 476/61/512 474/62/513 441/63/514 440/64/515
f 398/65/516 384/66/517 367/14/518 397/13/519
f 432/67/520 426/27/521 372/30/522 389/68/523
f 430/69/524 429/70/479 371/71/482 387/72/525
f 422/51/502 390/320/505 391/11/457 423/10/456
f 442/73/526 443/37/527 405/40/528 409/74/529
f 430/69/524 387/72/525 386/35/485 431/34/484
f 424/59/508 393/60/511 392/43/492 425/42/491
f 474/62/513 475/75/530 437/76/531 441/63/514
f 432/67/520 389/68/523 388/19/465 433/18/464
f 398/65/516 383/77/532 382/78/533 399/22/470
f 400/55/506 379/79/534 378/80/535 401/81/536
f 394/82/537 363/83/538 381/323/539 401/81/536
f 362/85/540 394/82/537 401/81/536 378/80/535
f 380/56/507 400/55/506 401/81/536 381/323/539
f 384/66/517 398/65/516 399/22/470 385/21/469
f 383/77/532 398/65/516 397/13/519 366/86/541
f 379/79/534 400/55/506 395/58/451 364/87/542
f 368/88/543 396/8/467 399/22/470 382/78/533
f 366/86/544 397/13/459 394/16/462 362/89/545
f 364/90/542 395/5/451 396/8/454 368/88/546
f 405/40/547 404/39/548 412/91/549 413/92/547
f 408/93/550 409/74/551 417/94/552 416/95/553
f 406/26/554 403/25/555 411/96/556 414/97/557
f 447/98/558 442/73/526 409/74/529 408/93/559
f 448/99/560 446/23/471 406/26/474 407/100/561
f 449/101/562 447/98/558 408/93/559 402/102/563
f 445/103/472 449/101/564 402/102/565 403/104/473
f 444/105/488 448/99/560 407/100/561 404/106/489
f 417/94/566 413/92/567 461/107/568 465/108/569
f 411/109/570 410/110/571 458/111/572 459/112/573
f 415/113/574 414/97/575 462/145/576 463/146/577
f 402/102/578 408/93/550 416/95/553 410/110/578
f 404/106/548 407/100/579 415/113/580 412/114/549
f 407/100/579 406/26/554 414/97/557 415/113/580
f 403/104/555 402/102/581 410/110/581 411/109/556
f 409/74/551 405/40/582 413/92/582 417/94/552
f 389/68/523 424/59/508 425/42/491 388/19/465
f 387/72/525 422/51/502 423/10/456 386/35/485
f 389/68/523 372/30/522 418/45/509 424/59/508
f 387/72/525 371/71/482 420/52/503 422/51/502
f 371/32/482 373/20/481 419/41/499 420/49/498
f 372/30/478 370/29/477 421/46/495 418/45/494
f 373/20/466 388/19/465 425/42/491 419/41/490
f 370/36/486 386/35/485 423/10/456 421/9/455
f 383/77/532 432/67/520 433/18/464 382/78/533
f 379/79/534 430/69/524 431/34/484 378/80/535
f 379/79/534 364/87/542 429/70/479 430/69/524
f 383/77/532 366/86/541 426/27/521 432/67/520
f 362/85/540 378/80/535 431/34/484 428/33/483
f 364/90/542 368/88/546 427/17/480 429/31/479
f 366/86/544 362/89/545 428/28/476 426/27/475
f 368/88/543 382/78/533 433/18/464 427/17/463
f 437/76/583 435/115/584 438/116/450 441/63/585
f 440/64/586 439/117/587 434/118/588 436/119/589
f 439/117/587 440/64/586 441/63/585 438/116/450
f 479/120/590 476/61/512 440/64/515 436/119/591
f 480/121/592 479/120/593 436/119/589 434/118/588
f 481/122/594 478/1/447 438/4/450 435/123/584
f 475/75/595 481/124/594 435/115/584 437/76/583
f 477/2/448 480/125/596 434/126/597 439/3/449
f 456/127/598 453/128/599 448/99/560 444/105/488
f 457/129/600 454/130/601 449/101/564 445/103/472
f 454/130/602 452/131/603 447/98/558 449/101/562
f 453/128/599 451/132/604 446/23/471 448/99/560
f 452/131/603 450/133/605 442/73/526 447/98/558
f 450/133/605 455/134/606 443/37/527 442/73/526
f 455/134/607 456/135/608 444/38/609 443/37/609
f 451/132/604 457/136/610 445/24/472 446/23/471
f 390/320/505 375/53/504 457/136/610 451/132/604
f 376/48/497 374/47/496 456/135/608 455/134/607
f 393/60/511 376/48/510 455/134/606 450/133/605
f 392/43/492 393/60/511 450/133/605 452/131/603
f 391/11/457 390/320/505 451/132/604 453/128/599
f 377/44/493 392/43/492 452/131/603 454/130/602
f 375/50/501 377/44/500 454/130/601 457/129/600
f 374/12/458 391/11/457 453/128/599 456/127/598
f 458/111/611 464/137/612 472/138/613 466/139/614
f 461/107/615 460/140/616 468/141/617 469/142/618
f 464/137/612 465/108/569 473/143/619 472/138/613
f 414/97/575 411/96/570 459/144/573 462/145/576
f 416/95/620 417/94/566 465/108/569 464/137/612
f 413/92/621 412/91/622 460/140/616 461/107/615
f 410/110/623 416/95/620 464/137/612 458/111/611
f 412/114/622 415/113/574 463/146/577 460/147/616
f 460/147/616 463/146/577 471/148/624 468/149/617
f 463/146/577 462/145/576 470/150/625 471/148/624
f 459/112/573 458/111/572 466/139/626 467/151/627
f 465/108/569 461/107/568 469/142/628 473/143/619
f 462/145/576 459/144/573 467/152/627 470/150/625
f 381/323/539 363/83/538 480/125/596 477/2/448
f 369/7/453 365/6/452 481/124/594 475/75/595
f 365/57/452 380/56/507 478/1/447 481/122/594
f 363/15/461 367/14/460 479/120/593 480/121/592
f 367/14/518 384/66/517 476/61/512 479/120/590
f 385/21/469 369/7/468 475/75/530 474/62/513
f 384/66/517 385/21/469 474/62/513 476/61/512
f 380/56/507 381/323/539 477/2/448 478/1/447
f 598/1/629 597/2/630 559/3/631 558/4/632
f 515/5/633 485/6/634 489/7/635 516/8/636
f 541/9/637 543/10/638 511/11/639 494/12/640
f 517/13/641 487/14/642 483/15/643 514/16/644
f 547/17/645 553/18/646 508/19/647 493/20/648
f 516/8/649 489/7/650 505/21/651 519/22/652
f 566/23/653 565/24/654 523/25/655 526/26/656
f 546/27/657 548/28/658 490/29/659 492/30/660
f 549/31/661 547/17/662 493/20/663 491/32/664
f 548/33/665 551/34/666 506/35/667 490/36/668
f 563/37/669 564/38/670 524/39/671 525/40/669
f 539/41/672 545/42/673 512/43/674 497/44/675
f 538/45/676 541/46/677 494/47/678 496/48/679
f 540/49/680 539/41/681 497/44/682 495/324/683
f 542/51/684 540/52/685 495/53/686 510/54/687
f 520/55/688 500/56/689 485/57/634 515/58/633
f 544/59/690 538/45/691 496/48/692 513/60/693
f 596/61/694 594/62/695 561/63/696 560/64/697
f 518/65/698 504/66/699 487/14/700 517/13/701
f 552/67/702 546/27/703 492/30/704 509/68/705
f 550/69/706 549/70/661 491/71/664 507/72/707
f 542/51/684 510/54/687 511/11/639 543/10/638
f 562/73/708 563/37/709 525/40/710 529/74/711
f 550/69/706 507/72/707 506/35/667 551/34/666
f 544/59/690 513/60/693 512/43/674 545/42/673
f 594/62/695 595/75/712 557/76/713 561/63/696
f 552/67/702 509/68/705 508/19/647 553/18/646
f 518/65/698 503/77/714 502/78/715 519/22/652
f 520/55/688 499/79/716 498/80/717 521/81/718
f 514/82/719 483/83/720 501/323/721 521/81/718
f 482/85/722 514/82/719 521/81/718 498/80/717
f 500/56/689 520/55/688 521/81/718 501/323/721
f 504/66/699 518/65/698 519/22/652 505/21/651
f 503/77/714 518/65/698 517/13/701 486/86/723
f 499/79/716 520/55/688 515/58/633 484/87/724
f 488/88/725 516/8/649 519/22/652 502/78/715
f 486/86/726 517/13/641 514/16/644 482/89/727
f 484/90/724 515/5/633 516/8/636 488/88/728
f 525/40/729 524/39/730 532/91/731 533/92/729
f 528/93/732 529/74/733 537/94/734 536/95/735
f 526/26/736 523/25/737 531/96/738 534/97/739
f 567/98/740 562/73/708 529/74/711 528/93/741
f 568/99/742 566/23/653 526/26/656 527/100/743
f 569/101/744 567/98/740 528/93/741 522/102/745
f 565/103/654 569/101/746 522/102/747 523/104/655
f 564/105/670 568/99/742 527/100/743 524/106/671
f 537/94/748 533/92/749 581/107/750 585/108/751
f 531/109/752 530/110/753 578/111/754 579/112/755
f 535/113/756 534/97/757 582/145/758 583/146/759
f 522/102/760 528/93/732 536/95/735 530/110/760
f 524/106/730 527/100/761 535/113/762 532/114/731
f 527/100/761 526/26/736 534/97/739 535/113/762
f 523/104/737 522/102/763 530/110/763 531/109/738
f 529/74/733 525/40/764 533/92/764 537/94/734
f 509/68/705 544/59/690 545/42/673 508/19/647
f 507/72/707 542/51/684 543/10/638 506/35/667
f 509/68/705 492/30/704 538/45/691 544/59/690
f 507/72/707 491/71/664 540/52/685 542/51/684
f 491/32/664 493/20/663 539/41/681 540/49/680
f 492/30/660 490/29/659 541/46/677 538/45/676
f 493/20/648 508/19/647 545/42/673 539/41/672
f 490/36/668 506/35/667 543/10/638 541/9/637
f 503/77/714 552/67/702 553/18/646 502/78/715
f 499/79/716 550/69/706 551/34/666 498/80/717
f 499/79/716 484/87/724 549/70/661 550/69/706
f 503/77/714 486/86/723 546/27/703 552/67/702
f 482/85/722 498/80/717 551/34/666 548/33/665
f 484/90/724 488/88/728 547/17/662 549/31/661
f 486/86/726 482/89/727 548/28/658 546/27/657
f 488/88/725 502/78/715 553/18/646 547/17/645
f 557/76/765 555/115/766 558/116/632 561/63/767
f 560/64/768 559/117/769 554/118/770 556/119/771
f 559/117/769 560/64/768 561/63/767 558/116/632
f 599/120/772 596/61/694 560/64/697 556/119/773
f 600/121/774 599/120/775 556/119/771 554/118/770
f 601/122/776 598/1/629 558/4/632 555/123/766
f 595/75/777 601/124/776 555/115/766 557/76/765
f 597/2/630 600/125/778 554/126/779 559/3/631
f 576/127/780 573/128/781 568/99/742 564/105/670
f 577/129/782 574/130/783 569/101/746 565/103/654
f 574/130/784 572/131/785 567/98/740 569/101/744
f 573/128/781 571/132/786 566/23/653 568/99/742
f 572/131/785 570/133/787 562/73/708 567/98/740
f 570/133/787 575/134/788 563/37/709 562/73/708
f 575/134/789 576/135/790 564/38/791 563/37/791
f 571/132/786 577/136/792 565/24/654 566/23/653
f 510/54/687 495/53/686 577/136/792 571/132/786
f 496/48/679 494/47/678 576/135/790 575/134/789
f 513/60/693 496/48/692 575/134/788 570/133/787
f 512/43/674 513/60/693 570/133/787 572/131/785
f 511/11/639 510/54/687 571/132/786 573/128/781
f 497/44/675 512/43/674 572/131/785 574/130/784
f 495/324/683 497/44/682 574/130/783 577/129/782
f 494/12/640 511/11/639 573/128/781 576/127/780
f 578/111/793 584/137/794 592/138/795 586/139/796
f 581/107/797 580/140/798 588/141/799 589/142/800
f 584/137/794 585/108/751 593/143/801 592/138/795
f 534/97/757 531/96/752 579/144/755 582/145/758
f 536/95/802 537/94/748 585/108/751 584/137/794
f 533/92/803 532/91/804 580/140/798 581/107/797
f 530/110/805 536/95/802 584/137/794 578/111/793
f 580/147/798 583/146/759 591/148/806 588/149/799
f 579/112/755 578/111/754 586/139/807 587/151/808
f 585/108/751 581/107/750 589/142/809 593/143/801
f 582/145/758 579/144/755 587/152/808 590/150/810
f 501/323/721 483/83/720 600/125/778 597/2/630
f 489/7/635 485/6/634 601/124/776 595/75/777
f 485/57/634 500/56/689 598/1/629 601/122/776
f 483/15/643 487/14/642 599/120/775 600/121/774
f 487/14/700 504/66/699 596/61/694 599/120/772
f 505/21/651 489/7/650 595/75/712 594/62/695
f 504/66/699 505/21/651 594/62/695 596/61/694
f 500/56/689 501/323/721 597/2/630 598/1/629
