# Blender 5.1.1
# www.blender.org
mtllib WhiteRabbitHead.mtl
o Mesh_rdmobj02.001
v 12.050076 -0.757660 -3.562363
v 10.962398 0.443798 -2.607445
v 9.823427 2.678909 -2.856976
v 10.896119 -0.011043 2.276167
v 9.273025 2.279942 1.984137
v 7.984385 1.414510 5.933699
v 7.769692 3.576134 1.645188
v 5.785522 4.776139 5.847303
v 6.269531 8.090481 1.194425
v 0.756008 14.891045 -2.998238
v 1.822843 14.215668 -1.846903
v 1.055250 15.116158 -1.784115
v 1.206521 15.012146 -0.046738
v 0.237785 16.105156 -0.448397
v 0.867430 16.766823 1.939725
v 0.237784 17.305862 2.051760
v 0.237784 17.553444 4.590039
v -0.391863 16.766823 1.939724
v 1.961626 14.004929 0.774314
v 1.061359 14.603485 1.440577
v 0.710533 13.616486 2.906192
v 0.237785 14.609100 3.379115
v 0.499294 13.619507 5.245203
v 0.237783 14.257027 5.379724
v 2.119795 -10.177474 8.326071
v 1.525955 -8.832278 10.060545
v 2.499441 -8.932761 9.706863
v 2.879085 -7.688064 11.087661
v 4.041516 -7.688064 9.882920
v 4.928089 -5.478225 10.679590
v 5.494433 -5.478225 9.453973
v 5.341528 -3.426173 10.616692
v -1.644235 -10.177478 8.326067
v -1.050397 -8.832278 10.060545
v -2.023882 -8.932761 9.706863
v -2.403526 -7.688064 11.087659
v -3.565959 -7.688064 9.882917
v -4.452531 -5.478221 10.679589
v -5.018874 -5.478221 9.453972
v -4.865971 -3.426169 10.616689
v -0.280439 14.891045 -2.998239
v 0.237786 14.283478 -3.976608
v -1.347275 14.215668 -1.846903
v -1.235232 14.103966 -3.815762
v -2.987723 13.420334 -1.831268
v -3.580044 12.684151 -4.420008
v -3.951324 12.684151 -1.837232
v -4.879695 11.157188 -2.073948
v -7.119124 4.742241 -2.625572
v -9.347862 2.678909 -2.856977
v -8.797461 2.279946 1.984134
v -10.420557 -0.011039 2.276164
v -7.508823 1.414513 5.933695
v 0.237783 11.157196 5.955826
v 0.237782 8.509530 7.113312
v 1.525014 9.006516 6.619379
v 1.191803 8.509530 6.839580
v 1.506940 8.767808 7.054081
v 1.439861 8.633126 6.716331
v 2.657774 9.259240 6.952125
v 2.886892 1.095181 10.123148
v 2.647151 0.379041 10.792253
v 4.566694 0.235223 9.832007
v 4.792422 -1.635707 10.659030
v 5.847822 0.208535 9.044801
v 7.698492 -1.282783 8.870616
v 6.849862 0.446542 8.018292
v 1.822843 14.215668 -1.846903
v 1.710803 14.103966 -3.815761
v 0.237785 12.684150 -6.458014
v -2.027426 12.684151 -5.925372
v 0.699279 15.701683 3.701495
v 0.237784 16.193779 3.926928
v 0.237784 15.617119 1.756108
v -0.223710 15.701683 3.701496
v -0.585790 14.603485 1.440576
v -0.234965 13.616486 2.906193
v 0.237779 -7.688048 11.174922
v -1.050397 -8.832278 10.060545
v 0.237780 -7.688045 5.243364
v -1.644235 -10.177478 8.326067
v -0.686325 -11.208816 8.138370
v -0.780874 -10.979056 9.352439
v 0.237779 -11.416667 8.439640
v -8.215051 -7.021962 -7.624786
v -2.301128 -9.526513 -10.291056
v -3.811854 -7.021966 -11.541836
v 0.237782 -7.021958 -12.738601
v 0.237784 -3.589146 -13.116969
v 4.287418 -7.021970 -11.541836
v -11.699523 -3.303738 -3.593337
v -11.045009 -3.426170 -2.536446
v -11.574511 -0.757656 -3.562366
v -10.486835 0.443802 -2.607449
v -10.942161 1.270748 -4.054232
v -1.486058 14.004929 0.774314
v 0.237783 12.684151 4.196242
v -1.880458 12.684151 3.605616
v -2.176626 11.157188 5.228527
v -2.320559 9.797768 6.029622
v -3.738360 8.328957 5.494219
v -1.347275 14.215668 -1.846903
v -0.730952 15.012146 -0.046739
v -0.579679 15.116158 -1.784117
v -0.297220 17.074287 -0.761447
v 0.237785 19.383163 1.431203
v 0.237785 17.712418 -0.888689
v -7.222932 -1.282783 8.870612
v -4.316861 -1.635707 10.659028
v -5.372261 0.208539 9.044798
v -4.091133 0.235223 9.832007
v -3.879462 0.116410 9.178270
v -2.659361 0.762811 9.408090
v -4.410301 0.716966 8.652791
v -0.964298 8.633126 6.716330
v -0.419453 4.742272 7.725864
v -0.716239 8.509530 6.839579
v -1.049450 9.006516 6.619376
v 4.241209 11.157188 3.785677
v 4.987306 8.090481 4.958240
v 4.213923 8.328957 5.494219
v 4.156234 7.734509 6.351007
v -3.765643 11.157188 3.785677
v -5.793965 8.090481 1.194425
v -4.511742 8.090481 4.958237
v -5.309960 4.776139 5.847303
v -3.680670 7.734509 6.351009
v -2.182209 9.259240 6.952125
v 5.355263 11.157188 -2.073946
v 4.426892 12.684151 -1.837230
v 5.187466 11.157188 1.112212
v 4.001150 12.684151 1.104653
v 2.356025 12.684151 3.605617
v 7.594690 4.742241 -2.625569
v 1.486858 1.534413 9.312822
v 0.237780 1.677323 9.438003
v 1.112719 2.387498 8.701205
v 0.237781 2.387498 8.964903
v 0.237781 4.742272 7.920996
v -0.637157 2.387498 8.701204
v 2.652192 11.157181 5.228525
v 1.961626 14.004929 0.774314
v 3.112000 13.344528 0.939453
v 3.463292 13.420334 -1.831267
v 0.237785 16.111511 -2.113323
v 0.772790 17.074287 -0.761447
v 0.237783 12.684151 4.196242
v 0.237783 13.513696 7.644968
v -0.023727 13.619507 5.245202
v 1.847365 -11.757370 5.598206
v 2.931772 -10.439425 7.082430
v 3.827202 -9.435184 5.297764
v 5.419123 -7.688064 6.552632
v -2.456214 -10.439422 7.082432
v -3.351643 -9.435184 5.297761
v -4.943562 -7.688064 6.552630
v 0.237779 -3.056430 13.109197
v -0.975733 -3.425887 13.246673
v -1.397649 -2.098227 13.310088
v -3.004753 -3.419875 12.737244
v -2.524961 -1.157027 12.312714
v -4.316861 -1.635707 10.659028
v -2.171591 0.379041 10.792253
v -2.411331 1.095181 10.123148
v -1.011297 1.534413 9.312822
v 11.520572 -3.426178 -2.536442
v 11.487915 -3.426174 2.602388
v 10.230000 -6.774181 2.206196
v 9.003454 -6.464492 5.628575
v 7.026877 -9.213367 3.543254
v 1.365203 -7.688064 11.452826
v 0.237779 -5.478217 12.404723
v 0.237779 -7.688048 11.174922
v -0.889646 -7.688064 11.452826
v -6.551317 -9.213367 3.543252
v -8.527896 -6.464492 5.628572
v -9.754437 -6.774174 2.206192
v -11.012352 -3.426170 2.602384
v 2.502996 12.684151 -5.925371
v 4.055613 12.684151 -4.420007
v 3.463292 13.420334 -1.831267
v 1.451290 -3.425894 13.246674
v 1.873208 -2.098227 13.310088
v 3.480311 -3.419875 12.737242
v 3.000521 -1.157027 12.312714
v 4.792422 -1.635707 10.659030
v 2.796124 9.797768 6.029623
v 6.863437 4.809181 -5.628255
v 9.823427 2.678909 -2.856976
v 9.706441 0.443798 -7.056498
v 10.962398 0.443798 -2.607445
v 11.520572 -3.426178 -2.536442
v 10.962398 0.443798 -2.607445
v 12.175086 -3.303741 -3.593333
v 3.310376 -0.366782 11.659413
v 2.647151 0.379041 10.792253
v 2.171449 0.870736 12.257138
v 1.579506 0.906003 10.888417
v 0.237780 1.085542 10.943245
v 4.885862 0.716966 8.652791
v 3.134923 0.762811 9.408091
v 4.355022 0.116406 9.178270
v 5.735620 0.138478 8.676939
v 5.814169 1.340615 7.618821
v 5.146718 -3.426173 10.975538
v 3.366878 -5.478225 12.258832
v 6.259411 2.387498 6.379063
v 0.237784 19.551849 -3.065144
v 0.634606 16.320496 -2.616049
v 0.237786 16.442902 -3.201047
v 1.276738 10.342674 6.224996
v 0.715155 9.249127 6.778782
v 1.057409 10.936050 6.099913
v 2.106273 10.653008 5.825931
v 5.484530 6.876328 5.033929
v 4.501754 9.457031 5.034410
v 4.288436 8.962975 5.301355
v 3.080097 10.312561 5.556113
v 1.428755 -5.478225 12.690275
v 1.525955 -8.832278 10.060545
v 2.119795 -10.177474 8.326071
v 1.161883 -11.208819 8.138371
v 2.426940 -10.713710 7.443081
v -4.671159 -3.426169 10.975539
v -2.891320 -5.478221 12.258831
v -5.008966 6.876336 5.033929
v -4.026187 9.457031 5.034410
v -3.812870 8.962975 5.301354
v -2.604530 10.312561 5.556112
v -0.581842 10.936050 6.099914
v -0.239591 9.249127 6.778782
v -0.801172 10.342674 6.224996
v -1.630708 10.653008 5.825931
v -1.486058 14.004929 0.774314
v -0.280439 14.891045 -2.998239
v -0.159036 16.320496 -2.616050
v -3.525582 12.684151 1.104651
v -4.711900 11.157188 1.112211
v -7.294126 3.576142 1.645186
v -5.783849 2.387498 6.379063
v -6.374299 0.446542 8.018291
v -5.338605 1.340623 7.618820
v -5.260059 0.138478 8.676940
v -2.834816 -0.366782 11.659410
v -2.171591 0.379041 10.792253
v -1.695890 0.870736 12.257137
v -1.103946 0.906003 10.888415
v -1.031376 8.767808 7.054081
v -10.486835 0.443802 -2.607449
v -10.942161 1.270748 -4.054232
v -10.486835 0.443802 -2.607449
v -9.347862 2.678909 -2.856977
v -9.230877 0.443802 -7.056501
v -6.387871 4.809185 -5.628256
v -5.075555 0.443801 -10.840886
v 0.909363 -10.409186 8.723104
v 1.162061 -11.208823 8.138369
v 0.237779 -10.721694 8.812527
v 0.237779 -11.416667 8.439640
v -0.686504 -11.208819 8.138370
v 2.084578 -0.020926 13.252208
v 0.237780 1.145894 12.805422
v 0.895015 4.742272 7.725864
v 0.237780 1.085542 10.943245
v 1.657182 1.697366 10.281275
v 0.237781 1.842668 10.365336
v -1.181621 1.697366 10.281274
v 5.341528 -3.426173 10.616692
v 8.041272 -3.426169 8.931625
v 9.240734 -0.824088 6.888321
v 2.072493 11.534081 5.487055
v 3.376768 10.964943 5.169778
v 10.138287 -7.021969 -2.520719
v 7.466886 -9.786739 1.526746
v 5.647218 -3.434945 -11.612236
v 8.690614 -7.021966 -7.624785
v 2.776690 -9.526521 -10.291056
v -6.991327 -9.786739 1.526744
v -9.662726 -7.021961 -2.520722
v -0.953196 -5.478221 12.690274
v -8.765173 -0.824088 6.888318
v -4.865971 -3.426169 10.616689
v -7.565713 -3.426169 8.931623
v -2.901203 10.964943 5.169778
v -1.596927 11.534081 5.487054
v 2.821434 11.157187 -6.890702
v 1.873208 -2.098227 13.310088
v 3.000521 -1.157027 12.312714
v 4.426892 12.684151 -1.837230
v 5.355263 11.157188 -2.073946
v 7.594690 4.742241 -2.625569
v 5.863700 8.090477 -5.222358
v 11.417727 1.270740 -4.054229
v 4.085475 7.569092 5.949594
v 2.500484 8.894070 5.999864
v 3.310376 -0.366782 11.659413
v 2.647151 0.379041 10.792253
v 0.237784 16.343460 6.602808
v 1.256433 -10.979060 9.352439
v -1.644235 -10.177478 8.326067
v -1.951382 -10.713706 7.443084
v -0.780874 -10.979056 9.352439
v -0.766747 -12.033843 8.101430
v -1.951382 -10.713706 7.443084
v -1.371808 -11.757374 5.598206
v -5.018874 -5.478221 9.453972
v -6.906277 -6.055511 7.890892
v -4.943562 -7.688064 6.552630
v -2.636432 13.344536 0.939451
v -2.873586 14.034027 0.142178
v -2.987723 13.420334 -1.831268
v -2.354902 14.230461 -0.521891
v -2.636432 13.344536 0.939451
v -2.987723 13.420334 -1.831268
v -3.609913 7.569092 5.949593
v -2.024919 8.894070 5.999863
v -2.171591 0.379041 10.792253
v -2.834816 -0.366782 11.659410
v -1.397649 -2.098227 13.310088
v -1.609018 -0.020922 13.252210
v -2.524961 -1.157027 12.312714
v -7.119124 4.742241 -2.625572
v -5.388132 8.090481 -5.222359
v -4.879695 11.157188 -2.073948
v -3.951324 12.684151 -1.837232
v -1.165550 -10.693145 8.232220
v -0.433803 -10.409186 8.723103
v -0.255397 -9.875037 8.198597
v 0.237779 -10.004638 8.156022
v 1.641111 -10.693149 8.232219
v 0.730956 -9.875037 8.198596
v -0.390782 -10.080916 7.210942
v 0.237779 -10.183146 7.382232
v 0.866342 -10.080916 7.210943
v 3.741317 4.674251 -8.503293
v 5.551122 0.443797 -10.840884
v 3.345097 8.090476 -7.657506
v 0.237784 4.742267 -9.269056
v 0.237784 8.090476 -8.334001
v -2.869529 8.090476 -7.657507
v 0.237786 11.157203 -7.478592
v -2.345864 11.157187 -6.890703
v 0.237783 0.443797 -12.180724
v -3.265749 4.674255 -8.503293
v 0.237780 0.217714 13.819227
v 0.237780 -2.098231 13.781080
v 0.237786 14.283478 -3.976608
v 9.707267 -3.426173 6.876588
v 7.381839 -6.055515 7.890893
v 5.494433 -5.478225 9.453973
v 9.967892 -3.426178 -7.802128
v 10.138287 -7.021969 -2.520719
v -5.171654 -3.434937 -11.612238
v 0.237781 -9.605096 -10.870526
v 1.431715 -12.385856 6.605777
v 0.237779 -12.617778 6.755773
v -0.956157 -12.385856 6.605776
v 0.237779 -11.223022 9.516358
v 1.242304 -12.033854 8.101427
v 0.237779 -12.193381 8.316693
v 1.256433 -10.979060 9.352439
v 0.237779 -11.223022 9.516358
v -9.662726 -7.021961 -2.520722
v -9.492326 -3.426171 -7.802131
v -9.231702 -3.426170 6.876586
v 0.237779 -3.056430 13.109197
v 3.112000 13.344528 0.939453
v 3.463292 13.420334 -1.831267
v 3.349153 14.034027 0.142179
v 2.830470 14.230461 -0.521890
v 13.783307 -1.822937 -6.828103
v 0.756008 14.891045 -2.998238
v 11.571586 -5.073613 -4.037239
v 5.419123 -7.688064 6.552632
v 3.827202 -9.435184 5.297764
v 2.426940 -10.713710 7.443081
v 1.847365 -11.757370 5.598206
v 2.426940 -10.713710 7.443081
v 0.237779 -11.416667 8.439640
v 2.119795 -10.177474 8.326071
v -1.371808 -11.757374 5.598206
v -1.951382 -10.713706 7.443084
v -3.351643 -9.435184 5.297761
v -11.096024 -5.073605 -4.037241
v -13.307740 -1.822930 -6.828108
v 4.922354 11.157188 -4.777997
v 6.455711 8.090477 -2.245950
v 6.455711 8.090477 -2.245950
v 6.455711 8.090477 -2.245950
v 1.579506 0.906003 10.888417
v -11.045009 -3.426170 -2.536446
v -5.980144 8.090481 -2.245951
v -1.103946 0.906003 10.888415
v -5.980144 8.090481 -2.245951
v -4.446787 11.157188 -4.777999
v -5.980144 8.090481 -2.245951
v 4.807279 19.942253 -3.511510
v 5.184986 23.370514 -2.684381
v 4.767510 23.370514 -1.999248
v 5.391323 26.798820 -1.100290
v 4.448274 26.798820 -0.129463
v 5.219095 28.763832 -0.323325
v 5.149720 26.732750 0.621872
v 4.912194 26.798820 0.906963
v 4.754661 23.338432 1.466652
v 4.185730 23.367020 0.847398
v 3.968421 19.936028 1.186866
v 4.519880 19.957115 1.850952
v 3.935566 16.522141 1.500444
v 2.183535 19.942253 -1.800511
v 2.977399 23.370514 -1.259889
v 2.183534 19.942253 0.947603
v 2.977400 23.370514 0.406980
v 4.399740 23.370514 1.970866
v 4.912194 26.798820 0.906963
v 4.448274 26.798820 -0.129463
v 4.767510 23.370514 -1.999248
v 3.992795 23.355522 -0.364374
v 4.345271 19.942245 -2.714792
v 3.257280 19.942253 -0.364375
v 3.573663 16.513962 -1.946704
v 3.493428 16.513969 2.296288
v 3.915429 19.942253 2.782760
v 4.399740 23.370514 1.970866
v 4.185730 23.367020 0.847398
v 3.968421 19.936028 1.186866
v 3.448680 16.513962 0.829701
v -3.710160 23.367020 0.847396
v -4.279093 23.338432 1.466649
v -4.674146 26.732750 0.621870
v -4.436621 26.798820 0.906962
v -4.743520 28.763832 -0.323326
v 2.977399 23.370514 -1.259889
v 4.059350 26.798820 -0.030437
v 5.391323 26.798820 -1.100290
v 5.219095 28.763832 -0.323325
v 4.807279 19.942253 -3.511510
v 2.183535 19.942253 -1.800511
v 4.080558 16.513969 -2.847379
v 3.915429 19.942253 2.782760
v 3.493428 16.513969 2.296288
v 4.345271 19.942245 -2.714792
v 4.080558 16.513969 -2.847379
v -3.710160 23.367020 0.847396
v -3.972699 26.798820 -0.129463
v -3.517224 23.355522 -0.364376
v -4.291937 23.370506 -1.999250
v -3.972699 26.798820 -0.129463
v -4.915749 26.798820 -1.100291
v -4.291937 23.370506 -1.999250
v -4.709414 23.370506 -2.684383
v 2.080794 16.513962 -1.511783
v 2.080793 16.513969 0.817449
v 2.939422 16.525948 -0.463338
v 5.184986 23.370514 -2.684381
v -4.743520 28.763832 -0.323326
v -4.436621 26.798820 0.906962
v -3.583777 26.798820 -0.030438
v -4.915749 26.798820 -1.100291
v -2.501828 23.370514 -1.259891
v -4.709414 23.370506 -2.684383
v -2.501828 23.370514 0.406979
v -2.501828 23.370514 -1.259891
v 2.080794 16.513962 -1.511783
v 3.573663 16.513962 -1.946704
v 3.448680 16.513962 0.829701
v -3.924169 23.370506 1.970864
v -3.924169 23.370506 1.970864
v -2.636432 13.344536 0.939451
v -1.486058 14.004929 0.774314
v -3.017858 16.513954 2.296286
v -1.605224 16.513954 0.817450
v -1.707965 19.942245 0.947603
v -1.605223 16.513954 -1.511783
v -1.347275 14.215668 -1.846903
v -2.987723 13.420334 -1.831268
v -1.605223 16.513954 -1.511783
v -3.604986 16.513954 -2.847381
v -1.707964 19.942245 -1.800511
v -2.354902 14.230461 -0.521891
v -2.973110 16.513962 0.829700
v -2.463852 16.525940 -0.463338
v -2.781709 19.942245 -0.364374
v -3.098092 16.513954 -1.946705
v -2.649983 -11.832096 4.624523
v -1.347275 14.215668 -1.846903
v -3.604986 16.513954 -2.847381
v -3.098092 16.513954 -1.946705
v -3.017858 16.513954 2.296286
v -3.459997 16.522133 1.500443
v -2.636432 13.344536 0.939451
v -2.873586 14.034027 0.142178
v -2.973110 16.513962 0.829700
v -2.354902 14.230461 -0.521891
v 3.125542 -11.832096 4.624524
v -3.439861 19.942253 2.782760
v -1.707964 19.942245 -1.800511
v -4.331708 19.942253 -3.511511
v -4.044311 19.957108 1.850952
v -3.439861 19.942253 2.782760
v -3.492850 19.936012 1.186866
v -3.492850 19.936012 1.186866
v -3.869701 19.942245 -2.714792
v -3.869701 19.942245 -2.714792
v -4.331708 19.942253 -3.511511
v 2.830470 14.230461 -0.521890
v 3.349153 14.034027 0.142179
v 3.112000 13.344528 0.939453
v 3.112000 13.344528 0.939453
v 1.961626 14.004929 0.774314
v 1.822843 14.215668 -1.846903
v 3.463292 13.420334 -1.831267
v 1.822843 14.215668 -1.846903
v 2.830470 14.230461 -0.521890
v 1.847365 -11.757370 5.598206
v 0.237778 -11.996155 5.460538
v -1.371808 -11.757374 5.598206
v -11.574511 -0.757656 -3.562366
v -11.045009 -3.426170 -2.536446
v -11.699523 -3.303738 -3.593337
v -11.835868 1.735573 -5.812157
v -10.396770 3.193123 -4.625522
v -9.347862 2.678909 -2.856977
v -7.119124 4.742241 -2.625572
v -8.973053 3.706215 -3.528009
v -8.927496 4.633457 -4.246689
v -10.695206 5.239803 -6.242767
v -5.171654 -3.434937 -11.612238
v -6.564887 -4.118291 -12.516221
v -6.733471 -0.534234 -12.289442
v -5.075555 0.443801 -10.840886
v -4.741751 2.965133 -10.164152
v -5.276515 3.765949 -11.585524
v -3.265749 4.674255 -8.503293
v 5.647218 -3.434945 -11.612236
v 7.040454 -4.118295 -12.516219
v 5.752084 3.765945 -11.585520
v 3.741317 4.674251 -8.503293
v 5.217318 2.965129 -10.164152
v 7.209039 -0.534238 -12.289441
v 5.551122 0.443797 -10.840884
v 12.175086 -3.303741 -3.593333
v 12.311432 1.735565 -5.812153
v 10.872334 3.193119 -4.625520
v 11.520572 -3.426178 -2.536442
v 11.170774 5.239799 -6.242763
v 9.403064 4.633449 -4.246688
v 7.594690 4.742241 -2.625569
v 9.448619 3.706207 -3.528006
v 9.823427 2.678909 -2.856976
v 12.050076 -0.757660 -3.562363
v 2.500484 8.894070 5.999864
v 4.085475 7.569092 5.949594
v 4.709858 6.442425 6.899585
v 5.785522 4.776139 5.847303
v 5.195492 4.525193 7.732476
v 6.259411 2.387498 6.379063
v 5.287825 2.145917 8.433831
v -2.659361 0.762811 9.408090
v -1.011297 1.534413 9.312822
v -2.073080 2.327184 9.611964
v -0.637157 2.387498 8.701204
v -1.754011 4.714440 9.010302
v -0.419453 4.742272 7.725864
v -1.533490 6.485703 8.210707
v -4.234295 6.442425 6.899585
v -2.024919 8.894070 5.999863
v -3.609913 7.569092 5.949593
v 1.439861 8.633126 6.716331
v 0.895015 4.742272 7.725864
v 2.009055 6.485699 8.210707
v 2.229572 4.714440 9.010301
v 1.112719 2.387498 8.701205
v 2.548642 2.327184 9.611962
v 1.486858 1.534413 9.312822
v 3.134923 0.762811 9.408091
v -5.309960 4.776139 5.847303
v -4.719928 4.525193 7.732474
v 4.885862 0.716966 8.652791
v 5.814169 1.340615 7.618821
v 3.196475 -0.767863 12.039453
v 3.914521 -2.501715 12.039452
v 3.914520 0.965963 12.039453
v 5.648033 -3.219882 12.039453
v 3.196474 -0.767867 11.074233
v 3.914521 0.965959 11.074234
v 3.914521 -2.501723 11.074233
v 5.648033 -3.219886 11.074235
v 8.099565 -0.767867 11.074232
v 7.381537 -2.501723 11.074234
v 7.381537 0.965959 11.074234
v -7.624004 -0.767867 11.074230
v -6.905976 0.965962 11.074230
v -6.905977 -2.501715 11.074232
v -5.172475 -3.219882 11.074232
v -2.720915 -0.767863 12.039452
v -3.438961 0.965963 12.039453
v -3.438960 -2.501715 12.039452
v -5.172475 -3.219882 12.039452
v -2.720914 -0.767867 11.074231
v -3.438961 -2.501715 11.074232
v -3.438959 0.965962 11.074233
v -5.783849 2.387498 6.379063
v -4.812261 2.145917 8.433832
v -5.338605 1.340623 7.618820
v -4.410301 0.716966 8.652791
v 3.196474 -0.767867 11.074233
v 3.914521 -2.501723 11.074233
v 3.914521 -2.501715 12.039452
v 5.648033 -3.219882 12.039453
v 3.196475 -0.767863 12.039453
v 3.914520 0.965963 12.039453
v 3.914521 0.965959 11.074234
v 5.648035 1.684140 11.074232
v 5.648034 1.684140 12.039454
v 7.381536 0.965963 12.039454
v 5.648035 1.684140 11.074232
v 5.648033 -3.219886 11.074235
v 7.381537 -2.501723 11.074234
v 7.381537 0.965959 11.074234
v 8.099564 -0.767867 12.039454
v 8.099565 -0.767867 11.074232
v 7.381537 -2.501715 12.039453
v -5.172474 1.684144 11.074231
v -6.905976 0.965962 11.074230
v -6.905977 0.965963 12.039449
v -7.624005 -0.767863 12.039452
v -5.172474 1.684144 12.039452
v -3.438961 0.965963 12.039453
v -5.172474 1.684144 11.074231
v -7.624004 -0.767867 11.074230
v -6.905976 -2.501715 12.039451
v -3.438959 0.965962 11.074233
v -2.720915 -0.767863 12.039452
v -5.172475 -3.219882 12.039452
v -3.438961 -2.501715 11.074232
v -3.438960 -2.501715 12.039452
v -2.720914 -0.767867 11.074231
v -5.172475 -3.219882 11.074232
v -6.905977 -2.501715 11.074232
v 7.381537 -2.501715 12.039453
v 8.099564 -0.767867 12.039454
v 7.381536 0.965963 12.039454
v -6.905977 0.965963 12.039449
v -7.624005 -0.767863 12.039452
v -6.905976 -2.501715 12.039451
v -0.964298 8.633126 6.716330
v 5.648034 1.684140 12.039454
v -5.172474 1.684144 12.039452
v 13.783307 -1.822937 -6.828103
v 12.050076 -0.757660 -3.562363
v 11.417727 1.270740 -4.054229
v 10.962398 0.443798 -2.607445
v 9.823427 2.678909 -2.856976
v 0.756008 14.891045 -2.998238
v -10.695206 5.239803 -6.242767
v -8.927496 4.633457 -4.246689
v -8.973053 3.706215 -3.528009
v -7.119124 4.742241 -2.625572
v -9.347862 2.678909 -2.856977
v 5.551122 0.443797 -10.840884
v 7.209039 -0.534238 -12.289441
v 5.217318 2.965129 -10.164152
v 3.741317 4.674251 -8.503293
v 5.752084 3.765945 -11.585520
v -5.587464 -10.286912 -6.389418
v -8.215051 -7.021962 -7.624786
v -2.301128 -9.526513 -10.291056
v -11.096024 -5.073605 -4.037241
v -11.699523 -3.303738 -3.593337
v -11.045009 -3.426170 -2.536446
v -11.574511 -0.757656 -3.562366
v -10.486835 0.443802 -2.607449
v -10.942161 1.270748 -4.054232
v -3.265749 4.674255 -8.503293
v -5.276515 3.765949 -11.585524
v -4.741751 2.965133 -10.164152
v -5.075555 0.443801 -10.840886
v -6.733471 -0.534234 -12.289442
v 9.448619 3.706207 -3.528006
v 7.594690 4.742241 -2.625569
v 9.403064 4.633449 -4.246688
v 11.170774 5.239799 -6.242763
v 0.237785 16.111511 -2.113323
v 11.520572 -3.426178 -2.536442
v -9.754437 -6.774174 2.206192
v 10.872334 3.193119 -4.625520
v 12.311432 1.735565 -5.812153
v 10.962398 0.443798 -2.607445
v 12.175086 -3.303741 -3.593333
v 11.571586 -5.073613 -4.037239
v 0.237784 19.551849 -3.065144
v 0.634606 16.320496 -2.616049
v 0.237786 16.442902 -3.201047
v -0.159036 16.320496 -2.616050
v -10.942161 1.270748 -4.054232
v -13.307740 -1.822930 -6.828108
v -10.396770 3.193123 -4.625522
v -11.835868 1.735573 -5.812157
v 10.138287 -7.021969 -2.520719
v 7.466886 -9.786739 1.526746
v 8.690614 -7.021966 -7.624785
v 2.776690 -9.526521 -10.291056
v -6.991327 -9.786739 1.526744
v -9.662726 -7.021961 -2.520722
v 7.040454 -4.118295 -12.516219
v 5.647218 -3.434945 -11.612236
v -6.564887 -4.118291 -12.516221
v -5.171654 -3.434937 -11.612238
v 10.138287 -7.021969 -2.520719
v 7.285526 -10.314846 -2.587892
v 0.237781 -9.605096 -10.870526
v 1.431715 -12.385856 6.605777
v 0.237779 -12.617778 6.755773
v 0.237779 -12.126175 5.908959
v -0.956157 -12.385856 6.605776
v -6.809966 -10.314835 -2.587894
v -9.662726 -7.021961 -2.520722
v 6.063025 -10.286920 -6.389416
v 1.847365 -11.757370 5.598206
v -1.371808 -11.757374 5.598206
v 7.285526 -10.314846 -2.587892
v -6.809966 -10.314835 -2.587894
v 4.910850 -11.562344 -2.587893
v 2.645695 -11.403741 -6.442101
v 0.237781 -11.403745 -7.021108
v -4.435292 -11.562344 -2.587895
v -2.170134 -11.403741 -6.442101
v -2.649983 -11.832096 4.624523
v -3.988337 -11.562344 1.526744
v -4.435292 -11.562344 -2.587895
v 3.125542 -11.832096 4.624524
v 4.463895 -11.562344 1.526744
v 4.910850 -11.562344 -2.587893
v 0.237778 -11.996155 5.460538
vn 0.8872 0.4582 0.0547
vn 0.7996 0.5842 0.1391
vn 0.7371 0.5687 0.3651
vn 0.5658 0.7473 0.3484
vn 0.8117 0.5369 0.2300
vn 0.8871 0.3273 0.3254
vn 0.7172 0.6318 -0.2939
vn 0.7598 0.6496 -0.0273
vn 0.7529 0.6576 -0.0262
vn 0.7610 0.5452 -0.3517
vn 0.5705 0.7403 -0.3555
vn 0.6408 0.7640 -0.0745
vn -0.6408 0.7640 -0.0745
vn 0.7976 0.6031 0.0063
vn 0.6601 0.7054 0.2582
vn 0.7049 0.4986 0.5045
vn 0.8926 0.2448 0.3785
vn 0.9144 0.3964 0.0821
vn 0.9280 0.3670 0.0646
vn 0.1539 -0.7546 0.6379
vn 0.5115 -0.7035 0.4935
vn 0.6335 -0.4745 0.6112
vn 0.8069 -0.4581 0.3729
vn 0.8949 -0.1676 0.4135
vn -0.1539 -0.7546 0.6379
vn -0.5115 -0.7035 0.4935
vn -0.6335 -0.4745 0.6112
vn -0.8069 -0.4581 0.3729
vn -0.8949 -0.1676 0.4135
vn -0.7793 0.2562 -0.5719
vn -0.1275 0.9898 -0.0634
vn -0.4356 0.8970 -0.0757
vn -0.4879 0.8626 -0.1337
vn -0.6045 0.7919 -0.0869
vn -0.8398 0.5293 -0.1207
vn -0.6806 0.7198 0.1367
vn -0.7996 0.5842 0.1391
vn -0.7371 0.5687 0.3651
vn 0.1932 0.3930 0.8990
vn 0.2681 0.2343 0.9345
vn -0.7200 0.6205 0.3108
vn 0.5217 -0.8230 0.2246
vn 0.3982 -0.8765 0.2704
vn 0.4069 0.5472 0.7314
vn 0.4328 0.4076 0.8041
vn 0.4855 0.4018 0.7765
vn 0.4305 0.4423 0.7868
vn 0.5186 0.5690 0.6382
vn 0.1275 0.9898 -0.0634
vn 0.1595 0.8298 -0.5348
vn -0.1595 0.8298 -0.5348
vn -0.1227 0.8441 -0.5220
vn -0.3942 0.8242 -0.4066
vn 0.6711 0.7165 -0.1903
vn -0.6711 0.7165 -0.1903
vn -0.7286 0.6547 -0.2013
vn -0.8213 -0.4503 0.3502
vn -0.8926 0.2448 0.3785
vn 0.6641 -0.7476 -0.0000
vn 0.8519 -0.5128 0.1060
vn 0.5857 0.4175 0.6947
vn 0.7240 0.6858 -0.0734
vn 0.2658 0.9508 -0.1592
vn -0.5256 -0.6121 -0.5908
vn -0.2376 -0.5449 -0.8041
vn -0.2818 -0.1051 -0.9537
vn 0.2818 -0.1051 -0.9537
vn -0.1135 0.9064 0.4070
vn -0.1798 0.7430 0.6447
vn -0.1966 0.7317 0.6526
vn -0.2479 0.5112 0.8229
vn -0.6716 0.4277 0.6051
vn -0.7598 0.6496 -0.0273
vn -0.7529 0.6576 -0.0262
vn -0.7537 -0.2155 0.6209
vn -0.8154 -0.2879 0.5022
vn -0.7420 0.5440 -0.3918
vn -0.4305 0.4423 0.7868
vn -0.4855 0.4018 0.7765
vn 0.0746 0.9851 -0.1549
vn -0.4052 0.8674 -0.2888
vn -0.3713 0.4035 0.8363
vn -0.3610 0.1865 0.9137
vn -0.2702 0.2003 0.9417
vn -0.2681 0.2343 0.9345
vn -0.1932 0.3930 0.8990
vn -0.1792 0.3864 0.9047
vn 0.8924 0.3334 0.3040
vn 0.9030 0.3000 0.3076
vn 0.6043 0.3390 0.7211
vn 0.8469 0.4085 0.3404
vn 0.7236 0.5433 0.4257
vn -0.8924 0.3334 0.3040
vn -0.9030 0.3000 0.3076
vn -0.6043 0.3390 0.7211
vn -0.8469 0.4085 0.3404
vn -0.7236 0.5433 0.4257
vn 0.8567 0.5139 0.0451
vn 0.7843 0.6099 0.1135
vn 0.7599 0.5917 0.2690
vn 0.5630 0.7388 0.3704
vn 0.1481 0.6183 0.7718
vn 0.2433 0.5378 0.8072
vn 0.2656 0.3907 0.8814
vn -0.2656 0.3907 0.8814
vn 0.1798 0.7430 0.6447
vn 0.1966 0.7317 0.6526
vn 0.4954 0.6760 0.5456
vn 0.6151 0.4033 0.6775
vn 0.1135 0.9064 0.4070
vn 0.4337 0.8382 0.3306
vn 0.5188 0.7839 0.3412
vn 0.5820 0.8075 0.0959
vn 0.7840 0.5465 -0.2945
vn 0.7176 0.4009 -0.5695
vn 0.7537 -0.2155 0.6209
vn 0.8154 -0.2879 0.5022
vn 0.9310 -0.3551 0.0845
vn 0.9305 -0.3562 0.0857
vn -0.9305 -0.3562 0.0857
vn -0.9273 0.3557 0.1167
vn 0.7620 -0.6473 0.0181
vn 0.8549 -0.4968 0.1494
vn 0.6165 -0.7449 0.2550
vn 0.8153 -0.4706 0.3373
vn -0.5213 -0.7002 0.4878
vn -0.5132 -0.7051 0.4893
vn -0.8549 -0.4968 0.1494
vn -0.6165 -0.7449 0.2550
vn 0.1158 -0.0107 0.9932
vn -0.2420 -0.1229 0.9625
vn -0.5077 0.2616 0.8208
vn -0.6909 0.2721 0.6698
vn -0.4328 0.4076 0.8041
vn -0.4069 0.5472 0.7314
vn -0.4019 0.8757 -0.2676
vn -0.4219 0.8693 -0.2577
vn 0.9852 0.1713 0.0063
vn 0.9359 -0.3523 0.0059
vn 0.8652 -0.3657 0.3432
vn 0.6539 -0.6957 0.2973
vn -0.2106 -0.4754 0.8542
vn 0.2106 -0.4754 0.8542
vn 0.1521 -0.7721 0.6170
vn -0.6539 -0.6957 0.2973
vn -0.8652 -0.3657 0.3432
vn -0.9359 -0.3523 0.0059
vn -0.9852 0.1713 0.0063
vn 0.3942 0.8242 -0.4066
vn 0.4879 0.8626 -0.1337
vn 0.4356 0.8970 -0.0757
vn 0.2420 -0.1229 0.9625
vn 0.5077 0.2616 0.8208
vn 0.6909 0.2721 0.6698
vn 0.2479 0.5112 0.8229
vn 0.1792 0.3864 0.9047
vn -0.3171 0.8390 0.4422
vn 0.7362 0.5887 -0.3338
vn 0.8743 0.4180 -0.2468
vn 0.9539 0.1326 -0.2693
vn 0.6806 0.7198 0.1367
vn 0.6179 0.7646 0.1834
vn 0.9464 0.3193 0.0484
vn 0.7251 0.1170 0.6786
vn 0.9893 0.1432 0.0268
vn 0.7391 0.6735 0.0140
vn 0.4251 0.8907 -0.1609
vn 0.1313 0.9908 -0.0313
vn 0.3713 0.4035 0.8363
vn 0.4052 0.8674 -0.2888
vn -0.0746 0.9851 -0.1549
vn 0.2950 0.4681 0.8330
vn 0.3853 0.5954 0.7050
vn 0.2597 0.6284 0.7332
vn 0.8509 0.2500 0.4620
vn 0.8675 -0.1603 0.4709
vn 0.7003 -0.1744 0.6923
vn 0.3147 0.6665 0.6758
vn 0.5096 0.6404 0.5747
vn 0.3817 0.2724 0.8833
vn 0.7339 0.1811 0.6546
vn 0.8290 0.2091 -0.5186
vn 0.3026 0.3024 0.9039
vn 0.4654 0.2568 0.8471
vn -0.1521 -0.7721 0.6170
vn 0.2054 -0.4827 0.8514
vn -0.6641 -0.7476 -0.0000
vn -0.8519 -0.5128 0.1060
vn -0.5857 0.4175 0.6947
vn 0.5132 -0.7051 0.4893
vn 0.5213 -0.7002 0.4878
vn 0.6659 -0.5121 0.5426
vn -0.8509 0.2500 0.4619
vn -0.8675 -0.1603 0.4709
vn -0.7003 -0.1744 0.6923
vn -0.5419 0.2062 0.8147
vn -0.4654 0.2568 0.8471
vn -0.3026 0.3024 0.9039
vn -0.7049 0.4986 0.5045
vn -0.6601 0.7054 0.2582
vn -0.7976 0.6031 0.0063
vn -0.9310 -0.3551 0.0845
vn -0.9144 0.3964 0.0821
vn -0.9280 0.3670 0.0646
vn -0.7021 -0.4700 0.5350
vn -0.7610 0.5452 -0.3517
vn -0.5705 0.7403 -0.3555
vn -0.7840 0.5465 -0.2945
vn -0.7997 -0.0908 0.5935
vn -0.8290 0.2091 -0.5186
vn -0.5630 0.7388 0.3704
vn -0.7599 0.5917 0.2690
vn -0.8921 0.3232 0.3157
vn -0.8117 0.5369 0.2300
vn -0.8871 0.3273 0.3254
vn -0.9464 0.3193 0.0484
vn -0.3817 0.2724 0.8833
vn -0.5096 0.6404 0.5747
vn -0.3147 0.6665 0.6758
vn -0.2597 0.6284 0.7332
vn -0.3853 0.5954 0.7050
vn -0.2950 0.4681 0.8330
vn -0.7391 0.6735 0.0140
vn -0.4251 0.8907 -0.1609
vn -0.1313 0.9908 -0.0313
vn -0.5217 -0.8231 0.2246
vn 0.7200 0.6205 0.3108
vn 0.3177 0.8366 0.4462
vn 0.7543 -0.4389 -0.4883
vn 0.8084 -0.3642 -0.4625
vn -0.8743 0.4180 -0.2468
vn -0.7362 0.5887 -0.3338
vn -0.5567 0.5625 -0.6113
vn 0.3335 -0.4855 0.8081
vn 0.3662 -0.4400 0.8200
vn -0.3662 -0.4399 0.8200
vn 0.2851 0.7013 0.6533
vn 0.1319 0.9907 -0.0321
vn -0.1319 0.9907 -0.0321
vn 0.2788 0.2013 0.9390
vn -0.2788 0.2013 0.9390
vn -0.2621 0.3899 0.8828
vn 0.7027 0.2564 0.6637
vn 0.7120 -0.1959 0.6742
vn 0.2113 -0.2323 0.9494
vn 0.1085 0.6032 0.7902
vn 0.0900 0.9805 -0.1748
vn -0.0900 0.9805 -0.1748
vn 0.5264 0.1082 0.8433
vn 0.7655 0.1403 0.6280
vn 0.5787 0.5710 0.5823
vn 0.5787 0.5725 0.5808
vn 0.7369 0.5691 0.3648
vn 0.9123 0.1926 0.3614
vn 0.3618 0.3467 0.8654
vn 0.3613 0.3480 0.8651
vn 0.4743 0.2789 0.8351
vn 0.9334 -0.3588 0.0007
vn 0.7344 -0.6784 0.0213
vn 0.6554 -0.6767 0.3354
vn 0.6422 -0.2576 -0.7219
vn 0.5256 -0.6121 -0.5908
vn 0.2376 -0.5449 -0.8041
vn -0.6554 -0.6767 0.3354
vn -0.9334 -0.3588 0.0007
vn -0.2113 -0.2323 0.9494
vn -0.7121 -0.1959 0.6742
vn -0.7027 0.2564 0.6637
vn -0.9123 0.1926 0.3614
vn -0.7369 0.5691 0.3648
vn -0.5787 0.5725 0.5808
vn -0.5264 0.1082 0.8433
vn -0.7655 0.1403 0.6280
vn -0.5787 0.5710 0.5823
vn -0.4742 0.2788 0.8351
vn -0.3613 0.3480 0.8651
vn -0.3618 0.3467 0.8654
vn -0.3241 0.3504 0.8787
vn 0.1227 0.8441 -0.5220
vn 0.1908 0.5527 -0.8113
vn 0.6846 -0.0494 0.7272
vn 0.7986 0.1653 0.5787
vn 0.3610 0.1865 0.9137
vn 0.2702 0.2003 0.9417
vn 0.6045 0.7919 -0.0869
vn 0.8398 0.5293 -0.1207
vn 0.6640 0.7335 -0.1453
vn 0.9256 0.3090 -0.2185
vn -0.7543 -0.4389 -0.4883
vn -0.8084 -0.3642 -0.4625
vn -0.7960 -0.4972 0.3452
vn -0.5817 -0.7108 0.3955
vn 0.6904 0.2806 0.6668
vn 0.6845 0.7224 0.0978
vn 0.8021 -0.4931 0.3369
vn 0.7021 -0.4700 0.5350
vn 0.7890 0.5685 0.2332
vn 0.7286 0.6547 -0.2013
vn 0.8297 0.0244 -0.5577
vn 0.6745 0.4486 -0.5864
vn -0.6745 0.4486 -0.5864
vn 0.8213 -0.4503 0.3502
vn 0.8687 -0.4362 0.2347
vn -0.7240 0.6858 -0.0734
vn -0.2658 0.9508 -0.1592
vn -0.8322 -0.2957 0.4691
vn -0.7717 -0.4905 0.4049
vn -0.5930 -0.7663 0.2472
vn -0.7620 -0.6473 0.0181
vn -0.2462 -0.7741 0.5832
vn -0.2806 -0.7873 0.5490
vn -0.8687 -0.4362 0.2347
vn -0.7200 0.6929 -0.0388
vn -0.9730 -0.1983 0.1179
vn -0.5726 0.7917 -0.2131
vn -0.5188 0.7839 0.3412
vn -0.5820 0.8075 0.0959
vn -0.4954 0.6760 0.5456
vn -0.6151 0.4033 0.6775
vn 0.7960 -0.4972 0.3452
vn 0.5817 -0.7108 0.3955
vn -0.6845 0.7224 0.0978
vn -0.6904 0.2806 0.6668
vn -0.1481 0.6183 0.7718
vn -0.2433 0.5378 0.8072
vn -0.6846 -0.0494 0.7272
vn -0.7986 0.1653 0.5787
vn -0.6640 0.7335 -0.1453
vn -0.9256 0.3090 -0.2185
vn -0.8567 0.5139 0.0451
vn -0.7843 0.6099 0.1135
vn -0.5774 0.6620 0.4778
vn 0.2316 0.6411 0.7317
vn -0.3335 -0.4855 0.8081
vn -0.3549 -0.4762 0.8045
vn 0.5774 0.6620 0.4778
vn -0.2316 0.6411 0.7317
vn -0.6685 0.7411 -0.0628
vn 0.2164 0.9494 -0.2276
vn 0.6685 0.7411 -0.0628
vn -0.2164 0.9494 -0.2276
vn 0.6429 0.2839 -0.7114
vn 0.5421 0.5720 -0.6155
vn 0.2052 0.2633 -0.9426
vn -0.2052 0.2633 -0.9426
vn 0.2141 0.2624 -0.9409
vn -0.2141 0.2624 -0.9409
vn 0.1859 0.5460 -0.8169
vn -0.1859 0.5460 -0.8169
vn 0.1884 0.5508 -0.8131
vn -0.1884 0.5508 -0.8131
vn 0.2916 -0.0158 0.9564
vn -0.2916 -0.0158 0.9564
vn 0.2897 0.7059 0.6463
vn -0.2897 0.7059 0.6463
vn 0.4219 0.8693 -0.2577
vn 0.4019 0.8757 -0.2676
vn 0.8099 0.1983 -0.5521
vn -0.8099 0.1983 -0.5521
vn 0.8652 -0.3485 0.3605
vn 0.7081 -0.4024 0.5803
vn 0.7099 -0.4059 0.5755
vn 0.4971 -0.4243 0.7569
vn 0.9066 -0.3347 -0.2571
vn -0.1903 -0.2742 0.9427
vn 0.1903 -0.2742 0.9427
vn 0.2557 0.2186 -0.9417
vn -0.2557 0.2186 -0.9417
vn 0.1990 -0.5743 -0.7941
vn -0.1990 -0.5743 -0.7941
vn -0.2554 0.9516 -0.1711
vn 0.2554 0.9516 -0.1711
vn 0.2050 -0.9445 0.2568
vn -0.2050 -0.9445 0.2568
vn 0.2762 -0.7472 0.6044
vn -0.2762 -0.7472 0.6044
vn -0.9066 -0.3347 -0.2571
vn -0.8652 -0.3485 0.3605
vn -0.7081 -0.4024 0.5803
vn -0.7099 -0.4059 0.5755
vn -0.4971 -0.4243 0.7569
vn -0.5421 0.5720 -0.6155
vn -0.6429 0.2839 -0.7114
vn 0.2111 0.6601 0.7209
vn -0.2111 0.6601 0.7209
vn 0.2303 0.9482 -0.2187
vn -0.2303 0.9482 -0.2187
vn 0.2295 -0.5588 0.7969
vn -0.1158 -0.0107 0.9932
vn 0.7494 0.4593 0.4770
vn 0.6716 0.4277 0.6051
vn 0.9730 -0.1983 0.1179
vn 0.5726 0.7917 -0.2131
vn -0.8689 -0.3546 -0.3454
vn -0.3119 0.9463 -0.0851
vn 0.7793 0.2562 -0.5719
vn 0.7420 0.5440 -0.3918
vn 0.7897 0.3220 0.5221
vn 0.7200 0.6929 -0.0388
vn 0.9273 0.3557 0.1167
vn 0.5419 0.2062 0.8147
vn 0.8032 -0.3874 0.4525
vn 0.2462 -0.7741 0.5832
vn 0.4936 -0.7223 0.4844
vn 0.2806 -0.7873 0.5490
vn 0.3628 -0.7386 0.5682
vn 0.5930 -0.7663 0.2472
vn 0.8530 -0.5211 0.0268
vn 0.1006 0.6475 0.7554
vn 0.8322 -0.2957 0.4691
vn 0.7788 -0.5814 0.2355
vn 0.7717 -0.4905 0.4049
vn -0.8530 -0.5211 0.0268
vn -0.7788 -0.5814 0.2355
vn -0.6659 -0.5121 0.5426
vn -0.1006 0.6475 0.7554
vn -0.3628 -0.7386 0.5682
vn -0.4936 -0.7223 0.4844
vn -0.2295 -0.5588 0.7969
vn 0.8032 0.3874 -0.4525
vn 0.7251 -0.1170 -0.6786
vn -0.7897 0.3220 0.5221
vn -0.7890 0.5685 0.2332
vn -0.8021 -0.4931 0.3369
vn -0.4337 0.8382 0.3306
vn -0.7176 0.4009 -0.5695
vn -0.7172 0.6319 -0.2939
vn -0.7339 0.1811 0.6546
vn -0.5186 0.5690 0.6382
vn -0.8872 0.4582 0.0547
vn -0.5658 0.7473 0.3484
vn -0.6179 0.7646 0.1834
vn 0.3119 0.9463 -0.0851
vn -0.7494 0.4593 0.4770
vn -0.8689 0.3546 0.3454
vn 0.3549 -0.4762 0.8045
vn 0.6730 0.2504 -0.6960
vn 0.2111 0.2579 -0.9428
vn 0.2048 0.2702 -0.9408
vn 0.6797 0.2851 -0.6759
vn 0.6625 0.3026 -0.6852
vn 0.6097 0.5105 -0.6063
vn 0.6065 0.4909 -0.6255
vn 0.2059 0.5393 -0.8166
vn 0.5567 0.5625 -0.6113
vn 0.2767 -0.0014 0.9609
vn 0.8476 0.5129 -0.1357
vn 0.9316 0.3128 -0.1853
vn 0.9281 0.3414 -0.1486
vn 0.9241 0.3352 -0.1838
vn 0.9409 0.3348 0.0509
vn 0.9414 0.3335 0.0496
vn 0.9472 0.3164 0.0513
vn 0.8921 0.3232 0.3157
vn 0.6016 0.4088 0.6863
vn -0.3177 0.8366 0.4462
vn 0.3983 -0.8765 0.2703
vn -0.5840 -0.7210 0.3729
vn 0.6051 0.7913 0.0876
vn 0.9524 0.1185 -0.2808
vn 0.6523 0.1633 -0.7401
vn 0.6618 0.1847 -0.7266
vn 0.2621 0.3899 0.8828
vn 0.3501 0.5742 0.7401
vn 0.3637 0.5443 0.7560
vn 0.1124 0.5979 0.7937
vn 0.4059 0.8869 -0.2206
vn 0.0938 0.9790 -0.1812
vn -0.0754 0.9835 -0.1643
vn 0.5073 0.1355 0.8511
vn 0.9110 0.1616 0.3795
vn 0.7697 0.1352 0.6240
vn 0.3241 0.3504 0.8787
vn 0.3171 0.3064 0.8975
vn 0.4844 -0.4037 0.7761
vn 0.8996 -0.3470 -0.2653
vn 0.2361 -0.2567 0.9372
vn -0.2256 -0.2526 0.9409
vn 0.6385 -0.2625 -0.7235
vn 0.2398 0.1951 -0.9510
vn 0.2692 -0.1208 -0.9555
vn 0.1892 -0.4921 0.8497
vn -0.2053 -0.4737 0.8564
vn 0.6285 -0.4680 0.6213
vn 0.2148 -0.9443 0.2494
vn 0.2511 -0.7414 0.6223
vn -0.2511 -0.7414 0.6223
vn -0.2148 -0.9443 0.2494
vn -0.8153 -0.4706 0.3373
vn -0.6285 -0.4680 0.6213
vn 0.2053 -0.4737 0.8564
vn -0.2054 -0.4827 0.8514
vn -0.1892 -0.4921 0.8497
vn -0.4844 -0.4037 0.7761
vn -0.2361 -0.2567 0.9372
vn -0.8996 -0.3470 -0.2653
vn -0.6385 -0.2625 -0.7235
vn -0.6422 -0.2576 -0.7219
vn 0.2256 -0.2526 0.9409
vn -0.2692 -0.1208 -0.9555
vn -0.6618 0.1847 -0.7266
vn -0.6523 0.1633 -0.7401
vn -0.2398 0.1951 -0.9510
vn -0.2059 0.5393 -0.8166
vn -0.9539 0.1326 -0.2693
vn -0.9524 0.1185 -0.2808
vn -0.9893 0.1432 0.0268
vn -0.9110 0.1616 0.3795
vn -0.5073 0.1355 0.8511
vn -0.7697 0.1352 0.6240
vn -0.3171 0.3064 0.8975
vn -0.6051 0.7913 0.0876
vn -0.9472 0.3164 0.0513
vn 0.0754 0.9835 -0.1643
vn -0.4059 0.8869 -0.2206
vn -0.3637 0.5443 0.7560
vn -0.3501 0.5742 0.7401
vn -0.0938 0.9790 -0.1812
vn -0.1085 0.6032 0.7902
vn -0.1124 0.5979 0.7937
vn -0.2851 0.7013 0.6533
vn -0.6016 0.4088 0.6863
vn -0.9414 0.3335 0.0496
vn -0.9409 0.3348 0.0509
vn 0.5840 -0.7210 0.3729
vn -0.3982 -0.8765 0.2704
vn -0.3983 -0.8765 0.2703
vn -0.9241 0.3352 -0.1838
vn -0.6730 0.2504 -0.6960
vn -0.8476 0.5129 -0.1357
vn -0.6065 0.4909 -0.6255
vn -0.6097 0.5105 -0.6063
vn 0.3171 0.8390 0.4422
vn -0.9281 0.3414 -0.1486
vn -0.9316 0.3128 -0.1853
vn -0.6625 0.3026 -0.6852
vn -0.6797 0.2851 -0.6759
vn -0.2767 -0.0014 0.9609
vn -0.2111 0.2579 -0.9428
vn -0.1908 0.5527 -0.8113
vn -0.2048 0.2702 -0.9408
vn 0.8341 -0.2145 0.5082
vn 0.8198 -0.2801 0.4995
vn 0.6845 -0.2989 0.6649
vn 0.7016 -0.2080 0.6815
vn 0.6754 -0.3300 -0.6595
vn 0.7719 0.2464 0.5860
vn 0.7741 0.0666 0.6295
vn 0.6978 -0.2450 -0.6731
vn 0.7079 -0.2471 -0.6617
vn 0.7291 -0.1130 -0.6750
vn 0.7652 -0.1249 -0.6315
vn 0.7687 -0.0658 -0.6362
vn -0.9742 0.2256 -0.0000
vn -0.7129 0.2673 0.6483
vn -0.7047 0.3042 0.6409
vn 0.8944 -0.1471 0.4225
vn 0.8867 -0.1965 0.4184
vn 0.8906 -0.1919 0.4123
vn 0.9020 -0.1095 0.4175
vn 0.8269 -0.1775 0.5336
vn 0.8389 0.0036 0.5443
vn 0.8182 0.0205 0.5746
vn 0.8181 0.0553 0.5724
vn 0.9847 -0.0778 -0.1560
vn 0.8918 -0.1922 -0.4096
vn 0.9049 -0.0941 -0.4152
vn -0.7079 -0.2471 -0.6617
vn -0.7741 0.0666 0.6295
vn -0.7719 0.2464 0.5860
vn -0.5652 0.4307 -0.7036
vn -0.6070 0.2456 -0.7558
vn -0.5288 0.2503 -0.8110
vn -0.5456 -0.0464 -0.8367
vn -0.7030 0.2564 0.6634
vn -0.7272 -0.0079 0.6863
vn 0.8464 -0.2067 0.4908
vn 0.8619 -0.0859 0.4998
vn -0.9807 -0.1192 -0.1550
vn -0.8944 -0.1471 0.4225
vn -0.6845 -0.2989 0.6649
vn -0.8198 -0.2801 0.4995
vn -0.6754 -0.3300 -0.6595
vn -0.7016 -0.2080 0.6815
vn -0.9996 0.0300 -0.0000
vn -0.7231 -0.0046 0.6907
vn 0.9149 -0.0965 0.3920
vn 0.9275 -0.0757 -0.3660
vn -0.9536 0.3010 -0.0000
vn -0.4997 0.3879 -0.7745
vn -0.5244 0.2539 -0.8127
vn -0.6517 0.4730 0.5929
vn 0.9807 -0.1192 -0.1550
vn -0.6978 -0.2450 -0.6731
vn 0.6517 0.4730 0.5929
vn 0.6070 0.2456 -0.7558
vn 0.4997 0.3879 -0.7745
vn 0.5652 0.4307 -0.7036
vn 0.9536 0.3010 -0.0000
vn -0.5546 -0.0533 -0.8304
vn -0.7046 0.3042 0.6411
vn 0.8682 -0.0859 0.4886
vn 0.8081 -0.0616 -0.5858
vn 0.8583 -0.1945 0.4748
vn -0.8181 0.0553 0.5724
vn 0.7047 0.3042 0.6409
vn 0.7046 0.3042 0.6411
vn 0.3218 -0.3396 0.8838
vn 0.7229 0.0225 0.6906
vn 0.7231 -0.0046 0.6907
vn 0.9996 0.0300 -0.0000
vn -0.0752 0.1356 -0.9879
vn 0.5482 -0.1602 -0.8208
vn 0.5546 -0.0533 -0.8304
vn -0.9298 -0.0348 -0.3665
vn -0.9275 -0.0757 -0.3660
vn -0.9149 -0.0965 0.3920
vn -0.5873 -0.7357 0.3373
vn 0.9973 0.0464 0.0565
vn 0.9938 0.1115 -0.0000
vn -0.8925 -0.0303 0.4501
vn -0.8712 0.0224 0.4903
vn -0.8357 -0.2980 0.4612
vn -0.9635 -0.2605 0.0613
vn -0.8017 0.1296 -0.5835
vn -0.7997 0.1304 -0.5861
vn 0.5873 -0.7357 0.3373
vn -0.9180 -0.0536 0.3929
vn 0.7272 -0.0079 0.6863
vn 0.5456 -0.0464 -0.8367
vn -0.8583 -0.1945 0.4748
vn -0.8269 -0.1775 0.5336
vn -0.9049 -0.0941 -0.4152
vn -0.8081 -0.0616 -0.5858
vn -0.7687 -0.0658 -0.6362
vn -0.9020 -0.1095 0.4175
vn -0.8682 -0.0859 0.4886
vn -0.8619 -0.0859 0.4998
vn -0.8918 -0.1922 -0.4096
vn -0.8906 -0.1919 0.4123
vn -0.8867 -0.1965 0.4184
vn -0.7652 -0.1249 -0.6315
vn -0.8389 0.0036 0.5442
vn -0.8182 0.0205 0.5746
vn 0.7129 0.2673 0.6484
vn 0.9742 0.2256 -0.0000
vn 0.5288 0.2503 -0.8110
vn 0.5244 0.2539 -0.8127
vn -0.9847 -0.0778 -0.1560
vn -0.7291 -0.1130 -0.6750
vn 0.7030 0.2564 0.6634
vn -0.8341 -0.2145 0.5082
vn -0.8464 -0.2067 0.4908
vn 0.7997 0.1304 -0.5861
vn 0.8017 0.1296 -0.5835
vn 0.9635 -0.2605 0.0613
vn 0.8357 -0.2980 0.4612
vn -0.3218 -0.3396 0.8838
vn -0.7229 0.0225 0.6906
vn -0.9973 0.0464 0.0565
vn -0.9938 0.1115 -0.0000
vn 0.8925 -0.0303 0.4501
vn 0.8712 0.0224 0.4903
vn -0.5482 -0.1602 -0.8208
vn 0.0752 0.1356 -0.9879
vn 0.9180 -0.0536 0.3929
vn 0.9298 -0.0348 -0.3665
vn 0.4672 -0.3632 0.8061
vn 0.5489 -0.3711 0.7490
vn 0.1229 -0.9641 0.2353
vn -0.5489 -0.3711 0.7490
vn -0.4672 -0.3632 0.8061
vn -0.1229 -0.9641 0.2353
vn 0.8478 -0.0352 -0.5291
vn 0.5494 -0.5286 -0.6471
vn 0.5901 -0.5125 -0.6238
vn 0.5950 -0.5803 -0.5561
vn 0.7731 -0.3154 -0.5502
vn 0.6193 -0.5751 -0.5345
vn -0.6079 -0.1298 0.7834
vn -0.4811 -0.1595 0.8620
vn -0.6897 -0.1011 0.7170
vn -0.8408 0.2706 0.4688
vn -0.4811 0.1595 -0.8620
vn -0.8408 -0.2706 -0.4688
vn -0.6897 0.1011 -0.7170
vn -0.6079 0.1298 -0.7834
vn -0.5494 -0.5286 -0.6471
vn -0.8478 -0.0352 -0.5291
vn -0.7731 -0.3154 -0.5502
vn -0.6193 -0.5751 -0.5345
vn -0.5901 -0.5125 -0.6238
vn -0.5950 -0.5803 -0.5561
vn 0.5876 0.6866 0.4281
vn 0.8539 0.5178 0.0529
vn 0.8750 0.3615 0.3220
vn 0.9134 0.2523 0.3195
vn 0.8844 0.1632 0.4374
vn 0.1403 -0.1795 0.9737
vn 0.4899 0.3558 0.7959
vn 0.5260 0.1411 0.8387
vn 0.6725 0.2293 0.7037
vn 0.6717 0.2337 0.7030
vn -0.4022 0.4178 0.8147
vn -0.3603 0.5899 0.7227
vn -0.5876 0.6866 0.4281
vn -0.7059 0.2689 0.6553
vn -0.6717 0.2337 0.7030
vn 0.4022 0.4178 0.8147
vn -0.6725 0.2293 0.7037
vn -0.5260 0.1411 0.8387
vn 0.3952 0.2738 0.8768
vn -0.4899 0.3558 0.7959
vn -0.1403 -0.1795 0.9737
vn 0.3966 0.0290 0.9175
vn -0.8539 0.5178 0.0529
vn -0.8750 0.3615 0.3220
vn -0.3777 0.4478 0.8104
vn 0.7741 -0.1226 0.6211
vn 0.8888 0.1390 0.4366
vn -0.0000 -0.0000 1.0000
vn -0.0000 -0.0000 -1.0000
vn -0.9134 0.2523 0.3195
vn -0.8843 0.1632 0.4374
vn -0.7741 -0.1226 0.6211
vn -0.3966 0.0290 0.9175
vn -0.3827 -0.9239 -0.0000
vn -0.9239 0.3826 -0.0000
vn -0.3827 0.9239 -0.0000
vn 0.3827 0.9239 -0.0000
vn 0.3827 -0.9239 -0.0000
vn 0.9239 0.3826 -0.0000
vn 0.9239 -0.3826 -0.0000
vn -0.9239 -0.3826 -0.0000
vn -0.3952 0.2738 0.8768
vn 0.3436 0.5961 0.7257
vn 0.3603 0.5899 0.7227
vn -0.3436 0.5961 0.7257
vn 0.7059 0.2689 0.6553
vn 0.3777 0.4478 0.8104
vn -0.8888 0.1390 0.4366
vn 0.8689 0.3546 0.3454
vn 0.8084 0.3642 0.4625
vn 0.7543 0.4389 0.4883
vn 0.6079 -0.1298 0.7834
vn 0.6897 -0.1011 0.7170
vn 0.8408 0.2706 0.4688
vn -0.5245 -0.6362 -0.5658
vn -0.8032 -0.3874 0.4525
vn -0.7251 0.1170 0.6786
vn -0.8084 0.3642 0.4625
vn -0.7543 0.4389 0.4883
vn 0.8408 -0.2706 -0.4688
vn 0.6897 0.1011 -0.7170
vn 0.5950 0.5803 0.5561
vn 0.5901 0.5125 0.6238
vn 0.6193 0.5751 0.5345
vn 0.7731 0.3154 0.5502
vn -0.7251 -0.1170 -0.6786
vn 0.8478 0.0352 0.5291
vn -0.8032 0.3874 -0.4525
vn 0.7997 -0.0908 0.5935
vn 0.8689 -0.3546 -0.3454
vn -0.6193 0.5751 0.5345
vn -0.7731 0.3154 0.5502
vn -0.7344 -0.6784 0.0213
vn -0.8297 0.0244 -0.5577
vn 0.4811 -0.1595 0.8620
vn 0.4811 0.1595 -0.8620
vn -0.5950 0.5803 0.5561
vn 0.7410 -0.6377 -0.2102
vn 0.1043 -0.8601 -0.4993
vn -0.1043 -0.8601 -0.4993
vn -0.7410 -0.6377 -0.2102
vn 0.5494 0.5286 0.6471
vn 0.5245 -0.6362 -0.5658
vn 0.6079 0.1298 -0.7834
vn -0.8478 0.0352 0.5291
vn -0.5901 0.5125 0.6238
vn -0.5494 0.5286 0.6471
vn 0.7123 -0.6618 -0.2339
vn 0.7543 -0.6545 0.0508
vn 0.1019 -0.8624 -0.4959
vn -0.1019 -0.8624 -0.4959
vn -0.7123 -0.6618 -0.2339
vn -0.7543 -0.6545 0.0508
vn 0.4595 -0.8747 -0.1542
vn 0.3062 -0.9266 -0.2181
vn 0.2888 -0.8643 -0.4117
vn 0.1041 -0.8953 -0.4331
vn 0.1237 -0.8990 -0.4201
vn -0.1237 -0.8990 -0.4201
vn -0.4595 -0.8747 -0.1542
vn -0.3062 -0.9266 -0.2181
vn -0.2888 -0.8643 -0.4117
vn -0.1041 -0.8953 -0.4331
vn -0.5037 -0.8519 0.1434
vn -0.5070 -0.8575 0.0877
vn -0.4645 -0.8841 0.0505
vn 0.5037 -0.8519 0.1434
vn 0.5070 -0.8575 0.0877
vn 0.4645 -0.8841 0.0505
vn 0.1640 -0.9474 -0.2747
vn -0.1640 -0.9474 -0.2747
vt 0.287793 0.555105
vt 0.297461 0.617345
vt 0.390821 0.531514
vt 0.399150 0.590892
vt 0.499397 0.576092
vt 0.406193 0.633081
vt 0.518992 0.656830
vt 0.423885 0.733023
vt 0.890886 0.723413
vt 0.910891 0.754574
vt 0.936527 0.704846
vt 0.847213 0.766257
vt 0.832031 0.715065
vt 0.762752 0.757787
vt 0.746334 0.738086
vt 0.673287 0.774206
vt 0.860694 0.809942
vt 0.820942 0.811036
vt 0.819185 0.872215
vt 0.781857 0.865188
vt 0.773849 0.929762
vt 0.753768 0.921764
vt 0.785788 0.314393
vt 0.815544 0.315361
vt 0.780838 0.260334
vt 0.790557 0.369020
vt 0.742644 0.362627
vt 0.734478 0.456766
vt 0.672276 0.456827
vt 0.715062 0.538489
vt 0.059821 0.541989
vt 0.048931 0.523547
vt 0.086804 0.546125
vt 0.072930 0.517031
vt 0.113987 0.533607
vt 0.105030 0.484986
vt 0.138503 0.510839
vt 0.156574 0.484520
vt 0.322773 0.678923
vt 0.636546 0.820190
vt 0.656846 0.759547
vt 0.626003 0.763768
vt 0.636273 0.754940
vt 0.627070 0.758252
vt 0.628218 0.744317
vt 0.603360 0.752216
vt 0.652087 0.565630
vt 0.663815 0.547692
vt 0.618352 0.543115
vt 0.623631 0.499722
vt 0.586415 0.542473
vt 0.551058 0.506248
vt 0.556629 0.550642
vt 0.030675 0.473526
vt 0.071886 0.473916
vt 0.780710 0.793784
vt 0.726375 0.840275
vt 0.747900 0.846963
vt 0.828893 0.979096
vt 0.858535 0.933266
vt 0.986669 0.979096
vt 0.905555 0.895220
vt 0.931911 0.868163
vt 0.902246 0.853791
vt 0.938780 0.842632
vt 0.141205 0.133558
vt 0.174102 0.079044
vt 0.231665 0.163325
vt 0.080650 0.101912
vt 0.035869 0.157595
vt 0.522338 0.853523
vt 0.566878 0.882173
vt 0.469675 0.888574
vt 0.584743 0.806831
vt 0.593496 0.774334
vt 0.550469 0.737042
vt 0.837682 0.679629
vt 0.748040 0.632766
vt 0.836211 0.654135
vt 0.616743 0.558591
vt 0.642124 0.580721
vt 0.600505 0.570864
vt 0.665100 0.677699
vt 0.519161 0.724907
vt 0.513208 0.796156
vt 0.550471 0.737044
vt 0.571861 0.720418
vt 0.603365 0.752213
vt 0.375839 0.819475
vt 0.394579 0.855752
vt 0.440760 0.800029
vt 0.455299 0.838442
vt 0.675176 0.624619
vt 0.696151 0.611048
vt 0.670672 0.602622
vt 0.694131 0.628795
vt 0.679316 0.680855
vt 0.461074 0.861516
vt 0.404520 0.879503
vt 0.893428 0.681186
vt 0.819185 0.922375
vt 0.730731 0.991631
vt 0.671707 0.236803
vt 0.744284 0.237408
vt 0.748163 0.172813
vt 0.621467 0.344827
vt 0.872679 0.531236
vt 0.870786 0.491382
vt 0.907215 0.489032
vt 0.813617 0.508916
vt 0.842624 0.572179
vt 0.773258 0.587739
vt 0.391920 0.457613
vt 0.282506 0.457080
vt 0.393948 0.367182
vt 0.490095 0.380595
vt 0.501939 0.293793
vt 0.834949 0.363053
vt 0.884828 0.420426
vt 0.865760 0.350627
vt 0.166448 0.362146
vt 0.244021 0.344367
vt 0.194638 0.279606
vt 0.263787 0.309844
vt 0.296298 0.238570
vt 0.252334 0.523632
vt 0.030510 0.900471
vt 0.069230 0.974854
vt 0.100471 0.922111
vt 0.114473 0.976907
vt 0.165490 0.982905
vt 0.585059 0.550665
vt 0.570470 0.582887
vt 0.735670 0.529037
vt 0.797428 0.448168
vt 0.545500 0.608458
vt 0.864772 0.576935
vt 0.908839 0.666556
vt 0.925066 0.650824
vt 0.504102 0.947575
vt 0.443061 0.919260
vt 0.510827 0.928605
vt 0.613088 0.894651
vt 0.620713 0.911773
vt 0.570711 0.932911
vt 0.852291 0.433430
vt 0.763518 0.234823
vt 0.658554 0.834333
vt 0.250725 0.577339
vt 0.108237 0.251045
vt 0.543040 0.076825
vt 0.517024 0.117777
vt 0.554333 0.103658
vt 0.512363 0.079269
vt 0.103359 0.871427
vt 0.176869 0.913184
vt 0.710909 0.573691
vt 0.676220 0.582190
vt 0.704619 0.592920
vt 0.613705 0.461208
vt 0.546123 0.460388
vt 0.496125 0.515683
vt 0.581673 0.955837
vt 0.538612 0.970553
vt 0.538445 0.941071
vt 0.302581 0.333424
vt 0.430013 0.276412
vt 0.121322 0.188341
vt 0.852292 0.433433
vt 0.074160 0.444304
vt 0.090846 0.793229
vt 0.044487 0.842028
vt 0.210926 0.385104
vt 0.142034 0.412436
vt 0.575639 0.700540
vt 0.608061 0.733857
vt 0.834416 0.601702
vt 0.840089 0.639102
vt 0.671174 0.904674
vt 0.854498 0.300350
vt 0.815590 0.259194
vt 0.906834 0.284780
vt 0.882038 0.233248
vt 0.763357 0.233819
vt 0.598452 0.413390
vt 0.547027 0.398716
vt 0.569193 0.341644
vt 0.437253 0.077515
vt 0.458797 0.068186
vt 0.465329 0.023688
vt 0.474945 0.058559
vt 0.103359 0.871433
vt 0.574648 0.139580
vt 0.554329 0.103648
vt 0.583540 0.096690
vt 0.580965 0.076891
vt 0.622907 0.091419
vt 0.610845 0.068690
vt 0.101826 0.338655
vt 0.088286 0.394380
vt 0.045250 0.325485
vt 0.037549 0.385513
vt 0.031866 0.437101
vt 0.074161 0.444303
vt 0.021847 0.230816
vt 0.101827 0.338652
vt 0.176434 0.861070
vt 0.153133 0.776394
vt 0.980766 0.694234
vt 0.490256 0.456997
vt 0.547038 0.398719
vt 0.209928 0.217504
vt 0.317000 0.171922
vt 0.121321 0.188341
vt 0.131273 0.061265
vt 0.913633 0.827993
vt 0.882025 0.233253
vt 0.915519 0.219176
vt 0.885584 0.171225
vt 0.906830 0.284772
vt 0.939574 0.267435
vt 0.134896 0.735942
vt 0.159865 0.502136
vt 0.251326 0.460753
vt 0.250453 0.413419
vt 0.585405 0.287163
vt 0.810096 0.168725
vt 0.847788 0.191364
vt 0.953406 0.852769
vt 0.250437 0.413285
vt 0.250741 0.577473
vt 0.159880 0.502270
vt 0.119799 0.459921
vt 0.184782 0.436669
vt 0.184876 0.436446
vt 0.353024 0.751309
vt 0.684369 0.562565
vt 0.119802 0.459916
vt 0.614249 0.012627
vt 0.685545 0.041895
vt 0.681311 0.058807
vt 0.754251 0.086992
vt 0.745271 0.114997
vt 0.791325 0.114336
vt 0.748308 0.137170
vt 0.750786 0.144977
vt 0.676783 0.164050
vt 0.672201 0.141540
vt 0.599061 0.158434
vt 0.603073 0.176763
vt 0.526989 0.177252
vt 0.264607 0.841751
vt 0.260429 0.752827
vt 0.314093 0.807947
vt 0.229650 0.771931
vt 0.185636 0.785951
vt 0.173322 0.700932
vt 0.067530 0.742879
vt 0.033953 0.724175
vt 0.031332 0.807369
vt 0.062021 0.654692
vt 0.109822 0.681940
vt 0.117153 0.601780
vt 0.527050 0.196991
vt 0.605511 0.203605
vt 0.679951 0.179474
vt 0.117140 0.601773
vt 0.200601 0.696497
vt 0.184276 0.649935
vt 0.216619 0.867858
vt 0.272911 0.925025
vt 0.609478 0.032063
vt 0.536771 0.014619
vt 0.362413 0.863575
vt 0.309906 0.900283
vt 0.150740 0.621694
vt 0.200602 0.696497
vt 0.260428 0.752826
vt 0.531441 0.036433
vt 0.523460 0.159628
vt 0.332989 0.970249
vt 0.348138 0.936979
vt 0.176536 0.580335
vt 0.591815 0.232596
vt 0.394334 0.902364
vt 0.536771 0.014617
vt 0.527072 0.197035
vt 0.454635 0.176208
vt 0.467571 0.156616
vt 0.523453 0.159592
vt 0.468393 0.137834
vt 0.614249 0.012628
vt 0.625804 0.236074
vt 0.653266 0.214884
vt 0.287663 0.644723
vt 0.214991 0.665771
vt 0.273065 0.664941
vt 0.218991 0.588352
vt 0.252962 0.625422
vt 0.874562 0.123031
vt 0.937509 0.163170
vt 0.866722 0.055146
vt 0.769096 0.024709
vt 0.772907 0.075509
vt 0.965895 0.237448
vt 0.973335 0.130181
vt 0.214990 0.665771
vt 0.116489 0.326247
vt 0.119217 0.410336
vt 0.195370 0.487881
vt 0.014733 0.259192
vt 0.115945 0.213400
vt 0.014723 0.110478
vt 0.131949 0.083835
vt 0.524485 0.016468
vt 0.437977 0.057720
vt 0.495494 0.100103
vt 0.408493 0.118674
vt 0.498501 0.230635
vt 0.408050 0.280769
vt 0.509431 0.332904
vt 0.667226 0.326247
vt 0.588113 0.487891
vt 0.664322 0.410402
vt 0.262605 0.473223
vt 0.375664 0.280769
vt 0.274284 0.332904
vt 0.285170 0.230631
vt 0.375222 0.118674
vt 0.288220 0.100104
vt 0.345737 0.057720
vt 0.259229 0.016469
vt 0.768981 0.259192
vt 0.667735 0.213403
vt 0.159133 0.009747
vt 0.080391 0.042572
vt 0.839988 0.139796
vt 0.790606 0.119345
vt 0.889370 0.119345
vt 0.770151 0.069972
vt 0.839989 0.139797
vt 0.889370 0.119346
vt 0.790606 0.119346
vt 0.770151 0.069973
vt 0.768986 0.110473
vt 0.651766 0.083841
vt 0.703324 0.042572
vt 0.624581 0.009747
vt 0.857267 0.045580
vt 0.917616 0.045580
vt 0.917615 0.014536
vt 0.977972 0.045581
vt 0.917615 0.045581
vt 0.917615 0.014537
vt 0.857266 0.014537
vt 0.857266 0.045581
vt 0.796917 0.045581
vt 0.909825 0.069973
vt 0.796918 0.014537
vt 0.796917 0.014537
vt 0.736560 0.045581
vt 0.736560 0.014537
vt 0.796918 0.045581
vt 0.521110 0.473223
vt 0.977973 0.014536
vt 0.909825 0.069974
vt 0.255361 0.097699
vt 0.319836 0.103583
vt 0.863754 0.144874
vt 0.341397 0.239645
vt 0.319174 0.034823
vt 0.237943 0.047156
vt 0.207726 0.019998
vt 0.518443 0.224468
vt 0.433834 0.193957
vt 0.853758 0.131978
s 0
usemtl texture002_texture002.png
f 2/1/1 3/2/1 4/3/1
f 5/4/2 4/3/2 3/2/2
f 4/3/3 5/4/3 6/5/3
f 7/6/4 6/5/4 5/4/4
f 6/5/5 7/6/5 8/7/5
f 9/8/6 8/7/6 7/6/6
f 12/9/7 11/10/7 10/11/7
f 11/10/8 12/9/8 13/12/8
f 14/13/9 13/12/9 12/9/9
f 13/12/10 14/13/10 15/14/10
f 16/15/11 15/14/11 14/13/11
f 15/14/12 16/15/12 17/16/12
f 18/14/13 17/16/13 16/15/13
f 11/10/14 13/12/14 19/17/14
f 20/18/15 19/17/15 13/12/15
f 19/17/16 20/18/16 21/19/16
f 22/20/17 21/19/17 20/18/17
f 21/19/18 22/20/18 23/21/18
f 24/22/19 23/21/19 22/20/19
f 27/23/20 26/24/20 25/25/20
f 26/24/20 27/23/20 28/26/20
f 29/27/21 28/26/21 27/23/21
f 28/26/22 29/27/22 30/28/22
f 31/29/23 30/28/23 29/27/23
f 30/28/24 31/29/24 32/30/24
f 33/25/25 34/24/25 35/23/25
f 36/26/25 35/23/25 34/24/25
f 35/23/26 36/26/26 37/27/26
f 38/28/27 37/27/27 36/26/27
f 37/27/28 38/28/28 39/29/28
f 40/30/29 39/29/29 38/28/29
f 41/31/30 42/32/30 43/33/30
f 44/34/31 43/33/31 42/32/31
f 43/33/32 44/34/32 45/35/32
f 46/36/33 45/35/33 44/34/33
f 45/35/34 46/36/34 47/37/34
f 48/38/35 47/37/35 46/36/35
f 49/39/36 50/2/36 51/4/36
f 52/3/37 51/4/37 50/2/37
f 51/4/38 52/3/38 53/5/38
f 54/40/39 55/41/39 56/42/39
f 57/43/40 56/42/40 55/41/40
f 56/42/41 57/43/41 58/44/41
f 59/45/42 58/44/42 57/43/42
f 58/44/43 59/45/43 60/46/43
f 61/47/44 62/48/44 63/49/44
f 64/50/45 63/49/45 62/48/45
f 63/49/46 64/50/46 65/51/46
f 66/52/47 65/51/47 64/50/47
f 65/51/48 66/52/48 67/53/48
f 68/33/49 69/34/49 42/32/49
f 70/54/50 42/32/50 69/34/50
f 42/32/51 70/54/51 44/34/51
f 71/55/52 44/34/52 70/54/52
f 44/34/53 71/55/53 46/36/53
f 74/56/54 73/57/54 72/58/54
f 73/57/55 74/56/55 75/58/55
f 76/18/56 75/58/56 74/56/56
f 75/58/57 76/18/57 22/20/57
f 77/19/58 22/20/58 76/18/58
f 78/59/59 79/60/59 80/61/59
f 81/62/60 80/61/60 79/60/60
f 80/61/61 81/62/61 82/63/61
f 83/64/62 82/63/62 81/62/62
f 82/63/63 83/64/63 84/65/63
f 87/66/64 86/67/64 85/68/64
f 86/67/65 87/66/65 88/69/65
f 89/70/66 88/69/66 87/66/66
f 88/69/67 89/70/67 90/66/67
f 98/71/68 97/72/68 96/73/68
f 97/72/69 98/71/69 54/40/69
f 99/74/70 54/40/70 98/71/70
f 54/40/71 99/74/71 100/75/71
f 101/76/72 100/75/72 99/74/72
f 102/10/73 103/12/73 104/9/73
f 14/13/74 104/9/74 103/12/74
f 104/9/75 14/13/75 105/77/75
f 106/78/76 105/77/76 14/13/76
f 105/77/77 106/78/77 107/79/77
f 108/52/78 109/50/78 110/51/78
f 111/49/79 110/51/79 109/50/79
f 110/51/80 111/49/80 112/80/80
f 113/81/81 112/80/81 111/49/81
f 112/80/82 113/81/82 114/82/82
f 115/45/83 116/83/83 117/43/83
f 55/41/84 117/43/84 116/83/84
f 117/43/85 55/41/85 118/42/85
f 54/40/86 118/42/86 55/41/86
f 118/42/87 54/40/87 100/75/87
f 120/84/88 9/8/88 119/85/88
f 9/8/89 120/84/89 8/7/89
f 121/86/90 8/7/90 120/84/90
f 8/7/91 121/86/91 122/87/91
f 60/46/92 122/87/92 121/86/92
f 123/85/93 124/8/93 125/84/93
f 126/7/94 125/84/94 124/8/94
f 125/84/95 126/7/95 101/76/95
f 127/87/96 101/76/96 126/7/96
f 101/76/97 127/87/97 128/88/97
f 129/89/98 130/90/98 131/91/98
f 132/92/99 131/91/99 130/90/99
f 131/91/100 132/92/100 119/85/100
f 133/71/101 119/85/101 132/92/101
f 137/93/102 136/94/102 135/95/102
f 136/94/103 137/93/103 138/96/103
f 139/97/104 138/96/104 137/93/104
f 138/96/105 139/97/105 140/93/105
f 97/72/106 54/40/106 133/71/106
f 141/74/107 133/71/107 54/40/107
f 133/71/108 141/74/108 119/85/108
f 121/86/109 119/85/109 141/74/109
f 133/71/110 142/73/110 97/72/110
f 142/73/111 133/71/111 143/98/111
f 132/92/112 143/98/112 133/71/112
f 143/98/113 132/92/113 144/99/113
f 10/11/114 145/100/114 12/9/114
f 146/77/115 12/9/115 145/100/115
f 12/9/116 146/77/116 14/13/116
f 106/78/117 14/13/117 146/77/117
f 21/19/118 23/21/118 147/101/118
f 148/102/119 147/101/119 23/21/119
f 147/101/120 148/102/120 149/21/120
f 24/22/121 149/21/121 148/102/121
f 152/103/122 151/104/122 150/105/122
f 151/104/123 152/103/123 29/27/123
f 153/106/124 29/27/124 152/103/124
f 29/27/125 153/106/125 31/29/125
f 33/25/126 35/23/126 154/104/126
f 37/27/127 154/104/127 35/23/127
f 154/104/128 37/27/128 155/103/128
f 156/106/129 155/103/129 37/27/129
f 159/107/130 158/108/130 157/109/130
f 158/108/131 159/107/131 160/110/131
f 161/111/132 160/110/132 159/107/132
f 160/110/133 161/111/133 162/112/133
f 109/50/134 163/48/134 111/49/134
f 164/47/135 111/49/135 163/48/135
f 111/49/136 164/47/136 113/81/136
f 165/95/137 113/81/137 164/47/137
f 167/113/138 166/114/138 4/3/138
f 166/114/139 167/113/139 168/115/139
f 169/116/140 168/115/140 167/113/140
f 168/115/141 169/116/141 170/117/141
f 171/118/142 172/119/142 173/120/142
f 174/118/143 173/120/143 172/119/143
f 173/120/144 174/118/144 34/24/144
f 36/26/25 34/24/25 174/118/25
f 175/117/145 176/116/145 177/115/145
f 178/113/146 177/115/146 176/116/146
f 177/115/147 178/113/147 92/114/147
f 52/3/148 92/114/148 178/113/148
f 69/34/149 180/36/149 179/55/149
f 180/36/150 69/34/150 181/35/150
f 68/33/151 181/35/151 69/34/151
f 184/110/152 183/107/152 182/108/152
f 183/107/153 184/110/153 185/111/153
f 186/112/154 185/111/154 184/110/154
f 141/74/155 54/40/155 187/75/155
f 56/42/156 187/75/156 54/40/156
f 187/75/157 56/42/157 60/46/157
f 188/121/158 189/122/158 190/123/158
f 191/124/159 190/123/159 189/122/159
f 190/123/160 191/124/160 192/125/160
f 134/39/161 5/4/161 3/2/161
f 5/4/162 134/39/162 7/6/162
f 9/8/163 7/6/163 134/39/163
f 2/1/164 166/114/164 1/126/164
f 166/114/165 2/1/165 4/3/165
f 195/127/166 196/128/166 197/129/166
f 198/130/167 197/129/167 196/128/167
f 197/129/168 198/130/168 199/131/168
f 200/82/169 201/81/169 202/80/169
f 63/49/170 202/80/170 201/81/170
f 202/80/171 63/49/171 65/51/171
f 203/132/172 200/82/172 202/80/172
f 200/82/173 203/132/173 204/133/173
f 67/53/174 204/133/174 203/132/174
f 205/134/175 32/30/175 186/112/175
f 32/30/176 205/134/176 30/28/176
f 206/135/177 30/28/177 205/134/177
f 204/133/178 67/53/178 207/136/178
f 6/5/179 207/136/179 67/53/179
f 207/136/180 6/5/180 8/7/180
f 208/137/181 145/100/181 209/138/181
f 209/138/182 10/11/182 210/139/182
f 213/140/183 212/141/183 211/142/183
f 217/143/184 216/144/184 218/145/184
f 173/120/185 26/24/185 171/118/185
f 28/26/20 171/118/20 26/24/20
f 171/118/186 28/26/186 219/146/186
f 80/61/187 220/60/187 78/59/187
f 220/60/188 80/61/188 221/62/188
f 222/63/189 221/62/189 80/61/189
f 29/27/190 27/23/190 151/104/190
f 25/25/191 151/104/191 27/23/191
f 151/104/192 25/25/192 223/147/192
f 162/112/193 40/30/193 224/134/193
f 38/28/194 224/134/194 40/30/194
f 224/134/195 38/28/195 225/135/195
f 228/143/196 227/144/196 226/148/196
f 227/144/197 228/143/197 229/145/197
f 232/142/198 231/141/198 230/140/198
f 77/19/199 76/18/199 234/17/199
f 103/12/200 234/17/200 76/18/200
f 234/17/201 103/12/201 102/10/201
f 149/21/202 77/19/202 147/101/202
f 77/19/203 149/21/203 22/20/203
f 24/22/204 22/20/204 149/21/204
f 18/14/205 103/12/205 74/56/205
f 103/12/206 18/14/206 14/13/206
f 16/15/207 14/13/207 18/14/207
f 104/9/208 145/100/208 235/11/208
f 236/138/209 235/11/209 145/100/209
f 235/11/210 236/138/210 210/139/210
f 98/71/211 237/92/211 123/85/211
f 238/91/212 123/85/212 237/92/212
f 123/85/213 238/91/213 124/8/213
f 53/5/214 126/7/214 239/6/214
f 124/8/215 239/6/215 126/7/215
f 239/6/216 124/8/216 49/39/216
f 126/7/217 53/5/217 240/136/217
f 241/53/218 240/136/218 53/5/218
f 240/136/219 241/53/219 242/133/219
f 243/132/220 242/133/220 241/53/220
f 242/133/221 243/132/221 114/82/221
f 112/80/222 114/82/222 243/132/222
f 246/129/223 245/128/223 244/127/223
f 245/128/224 246/129/224 247/130/224
f 199/131/225 247/130/225 246/129/225
f 115/45/226 117/43/226 248/44/226
f 118/42/227 248/44/227 117/43/227
f 248/44/228 118/42/228 128/88/228
f 50/2/229 249/1/229 250/149/229
f 93/126/230 250/149/230 249/1/230
f 251/124/231 252/122/231 253/123/231
f 254/121/232 253/123/232 252/122/232
f 253/123/233 254/121/233 255/150/233
f 258/151/234 257/152/234 256/153/234
f 257/152/235 258/151/235 259/154/235
f 260/152/236 259/154/236 258/151/236
f 261/155/237 197/129/237 262/156/237
f 199/131/238 262/156/238 197/129/238
f 262/156/239 199/131/239 246/129/239
f 263/83/240 55/41/240 139/97/240
f 116/83/241 139/97/241 55/41/241
f 139/97/242 116/83/242 140/93/242
f 184/110/243 205/134/243 186/112/243
f 205/134/244 184/110/244 206/135/244
f 219/146/245 206/135/245 184/110/245
f 264/157/246 265/158/246 266/159/246
f 136/94/247 266/159/247 265/158/247
f 266/159/248 136/94/248 267/158/248
f 268/160/249 269/161/249 66/52/249
f 270/162/250 66/52/250 269/161/250
f 66/52/251 270/162/251 67/53/251
f 270/162/252 6/5/252 67/53/252
f 6/5/253 270/162/253 4/3/253
f 167/113/254 4/3/254 270/162/254
f 272/163/255 271/164/255 214/165/255
f 272/163/256 214/165/256 218/145/256
f 218/145/257 216/144/257 272/163/257
f 168/115/258 273/166/258 166/114/258
f 273/166/259 168/115/259 274/167/259
f 170/117/260 274/167/260 168/115/260
f 275/168/261 276/68/261 90/66/261
f 277/67/262 90/66/262 276/68/262
f 90/66/263 277/67/263 88/69/263
f 177/115/264 278/167/264 175/117/264
f 92/114/265 279/166/265 177/115/265
f 160/110/266 225/135/266 280/169/266
f 225/135/267 160/110/267 224/134/267
f 162/112/268 224/134/268 160/110/268
f 281/162/269 52/3/269 178/113/269
f 52/3/270 281/162/270 53/5/270
f 241/53/271 53/5/271 281/162/271
f 108/52/272 283/161/272 282/160/272
f 283/161/273 108/52/273 281/162/273
f 241/53/274 281/162/274 108/52/274
f 227/144/275 229/145/275 284/163/275
f 233/165/276 284/163/276 229/145/276
f 233/165/277 285/164/277 284/163/277
f 285/164/278 233/165/278 230/140/278
f 69/34/279 179/55/279 70/54/279
f 286/170/280 70/54/280 179/55/280
f 287/171/281 288/172/281 261/155/281
f 195/127/282 261/155/282 288/172/282
f 59/45/283 57/43/283 263/83/283
f 55/41/284 263/83/284 57/43/284
f 181/35/285 289/37/285 180/36/285
f 290/38/286 180/36/286 289/37/286
f 189/122/287 188/121/287 291/173/287
f 292/174/288 291/173/288 188/121/288
f 3/2/289 293/149/289 193/1/289
f 1/126/290 193/1/290 293/149/290
f 8/7/291 122/87/291 294/175/291
f 295/176/292 294/175/292 122/87/292
f 185/111/293 186/112/293 296/177/293
f 297/178/294 296/177/294 186/112/294
f 17/16/295 74/56/295 15/14/295
f 13/12/296 15/14/296 74/56/296
f 13/12/297 74/56/297 20/18/297
f 72/58/298 20/18/298 74/56/298
f 209/138/299 210/139/299 208/137/299
f 146/77/300 145/100/300 107/79/300
f 105/77/301 107/79/301 145/100/301
f 20/18/302 72/58/302 22/20/302
f 298/179/303 22/20/303 72/58/303
f 221/62/304 222/63/304 299/64/304
f 84/65/305 299/64/305 222/63/305
f 300/180/306 301/181/306 302/182/306
f 303/183/307 302/182/307 301/181/307
f 304/184/308 154/104/308 305/105/308
f 155/103/309 305/105/309 154/104/309
f 306/185/310 307/186/310 308/187/310
f 175/117/311 308/187/311 307/186/311
f 22/20/312 298/179/312 75/58/312
f 73/57/313 75/58/313 298/179/313
f 309/188/314 310/189/314 311/190/314
f 312/191/315 311/190/315 310/189/315
f 98/71/316 313/98/316 237/92/316
f 314/99/317 237/92/317 313/98/317
f 98/71/318 123/85/318 99/74/318
f 101/76/319 99/74/319 123/85/319
f 126/7/320 315/175/320 127/87/320
f 316/176/321 127/87/321 315/175/321
f 317/178/322 162/112/322 318/177/322
f 161/111/323 318/177/323 162/112/323
f 165/95/324 136/94/324 140/93/324
f 138/96/325 140/93/325 136/94/325
f 319/171/326 320/192/326 321/172/326
f 244/127/327 321/172/327 320/192/327
f 252/122/328 322/173/328 254/121/328
f 323/174/329 254/121/329 322/173/329
f 324/89/330 238/91/330 325/90/330
f 237/92/331 325/90/331 238/91/331
f 326/193/332 327/194/332 328/195/332
f 329/196/333 328/195/333 327/194/333
f 258/151/334 327/194/334 260/152/334
f 326/193/335 260/152/335 327/194/335
f 330/193/336 331/195/336 256/153/336
f 329/196/337 256/153/337 331/195/337
f 326/193/338 328/195/338 332/197/338
f 333/198/339 332/197/339 328/195/339
f 330/193/340 334/197/340 331/195/340
f 333/198/341 331/195/341 334/197/341
f 292/174/342 188/121/342 335/199/342
f 336/150/343 335/199/343 188/121/343
f 337/200/344 338/201/344 339/202/344
f 340/200/345 339/202/345 338/201/345
f 286/170/346 339/202/346 341/203/346
f 342/204/347 341/203/347 339/202/347
f 286/170/348 341/203/348 70/54/348
f 342/204/349 70/54/349 341/203/349
f 335/199/350 343/205/350 338/201/350
f 344/206/351 338/201/351 343/205/351
f 261/155/352 345/207/352 346/208/352
f 320/192/353 346/208/353 345/207/353
f 261/155/354 262/156/354 345/207/354
f 320/192/355 345/207/355 262/156/355
f 135/95/356 61/47/356 201/81/356
f 63/49/357 201/81/357 61/47/357
f 10/11/358 347/209/358 210/139/358
f 235/11/359 210/139/359 347/209/359
f 167/113/360 348/210/360 169/116/360
f 349/211/361 169/116/361 348/210/361
f 348/210/362 269/161/362 349/211/362
f 350/185/363 349/211/363 269/161/363
f 351/212/364 352/213/364 276/68/364
f 182/108/365 157/109/365 172/119/365
f 158/108/366 172/119/366 157/109/366
f 275/168/367 89/70/367 343/205/367
f 353/214/368 343/205/368 89/70/368
f 277/67/369 354/215/369 88/69/369
f 86/67/370 88/69/370 354/215/370
f 299/64/371 84/65/371 358/216/371
f 83/64/372 358/216/372 84/65/372
f 359/217/373 360/218/373 356/219/373
f 303/183/374 356/219/374 360/218/374
f 361/220/375 362/221/375 360/218/375
f 302/182/376 360/218/376 362/221/376
f 364/212/377 85/68/377 363/213/377
f 178/113/378 176/116/378 365/210/378
f 307/186/379 365/210/379 176/116/379
f 365/210/380 307/186/380 283/161/380
f 306/185/381 283/161/381 307/186/381
f 255/150/382 254/121/382 344/206/382
f 323/174/383 344/206/383 254/121/383
f 327/194/384 258/151/384 329/196/384
f 256/153/385 329/196/385 258/151/385
f 328/195/386 329/196/386 333/198/386
f 331/195/387 333/198/387 329/196/387
f 287/171/388 346/208/388 366/222/388
f 182/108/389 183/107/389 157/109/389
f 261/155/390 195/127/390 197/129/390
f 187/75/391 121/86/391 141/74/391
f 367/188/392 368/190/392 369/189/392
f 369/189/393 368/190/393 370/191/393
f 1/126/394 293/149/394 371/223/394
f 65/51/395 67/53/395 203/132/395
f 68/33/396 42/32/396 372/31/396
f 146/77/397 107/79/397 106/78/397
f 21/19/398 147/101/398 19/17/398
f 72/58/399 73/57/399 298/179/399
f 23/21/400 24/22/400 148/102/400
f 216/144/401 217/143/401 215/148/401
f 194/224/402 166/114/402 373/225/402
f 350/185/403 374/187/403 349/211/403
f 170/117/404 169/116/404 349/211/404
f 349/211/405 374/187/405 170/117/405
f 170/117/406 374/187/406 375/226/406
f 150/105/407 151/104/407 376/184/407
f 377/227/408 378/181/408 355/228/408
f 222/63/409 80/61/409 379/229/409
f 378/181/410 380/180/410 361/220/410
f 378/181/411 359/217/411 355/228/411
f 378/181/412 361/220/412 359/217/412
f 357/228/413 301/181/413 381/227/413
f 357/228/414 303/183/414 301/181/414
f 33/25/415 154/104/415 382/147/415
f 379/229/416 80/61/416 82/63/416
f 383/226/417 308/187/417 175/117/417
f 307/186/418 176/116/418 175/117/418
f 366/222/419 346/208/419 319/171/419
f 92/114/420 384/230/420 91/224/420
f 92/114/421 93/126/421 249/1/421
f 234/17/422 147/101/422 77/19/422
f 76/18/423 74/56/423 103/12/423
f 74/56/424 17/16/424 18/14/424
f 98/71/425 96/73/425 313/98/425
f 145/100/426 104/9/426 105/77/426
f 104/9/427 235/11/427 102/10/427
f 145/100/428 208/137/428 236/138/428
f 110/51/429 241/53/429 108/52/429
f 50/2/430 94/1/430 52/3/430
f 239/6/431 51/4/431 53/5/431
f 51/4/432 239/6/432 49/39/432
f 243/132/433 241/53/433 110/51/433
f 246/129/434 244/127/434 320/192/434
f 95/231/435 385/232/435 93/126/435
f 256/153/436 257/152/436 330/193/436
f 292/174/437 335/199/437 337/200/437
f 338/201/438 337/200/438 335/199/438
f 339/202/439 286/170/439 337/200/439
f 386/233/440 337/200/440 286/170/440
f 337/200/441 386/233/441 292/174/441
f 179/55/442 386/233/442 286/170/442
f 386/233/443 179/55/443 180/36/443
f 343/205/444 335/199/444 336/150/444
f 336/150/445 188/121/445 190/123/445
f 261/155/446 346/208/446 287/171/446
f 180/36/447 290/38/447 386/233/447
f 386/233/448 387/234/448 292/174/448
f 387/234/449 386/233/449 290/38/449
f 291/173/450 292/174/450 388/235/450
f 129/89/451 9/8/451 389/236/451
f 9/8/452 129/89/452 131/91/452
f 9/8/453 134/39/453 389/236/453
f 119/85/454 9/8/454 131/91/454
f 119/85/455 121/86/455 120/84/455
f 60/46/456 56/42/456 58/44/456
f 60/46/92 121/86/92 187/75/92
f 60/46/457 59/45/457 295/176/457
f 295/176/458 122/87/458 60/46/458
f 144/99/459 132/92/459 130/90/459
f 190/123/460 192/125/460 351/212/460
f 336/150/461 351/212/461 275/168/461
f 351/212/462 336/150/462 190/123/462
f 139/97/463 137/93/463 263/83/463
f 61/47/464 390/237/464 62/48/464
f 390/237/465 61/47/465 265/158/465
f 265/158/466 264/157/466 390/237/466
f 61/47/467 135/95/467 265/158/467
f 136/94/468 265/158/468 135/95/468
f 202/80/469 65/51/469 203/132/469
f 268/160/470 66/52/470 64/50/470
f 167/113/471 270/162/471 348/210/471
f 270/162/472 269/161/472 348/210/472
f 214/165/473 271/164/473 213/140/473
f 214/165/474 213/140/474 211/142/474
f 350/185/475 269/161/475 268/160/475
f 352/213/476 351/212/476 192/125/476
f 219/146/477 184/110/477 182/108/477
f 182/108/478 172/119/478 219/146/478
f 276/68/479 275/168/479 351/212/479
f 275/168/480 343/205/480 336/150/480
f 90/66/481 89/70/481 275/168/481
f 219/146/482 28/26/482 206/135/482
f 172/119/483 171/118/483 219/146/483
f 28/26/484 30/28/484 206/135/484
f 359/217/485 356/219/485 355/228/485
f 361/220/486 360/218/486 359/217/486
f 360/218/487 302/182/487 303/183/487
f 356/219/488 303/183/488 357/228/488
f 37/27/489 39/29/489 156/106/489
f 38/28/490 36/26/490 225/135/490
f 174/118/491 172/119/491 280/169/491
f 280/169/492 36/26/492 174/118/492
f 36/26/493 280/169/493 225/135/493
f 283/161/494 306/185/494 282/160/494
f 160/110/495 280/169/495 158/108/495
f 364/212/496 363/213/496 391/125/496
f 353/214/497 85/68/497 364/212/497
f 85/68/498 353/214/498 87/66/498
f 172/119/499 158/108/499 280/169/499
f 89/70/500 87/66/500 353/214/500
f 255/150/501 364/212/501 253/123/501
f 364/212/502 255/150/502 353/214/502
f 343/205/503 353/214/503 255/150/503
f 344/206/504 343/205/504 255/150/504
f 253/123/505 391/125/505 251/124/505
f 391/125/506 253/123/506 364/212/506
f 92/114/507 52/3/507 94/1/507
f 281/162/508 178/113/508 365/210/508
f 108/52/509 282/160/509 109/50/509
f 283/161/510 281/162/510 365/210/510
f 230/140/511 233/165/511 232/142/511
f 237/92/512 314/99/512 325/90/512
f 49/39/513 124/8/513 392/236/513
f 110/51/514 112/80/514 243/132/514
f 165/95/515 164/47/515 267/158/515
f 164/47/516 393/237/516 267/158/516
f 393/237/517 164/47/517 163/48/517
f 267/158/518 136/94/518 165/95/518
f 267/158/519 264/157/519 266/159/519
f 264/157/520 267/158/520 393/237/520
f 320/192/521 262/156/521 246/129/521
f 101/76/522 123/85/522 125/84/522
f 324/89/523 124/8/523 238/91/523
f 124/8/524 324/89/524 392/236/524
f 101/76/97 128/88/97 100/75/97
f 127/87/525 316/176/525 128/88/525
f 128/88/526 115/45/526 248/44/526
f 115/45/527 128/88/527 316/176/527
f 323/174/528 322/173/528 394/235/528
f 344/206/529 323/174/529 340/200/529
f 48/38/530 46/36/530 395/238/530
f 71/55/531 395/238/531 46/36/531
f 395/238/532 71/55/532 342/204/532
f 128/88/533 118/42/533 100/75/533
f 395/238/534 396/234/534 48/38/534
f 396/234/535 395/238/535 323/174/535
f 395/238/536 340/200/536 323/174/536
f 340/200/537 395/238/537 342/204/537
f 346/208/538 320/192/538 319/171/538
f 340/200/539 338/201/539 344/206/539
f 70/54/540 342/204/540 71/55/540
f 342/204/541 339/202/541 340/200/541
f 397/239/542 398/240/542 399/241/542
f 400/242/543 399/241/543 398/240/543
f 399/241/544 400/242/544 401/243/544
f 402/244/545 401/243/545 400/242/545
f 401/243/546 402/244/546 403/245/546
f 404/246/547 403/245/547 402/244/547
f 403/245/548 404/246/548 405/247/548
f 401/243/549 403/245/549 406/248/549
f 405/247/550 406/248/550 403/245/550
f 406/248/551 405/247/551 407/249/551
f 408/250/552 407/249/552 405/247/552
f 407/249/553 408/250/553 409/251/553
f 412/252/554 411/253/554 410/254/554
f 411/253/554 412/252/554 413/255/554
f 414/256/555 413/255/555 412/252/555
f 413/255/556 414/256/556 415/257/556
f 418/258/557 417/259/557 416/260/557
f 417/259/558 418/258/558 419/261/558
f 420/262/559 419/261/559 418/258/559
f 419/261/560 420/262/560 421/263/560
f 422/264/561 408/250/561 423/265/561
f 405/247/562 423/265/562 408/250/562
f 423/265/563 405/247/563 424/266/563
f 404/246/564 424/266/564 405/247/564
f 426/261/565 418/258/565 425/259/565
f 418/258/566 426/261/566 420/262/566
f 427/267/567 420/262/567 426/261/567
f 428/248/568 429/247/568 430/245/568
f 431/246/569 430/245/569 429/247/569
f 430/245/570 431/246/570 432/244/570
f 433/255/571 434/268/571 435/257/571
f 436/269/572 435/257/572 434/268/572
f 433/255/573 437/270/573 438/252/573
f 439/271/574 438/252/574 437/270/574
f 414/256/575 412/252/575 440/270/575
f 441/271/576 440/270/576 412/252/576
f 399/241/577 442/272/577 397/239/577
f 443/273/578 397/239/578 442/272/578
f 444/259/579 445/260/579 446/258/579
f 447/259/580 446/258/580 445/260/580
f 448/243/581 449/242/581 450/241/581
f 451/240/582 450/241/582 449/242/582
f 430/245/583 432/244/583 448/243/583
f 449/242/584 448/243/584 432/244/584
f 452/274/585 453/275/585 412/252/585
f 441/271/586 412/252/586 453/275/586
f 421/263/587 420/262/587 454/276/587
f 427/267/588 454/276/588 420/262/588
f 411/253/589 413/255/589 434/268/589
f 435/257/590 455/256/590 433/255/590
f 433/255/591 455/256/591 437/270/591
f 434/268/592 415/257/592 436/269/592
f 418/258/593 416/260/593 425/259/593
f 430/245/594 448/243/594 428/248/594
f 456/269/595 457/257/595 458/277/595
f 458/277/596 459/257/596 456/269/596
f 460/255/597 461/256/597 459/257/597
f 459/257/598 458/277/598 460/255/598
f 458/277/599 462/255/599 463/278/599
f 438/252/600 439/271/600 464/275/600
f 452/274/585 412/252/585 410/254/585
f 413/255/601 415/257/601 434/268/601
f 443/273/602 442/272/602 465/279/602
f 407/249/603 409/251/603 466/280/603
f 408/250/604 422/264/604 409/251/604
f 431/246/605 429/247/605 467/266/605
f 462/255/606 457/257/606 468/256/606
f 457/257/607 462/255/607 458/277/607
f 469/281/608 470/282/608 471/271/608
f 472/275/609 471/271/609 470/282/609
f 471/271/610 472/275/610 473/252/610
f 474/274/611 473/252/611 472/275/611
f 475/282/612 476/281/612 477/275/612
f 478/271/613 477/275/613 476/281/613
f 477/275/614 478/271/614 479/252/614
f 480/283/615 481/267/615 482/276/615
f 483/262/616 482/276/616 481/267/616
f 482/276/617 483/262/617 484/263/617
f 175/117/618 278/167/618 485/284/618
f 470/282/619 486/285/619 472/275/619
f 474/274/620 472/275/620 486/285/620
f 311/190/621 312/191/621 487/286/621
f 488/279/622 487/286/622 312/191/622
f 489/287/623 490/251/623 491/288/623
f 492/289/624 491/288/624 490/251/624
f 490/251/625 493/290/625 492/289/625
f 494/291/626 492/289/626 493/290/626
f 495/284/627 274/167/627 170/117/627
f 482/276/628 484/263/628 480/283/628
f 471/271/629 473/252/629 496/270/629
f 473/252/611 474/274/611 497/254/611
f 479/252/630 478/271/630 498/270/630
f 489/287/631 499/250/631 490/251/631
f 499/250/632 489/287/632 500/265/632
f 483/262/633 481/267/633 501/261/633
f 490/251/634 502/249/634 493/290/634
f 502/249/635 490/251/635 499/250/635
f 484/263/636 483/262/636 503/261/636
f 504/272/637 487/286/637 488/279/637
f 487/286/638 504/272/638 505/292/638
f 446/258/639 483/262/639 501/261/639
f 483/262/640 446/258/640 503/261/640
f 447/259/641 503/261/641 446/258/641
f 502/249/642 499/250/642 429/247/642
f 500/265/643 429/247/643 499/250/643
f 429/247/644 500/265/644 467/266/644
f 473/252/645 462/255/645 468/256/645
f 462/255/646 473/252/646 463/278/646
f 497/254/646 463/278/646 473/252/646
f 479/252/647 498/270/647 460/255/647
f 461/256/648 460/255/648 498/270/648
f 501/261/649 444/259/649 446/258/649
f 429/247/650 428/248/650 502/249/650
f 496/270/651 473/252/651 468/256/651
f 450/241/652 451/240/652 505/292/652
f 450/241/653 505/292/653 504/272/653
f 506/291/654 466/280/654 507/289/654
f 409/251/655 507/289/655 466/280/655
f 507/289/656 409/251/656 508/288/656
f 422/264/657 508/288/657 409/251/657
f 509/281/658 441/271/658 510/282/658
f 453/275/659 510/282/659 441/271/659
f 510/282/660 453/275/660 511/285/660
f 452/274/661 511/285/661 453/275/661
f 368/190/662 443/273/662 370/191/662
f 465/279/663 370/191/663 443/273/663
f 439/271/664 512/281/664 464/275/664
f 513/282/665 464/275/665 512/281/665
f 514/283/666 421/263/666 454/276/666
f 514/283/667 454/276/667 427/267/667
f 170/117/668 375/226/668 495/284/668
f 515/293/669 495/284/669 375/226/669
f 495/284/670 515/293/670 516/294/670
f 517/293/671 383/226/671 485/284/671
f 175/117/672 485/284/672 383/226/672
f 485/284/673 516/294/673 517/293/673
f 519/114/674 520/224/674 518/126/674
f 525/295/675 527/296/675 526/297/675
f 525/295/676 526/297/676 524/39/676
f 524/39/677 523/2/677 525/295/677
f 523/2/678 521/298/678 522/299/678
f 525/295/679 523/2/679 522/299/679
f 531/300/680 532/301/680 530/302/680
f 529/303/681 528/304/681 531/300/681
f 532/301/682 531/300/682 534/305/682
f 534/305/683 533/306/683 532/301/683
f 536/303/684 535/304/684 541/300/684
f 537/306/685 539/301/685 538/305/685
f 538/305/686 539/301/686 541/300/686
f 540/302/687 541/300/687 539/301/687
f 549/295/688 547/297/688 546/307/688
f 542/224/689 545/114/689 551/126/689
f 543/298/690 550/2/690 544/299/690
f 549/295/691 544/299/691 550/2/691
f 547/297/692 549/295/692 548/39/692
f 550/2/693 548/39/693 549/295/693
f 651/126/742 650/232/742 652/231/742
f 651/126/743 652/231/743 653/1/743
f 654/2/744 653/1/744 652/231/744
f 662/302/745 663/301/745 661/300/745
f 664/305/746 661/300/746 663/301/746
f 665/306/747 664/305/747 663/301/747
f 666/367/748 667/68/748 668/67/748
f 671/114/749 670/224/749 669/225/749
f 673/1/750 672/126/750 671/114/750
f 672/126/751 673/1/751 674/231/751
f 660/2/752 674/231/752 673/1/752
f 675/305/753 677/301/753 676/306/753
f 677/301/754 675/305/754 678/300/754
f 654/2/755 680/295/755 681/39/755
f 682/297/756 681/39/756 680/295/756
f 680/295/757 654/2/757 687/299/757
f 688/298/758 687/299/758 654/2/758
f 689/1/759 651/126/759 685/114/759
f 690/224/760 651/126/760 685/114/760
f 685/114/761 690/224/761 691/230/761
f 655/11/762 693/138/762 684/100/762
f 696/149/763 672/126/763 697/223/763
f 658/295/764 698/299/764 660/2/764
f 660/2/765 698/299/765 699/298/765
f 704/167/766 686/115/766 705/166/766
f 695/138/767 692/137/767 694/139/767
f 706/303/768 661/300/768 707/304/768
f 708/303/769 678/300/769 709/304/769
f 659/39/770 658/295/770 660/2/770
f 711/368/771 702/68/771 710/213/771
f 713/228/772 714/219/772 715/369/772
f 716/228/773 715/369/773 714/219/773
f 717/368/774 718/213/774 667/68/774
f 680/295/775 683/307/775 682/297/775
f 703/67/776 702/68/776 719/367/776
f 678/300/777 679/302/777 677/301/777
f 671/114/778 672/126/778 670/224/778
f 658/295/779 659/39/779 657/297/779
f 658/295/780 657/297/780 656/296/780
f 702/68/781 711/368/781 719/367/781
f 700/166/782 701/167/782 722/370/782
f 713/228/783 715/369/783 720/227/783
f 715/369/784 716/228/784 721/227/784
f 717/368/785 667/68/785 666/367/785
f 704/167/786 705/166/786 723/370/786
f 711/368/787 724/371/787 719/367/787
f 725/372/788 719/367/788 724/371/788
f 719/367/789 725/372/789 703/67/789
f 726/373/790 703/67/790 725/372/790
f 703/67/791 726/373/791 712/215/791
f 668/67/792 712/215/792 726/373/792
f 666/367/793 727/371/793 717/368/793
f 727/371/794 666/367/794 728/372/794
f 668/67/795 728/372/795 666/367/795
f 728/372/796 668/67/796 726/373/796
f 730/374/797 729/284/797 704/167/797
f 704/167/798 723/370/798 730/374/798
f 731/375/799 730/374/799 723/370/799
f 701/167/800 732/284/800 733/374/800
f 701/167/801 733/374/801 722/370/801
f 722/370/802 733/374/802 734/375/802
f 720/227/803 715/369/803 735/376/803
f 735/376/804 715/369/804 721/227/804
usemtl texture004_texture004.png
f 554/308/694 553/309/694 552/310/694
f 553/309/695 554/308/695 555/311/695
f 556/312/696 555/311/696 554/308/696
f 555/311/697 556/312/697 557/313/697
f 558/314/698 557/313/698 556/312/698
f 559/315/699 560/316/699 561/317/699
f 562/318/700 561/317/700 560/316/700
f 561/317/701 562/318/701 563/319/701
f 564/320/702 563/319/702 562/318/702
f 565/321/703 563/319/703 564/320/703
f 563/319/704 565/321/704 566/322/704
f 567/323/705 566/322/705 565/321/705
f 566/322/706 567/323/706 568/324/706
f 569/325/707 570/326/707 571/327/707
f 572/328/708 571/327/708 570/326/708
f 571/327/709 572/328/709 554/308/709
f 570/326/710 573/329/710 572/328/710
f 574/330/711 572/328/711 573/329/711
f 572/328/712 574/330/712 556/312/712
f 573/329/713 575/331/713 574/330/713
f 576/332/714 574/330/714 575/331/714
f 574/330/715 576/332/715 558/314/715
f 568/324/716 577/333/716 566/322/716
f 578/334/717 566/322/717 577/333/717
f 566/322/718 578/334/718 563/319/718
f 576/332/715 579/335/715 558/314/715
f 580/336/719 558/314/719 579/335/719
f 558/314/720 580/336/720 557/313/720
f 581/337/721 582/338/721 583/339/721
f 584/340/721 583/339/721 582/338/721
f 585/341/722 586/342/722 587/343/722
f 588/344/722 587/343/722 586/342/722
f 589/337/722 590/343/722 591/342/722
f 588/344/722 591/342/722 590/343/722
f 592/337/722 593/342/722 594/343/722
f 595/344/722 594/343/722 593/342/722
f 596/337/721 597/339/721 598/338/721
f 599/340/721 598/338/721 597/339/721
f 600/341/722 601/343/722 602/342/722
f 595/344/722 602/342/722 601/343/722
f 577/333/723 603/345/723 578/334/723
f 604/346/724 578/334/724 603/345/724
f 605/347/725 606/348/725 604/346/725
f 559/315/726 604/346/726 606/348/726
f 610/349/727 609/350/727 608/351/727
f 611/352/728 612/353/728 613/354/728
f 614/355/729 613/354/729 612/353/729
f 612/353/729 615/356/729 614/355/729
f 616/357/730 614/355/730 615/356/730
f 586/342/722 617/358/722 588/344/722
f 591/342/722 588/344/722 617/358/722
f 608/351/727 618/355/727 610/349/727
f 619/359/731 610/349/731 618/355/731
f 614/355/730 616/357/730 620/360/730
f 621/361/732 620/360/732 616/357/732
f 620/360/732 621/361/732 622/362/732
f 623/363/733 622/362/733 621/361/733
f 610/349/731 619/359/731 623/363/731
f 622/362/733 623/363/733 619/359/733
f 624/355/729 625/360/729 626/357/729
f 627/361/728 626/357/728 625/360/728
f 626/357/729 628/356/729 624/355/729
f 629/353/730 624/355/730 628/356/730
f 593/342/722 630/358/722 595/344/722
f 602/342/722 595/344/722 630/358/722
f 625/360/728 631/362/728 627/361/728
f 632/363/734 627/361/734 631/362/734
f 624/355/730 629/353/730 633/354/730
f 634/352/732 633/354/732 629/353/732
f 635/349/731 636/351/731 637/350/731
f 636/351/731 635/349/731 639/355/731
f 632/363/727 639/355/727 635/349/727
f 639/355/727 632/363/727 640/359/727
f 631/362/734 640/359/734 632/363/734
f 559/315/726 561/317/726 604/346/726
f 578/334/735 604/346/735 561/317/735
f 552/310/736 569/325/736 571/327/736
f 552/310/737 571/327/737 554/308/737
f 641/343/721 642/337/721 643/342/721
f 644/342/721 645/337/721 646/343/721
f 565/321/738 647/364/738 567/323/738
f 647/364/739 565/321/739 564/320/739
f 554/308/740 572/328/740 556/312/740
f 556/312/712 574/330/712 558/314/712
f 607/365/734 609/350/734 611/352/734
f 611/352/728 613/354/728 607/365/728
f 583/339/721 584/340/721 648/358/721
f 643/342/721 584/340/721 641/343/721
f 584/340/721 643/342/721 648/358/721
f 644/342/721 599/340/721 649/366/721
f 599/340/721 644/342/721 646/343/721
f 599/340/721 597/339/721 649/366/721
f 633/354/732 634/352/732 638/365/732
f 637/350/733 638/365/733 634/352/733
f 604/346/741 603/345/741 605/347/741
f 578/334/735 561/317/735 563/319/735
