# Blender 5.1.1
# www.blender.org
mtllib right_arm_1.mtl
g arm_2_dr_Mesh_0456Mesh.004
v 0.008532 0.007256 0.019302
v 0.008720 0.003121 0.015991
v 0.000133 0.007012 0.025210
v 0.000308 0.000374 0.020160
v -0.008065 0.000168 0.019210
v -0.008149 0.007416 0.024579
v 0.001178 -0.002227 0.014410
v 0.009334 0.001519 0.012250
v -0.007218 -0.002563 0.013350
v -0.020829 0.001618 0.015279
v -0.021084 0.007912 0.020556
v -0.030617 0.007637 0.018199
v 0.003356 -0.003212 0.004539
v 0.010761 0.000878 0.006114
v 0.012424 0.002182 0.000438
v -0.029561 0.002655 0.012441
v -0.040185 0.007065 0.016117
v 0.006042 -0.000915 -0.004506
v 0.013786 0.004891 -0.003190
v -0.005070 -0.003486 0.002512
v -0.019989 -0.000695 0.009976
v 0.008205 0.003403 -0.009722
v 0.014705 0.008583 -0.004324
v -0.038357 0.003762 0.009975
v 0.009704 0.009201 -0.011176
v -0.053926 0.004684 0.008307
v -0.055391 0.006334 0.014616
v 0.009822 0.014420 -0.007745
v 0.014724 0.011772 -0.002096
v 0.002017 0.010239 -0.012975
v 0.000141 0.003952 -0.012059
v 0.008525 0.018303 -0.000374
v 0.013900 0.014328 0.002725
v 0.012111 0.015290 0.009180
v 0.002384 0.016385 -0.009073
v 0.005760 0.019768 0.009639
v 0.010005 0.013771 0.015678
v 0.001038 0.020102 -0.001271
v -0.011647 0.011751 -0.012473
v 0.002437 0.017075 0.019869
v 0.008842 0.010125 0.019070
v -0.002236 -0.000656 -0.007373
v -0.013802 0.005829 -0.012646
v -0.016202 0.001381 -0.009330
v -0.001832 0.021271 0.009083
v -0.023041 0.006539 -0.013029
v -0.018464 -0.001434 -0.000351
v -0.025532 0.002106 -0.010381
v -0.030301 0.013094 -0.010754
v -0.036957 0.002882 0.004800
v -0.021076 0.018304 -0.007813
v -0.032315 0.007271 -0.012182
v -0.022964 0.021380 -0.000614
v -0.027291 0.000023 -0.002384
v -0.031251 0.018395 -0.006217
v -0.034920 0.003006 -0.010108
v -0.036152 0.001839 -0.003460
v -0.048916 0.014160 -0.006804
v -0.050999 0.009163 -0.008905
v -0.053273 0.005242 -0.007521
v -0.053475 0.004166 -0.002650
v -0.053151 0.004555 0.003571
v -0.071442 0.005015 0.004358
v -0.073361 0.007683 -0.003220
v -0.084002 0.004049 0.009274
v -0.084269 0.004736 0.015309
v -0.103372 0.004175 0.016414
v -0.072713 0.005852 -0.000008
v -0.084542 0.004753 0.005392
v -0.126309 0.003300 0.010720
v -0.142255 0.002497 0.016091
v -0.103802 0.004647 0.006651
v -0.086484 0.006394 0.001980
v -0.142392 0.002716 0.010362
v -0.164490 0.000489 0.014535
v -0.126874 0.004349 0.007620
v -0.105546 0.006668 0.003874
v -0.164742 0.001160 0.008600
v -0.179188 -0.001526 0.013477
v -0.142975 0.003899 0.007489
v -0.128415 0.006630 0.005492
v -0.179471 -0.000541 0.006833
v -0.193200 -0.005035 0.012667
v -0.165364 0.002663 0.005843
v -0.144387 0.006371 0.005717
v -0.193596 -0.003555 0.003673
v -0.207108 -0.006897 0.011562
v -0.180127 0.001313 0.003842
v -0.166642 0.005532 0.004544
v -0.207596 -0.005295 0.002221
v -0.217282 -0.004852 0.010194
v -0.194550 -0.000908 -0.000362
v -0.181351 0.004578 0.002670
v -0.217606 -0.003868 0.004461
v -0.223580 0.000038 0.010125
v -0.208684 -0.002502 -0.001959
v -0.218316 -0.002166 0.001895
v -0.196190 0.003418 -0.001871
v -0.210476 0.001869 -0.003463
v -0.167744 0.008354 0.005413
v -0.182534 0.007729 0.003853
v -0.197815 0.007645 -0.000340
v -0.145409 0.009034 0.005934
v -0.167927 0.009964 0.008781
v -0.129410 0.009323 0.005136
v -0.144970 0.010628 0.008298
v -0.106576 0.009392 0.002533
v -0.128590 0.011185 0.006731
v -0.087636 0.008911 -0.000252
v -0.105271 0.011872 0.003101
v -0.085946 0.012024 -0.000539
v -0.144173 0.011566 0.012129
v -0.071473 0.011170 -0.004005
v -0.127411 0.012528 0.009772
v -0.069310 0.014878 -0.001910
v -0.083768 0.014939 0.001434
v -0.103554 0.013977 0.005394
v -0.049702 0.018586 -0.001520
v -0.069718 0.018265 0.004300
v -0.084008 0.017716 0.008019
v -0.103699 0.016268 0.011988
v -0.033948 0.020995 0.000835
v -0.052033 0.020066 0.005649
v -0.071583 0.018303 0.011697
v -0.014662 0.021362 0.008848
v -0.036753 0.020803 0.009862
v -0.054257 0.018547 0.013880
v -0.085511 0.016854 0.015325
v -0.072762 0.015808 0.017707
v -0.039361 0.016304 0.017515
v -0.104817 0.015176 0.018867
v -0.055897 0.013581 0.019557
v -0.085763 0.014054 0.020093
v -0.073334 0.011086 0.021308
v -0.029011 0.017052 0.017495
v -0.040349 0.010643 0.018193
v -0.005623 0.017708 0.019921
v -0.018513 0.017083 0.018228
v -0.030423 0.011475 0.019490
v -0.020463 0.011780 0.021139
v -0.007557 0.011887 0.024505
v 0.000572 0.011544 0.024938
v -0.021084 0.007912 0.020556
v 0.000091 0.009156 0.024172
v 0.008532 0.007256 0.019302
v 0.000133 0.007012 0.025210
v -0.008149 0.007416 0.024579
v -0.030617 0.007637 0.018199
v -0.040185 0.007065 0.016117
v -0.055391 0.006334 0.014616
v -0.055913 0.008870 0.017875
v -0.084269 0.004736 0.015309
v -0.084645 0.005983 0.019305
v -0.103372 0.004175 0.016414
v -0.085400 0.009606 0.022656
v -0.126494 0.003810 0.020382
v -0.142255 0.002497 0.016091
v -0.104370 0.007981 0.024245
v -0.104851 0.012263 0.022838
v -0.127232 0.006241 0.024281
v -0.164632 0.000718 0.018425
v -0.164490 0.000489 0.014535
v -0.143216 0.004960 0.023858
v -0.144288 0.008951 0.024578
v -0.128359 0.013289 0.021468
v -0.165547 0.002892 0.023007
v -0.179322 -0.001289 0.017875
v -0.179188 -0.001526 0.013477
v -0.193200 -0.005035 0.012667
v -0.166997 0.006859 0.024518
v -0.193528 -0.004654 0.018585
v -0.180390 0.001236 0.023136
v -0.207402 -0.006469 0.017796
v -0.207108 -0.006897 0.011562
v -0.195206 -0.001060 0.025614
v -0.182107 0.005310 0.024920
v -0.168008 0.010032 0.023108
v -0.197205 0.003723 0.027549
v -0.144536 0.012780 0.017942
v -0.183415 0.008683 0.023613
v -0.167721 0.010544 0.013758
v -0.183790 0.010357 0.019569
v -0.183213 0.009711 0.007908
v -0.198762 0.007836 0.026012
v -0.198975 0.010681 0.005138
v -0.199441 0.011559 0.013116
v -0.199608 0.010956 0.020721
v -0.212296 0.006165 -0.001922
v -0.214340 0.010438 0.011638
v -0.219483 0.000496 0.000977
v -0.213765 0.009423 0.003589
v -0.220666 0.003128 0.001916
v -0.221660 0.005250 0.005290
v -0.214142 0.009606 0.019580
v -0.221896 0.005356 0.015107
v -0.212761 0.006043 0.025160
v -0.220952 0.003052 0.018533
v -0.211113 0.002022 0.026786
v -0.219880 0.000588 0.019527
v -0.218598 -0.002243 0.018513
v -0.209145 -0.002624 0.025121
v -0.217469 -0.004593 0.014020
v -0.217282 -0.004852 0.010194
v 0.013900 0.014328 0.002725
v 0.014469 0.007363 0.010013
v 0.012111 0.015290 0.009180
v 0.014724 0.011772 -0.002096
v 0.010005 0.013771 0.015678
v 0.014705 0.008583 -0.004324
v 0.008842 0.010125 0.019070
v 0.013786 0.004891 -0.003190
v 0.008532 0.007256 0.019302
v 0.012424 0.002182 0.000438
v 0.008720 0.003121 0.015991
v 0.010761 0.000878 0.006114
v 0.009334 0.001519 0.012250
v 0.008571 -0.009262 -0.006989
v 0.008590 -0.012466 -0.005697
v 0.008258 -0.014816 -0.002148
v 0.002464 -0.011627 0.022133
v 0.005622 -0.011253 0.016368
v 0.003017 -0.015793 0.018856
v 0.006069 -0.013984 0.014178
v -0.001774 -0.011795 0.025610
v 0.003925 -0.018615 0.011898
v 0.006782 -0.015838 0.009534
v -0.001008 -0.016838 0.021686
v 0.005073 -0.019424 0.003152
v 0.007579 -0.016388 0.003701
v 0.008258 -0.014816 -0.002148
v 0.000228 -0.020325 0.013324
v 0.001661 -0.021380 0.002688
v 0.006153 -0.017021 -0.005617
v 0.008590 -0.012466 -0.005697
v -0.010735 -0.016596 0.020060
v -0.011381 -0.011556 0.023803
v 0.006748 -0.013519 -0.010843
v 0.008571 -0.009262 -0.006989
v -0.026312 -0.015205 0.015389
v -0.026812 -0.010734 0.018575
v -0.016010 -0.019553 0.010693
v 0.002899 -0.018503 -0.007999
v -0.040309 -0.013824 0.011129
v -0.040687 -0.009908 0.013898
v -0.025444 -0.018269 0.008403
v -0.014798 -0.020660 0.000692
v -0.056083 -0.012872 0.006707
v -0.056367 -0.009454 0.009195
v -0.055565 -0.015152 0.001355
v -0.067744 -0.012926 0.003270
v -0.075989 -0.010210 0.004196
v -0.046242 -0.016738 -0.003654
v -0.084659 -0.013261 -0.000568
v -0.084660 -0.010505 0.002898
v -0.098958 -0.010887 0.000990
v -0.075875 -0.014648 -0.004493
v -0.055028 -0.015988 -0.005187
v -0.098957 -0.013590 -0.002936
v -0.115571 -0.011612 -0.001338
v -0.075723 -0.014653 -0.010307
v -0.038144 -0.015577 -0.010503
v -0.115586 -0.013821 -0.005834
v -0.130574 -0.011680 -0.003180
v -0.054528 -0.014263 -0.011767
v -0.130608 -0.013687 -0.007934
v -0.142541 -0.011785 -0.004068
v -0.115514 -0.014154 -0.011844
v -0.098693 -0.013737 -0.014323
v -0.142628 -0.013739 -0.008963
v -0.130555 -0.013694 -0.013969
v -0.115407 -0.012976 -0.017103
v -0.163510 -0.013632 -0.007118
v -0.163426 -0.011057 -0.002129
v -0.142632 -0.013655 -0.015058
v -0.130467 -0.012306 -0.019003
v -0.187314 -0.012909 -0.005215
v -0.187207 -0.009724 -0.000197
v -0.173729 -0.014030 -0.013077
v -0.204384 -0.012642 -0.003504
v -0.204239 -0.008903 0.001784
v -0.204499 -0.014041 -0.011357
v -0.214016 -0.012985 -0.002231
v -0.213929 -0.008651 0.003555
v -0.221436 -0.006683 -0.002742
v -0.214203 -0.014572 -0.010630
v -0.221505 -0.009063 -0.005962
v -0.226281 -0.003868 -0.010831
v -0.221592 -0.010048 -0.010813
v -0.221638 -0.009704 -0.015444
v -0.214245 -0.014007 -0.018720
v -0.204579 -0.013328 -0.018728
v -0.163518 -0.012793 -0.019485
v -0.221623 -0.007591 -0.019216
v -0.142571 -0.012135 -0.020018
v -0.187424 -0.009666 -0.023928
v -0.204571 -0.009842 -0.024626
v -0.214322 -0.010170 -0.025324
v -0.163434 -0.009514 -0.023566
v -0.214173 -0.005348 -0.027549
v -0.204476 -0.005432 -0.026408
v -0.187325 -0.005668 -0.025168
v -0.142438 -0.008924 -0.023209
v -0.204320 -0.000541 -0.024817
v -0.163308 -0.005829 -0.024069
v -0.221570 -0.004860 -0.020455
v -0.187172 -0.001373 -0.023374
v -0.221482 -0.001785 -0.019596
v -0.214058 0.000016 -0.025942
v -0.213772 0.004319 -0.020278
v -0.204136 0.003182 -0.019570
v -0.221383 0.000588 -0.016416
v -0.213673 0.005951 -0.011851
v -0.221303 0.001580 -0.011571
v -0.221249 0.001274 -0.006704
v -0.221290 -0.000877 -0.003120
v -0.221436 -0.006683 -0.002742
v -0.213547 0.005463 -0.003351
v -0.213735 -0.003563 0.005041
v -0.213929 -0.008651 0.003555
v -0.213673 0.001541 0.002951
v -0.203995 0.000397 0.001607
v -0.204106 -0.004226 0.003247
v -0.204239 -0.008903 0.001784
v -0.203948 0.003909 -0.003985
v -0.186963 -0.001404 0.000375
v -0.187081 -0.005592 0.001473
v -0.187207 -0.009724 -0.000197
v -0.203997 0.004608 -0.011732
v -0.173462 -0.006704 0.000670
v -0.163426 -0.011057 -0.002129
v -0.187001 0.001805 -0.018393
v -0.173332 -0.002710 -0.000031
v -0.153500 -0.008245 -0.000927
v -0.142541 -0.011785 -0.004068
v -0.163038 -0.000419 -0.004182
v -0.153362 -0.004564 -0.000880
v -0.142411 -0.008728 -0.001515
v -0.130574 -0.011680 -0.003180
v -0.142266 -0.005233 -0.001231
v -0.130475 -0.008621 -0.000892
v -0.115571 -0.011612 -0.001338
v -0.142140 -0.002081 -0.004185
v -0.130341 -0.005188 -0.000825
v -0.115479 -0.008461 0.000479
v -0.098958 -0.010887 0.000990
v -0.173206 0.001627 -0.010671
v -0.098862 -0.007637 0.001914
v -0.084660 -0.010505 0.002898
v -0.115346 -0.005073 0.000080
v -0.084535 -0.007194 0.003136
v -0.075989 -0.010210 0.004196
v -0.098717 -0.004388 0.000632
v -0.130189 -0.002113 -0.003908
v -0.067735 -0.006363 0.005410
v -0.056367 -0.009454 0.009195
v -0.115182 -0.002145 -0.003362
v -0.056298 -0.005729 0.007788
v -0.040687 -0.009908 0.013898
v -0.075679 -0.003827 0.001643
v -0.056000 -0.002708 0.003866
v -0.040619 -0.005638 0.012063
v -0.084181 -0.001797 -0.003315
v -0.040253 -0.002243 0.007348
v -0.026764 -0.005882 0.016426
v -0.026812 -0.010734 0.018575
v -0.055499 -0.000839 -0.002504
v -0.011381 -0.006073 0.021367
v -0.011381 -0.011556 0.023803
v -0.026337 -0.002029 0.010977
v -0.001778 -0.006271 0.023143
v -0.001774 -0.011795 0.025610
v -0.017099 -0.001748 0.013617
v -0.001240 -0.001794 0.016832
v 0.002395 -0.007042 0.020096
v 0.002464 -0.011627 0.022133
v 0.005622 -0.011253 0.016368
v 0.005622 -0.008201 0.015014
v 0.002735 -0.003349 0.014848
v 0.005935 -0.005737 0.011519
v -0.000100 0.001267 0.006509
v 0.003620 -0.000816 0.006330
v 0.006576 -0.004028 0.005874
v 0.007408 -0.004753 -0.000163
v 0.004890 -0.001953 -0.002750
v 0.008125 -0.006584 -0.004786
v -0.009881 0.001358 0.004991
v 0.006061 -0.004722 -0.009534
v 0.001396 -0.000091 -0.004475
v 0.006797 -0.008735 -0.012744
v -0.025506 0.000574 0.002152
v -0.008507 -0.000003 -0.005807
v 0.002689 -0.003456 -0.012792
v -0.007268 -0.003426 -0.013929
v -0.024441 -0.000698 -0.007192
v -0.039597 -0.000032 -0.000250
v -0.054928 -0.001760 -0.009304
v -0.038090 -0.003991 -0.014345
v -0.075352 -0.001808 -0.009046
v -0.054463 -0.004150 -0.014610
v -0.066679 -0.003697 -0.014461
v -0.098261 -0.001889 -0.014770
v -0.022915 -0.008231 -0.017421
v -0.098524 -0.001681 -0.003428
v -0.115059 -0.000993 -0.008829
v -0.045205 -0.007812 -0.017056
v -0.130082 -0.000717 -0.009192
v -0.114991 -0.001297 -0.014760
v -0.142083 -0.000526 -0.009424
v -0.130036 -0.000709 -0.015195
v -0.153164 0.000121 -0.009794
v -0.142075 -0.000433 -0.015514
v -0.163034 0.000436 -0.016834
v -0.130078 -0.002685 -0.019919
v -0.163159 -0.002100 -0.021788
v -0.142155 -0.002372 -0.020397
v -0.142293 -0.005561 -0.023085
v -0.130189 -0.005874 -0.022388
v -0.115018 -0.003441 -0.019220
v -0.130322 -0.009178 -0.022338
v -0.115117 -0.006714 -0.021262
v -0.098256 -0.004401 -0.018659
v -0.115246 -0.009979 -0.020818
v -0.098351 -0.007782 -0.019882
v -0.075299 -0.005981 -0.017467
v -0.098496 -0.010908 -0.018698
v -0.075394 -0.009460 -0.017643
v -0.066590 -0.006660 -0.017284
v -0.075528 -0.012381 -0.015478
v -0.054211 -0.007553 -0.017091
v -0.066666 -0.010269 -0.016794
v -0.066849 -0.013122 -0.013904
v -0.054257 -0.011444 -0.015716
v -0.037739 -0.012376 -0.015310
v -0.013695 -0.018052 -0.009428
v -0.013106 -0.013986 -0.015535
v 0.003514 -0.014224 -0.014429
v -0.006497 -0.008369 -0.017743
v 0.003498 -0.008354 -0.016735
v 0.006576 -0.004028 0.005874
v 0.007408 -0.004753 -0.000163
v 0.011066 -0.010185 0.005953
v 0.008125 -0.006584 -0.004786
v 0.005935 -0.005737 0.011519
v 0.008571 -0.009262 -0.006989
v 0.005622 -0.008201 0.015014
v 0.008258 -0.014816 -0.002148
v 0.005622 -0.011253 0.016368
v 0.007579 -0.016388 0.003701
v 0.006069 -0.013984 0.014178
v 0.006782 -0.015838 0.009534
vn 0.5057 -0.5182 0.6897
vn 0.4914 -0.6799 0.5443
vn 0.1812 -0.5910 0.7860
vn 0.2127 -0.7431 0.6345
vn -0.1586 -0.7770 0.6091
vn -0.1768 -0.6016 0.7790
vn 0.2269 -0.9271 0.2984
vn 0.4582 -0.8415 0.2861
vn -0.0998 -0.9652 0.2419
vn -0.2428 -0.7952 0.5556
vn -0.2537 -0.6435 0.7222
vn -0.1928 -0.7628 0.6172
vn 0.2552 -0.9668 -0.0080
vn 0.4718 -0.8799 0.0553
vn 0.5463 -0.8147 -0.1944
vn -0.2134 -0.8939 0.3941
vn -0.0975 -0.8893 0.4469
vn 0.3361 -0.8765 -0.3447
vn 0.6888 -0.5617 -0.4584
vn -0.0416 -0.9937 -0.1039
vn -0.2129 -0.9560 0.2020
vn 0.4549 -0.5572 -0.6947
vn 0.8131 0.0233 -0.5816
vn -0.1160 -0.9538 0.2772
vn 0.5510 0.0692 -0.8316
vn -0.0294 -0.9870 0.1580
vn 0.0044 -0.9634 0.2679
vn 0.5320 0.6355 -0.5596
vn 0.7336 0.5638 -0.3794
vn 0.1454 0.1917 -0.9706
vn 0.0938 -0.4548 -0.8856
vn 0.4526 0.8717 -0.1877
vn 0.6294 0.7704 -0.1020
vn 0.5719 0.8005 0.1793
vn 0.1658 0.7454 -0.6457
vn 0.3751 0.9109 0.1722
vn 0.5677 0.6537 0.5003
vn 0.1472 0.9583 -0.2449
vn -0.0018 0.3048 -0.9524
vn 0.3229 0.7466 0.5817
vn 0.5734 0.1920 0.7965
vn 0.0296 -0.8601 -0.5093
vn 0.0093 -0.3309 -0.9436
vn -0.0388 -0.8136 -0.5802
vn 0.0769 0.9900 0.1181
vn -0.0350 -0.1082 -0.9935
vn -0.1375 -0.9844 -0.1097
vn -0.0773 -0.7752 -0.6270
vn -0.1047 0.4646 -0.8793
vn -0.1554 -0.9826 0.1013
vn -0.0292 0.7433 -0.6683
vn -0.1270 -0.0383 -0.9912
vn -0.0141 0.9784 -0.2064
vn -0.1489 -0.9857 -0.0788
vn -0.1064 0.7922 -0.6009
vn -0.1622 -0.7334 -0.6602
vn -0.1544 -0.9854 -0.0714
vn -0.1473 0.6198 -0.7708
vn -0.1930 0.1034 -0.9757
vn -0.2130 -0.6671 -0.7138
vn -0.1228 -0.9845 -0.1253
vn -0.0758 -0.9962 0.0437
vn -0.0106 -0.9927 -0.1200
vn -0.2093 -0.5655 -0.7977
vn 0.0200 -0.9997 -0.0168
vn 0.0390 -0.9877 0.1513
vn 0.0234 -0.9973 0.0692
vn -0.0826 -0.9613 -0.2630
vn -0.0297 -0.9556 -0.2931
vn 0.0273 -0.9771 -0.2109
vn 0.0610 -0.9966 -0.0561
vn -0.0207 -0.9040 -0.4270
vn -0.0989 -0.8291 -0.5504
vn 0.0615 -0.9717 -0.2280
vn 0.1095 -0.9884 -0.1051
vn -0.0042 -0.7995 -0.6007
vn -0.0705 -0.7035 -0.7072
vn 0.1173 -0.9473 -0.2982
vn 0.1884 -0.9709 -0.1477
vn 0.0493 -0.7199 -0.6923
vn -0.0384 -0.4608 -0.8867
vn 0.2085 -0.9132 -0.3501
vn 0.1958 -0.9665 -0.1660
vn 0.1218 -0.6697 -0.7326
vn 0.0157 -0.1786 -0.9838
vn 0.2156 -0.8990 -0.3811
vn 0.0003 -0.9860 -0.1669
vn 0.2358 -0.5744 -0.7839
vn 0.0929 -0.0548 -0.9942
vn -0.0167 -0.9260 -0.3772
vn -0.3770 -0.9161 -0.1362
vn 0.2367 -0.5434 -0.8054
vn 0.2097 0.0689 -0.9753
vn -0.4655 -0.8238 -0.3235
vn -0.9529 -0.3027 -0.0194
vn -0.0596 -0.6124 -0.7883
vn -0.5479 -0.6072 -0.5754
vn 0.1932 0.0761 -0.9782
vn -0.1529 -0.0477 -0.9871
vn 0.0305 0.6475 -0.7614
vn 0.1285 0.6924 -0.7100
vn 0.1000 0.6678 -0.7376
vn -0.0253 0.5378 -0.8427
vn -0.0217 0.9567 -0.2902
vn -0.0818 0.2216 -0.9717
vn -0.0548 0.9137 -0.4028
vn -0.1310 -0.0907 -0.9872
vn -0.1033 0.7954 -0.5973
vn -0.1757 -0.3554 -0.9181
vn -0.1521 0.5749 -0.8039
vn -0.1919 0.3748 -0.9070
vn -0.0674 0.9729 -0.2210
vn -0.2118 0.2396 -0.9475
vn -0.1118 0.9316 -0.3457
vn -0.1516 0.7452 -0.6494
vn -0.1472 0.7933 -0.5908
vn -0.1351 0.8623 -0.4880
vn -0.1147 0.9028 -0.4146
vn -0.0949 0.9735 -0.2080
vn -0.0879 0.9886 -0.1226
vn -0.0860 0.9948 -0.0553
vn -0.0746 0.9690 -0.2356
vn -0.0814 0.9963 -0.0263
vn -0.0407 0.9742 0.2218
vn -0.0060 0.9858 0.1679
vn -0.0477 0.9767 0.2093
vn -0.0441 0.9152 0.4006
vn -0.0354 0.9569 0.2884
vn -0.0063 0.7955 0.6060
vn -0.0414 0.5908 0.8057
vn -0.0226 0.9148 0.4033
vn 0.0465 0.3406 0.9391
vn 0.0201 0.7317 0.6813
vn 0.0825 0.0201 0.9964
vn -0.0646 0.6810 0.7294
vn -0.0302 -0.2565 0.9661
vn -0.0215 0.8123 0.5828
vn -0.0964 0.7651 0.6366
vn -0.1348 0.0192 0.9907
vn -0.1981 0.2158 0.9561
vn -0.1131 0.3422 0.9328
vn 0.2634 0.1970 0.9444
vn -0.2292 -0.1279 0.9649
vn 0.2713 0.0351 0.9618
vn 0.5215 -0.0916 0.8483
vn 0.2664 0.2781 0.9229
vn -0.1403 0.0691 0.9877
vn -0.1565 -0.3230 0.9333
vn -0.0561 -0.5470 0.8352
vn 0.0465 -0.7766 0.6283
vn 0.0811 -0.5488 0.8320
vn 0.0673 -0.9170 0.3932
vn 0.1000 -0.8124 0.5744
vn 0.0549 -0.9694 0.2392
vn 0.1216 -0.1116 0.9863
vn 0.0528 -0.9343 0.3526
vn 0.0775 -0.9967 0.0241
vn 0.0540 -0.2830 0.9576
vn 0.0152 0.5956 0.8032
vn 0.0507 -0.4332 0.8999
vn 0.0974 -0.9613 0.2576
vn 0.1094 -0.9921 0.0610
vn 0.0232 -0.5912 0.8062
vn -0.0105 0.2267 0.9739
vn -0.0428 0.8664 0.4975
vn 0.0616 -0.6534 0.7545
vn 0.1753 -0.9484 0.2640
vn 0.1857 -0.9805 0.0646
vn 0.1804 -0.9811 0.0706
vn 0.0044 0.0376 0.9993
vn 0.1720 -0.9434 0.2836
vn 0.1520 -0.6536 0.7414
vn -0.0689 -0.9606 0.2693
vn -0.0454 -0.9968 0.0653
vn 0.1383 -0.6325 0.7622
vn 0.1008 0.0312 0.9944
vn -0.0390 0.7436 0.6674
vn 0.0576 0.0169 0.9982
vn -0.0737 0.9973 -0.0037
vn 0.0286 0.6997 0.7138
vn -0.0486 0.9896 -0.1352
vn 0.0085 0.9834 0.1814
vn 0.0522 0.9653 -0.2559
vn -0.0229 0.6436 0.7650
vn 0.0275 0.9554 -0.2939
vn -0.0048 0.9999 -0.0121
vn -0.0385 0.9508 0.3074
vn -0.2491 0.5492 -0.7977
vn -0.3147 0.9491 -0.0152
vn -0.7448 -0.2879 -0.6020
vn -0.2971 0.8915 -0.3421
vn -0.7664 0.1502 -0.6245
vn -0.7899 0.5416 -0.2876
vn -0.3747 0.8561 0.3559
vn -0.8241 0.5229 0.2177
vn -0.4078 0.4816 0.7757
vn -0.8419 0.0731 0.5347
vn -0.3257 -0.1058 0.9395
vn -0.8149 -0.3148 0.4866
vn -0.5966 -0.6573 0.4604
vn -0.1813 -0.6773 0.7130
vn -0.4806 -0.8514 0.2100
vn -0.4193 -0.9069 0.0413
vn 0.9693 0.2109 0.1260
vn 0.9468 -0.1520 0.2839
vn 0.9107 0.3006 0.2833
vn 0.9985 0.0408 0.0359
vn 0.8724 0.2232 0.4348
vn 0.9904 -0.1381 0.0046
vn 0.8548 0.0466 0.5168
vn 0.9526 -0.3040 0.0077
vn 0.8298 -0.1799 0.5283
vn 0.8876 -0.4571 0.0578
vn 0.7832 -0.4337 0.4455
vn 0.8093 -0.5632 0.1671
vn 0.7701 -0.5591 0.3070
vn 0.9896 0.0589 0.1316
vn 0.6855 -0.3858 0.6175
vn 0.8556 -0.2397 0.4588
vn 0.6943 -0.5329 0.4837
vn 0.8221 -0.4300 0.3733
vn 0.1590 -0.5870 0.7938
vn 0.6344 -0.7276 0.2610
vn 0.7663 -0.6024 0.2233
vn 0.2208 -0.7429 0.6319
vn 0.6331 -0.7740 0.0122
vn 0.7689 -0.6380 0.0416
vn 0.8118 -0.5694 -0.1291
vn 0.2087 -0.9382 0.2759
vn 0.2340 -0.9711 -0.0470
vn 0.6989 -0.6784 -0.2266
vn 0.9049 -0.3399 -0.2560
vn -0.1782 -0.7849 0.5934
vn -0.2181 -0.6007 0.7691
vn 0.8070 -0.4145 -0.4206
vn 0.9504 0.1240 -0.2853
vn -0.2544 -0.7672 0.5887
vn -0.2873 -0.5806 0.7618
vn -0.1405 -0.9601 0.2417
vn 0.2967 -0.8771 -0.3777
vn -0.2370 -0.7585 0.6070
vn -0.2718 -0.5764 0.7706
vn -0.1699 -0.9672 0.1889
vn -0.0742 -0.9931 -0.0907
vn -0.1953 -0.7744 0.6018
vn -0.2321 -0.5943 0.7700
vn -0.1146 -0.9616 0.2492
vn -0.1344 -0.8373 0.5300
vn -0.1371 -0.7040 0.6968
vn -0.0923 -0.9945 -0.0500
vn -0.0535 -0.8897 0.4533
vn -0.0674 -0.7910 0.6080
vn -0.0622 -0.8312 0.5525
vn -0.0451 -0.9942 0.0977
vn -0.0617 -0.9970 -0.0474
vn -0.0387 -0.9524 0.3025
vn -0.0553 -0.8847 0.4630
vn -0.0151 -0.9703 -0.2416
vn -0.0716 -0.9316 -0.3565
vn -0.0283 -0.9691 0.2450
vn -0.0414 -0.9163 0.3983
vn -0.0266 -0.9098 -0.4142
vn -0.0259 -0.9784 0.2050
vn -0.0024 -0.9173 0.3982
vn -0.0039 -0.9959 -0.0903
vn 0.0123 -0.9613 -0.2751
vn -0.0025 -0.9823 0.1873
vn -0.0024 -0.9917 -0.1284
vn 0.0183 -0.8996 -0.4363
vn 0.0088 -0.9660 0.2584
vn 0.0107 -0.8878 0.4602
vn 0.0089 -0.9888 -0.1490
vn 0.0239 -0.8742 -0.4850
vn 0.0109 -0.9384 0.3455
vn 0.0192 -0.8479 0.5299
vn -0.0018 -0.9994 -0.0355
vn 0.0501 -0.9226 0.3824
vn 0.0673 -0.8172 0.5724
vn 0.0306 -0.9986 0.0425
vn -0.2446 -0.8800 0.4072
vn -0.2237 -0.7834 0.5799
vn -0.6778 -0.5837 0.4471
vn -0.2384 -0.9694 0.0587
vn -0.6888 -0.6607 0.2985
vn -0.9988 0.0437 0.0233
vn -0.6637 -0.7460 0.0540
vn -0.7341 -0.6316 -0.2494
vn -0.2555 -0.9207 -0.2950
vn 0.0365 -0.9493 -0.3121
vn 0.0097 -0.9024 -0.4309
vn -0.7842 -0.3979 -0.4760
vn 0.0257 -0.8636 -0.5034
vn 0.0242 -0.5858 -0.8101
vn 0.0627 -0.6503 -0.7571
vn -0.2965 -0.6228 -0.7240
vn 0.0258 -0.4861 -0.8735
vn -0.2933 -0.0509 -0.9547
vn 0.0932 -0.0277 -0.9953
vn 0.0599 0.0601 -0.9964
vn 0.0430 -0.4030 -0.9142
vn 0.1121 0.5932 -0.7972
vn 0.0444 0.1984 -0.9791
vn -0.8903 -0.0140 -0.4551
vn 0.0809 0.6493 -0.7562
vn -0.7889 0.3337 -0.5160
vn -0.2649 0.5461 -0.7947
vn -0.2087 0.8915 -0.4020
vn 0.1143 0.9144 -0.3884
vn -0.6650 0.6886 -0.2892
vn -0.1845 0.9811 -0.0584
vn -0.6209 0.7825 -0.0468
vn -0.6939 0.6674 0.2703
vn -0.7421 0.3936 0.5425
vn -0.7711 0.1485 0.6191
vn -0.1909 0.9305 0.3127
vn -0.4266 -0.0996 0.8989
vn -0.2727 -0.2646 0.9250
vn -0.4093 0.6415 0.6488
vn 0.1447 0.6989 0.7004
vn 0.1244 -0.1144 0.9856
vn 0.1199 -0.3143 0.9417
vn 0.1378 0.9387 0.3160
vn 0.0942 0.5509 0.8293
vn 0.0738 -0.0543 0.9958
vn 0.0541 -0.3655 0.9292
vn 0.1186 0.9916 -0.0515
vn 0.0563 -0.1637 0.9849
vn 0.0370 -0.4925 0.8695
vn 0.0901 0.9336 -0.3468
vn 0.0841 0.4830 0.8716
vn 0.0541 -0.2877 0.9562
vn -0.0105 -0.6219 0.7830
vn 0.0888 0.9103 0.4043
vn 0.0631 0.3873 0.9198
vn -0.0091 -0.3652 0.9309
vn -0.0634 -0.5860 0.8078
vn 0.0107 0.3442 0.9388
vn -0.0654 -0.3073 0.9494
vn -0.0856 -0.4763 0.8751
vn 0.0259 0.8567 0.5152
vn -0.0476 0.3911 0.9191
vn -0.0836 -0.1718 0.9816
vn -0.0941 -0.2888 0.9528
vn 0.0847 0.9960 0.0289
vn -0.0912 0.0189 0.9957
vn -0.1230 -0.1205 0.9851
vn -0.0581 0.4896 0.8700
vn -0.0996 0.2187 0.9707
vn -0.1499 0.0019 0.9887
vn -0.0520 0.6065 0.7934
vn -0.0128 0.8721 0.4891
vn -0.1865 0.4790 0.8578
vn -0.2355 0.3485 0.9073
vn -0.0245 0.8961 0.4432
vn -0.2029 0.6033 0.7712
vn -0.2630 0.3787 0.8874
vn -0.0849 0.7987 0.5958
vn -0.1231 0.8894 0.4403
vn -0.2181 0.6166 0.7565
vn -0.0219 0.9746 0.2228
vn -0.1248 0.8953 0.4277
vn -0.2316 0.6207 0.7491
vn -0.2747 0.3896 0.8791
vn -0.0522 0.9972 0.0543
vn -0.1791 0.6282 0.7572
vn -0.2131 0.3975 0.8925
vn -0.1347 0.8970 0.4211
vn 0.2179 0.5941 0.7743
vn 0.2068 0.4000 0.8929
vn -0.1229 0.8953 0.4281
vn 0.2151 0.8626 0.4578
vn 0.6918 0.4535 0.5619
vn 0.7026 0.2941 0.6479
vn 0.8472 0.2219 0.4827
vn 0.8155 0.3832 0.4337
vn 0.6331 0.6743 0.3802
vn 0.7552 0.5744 0.3160
vn 0.2364 0.9643 0.1196
vn 0.6114 0.7793 0.1371
vn 0.7405 0.6584 0.1350
vn 0.7605 0.6484 -0.0339
vn 0.6449 0.7577 -0.0997
vn 0.8404 0.5165 -0.1640
vn -0.0340 0.9961 0.0810
vn 0.7425 0.6006 -0.2965
vn 0.2828 0.9361 -0.2093
vn 0.8544 0.1376 -0.5010
vn -0.0598 0.9959 0.0685
vn 0.0109 0.9661 -0.2579
vn 0.3583 0.7649 -0.5353
vn 0.0308 0.7923 -0.6093
vn -0.0172 0.9622 -0.2718
vn -0.0567 0.9963 0.0638
vn -0.0039 0.9574 -0.2886
vn -0.0024 0.7725 -0.6350
vn 0.0090 0.9897 -0.1429
vn 0.0204 0.7839 -0.6206
vn 0.0321 0.8539 -0.5194
vn 0.0479 0.9557 -0.2904
vn -0.0175 0.1293 -0.9915
vn 0.0014 0.9537 0.3008
vn 0.0156 0.9962 0.0856
vn 0.0027 0.1221 -0.9925
vn 0.0139 0.9924 0.1220
vn 0.0453 0.9694 -0.2413
vn 0.0319 0.9886 0.1469
vn 0.0357 0.9782 -0.2047
vn 0.0615 0.9923 0.1077
vn 0.0406 0.9797 -0.1965
vn 0.0648 0.9725 -0.2236
vn 0.0582 0.7853 -0.6164
vn 0.0589 0.7292 -0.6817
vn 0.0484 0.7880 -0.6138
vn 0.0525 0.3109 -0.9490
vn 0.0745 0.3013 -0.9506
vn 0.0685 0.7295 -0.6806
vn 0.0617 -0.4133 -0.9085
vn 0.0871 0.1829 -0.9793
vn 0.0800 0.6269 -0.7750
vn 0.0672 -0.5070 -0.8593
vn 0.0864 -0.0243 -0.9960
vn 0.0671 0.4356 -0.8977
vn 0.0606 -0.6414 -0.7648
vn 0.0690 -0.2629 -0.9623
vn 0.0524 0.2891 -0.9559
vn 0.0366 -0.7615 -0.6471
vn 0.0225 0.1786 -0.9837
vn 0.0375 -0.4558 -0.8893
vn 0.0081 -0.8283 -0.5602
vn 0.0021 -0.5781 -0.8160
vn -0.0329 -0.6304 -0.7756
vn -0.0320 -0.9107 -0.4119
vn -0.0107 -0.6270 -0.7790
vn 0.4494 -0.6134 -0.6495
vn 0.0424 0.1814 -0.9825
vn 0.5450 0.3769 -0.7489
vn 0.7978 0.5837 0.1512
vn 0.8444 0.5348 -0.0301
vn 0.9882 0.0447 0.1462
vn 0.9248 0.3562 -0.1338
vn 0.7996 0.4927 0.3433
vn 0.9809 0.0598 -0.1848
vn 0.8467 0.2919 0.4448
vn 0.9377 -0.3161 -0.1443
vn 0.8857 0.0117 0.4641
vn 0.8614 -0.5048 0.0567
vn 0.8721 -0.2835 0.3989
vn 0.8415 -0.4773 0.2531
vt 0.189697 -0.425049
vt 0.189697 -0.422607
vt 0.184814 -0.421631
vt 0.184937 -0.424072
vt 0.465576 -0.144409
vt 0.465576 -0.137085
vt 0.458984 -0.137939
vt 0.458496 -0.144897
vt 0.492188 -0.333008
vt 0.491699 -0.344727
vt 0.498291 -0.344727
vt 0.498779 -0.332764
vt 0.485107 -0.119324
vt 0.477783 -0.119629
vt 0.478027 -0.126343
vt 0.485107 -0.126099
vt 0.447266 -0.130737
vt 0.443604 -0.131348
vt 0.443848 -0.140869
vt 0.447998 -0.140137
vt 0.197632 -0.219971
vt 0.198975 -0.205078
vt 0.192383 -0.204468
vt 0.191162 -0.219238
vt 0.151733 -0.337158
vt 0.146362 -0.337402
vt 0.146118 -0.351562
vt 0.151367 -0.351318
vt 0.467529 -0.213013
vt 0.467773 -0.234985
vt 0.474121 -0.234863
vt 0.473877 -0.213013
vt 0.164307 -0.296875
vt 0.170410 -0.297119
vt 0.170532 -0.268311
vt 0.164429 -0.268066
vt 0.209351 -0.196411
vt 0.212036 -0.196777
vt 0.212036 -0.196167
vt 0.209351 -0.195923
vt 0.194458 -0.413330
vt 0.194580 -0.423096
vt 0.199463 -0.423828
vt 0.199463 -0.414062
vt 0.179565 -0.411133
vt 0.180054 -0.420898
vt 0.184570 -0.412109
vt 0.199829 -0.351562
vt 0.199829 -0.360840
vt 0.205933 -0.361328
vt 0.205933 -0.351807
vt 0.168945 -0.411133
vt 0.169800 -0.420898
vt 0.174927 -0.420898
vt 0.174194 -0.411133
vt 0.165039 -0.191895
vt 0.156250 -0.193115
vt 0.156250 -0.193726
vt 0.165039 -0.192505
vt 0.146484 -0.323975
vt 0.140991 -0.324463
vt 0.140991 -0.337891
vt 0.140991 -0.351807
vt 0.477539 -0.116760
vt 0.485107 -0.116455
vt 0.202637 -0.233643
vt 0.203979 -0.220703
vt 0.196411 -0.232910
vt 0.155762 -0.413818
vt 0.156494 -0.423828
vt 0.163086 -0.422363
vt 0.162354 -0.412598
vt 0.158325 -0.297607
vt 0.158691 -0.268799
vt 0.206665 -0.246948
vt 0.212036 -0.247314
vt 0.212036 -0.234375
vt 0.207397 -0.234009
vt 0.176514 -0.322754
vt 0.176392 -0.336182
vt 0.182617 -0.336670
vt 0.182617 -0.323242
vt 0.170288 -0.322510
vt 0.176514 -0.297119
vt 0.487305 -0.196655
vt 0.480713 -0.213013
vt 0.487549 -0.213013
vt 0.491943 -0.196777
vt 0.456543 -0.305420
vt 0.451172 -0.305176
vt 0.451172 -0.322021
vt 0.456787 -0.322510
vt 0.453857 -0.173950
vt 0.452881 -0.152954
vt 0.447510 -0.154053
vt 0.448486 -0.174805
vt 0.456299 -0.334229
vt 0.450684 -0.334717
vt 0.491211 -0.120178
vt 0.491211 -0.126831
vt 0.188721 -0.351562
vt 0.188721 -0.337158
vt 0.182495 -0.350830
vt 0.499268 -0.320801
vt 0.499023 -0.303955
vt 0.492676 -0.304443
vt 0.492676 -0.321289
vt 0.176392 -0.350342
vt 0.170288 -0.336182
vt 0.170288 -0.350342
vt 0.205811 -0.396973
vt 0.205811 -0.416992
vt 0.212036 -0.420166
vt 0.212036 -0.399170
vt 0.147461 -0.194336
vt 0.147461 -0.194946
vt 0.193115 -0.195312
vt 0.193115 -0.194702
vt 0.186279 -0.194336
vt 0.186279 -0.194946
vt 0.188721 -0.323730
vt 0.194580 -0.298584
vt 0.182617 -0.297607
vt 0.208008 -0.221069
vt 0.148682 -0.427246
vt 0.148315 -0.416992
vt 0.140991 -0.420166
vt 0.140991 -0.430908
vt 0.457520 -0.121765
vt 0.452148 -0.122925
vt 0.452637 -0.129517
vt 0.458008 -0.128418
vt 0.206055 -0.324219
vt 0.212036 -0.324463
vt 0.212036 -0.299072
vt 0.206299 -0.299072
vt 0.460938 -0.213135
vt 0.461182 -0.235107
vt 0.201294 -0.246460
vt 0.195190 -0.245850
vt 0.179443 -0.193970
vt 0.172241 -0.193237
vt 0.172241 -0.193848
vt 0.179443 -0.194580
vt 0.147461 -0.195557
vt 0.144165 -0.195801
vt 0.144165 -0.196411
vt 0.456299 -0.279785
vt 0.450928 -0.279785
vt 0.189575 -0.412842
vt 0.147705 -0.396973
vt 0.146851 -0.370605
vt 0.140991 -0.371582
vt 0.140991 -0.399170
vt 0.474365 -0.333496
vt 0.481201 -0.322266
vt 0.468506 -0.322754
vt 0.468018 -0.333496
vt 0.471191 -0.126709
vt 0.470459 -0.119995
vt 0.463867 -0.120850
vt 0.464600 -0.127563
vt 0.157715 -0.350830
vt 0.164062 -0.350342
vt 0.164185 -0.336182
vt 0.157959 -0.336670
vt 0.458008 -0.151855
vt 0.453125 -0.145996
vt 0.491455 -0.117310
vt 0.183105 -0.368652
vt 0.177368 -0.367920
vt 0.466797 -0.196411
vt 0.473633 -0.196289
vt 0.480469 -0.196411
vt 0.504395 -0.348633
vt 0.504395 -0.334961
vt 0.205811 -0.381348
vt 0.199707 -0.379883
vt 0.199585 -0.394775
vt 0.186279 -0.193848
vt 0.179443 -0.193481
vt 0.156250 -0.194336
vt 0.157104 -0.209473
vt 0.165283 -0.208374
vt 0.165039 -0.193115
vt 0.146729 -0.298584
vt 0.146851 -0.280762
vt 0.140991 -0.281250
vt 0.140991 -0.299072
vt 0.469971 -0.117065
vt 0.463623 -0.117981
vt 0.199829 -0.196045
vt 0.445801 -0.279785
vt 0.437988 -0.279541
vt 0.437988 -0.304688
vt 0.445801 -0.304932
vt 0.149048 -0.210693
vt 0.489502 -0.357422
vt 0.489258 -0.354248
vt 0.164185 -0.322510
vt 0.165527 -0.367920
vt 0.171387 -0.367920
vt 0.152954 -0.269531
vt 0.208862 -0.206177
vt 0.212036 -0.221436
vt 0.212036 -0.206543
vt 0.498291 -0.234741
vt 0.498047 -0.213257
vt 0.492188 -0.213135
vt 0.492188 -0.234741
vt 0.487549 -0.304688
vt 0.487549 -0.321777
vt 0.188721 -0.269287
vt 0.189209 -0.245117
vt 0.182983 -0.258789
vt 0.206055 -0.337646
vt 0.212036 -0.337891
vt 0.176636 -0.268311
vt 0.177002 -0.258545
vt 0.171021 -0.258301
vt 0.194336 -0.337402
vt 0.199951 -0.337402
vt 0.200195 -0.323975
vt 0.194458 -0.323975
vt 0.159058 -0.244629
vt 0.165649 -0.243652
vt 0.148804 -0.429932
vt 0.156616 -0.426270
vt 0.204956 -0.211792
vt 0.206665 -0.196655
vt 0.498047 -0.137085
vt 0.498535 -0.127808
vt 0.490723 -0.136230
vt 0.443115 -0.121887
vt 0.443359 -0.124695
vt 0.446777 -0.124023
vt 0.446533 -0.121216
vt 0.167480 -0.392578
vt 0.172974 -0.392578
vt 0.177734 -0.244263
vt 0.171753 -0.244019
vt 0.178589 -0.392578
vt 0.200439 -0.298828
vt 0.453369 -0.139038
vt 0.443848 -0.147949
vt 0.484863 -0.353760
vt 0.499268 -0.118347
vt 0.499023 -0.121155
vt 0.151978 -0.323730
vt 0.140991 -0.433594
vt 0.461670 -0.261475
vt 0.468018 -0.261230
vt 0.486816 -0.333252
vt 0.480713 -0.333252
vt 0.504395 -0.139038
vt 0.497559 -0.145264
vt 0.503906 -0.146606
vt 0.504883 -0.321045
vt 0.199463 -0.426270
vt 0.212036 -0.433594
vt 0.205688 -0.427246
vt 0.164917 -0.258057
vt 0.480713 -0.234863
vt 0.487549 -0.234741
vt 0.473145 -0.172607
vt 0.472656 -0.151245
vt 0.465332 -0.151611
vt 0.466064 -0.172852
vt 0.497070 -0.153442
vt 0.503906 -0.154175
vt 0.209351 -0.197021
vt 0.206665 -0.196045
vt 0.504883 -0.120056
vt 0.504883 -0.122925
vt 0.472168 -0.136353
vt 0.479004 -0.143921
vt 0.504883 -0.304199
vt 0.474365 -0.261230
vt 0.145996 -0.233521
vt 0.145386 -0.220459
vt 0.140991 -0.221436
vt 0.140991 -0.234375
vt 0.445557 -0.335205
vt 0.445312 -0.348633
vt 0.450195 -0.347412
vt 0.183960 -0.393311
vt 0.451904 -0.120056
vt 0.508301 -0.304443
vt 0.508301 -0.321289
vt 0.212036 -0.351807
vt 0.194214 -0.351562
vt 0.443604 -0.155029
vt 0.479492 -0.151855
vt 0.444336 -0.175537
vt 0.449463 -0.197876
vt 0.445312 -0.214233
vt 0.437988 -0.214600
vt 0.437988 -0.235962
vt 0.445557 -0.261719
vt 0.450195 -0.214111
vt 0.450439 -0.235718
vt 0.455566 -0.213623
vt 0.456055 -0.261475
vt 0.450684 -0.261719
vt 0.464355 -0.354004
vt 0.455811 -0.345947
vt 0.461426 -0.354980
vt 0.473389 -0.362549
vt 0.460205 -0.356445
vt 0.458252 -0.358643
vt 0.461914 -0.279785
vt 0.455811 -0.235352
vt 0.460205 -0.196533
vt 0.479980 -0.173096
vt 0.485840 -0.144043
vt 0.491455 -0.173828
vt 0.497559 -0.174194
vt 0.497803 -0.197021
vt 0.491211 -0.152954
vt 0.504395 -0.129517
vt 0.506348 -0.123474
vt 0.508301 -0.121216
vt 0.508301 -0.124084
vt 0.503906 -0.174805
vt 0.504395 -0.213745
vt 0.508301 -0.235474
vt 0.508301 -0.213989
vt 0.504395 -0.260986
vt 0.508301 -0.279297
vt 0.498535 -0.260498
vt 0.498779 -0.278564
vt 0.492432 -0.278809
vt 0.487549 -0.260986
vt 0.480957 -0.279297
vt 0.474365 -0.279541
vt 0.474609 -0.305420
vt 0.467529 -0.353271
vt 0.470947 -0.353027
vt 0.477783 -0.353271
vt 0.479980 -0.344482
vt 0.473877 -0.344238
vt 0.481445 -0.353516
vt 0.489746 -0.359619
vt 0.202515 -0.653809
vt 0.202515 -0.648926
vt 0.192139 -0.646484
vt 0.197754 -0.656738
vt 0.202515 -0.642578
vt 0.192871 -0.660156
vt 0.196533 -0.639160
vt 0.187744 -0.657227
vt 0.192505 -0.636719
vt 0.182617 -0.654297
vt 0.186523 -0.640625
vt 0.182617 -0.648438
vt 0.182617 -0.642578
vt 0.436279 -0.637207
vt 0.444580 -0.643066
vt 0.440430 -0.640137
vt 0.144165 -0.195312
vt 0.144653 -0.205566
vt 0.140991 -0.197388
vt 0.140991 -0.206543
vt 0.149902 -0.219604
vt 0.152344 -0.245483
vt 0.146606 -0.246460
vt 0.140991 -0.247314
vt 0.146851 -0.260254
vt 0.140991 -0.270508
vt 0.158691 -0.237793
vt 0.165527 -0.230591
vt 0.158081 -0.322998
vt 0.153442 -0.379639
vt 0.180054 -0.443604
vt 0.163330 -0.424805
vt 0.159058 -0.368652
vt 0.169922 -0.423340
vt 0.180176 -0.423340
vt 0.175049 -0.423340
vt 0.194580 -0.425781
vt 0.212036 -0.430908
vt 0.212036 -0.371582
vt 0.194336 -0.369385
vt 0.189087 -0.379395
vt 0.212036 -0.270508
vt 0.206299 -0.281250
vt 0.212036 -0.281250
vt 0.206543 -0.260742
vt 0.200806 -0.270264
vt 0.194702 -0.280762
vt 0.461914 -0.333740
vt 0.461426 -0.344482
vt 0.185791 -0.204102
vt 0.184204 -0.231812
vt 0.183472 -0.244629
vt 0.178589 -0.218506
vt 0.177979 -0.237427
vt 0.188843 -0.360596
vt 0.171875 -0.230957
vt 0.172119 -0.208984
vt 0.179077 -0.203735
vt 0.428467 -0.648926
vt 0.436523 -0.649414
vt 0.428223 -0.643555
vt 0.432373 -0.640625
vt 0.428467 -0.654785
vt 0.432861 -0.657715
vt 0.437012 -0.660645
vt 0.444824 -0.648926
vt 0.440918 -0.657227
vt 0.445068 -0.654297
vt 0.486572 -0.152466
vt 0.462158 -0.305664
vt 0.437988 -0.122864
vt 0.437988 -0.125732
vt 0.437988 -0.132446
vt 0.437988 -0.141968
vt 0.457031 -0.118958
vt 0.437988 -0.149292
vt 0.437988 -0.156494
vt 0.486328 -0.344727
vt 0.508301 -0.130737
vt 0.508301 -0.140381
vt 0.508301 -0.147583
vt 0.508301 -0.154663
vt 0.508301 -0.175293
vt 0.508301 -0.336426
vt 0.508301 -0.351562
vt 0.445801 -0.321777
vt 0.458984 -0.173096
vt 0.437988 -0.176636
vt 0.454834 -0.197266
vt 0.468018 -0.279785
vt 0.468506 -0.305420
vt 0.437988 -0.321533
vt 0.437988 -0.336182
vt 0.437988 -0.350586
vt 0.462402 -0.322754
vt 0.467529 -0.344482
vt 0.140991 -0.196777
vt 0.172241 -0.192749
vt 0.212036 -0.197388
vt 0.206787 -0.195557
vt 0.199951 -0.195435
vt 0.199951 -0.194824
vt 0.193115 -0.194214
vt 0.486816 -0.173462
vt 0.140991 -0.196167
s 1
g off
g arm_2_dr_Material
usemtl Material
f 313/1/311 312/2/310 309/3/307 311/4/309
f 46/5/46 43/6/43 44/7/44 48/8/48
f 178/9/178 198/10/198 201/11/201 175/12/175
f 32/13/32 28/14/28 35/15/35 38/16/38
f 9/17/9 5/18/5 10/19/10 21/20/21
f 390/21/388 386/22/384 391/23/389 394/24/392
f 270/25/268 265/26/263 269/27/267 274/28/272
f 111/29/111 110/30/110 117/31/117 116/32/116
f 425/33/423 423/34/421 426/35/424 428/36/426
f 374/37/372 375/38/373 376/39/374 377/40/375
f 324/41/322 317/42/315 320/43/318 321/44/319
f 303/45/301 308/46/306 309/3/307 310/47/308
f 339/48/337 336/49/334 333/50/331 337/51/335
f 296/52/294 297/53/295 299/54/297 300/55/298
f 230/56/228 229/57/227 228/58/226 233/59/231
f 265/26/263 262/60/260 259/61/257 263/62/261
f 265/26/263 263/62/261 266/63/264 269/27/267
f 29/64/29 28/14/28 32/13/32 33/65/33
f 363/66/361 369/67/367 390/21/388 395/68/393
f 281/69/279 285/70/283 290/71/288 291/72/289
f 268/73/266 425/33/423 428/36/426 260/74/258
f 357/75/355 355/76/353 358/77/356 361/78/359
f 418/79/416 413/80/411 409/81/407 407/82/405
f 420/83/418 418/79/416 421/84/419 423/34/421
f 124/85/124 120/86/120 128/87/128 129/88/129
f 89/89/89 84/90/84 88/91/88 93/92/93
f 61/93/61 57/94/57 50/95/50 62/96/62
f 98/97/98 93/92/93 88/91/88 92/98/92
f 36/99/36 32/13/32 38/16/38 45/100/45
f 408/101/406 406/102/404 409/81/407 411/103/409
f 172/104/172 166/105/166 170/106/170 176/107/176
f 303/45/301 300/55/298 299/54/297 308/46/306
f 415/108/413 413/80/411 417/109/415 416/110/414
f 326/111/324 322/112/320 323/113/321 327/114/325
f 226/115/224 225/116/223 228/58/226 229/57/227
f 388/117/386 384/118/382 387/119/385 392/120/390
f 404/121/402 403/122/401 401/123/399 407/82/405
f 361/78/359 364/124/362 369/67/367 363/66/361
f 282/125/280 279/126/277 280/127/278 283/128/281
f 18/129/18 13/130/13 20/131/20 42/132/42
f 344/133/342 341/134/339 345/135/343 347/136/345
f 109/137/109 107/138/107 110/30/110 111/29/111
f 360/139/358 363/66/361 395/68/393 366/140/364
f 389/141/387 237/142/235 436/143/434 438/144/436
f 231/145/229 225/116/223 222/146/220 227/147/225
f 85/148/85 80/149/80 84/90/84 89/89/89
f 310/47/308 309/3/307 312/2/310 328/150/326
f 276/151/274 272/152/270 273/153/271 277/154/275
f 186/155/186 182/156/182 183/157/183 185/158/185
f 30/159/30 25/160/25 22/161/22 31/162/31
f 294/163/292 302/164/300 419/165/417 275/166/273
f 312/2/310 317/42/315 324/41/322 328/150/326
f 31/162/31 22/161/22 18/129/18 42/132/42
f 275/166/273 270/25/268 274/28/272 294/163/292
f 56/167/56 48/8/48 54/168/54 57/94/57
f 34/169/34 33/65/33 32/13/32 36/99/36
f 412/170/410 411/103/409 415/108/413 414/171/412
f 113/172/113 111/29/111 116/32/116 115/173/115
f 119/174/119 115/173/115 116/32/116 120/86/120
f 279/126/277 276/151/274 277/154/275 280/127/278
f 173/175/173 171/176/171 175/12/175 201/11/201
f 326/111/324 329/177/327 332/178/330 325/179/323
f 387/119/385 385/180/383 238/181/236 389/141/387
f 232/182/230 246/183/244 434/184/432 242/185/240
f 258/186/256 253/187/251 254/188/252 255/189/253
f 23/190/23 19/191/19 22/161/22 25/160/25
f 386/22/384 380/192/378 388/117/386 391/23/389
f 74/193/74 71/194/71 75/195/75 78/196/78
f 231/145/229 241/197/239 246/183/244 232/182/230
f 419/165/417 302/164/300 416/110/414 417/109/415
f 202/198/202 173/175/173 201/11/201 200/199/200
f 425/33/423 422/200/420 420/83/418 423/34/421
f 302/164/300 298/201/296 304/202/302 416/110/414
f 260/74/258 256/203/254 258/186/256 268/73/266
f 332/178/330 329/177/327 333/50/331 336/49/334
f 367/204/365 364/124/362 365/205/363 368/206/366
f 158/207/158 155/208/155 133/209/133 159/210/159
f 416/110/414 304/202/302 414/171/412 415/108/413
f 364/124/362 361/78/359 358/77/356 365/205/363
f 176/107/176 170/106/170 177/211/177 180/212/180
f 398/213/396 366/140/364 396/214/394 400/215/398
f 340/216/338 338/217/336 341/134/339 344/133/342
f 426/35/424 424/218/422 427/219/425 430/220/428
f 353/221/351 343/222/341 349/223/347 356/224/354
f 257/225/255 256/203/254 260/74/258 264/226/262
f 285/70/283 282/125/280 286/227/284 288/228/286
f 372/229/370 373/230/371 380/192/378 386/22/384
f 138/231/138 137/232/137 45/100/45 125/233/125
f 2/234/2 4/235/4 7/236/7 8/237/8
f 295/238/293 296/52/294 300/55/298 301/239/299
f 430/220/428 427/219/425 429/240/427 432/241/430
f 301/239/299 300/55/298 303/45/301 306/242/304
f 352/243/350 349/223/347 344/133/342 347/136/345
f 353/221/351 356/224/354 404/121/402 406/102/404
f 50/95/50 47/244/47 21/20/21 16/245/16
f 198/10/198 199/246/199 200/199/200 201/11/201
f 37/247/37 34/169/34 36/99/36 40/248/40
f 357/75/355 361/78/359 363/66/361 360/139/358
f 258/186/256 262/60/260 267/249/265 268/73/266
f 286/227/284 282/125/280 283/128/281 284/250/282
f 107/138/107 105/251/105 108/252/108 110/30/110
f 184/253/184 180/212/180 182/156/182 187/254/187
f 140/255/140 138/231/138 135/256/135 139/257/139
f 171/176/171 167/258/167 172/104/172 175/12/175
f 320/43/318 315/259/313 316/260/314 318/261/316
f 428/36/426 426/35/424 430/220/428 431/262/429
f 128/87/128 121/263/121 131/264/131 133/209/133
f 58/265/58 49/266/49 52/267/52 59/268/59
f 20/131/20 9/17/9 21/20/21 47/244/47
f 139/257/139 135/256/135 130/269/130 136/270/136
f 373/230/371 370/271/368 374/37/372 378/272/376
f 41/273/41 37/247/37 40/248/40 142/274/142
f 39/275/39 46/5/46 49/266/49 51/276/51
f 431/262/429 430/220/428 432/241/430 264/226/262
f 167/258/167 161/277/161 166/105/166 172/104/172
f 110/30/110 108/252/108 114/278/114 117/31/117
f 243/279/241 239/280/237 240/281/238 244/282/242
f 92/98/92 86/283/86 90/284/90 96/285/96
f 306/242/304 303/45/301 310/47/308 331/286/329
f 8/237/8 7/236/7 13/130/13 14/287/14
f 162/288/162 161/277/161 167/258/167 168/289/168
f 337/51/335 334/290/332 338/217/336 340/216/338
f 342/291/340 353/221/351 406/102/404 408/101/406
f 16/245/16 21/20/21 10/19/10
f 30/159/30 39/275/39 35/15/35
f 39/275/39 43/6/43 46/5/46
f 24/292/24 50/95/50 16/245/16
f 51/276/51 35/15/35 39/275/39
f 49/266/49 46/5/46 52/267/52
f 47/244/47 50/95/50 54/168/54
f 51/276/51 49/266/49 55/293/55
f 54/168/54 50/95/50 57/94/57
f 49/266/49 58/265/58 55/293/55
f 26/294/26 63/295/63 62/96/62
f 63/295/63 26/294/26 65/296/65
f 66/297/66 67/298/67 65/296/65
f 67/298/67 70/299/70 65/296/65
f 71/194/71 70/299/70 67/298/67
f 69/300/69 65/296/65 72/301/72
f 70/299/70 72/301/72 65/296/65
f 72/301/72 73/302/73 69/300/69
f 70/299/70 71/194/71 74/193/74
f 80/149/80 81/303/81 76/304/76
f 190/305/190 99/306/99 96/285/96 97/307/97
f 95/308/95 94/309/94 91/310/91
f 105/251/105 85/148/85 103/311/103
f 107/138/107 81/303/81 105/251/105
f 109/137/109 77/312/77 107/138/107
f 64/313/64 73/302/73 109/137/109
f 115/173/115 118/314/118 58/265/58
f 114/278/114 121/263/121 117/31/117
f 120/86/120 124/85/124 119/174/119
f 53/315/53 125/233/125 38/16/38
f 45/100/45 38/16/38 125/233/125
f 121/263/121 128/87/128 120/86/120
f 130/269/130 127/316/127 132/317/132
f 129/88/129 128/87/128 133/209/133
f 132/317/132 129/88/129 134/318/134
f 130/269/130 135/256/135 126/319/126
f 135/256/135 125/233/125 126/319/126
f 138/231/138 125/233/125 135/256/135
f 142/274/142 141/320/141 144/321/144
f 145/322/145 144/321/144 146/323/146
f 132/317/132 134/318/134 151/324/151
f 153/325/153 151/324/151 134/318/134
f 153/325/153 154/326/154 152/327/152
f 134/318/134 155/208/155 153/325/153
f 154/326/154 153/325/153 156/328/156
f 156/328/156 157/329/157 154/326/154
f 155/208/155 158/207/158 153/325/153
f 158/207/158 156/328/156 153/325/153
f 133/209/133 131/264/131 159/210/159
f 158/207/158 160/330/160 156/328/156
f 159/210/159 160/330/160 158/207/158
f 161/277/161 157/329/157 156/328/156
f 157/329/157 161/277/161 162/288/162
f 160/330/160 163/331/163 156/328/156
f 163/331/163 161/277/161 156/328/156
f 160/330/160 159/210/159 164/332/164
f 164/332/164 163/331/163 160/330/160
f 165/333/165 159/210/159 131/264/131
f 159/210/159 165/333/165 164/332/164
f 163/331/163 166/105/166 161/277/161
f 177/211/177 170/106/170 164/332/164
f 164/332/164 165/333/165 177/211/177
f 131/264/131 179/334/179 165/333/165
f 165/333/165 179/334/179 177/211/177
f 179/334/179 131/264/131 121/263/121
f 121/263/121 114/278/114 179/334/179
f 112/335/112 179/334/179 114/278/114
f 181/336/181 179/334/179 112/335/112
f 182/156/182 177/211/177 179/334/179
f 179/334/179 181/336/181 182/156/182
f 182/156/182 180/212/180 177/211/177
f 182/156/182 186/155/186 187/254/187
f 325/179/323 321/44/319 322/112/320 326/111/324
f 97/307/97 192/337/192 190/305/190
f 95/308/95 193/338/193 192/337/192
f 195/339/195 194/340/194 189/341/189
f 95/308/95 195/339/195 193/338/193
f 195/339/195 95/308/95 197/342/197
f 197/342/197 200/199/200 199/246/199
f 203/343/203 202/198/202 95/308/95
f 204/344/204 206/345/206 205/346/205
f 205/346/205 207/347/207 204/344/204
f 205/346/205 206/345/206 208/348/208
f 209/349/209 207/347/207 205/346/205
f 210/350/210 205/346/205 208/348/208
f 205/346/205 211/351/211 209/349/209
f 205/346/205 210/350/210 212/352/212
f 205/346/205 213/353/213 211/351/211
f 212/352/212 214/354/214 205/346/205
f 213/353/213 205/346/205 215/355/215
f 205/346/205 214/354/214 216/356/216
f 215/355/215 205/346/205 216/356/216
f 217/357/217 219/358/217 218/359/217
f 225/116/223 223/360/221 222/146/220
f 223/360/221 225/116/223 226/115/224
f 239/280/237 241/197/239 235/361/233
f 235/361/233 227/147/225 224/362/222 236/363/234
f 241/197/239 239/280/237 245/364/243
f 243/279/241 245/364/243 239/280/237
f 245/364/243 246/183/244 241/197/239
f 245/364/243 243/279/241 249/365/247
f 247/366/245 249/365/247 243/279/241
f 248/367/246 250/368/248 247/366/245
f 250/368/248 249/365/247 247/366/245
f 250/368/248 248/367/246 251/369/249
f 249/365/247 252/370/250 245/364/243
f 250/368/248 251/369/249 253/187/251
f 251/369/249 254/188/252 253/187/251
f 249/365/247 250/368/248 256/203/254
f 253/187/251 256/203/254 250/368/248
f 252/370/250 249/365/247 257/225/255
f 249/365/247 256/203/254 257/225/255
f 256/203/254 253/187/251 258/186/256
f 257/225/255 261/371/259 252/370/250
f 261/371/259 257/225/255 264/226/262
f 271/372/269 268/73/266 267/249/265
f 269/27/267 272/152/270 274/28/272
f 272/152/270 278/373/276 274/28/272
f 272/152/270 276/151/274 278/373/276
f 276/151/274 281/69/279 278/373/276
f 276/151/274 279/126/277 281/69/279
f 287/374/285 286/227/284 284/250/282
f 287/374/285 288/228/286 286/227/284
f 288/228/286 287/374/285 289/375/287
f 278/373/276 281/69/279 291/72/289
f 274/28/272 278/373/276 292/376/290
f 278/373/276 291/72/289 292/376/290
f 274/28/272 292/376/290 294/163/292
f 291/72/289 295/238/293 292/376/290
f 295/238/293 291/72/289 296/52/294
f 292/376/290 295/238/293 298/201/296
f 293/377/291 307/378/305 305/379/303
f 35/15/35 28/14/28 25/160/25 30/159/30
f 307/378/305 287/374/285 311/4/309
f 311/4/309 287/374/285 313/1/311
f 287/374/285 314/380/312 313/1/311
f 318/261/316 316/260/314 319/381/317
f 321/44/319 325/179/323 324/41/322
f 329/177/327 326/111/324 327/114/325
f 329/177/327 327/114/325 330/382/328
f 328/150/326 331/286/329 310/47/308
f 333/50/331 329/177/327 330/382/328
f 334/290/332 333/50/331 330/382/328
f 325/179/323 332/178/330 335/383/333
f 335/383/333 324/41/322 325/179/323
f 332/178/330 336/49/334 335/383/333
f 333/50/331 334/290/332 337/51/335
f 342/291/340 336/49/334 339/48/337
f 342/291/340 335/383/333 336/49/334
f 346/384/344 324/41/322 335/383/333
f 324/41/322 346/384/344 328/150/326
f 328/150/326 346/384/344 331/286/329
f 351/385/349 350/386/348 348/387/346
f 347/136/345 350/386/348 352/243/350
f 350/386/348 351/385/349 354/388/352
f 355/76/353 354/388/352 351/385/349
f 354/388/352 355/76/353 357/75/355
f 350/386/348 354/388/352 359/389/357
f 359/389/357 352/243/350 350/386/348
f 360/139/358 354/388/352 357/75/355
f 354/388/352 360/139/358 359/389/357
f 359/389/357 362/390/360 352/243/350
f 359/389/357 360/139/358 366/140/364
f 359/389/357 366/140/364 362/390/360
f 364/124/362 367/204/365 372/229/370
f 364/124/362 372/229/370 369/67/367
f 367/204/365 370/271/368 373/230/371
f 367/204/365 373/230/371 372/229/370
f 102/391/102 98/97/98 99/306/99 188/392/188
f 394/24/392 391/23/389 393/393/391
f 395/68/393 390/21/388 394/24/392
f 395/68/393 394/24/392 396/214/394
f 395/68/393 396/214/394 366/140/364
f 393/393/391 397/394/395 394/24/392
f 396/214/394 394/24/392 397/394/395
f 366/140/364 398/213/396 362/390/360
f 396/214/394 397/394/395 399/395/397
f 400/215/398 396/214/394 399/395/397
f 401/123/399 362/390/360 398/213/396
f 401/123/399 398/213/396 400/215/398
f 393/393/391 402/396/400 397/394/395
f 362/390/360 401/123/399 403/122/401
f 403/122/401 352/243/350 362/390/360
f 403/122/401 404/121/402 356/224/354
f 397/394/395 405/397/403 399/395/397
f 405/397/403 397/394/395 402/396/400
f 342/291/340 408/101/406 410/398/408
f 410/398/408 335/383/333 342/291/340
f 410/398/408 408/101/406 411/103/409
f 410/398/408 411/103/409 412/170/410
f 346/384/344 412/170/410 331/286/329
f 401/123/399 424/218/422 421/84/419
f 424/218/422 401/123/399 400/215/398
f 424/218/422 400/215/398 427/219/425
f 429/240/427 399/395/397 405/397/403
f 431/262/429 260/74/258 428/36/426
f 264/226/262 260/74/258 431/262/429
f 405/397/403 432/241/430 429/240/427
f 432/241/430 405/397/403 433/399/431
f 402/396/400 433/399/431 405/397/403
f 246/183/244 261/371/259 434/184/432
f 433/399/431 402/396/400 435/400/433
f 437/401/435 435/400/433 402/396/400
f 435/400/433 437/401/435 436/143/434
f 402/396/400 393/393/391 437/401/435
f 439/402/437 441/403/439 440/404/438
f 441/403/439 442/405/440 440/404/438
f 441/403/439 439/402/437 443/406/441
f 442/405/440 441/403/439 444/357/442
f 445/407/443 441/403/439 443/406/441
f 446/358/444 444/357/442 441/403/439
f 441/403/439 445/407/443 447/408/445
f 441/403/439 448/409/446 446/358/444
f 449/410/447 441/403/439 447/408/445
f 448/409/446 441/403/439 450/411/448
f 441/403/439 449/410/447 450/411/448
f 125/233/125 53/315/53 122/412/122 126/319/126
f 23/190/23 25/160/25 28/14/28 29/64/29
f 304/202/302 301/239/299 306/242/304 414/171/412
f 421/84/419 418/79/416 407/82/405 401/123/399
f 89/89/89 100/413/100 103/311/103 85/148/85
f 4/235/4 2/234/2 1/414/1 3/415/3
f 4/235/4 5/18/5 9/17/9 7/236/7
f 10/19/10 5/18/5 6/416/6 11/417/11
f 15/418/15 14/287/14 13/130/13 18/129/18
f 16/245/16 12/419/12 17/420/17 24/292/24
f 22/161/22 19/191/19 15/418/15 18/129/18
f 20/131/20 13/130/13 7/236/7 9/17/9
f 40/248/40 36/99/36 45/100/45 137/232/137
f 196/421/196 197/342/197 199/246/199 198/10/198
f 142/274/142 40/248/40 137/232/137 141/320/141
f 41/273/41 142/274/142 144/321/144 145/322/145
f 147/422/147 146/323/146 144/321/144 141/320/141
f 147/422/147 141/320/141 140/255/140 143/423/143
f 141/320/141 137/232/137 138/231/138 140/255/140
f 143/423/143 140/255/140 139/257/139 148/424/148
f 148/424/148 139/257/139 136/270/136 149/425/149
f 150/426/150 149/425/149 136/270/136 151/324/151
f 80/149/80 74/193/74 78/196/78 84/90/84
f 127/316/127 124/85/124 129/88/129 132/317/132
f 134/318/134 129/88/129 133/209/133 155/208/155
f 434/184/432 261/371/259 433/399/431 435/400/433
f 169/427/169 168/289/168 167/258/167 171/176/171
f 175/12/175 172/104/172 176/107/176 178/9/178
f 174/428/174 173/175/173 202/198/202 203/343/203
f 200/199/200 197/342/197 95/308/95 202/198/202
f 178/9/178 176/107/176 180/212/180 184/253/184
f 184/253/184 196/421/196 198/10/198 178/9/178
f 48/8/48 44/7/44 47/244/47 54/168/54
f 88/91/88 82/429/82 86/283/86 92/98/92
f 59/268/59 52/267/52 56/167/56 60/430/60
f 60/430/60 56/167/56 57/94/57 61/93/61
f 62/96/62 50/95/50 24/292/24 26/294/26
f 60/430/60 64/313/64 113/172/113 59/268/59
f 65/296/65 26/294/26 27/431/27 66/297/66
f 63/295/63 65/296/65 69/300/69 68/432/68
f 64/313/64 60/430/60 61/93/61 68/432/68
f 68/432/68 69/300/69 73/302/73 64/313/64
f 64/313/64 109/137/109 111/29/111 113/172/113
f 108/252/108 106/433/106 112/335/112 114/278/114
f 181/336/181 112/335/112 106/433/106 104/434/104
f 77/312/77 76/304/76 81/303/81 107/138/107
f 72/301/72 70/299/70 76/304/76 77/312/77
f 81/303/81 80/149/80 85/148/85 105/251/105
f 78/196/78 75/195/75 79/435/79 82/429/82
f 84/90/84 78/196/78 82/429/82 88/91/88
f 86/283/86 82/429/82 79/435/79 83/436/83
f 86/283/86 83/436/83 87/437/87 90/284/90
f 90/284/90 87/437/87 91/310/91 94/309/94
f 100/413/100 89/89/89 93/92/93 101/438/101
f 103/311/103 100/413/100 104/434/104 106/433/106
f 101/438/101 93/92/93 98/97/98 102/391/102
f 185/158/185 183/157/183 101/438/101 102/391/102
f 262/60/260 258/186/256 255/189/253 259/61/257
f 90/284/90 94/309/94 97/307/97 96/285/96
f 192/337/192 97/307/97 94/309/94 95/308/95
f 185/158/185 102/391/102 188/392/188 191/439/191
f 188/392/188 99/306/99 190/305/190 192/337/192
f 191/439/191 188/392/188 192/337/192 193/338/193
f 189/341/189 186/155/186 185/158/185 191/439/191
f 195/339/195 189/341/189 191/439/191 193/338/193
f 186/155/186 189/341/189 194/340/194 187/254/187
f 187/254/187 194/340/194 196/421/196 184/253/184
f 222/146/220 220/440/218 224/362/222 227/147/225
f 231/145/229 227/147/225 235/361/233 241/197/239
f 237/142/235 234/441/232 230/56/228 233/59/231
f 238/181/236 234/441/232 237/142/235 389/141/387
f 267/249/265 262/60/260 265/26/263 270/25/268
f 285/70/283 288/228/286 289/375/287 290/71/288
f 307/378/305 293/377/291 289/375/287 287/374/285
f 305/379/303 299/54/297 297/53/295 293/377/291
f 299/54/297 305/379/303 307/378/305 308/46/306
f 317/42/315 312/2/310 313/1/311 314/380/312
f 315/259/313 314/380/312 287/374/285 316/260/314
f 317/42/315 314/380/312 315/259/313 320/43/318
f 322/112/320 318/261/316 319/381/317 323/113/321
f 339/48/337 337/51/335 340/216/338 343/222/341
f 275/166/273 419/165/417 422/200/420 271/372/269
f 419/165/417 417/109/415 420/83/418 422/200/420
f 374/37/372 370/271/368 371/442/369 375/38/373
f 378/272/376 374/37/372 377/40/375 379/443/377
f 381/444/379 378/272/376 379/443/377 382/445/380
f 381/444/379 382/445/380 383/446/381 384/118/382
f 388/117/386 380/192/378 381/444/379 384/118/382
f 384/118/382 383/446/381 385/180/383 387/119/385
f 392/120/390 387/119/385 389/141/387 438/144/436
f 151/324/151 136/270/136 130/269/130 132/317/132
f 290/71/288 289/375/287 293/377/291 297/53/295
f 423/34/421 421/84/419 424/218/422 426/35/424
f 261/371/259 246/183/244 245/364/243 252/370/250
f 52/267/52 46/5/46 48/8/48 56/167/56
f 346/384/344 335/383/333 410/398/408 412/170/410
f 152/327/152 150/426/150 151/324/151 153/325/153
f 272/152/270 269/27/267 266/63/264 273/153/271
f 118/314/118 115/173/115 119/174/119 123/447/123
f 369/67/367 372/229/370 386/22/384 390/21/388
f 231/145/229 232/182/230 228/58/226 225/116/223
f 356/224/354 349/223/347 352/243/350 403/122/401
f 43/6/43 31/162/31 42/132/42 44/7/44
f 347/136/345 345/135/343 348/387/346 350/386/348
f 309/3/307 308/46/306 307/378/305 311/4/309
f 194/340/194 195/339/195 197/342/197 196/421/196
f 126/319/126 123/447/123 127/316/127 130/269/130
f 342/291/340 339/48/337 343/222/341 353/221/351
f 282/125/280 285/70/283 281/69/279 279/126/277
f 221/448/219 220/440/218 222/146/220 223/360/221
f 26/294/26 24/292/24 17/420/17 27/431/27
f 59/268/59 113/172/113 115/173/115 58/265/58
f 233/59/231 228/58/226 232/182/230 242/185/240
f 417/109/415 413/80/411 418/79/416 420/83/418
f 68/432/68 61/93/61 62/96/62 63/295/63
f 370/271/368 367/204/365 368/206/366 371/442/369
f 298/201/296 295/238/293 301/239/299 304/202/302
f 5/18/5 4/235/4 3/415/3 6/416/6
f 181/336/181 104/434/104 183/157/183 182/156/182
f 123/447/123 119/174/119 124/85/124 127/316/127
f 120/86/120 116/32/116 117/31/117 121/263/121
f 38/16/38 35/15/35 51/276/51 53/315/53
f 10/19/10 11/417/11 12/419/12 16/245/16
f 53/315/53 51/276/51 55/293/55 122/412/122
f 271/372/269 267/249/265 270/25/268 275/166/273
f 406/102/404 404/121/402 407/82/405 409/81/407
f 393/393/391 391/23/389 388/117/386 392/120/390
f 239/280/237 235/361/233 236/363/234 240/281/238
f 429/240/427 427/219/425 400/215/398 399/395/397
f 380/192/378 373/230/371 378/272/376 381/444/379
f 261/371/259 264/226/262 432/241/430 433/399/431
f 296/52/294 291/72/289 290/71/288 297/53/295
f 73/302/73 72/301/72 77/312/77 109/137/109
f 247/366/245 243/279/241 244/282/242 248/367/246
f 55/293/55 58/265/58 118/314/118 122/412/122
f 166/105/166 163/331/163 164/332/164 170/106/170
f 44/7/44 42/132/42 20/131/20 47/244/47
f 437/401/435 393/393/391 392/120/390 438/144/436
f 169/427/169 171/176/171 173/175/173 174/428/174
f 349/223/347 343/222/341 340/216/338 344/133/342
f 76/304/76 70/299/70 74/193/74 80/149/80
f 271/372/269 422/200/420 425/33/423 268/73/266
f 294/163/292 292/376/290 298/201/296 302/164/300
f 105/251/105 103/311/103 106/433/106 108/252/108
f 39/275/39 30/159/30 31/162/31 43/6/43
f 411/103/409 409/81/407 413/80/411 415/108/413
f 331/286/329 412/170/410 414/171/412 306/242/304
f 122/412/122 118/314/118 123/447/123 126/319/126
f 98/97/98 92/98/92 96/285/96 99/306/99
f 237/142/235 233/59/231 242/185/240 436/143/434
f 104/434/104 100/413/100 101/438/101 183/157/183
f 435/400/433 436/143/434 242/185/240 434/184/432
