# Blender 5.1.1
# www.blender.org
mtllib left_arm_0.mtl
g arm_1_izq_Mesh_0456Mesh.002
v 0.222220 -0.000412 -0.023965
v 0.222223 -0.000412 -0.023115
v 0.222235 0.000496 -0.023152
v -0.003142 -0.008438 0.013132
v -0.003182 -0.001778 0.015802
v 0.003245 -0.002213 0.019449
v 0.003403 -0.010139 0.015933
v 0.015190 -0.002281 0.019565
v 0.003471 -0.016090 0.007592
v -0.003095 -0.013412 0.006515
v 0.015164 -0.010033 0.015804
v 0.028712 -0.007713 0.011945
v 0.029104 -0.001816 0.014926
v 0.014961 -0.015900 0.007245
v 0.003243 -0.017838 -0.000285
v -0.003142 -0.014725 -0.000074
v -0.003542 -0.011879 -0.009512
v 0.014675 -0.017807 -0.000375
v 0.002693 -0.014778 -0.011505
v -0.004474 -0.007095 -0.014675
v 0.014215 -0.015266 -0.011186
v 0.028089 -0.012177 0.005299
v 0.002090 -0.008850 -0.018135
v 0.053959 -0.006256 0.010466
v 0.054329 -0.001503 0.013221
v 0.013918 -0.009193 -0.018243
v 0.001744 0.002380 -0.021358
v -0.005252 0.001900 -0.017244
v -0.004195 0.008522 -0.013841
v 0.013759 0.002464 -0.021657
v 0.027780 -0.007164 -0.013558
v 0.002467 0.010185 -0.016802
v 0.003384 0.015701 -0.006844
v -0.002809 0.013206 -0.006020
v 0.013926 0.010269 -0.016759
v 0.003476 0.017029 0.002518
v -0.002708 0.014191 0.001903
v -0.003015 0.011559 0.009615
v 0.014302 0.015770 -0.006304
v 0.027518 0.008087 -0.012577
v 0.003308 0.014214 0.011553
v 0.027862 0.001930 -0.016314
v 0.014619 0.017120 0.002772
v 0.027338 0.012444 -0.004483
v 0.003234 0.005608 0.018716
v -0.003141 0.004547 0.015239
v 0.003245 -0.002213 0.019449
v -0.003182 -0.001778 0.015802
v 0.015150 0.005722 0.018862
v 0.015190 -0.002281 0.019565
v 0.014917 0.014519 0.011474
v 0.029022 0.004478 0.014437
v 0.029104 -0.001816 0.014926
v 0.028420 0.011444 0.008680
v 0.054295 0.003830 0.012947
v 0.054329 -0.001503 0.013221
v 0.053732 0.009758 0.008159
v 0.027776 0.013420 0.002235
v 0.052996 0.011597 0.002089
v 0.052389 0.010582 -0.004183
v 0.052222 0.006760 -0.010684
v 0.075569 0.010094 -0.003940
v 0.075295 0.006393 -0.009966
v 0.052301 0.001518 -0.013503
v 0.076086 0.011200 0.002723
v 0.076670 0.009232 0.009151
v 0.077102 0.003559 0.013309
v 0.077164 -0.001472 0.013474
v 0.111067 -0.001557 0.014326
v 0.110197 0.010483 0.004194
v 0.149110 0.002750 0.015825
v 0.149159 -0.001244 0.015967
v 0.173077 -0.000626 0.017720
v 0.110646 0.007996 0.011012
v 0.173060 0.003441 0.017384
v 0.186316 -0.000290 0.019071
v 0.148916 0.007317 0.012921
v 0.186814 0.004036 0.018553
v 0.196144 -0.000114 0.020361
v 0.172962 0.007965 0.014076
v 0.197010 0.004906 0.019799
v 0.205637 -0.000031 0.022827
v 0.148535 0.010399 0.005459
v 0.172653 0.011055 0.005820
v 0.187659 0.008759 0.014775
v 0.187117 0.011673 0.005930
v 0.172316 0.010101 -0.002640
v 0.148169 0.009743 -0.002411
v 0.109806 0.009628 -0.003018
v 0.109558 0.006134 -0.008934
v 0.147904 0.006050 -0.008505
v 0.075247 0.001350 -0.012416
v 0.147813 0.000833 -0.010906
v 0.172047 0.005943 -0.008907
v 0.075314 -0.005121 -0.010069
v 0.171944 0.000343 -0.011160
v 0.196043 0.006393 -0.010350
v 0.147955 -0.005880 -0.008312
v 0.195964 -0.000008 -0.012309
v 0.172099 -0.006519 -0.007686
v 0.196604 0.011375 -0.004072
v 0.206431 -0.000114 -0.014087
v 0.197951 0.013260 0.005855
v 0.206326 0.006981 -0.011828
v 0.207617 0.012917 -0.005640
v 0.198500 0.010292 0.015786
v 0.208456 0.015625 0.006101
v 0.213059 0.005692 -0.010814
v 0.206879 0.005974 0.022154
v 0.215513 0.000000 0.029153
v 0.209141 0.012314 0.017548
v 0.218523 0.016281 -0.005751
v 0.217692 0.018456 0.006928
v 0.216871 0.014618 0.020053
v 0.215872 0.007095 0.027462
v 0.224730 -0.000008 0.032260
v 0.225985 0.018761 0.008543
v 0.224127 0.015160 0.021377
v 0.224241 0.007347 0.030062
v 0.228480 0.006432 0.027404
v 0.229380 -0.000015 0.029082
v 0.231692 -0.000031 0.023132
v 0.227572 0.013260 0.020461
v 0.231276 0.004974 0.022416
v 0.240923 0.004906 0.021607
v 0.241270 -0.000031 0.022390
v 0.231104 0.010193 0.018451
v 0.251272 0.004852 0.021400
v 0.245482 -0.000031 0.022386
v 0.251574 -0.000031 0.022356
v 0.255858 -0.000015 0.020826
v 0.240309 0.009995 0.017460
v 0.258631 0.002144 0.017624
v 0.258803 0.000008 0.018501
v 0.263441 0.000122 0.007618
v 0.250654 0.009903 0.016875
v 0.255423 0.007057 0.016093
v 0.259302 0.005745 0.008110
v 0.261152 0.006729 0.001752
v 0.266936 0.000198 0.003199
v 0.252436 0.009438 0.007593
v 0.264899 0.010139 -0.003770
v 0.250147 0.010078 0.007692
v 0.257483 0.008835 -0.000663
v 0.240603 0.010010 0.008595
v 0.250342 0.009850 -0.002007
v 0.232077 0.010559 0.010365
v 0.227907 0.015366 0.008239
v 0.234808 0.010147 0.001268
v 0.240851 0.009644 -0.000814
v 0.232283 0.014915 -0.003421
v 0.229243 0.017502 -0.005935
v 0.239916 0.015137 -0.007892
v 0.244417 0.014801 -0.008840
v 0.240111 0.016998 -0.009918
v 0.226069 0.007263 -0.015599
v 0.237421 0.007401 -0.017892
v 0.244681 0.016663 -0.011364
v 0.219740 0.004196 -0.017731
v 0.251471 0.014435 -0.008400
v 0.255816 0.013916 -0.007785
v 0.252382 0.016255 -0.011747
v 0.243264 0.007100 -0.018368
v 0.260737 0.012802 -0.006360
v 0.262279 0.013907 -0.008682
v 0.267981 0.011032 -0.005956
v 0.269827 0.000267 0.001759
v 0.283594 0.000397 0.001021
v 0.253072 0.006735 -0.017165
v 0.262469 0.005981 -0.011076
v 0.257765 0.006393 -0.014976
v 0.248770 0.004898 -0.022935
v 0.267634 0.005051 -0.005992
v 0.255003 0.004311 -0.021934
v 0.283327 0.000496 0.000784
v 0.269568 0.003479 -0.011079
v 0.276980 0.000496 -0.009832
v 0.283331 0.000305 0.000801
v 0.263617 0.004227 -0.015719
v 0.267897 -0.010849 -0.005054
v 0.269827 0.000267 0.001759
v 0.266936 0.000198 0.003199
v 0.260290 0.004494 -0.019562
v 0.269430 0.000496 -0.018346
v 0.265448 0.000496 -0.022921
v 0.269430 0.000496 -0.018346
v 0.269930 0.000496 -0.018854
v 0.269400 -0.000412 -0.018280
v 0.269892 -0.000412 -0.018793
v 0.269430 0.000496 -0.018346
v 0.276896 -0.000412 -0.010266
v 0.267588 -0.004753 -0.005589
v 0.269472 -0.003059 -0.010751
v 0.262408 -0.006012 -0.010583
v 0.262976 -0.003708 -0.015780
v 0.265188 -0.000412 -0.023039
v 0.264357 0.000496 -0.026069
v 0.258459 0.000496 -0.028446
v 0.264342 -0.000412 -0.026012
v 0.260237 -0.004204 -0.019188
v 0.257723 -0.006584 -0.014438
v 0.258467 -0.000412 -0.028426
v 0.255182 0.000496 -0.025052
v 0.262203 -0.014008 -0.007530
v 0.250712 0.000496 -0.026556
v 0.255285 -0.000412 -0.024994
v 0.264860 -0.010010 -0.002896
v 0.250723 -0.000412 -0.026547
v 0.255015 -0.004913 -0.021577
v 0.249743 -0.000412 -0.032139
v 0.253072 -0.006988 -0.016588
v 0.248781 -0.005280 -0.022557
v 0.252384 -0.016481 -0.010370
v 0.249731 0.000496 -0.032145
v 0.242739 -0.000412 -0.032254
v 0.242727 0.000496 -0.032260
v 0.243264 -0.007445 -0.017761
v 0.241686 0.005127 -0.023341
v 0.241015 0.000496 -0.028004
v 0.241713 -0.004738 -0.022875
v 0.241022 -0.000412 -0.027999
v 0.236971 -0.000412 -0.027729
v 0.236963 0.000496 -0.027737
v 0.235789 0.005287 -0.022847
v 0.235808 -0.005066 -0.022513
v 0.235449 -0.000412 -0.031791
v 0.235445 0.000496 -0.031798
v 0.227400 0.005051 -0.021036
v 0.229216 0.000496 -0.030578
v 0.229220 -0.000412 -0.030571
v 0.227270 0.000496 -0.026463
v 0.222235 0.000496 -0.023152
v 0.227274 -0.000412 -0.026451
v 0.227408 -0.005142 -0.020685
v 0.235354 -0.007683 -0.017181
v 0.222223 -0.000412 -0.023115
v 0.214102 0.000153 -0.018005
v 0.222220 -0.000412 -0.023965
v 0.214106 -0.000481 -0.017983
v 0.219740 -0.004425 -0.017431
v 0.226077 -0.007474 -0.014958
v 0.214907 -0.006753 -0.011065
v 0.238676 -0.017593 -0.009364
v 0.206598 -0.008400 -0.010401
v 0.243448 -0.016965 -0.010782
v 0.196160 -0.007712 -0.008507
v 0.207625 -0.013072 -0.004528
v 0.218519 -0.016502 -0.004451
v 0.186081 -0.010134 -0.002380
v 0.229243 -0.017693 -0.004453
v 0.148180 -0.009180 -0.003901
v 0.232252 -0.015060 -0.002156
v 0.075526 -0.008468 -0.005927
v 0.239380 -0.015275 -0.006640
v 0.251472 -0.014565 -0.007194
v 0.240844 -0.009767 0.000016
v 0.225439 -0.018761 0.013123
v 0.255785 -0.014084 -0.006606
v 0.217489 -0.018524 0.011393
v 0.260683 -0.012894 -0.005276
v 0.253445 -0.009793 -0.001036
v 0.257460 -0.008919 0.000060
v 0.261149 -0.006638 0.002314
v 0.263441 0.000122 0.007618
v 0.255623 -0.008169 0.010383
v 0.259058 -0.005592 0.010032
v 0.258612 -0.004456 0.014925
v 0.258803 0.000008 0.018501
v 0.250204 -0.010367 0.010748
v 0.258677 -0.002472 0.017596
v 0.255858 -0.000015 0.020826
v 0.255461 -0.007103 0.016686
v 0.252833 -0.005104 0.021115
v 0.251574 -0.000031 0.022356
v 0.250656 -0.009987 0.017714
v 0.251265 -0.005812 0.021652
v 0.245482 -0.000031 0.022386
v 0.247164 -0.010206 0.017834
v 0.240813 -0.005894 0.021916
v 0.241270 -0.000031 0.022390
v 0.231692 -0.000031 0.023132
v 0.240645 -0.010303 0.011593
v 0.240305 -0.010091 0.018311
v 0.231341 -0.005936 0.022762
v 0.229380 -0.000015 0.029082
v 0.234808 -0.010307 0.002129
v 0.231692 -0.010796 0.013265
v 0.227514 -0.015465 0.012317
v 0.231104 -0.010277 0.019313
v 0.227576 -0.013329 0.021576
v 0.228640 -0.007454 0.027583
v 0.224730 -0.000008 0.032260
v 0.224127 -0.015228 0.022657
v 0.224249 -0.008293 0.030045
v 0.215971 -0.008018 0.027589
v 0.215513 0.000000 0.029153
v 0.216856 -0.014725 0.021350
v 0.207167 -0.006783 0.022436
v 0.205637 -0.000031 0.022827
v 0.209141 -0.012398 0.018589
v 0.208626 -0.015602 0.010007
v 0.198595 -0.010071 0.016121
v 0.197233 -0.005562 0.019659
v 0.196144 -0.000114 0.020361
v 0.187404 -0.011027 0.007875
v 0.187836 -0.008423 0.014357
v 0.187027 -0.004730 0.017930
v 0.186316 -0.000290 0.019071
v 0.173065 -0.008339 0.013246
v 0.172802 -0.010855 0.007055
v 0.173115 -0.004860 0.016604
v 0.173077 -0.000626 0.017720
v 0.149159 -0.001244 0.015967
v 0.110333 -0.010437 0.002536
v 0.149138 -0.005424 0.014669
v 0.111067 -0.001557 0.014326
v 0.148991 -0.008749 0.011188
v 0.110974 -0.005852 0.012338
v 0.077164 -0.001472 0.013474
v 0.076525 -0.009209 0.005508
v 0.076979 -0.005951 0.010877
v 0.076096 -0.010208 0.000776
v 0.053280 -0.009743 0.004684
v 0.052834 -0.010773 0.000064
v 0.027840 -0.013603 -0.000203
v 0.052345 -0.009171 -0.006464
v 0.027672 -0.011871 -0.008005
v 0.052252 -0.005531 -0.010974
v -0.009186 -0.000046 0.000475
v -0.005252 0.001900 -0.017244
v -0.004195 0.008522 -0.013841
v -0.002809 0.013206 -0.006020
v -0.004474 -0.007095 -0.014675
v -0.002708 0.014191 0.001903
v -0.003542 -0.011879 -0.009512
v -0.003015 0.011559 0.009615
v -0.003142 -0.014725 -0.000074
v -0.003141 0.004547 0.015239
v -0.003095 -0.013412 0.006515
v -0.003182 -0.001778 0.015802
v -0.003142 -0.008438 0.013132
v 0.251135 -0.001762 0.019449
v 0.259531 -0.002098 0.018390
v 0.248957 -0.002747 0.009578
v 0.257384 -0.003021 0.007552
vn 0.9999 -0.0128 -0.0045
vn -0.4465 -0.5668 0.6923
vn -0.4625 -0.3515 0.8140
vn -0.2287 -0.3990 0.8880
vn -0.2153 -0.6170 0.7569
vn 0.1504 -0.4301 0.8902
vn -0.1960 -0.8946 0.4016
vn -0.4158 -0.8288 0.3746
vn 0.1601 -0.6418 0.7500
vn 0.2008 -0.6651 0.7193
vn 0.1913 -0.4562 0.8691
vn 0.1588 -0.9034 0.3984
vn -0.2188 -0.9757 -0.0135
vn -0.4412 -0.8972 -0.0170
vn -0.4756 -0.7832 -0.4004
vn 0.1490 -0.9888 -0.0056
vn -0.2451 -0.8577 -0.4520
vn -0.5017 -0.4805 -0.7193
vn 0.1464 -0.8768 -0.4580
vn 0.2023 -0.9016 0.3824
vn -0.2618 -0.5240 -0.8105
vn 0.0391 -0.6932 0.7197
vn 0.0301 -0.4899 0.8712
vn 0.1571 -0.5310 -0.8327
vn -0.2666 0.1237 -0.9558
vn -0.5127 0.1028 -0.8524
vn -0.4396 0.6628 -0.6062
vn 0.1641 0.1300 -0.9778
vn 0.2371 -0.5413 -0.8067
vn -0.2200 0.7056 -0.6736
vn -0.1926 0.9332 -0.3035
vn -0.3966 0.8745 -0.2794
vn 0.1523 0.7138 -0.6835
vn -0.2137 0.9736 0.0802
vn -0.4214 0.9040 0.0726
vn -0.4607 0.7370 0.4946
vn 0.1373 0.9397 -0.3133
vn 0.2069 0.7115 -0.6715
vn -0.2368 0.8069 0.5412
vn 0.2454 0.1181 -0.9622
vn 0.1293 0.9891 0.0703
vn 0.1803 0.9317 -0.3153
vn -0.2492 0.3673 0.8961
vn -0.4893 0.3400 0.8031
vn -0.2481 0.0884 0.9647
vn -0.4876 0.0807 0.8693
vn 0.1489 0.3779 0.9138
vn 0.1498 0.0872 0.9849
vn 0.1354 0.8287 0.5431
vn 0.1937 0.3745 0.9068
vn 0.1907 0.0745 0.9788
vn 0.1836 0.8273 0.5310
vn 0.0250 0.3564 0.9340
vn 0.0252 0.0541 0.9982
vn 0.0331 0.8296 0.5574
vn 0.1769 0.9825 0.0593
vn 0.0452 0.9970 0.0628
vn 0.0512 0.9400 -0.3373
vn 0.0640 0.6968 -0.7144
vn 0.0240 0.9394 -0.3420
vn 0.0315 0.6777 -0.7346
vn 0.0811 0.0833 -0.9932
vn 0.0166 0.9969 0.0766
vn -0.0036 0.8158 0.5784
vn -0.0198 0.3325 0.9429
vn -0.0192 0.0373 0.9991
vn -0.0351 -0.0302 0.9989
vn 0.0077 0.9935 0.1140
vn -0.0520 0.3054 0.9508
vn -0.0569 0.0467 0.9973
vn -0.0832 0.0822 0.9931
vn -0.0134 0.8087 0.5881
vn -0.0808 0.3471 0.9343
vn -0.1124 0.1186 0.9866
vn -0.0339 0.7751 0.6309
vn -0.1196 0.3815 0.9166
vn -0.1839 0.1429 0.9725
vn -0.0617 0.7939 0.6050
vn -0.2031 0.4014 0.8931
vn -0.3769 0.1833 0.9080
vn -0.0157 0.9902 0.1388
vn -0.0396 0.9911 0.1272
vn -0.1178 0.8127 0.5707
vn -0.0914 0.9898 0.1089
vn -0.0371 0.9404 -0.3379
vn -0.0060 0.9479 -0.3186
vn 0.0140 0.9455 -0.3252
vn 0.0192 0.6917 -0.7219
vn -0.0003 0.6598 -0.7515
vn 0.0356 0.0568 -0.9977
vn 0.0056 0.0186 -0.9998
vn -0.0352 0.6241 -0.7805
vn 0.0280 -0.5847 -0.8108
vn -0.0306 -0.0359 -0.9989
vn -0.1142 0.5734 -0.8113
vn 0.0046 -0.6079 -0.7940
vn -0.1170 -0.0673 -0.9909
vn -0.0178 -0.6559 -0.7547
vn -0.1351 0.9092 -0.3938
vn -0.1803 -0.0339 -0.9830
vn -0.1812 0.9817 0.0591
vn -0.0466 0.5052 -0.8617
vn -0.1651 0.8433 -0.5115
vn -0.2048 0.8145 0.5428
vn -0.2633 0.9638 0.0409
vn -0.1833 0.6123 -0.7691
vn -0.3812 0.4371 0.8147
vn -0.4114 0.2313 0.8816
vn -0.3278 0.8094 0.4872
vn -0.1747 0.8649 -0.4706
vn -0.1978 0.9792 0.0451
vn -0.2686 0.8384 0.4742
vn -0.3742 0.4733 0.7974
vn 0.1431 0.2894 0.9465
vn 0.3246 0.9354 0.1404
vn 0.2206 0.8426 0.4913
vn 0.1330 0.5109 0.8493
vn 0.6968 0.4115 0.5875
vn 0.7379 0.2435 0.6294
vn 0.5716 0.1974 0.7964
vn 0.6835 0.6363 0.3576
vn 0.5666 0.4073 0.7163
vn 0.0565 0.4131 0.9089
vn 0.0462 0.1621 0.9857
vn 0.5151 0.7649 0.3869
vn 0.2485 0.4559 0.8547
vn 0.0019 0.1957 0.9807
vn 0.1717 0.1994 0.9647
vn 0.4938 0.3957 0.7743
vn 0.0465 0.9022 0.4289
vn 0.7390 0.4369 0.5128
vn 0.7310 0.3086 0.6086
vn 0.7385 0.5702 0.3599
vn 0.2434 0.8882 0.3897
vn 0.5871 0.7152 0.3792
vn 0.6242 0.7365 0.2607
vn 0.4515 0.7501 0.4832
vn 0.5174 0.6010 0.6092
vn 0.3562 0.9319 0.0690
vn 0.2516 0.7236 0.6427
vn 0.1505 0.9886 0.0055
vn 0.1781 0.8967 0.4052
vn 0.0245 0.9997 -0.0080
vn 0.0491 0.9438 0.3269
vn 0.4338 0.8955 0.0994
vn 0.7177 0.6708 0.1869
vn 0.3898 0.8856 0.2526
vn 0.1140 0.9450 0.3064
vn 0.5082 0.7525 0.4189
vn 0.1374 0.9573 -0.2543
vn 0.2438 0.7672 0.5933
vn 0.1152 0.8035 0.5841
vn 0.0655 0.9928 -0.1000
vn -0.2274 0.7540 -0.6163
vn -0.0967 0.8147 -0.5718
vn 0.0637 0.9741 -0.2168
vn -0.3755 0.6905 -0.6182
vn 0.0306 0.8391 0.5430
vn 0.0368 0.8516 0.5230
vn 0.1842 0.9407 -0.2849
vn 0.0086 0.7977 -0.6029
vn 0.0922 0.8363 0.5404
vn 0.4884 0.8440 -0.2218
vn 0.6838 0.7201 -0.1173
vn 0.1989 0.5932 0.7801
vn 0.9267 0.0095 0.3758
vn 0.1872 0.7689 -0.6113
vn 0.5359 0.6325 -0.5593
vn 0.3696 0.7333 -0.5707
vn 0.1634 0.8696 -0.4659
vn 0.5155 0.5388 -0.6663
vn 0.1158 0.8482 -0.5168
vn 0.7136 0.4138 -0.5653
vn 0.3673 0.8987 -0.2396
vn 0.6911 0.5673 -0.4479
vn 0.7168 -0.3625 -0.5956
vn 0.3580 0.8896 -0.2837
vn 0.6943 -0.7157 -0.0762
vn 0.2207 -0.5372 0.8141
vn 0.5532 -0.5504 0.6253
vn 0.2793 0.8986 -0.3384
vn 0.0769 0.7025 -0.7075
vn 0.7699 0.4540 -0.4485
vn 0.4147 0.8468 -0.3332
vn 0.0565 0.4993 -0.8646
vn 0.2149 -0.8175 -0.5343
vn 0.0231 -0.5380 -0.8426
vn -0.7126 -0.0168 -0.7014
vn 0.7139 -0.5062 -0.4839
vn 0.5127 -0.5759 -0.6368
vn 0.3479 -0.9035 -0.2504
vn 0.5466 -0.6215 -0.5612
vn 0.3788 -0.8760 -0.2984
vn 0.7307 -0.5787 -0.3622
vn 0.6503 0.4210 -0.6323
vn -0.1552 0.3945 -0.9057
vn 0.6410 -0.5035 -0.5793
vn 0.3252 -0.8908 -0.3172
vn 0.4071 -0.7292 -0.5500
vn -0.1373 -0.4602 -0.8772
vn -0.2646 0.3417 -0.9018
vn 0.4905 -0.8523 -0.1815
vn 0.7316 0.3736 -0.5702
vn -0.3026 -0.3703 -0.8782
vn 0.2882 -0.6840 0.6701
vn 0.7335 -0.3589 -0.5773
vn 0.1421 -0.8563 -0.4965
vn 0.5552 -0.4381 -0.7070
vn 0.2072 -0.7915 -0.5750
vn 0.1296 -0.8720 -0.4720
vn 0.1844 -0.9545 -0.2345
vn 0.5588 0.4360 -0.7054
vn -0.4677 -0.4436 -0.7645
vn -0.4622 0.4313 -0.7748
vn 0.0084 -0.7805 -0.6251
vn -0.0401 0.8714 -0.4888
vn -0.6049 0.3721 -0.7040
vn -0.0601 -0.8609 -0.5052
vn -0.5939 -0.4210 -0.6857
vn 0.5514 -0.4517 -0.7014
vn 0.5503 0.4245 -0.7190
vn -0.0187 0.8771 -0.4799
vn -0.0059 -0.8708 -0.4917
vn 0.4127 -0.4369 -0.7992
vn 0.4068 0.4290 -0.8065
vn -0.2476 0.8399 -0.4829
vn -0.5238 0.4287 -0.7361
vn -0.5169 -0.4435 -0.7322
vn -0.7537 0.3074 -0.5809
vn -0.4858 0.4768 -0.7326
vn -0.7489 -0.3257 -0.5771
vn -0.2377 -0.8378 -0.4915
vn -0.1189 -0.7997 -0.5885
vn -0.3377 -0.7721 -0.5383
vn -0.4733 0.4599 -0.7513
vn -0.5190 -0.4045 -0.7530
vn -0.4523 -0.2840 -0.8454
vn -0.3322 -0.7598 -0.5589
vn -0.2195 -0.7749 -0.5927
vn -0.1941 -0.6794 -0.7077
vn 0.0664 -0.9864 -0.1504
vn -0.1498 -0.6276 -0.7640
vn 0.0685 -0.9572 -0.2811
vn -0.1347 -0.6480 -0.7496
vn -0.1807 -0.8799 -0.4395
vn -0.1758 -0.8806 -0.4400
vn -0.0813 -0.9509 -0.2988
vn 0.1122 -0.9684 -0.2228
vn 0.0015 -0.9191 -0.3941
vn 0.5254 -0.7482 0.4052
vn 0.0218 -0.8953 -0.4450
vn 0.2192 -0.7950 0.5656
vn 0.0350 -0.8282 0.5593
vn 0.1157 -0.9398 0.3214
vn 0.3182 -0.9299 0.1846
vn 0.0416 -0.8346 0.5492
vn -0.2114 -0.9719 0.1036
vn 0.1125 -0.8149 0.5686
vn 0.0980 -0.9227 0.3729
vn 0.2322 -0.8786 0.4173
vn 0.5108 -0.7088 0.4865
vn 0.7771 -0.5201 0.3545
vn 0.4793 -0.8675 0.1334
vn 0.6873 -0.6878 0.2336
vn 0.7817 -0.5504 0.2933
vn 0.7617 -0.3001 0.5743
vn 0.1770 -0.9837 0.0306
vn 0.8622 -0.3035 0.4057
vn 0.5193 -0.3161 0.7940
vn 0.5904 -0.7066 0.3900
vn 0.4898 -0.3965 0.7764
vn 0.1857 -0.1274 0.9743
vn 0.2745 -0.8770 0.3944
vn 0.2523 -0.4365 0.8636
vn 0.0133 -0.1002 0.9949
vn 0.0320 -0.9103 0.4128
vn 0.0553 -0.3904 0.9190
vn 0.0401 -0.0790 0.9961
vn 0.5713 -0.1202 0.8119
vn 0.0223 -0.9997 -0.0020
vn 0.0428 -0.8998 0.4343
vn 0.5817 -0.3829 0.7176
vn 0.7366 -0.1931 0.6482
vn 0.4025 -0.8800 0.2521
vn 0.4438 -0.8891 0.1120
vn 0.7231 -0.6640 0.1902
vn 0.5115 -0.7694 0.3826
vn 0.6800 -0.6359 0.3650
vn 0.6968 -0.3934 0.5998
vn 0.1325 -0.2472 0.9599
vn 0.2149 -0.8234 0.5251
vn 0.1290 -0.4884 0.8630
vn -0.3764 -0.4493 0.8102
vn -0.4120 -0.1998 0.8890
vn -0.2813 -0.8090 0.5161
vn -0.4055 -0.4187 0.8126
vn -0.3845 -0.1612 0.9090
vn -0.3623 -0.7758 0.5165
vn -0.2833 -0.9525 0.1116
vn -0.2511 -0.7835 0.5684
vn -0.2389 -0.4275 0.8719
vn -0.2039 -0.1788 0.9625
vn -0.1129 -0.9831 0.1439
vn -0.1325 -0.8183 0.5593
vn -0.1294 -0.4719 0.8721
vn -0.1195 -0.2349 0.9647
vn -0.0393 -0.8305 0.5556
vn -0.0207 -0.9903 0.1374
vn -0.0676 -0.5001 0.8633
vn -0.0790 -0.2665 0.9606
vn -0.0564 -0.3172 0.9467
vn -0.0085 -0.9998 0.0186
vn -0.0489 -0.5329 0.8447
vn -0.0378 -0.4109 0.9109
vn -0.0341 -0.8547 0.5180
vn -0.0403 -0.6252 0.7794
vn -0.0198 -0.4813 0.8763
vn -0.0056 -0.9287 0.3707
vn -0.0149 -0.6928 0.7210
vn 0.0101 -0.9997 -0.0222
vn 0.0532 -0.9252 0.3757
vn 0.0698 -0.9975 -0.0114
vn 0.2120 -0.9773 -0.0002
vn 0.0802 -0.8915 -0.4460
vn 0.2232 -0.8728 -0.4340
vn 0.0823 -0.5691 -0.8182
vn -0.9984 0.0116 0.0549
vn -0.9761 0.0529 -0.2109
vn -0.9387 0.3158 -0.1382
vn -0.9107 0.4086 -0.0604
vn -0.9538 -0.2352 -0.1872
vn -0.9109 0.4114 0.0303
vn -0.9298 -0.3514 -0.1091
vn -0.9219 0.3295 0.2040
vn -0.9246 -0.3809 0.0051
vn -0.9308 0.1419 0.3369
vn -0.9236 -0.3497 0.1573
vn -0.9319 -0.0510 0.3592
vn -0.9288 -0.2272 0.2928
vn -0.0186 -0.9953 0.0955
vt 0.545410 -0.595215
vt 0.553711 -0.592285
vt 0.556152 -0.601562
vt 0.546875 -0.605957
vt 0.475098 -0.638184
vt 0.481689 -0.635742
vt 0.483887 -0.645508
vt 0.478271 -0.648926
vt 0.507324 -0.646484
vt 0.511230 -0.645996
vt 0.511719 -0.649902
vt 0.507812 -0.650391
vt 0.485107 -0.653320
vt 0.487061 -0.653320
vt 0.487793 -0.659180
vt 0.484619 -0.658691
vt 0.518066 -0.490479
vt 0.520020 -0.538574
vt 0.511230 -0.538086
vt 0.510254 -0.490234
vt 0.453857 -0.637207
vt 0.447266 -0.638672
vt 0.444336 -0.631836
vt 0.451172 -0.628418
vt 0.477783 -0.629883
vt 0.480469 -0.626953
vt 0.484375 -0.634766
vt 0.530273 -0.449463
vt 0.528809 -0.421875
vt 0.536621 -0.422119
vt 0.538086 -0.449951
vt 0.521484 -0.639648
vt 0.523926 -0.639648
vt 0.522949 -0.645508
vt 0.520508 -0.645508
vt 0.508789 -0.654297
vt 0.504395 -0.656738
vt 0.503906 -0.652344
vt 0.517090 -0.447754
vt 0.509277 -0.447510
vt 0.495361 -0.638184
vt 0.495605 -0.645996
vt 0.486572 -0.645020
vt 0.485596 -0.638672
vt 0.522461 -0.607422
vt 0.522461 -0.595703
vt 0.533691 -0.596191
vt 0.534668 -0.606934
vt 0.483643 -0.607422
vt 0.491943 -0.606445
vt 0.493408 -0.614746
vt 0.481445 -0.617676
vt 0.492676 -0.567383
vt 0.493652 -0.538086
vt 0.503418 -0.538086
vt 0.503418 -0.567383
vt 0.547852 -0.613281
vt 0.558594 -0.610840
vt 0.532715 -0.584473
vt 0.543945 -0.583984
vt 0.528809 -0.653809
vt 0.522461 -0.648926
vt 0.529297 -0.645996
vt 0.512695 -0.625000
vt 0.525879 -0.626953
vt 0.522949 -0.636230
vt 0.512207 -0.634277
vt 0.520020 -0.653320
vt 0.467529 -0.645508
vt 0.478516 -0.653320
vt 0.468506 -0.651367
vt 0.517090 -0.420166
vt 0.522949 -0.420898
vt 0.523438 -0.448486
vt 0.460449 -0.569336
vt 0.455078 -0.569824
vt 0.457031 -0.540039
vt 0.463135 -0.540039
vt 0.503906 -0.647949
vt 0.503906 -0.650879
vt 0.503418 -0.650879
vt 0.503418 -0.647949
vt 0.486816 -0.538574
vt 0.488525 -0.447754
vt 0.494385 -0.447510
vt 0.512207 -0.655273
vt 0.519043 -0.659668
vt 0.512695 -0.661621
vt 0.495361 -0.649902
vt 0.481689 -0.371826
vt 0.476318 -0.372314
vt 0.476074 -0.365234
vt 0.481689 -0.364990
vt 0.491699 -0.595215
vt 0.503418 -0.595215
vt 0.462158 -0.399902
vt 0.468994 -0.397461
vt 0.471436 -0.421631
vt 0.465820 -0.421387
vt 0.466797 -0.492676
vt 0.460693 -0.492676
vt 0.463623 -0.449951
vt 0.469727 -0.449707
vt 0.547852 -0.569336
vt 0.553223 -0.569824
vt 0.557129 -0.581055
vt 0.551270 -0.582520
vt 0.466309 -0.568848
vt 0.463379 -0.584473
vt 0.456787 -0.583008
vt 0.504395 -0.645996
vt 0.504395 -0.642578
vt 0.507812 -0.642090
vt 0.508301 -0.660645
vt 0.524902 -0.617676
vt 0.512695 -0.612793
vt 0.512695 -0.605957
vt 0.503906 -0.380127
vt 0.510742 -0.380371
vt 0.510742 -0.393311
vt 0.503906 -0.393311
vt 0.477539 -0.659180
vt 0.466553 -0.620605
vt 0.458496 -0.619141
vt 0.458984 -0.613281
vt 0.468018 -0.614746
vt 0.530762 -0.568359
vt 0.541016 -0.568848
vt 0.538574 -0.625000
vt 0.549316 -0.622559
vt 0.549316 -0.627930
vt 0.541504 -0.630371
vt 0.540039 -0.384033
vt 0.540039 -0.373047
vt 0.545898 -0.374023
vt 0.547852 -0.385742
vt 0.488770 -0.419678
vt 0.481445 -0.448730
vt 0.482178 -0.420410
vt 0.511719 -0.567383
vt 0.512207 -0.595215
vt 0.528809 -0.629883
vt 0.524902 -0.636230
vt 0.494629 -0.655273
vt 0.494629 -0.661621
vt 0.545410 -0.540039
vt 0.550781 -0.540039
vt 0.444336 -0.598145
vt 0.452393 -0.602539
vt 0.450195 -0.611328
vt 0.441162 -0.607910
vt 0.503906 -0.640625
vt 0.503906 -0.638184
vt 0.503418 -0.607422
vt 0.528809 -0.539062
vt 0.520996 -0.567871
vt 0.531250 -0.372314
vt 0.531738 -0.365234
vt 0.539551 -0.365723
vt 0.508301 -0.637207
vt 0.503418 -0.645996
vt 0.503418 -0.642578
vt 0.459961 -0.605957
vt 0.469238 -0.606934
vt 0.530762 -0.382324
vt 0.504395 -0.634277
vt 0.503418 -0.634277
vt 0.503906 -0.632812
vt 0.476562 -0.449219
vt 0.477783 -0.420898
vt 0.525879 -0.491211
vt 0.534180 -0.491943
vt 0.503418 -0.652344
vt 0.488037 -0.393555
vt 0.481445 -0.394287
vt 0.476562 -0.395264
vt 0.466064 -0.624023
vt 0.560547 -0.589844
vt 0.563477 -0.598145
vt 0.495361 -0.370850
vt 0.489502 -0.371338
vt 0.490479 -0.364502
vt 0.495850 -0.364258
vt 0.448975 -0.618164
vt 0.461914 -0.645020
vt 0.462402 -0.649902
vt 0.457275 -0.646973
vt 0.457275 -0.645508
vt 0.534180 -0.633301
vt 0.532227 -0.638184
vt 0.524902 -0.364746
vt 0.524902 -0.371826
vt 0.518066 -0.371338
vt 0.517578 -0.364502
vt 0.471924 -0.584473
vt 0.473877 -0.568359
vt 0.458008 -0.622559
vt 0.458008 -0.627930
vt 0.449707 -0.622559
vt 0.551270 -0.645996
vt 0.553223 -0.651367
vt 0.548340 -0.654785
vt 0.544922 -0.650391
vt 0.537598 -0.621582
vt 0.548828 -0.619141
vt 0.536133 -0.615234
vt 0.484131 -0.583496
vt 0.518555 -0.380859
vt 0.524902 -0.381348
vt 0.440430 -0.623535
vt 0.560059 -0.618164
vt 0.559082 -0.622559
vt 0.494629 -0.419678
vt 0.465820 -0.637207
vt 0.503418 -0.419678
vt 0.509766 -0.419922
vt 0.502930 -0.447266
vt 0.518555 -0.393555
vt 0.524414 -0.394287
vt 0.494629 -0.393311
vt 0.502930 -0.616211
vt 0.554688 -0.637695
vt 0.557617 -0.628906
vt 0.563477 -0.631836
vt 0.560547 -0.638672
vt 0.482910 -0.678711
vt 0.478271 -0.675293
vt 0.446777 -0.124023
vt 0.452148 -0.122925
vt 0.452637 -0.129517
vt 0.447266 -0.130737
vt 0.537598 -0.648438
vt 0.537109 -0.657715
vt 0.529785 -0.659668
vt 0.499756 -0.646484
vt 0.499512 -0.650391
vt 0.511719 -0.638672
vt 0.473145 -0.633301
vt 0.464111 -0.629395
vt 0.508789 -0.620605
vt 0.508789 -0.627441
vt 0.504395 -0.624023
vt 0.459717 -0.636719
vt 0.461426 -0.642090
vt 0.530273 -0.395752
vt 0.459961 -0.385742
vt 0.461914 -0.374023
vt 0.468994 -0.373047
vt 0.468262 -0.383789
vt 0.469727 -0.365723
vt 0.476074 -0.382324
vt 0.481445 -0.381348
vt 0.488770 -0.380615
vt 0.454590 -0.592773
vt 0.447510 -0.589844
vt 0.450684 -0.581055
vt 0.459961 -0.654297
vt 0.454590 -0.651367
vt 0.461426 -0.595703
vt 0.468994 -0.656738
vt 0.463623 -0.654785
vt 0.471191 -0.669434
vt 0.493896 -0.625000
vt 0.484619 -0.648926
vt 0.498535 -0.627441
vt 0.499023 -0.633301
vt 0.494873 -0.632324
vt 0.503418 -0.630371
vt 0.499268 -0.637207
vt 0.503418 -0.636719
vt 0.503906 -0.630371
vt 0.508301 -0.633301
vt 0.503906 -0.636719
vt 0.499268 -0.642090
vt 0.503418 -0.656738
vt 0.498779 -0.653809
vt 0.498779 -0.660645
vt 0.503906 -0.667969
vt 0.503906 -0.687500
vt 0.503418 -0.687500
vt 0.503418 -0.667480
vt 0.503906 -0.656738
vt 0.522461 -0.658691
vt 0.529785 -0.675293
vt 0.524902 -0.678711
vt 0.536621 -0.669434
vt 0.521973 -0.653320
vt 0.537598 -0.645996
vt 0.545410 -0.645508
vt 0.539551 -0.637695
vt 0.547852 -0.636719
vt 0.567383 -0.623535
vt 0.566895 -0.607910
vt 0.569824 -0.617676
vt 0.538574 -0.540039
vt 0.539062 -0.397949
vt 0.545898 -0.399902
vt 0.541992 -0.421387
vt 0.544434 -0.366211
vt 0.510742 -0.371094
vt 0.510742 -0.364258
vt 0.494873 -0.380371
vt 0.503906 -0.370850
vt 0.503906 -0.364258
vt 0.544434 -0.449951
vt 0.503418 -0.624512
vt 0.502930 -0.624023
vt 0.503906 -0.628418
vt 0.503418 -0.628418
vt 0.547363 -0.492676
vt 0.437988 -0.617676
vt 0.559082 -0.642090
vt 0.557617 -0.645020
vt 0.550293 -0.655762
vt 0.503906 -0.688477
vt 0.503906 -0.616211
vt 0.498291 -0.620605
vt 0.457520 -0.655762
vt 0.450195 -0.645020
vt 0.448975 -0.642090
vt 0.479248 -0.491699
vt 0.468994 -0.540039
vt 0.578613 -0.649414
vt 0.586426 -0.664551
vt 0.578613 -0.669434
vt 0.594727 -0.659668
vt 0.569336 -0.663574
vt 0.594727 -0.649902
vt 0.562988 -0.659668
vt 0.594238 -0.640137
vt 0.562988 -0.647949
vt 0.584961 -0.634277
vt 0.562988 -0.640137
vt 0.578613 -0.630371
vt 0.570801 -0.635254
vt 0.463379 -0.366211
s 1
g off
g arm_1_izq_Material
usemtl Material
f 106/1/104 81/2/79 109/3/107 111/4/109
f 256/5/254 254/6/252 255/7/253 261/8/259
f 174/9/172 169/10/167 171/11/169 183/12/181
f 260/13/258 204/14/202 180/15/178 207/16/205
f 89/17/87 88/18/86 91/19/89 90/20/88
f 279/21/277 280/22/278 281/23/279 284/24/282
f 252/25/250 250/26/248 243/27/241 254/6/252
f 66/28/64 57/29/55 55/30/53 67/31/65
f 158/32/156 154/33/152 160/34/158 162/35/160
f 179/36/177 186/37/184 185/38/183 183/12/181
f 62/39/60 89/17/87 90/20/88 63/40/61
f 217/41/215 211/42/209 213/43/211 245/44/243
f 105/45/103 101/46/99 103/47/101 107/48/105
f 247/49/245 244/50/242 242/51/240 248/52/246
f 100/53/98 98/54/96 93/55/91 96/56/94
f 114/57/112 111/4/109 109/3/107 115/58/113
f 106/1/104 103/47/101 86/59/84 85/60/83
f 144/61/142 161/62/159 160/34/158 146/63/144
f 111/4/109 107/48/105 103/47/101 106/1/104
f 156/64/154 152/65/150 155/66/153 157/67/155
f 169/10/167 162/35/160 165/68/163 171/11/169
f 269/69/267 261/8/259 262/70/260 265/71/263
f 62/39/60 60/72/58 59/73/57 65/74/63
f 311/75/309 312/76/310 313/77/311 315/78/313
f 198/79/196 197/80/195 199/81/197 202/82/200
f 98/54/96 251/83/249 253/84/251 95/85/93
f 170/86/168 165/68/163 166/87/164 173/88/171
f 213/43/211 211/42/209 201/89/199 204/14/202
f 15/90/13 9/91/7 10/92/8 16/93/14
f 246/94/244 100/53/98 96/56/94 99/95/97
f 13/96/11 12/97/10 24/98/22 25/99/23
f 318/100/316 316/101/314 319/102/317 321/103/319
f 75/104/73 73/105/71 76/106/74 78/107/76
f 309/108/307 306/109/304 307/110/305 311/75/309
f 174/9/172 203/111/201 205/112/203 172/113/170
f 170/86/168 173/88/171 176/114/174 179/36/177
f 112/115/110 108/116/106 104/117/102 105/45/103
f 30/118/28 35/119/33 40/120/38 42/121/40
f 260/13/258 207/16/205 263/122/261 262/70/260
f 257/123/255 293/124/291 297/125/295 259/126/257
f 85/60/83 86/59/84 84/127/82 80/128/78
f 148/129/146 123/130/121 127/131/125 147/132/145
f 49/133/47 45/134/43 47/135/45 50/136/48
f 326/137/324 253/84/251 322/138/320 324/139/322
f 99/95/97 96/56/94 94/140/92 97/141/95
f 152/65/150 151/142/149 153/143/151 155/66/153
f 194/144/192 192/145/190 180/15/178 204/14/202
f 75/104/73 71/146/69 72/147/70 73/105/71
f 299/148/297 298/149/296 295/150/293 296/151/294
f 214/152/212 210/152/208 215/153/213 216/153/214
f 102/154/100 244/50/242 246/94/244 99/95/97
f 83/155/81 84/127/82 87/156/85 88/18/86
f 45/134/43 41/157/39 38/158/36 46/159/44
f 91/19/89 94/140/92 96/56/94 93/55/91
f 172/113/170 214/152/212 216/153/214 218/160/216
f 203/111/201 206/161/204 208/162/206 205/112/203
f 259/126/257 297/125/295 300/163/298 301/164/299
f 41/157/39 45/134/43 49/133/47 51/165/49
f 223/166/221 222/167/220 226/168/224 227/168/225
f 322/138/320 320/169/318 323/170/321 324/139/322
f 70/171/68 65/74/63 66/28/64 74/172/72
f 197/80/195 185/38/183 196/173/194 199/81/197
f 327/174/325 326/137/324 324/139/322 325/175/323
f 324/139/322 323/170/321 22/176/20 325/175/323
f 257/123/255 250/26/248 252/25/250 288/177/286
f 81/2/79 79/178/77 82/179/80 109/3/107
f 23/180/21 19/181/17 17/182/15 20/183/18
f 293/124/291 294/184/292 295/150/293 297/125/295
f 275/185/273 272/186/270 273/187/271 276/188/274
f 269/69/267 265/71/263 272/186/270 275/185/273
f 151/142/149 149/189/147 150/190/148 153/143/151
f 248/52/246 259/126/257 301/164/299 247/49/245
f 323/170/321 320/169/318 321/103/319 24/98/22
f 37/191/35 36/192/34 33/193/31 34/194/32
f 305/195/303 306/109/304 309/108/307 310/196/308
f 290/197/288 289/198/287 284/24/282 291/199/289
f 171/11/169 170/86/168 179/36/177 183/12/181
f 128/200/126 131/201/129 133/202/131 137/203/135
f 117/204/115 118/205/116 123/130/121 148/129/146
f 112/115/110 113/206/111 117/204/115 152/65/150
f 247/49/245 301/164/299 305/195/303 249/207/247
f 39/208/37 33/193/31 36/192/34 43/209/41
f 284/24/282 281/23/279 285/210/283 291/199/289
f 155/66/153 153/143/151 154/33/152 158/32/156
f 118/205/116 119/211/117 120/212/118 123/130/121
f 248/52/246 250/26/248 257/123/255 259/126/257
f 95/85/93 253/84/251 326/137/324 328/213/326
f 256/5/254 261/8/259 269/69/267 282/214/280
f 64/215/62 61/216/59 63/40/61 92/217/90
f 60/72/58 44/218/42 58/219/56 59/73/57
f 328/213/326 326/137/324 327/174/325 31/220/29
f 102/154/100 239/221/237 242/51/240 244/50/242
f 125/222/123 124/223/122 122/224/120 126/225/124
f 180/15/178 181/226/179 182/227/180 207/16/205
f 342/228/340 344/229/340 345/230/340 343/231/340
f 141/232/139 138/233/136 139/234/137 144/61/142
f 211/42/209 209/235/207 200/236/198 201/89/199
f 155/66/153 158/32/156 163/237/161 157/67/155
f 286/238/284 256/5/254 282/214/280 287/239/285
f 148/129/146 147/132/145 149/189/147 151/142/149
f 159/240/157 156/64/154 228/241/226 232/242/230
f 283/243/281 282/214/280 269/69/267 278/244/276
f 287/239/285 282/214/280 283/243/281 289/198/287
f 104/117/102 97/141/95 101/46/99 105/45/103
f 54/245/52 57/29/55 59/73/57 58/219/56
f 8/246/6 6/247/4 7/248/5 11/249/9
f 9/91/7 7/248/5 4/250/2 10/92/8
f 11/249/9 7/248/5 9/91/7 14/251/12
f 13/96/11 8/246/6 11/249/9 12/97/10
f 12/97/10 11/249/9 14/251/12 22/176/20
f 18/252/16 14/251/12 9/91/7 15/90/13
f 21/253/19 18/252/16 15/90/13 19/181/17
f 307/110/305 303/254/301 304/255/302 308/256/306
f 21/253/19 327/174/325 325/175/323 18/252/16
f 272/186/270 270/257/268 271/258/269 273/187/271
f 306/109/304 302/259/300 303/254/301 307/110/305
f 302/259/300 300/163/298 298/149/296 303/254/301
f 300/163/298 297/125/295 295/150/293 298/149/296
f 293/124/291 290/197/288 291/199/289 294/184/292
f 257/123/255 288/177/286 290/197/288 293/124/291
f 288/177/286 287/239/285 289/198/287 290/197/288
f 278/244/276 276/188/274 279/21/277 283/243/281
f 265/71/263 266/260/264 267/261/265 272/186/270
f 266/260/264 263/122/261 182/227/180 264/262/262
f 248/52/246 242/51/240 241/263/239 250/26/248
f 258/264/256 260/13/258 262/70/260 261/8/259
f 234/265/232 225/266/223 235/267/233 241/263/239
f 230/268/228 226/168/224 225/266/223 234/265/232
f 235/267/233 225/266/223 220/269/218 217/41/215
f 222/167/220 221/270/219 220/269/218 225/266/223
f 227/168/225 226/168/224 230/268/228 229/271/227
f 228/241/226 224/272/222 227/168/225 229/271/227
f 219/273/217 221/270/219 222/167/220 223/166/221
f 215/153/213 210/152/208 212/274/210 220/269/218
f 108/116/106 112/115/110 156/64/154 159/240/157
f 157/67/155 224/272/222 228/241/226 156/64/154
f 224/272/222 218/160/216 219/273/217 223/166/221
f 157/67/155 163/237/161 218/160/216 224/272/222
f 208/162/206 206/161/204 209/235/207 212/274/210
f 203/111/201 198/79/196 202/82/200 206/161/204
f 209/235/207 202/82/200 199/81/197 200/236/198
f 200/236/198 196/173/194 188/275/186 195/276/193
f 194/144/192 195/276/193 188/275/186 193/277/191
f 185/38/183 184/37/182 188/275/186 196/173/194
f 177/278/175 175/279/173 178/280/176 191/281/189
f 187/282/185 177/278/175 191/281/189 189/275/187
f 166/87/164 142/283/140 140/284/138 167/285/165
f 140/284/138 139/234/137 138/233/136 135/286/133
f 164/287/162 144/61/142 139/234/137 142/283/140
f 143/288/141 136/289/134 137/203/135 141/232/139
f 145/290/143 143/288/141 146/63/144 150/190/148
f 117/204/115 148/129/146 151/142/149 152/65/150
f 136/289/134 143/288/141 145/290/143 132/291/130
f 147/132/145 127/131/125 132/291/130 145/290/143
f 124/223/122 125/222/123 132/291/130 127/131/125
f 123/130/121 120/212/118 124/223/122 127/131/125
f 137/203/135 133/202/131 135/286/133 138/233/136
f 120/212/118 121/292/119 122/224/120 124/223/122
f 115/58/113 110/293/108 116/294/114 119/211/117
f 118/205/116 117/204/115 113/206/111 114/57/112
f 109/3/107 82/179/80 110/293/108 115/58/113
f 114/57/112 113/206/111 107/48/105 111/4/109
f 112/115/110 105/45/103 107/48/105 113/206/111
f 74/172/72 77/295/75 83/155/81 70/171/68
f 55/30/53 52/296/50 53/297/51 56/298/54
f 65/74/63 70/171/68 89/17/87 62/39/60
f 65/74/63 59/73/57 57/29/55 66/28/64
f 52/296/50 49/133/47 50/136/48 53/297/51
f 321/103/319 319/102/317 25/99/23 24/98/22
f 54/245/52 51/165/49 49/133/47 52/296/50
f 45/134/43 46/159/44 48/299/46 47/135/45
f 43/209/41 36/192/34 41/157/39 51/165/49
f 33/193/31 32/300/30 29/301/27 34/194/32
f 44/218/42 39/208/37 43/209/41 58/219/56
f 63/40/61 61/216/59 60/72/58 62/39/60
f 61/216/59 40/120/38 44/218/42 60/72/58
f 40/120/38 35/119/33 39/208/37 44/218/42
f 42/121/40 40/120/38 61/216/59 64/215/62
f 328/213/326 31/220/29 42/121/40 64/215/62
f 31/220/29 26/302/24 30/118/28 42/121/40
f 21/253/19 26/302/24 31/220/29 327/174/325
f 30/118/28 27/303/25 32/300/30 35/119/33
f 19/181/17 23/180/21 26/302/24 21/253/19
f 27/303/25 28/304/26 29/301/27 32/300/30
f 27/303/25 23/180/21 20/183/18 28/304/26
f 30/118/28 26/302/24 23/180/21 27/303/25
f 118/205/116 114/57/112 115/58/113 119/211/117
f 165/68/163 164/287/162 142/283/140 166/87/164
f 304/255/302 303/254/301 298/149/296 299/148/297
f 39/208/37 35/119/33 32/300/30 33/193/31
f 98/54/96 95/85/93 92/217/90 93/55/91
f 195/276/193 194/144/192 201/89/199 200/236/198
f 67/31/65 55/30/53 56/298/54 68/305/66
f 1/306/1 3/242/1 2/307/1
f 232/242/230 231/308/229 233/309/231 236/307/234
f 120/212/118 119/211/117 116/294/114 121/292/119
f 67/31/65 68/305/66 69/310/67
f 69/310/67 71/146/69 67/31/65
f 71/146/69 69/310/67 72/147/70
f 74/172/72 66/28/64 67/31/65
f 77/295/75 67/31/65 71/146/69
f 77/295/75 74/172/72 67/31/65
f 315/78/313 313/77/311 316/101/314 318/100/316
f 87/156/85 84/127/82 86/59/84
f 92/217/90 63/40/61 90/20/88
f 93/55/91 90/20/88 91/19/89
f 90/20/88 93/55/91 92/217/90
f 86/59/84 101/46/99 87/156/85
f 101/46/99 86/59/84 103/47/101
f 108/116/106 102/154/100 104/117/102
f 296/151/294 295/150/293 294/184/292 292/311/290
f 128/200/126 125/222/123 126/225/124
f 128/200/126 126/225/124 129/312/127
f 128/200/126 129/312/127 130/313/128
f 128/200/126 130/313/128 131/201/129
f 133/202/131 131/201/129 134/314/132
f 135/286/133 133/202/131 134/314/132
f 136/289/134 128/200/126 137/203/135
f 138/233/136 141/232/139 137/203/135
f 139/234/137 140/284/138 142/283/140
f 153/143/151 150/190/148 154/33/152
f 156/64/154 112/115/110 152/65/150
f 161/62/159 162/35/160 160/34/158
f 161/62/159 144/61/142 164/287/162
f 164/287/162 165/68/163 161/62/159
f 162/35/160 161/62/159 165/68/163
f 167/285/165 168/315/166 166/87/164
f 171/11/169 165/68/163 170/86/168
f 169/10/167 172/113/170 163/237/161
f 172/113/170 169/10/167 174/9/172
f 173/88/171 166/87/164 175/279/173
f 166/87/164 168/315/166 175/279/173
f 173/88/171 175/279/173 177/278/175
f 173/88/171 177/278/175 176/114/174
f 178/280/176 175/279/173 168/315/166
f 168/315/166 180/15/178 178/280/176
f 168/315/166 181/226/179 180/15/178
f 184/37/182 179/36/177 176/114/174
f 176/114/174 187/282/185 184/37/182
f 187/282/185 176/114/174 177/278/175
f 184/37/182 189/275/187 188/275/186
f 189/275/187 190/37/188 187/282/185
f 191/281/189 188/275/186 189/275/187
f 192/145/190 191/281/189 178/280/176
f 180/15/178 192/145/190 178/280/176
f 188/275/186 191/281/189 193/277/191
f 191/281/189 192/145/190 193/277/191
f 193/277/191 192/145/190 194/144/192
f 197/80/195 183/12/181 185/38/183
f 196/173/194 200/236/198 199/81/197
f 241/263/239 235/267/233 243/27/241 250/26/248
f 174/9/172 198/79/196 203/111/201
f 204/14/202 201/89/199 194/144/192
f 206/161/204 202/82/200 209/235/207
f 211/42/209 212/274/210 209/235/207
f 210/152/208 208/162/206 212/274/210
f 205/112/203 214/152/212 172/113/170
f 212/274/210 211/42/209 217/41/215
f 163/237/161 172/113/170 218/160/216
f 218/160/216 216/153/214 219/273/217
f 212/274/210 217/41/215 220/269/218
f 221/270/219 215/153/213 220/269/218
f 226/168/224 222/167/220 225/266/223
f 224/272/222 223/166/221 227/168/225
f 229/271/227 231/308/229 228/241/226
f 231/308/229 232/242/230 228/241/226
f 234/265/232 233/309/231 230/268/228
f 234/265/232 236/307/234 233/309/231
f 232/242/230 237/316/235 159/240/157
f 237/316/235 108/116/106 159/240/157
f 108/116/106 237/316/235 102/154/100
f 236/307/234 239/221/237 238/306/236
f 239/221/237 102/154/100 237/316/235
f 239/221/237 236/307/234 240/317/238
f 242/51/240 239/221/237 240/317/238
f 240/317/238 241/263/239 242/51/240
f 247/49/245 246/94/244 244/50/242
f 246/94/244 249/207/247 100/53/98
f 247/49/245 249/207/247 246/94/244
f 251/83/249 100/53/98 249/207/247
f 100/53/98 251/83/249 98/54/96
f 254/6/252 243/27/241 245/44/243
f 255/7/253 254/6/252 245/44/243
f 245/44/243 213/43/211 255/7/253
f 258/264/256 255/7/253 213/43/211
f 260/13/258 258/264/256 213/43/211
f 213/43/211 204/14/202 260/13/258
f 261/8/259 255/7/253 258/264/256
f 207/16/205 182/227/180 263/122/261
f 264/262/262 267/261/265 266/260/264
f 268/318/266 267/261/265 264/262/262
f 267/261/265 268/318/266 270/257/268
f 271/258/269 270/257/268 268/318/266
f 270/257/268 272/186/270 267/261/265
f 274/319/272 273/187/271 271/258/269
f 274/319/272 276/188/274 273/187/271
f 278/244/276 269/69/267 275/185/273
f 276/188/274 278/244/276 275/185/273
f 280/22/278 279/21/277 277/320/275
f 302/259/300 301/164/299 300/163/298
f 301/164/299 302/259/300 305/195/303
f 306/109/304 305/195/303 302/259/300
f 305/195/303 310/196/308 249/207/247
f 310/196/308 251/83/249 249/207/247
f 310/196/308 314/321/312 251/83/249
f 253/84/251 251/83/249 314/321/312
f 317/322/315 310/196/308 309/108/307
f 310/196/308 317/322/315 314/321/312
f 315/78/313 318/100/316 317/322/315
f 320/169/318 314/321/312 317/322/315
f 320/169/318 317/322/315 318/100/316
f 318/100/316 321/103/319 320/169/318
f 314/321/312 320/169/318 322/138/320
f 314/321/312 322/138/320 253/84/251
f 329/323/327 331/324/329 330/325/328
f 331/324/329 329/323/327 332/326/330
f 329/323/327 330/325/328 333/327/331
f 329/323/327 334/328/332 332/326/330
f 329/323/327 333/327/331 335/329/333
f 334/328/332 329/323/327 336/330/334
f 337/331/335 329/323/327 335/329/333
f 329/323/327 338/332/336 336/330/334
f 329/323/327 337/331/335 339/333/337
f 338/332/336 329/323/327 340/334/338
f 329/323/327 339/333/337 341/335/339
f 341/335/339 340/334/338 329/323/327
f 288/177/286 252/25/250 286/238/284 287/239/285
f 22/176/20 14/251/12 18/252/16 325/175/323
f 289/198/287 283/243/281 279/21/277 284/24/282
f 102/154/100 99/95/97 97/141/95 104/117/102
f 163/237/161 158/32/156 162/35/160 169/10/167
f 15/90/13 16/93/14 17/182/15 19/181/17
f 154/33/152 150/190/148 146/63/144 160/34/158
f 276/188/274 274/319/272 277/320/275 279/21/277
f 265/71/263 262/70/260 263/122/261 266/260/264
f 43/209/41 51/165/49 54/245/52 58/219/56
f 183/12/181 197/80/195 198/79/196 174/9/172
f 243/27/241 235/267/233 217/41/215 245/44/243
f 6/247/4 5/336/3 4/250/2 7/248/5
f 80/128/78 75/104/73 78/107/76 85/60/83
f 78/107/76 76/106/74 79/178/77 81/2/79
f 323/170/321 24/98/22 12/97/10 22/176/20
f 70/171/68 83/155/81 88/18/86 89/17/87
f 41/157/39 36/192/34 37/191/35 38/158/36
f 125/222/123 128/200/126 136/289/134 132/291/130
f 291/199/289 285/210/283 292/311/290 294/184/292
f 77/295/75 80/128/78 84/127/82 83/155/81
f 311/75/309 307/110/305 308/256/306 312/76/310
f 57/29/55 54/245/52 52/296/50 55/30/53
f 205/112/203 208/162/206 210/152/208 214/152/212
f 71/146/69 75/104/73 80/128/78 77/295/75
f 94/140/92 91/19/89 88/18/86 87/156/85
f 241/263/239 240/317/238 236/307/234 234/265/232
f 149/189/147 147/132/145 145/290/143 150/190/148
f 101/46/99 97/141/95 94/140/92 87/156/85
f 64/215/62 92/217/90 95/85/93 328/213/326
f 252/25/250 254/6/252 256/5/254 286/238/284
f 219/273/217 216/153/214 215/153/213 221/270/219
f 317/322/315 309/108/307 311/75/309 315/78/313
f 146/63/144 143/288/141 141/232/139 144/61/142
f 85/60/83 78/107/76 81/2/79 106/1/104
f 237/316/235 232/242/230 238/306/236 239/221/237
f 231/308/229 229/271/227 230/268/228 233/309/231
