# Blender 5.1.1
# www.blender.org
mtllib left_arm_1.mtl
g arm_2_izq_Mesh_0456Mesh.001
v 0.001027 0.006947 -0.000718
v -0.007560 0.003056 -0.009937
v -0.007372 0.007191 -0.006626
v 0.000852 0.000309 -0.005768
v 0.009225 0.000103 -0.006718
v 0.009309 0.007351 -0.001349
v -0.000018 -0.002293 -0.011519
v -0.008174 0.001453 -0.013678
v 0.008378 -0.002628 -0.012578
v 0.021989 0.001553 -0.010649
v 0.022244 0.007847 -0.005372
v 0.031777 0.007572 -0.007729
v -0.002196 -0.003277 -0.021390
v -0.009601 0.000813 -0.019815
v -0.011264 0.002117 -0.025490
v 0.030721 0.002590 -0.013487
v 0.041345 0.007000 -0.009811
v -0.004882 -0.000980 -0.030435
v -0.012626 0.004826 -0.029118
v 0.006230 -0.003551 -0.023416
v 0.021149 -0.000760 -0.015953
v -0.007045 0.003338 -0.035651
v -0.013545 0.008518 -0.030253
v 0.003396 -0.000721 -0.033301
v -0.008544 0.009136 -0.037104
v 0.001019 0.003887 -0.037987
v -0.008662 0.014355 -0.033674
v -0.013564 0.011707 -0.028024
v -0.000857 0.010174 -0.038903
v -0.007365 0.018238 -0.026303
v -0.012740 0.014263 -0.023204
v -0.010951 0.015224 -0.016748
v -0.001224 0.016308 -0.034995
v 0.012803 0.011654 -0.038329
v -0.004600 0.019703 -0.016289
v -0.008845 0.013706 -0.010250
v 0.000123 0.020016 -0.027195
v 0.012021 0.017551 -0.034126
v -0.001277 0.017010 -0.006060
v -0.007682 0.010059 -0.006858
v 0.002992 0.021206 -0.016845
v 0.013078 0.020817 -0.026676
v 0.000588 0.011478 -0.000990
v 0.006783 0.017643 -0.006008
v 0.015820 0.021206 -0.017093
v 0.001069 0.009090 -0.001756
v -0.007372 0.007191 -0.006626
v 0.001027 0.006947 -0.000718
v 0.009309 0.007351 -0.001349
v 0.008717 0.011822 -0.001423
v 0.021623 0.011715 -0.004789
v 0.022244 0.007847 -0.005372
v 0.019673 0.017017 -0.007700
v 0.031583 0.011410 -0.006438
v 0.031777 0.007572 -0.007729
v 0.030171 0.016987 -0.008434
v 0.026948 0.021397 -0.017171
v 0.041509 0.010578 -0.007736
v 0.041345 0.007000 -0.009811
v 0.056551 0.006269 -0.011312
v 0.040521 0.016239 -0.008413
v 0.037911 0.020657 -0.016079
v 0.057073 0.008805 -0.008053
v 0.085429 0.004671 -0.010620
v 0.057057 0.013515 -0.006371
v 0.055417 0.018482 -0.012049
v 0.085805 0.005918 -0.006623
v 0.104532 0.004110 -0.009514
v 0.074494 0.011021 -0.004621
v 0.073922 0.015743 -0.008222
v 0.127654 0.003750 -0.005548
v 0.143415 0.002432 -0.009837
v 0.086560 0.009541 -0.003273
v 0.165792 0.000654 -0.007504
v 0.165650 0.000423 -0.011393
v 0.105530 0.007915 -0.001684
v 0.086923 0.013988 -0.005835
v 0.128392 0.006173 -0.001630
v 0.180482 -0.001354 -0.008054
v 0.180348 -0.001591 -0.012451
v 0.166707 0.002827 -0.002910
v 0.194360 -0.005100 -0.013261
v 0.106011 0.012198 -0.003091
v 0.145448 0.008886 -0.001350
v 0.181550 0.001171 -0.002792
v 0.194688 -0.004719 -0.007343
v 0.168157 0.006794 -0.001411
v 0.208562 -0.006535 -0.008133
v 0.208268 -0.006962 -0.014367
v 0.196366 -0.001125 -0.000314
v 0.183267 0.005245 -0.001008
v 0.218629 -0.004658 -0.011909
v 0.218442 -0.004917 -0.015735
v 0.224740 -0.000027 -0.015804
v 0.210305 -0.002689 -0.000807
v 0.219758 -0.002308 -0.007416
v 0.198365 0.003658 0.001621
v 0.212274 0.001957 0.000858
v 0.169168 0.009967 -0.002821
v 0.184575 0.008617 -0.002316
v 0.199922 0.007771 0.000084
v 0.129519 0.013224 -0.004460
v 0.184950 0.010288 -0.006360
v 0.105978 0.015127 -0.007061
v 0.145699 0.012770 -0.007983
v 0.086671 0.016788 -0.010603
v 0.085174 0.017741 -0.017905
v 0.072743 0.018238 -0.014232
v 0.053193 0.020000 -0.020279
v 0.070878 0.018200 -0.021628
v 0.035108 0.020916 -0.025095
v 0.050862 0.018520 -0.027448
v 0.024125 0.021290 -0.026537
v 0.032411 0.018330 -0.032145
v 0.022237 0.018223 -0.033733
v 0.070477 0.014858 -0.027868
v 0.050076 0.014095 -0.032732
v 0.031457 0.012997 -0.036609
v 0.022134 0.012432 -0.038019
v 0.033475 0.007206 -0.038111
v 0.014962 0.005764 -0.038575
v 0.024201 0.006474 -0.038955
v 0.017362 0.001316 -0.035258
v 0.026692 0.002041 -0.036310
v 0.019624 -0.001499 -0.026279
v 0.052159 0.009098 -0.034834
v 0.036080 0.002941 -0.036037
v 0.028451 -0.000042 -0.028312
v 0.038117 0.002817 -0.021128
v 0.037312 0.001774 -0.029389
v 0.054433 0.005177 -0.033450
v 0.039517 0.003696 -0.015953
v 0.054635 0.004101 -0.028578
v 0.054311 0.004490 -0.022357
v 0.055086 0.004619 -0.017621
v 0.056551 0.006269 -0.011312
v 0.072633 0.011105 -0.029934
v 0.072602 0.004950 -0.021571
v 0.085162 0.003984 -0.016655
v 0.085429 0.004671 -0.010620
v 0.104532 0.004110 -0.009514
v 0.073872 0.005787 -0.025936
v 0.127469 0.003235 -0.015208
v 0.143415 0.002432 -0.009837
v 0.085702 0.004688 -0.020537
v 0.074521 0.007618 -0.029149
v 0.087644 0.006329 -0.023948
v 0.104962 0.004581 -0.019277
v 0.087106 0.011959 -0.026468
v 0.088796 0.008846 -0.026180
v 0.106706 0.006603 -0.022055
v 0.104720 0.013946 -0.020557
v 0.106431 0.011806 -0.022828
v 0.128571 0.012463 -0.016157
v 0.107736 0.009327 -0.023396
v 0.129750 0.011120 -0.019198
v 0.145333 0.011501 -0.013799
v 0.168881 0.010479 -0.012171
v 0.146130 0.010563 -0.017630
v 0.130570 0.009258 -0.020792
v 0.129575 0.006565 -0.020437
v 0.128034 0.004284 -0.018308
v 0.145547 0.006306 -0.020211
v 0.143552 0.002651 -0.015567
v 0.165650 0.000423 -0.011393
v 0.144135 0.003834 -0.018440
v 0.165902 0.001095 -0.017329
v 0.180348 -0.001591 -0.012451
v 0.166524 0.002598 -0.020085
v 0.180631 -0.000607 -0.019096
v 0.194360 -0.005100 -0.013261
v 0.146569 0.008968 -0.019994
v 0.194756 -0.003620 -0.022255
v 0.208268 -0.006962 -0.014367
v 0.181287 0.001247 -0.022086
v 0.167802 0.005466 -0.021384
v 0.208756 -0.005360 -0.023708
v 0.218442 -0.004917 -0.015735
v 0.195714 -0.000973 -0.026291
v 0.182511 0.004513 -0.023258
v 0.168904 0.008289 -0.020516
v 0.169087 0.009899 -0.017147
v 0.183694 0.007664 -0.022075
v 0.184373 0.009647 -0.018020
v 0.197350 0.003353 -0.027799
v 0.200601 0.011494 -0.012813
v 0.209844 -0.002567 -0.027888
v 0.200135 0.010616 -0.020790
v 0.198975 0.007580 -0.026269
v 0.211636 0.001804 -0.029391
v 0.219476 -0.002232 -0.024033
v 0.218766 -0.003933 -0.021467
v 0.213456 0.006100 -0.027850
v 0.220643 0.000431 -0.024951
v 0.221825 0.003063 -0.024013
v 0.214925 0.009357 -0.022340
v 0.215500 0.010373 -0.014290
v 0.222820 0.005185 -0.020639
v 0.223056 0.005291 -0.010822
v 0.215302 0.009541 -0.006348
v 0.222112 0.002987 -0.007396
v 0.200768 0.010891 -0.005208
v 0.221040 0.000523 -0.006402
v 0.213921 0.005978 -0.000769
v -0.012740 0.014263 -0.023204
v -0.010951 0.015224 -0.016748
v -0.013309 0.007298 -0.015915
v -0.013564 0.011707 -0.028024
v -0.008845 0.013706 -0.010250
v -0.013545 0.008518 -0.030253
v -0.007682 0.010059 -0.006858
v -0.012626 0.004826 -0.029118
v -0.007372 0.007191 -0.006626
v -0.011264 0.002117 -0.025490
v -0.007560 0.003056 -0.009937
v -0.009601 0.000813 -0.019815
v -0.008174 0.001453 -0.013678
v -0.007098 -0.014881 -0.028077
v -0.007430 -0.012531 -0.031625
v -0.007411 -0.009327 -0.032918
v -0.001304 -0.011692 -0.003795
v -0.001857 -0.015858 -0.007073
v -0.004462 -0.011318 -0.009561
v -0.004909 -0.014050 -0.011750
v 0.002934 -0.011860 -0.000318
v -0.002765 -0.018681 -0.014030
v -0.005622 -0.015903 -0.016395
v 0.002168 -0.016903 -0.004243
v -0.003913 -0.019489 -0.022777
v -0.006419 -0.016453 -0.022227
v -0.007098 -0.014881 -0.028077
v 0.011895 -0.016661 -0.005868
v 0.012541 -0.011621 -0.002125
v 0.000932 -0.020389 -0.012604
v -0.000503 -0.021397 -0.023236
v -0.004993 -0.017086 -0.031545
v -0.007430 -0.012531 -0.031625
v 0.027472 -0.015270 -0.010540
v 0.027970 -0.010799 -0.007361
v -0.005588 -0.013584 -0.036772
v -0.007411 -0.009327 -0.032918
v -0.001739 -0.018528 -0.033909
v 0.041469 -0.013891 -0.014799
v 0.048965 -0.009642 -0.014250
v 0.017170 -0.019618 -0.015235
v 0.026612 -0.018383 -0.017513
v 0.057241 -0.012920 -0.019229
v 0.057527 -0.009524 -0.016731
v 0.040801 -0.016655 -0.020857
v 0.025580 -0.019428 -0.026526
v 0.009514 -0.021295 -0.024421
v 0.077157 -0.013295 -0.024890
v 0.077148 -0.010275 -0.021739
v 0.100117 -0.010952 -0.024942
v 0.008328 -0.018539 -0.035006
v 0.056738 -0.015326 -0.024551
v 0.100117 -0.013663 -0.028865
v 0.116731 -0.011677 -0.027267
v 0.076891 -0.014857 -0.036220
v 0.056181 -0.015985 -0.031110
v 0.116746 -0.013886 -0.031763
v 0.131734 -0.011745 -0.029109
v 0.039306 -0.015675 -0.036446
v 0.131768 -0.013752 -0.033863
v 0.143700 -0.011852 -0.029995
v 0.116673 -0.014219 -0.037773
v 0.099851 -0.013795 -0.040253
v 0.055688 -0.014325 -0.037690
v 0.076688 -0.012440 -0.041401
v 0.116567 -0.013040 -0.043032
v 0.099656 -0.010973 -0.044627
v 0.131715 -0.013760 -0.039898
v 0.143788 -0.013798 -0.034890
v 0.154855 -0.013812 -0.034275
v 0.164586 -0.011126 -0.028057
v 0.143792 -0.013694 -0.040984
v 0.131627 -0.012371 -0.044931
v 0.174844 -0.013390 -0.032172
v 0.188367 -0.009789 -0.026126
v 0.164689 -0.014084 -0.039688
v 0.143731 -0.012224 -0.045958
v 0.205544 -0.012678 -0.029444
v 0.205399 -0.008968 -0.024145
v 0.205659 -0.014097 -0.037284
v 0.215176 -0.013050 -0.028159
v 0.215089 -0.008717 -0.022374
v 0.222596 -0.006748 -0.028670
v 0.215363 -0.014637 -0.036558
v 0.222665 -0.009129 -0.031890
v 0.227441 -0.003933 -0.036759
v 0.222752 -0.010113 -0.036741
v 0.222798 -0.009769 -0.041373
v 0.215405 -0.014072 -0.044648
v 0.174909 -0.013027 -0.045073
v 0.205739 -0.013400 -0.044660
v 0.222783 -0.007656 -0.045145
v 0.205731 -0.009907 -0.050554
v 0.188584 -0.009731 -0.049857
v 0.215482 -0.010235 -0.051252
v 0.164594 -0.009580 -0.049498
v 0.215333 -0.005413 -0.053478
v 0.205637 -0.005497 -0.052314
v 0.174734 -0.005917 -0.050375
v 0.222730 -0.004925 -0.046383
v 0.222642 -0.001850 -0.045524
v 0.205484 -0.000651 -0.050701
v 0.215218 -0.000050 -0.051870
v 0.214932 0.004253 -0.046206
v 0.222543 0.000523 -0.042345
v 0.222463 0.001514 -0.037499
v 0.214833 0.005886 -0.037779
v 0.205296 0.003117 -0.045499
v 0.222409 0.001209 -0.032633
v 0.222450 -0.000942 -0.029048
v 0.222596 -0.006748 -0.028670
v 0.214707 0.005398 -0.029279
v 0.214895 -0.003628 -0.020887
v 0.215089 -0.008717 -0.022374
v 0.214833 0.001476 -0.022977
v 0.205266 -0.004292 -0.022682
v 0.205399 -0.008968 -0.024145
v 0.205159 0.000310 -0.024358
v 0.188241 -0.005657 -0.024455
v 0.188367 -0.009789 -0.026126
v 0.205102 0.003902 -0.029887
v 0.174622 -0.006768 -0.025259
v 0.164586 -0.011126 -0.028057
v 0.205157 0.004544 -0.037661
v 0.154660 -0.008310 -0.026856
v 0.143700 -0.011852 -0.029995
v 0.174496 -0.002801 -0.026005
v 0.188031 0.001896 -0.030284
v 0.143571 -0.008793 -0.027443
v 0.131734 -0.011745 -0.029109
v 0.154521 -0.004628 -0.026807
v 0.131635 -0.008686 -0.026821
v 0.116731 -0.011677 -0.027267
v 0.143426 -0.005299 -0.027159
v 0.116639 -0.008526 -0.025450
v 0.100117 -0.010952 -0.024942
v 0.131501 -0.005253 -0.026753
v 0.143301 -0.002148 -0.030115
v 0.164192 -0.000428 -0.030084
v 0.174367 0.001548 -0.036601
v 0.143243 -0.000613 -0.035355
v 0.188161 0.001740 -0.044321
v 0.164194 0.000371 -0.042763
v 0.164325 -0.002208 -0.047675
v 0.143235 -0.000497 -0.041443
v 0.154576 -0.005703 -0.049577
v 0.143315 -0.002436 -0.046328
v 0.143597 -0.008989 -0.049138
v 0.143453 -0.005627 -0.049007
v 0.131482 -0.009243 -0.048267
v 0.131349 -0.005939 -0.048317
v 0.131238 -0.002750 -0.045848
v 0.116406 -0.010044 -0.046747
v 0.116277 -0.006779 -0.047190
v 0.099511 -0.007847 -0.045799
v 0.116177 -0.003506 -0.045149
v 0.099416 -0.004466 -0.044588
v 0.131196 -0.000774 -0.041123
v 0.116151 -0.001361 -0.040690
v 0.131242 -0.000782 -0.035120
v 0.055419 -0.011510 -0.041630
v 0.131349 -0.002178 -0.029836
v 0.116219 -0.001056 -0.034758
v 0.116506 -0.005138 -0.025848
v 0.116342 -0.002209 -0.029289
v 0.099423 -0.001987 -0.040678
v 0.100022 -0.007702 -0.024015
v 0.076459 -0.006046 -0.043392
v 0.085695 -0.007259 -0.022792
v 0.077148 -0.010275 -0.021739
v 0.099877 -0.004454 -0.025296
v 0.068895 -0.006428 -0.020518
v 0.057527 -0.009524 -0.016731
v 0.076839 -0.003892 -0.024286
v 0.099682 -0.001842 -0.029379
v 0.057458 -0.005795 -0.018140
v 0.048965 -0.009642 -0.014250
v 0.057160 -0.002775 -0.022062
v 0.056658 -0.000986 -0.028450
v 0.076512 -0.001869 -0.034974
v 0.048554 -0.002460 -0.020333
v 0.041779 -0.005703 -0.013865
v 0.055626 -0.004275 -0.040510
v 0.027924 -0.005947 -0.009503
v 0.027970 -0.010799 -0.007361
v 0.027497 -0.002094 -0.014951
v 0.012541 -0.006140 -0.004562
v 0.012541 -0.011621 -0.002125
v 0.018254 -0.001858 -0.012334
v 0.002938 -0.006336 -0.002786
v 0.002934 -0.011860 -0.000318
v 0.002397 -0.001888 -0.009111
v -0.001235 -0.007107 -0.005833
v -0.001304 -0.011692 -0.003795
v -0.004462 -0.011318 -0.009561
v -0.004462 -0.008266 -0.010914
v -0.001575 -0.003414 -0.011080
v -0.004775 -0.005802 -0.014410
v 0.011042 0.001296 -0.020937
v 0.001260 0.001202 -0.019420
v -0.002460 -0.000881 -0.019598
v -0.005416 -0.004093 -0.020055
v -0.006248 -0.004818 -0.026092
v -0.003730 -0.002018 -0.028678
v -0.006965 -0.006649 -0.030714
v -0.000236 -0.000156 -0.030403
v -0.004901 -0.004787 -0.035462
v 0.026666 0.000509 -0.023776
v -0.005637 -0.008801 -0.038672
v 0.040757 -0.000095 -0.026178
v 0.016034 -0.000309 -0.032364
v 0.025601 -0.000773 -0.033118
v 0.056088 -0.001824 -0.035233
v 0.039250 -0.004055 -0.040272
v 0.024651 -0.003886 -0.040125
v 0.008428 -0.003490 -0.039857
v -0.001529 -0.003521 -0.038720
v 0.024075 -0.008297 -0.043331
v 0.007657 -0.008434 -0.043671
v -0.002338 -0.008419 -0.042664
v 0.055371 -0.007624 -0.042989
v -0.002353 -0.014263 -0.040325
v 0.007696 -0.014279 -0.041331
v 0.024129 -0.013438 -0.041254
v 0.046430 -0.012062 -0.041301
v -0.009906 -0.010250 -0.019975
v -0.006248 -0.004818 -0.026092
v -0.005416 -0.004093 -0.020055
v -0.004775 -0.005802 -0.014410
v -0.006965 -0.006649 -0.030714
v -0.004462 -0.008266 -0.010914
v -0.007411 -0.009327 -0.032918
v -0.004462 -0.011318 -0.009561
v -0.007098 -0.014881 -0.028077
v -0.004909 -0.014050 -0.011750
v -0.006419 -0.016453 -0.022227
v -0.005622 -0.015903 -0.016395
vn -0.1812 -0.5910 0.7860
vn -0.4914 -0.6799 0.5443
vn -0.5057 -0.5182 0.6897
vn -0.2127 -0.7431 0.6345
vn 0.1586 -0.7770 0.6091
vn 0.1768 -0.6016 0.7790
vn -0.3012 -0.8793 0.3689
vn -0.4582 -0.8415 0.2861
vn 0.1375 -0.9478 0.2876
vn 0.2428 -0.7952 0.5556
vn 0.2537 -0.6435 0.7222
vn 0.1928 -0.7628 0.6172
vn -0.3369 -0.9404 -0.0454
vn -0.4718 -0.8799 0.0553
vn -0.5463 -0.8147 -0.1944
vn 0.2134 -0.8939 0.3941
vn 0.0975 -0.8893 0.4469
vn -0.3361 -0.8765 -0.3447
vn -0.6888 -0.5617 -0.4584
vn 0.0612 -0.9837 -0.1690
vn 0.2129 -0.9560 0.2020
vn -0.4549 -0.5572 -0.6947
vn -0.8131 0.0233 -0.5816
vn -0.0296 -0.8601 -0.5093
vn -0.5509 0.0695 -0.8317
vn -0.0934 -0.4533 -0.8865
vn -0.5314 0.6360 -0.5596
vn -0.7336 0.5638 -0.3794
vn -0.1410 0.2004 -0.9695
vn -0.4518 0.8720 -0.1881
vn -0.6294 0.7704 -0.1020
vn -0.5719 0.8005 0.1793
vn -0.1633 0.7459 -0.6458
vn -0.0077 0.3073 -0.9516
vn -0.3747 0.9111 0.1718
vn -0.5677 0.6537 0.5003
vn -0.1483 0.9580 -0.2453
vn -0.0306 0.7749 -0.6313
vn -0.3229 0.7466 0.5817
vn -0.5734 0.1920 0.7965
vn -0.0822 0.9883 0.1282
vn -0.0376 0.9735 -0.2257
vn -0.2634 0.1970 0.9444
vn 0.0225 0.8132 0.5815
vn 0.0016 0.9853 0.1708
vn -0.2713 0.0351 0.9618
vn -0.5215 -0.0916 0.8483
vn -0.2664 0.2781 0.9229
vn 0.1403 0.0691 0.9877
vn 0.1131 0.3422 0.9328
vn 0.1981 0.2158 0.9561
vn 0.2292 -0.1279 0.9649
vn 0.0902 0.7618 0.6414
vn 0.1348 0.0192 0.9907
vn 0.1565 -0.3230 0.9333
vn 0.0657 0.6810 0.7293
vn 0.0202 0.9772 0.2114
vn 0.0302 -0.2565 0.9661
vn 0.0561 -0.5470 0.8352
vn -0.0465 -0.7766 0.6283
vn 0.0350 0.5970 0.8015
vn 0.0521 0.9769 0.2073
vn -0.0811 -0.5488 0.8320
vn -0.0673 -0.9170 0.3932
vn -0.0465 0.3406 0.9391
vn 0.0431 0.9156 0.3998
vn -0.1000 -0.8124 0.5744
vn -0.0548 -0.9692 0.2399
vn -0.0825 0.0201 0.9964
vn 0.0058 0.7945 0.6073
vn -0.0532 -0.9388 0.3403
vn -0.0775 -0.9967 0.0251
vn -0.1216 -0.1116 0.9863
vn -0.0949 -0.9588 0.2679
vn -0.1095 -0.9921 0.0611
vn -0.0542 -0.2833 0.9575
vn -0.0298 0.6890 0.7242
vn -0.0510 -0.4465 0.8933
vn -0.1753 -0.9485 0.2639
vn -0.1857 -0.9805 0.0646
vn -0.0633 -0.6575 0.7508
vn -0.1804 -0.9811 0.0706
vn -0.0166 0.6043 0.7966
vn 0.0160 0.2382 0.9711
vn -0.1519 -0.6536 0.7415
vn -0.1720 -0.9434 0.2836
vn -0.0097 0.0209 0.9997
vn 0.0689 -0.9606 0.2693
vn 0.0454 -0.9968 0.0653
vn -0.1383 -0.6325 0.7622
vn -0.1007 0.0314 0.9944
vn 0.4806 -0.8514 0.2100
vn 0.4193 -0.9069 0.0413
vn 0.9529 -0.3027 -0.0194
vn 0.1813 -0.6773 0.7130
vn 0.5966 -0.6573 0.4604
vn -0.0576 0.0169 0.9982
vn 0.3257 -0.1058 0.9395
vn 0.0395 0.7421 0.6691
vn -0.0286 0.6999 0.7136
vn 0.0229 0.6436 0.7650
vn 0.0423 0.8634 0.5028
vn -0.0084 0.9834 0.1813
vn 0.0268 0.9323 0.3607
vn 0.0739 0.9973 -0.0016
vn 0.0322 0.9421 0.3338
vn 0.0871 0.9871 -0.1341
vn 0.0385 0.9738 0.2240
vn 0.0796 0.9965 -0.0248
vn 0.1026 0.9703 -0.2193
vn 0.0817 0.9667 -0.2424
vn 0.1132 0.9039 -0.4125
vn 0.0130 0.9775 -0.2107
vn 0.1023 0.7871 -0.6083
vn 0.0254 0.7850 -0.6189
vn 0.1549 0.7372 -0.6576
vn 0.1456 0.6200 -0.7710
vn 0.1174 0.4599 -0.8802
vn 0.0382 0.3866 -0.9215
vn 0.1336 -0.0421 -0.9901
vn 0.0008 -0.3070 -0.9517
vn 0.0404 -0.1797 -0.9829
vn 0.0388 -0.8135 -0.5803
vn 0.0773 -0.7751 -0.6271
vn 0.1375 -0.9844 -0.1097
vn 0.1922 0.1033 -0.9759
vn 0.1622 -0.7333 -0.6602
vn 0.1489 -0.9857 -0.0788
vn 0.1554 -0.9826 0.1013
vn 0.1544 -0.9854 -0.0714
vn 0.2130 -0.6671 -0.7138
vn 0.1160 -0.9538 0.2772
vn 0.1228 -0.9845 -0.1253
vn 0.0758 -0.9962 0.0437
vn 0.0294 -0.9870 0.1580
vn -0.0044 -0.9634 0.2679
vn 0.2096 0.2222 -0.9522
vn 0.0106 -0.9927 -0.1200
vn -0.0200 -0.9997 -0.0168
vn -0.0390 -0.9877 0.1512
vn -0.0234 -0.9973 0.0693
vn 0.0826 -0.9613 -0.2630
vn -0.0273 -0.9771 -0.2109
vn -0.0610 -0.9966 -0.0561
vn 0.0297 -0.9556 -0.2931
vn 0.2093 -0.5655 -0.7977
vn 0.0989 -0.8291 -0.5504
vn 0.0207 -0.9040 -0.4270
vn 0.1979 0.3634 -0.9104
vn 0.1757 -0.3554 -0.9181
vn 0.0705 -0.7035 -0.7072
vn 0.1275 0.8636 -0.4879
vn 0.1469 0.5881 -0.7953
vn 0.1144 0.9281 -0.3542
vn 0.1310 -0.0907 -0.9872
vn 0.1036 0.7946 -0.5983
vn 0.0678 0.9719 -0.2255
vn 0.0492 0.9893 -0.1371
vn 0.0548 0.9137 -0.4028
vn 0.0818 0.2216 -0.9717
vn 0.0384 -0.4608 -0.8867
vn 0.0042 -0.7995 -0.6007
vn -0.0157 -0.1786 -0.9838
vn -0.0615 -0.9717 -0.2280
vn -0.1095 -0.9884 -0.1051
vn -0.0493 -0.7199 -0.6923
vn -0.1173 -0.9473 -0.2982
vn -0.1884 -0.9709 -0.1477
vn -0.1218 -0.6697 -0.7326
vn -0.2085 -0.9132 -0.3501
vn -0.1958 -0.9665 -0.1660
vn 0.0253 0.5378 -0.8427
vn -0.2156 -0.8990 -0.3811
vn -0.0003 -0.9860 -0.1669
vn -0.2357 -0.5744 -0.7839
vn -0.0929 -0.0548 -0.9942
vn 0.0167 -0.9260 -0.3772
vn 0.3770 -0.9161 -0.1362
vn -0.2367 -0.5434 -0.8054
vn -0.2097 0.0689 -0.9753
vn -0.0305 0.6475 -0.7614
vn 0.0218 0.9567 -0.2902
vn -0.1285 0.6924 -0.7100
vn -0.0522 0.9653 -0.2558
vn -0.1932 0.0761 -0.9782
vn 0.0047 0.9999 -0.0121
vn 0.0596 -0.6124 -0.7883
vn -0.0275 0.9554 -0.2939
vn -0.1000 0.6678 -0.7376
vn 0.1529 -0.0477 -0.9871
vn 0.5479 -0.6072 -0.5754
vn 0.4655 -0.8238 -0.3235
vn 0.2491 0.5492 -0.7977
vn 0.7448 -0.2879 -0.6020
vn 0.7664 0.1502 -0.6245
vn 0.2971 0.8915 -0.3421
vn 0.3147 0.9491 -0.0152
vn 0.7899 0.5416 -0.2876
vn 0.8241 0.5229 0.2177
vn 0.3747 0.8561 0.3559
vn 0.8419 0.0731 0.5347
vn 0.0385 0.9508 0.3074
vn 0.8149 -0.3148 0.4866
vn 0.4078 0.4816 0.7757
vn -0.9693 0.2109 0.1260
vn -0.9107 0.3006 0.2833
vn -0.9468 -0.1520 0.2839
vn -0.9985 0.0408 0.0359
vn -0.8724 0.2232 0.4348
vn -0.9904 -0.1381 0.0046
vn -0.8548 0.0466 0.5168
vn -0.9526 -0.3040 0.0077
vn -0.8298 -0.1799 0.5283
vn -0.8876 -0.4571 0.0578
vn -0.7832 -0.4337 0.4455
vn -0.8093 -0.5632 0.1671
vn -0.7701 -0.5591 0.3070
vn -0.9896 0.0589 0.1316
vn -0.6855 -0.3858 0.6175
vn -0.6943 -0.5329 0.4837
vn -0.8556 -0.2397 0.4588
vn -0.8221 -0.4300 0.3733
vn -0.1590 -0.5870 0.7938
vn -0.6332 -0.7289 0.2603
vn -0.7663 -0.6024 0.2233
vn -0.2208 -0.7429 0.6319
vn -0.6300 -0.7765 0.0110
vn -0.7689 -0.6380 0.0416
vn -0.8118 -0.5694 -0.1291
vn 0.1782 -0.7849 0.5935
vn 0.2182 -0.6005 0.7692
vn -0.2100 -0.9370 0.2791
vn -0.2410 -0.9696 -0.0436
vn -0.6954 -0.6814 -0.2281
vn -0.9049 -0.3399 -0.2560
vn 0.2532 -0.7655 0.5916
vn 0.2858 -0.5830 0.7606
vn -0.8048 -0.4170 -0.4223
vn -0.9504 0.1240 -0.2853
vn -0.3085 -0.8740 -0.3754
vn 0.2394 -0.7675 0.5947
vn 0.2579 -0.5667 0.7825
vn 0.1403 -0.9600 0.2423
vn 0.1741 -0.9556 0.2378
vn 0.1774 -0.7827 0.5965
vn 0.2079 -0.6203 0.7563
vn 0.1502 -0.9705 0.1885
vn 0.1081 -0.9907 -0.0832
vn 0.0522 -0.9957 -0.0770
vn 0.0986 -0.9054 0.4129
vn 0.1357 -0.7115 0.6895
vn 0.0688 -0.8169 0.5727
vn 0.0098 -0.9109 -0.4124
vn 0.1152 -0.9628 0.2446
vn 0.0380 -0.9471 0.3187
vn 0.0555 -0.8844 0.4634
vn 0.0194 -0.9796 -0.2002
vn 0.0657 -0.9934 -0.0941
vn 0.0284 -0.9691 0.2450
vn 0.0414 -0.9165 0.3979
vn 0.0695 -0.9001 -0.4302
vn 0.0263 -0.9785 0.2044
vn 0.0038 -0.9252 0.3794
vn 0.0039 -0.9959 -0.0905
vn -0.0159 -0.9644 -0.2639
vn 0.0156 -0.9051 -0.4249
vn -0.0217 -0.7707 -0.6369
vn -0.0184 -0.8997 -0.4362
vn -0.0716 -0.6087 -0.7901
vn 0.0029 -0.9918 -0.1276
vn 0.0004 -0.9844 0.1758
vn -0.0112 -0.9767 0.2145
vn -0.0032 -0.9487 0.3160
vn -0.0057 -0.9885 -0.1512
vn -0.0241 -0.8745 -0.4844
vn -0.0019 -0.9526 0.3044
vn -0.0256 -0.8313 0.5552
vn -0.0104 -0.9997 -0.0222
vn -0.0235 -0.8606 -0.5088
vn -0.0472 -0.9211 0.3863
vn -0.0649 -0.8129 0.5787
vn -0.0321 -0.9987 0.0404
vn 0.2437 -0.8803 0.4070
vn 0.2230 -0.7843 0.5789
vn 0.6778 -0.5837 0.4471
vn 0.2379 -0.9695 0.0593
vn 0.6888 -0.6607 0.2985
vn 0.9988 0.0437 0.0233
vn 0.6637 -0.7460 0.0540
vn 0.7341 -0.6316 -0.2494
vn 0.2556 -0.9207 -0.2949
vn -0.0036 -0.9189 -0.3944
vn -0.0401 -0.9501 -0.3094
vn 0.7842 -0.3979 -0.4760
vn -0.0598 -0.6560 -0.7524
vn -0.0302 -0.6034 -0.7969
vn 0.2963 -0.6223 -0.7245
vn -0.0227 -0.4969 -0.8675
vn 0.2920 -0.0494 -0.9551
vn -0.0869 -0.0404 -0.9954
vn -0.0511 0.1229 -0.9911
vn 0.8903 -0.0140 -0.4551
vn 0.7889 0.3337 -0.5160
vn -0.1096 0.5860 -0.8029
vn 0.2630 0.5462 -0.7953
vn 0.2079 0.8911 -0.4033
vn 0.6650 0.6886 -0.2892
vn 0.6209 0.7825 -0.0468
vn 0.1853 0.9809 -0.0594
vn -0.1177 0.9102 -0.3972
vn 0.6939 0.6674 0.2703
vn 0.7422 0.3936 0.5425
vn 0.7711 0.1485 0.6191
vn 0.1920 0.9300 0.3135
vn 0.2607 0.0377 0.9647
vn 0.2727 -0.2646 0.9250
vn 0.2490 0.5869 0.7704
vn -0.1472 0.0188 0.9889
vn -0.1199 -0.3143 0.9417
vn -0.1540 0.6178 0.7711
vn -0.0723 -0.0294 0.9969
vn -0.0652 -0.2577 0.9640
vn -0.1409 0.9393 0.3127
vn -0.0531 -0.2282 0.9722
vn -0.0370 -0.4920 0.8698
vn -0.1224 0.9912 -0.0506
vn -0.0540 -0.2860 0.9567
vn 0.0105 -0.6215 0.7833
vn -0.0773 0.4378 0.8957
vn -0.1043 0.9292 0.3546
vn 0.0090 -0.3651 0.9309
vn 0.0634 -0.5859 0.8079
vn -0.0635 0.3855 0.9205
vn 0.0654 -0.3072 0.9494
vn 0.0856 -0.4765 0.8750
vn -0.0108 0.3443 0.9388
vn 0.0835 -0.1720 0.9816
vn 0.0847 -0.3204 0.9435
vn 0.0476 0.3911 0.9191
vn -0.0318 0.8548 0.5180
vn -0.0795 0.8886 0.4517
vn -0.0798 0.9963 0.0320
vn -0.0363 0.9896 0.1393
vn -0.0860 0.9365 -0.3398
vn -0.0674 0.9635 -0.2590
vn -0.0540 0.7381 -0.6725
vn -0.0368 0.9804 -0.1937
vn -0.0404 0.2813 -0.9588
vn -0.0465 0.7961 -0.6033
vn -0.0500 -0.3701 -0.9276
vn -0.0539 0.3502 -0.9351
vn -0.0620 -0.4124 -0.9089
vn -0.0744 0.3013 -0.9506
vn -0.0582 0.7852 -0.6166
vn -0.0674 -0.5067 -0.8595
vn -0.0873 0.1830 -0.9792
vn -0.0905 0.0334 -0.9953
vn -0.0689 0.7299 -0.6801
vn -0.0754 0.6553 -0.7516
vn -0.0354 0.9783 -0.2042
vn -0.0464 0.9698 -0.2396
vn -0.0133 0.9924 0.1220
vn -0.0008 -0.6085 -0.7936
vn 0.0131 0.8724 0.4887
vn -0.0178 0.9961 0.0867
vn 0.0575 0.4914 0.8690
vn 0.0223 0.8972 0.4411
vn -0.0471 0.9569 -0.2865
vn 0.0837 -0.0093 0.9964
vn -0.0724 0.4058 -0.9111
vn 0.1031 0.2448 0.9641
vn 0.1489 0.0032 0.9888
vn 0.0609 0.6062 0.7929
vn 0.1866 0.4787 0.8579
vn 0.2378 0.3372 0.9109
vn 0.0784 0.7862 0.6130
vn 0.0121 0.9570 0.2900
vn 0.2024 0.5974 0.7759
vn 0.2264 0.5621 0.7955
vn 0.1211 0.8898 0.4400
vn 0.0566 0.9926 0.1074
vn -0.0135 0.9880 -0.1542
vn 0.1352 0.8914 0.4327
vn 0.2085 0.6831 0.6999
vn -0.0159 0.7809 -0.6244
vn 0.2295 0.6230 0.7478
vn 0.2728 0.3908 0.8791
vn 0.1367 0.8893 0.4364
vn 0.1791 0.6301 0.7556
vn 0.2132 0.3973 0.8926
vn 0.1217 0.8958 0.4276
vn -0.2174 0.5954 0.7734
vn -0.2067 0.4000 0.8929
vn -0.2136 0.8632 0.4574
vn -0.6911 0.4545 0.5619
vn -0.7026 0.2941 0.6479
vn -0.8472 0.2219 0.4827
vn -0.8155 0.3832 0.4337
vn -0.6317 0.6753 0.3805
vn -0.7552 0.5744 0.3160
vn 0.0335 0.9963 0.0796
vn -0.2327 0.9654 0.1176
vn -0.6108 0.7797 0.1375
vn -0.7405 0.6584 0.1350
vn -0.7605 0.6484 -0.0339
vn -0.6449 0.7577 -0.0997
vn -0.8404 0.5165 -0.1640
vn -0.2768 0.9376 -0.2104
vn -0.7425 0.6006 -0.2965
vn 0.0667 0.9932 0.0954
vn -0.8541 0.1366 -0.5018
vn 0.0558 0.9971 0.0508
vn 0.0069 0.9638 -0.2665
vn 0.0173 0.9611 -0.2755
vn 0.0181 0.9687 -0.2475
vn -0.0000 0.7776 -0.6287
vn 0.0066 0.7788 -0.6272
vn -0.0314 0.7940 -0.6071
vn -0.3553 0.7677 -0.5334
vn 0.0191 0.0611 -0.9980
vn -0.0441 0.1353 -0.9898
vn -0.4389 0.1504 -0.8858
vn -0.0161 0.1388 -0.9902
vn -0.4016 -0.5748 -0.7130
vn -0.0234 -0.6276 -0.7782
vn 0.0408 -0.6772 -0.7347
vn 0.0302 -0.6606 -0.7501
vn -0.9882 0.0447 0.1462
vn -0.8444 0.5348 -0.0301
vn -0.7978 0.5837 0.1512
vn -0.7996 0.4927 0.3433
vn -0.9248 0.3562 -0.1338
vn -0.8467 0.2919 0.4448
vn -0.9809 0.0598 -0.1848
vn -0.8857 0.0117 0.4641
vn -0.9377 -0.3161 -0.1443
vn -0.8721 -0.2835 0.3989
vn -0.8614 -0.5048 0.0567
vn -0.8415 -0.4773 0.2531
vt 0.481201 -0.322266
vt 0.468506 -0.322754
vt 0.468506 -0.305420
vt 0.474609 -0.305420
vt 0.453369 -0.139038
vt 0.458984 -0.137939
vt 0.458496 -0.144897
vt 0.453125 -0.145996
vt 0.478760 -0.135986
vt 0.479004 -0.143921
vt 0.472412 -0.143799
vt 0.472168 -0.136353
vt 0.457520 -0.121765
vt 0.457031 -0.118958
vt 0.463623 -0.117981
vt 0.463867 -0.120850
vt 0.461426 -0.344482
vt 0.461914 -0.333740
vt 0.468018 -0.333496
vt 0.467529 -0.344482
vt 0.504395 -0.139038
vt 0.504395 -0.129517
vt 0.508301 -0.130737
vt 0.508301 -0.140381
vt 0.186279 -0.193848
vt 0.193115 -0.194214
vt 0.193115 -0.194702
vt 0.186279 -0.194336
vt 0.171753 -0.244019
vt 0.164429 -0.268066
vt 0.158691 -0.268799
vt 0.165649 -0.243652
vt 0.444336 -0.175537
vt 0.443604 -0.155029
vt 0.447510 -0.154053
vt 0.448486 -0.174805
vt 0.163086 -0.422363
vt 0.156494 -0.423828
vt 0.155762 -0.413818
vt 0.162354 -0.412598
vt 0.487549 -0.304688
vt 0.492676 -0.304443
vt 0.492676 -0.321289
vt 0.487549 -0.321777
vt 0.186279 -0.194946
vt 0.185791 -0.204102
vt 0.179077 -0.203735
vt 0.179443 -0.194580
vt 0.182617 -0.323242
vt 0.176514 -0.322754
vt 0.176514 -0.297119
vt 0.182617 -0.297607
vt 0.206055 -0.324219
vt 0.206055 -0.337646
vt 0.199951 -0.337402
vt 0.200195 -0.323975
vt 0.199951 -0.195435
vt 0.199829 -0.196045
vt 0.193115 -0.195312
vt 0.140991 -0.197388
vt 0.140991 -0.196777
vt 0.144165 -0.195801
vt 0.144165 -0.196411
vt 0.200439 -0.298828
vt 0.194458 -0.323975
vt 0.194580 -0.298584
vt 0.467773 -0.234985
vt 0.474121 -0.234863
vt 0.474365 -0.261230
vt 0.468018 -0.261230
vt 0.199463 -0.414062
vt 0.199463 -0.423828
vt 0.194580 -0.423096
vt 0.194458 -0.413330
vt 0.159058 -0.244629
vt 0.165527 -0.230591
vt 0.171753 -0.237183
vt 0.498535 -0.260498
vt 0.504395 -0.260986
vt 0.504883 -0.304199
vt 0.499023 -0.303955
vt 0.490967 -0.144653
vt 0.490723 -0.136230
vt 0.498047 -0.137085
vt 0.497559 -0.145264
vt 0.486816 -0.333252
vt 0.480713 -0.333252
vt 0.212036 -0.337891
vt 0.212036 -0.351807
vt 0.205933 -0.351807
vt 0.151733 -0.337158
vt 0.151978 -0.323730
vt 0.158081 -0.322998
vt 0.157959 -0.336670
vt 0.474365 -0.279541
vt 0.468018 -0.279785
vt 0.196411 -0.232910
vt 0.202026 -0.239746
vt 0.195190 -0.245850
vt 0.189209 -0.245117
vt 0.491211 -0.126831
vt 0.498535 -0.127808
vt 0.172119 -0.203003
vt 0.172241 -0.193848
vt 0.437988 -0.336182
vt 0.437988 -0.321533
vt 0.445801 -0.321777
vt 0.445557 -0.335205
vt 0.140991 -0.247314
vt 0.146606 -0.246460
vt 0.146973 -0.270020
vt 0.140991 -0.270508
vt 0.480713 -0.213013
vt 0.487305 -0.196655
vt 0.491943 -0.196777
vt 0.487549 -0.213013
vt 0.207397 -0.234009
vt 0.212036 -0.240479
vt 0.206665 -0.246948
vt 0.157593 -0.218506
vt 0.149902 -0.219604
vt 0.149048 -0.210693
vt 0.156738 -0.203491
vt 0.450684 -0.334717
vt 0.451172 -0.322021
vt 0.456787 -0.322510
vt 0.456299 -0.334229
vt 0.191895 -0.210327
vt 0.445312 -0.348633
vt 0.450195 -0.347412
vt 0.461426 -0.354980
vt 0.460205 -0.356445
vt 0.492188 -0.213135
vt 0.492188 -0.234741
vt 0.487549 -0.234741
vt 0.471191 -0.126709
vt 0.478027 -0.126343
vt 0.171997 -0.218018
vt 0.178589 -0.218506
vt 0.458984 -0.173096
vt 0.458008 -0.151855
vt 0.465332 -0.151611
vt 0.466064 -0.172852
vt 0.460205 -0.196533
vt 0.455566 -0.213623
vt 0.450195 -0.214111
vt 0.454834 -0.197266
vt 0.437988 -0.350586
vt 0.450684 -0.261719
vt 0.455811 -0.235352
vt 0.461182 -0.235107
vt 0.456055 -0.261475
vt 0.152344 -0.245483
vt 0.455811 -0.345947
vt 0.497070 -0.153442
vt 0.491211 -0.152954
vt 0.174927 -0.420898
vt 0.169800 -0.420898
vt 0.168945 -0.411133
vt 0.174194 -0.411133
vt 0.158325 -0.297607
vt 0.146484 -0.323975
vt 0.146729 -0.298584
vt 0.470947 -0.353027
vt 0.473877 -0.344238
vt 0.477783 -0.353271
vt 0.212036 -0.433594
vt 0.180054 -0.443604
vt 0.194580 -0.425781
vt 0.199463 -0.426270
vt 0.199829 -0.351562
vt 0.194214 -0.351562
vt 0.194336 -0.337402
vt 0.164185 -0.336182
vt 0.164062 -0.350342
vt 0.157715 -0.350830
vt 0.477783 -0.119629
vt 0.485107 -0.119324
vt 0.485107 -0.126099
vt 0.503906 -0.154175
vt 0.503906 -0.146606
vt 0.508301 -0.147583
vt 0.508301 -0.154663
vt 0.504883 -0.321045
vt 0.508301 -0.304443
vt 0.508301 -0.321289
vt 0.465576 -0.137085
vt 0.465576 -0.144409
vt 0.165161 -0.202393
vt 0.165039 -0.193115
vt 0.164185 -0.322510
vt 0.479980 -0.173096
vt 0.486572 -0.152466
vt 0.486816 -0.173462
vt 0.492188 -0.333008
vt 0.499268 -0.320801
vt 0.498779 -0.332764
vt 0.437988 -0.304688
vt 0.445801 -0.304932
vt 0.189697 -0.422607
vt 0.189575 -0.412842
vt 0.170288 -0.350342
vt 0.170288 -0.336182
vt 0.179565 -0.411133
vt 0.180054 -0.420898
vt 0.140991 -0.337891
vt 0.140991 -0.324463
vt 0.146362 -0.337402
vt 0.447266 -0.130737
vt 0.443604 -0.131348
vt 0.443359 -0.124695
vt 0.446777 -0.124023
vt 0.156250 -0.194336
vt 0.188721 -0.351562
vt 0.188721 -0.337158
vt 0.164307 -0.296875
vt 0.170410 -0.297119
vt 0.170288 -0.322510
vt 0.212036 -0.324463
vt 0.461914 -0.279785
vt 0.462158 -0.305664
vt 0.172241 -0.193237
vt 0.172241 -0.192749
vt 0.179443 -0.193481
vt 0.179443 -0.193970
vt 0.169922 -0.423340
vt 0.175049 -0.423340
vt 0.212036 -0.221436
vt 0.208008 -0.221069
vt 0.208862 -0.206177
vt 0.212036 -0.206543
vt 0.498047 -0.213257
vt 0.498291 -0.234741
vt 0.180176 -0.423340
vt 0.199951 -0.194824
vt 0.209351 -0.195923
vt 0.209351 -0.196411
vt 0.206665 -0.196045
vt 0.206787 -0.195557
vt 0.209351 -0.197021
vt 0.212036 -0.197388
vt 0.437988 -0.125732
vt 0.437988 -0.122864
vt 0.443115 -0.121887
vt 0.184937 -0.218872
vt 0.163330 -0.424805
vt 0.147461 -0.195557
vt 0.466797 -0.196411
vt 0.480469 -0.196411
vt 0.473633 -0.196289
vt 0.198975 -0.205078
vt 0.204956 -0.211792
vt 0.203979 -0.220703
vt 0.197632 -0.219971
vt 0.485107 -0.135620
vt 0.445557 -0.261719
vt 0.450439 -0.235718
vt 0.165039 -0.192505
vt 0.165039 -0.191895
vt 0.437988 -0.156494
vt 0.437988 -0.149292
vt 0.443848 -0.147949
vt 0.453857 -0.173950
vt 0.452881 -0.152954
vt 0.147217 -0.381348
vt 0.140991 -0.371582
vt 0.146484 -0.361328
vt 0.152710 -0.369385
vt 0.451172 -0.305176
vt 0.491455 -0.173828
vt 0.497559 -0.174194
vt 0.485840 -0.144043
vt 0.472656 -0.151245
vt 0.445801 -0.279785
vt 0.450928 -0.279785
vt 0.464600 -0.127563
vt 0.456543 -0.305420
vt 0.462402 -0.322754
vt 0.206665 -0.196655
vt 0.479492 -0.151855
vt 0.452148 -0.122925
vt 0.451904 -0.120056
vt 0.504395 -0.334961
vt 0.508301 -0.336426
vt 0.461670 -0.261475
vt 0.456299 -0.279785
vt 0.499023 -0.121155
vt 0.504883 -0.122925
vt 0.189697 -0.425049
vt 0.148682 -0.427246
vt 0.148315 -0.416992
vt 0.176392 -0.350342
vt 0.176392 -0.336182
vt 0.199829 -0.360840
vt 0.205933 -0.361328
vt 0.205811 -0.381348
vt 0.199707 -0.379883
vt 0.503906 -0.174805
vt 0.508301 -0.175293
vt 0.508301 -0.121216
vt 0.506348 -0.123474
vt 0.504883 -0.120056
vt 0.183105 -0.368652
vt 0.177368 -0.367920
vt 0.182495 -0.350830
vt 0.445312 -0.214233
vt 0.449463 -0.197876
vt 0.491211 -0.120178
vt 0.191162 -0.219238
vt 0.467529 -0.353271
vt 0.140991 -0.351807
vt 0.146118 -0.351562
vt 0.212036 -0.299072
vt 0.206299 -0.299072
vt 0.151367 -0.351318
vt 0.437988 -0.132446
vt 0.446533 -0.121216
vt 0.443848 -0.140869
vt 0.447998 -0.140137
vt 0.437988 -0.141968
vt 0.452637 -0.129517
vt 0.458008 -0.128418
vt 0.469971 -0.117065
vt 0.470459 -0.119995
vt 0.437988 -0.176636
vt 0.477539 -0.116760
vt 0.485107 -0.116455
vt 0.491455 -0.117310
vt 0.499268 -0.118347
vt 0.437988 -0.279541
vt 0.460938 -0.213135
vt 0.464355 -0.354004
vt 0.205688 -0.427246
vt 0.205811 -0.416992
vt 0.467529 -0.213013
vt 0.504395 -0.213745
vt 0.508301 -0.213989
vt 0.504395 -0.348633
vt 0.508301 -0.351562
vt 0.498291 -0.344727
vt 0.481445 -0.353516
vt 0.479980 -0.344482
vt 0.486328 -0.344727
vt 0.484863 -0.353760
vt 0.491699 -0.344727
vt 0.489258 -0.354248
vt 0.489502 -0.357422
vt 0.144165 -0.195312
vt 0.140991 -0.196167
vt 0.156250 -0.193726
vt 0.147461 -0.194946
vt 0.147461 -0.194336
vt 0.156250 -0.193115
vt 0.188721 -0.323730
vt 0.182617 -0.336670
vt 0.140991 -0.433594
vt 0.140991 -0.430908
vt 0.148804 -0.429932
vt 0.156616 -0.426270
vt 0.184814 -0.421631
vt 0.184937 -0.424072
vt 0.140991 -0.206543
vt 0.144653 -0.205566
vt 0.145386 -0.220459
vt 0.140991 -0.221436
vt 0.212036 -0.399170
vt 0.212036 -0.420166
vt 0.205811 -0.396973
vt 0.212036 -0.196167
vt 0.212036 -0.196777
vt 0.474365 -0.333496
vt 0.489746 -0.359619
vt 0.508301 -0.124084
vt 0.508301 -0.235474
vt 0.497803 -0.197021
vt 0.508301 -0.279297
vt 0.492432 -0.278809
vt 0.473389 -0.362549
vt 0.487549 -0.260986
vt 0.480957 -0.279297
vt 0.473145 -0.172607
vt 0.437988 -0.235962
vt 0.437988 -0.214600
vt 0.458252 -0.358643
vt 0.202515 -0.653809
vt 0.192139 -0.646484
vt 0.202515 -0.648926
vt 0.197754 -0.656738
vt 0.202515 -0.642578
vt 0.192871 -0.660156
vt 0.196533 -0.639160
vt 0.187744 -0.657227
vt 0.192505 -0.636719
vt 0.182617 -0.654297
vt 0.186523 -0.640625
vt 0.182617 -0.648438
vt 0.182617 -0.642578
vt 0.444580 -0.643066
vt 0.436279 -0.637207
vt 0.440430 -0.640137
vt 0.145996 -0.233521
vt 0.140991 -0.240479
vt 0.151123 -0.232544
vt 0.140991 -0.399170
vt 0.140991 -0.420166
vt 0.159790 -0.378906
vt 0.167480 -0.392578
vt 0.165527 -0.367920
vt 0.172119 -0.377930
vt 0.212036 -0.430908
vt 0.212036 -0.371582
vt 0.194458 -0.394531
vt 0.194336 -0.369385
vt 0.189087 -0.379395
vt 0.183960 -0.393311
vt 0.184570 -0.412109
vt 0.170776 -0.359375
vt 0.176636 -0.268311
vt 0.206299 -0.281250
vt 0.212036 -0.270508
vt 0.206543 -0.260742
vt 0.212036 -0.247314
vt 0.200806 -0.270264
vt 0.201294 -0.246460
vt 0.188721 -0.269287
vt 0.183472 -0.244629
vt 0.184204 -0.231812
vt 0.177734 -0.244263
vt 0.436523 -0.649414
vt 0.428467 -0.648926
vt 0.428223 -0.643555
vt 0.428467 -0.654785
vt 0.432373 -0.640625
vt 0.432861 -0.657715
vt 0.437012 -0.660645
vt 0.440918 -0.657227
vt 0.444824 -0.648926
vt 0.445068 -0.654297
vt 0.140991 -0.299072
s 1
g off
g arm_2_izq_Material
usemtl Material
f 103/1/103 184/2/184 182/3/182 158/4/158
f 125/5/125 123/6/123 124/7/124 128/8/128
f 38/9/38 115/10/115 119/11/119 34/12/34
f 18/13/18 15/14/15 19/15/19 22/16/22
f 193/17/193 189/18/189 188/19/188 196/20/196
f 51/21/51 50/22/50 49/23/49 52/24/52
f 409/25/407 407/26/405 408/27/406 411/28/409
f 365/29/363 269/30/267 259/31/257 268/32/266
f 135/33/135 132/34/132 129/35/129 134/36/134
f 293/37/291 288/38/286 284/39/282 295/40/293
f 99/41/99 87/42/87 91/43/91 100/44/100
f 421/45/419 420/46/418 423/47/421 424/48/422
f 363/49/361 360/50/358 361/51/359 370/52/368
f 339/53/337 336/54/334 341/55/339 368/56/366
f 408/27/406 405/57/403 404/58/402 410/59/408
f 225/60/223 221/61/219 222/62/220 228/63/226
f 375/64/373 368/56/366 369/65/367 379/66/377
f 153/67/153 152/68/152 154/69/154 156/70/156
f 322/71/320 319/72/317 316/73/314 325/74/323
f 268/32/266 260/75/258 263/76/261 429/77/427
f 78/78/78 71/79/71 74/80/74 81/81/81
f 57/82/57 45/83/45 53/84/53 56/85/56
f 103/1/103 100/44/100 101/86/101 202/87/202
f 334/88/332 330/89/328 333/90/331 336/54/334
f 272/91/270 266/92/264 270/93/268 277/94/275
f 156/70/156 154/69/154 157/95/157 159/96/159
f 414/97/412 385/98/383 383/99/381 417/100/415
f 45/83/45 41/101/41 44/102/44 53/84/53
f 427/103/425 426/104/424 424/48/422 423/47/421
f 171/105/171 168/106/168 170/107/170 173/108/173
f 248/109/246 247/110/245 252/111/250 253/112/251
f 107/113/107 108/114/108 70/115/70 106/116/106
f 386/117/384 381/118/379 380/119/378 385/98/383
f 250/120/248 246/121/244 245/122/243 251/123/249
f 179/124/179 175/125/175 180/126/180 185/127/185
f 410/59/408 415/128/413 420/46/418 421/45/419
f 177/129/177 187/130/187 191/131/191 192/132/192
f 77/133/77 83/134/83 104/135/104 106/116/106
f 34/12/34 29/136/29 33/137/33 38/9/38
f 428/138/426 422/139/420 429/77/427 263/76/261
f 131/140/131 127/141/127 120/142/120 126/143/126
f 146/144/146 147/145/147 145/146/145 142/147/142
f 174/148/174 171/105/171 173/108/173 177/129/177
f 162/149/162 151/150/151 155/151/155 161/152/161
f 259/31/257 252/111/250 256/153/254 260/75/258
f 187/130/187 179/124/179 185/127/185 190/154/190
f 61/155/61 62/156/62 57/82/57 56/85/56
f 177/129/177 173/108/173 179/124/179 187/130/187
f 301/157/299 299/158/297 297/159/295 302/160/300
f 267/161/265 266/92/264 261/162/259 257/163/255
f 198/164/198 196/20/196 197/165/197 199/166/199
f 173/108/173 170/107/170 175/125/175 179/124/179
f 315/167/313 290/168/288 313/169/311 314/170/312
f 341/55/339 338/171/336 342/172/340 366/173/364
f 354/174/352 352/175/350 281/176/279 277/94/275
f 33/137/33 27/177/27 30/178/30 37/179/37
f 58/180/58 54/181/54 55/182/55 59/183/59
f 79/184/79 74/80/74 75/185/75 80/186/80
f 123/6/123 121/187/121 122/188/122 124/7/124
f 255/189/253 242/190/240 426/104/424 427/103/425
f 357/191/355 354/174/352 277/94/275 270/93/268
f 112/192/112 111/193/111 62/156/62 109/194/109
f 97/195/97 91/43/91 85/196/85 90/197/90
f 168/106/168 165/198/165 167/199/167 170/107/170
f 293/37/291 295/40/293 297/159/295 299/158/297
f 325/74/323 316/73/314 311/200/309 328/201/326
f 353/202/351 352/175/350 354/174/352 355/203/353
f 301/157/299 302/160/300 306/204/304 307/205/305
f 262/206/260 258/207/256 261/162/259 264/208/262
f 9/209/9 5/210/5 4/211/4 7/212/7
f 255/189/253 251/123/249 235/213/233 242/190/240
f 366/173/364 342/172/340 345/214/343 364/215/362
f 357/191/355 271/216/269 359/217/357 358/218/356
f 337/219/335 334/88/332 336/54/334 339/53/337
f 172/220/172 159/96/159 182/3/182 181/221/181
f 240/222/238 237/223/235 241/224/239 413/225/411
f 428/138/426 427/103/425 423/47/421 422/139/420
f 296/226/294 299/158/297 301/157/299 304/227/302
f 389/228/387 388/229/386 391/230/389 392/231/390
f 83/134/83 77/133/77 73/232/73 76/233/76
f 305/234/303 304/227/302 301/157/299 307/205/305
f 407/26/405 406/235/404 405/57/403 408/27/406
f 400/236/398 397/237/395 401/238/399 402/239/400
f 392/231/390 391/230/389 394/240/392 395/241/393
f 1/242/1 3/243/3 2/244/2 4/211/4
f 423/47/421 420/46/418 419/245/417 422/139/420
f 305/234/303 290/168/288 292/246/290 296/226/294
f 251/123/249 245/122/243 234/247/232 235/213/233
f 146/144/146 131/140/131 126/143/126 137/248/137
f 112/192/112 109/194/109 110/249/110 116/250/116
f 403/251/401 393/252/391 390/253/388 412/254/410
f 413/225/411 424/48/422 426/104/424 240/222/238
f 42/255/42 37/179/37 41/101/41 45/83/45
f 143/256/143 148/257/148 151/150/151 162/149/162
f 267/161/265 259/31/257 269/30/267 271/216/269
f 240/222/238 236/258/234 231/259/229 237/223/235
f 17/260/17 12/261/12 16/262/16 132/34/132
f 142/147/142 133/263/133 131/140/131 146/144/146
f 81/81/81 74/80/74 79/184/79 85/196/85
f 133/263/133 130/264/130 127/141/127 131/140/131
f 257/163/255 252/111/250 259/31/257 267/161/265
f 278/265/276 275/266/273 274/267/272 280/268/278
f 426/104/424 242/190/240 236/258/234 240/222/238
f 170/107/170 167/199/167 169/269/169 175/125/175
f 108/114/108 66/270/66 65/271/65 70/115/70
f 57/82/57 62/156/62 111/193/111 113/272/113
f 368/56/366 341/55/339 366/173/364 369/65/367
f 120/142/120 122/188/122 119/11/119 118/273/118
f 164/274/164 143/256/143 162/149/162 166/275/166
f 264/208/262 261/162/259 266/92/264 272/91/270
f 26/276/26 29/136/29 34/12/34 121/187/121
f 109/194/109 62/156/62 61/155/61 66/270/66
f 180/126/180 176/277/176 181/221/181 183/278/183
f 401/238/399 396/279/394 404/58/402 405/57/403
f 113/272/113 111/193/111 114/280/114 115/10/115
f 397/237/395 394/240/392 396/279/394 401/238/399
f 13/281/13 14/282/14 15/14/15 18/13/18
f 115/10/115 114/280/114 118/273/118 119/11/119
f 86/283/86 79/184/79 80/186/80 82/284/82
f 358/218/356 359/217/357 361/51/359 360/50/358
f 122/188/122 121/187/121 34/12/34 119/11/119
f 166/275/166 161/152/161 160/285/160 163/286/163
f 44/102/44 39/287/39 43/288/43 50/22/50
f 316/73/314 313/169/311 310/289/308 311/200/309
f 288/38/286 285/290/283 282/291/280 284/39/282
f 183/278/183 184/2/184 188/19/188 189/18/189
f 351/292/349 353/202/351 355/203/353 356/293/354
f 335/294/333 329/295/327 326/296/324 331/297/329
f 63/298/63 58/180/58 59/183/59 60/299/60
f 47/300/47 46/301/46 43/288/43 40/302/40
f 347/303/345 348/304/346 351/292/349 349/305/347
f 142/147/142 145/146/145 139/306/139 138/307/138
f 410/59/408 404/58/402 403/251/401 415/128/413
f 37/179/37 30/178/30 35/308/35 41/101/41
f 415/128/413 403/251/401 412/254/410 416/309/414
f 195/310/195 193/17/193 196/20/196 198/164/198
f 42/255/42 113/272/113 115/10/115 38/9/38
f 41/101/41 35/308/35 39/287/39 44/102/44
f 265/311/263 262/206/260 264/208/262 273/312/271
f 340/313/338 337/219/335 339/53/337 371/314/369
f 273/312/271 264/208/262 272/91/270 276/315/274
f 1/242/1 4/211/4 5/210/5 6/316/6
f 7/212/7 4/211/4 2/244/2 8/317/8
f 10/318/10 5/210/5 9/209/9 21/319/21
f 12/261/12 11/320/11 10/318/10 16/262/16
f 13/281/13 7/212/7 8/317/8 14/282/14
f 20/321/20 13/281/13 18/13/18 24/322/24
f 21/319/21 9/209/9 20/321/20 125/5/125
f 22/16/22 19/15/19 23/323/23 25/324/25
f 136/325/136 17/260/17 132/34/132 135/33/135
f 27/177/27 25/324/25 23/323/23 28/326/28
f 22/16/22 25/324/25 29/136/29 26/276/26
f 26/276/26 24/322/24 18/13/18 22/16/22
f 30/178/30 27/177/27 28/326/28 31/327/31
f 30/178/30 31/327/31 32/328/32 35/308/35
f 35/308/35 32/328/32 36/329/36 39/287/39
f 39/287/39 36/329/36 40/302/40 43/288/43
f 123/6/123 24/322/24 26/276/26 121/187/121
f 20/321/20 24/322/24 123/6/123 125/5/125
f 16/262/16 21/319/21 125/5/125 129/35/129
f 128/8/128 124/7/124 127/141/127 130/264/130
f 129/35/129 130/264/130 133/263/133 134/36/134
f 138/307/138 134/36/134 133/263/133 142/147/142
f 165/198/165 144/330/144 164/274/164 167/199/167
f 150/331/150 151/150/151 148/257/148 147/145/147
f 167/199/167 164/274/164 166/275/166 169/269/169
f 169/269/169 166/275/166 163/286/163 176/277/176
f 175/125/175 169/269/169 176/277/176 180/126/180
f 191/131/191 187/130/187 190/154/190 194/332/194
f 190/154/190 185/127/185 189/18/189 193/17/193
f 176/277/176 163/286/163 172/220/172 181/221/181
f 317/333/315 319/72/317 322/71/320 320/334/318
f 160/285/160 156/70/156 159/96/159 172/220/172
f 155/151/155 153/67/153 156/70/156 160/285/160
f 150/331/150 149/335/149 153/67/153 155/151/155
f 110/249/110 109/194/109 66/270/66 108/114/108
f 65/271/65 61/155/61 58/180/58 63/298/63
f 61/155/61 56/85/56 54/181/54 58/180/58
f 56/85/56 53/84/53 51/21/51 54/181/54
f 67/336/67 63/298/63 60/299/60 64/337/64
f 85/196/85 79/184/79 86/283/86 90/197/90
f 88/338/88 86/283/86 82/284/82 89/339/89
f 90/197/90 86/283/86 88/338/88 95/340/95
f 201/341/201 199/166/199 200/342/200 204/343/204
f 203/344/203 201/341/201 204/343/204 98/345/98
f 203/344/203 98/345/98 95/340/95 96/346/96
f 97/195/97 90/197/90 95/340/95 98/345/98
f 88/338/88 92/347/92 96/346/96 95/340/95
f 224/348/222 222/62/220 221/61/219 223/349/221
f 229/350/227 226/351/224 227/352/225 230/353/228
f 236/258/234 229/350/227 230/353/228 231/259/229
f 234/247/232 228/63/226 222/62/220 226/351/224
f 366/173/364 364/215/362 367/354/365 369/65/367
f 402/239/400 401/238/399 405/57/403 406/235/404
f 349/305/347 351/292/349 356/293/354 362/355/360
f 287/356/285 286/357/284 285/290/283 289/358/287
f 289/358/287 285/290/283 288/38/286 291/359/289
f 296/226/294 292/246/290 293/37/291 299/158/297
f 305/234/303 307/205/305 308/360/306 309/361/307
f 309/361/307 308/360/306 311/200/309 310/289/308
f 317/333/315 315/167/313 314/170/312 319/72/317
f 233/362/231 232/363/230 238/364/236 239/365/237
f 324/366/322 321/367/319 320/334/318 323/368/321
f 29/136/29 25/324/25 27/177/27 33/137/33
f 235/213/233 229/350/227 236/258/234 242/190/240
f 371/314/369 339/53/337 368/56/366 375/64/373
f 399/369/397 398/370/396 397/237/395 400/236/398
f 241/224/239 409/25/407 411/28/409 413/225/411
f 411/28/409 408/27/406 410/59/408 421/45/419
f 364/215/362 362/355/360 363/49/361 367/354/365
f 338/171/336 333/90/331 329/295/327 335/294/333
f 355/203/353 358/218/356 360/50/358 356/293/354
f 276/315/274 272/91/270 277/94/275 281/176/279
f 202/87/202 200/342/200 197/165/197 186/371/186
f 186/371/186 197/165/197 196/20/196 188/19/188
f 92/347/92 88/338/88 89/339/89 93/372/93
f 100/44/100 91/43/91 97/195/97 101/86/101
f 226/351/224 229/350/227 235/213/233 234/247/232
f 225/60/223 228/63/226 232/363/230 233/362/231
f 336/54/334 333/90/331 338/171/336 341/55/339
f 16/262/16 10/318/10 21/319/21
f 46/301/46 47/300/47 48/373/48
f 46/301/46 50/22/50 43/288/43
f 66/270/66 61/155/61 65/271/65
f 64/337/64 68/374/68 67/336/67
f 69/375/69 65/271/65 63/298/63
f 69/375/69 63/298/63 67/336/67
f 70/115/70 65/271/65 69/375/69
f 67/336/67 68/374/68 71/79/71
f 72/376/72 71/79/71 68/374/68
f 69/375/69 67/336/67 73/232/73
f 74/80/74 71/79/71 72/376/72
f 74/80/74 72/376/72 75/185/75
f 76/233/76 73/232/73 67/336/67
f 71/79/71 76/233/76 67/336/67
f 76/233/76 71/79/71 78/78/78
f 76/233/76 78/78/78 83/134/83
f 78/78/78 81/81/81 84/377/84
f 84/377/84 83/134/83 78/78/78
f 87/42/87 84/377/84 81/81/81
f 94/378/94 92/347/92 93/372/93
f 87/42/87 99/41/99 84/377/84
f 102/379/102 84/377/84 99/41/99
f 83/134/83 84/377/84 102/379/102
f 99/41/99 100/44/100 103/1/103
f 83/134/83 102/379/102 104/135/104
f 105/380/105 102/379/102 99/41/99
f 105/380/105 104/135/104 102/379/102
f 99/41/99 103/1/103 105/380/105
f 106/116/106 70/115/70 77/133/77
f 107/113/107 106/116/106 104/135/104
f 104/135/104 105/380/105 107/113/107
f 108/114/108 107/113/107 110/249/110
f 413/225/411 411/28/409 421/45/419 424/48/422
f 110/249/110 107/113/107 116/250/116
f 112/192/112 116/250/116 117/381/117
f 117/381/117 118/273/118 114/280/114
f 129/35/129 125/5/125 128/8/128
f 129/35/129 128/8/128 130/264/130
f 129/35/129 132/34/132 16/262/16
f 138/307/138 135/33/135 134/36/134
f 135/33/135 138/307/138 139/306/139
f 141/382/141 140/383/140 139/306/139
f 143/256/143 141/382/141 139/306/139
f 143/256/143 144/330/144 141/382/141
f 139/306/139 145/146/145 148/257/148
f 147/145/147 148/257/148 145/146/145
f 143/256/143 139/306/139 148/257/148
f 137/248/137 116/250/116 149/335/149
f 147/145/147 146/144/146 150/331/150
f 116/250/116 152/68/152 149/335/149
f 107/113/107 152/68/152 116/250/116
f 149/335/149 152/68/152 153/67/153
f 107/113/107 154/69/154 152/68/152
f 107/113/107 105/380/105 154/69/154
f 151/150/151 150/331/150 155/151/155
f 105/380/105 157/95/157 154/69/154
f 105/380/105 158/4/158 157/95/157
f 105/380/105 103/1/103 158/4/158
f 155/151/155 160/285/160 161/152/161
f 144/330/144 143/256/143 164/274/164
f 161/152/161 166/275/166 162/149/162
f 160/285/160 172/220/172 163/286/163
f 192/132/192 94/378/94 178/384/178
f 194/332/194 195/310/195 191/131/191
f 198/164/198 94/378/94 195/310/195
f 199/166/199 94/378/94 198/164/198
f 200/342/200 199/166/199 197/165/197
f 94/378/94 199/166/199 201/341/201
f 103/1/103 202/87/202 186/371/186
f 96/346/96 201/341/201 203/344/203
f 205/385/205 207/386/207 206/387/206
f 207/386/207 205/385/205 208/388/208
f 207/386/207 209/389/209 206/387/206
f 210/390/210 207/386/207 208/388/208
f 207/386/207 211/391/211 209/389/209
f 207/386/207 210/390/210 212/392/212
f 207/386/207 213/393/213 211/391/211
f 207/386/207 212/392/212 214/394/214
f 213/393/213 207/386/207 215/395/215
f 214/394/214 216/396/216 207/386/207
f 207/386/207 217/397/217 215/395/215
f 216/396/216 217/397/217 207/386/207
f 218/398/218 220/399/218 219/400/218
f 224/348/222 226/351/224 222/62/220
f 226/351/224 224/348/222 227/352/225
f 38/9/38 33/137/33 37/179/37 42/255/42
f 243/401/241 239/365/237 238/364/236
f 239/365/237 243/401/241 244/402/242
f 238/364/236 232/363/230 245/122/243
f 238/364/236 245/122/243 246/121/244
f 247/110/245 244/402/242 243/401/241
f 244/402/242 247/110/245 248/109/246
f 250/120/248 249/403/247 246/121/244
f 251/123/249 255/189/253 250/120/248
f 256/153/254 252/111/250 247/110/245
f 260/75/258 256/153/254 249/403/247
f 263/76/261 250/120/248 255/189/253
f 268/32/266 259/31/257 260/75/258
f 266/92/264 267/161/265 270/93/268
f 274/267/272 265/311/263 273/312/271
f 265/311/263 274/267/272 275/266/273
f 274/267/272 273/312/271 276/315/274
f 275/266/273 278/265/276 279/404/277
f 276/315/274 280/268/278 274/267/272
f 276/315/274 281/176/279 280/268/278
f 282/291/280 279/404/277 278/265/276
f 279/404/277 282/291/280 283/405/281
f 280/268/278 284/39/282 278/265/276
f 282/291/280 278/265/276 284/39/282
f 290/168/288 287/356/285 289/358/287
f 290/168/288 289/358/287 291/359/289
f 291/359/289 292/246/290 290/168/288
f 280/268/278 294/406/292 284/39/282
f 294/406/292 280/268/278 281/176/279
f 295/40/293 284/39/282 294/406/292
f 295/40/293 294/406/292 298/407/296
f 295/40/293 298/407/296 297/159/295
f 298/407/296 294/406/292 300/408/298
f 281/176/279 300/408/298 294/406/292
f 298/407/296 302/160/300 297/159/295
f 302/160/300 298/407/296 303/409/301
f 300/408/298 303/409/301 298/407/296
f 305/234/303 296/226/294 304/227/302
f 302/160/300 303/409/301 306/204/304
f 290/168/288 305/234/303 309/361/307
f 310/289/308 290/168/288 309/361/307
f 313/169/311 290/168/288 310/289/308
f 315/167/313 317/333/315 318/410/316
f 183/278/183 181/221/181 182/3/182 184/2/184
f 320/334/318 322/71/320 323/368/321
f 327/411/325 324/366/322 326/296/324
f 326/296/324 329/295/327 327/411/325
f 330/89/328 327/411/325 329/295/327
f 331/297/329 323/368/321 322/71/320
f 322/71/320 325/74/323 332/412/330
f 331/297/329 322/71/320 332/412/330
f 332/412/330 325/74/323 328/201/326
f 330/89/328 329/295/327 333/90/331
f 362/355/360 356/293/354 360/50/358 363/49/361
f 338/171/336 335/294/333 342/172/340
f 335/294/333 331/297/329 343/413/341
f 331/297/329 332/412/330 343/413/341
f 335/294/333 343/413/341 342/172/340
f 343/413/341 332/412/330 344/414/342
f 328/201/326 344/414/342 332/412/330
f 342/172/340 343/413/341 345/214/343
f 344/414/342 345/214/343 343/413/341
f 346/415/344 328/201/326 312/416/310
f 328/201/326 346/415/344 344/414/342
f 312/416/310 306/204/304 346/415/344
f 347/303/345 344/414/342 346/415/344
f 344/414/342 347/303/345 345/214/343
f 348/304/346 346/415/344 306/204/304
f 346/415/344 348/304/346 347/303/345
f 348/304/346 306/204/304 303/409/301
f 349/305/347 345/214/343 347/303/345
f 303/409/301 350/417/348 348/304/346
f 303/409/301 300/408/298 350/417/348
f 351/292/349 348/304/346 350/417/348
f 352/175/350 350/417/348 300/408/298
f 300/408/298 281/176/279 352/175/350
f 350/417/348 353/202/351 351/292/349
f 350/417/348 352/175/350 353/202/351
f 359/217/357 271/216/269 269/30/267
f 269/30/267 365/29/363 359/217/357
f 359/217/357 372/418/370 361/51/359
f 372/418/370 370/52/368 361/51/359
f 359/217/357 365/29/363 372/418/370
f 340/313/338 371/314/369 373/419/371
f 373/419/371 374/420/372 340/313/338
f 375/64/373 373/419/371 371/314/369
f 374/420/372 373/419/371 376/421/374
f 376/421/374 377/422/375 374/420/372
f 375/64/373 378/423/376 373/419/371
f 378/423/376 376/421/374 373/419/371
f 379/66/377 369/65/367 367/354/365
f 379/66/377 378/423/376 375/64/373
f 377/422/375 376/421/374 380/119/378
f 380/119/378 381/118/379 377/422/375
f 382/424/380 376/421/374 378/423/376
f 376/421/374 382/424/380 380/119/378
f 383/99/381 378/423/376 379/66/377
f 378/423/376 383/99/381 382/424/380
f 379/66/377 370/52/368 384/425/382
f 383/99/381 379/66/377 384/425/382
f 382/424/380 385/98/383 380/119/378
f 382/424/380 383/99/381 385/98/383
f 384/425/382 370/52/368 387/426/385
f 370/52/368 372/418/370 387/426/385
f 388/229/386 381/118/379 386/117/384
f 381/118/379 388/229/386 389/228/387
f 388/229/386 386/117/384 390/253/388
f 390/253/388 393/252/391 388/229/386
f 391/230/389 388/229/386 393/252/391
f 396/279/394 391/230/389 393/252/391
f 394/240/392 391/230/389 396/279/394
f 412/254/410 385/98/383 414/97/412
f 412/254/410 414/97/412 416/309/414
f 417/100/415 416/309/414 414/97/412
f 383/99/381 384/425/382 417/100/415
f 387/426/385 417/100/415 384/425/382
f 418/427/416 416/309/414 417/100/415
f 417/100/415 387/426/385 418/427/416
f 419/245/417 415/128/413 416/309/414
f 416/309/414 418/427/416 419/245/417
f 415/128/413 419/245/417 420/46/418
f 422/139/420 419/245/417 418/427/416
f 425/428/423 418/427/416 387/426/385
f 418/427/416 425/428/423 422/139/420
f 372/418/370 425/428/423 387/426/385
f 365/29/363 425/428/423 372/418/370
f 428/138/426 255/189/253 427/103/425
f 255/189/253 428/138/426 263/76/261
f 429/77/427 422/139/420 425/428/423
f 425/428/423 365/29/363 429/77/427
f 365/29/363 268/32/266 429/77/427
f 430/429/428 432/430/430 431/431/429
f 432/430/430 430/429/428 433/432/431
f 434/433/432 430/429/428 431/431/429
f 430/429/428 435/434/433 433/432/431
f 430/429/428 434/433/432 436/399/434
f 435/434/433 430/429/428 437/435/435
f 436/399/434 438/398/436 430/429/428
f 430/429/428 439/436/437 437/435/435
f 440/437/438 430/429/428 438/398/436
f 439/436/437 430/429/428 441/438/439
f 430/429/428 440/437/438 441/438/439
f 53/84/53 44/102/44 50/22/50 51/21/51
f 50/22/50 46/301/46 48/373/48 49/23/49
f 124/7/124 122/188/122 120/142/120 127/141/127
f 69/375/69 73/232/73 77/133/77 70/115/70
f 45/83/45 57/82/57 113/272/113 42/255/42
f 117/381/117 114/280/114 111/193/111 112/192/112
f 178/384/178 174/148/174 177/129/177 192/132/192
f 232/363/230 228/63/226 234/247/232 245/122/243
f 87/42/87 81/81/81 85/196/85 91/43/91
f 270/93/268 267/161/265 271/216/269 357/191/355
f 260/75/258 249/403/247 250/120/248 263/76/261
f 292/246/290 291/359/289 288/38/286 293/37/291
f 195/310/195 94/378/94 192/132/192 191/131/191
f 126/143/126 117/381/117 116/250/116 137/248/137
f 314/170/312 313/169/311 316/73/314 319/72/317
f 390/253/388 386/117/384 385/98/383 412/254/410
f 379/66/377 367/354/365 363/49/361 370/52/368
f 395/241/393 394/240/392 397/237/395 398/370/396
f 247/110/245 243/401/241 249/403/247 256/153/254
f 120/142/120 118/273/118 117/381/117 126/143/126
f 185/127/185 180/126/180 183/278/183 189/18/189
f 358/218/356 355/203/353 354/174/352 357/191/355
f 326/296/324 324/366/322 323/368/321 331/297/329
f 6/316/6 5/210/5 10/318/10 11/320/11
f 321/367/319 318/410/316 317/333/315 320/334/318
f 159/96/159 157/95/157 158/4/158 182/3/182
f 283/405/281 282/291/280 285/290/283 286/357/284
f 136/325/136 135/33/135 139/306/139 140/383/140
f 258/207/256 254/439/252 257/163/255 261/162/259
f 184/2/184 103/1/103 186/371/186 188/19/188
f 243/401/241 238/364/236 246/121/244 249/403/247
f 311/200/309 308/360/306 312/416/310 328/201/326
f 54/181/54 51/21/51 52/24/52 55/182/55
f 254/439/252 253/112/251 252/111/250 257/163/255
f 194/332/194 190/154/190 193/17/193 195/310/195
f 404/58/402 396/279/394 393/252/391 403/251/401
f 101/86/101 204/343/204 200/342/200 202/87/202
f 150/331/150 146/144/146 137/248/137 149/335/149
f 345/214/343 349/305/347 362/355/360 364/215/362
f 96/346/96 92/347/92 94/378/94 201/341/201
f 101/86/101 97/195/97 98/345/98 204/343/204
f 308/360/306 307/205/305 306/204/304 312/416/310
