# Blender 5.1.1
# www.blender.org
mtllib left_leg_0.mtl
g leg_1_izq_Mesh_0456Mesh.007
v 0.018317 -0.343818 0.009126
v 0.016089 -0.342788 -0.001752
v 0.012019 -0.341839 0.003156
v 0.012422 -0.343712 0.012017
v 0.007074 -0.341625 0.003574
v 0.020359 -0.343368 0.019003
v 0.000083 -0.345780 0.011540
v -0.000158 -0.342159 0.001869
v 0.012138 -0.343256 0.019770
v 0.021905 -0.342964 0.026709
v -0.005879 -0.344589 -0.002446
v -0.007055 -0.347175 0.007171
v -0.007836 -0.345901 0.016014
v 0.011727 -0.338112 0.029973
v 0.000031 -0.345943 0.019544
v -0.007847 -0.341026 0.025609
v 0.021003 -0.340366 0.031906
v 0.005991 -0.344600 0.019297
v -0.000309 -0.340648 0.028285
v -0.007508 -0.337154 0.029082
v 0.005400 -0.339138 0.029438
v -0.000506 -0.337417 0.031548
v 0.005497 -0.335037 0.032355
v 0.011485 -0.335010 0.033331
v -0.001144 -0.327392 0.036425
v 0.005227 -0.327255 0.035667
v 0.012716 -0.328090 0.035412
v 0.020880 -0.318592 0.036579
v 0.013848 -0.318931 0.037205
v 0.005559 -0.318432 0.037959
v -0.002635 -0.318435 0.037853
v 0.006614 -0.305553 0.034868
v -0.006819 -0.319355 0.037009
v -0.004714 -0.306675 0.034055
v 0.018240 -0.303650 0.032879
v 0.031231 -0.329254 0.026711
v 0.007259 -0.294685 0.033750
v 0.029902 -0.342197 0.024146
v 0.021905 -0.342964 0.026709
v 0.029119 -0.316612 0.029116
v 0.026548 -0.344112 0.019426
v 0.020359 -0.343368 0.019003
v 0.031747 -0.336830 0.014899
v 0.025774 -0.342346 0.009799
v 0.018317 -0.343818 0.009126
v 0.029520 -0.339832 0.012769
v 0.025039 -0.340606 -0.001235
v 0.016089 -0.342788 -0.001752
v 0.030526 -0.337803 0.002132
v 0.033327 -0.333664 0.004185
v 0.032557 -0.327785 0.017114
v 0.032391 -0.336113 -0.008007
v 0.034049 -0.326725 0.007053
v 0.031841 -0.314800 0.018356
v 0.023296 -0.339679 -0.011174
v 0.035319 -0.326397 0.001595
v 0.034296 -0.328548 -0.006123
v 0.028331 -0.331402 -0.014458
v 0.032846 -0.315043 0.006303
v 0.034367 -0.313972 -0.003164
v 0.027517 -0.316372 -0.013479
v 0.027028 -0.303609 0.008424
v 0.021241 -0.328945 -0.022814
v 0.015016 -0.340332 -0.010518
v 0.031633 -0.315330 -0.008810
v 0.010357 -0.338463 -0.009748
v 0.012019 -0.341839 0.003156
v 0.026627 -0.309448 -0.008948
v 0.028549 -0.305829 -0.000056
v 0.027167 -0.305713 -0.002456
v 0.021026 -0.304531 -0.013284
v 0.021297 -0.314243 -0.020094
v 0.021993 -0.299083 -0.003460
v 0.015089 -0.327945 -0.024158
v 0.023920 -0.298946 0.002041
v 0.010127 -0.326698 -0.017770
v 0.015062 -0.312134 -0.022269
v 0.006091 -0.326271 -0.016235
v 0.015695 -0.303138 -0.015131
v 0.009918 -0.313415 -0.017097
v 0.016548 -0.293915 -0.003708
v 0.012348 -0.302917 -0.012079
v 0.023556 -0.297291 0.012601
v 0.021500 -0.293670 0.003472
v 0.021596 -0.299885 0.026541
v 0.021145 -0.286636 0.013409
v 0.016443 -0.292385 0.030578
v 0.020225 -0.290207 0.025090
v 0.019535 -0.279243 0.024747
v 0.015391 -0.281406 0.029685
v 0.007611 -0.283188 0.032239
v 0.019513 -0.285309 0.007075
v 0.007794 -0.263801 0.031676
v 0.020830 -0.275722 0.014359
v 0.014205 -0.262897 0.029514
v 0.018139 -0.261329 0.025188
v 0.015250 -0.284691 0.001918
v 0.018729 -0.274807 0.009626
v 0.007005 -0.292438 -0.004612
v 0.014371 -0.274532 0.005702
v 0.019086 -0.259140 0.016578
v 0.017406 -0.258642 0.011997
v 0.007954 -0.274556 0.002151
v 0.008028 -0.258896 0.005290
v 0.017288 -0.242389 0.025831
v 0.017626 -0.240970 0.018207
v 0.013279 -0.242943 0.029184
v 0.007680 -0.243057 0.030878
v 0.013257 -0.222370 0.028979
v 0.001372 -0.263565 0.030479
v 0.007762 -0.222275 0.030814
v 0.001739 -0.242794 0.030718
v 0.016646 -0.221657 0.025137
v 0.013071 -0.200966 0.027496
v -0.000045 -0.282955 0.030730
v 0.016460 -0.200274 0.023899
v -0.001880 -0.294651 0.031799
v 0.017267 -0.220958 0.018111
v 0.016066 -0.240600 0.013172
v 0.013027 -0.240993 0.009344
v 0.013037 -0.220604 0.009207
v 0.008154 -0.241161 0.006082
v 0.000946 -0.258613 0.006025
v 0.008859 -0.220340 0.005839
v -0.001318 -0.274975 0.002348
v 0.015751 -0.199899 0.012707
v -0.003307 -0.285476 -0.000656
v 0.017214 -0.200210 0.017342
v 0.013020 -0.199791 0.008835
v 0.018444 -0.157539 0.015145
v 0.016700 -0.158741 0.021367
v 0.017335 -0.157028 0.010474
v 0.013235 -0.184181 0.026649
v 0.016995 -0.134716 0.019619
v 0.007927 -0.200869 0.029392
v 0.013803 -0.135221 0.022888
v 0.009015 -0.159427 0.026824
v 0.002235 -0.221973 0.029831
v 0.019038 -0.133659 0.012813
v 0.002761 -0.200508 0.028555
v 0.017544 -0.112404 0.016701
v 0.003428 -0.183662 0.027808
v -0.001982 -0.220897 0.025147
v -0.001568 -0.199386 0.023949
v -0.002518 -0.241729 0.025893
v -0.002837 -0.219974 0.018166
v -0.003594 -0.240623 0.018600
v -0.002647 -0.198662 0.017136
v -0.003997 -0.258922 0.017367
v -0.000984 -0.182567 0.023362
v -0.002295 -0.181396 0.016642
v -0.002980 -0.261303 0.025215
v -0.005530 -0.275802 0.015455
v -0.004725 -0.279609 0.024629
v -0.007262 -0.286758 0.014368
v -0.006660 -0.291038 0.024834
v -0.011040 -0.297065 0.013479
v -0.009701 -0.300052 0.024912
v -0.000160 -0.157924 0.022064
v -0.001653 -0.156906 0.015492
v 0.004425 -0.158928 0.026367
v 0.000246 -0.133941 0.019657
v -0.001402 -0.132950 0.012880
v 0.009425 -0.135265 0.024498
v 0.005060 -0.134914 0.024068
v 0.009879 -0.112903 0.021741
v 0.000283 -0.111728 0.016509
v -0.001530 -0.110813 0.009245
v 0.005441 -0.112644 0.021241
v 0.000080 -0.089390 0.013225
v -0.001894 -0.088482 0.005306
v 0.005749 -0.090217 0.018369
v 0.010705 -0.090389 0.018881
v 0.014247 -0.112827 0.020068
v -0.000421 -0.066883 0.010746
v -0.002468 -0.066070 0.000963
v 0.005952 -0.067642 0.017068
v -0.000600 -0.056717 0.010674
v -0.002699 -0.056408 -0.000842
v 0.011548 -0.067730 0.017581
v 0.006073 -0.055832 0.018131
v -0.000665 -0.046303 0.010655
v -0.002762 -0.046531 -0.002490
v -0.003227 -0.042741 -0.002906
v 0.015572 -0.090256 0.016984
v -0.002402 -0.035599 0.011403
v -0.004414 -0.036456 -0.003977
v -0.005343 -0.031784 -0.004619
v 0.006134 -0.043887 0.019256
v 0.011826 -0.054966 0.018721
v 0.017048 -0.067543 0.015258
v 0.019065 -0.089908 0.013388
v -0.003477 -0.031410 0.011853
v -0.006355 -0.027229 -0.004031
v 0.019648 -0.111522 0.009474
v -0.004614 -0.026672 0.012498
v -0.008036 -0.022880 -0.003113
v 0.005040 -0.033060 0.021020
v 0.002470 -0.025238 0.022815
v -0.006451 -0.022186 0.012664
v 0.000853 -0.020508 0.023215
v 0.012252 -0.027939 0.022295
v -0.012850 -0.014900 0.008355
v -0.013384 -0.015381 -0.002910
v -0.015663 -0.013046 -0.001617
v 0.012647 -0.034973 0.021070
v 0.012147 -0.042137 0.020039
v 0.017482 -0.054092 0.016205
v 0.018144 -0.040603 0.017352
v 0.020925 -0.067249 0.010923
v 0.021659 -0.053501 0.010886
v 0.019554 -0.031761 0.018095
v 0.021251 -0.089134 0.005739
v 0.023277 -0.066654 0.001819
v 0.020462 -0.088703 0.000918
v 0.022695 -0.039703 0.011177
v 0.024277 -0.052505 -0.000169
v 0.022512 -0.066307 -0.004183
v 0.018204 -0.133308 0.008394
v 0.025739 -0.038429 -0.001638
v 0.016430 -0.110943 0.000861
v 0.024762 -0.029800 0.011602
v 0.011433 -0.132795 0.000718
v 0.019891 -0.023025 0.019008
v 0.017582 -0.088367 -0.003562
v 0.018441 -0.018776 0.019531
v 0.024252 -0.051079 -0.008206
v 0.026308 -0.019943 0.012214
v 0.028626 -0.027817 -0.002185
v 0.026540 -0.035965 -0.011596
v 0.019243 -0.066040 -0.009625
v 0.021065 -0.050014 -0.015497
v 0.029331 -0.025261 -0.012908
v 0.031691 -0.017067 -0.002589
v 0.023509 -0.034172 -0.020678
v 0.025829 -0.014389 0.012510
v 0.032050 -0.014412 -0.014072
v 0.032420 -0.010177 -0.003092
v 0.025856 -0.024307 -0.022643
v 0.015724 -0.035103 -0.027462
v 0.017044 -0.027458 -0.030024
v 0.014527 -0.050392 -0.021073
v 0.013710 -0.065948 -0.014472
v 0.002705 -0.039177 -0.028731
v 0.012753 -0.088123 -0.007871
v 0.003586 -0.052456 -0.022247
v 0.002486 -0.035164 -0.030567
v 0.004518 -0.065960 -0.015908
v -0.003422 -0.040811 -0.017024
v -0.002285 -0.055015 -0.011890
v 0.011955 -0.110725 -0.003314
v 0.004737 -0.088012 -0.009291
v -0.001415 -0.065891 -0.007882
v -0.002762 -0.046531 -0.002490
v -0.002699 -0.056408 -0.000842
v -0.003227 -0.042741 -0.002906
v -0.002468 -0.066070 0.000963
v -0.003929 -0.037544 -0.018179
v -0.004414 -0.036456 -0.003977
v -0.000808 -0.088119 -0.002403
v -0.001894 -0.088482 0.005306
v -0.004319 -0.034256 -0.019684
v -0.005343 -0.031784 -0.004619
v 0.002220 -0.031235 -0.032591
v -0.005702 -0.028587 -0.021618
v -0.006355 -0.027229 -0.004031
v 0.002031 -0.026626 -0.034885
v 0.018040 -0.019691 -0.032707
v -0.007458 -0.024223 -0.021447
v 0.027791 -0.014221 -0.024546
v 0.017828 -0.013870 -0.034866
v 0.000042 -0.018875 -0.037861
v 0.032551 -0.007454 -0.015181
v 0.027705 -0.007782 -0.026371
v 0.014154 -0.005394 -0.037375
v 0.029558 0.000481 -0.003801
v 0.028255 0.002281 -0.016425
v 0.022647 0.000550 -0.028441
v 0.021845 -0.005523 0.012751
v 0.023602 0.004921 -0.003814
v 0.023210 0.006104 -0.016653
v 0.013733 -0.012039 0.020123
v 0.018083 0.003174 -0.028735
v 0.015303 0.006088 -0.015971
v 0.017643 -0.001694 0.012409
v 0.009718 -0.002975 -0.036936
v 0.015312 0.005928 -0.003621
v -0.002905 -0.014770 -0.037959
v 0.011332 0.002503 -0.027462
v 0.004248 -0.002289 -0.034734
v -0.009847 -0.019996 -0.020224
v -0.008036 -0.022880 -0.003113
v -0.014075 -0.013054 -0.015424
v -0.013384 -0.015381 -0.002910
v -0.009075 -0.005996 -0.022548
v -0.006465 -0.011177 -0.036225
v 0.002705 0.001679 -0.013004
v -0.001639 -0.000679 -0.019101
v -0.005769 -0.003288 -0.022183
v -0.001720 0.002480 -0.011852
v -0.005744 -0.000786 -0.017768
v -0.008656 -0.003372 -0.019644
v 0.003348 0.002213 -0.003486
v -0.010633 -0.005310 -0.019521
v -0.014075 -0.013054 -0.015424
v 0.011970 0.000168 0.011886
v -0.015556 -0.011116 -0.012448
v -0.013384 -0.015381 -0.002910
v -0.015663 -0.013046 -0.001617
v 0.010853 -0.008850 0.019881
v -0.017603 -0.009674 -0.009824
v -0.018372 -0.011467 -0.000515
v -0.013007 -0.004783 -0.017092
v -0.021163 -0.008217 -0.008804
v -0.022709 -0.010559 -0.001105
v -0.017266 -0.003723 -0.014930
v -0.011487 -0.002746 -0.017531
v -0.026706 -0.007713 -0.008682
v -0.029240 -0.010826 -0.001419
v -0.021765 -0.002105 -0.014498
v -0.015320 -0.001549 -0.016876
v -0.018634 0.000351 -0.017495
v -0.009484 0.000084 -0.016433
v -0.012892 0.001564 -0.017486
v -0.005913 0.004791 -0.011224
v -0.009788 0.007721 -0.011707
v -0.015349 0.004036 -0.019086
v -0.004346 0.005020 -0.003014
v -0.021511 0.004059 -0.018833
v -0.000631 0.002968 -0.003240
v -0.009870 0.009331 -0.003056
v 0.001505 0.000237 0.009930
v -0.002029 0.000702 0.008873
v 0.007284 -0.006386 0.019328
v -0.001607 -0.002823 0.014913
v -0.005404 0.001587 0.008482
v 0.002810 -0.011528 0.022801
v -0.005052 -0.002144 0.014040
v 0.007764 -0.018753 0.023556
v -0.005659 -0.006561 0.016942
v -0.001550 -0.016334 0.022732
v -0.009477 -0.010330 0.016000
v -0.008445 -0.005241 0.014379
v -0.011788 -0.008499 0.012232
v -0.008613 -0.001526 0.013664
v -0.014942 -0.012405 0.006874
v -0.011545 -0.004455 0.012543
v -0.014576 -0.007553 0.009077
v -0.017437 -0.010551 0.005643
v -0.018372 -0.011467 -0.000515
v -0.012605 -0.000320 0.013536
v -0.021747 -0.009826 0.004709
v -0.022709 -0.010559 -0.001105
v -0.010934 0.003739 0.010631
v -0.016063 -0.004417 0.012150
v -0.019784 -0.007843 0.008054
v -0.017256 0.002159 0.014562
v -0.021226 -0.002525 0.013183
v -0.025887 -0.006477 0.008901
v -0.028280 -0.009346 0.005096
v -0.029240 -0.010826 -0.001419
v -0.026174 -0.000686 0.012701
v -0.032454 -0.006775 0.004565
v -0.033540 -0.007797 -0.001932
v -0.030013 -0.004265 0.008473
v -0.034382 -0.003753 0.003520
v -0.035319 -0.004066 -0.002348
v -0.029199 0.000710 0.010889
v -0.034998 0.000489 0.000479
v -0.035278 0.000206 -0.002742
v -0.032236 -0.002083 0.007100
v -0.033771 0.004662 -0.003096
v -0.032092 0.005028 0.005540
v -0.026808 0.004288 0.012317
v -0.023023 0.003678 0.014235
v -0.026295 0.008438 0.009407
v -0.016307 0.007401 0.011332
v -0.022212 0.008690 0.011032
v -0.016576 0.014588 -0.003553
v -0.022569 0.015221 -0.003907
v -0.014644 0.011330 -0.013731
v -0.020955 0.011696 -0.013926
v -0.031555 0.007149 0.004058
v -0.027028 0.013397 -0.003994
v -0.025876 0.009087 -0.013263
v -0.031052 0.009743 -0.003719
v -0.030610 0.007630 -0.008417
v -0.031190 0.004110 -0.010750
v -0.025949 0.003357 -0.016521
v -0.034645 0.001033 -0.005655
v -0.035278 0.000206 -0.002742
v -0.029856 0.000351 -0.012159
v -0.023772 0.001137 -0.016533
v -0.032809 -0.002289 -0.007214
v -0.035319 -0.004066 -0.002348
v -0.027012 -0.000847 -0.013847
v -0.030770 -0.005173 -0.008053
v -0.033540 -0.007797 -0.001932
v -0.007262 -0.286758 0.014368
v -0.011040 -0.297065 0.013479
v -0.010162 -0.294620 0.005309
v -0.007040 -0.285793 0.006899
v -0.006285 -0.295555 -0.005375
v -0.005071 -0.275043 0.008869
v -0.005530 -0.275802 0.015455
v -0.001892 -0.303833 -0.012450
v -0.005489 -0.304554 -0.012782
v -0.004470 -0.313671 -0.018036
v -0.003485 -0.258594 0.011006
v -0.003997 -0.258922 0.017367
v 0.001550 -0.313694 -0.016170
v -0.003602 -0.325649 -0.021567
v 0.006685 -0.302673 -0.011715
v 0.005906 -0.313743 -0.015740
v 0.001413 -0.326244 -0.017323
v 0.006189 -0.339336 -0.006491
v 0.007074 -0.341625 0.003574
v -0.000158 -0.342159 0.001869
v -0.000524 -0.339691 -0.006754
v -0.005178 -0.339729 -0.012277
v -0.005879 -0.344589 -0.002446
v 0.002104 -0.240432 0.007485
v -0.002576 -0.240494 0.011895
v -0.003594 -0.240623 0.018600
v -0.002837 -0.219974 0.018166
v 0.002878 -0.220325 0.007272
v -0.001202 -0.220112 0.011737
v 0.003429 -0.199619 0.006549
v -0.000394 -0.199295 0.011134
v -0.002647 -0.198662 0.017136
v -0.002295 -0.181396 0.016642
v 0.008914 -0.199600 0.005746
v 0.000020 -0.179226 0.010128
v -0.001653 -0.156906 0.015492
v 0.003956 -0.179748 0.004949
v 0.000024 -0.156322 0.008526
v -0.001402 -0.132950 0.012880
v 0.010842 -0.156686 0.003510
v 0.004760 -0.156334 0.003091
v -0.000330 -0.132568 0.005761
v -0.001530 -0.110813 0.009245
v 0.004853 -0.132572 -0.000566
v -0.000594 -0.110515 0.001839
v 0.004514 -0.110550 -0.004783
v -0.010162 -0.294620 0.005309
v -0.016152 -0.302196 -0.001958
v -0.006285 -0.295555 -0.005375
v -0.005489 -0.304554 -0.012782
v -0.016968 -0.303524 0.006181
v -0.012878 -0.306797 -0.010144
v -0.004470 -0.313671 -0.018036
v -0.021361 -0.315155 -0.000172
v -0.017292 -0.304683 0.013565
v -0.009982 -0.315487 -0.016064
v -0.003602 -0.325649 -0.021567
v -0.020382 -0.317062 -0.004596
v -0.023324 -0.313919 0.007340
v -0.020009 -0.325527 -0.003576
v -0.018267 -0.319804 -0.008780
v -0.008375 -0.327323 -0.019415
v -0.005178 -0.339729 -0.012277
v -0.016747 -0.331591 -0.006873
v -0.009802 -0.336803 -0.011434
v -0.005879 -0.344589 -0.002446
v -0.018209 -0.331863 -0.003011
v -0.010471 -0.341606 -0.003542
v -0.015625 -0.338081 -0.002082
v -0.010872 -0.346145 0.005639
v -0.007055 -0.347175 0.007171
v -0.019346 -0.332683 0.009540
v -0.016389 -0.341339 0.005192
v -0.010931 -0.346458 0.014163
v -0.007836 -0.345901 0.016014
v -0.015703 -0.343452 0.013130
v -0.011226 -0.340954 0.024430
v -0.007847 -0.341026 0.025609
v -0.016187 -0.339676 0.020549
v -0.012101 -0.335979 0.028032
v -0.017086 -0.334369 0.025057
v -0.013855 -0.321117 0.032908
v -0.014309 -0.312687 0.027327
v -0.021010 -0.322986 0.023612
v -0.016248 -0.307304 0.021438
v -0.020881 -0.316872 0.021676
v -0.023117 -0.314370 0.012289
v -0.022240 -0.323655 0.015137
v -0.021796 -0.323633 0.008037
vn -0.0992 -0.9930 -0.0638
vn -0.2683 -0.9627 -0.0362
vn -0.1575 -0.9782 -0.1353
vn 0.0417 -0.9962 -0.0765
vn 0.0906 -0.9495 -0.3004
vn -0.0056 -0.9986 0.0529
vn 0.1865 -0.9766 -0.1073
vn 0.3221 -0.8986 -0.2978
vn 0.0305 -0.9741 0.2239
vn -0.2106 -0.9237 0.3201
vn 0.4311 -0.8648 -0.2574
vn 0.3041 -0.9417 -0.1440
vn -0.0348 -0.9720 0.2324
vn -0.1328 -0.7977 0.5883
vn 0.0562 -0.9547 0.2922
vn -0.2035 -0.7935 0.5735
vn 0.1529 -0.6125 0.7755
vn 0.1908 -0.9541 0.2310
vn -0.0397 -0.7790 0.6257
vn -0.3145 -0.5242 0.7914
vn 0.0901 -0.7663 0.6361
vn -0.0993 -0.5600 0.8225
vn 0.0138 -0.5103 0.8599
vn -0.0889 -0.4767 0.8746
vn -0.1433 -0.3306 0.9328
vn 0.0280 -0.2952 0.9550
vn 0.1237 -0.2524 0.9597
vn 0.4070 0.0649 0.9111
vn 0.0897 0.0042 0.9960
vn 0.0317 0.0215 0.9993
vn -0.1092 0.0518 0.9927
vn 0.0228 0.2098 0.9775
vn -0.4087 0.0100 0.9126
vn -0.4292 0.2952 0.8536
vn 0.4470 0.2668 0.8538
vn 0.8425 -0.0953 0.5302
vn 0.0387 0.1462 0.9885
vn 0.6965 -0.6383 0.3278
vn 0.1468 -0.9263 0.3471
vn 0.8335 0.2151 0.5090
vn 0.3475 -0.9374 -0.0238
vn 0.0464 -0.9985 0.0282
vn 0.9320 -0.3620 0.0182
vn 0.3755 -0.9168 -0.1362
vn 0.1580 -0.9800 -0.1213
vn 0.7222 -0.6802 -0.1259
vn 0.3480 -0.9258 -0.1479
vn -0.0700 -0.9791 -0.1912
vn 0.7258 -0.6839 -0.0740
vn 0.9401 -0.3388 0.0393
vn 0.9896 -0.0238 0.1418
vn 0.7411 -0.5780 -0.3416
vn 0.9875 -0.0255 0.1555
vn 0.9459 0.2775 0.1684
vn 0.3255 -0.8200 -0.4708
vn 0.9983 -0.0549 0.0213
vn 0.9196 -0.1526 -0.3621
vn 0.7037 -0.2352 -0.6705
vn 0.9487 0.2871 0.1323
vn 0.9207 0.3632 -0.1426
vn 0.7465 0.2447 -0.6187
vn 0.8824 0.4695 0.0298
vn 0.4258 -0.2998 -0.8537
vn -0.2317 -0.8666 -0.4419
vn 0.7984 0.3108 -0.5157
vn -0.4318 -0.7362 -0.5211
vn -0.1726 -0.9595 -0.2228
vn 0.7122 0.5177 -0.4741
vn 0.8125 0.5675 -0.1331
vn 0.7283 0.5798 -0.3652
vn 0.6078 0.5657 -0.5573
vn 0.5659 0.3030 -0.7668
vn 0.6796 0.6047 -0.4154
vn -0.2577 -0.2837 -0.9236
vn 0.8118 0.5487 -0.1996
vn -0.5806 -0.2675 -0.7690
vn -0.1984 0.3776 -0.9044
vn -0.1335 -0.2953 -0.9460
vn -0.0646 0.6905 -0.7205
vn -0.5047 0.2583 -0.8238
vn 0.4154 0.6155 -0.6698
vn -0.2892 0.5984 -0.7472
vn 0.9332 0.3548 0.0565
vn 0.8424 0.4427 -0.3073
vn 0.8433 0.3146 0.4357
vn 0.9880 0.1476 -0.0448
vn 0.5467 0.1620 0.8215
vn 0.9129 0.1434 0.3823
vn 0.9141 0.0651 0.4002
vn 0.5547 0.0737 0.8288
vn 0.0578 0.0794 0.9952
vn 0.8696 0.2641 -0.4172
vn 0.0822 0.0265 0.9963
vn 0.9903 0.0923 -0.1039
vn 0.5290 0.0356 0.8479
vn 0.9001 0.0552 0.4323
vn 0.4927 0.3924 -0.7767
vn 0.8270 0.1754 -0.5342
vn 0.0574 0.5095 -0.8586
vn 0.5788 0.2439 -0.7782
vn 0.9895 0.0941 -0.1096
vn 0.8072 0.1204 -0.5778
vn 0.2000 0.2715 -0.9414
vn 0.2535 0.1354 -0.9578
vn 0.8995 0.0368 0.4353
vn 0.9899 0.0554 -0.1302
vn 0.5090 0.0237 0.8604
vn 0.1017 0.0200 0.9946
vn 0.5278 0.0369 0.8486
vn -0.4847 0.0301 0.8741
vn 0.0957 0.0403 0.9946
vn -0.4575 0.0213 0.8890
vn 0.9082 0.0310 0.4174
vn 0.5492 0.0482 0.8343
vn -0.5039 0.1061 0.8572
vn 0.9009 0.0213 0.4336
vn -0.4831 0.2013 0.8521
vn 0.9884 0.0114 -0.1517
vn 0.8745 0.0584 -0.4816
vn 0.6786 0.0237 -0.7341
vn 0.7790 -0.0069 -0.6269
vn 0.2112 0.0215 -0.9772
vn -0.4672 0.1533 -0.8708
vn 0.2197 -0.0127 -0.9755
vn -0.4902 0.2716 -0.8282
vn 0.8928 -0.0383 -0.4488
vn -0.4823 0.4104 -0.7739
vn 0.9953 -0.0192 -0.0948
vn 0.7364 -0.0337 -0.6757
vn 0.9997 -0.0237 0.0027
vn 0.8790 0.0222 0.4763
vn 0.8742 -0.0624 -0.4816
vn 0.5565 0.0443 0.8297
vn 0.8585 0.0366 0.5114
vn 0.0924 0.0586 0.9940
vn 0.5413 0.0782 0.8372
vn 0.1637 0.0741 0.9837
vn -0.4604 0.0501 0.8863
vn 0.9988 -0.0206 0.0455
vn -0.4662 0.0590 0.8827
vn 0.8601 0.0324 0.5091
vn -0.4279 0.0645 0.9015
vn -0.9019 0.0416 0.4299
vn -0.8951 0.0424 0.4438
vn -0.9057 0.0256 0.4231
vn -0.9898 0.0274 0.1401
vn -0.9899 0.0259 0.1396
vn -0.9865 0.0275 0.1614
vn -0.9894 0.0449 0.1384
vn -0.8781 0.0504 0.4757
vn -0.9796 0.0367 0.1976
vn -0.9113 0.0412 0.4096
vn -0.9844 0.1124 0.1350
vn -0.9090 0.1174 0.4000
vn -0.9618 0.2242 0.1571
vn -0.8765 0.2398 0.4173
vn -0.8368 0.5190 0.1743
vn -0.7947 0.3890 0.4660
vn -0.8618 0.0613 0.5035
vn -0.9736 0.0386 0.2249
vn -0.4038 0.0820 0.9112
vn -0.8535 0.0709 0.5163
vn -0.9701 0.0363 0.2398
vn 0.1294 0.1060 0.9859
vn -0.3966 0.1090 0.9115
vn 0.1292 0.1203 0.9843
vn -0.8527 0.0717 0.5175
vn -0.9692 0.0306 0.2444
vn -0.3985 0.1219 0.9090
vn -0.8617 0.0506 0.5049
vn -0.9727 0.0173 0.2316
vn -0.4075 0.0925 0.9085
vn 0.1383 0.0874 0.9865
vn 0.5413 0.0887 0.8361
vn -0.8830 0.0064 0.4692
vn -0.9790 0.0030 0.2040
vn -0.4304 -0.0001 0.9026
vn -0.8980 -0.0155 0.4397
vn -0.9840 0.0033 0.1779
vn 0.1560 -0.0172 0.9876
vn -0.4502 -0.0666 0.8904
vn -0.9058 -0.0884 0.4144
vn -0.9852 -0.0523 0.1630
vn -0.9790 -0.1423 0.1462
vn 0.5584 0.0541 0.8278
vn -0.8925 -0.2098 0.3993
vn -0.9723 -0.1928 0.1321
vn -0.9665 -0.2272 0.1192
vn -0.4469 -0.1283 0.8854
vn 0.1653 -0.0949 0.9817
vn 0.5916 -0.0229 0.8059
vn 0.8707 -0.0027 0.4917
vn -0.8858 -0.2734 0.3750
vn -0.9468 -0.3022 0.1112
vn 0.9944 -0.0365 0.0995
vn -0.8694 -0.3305 0.3674
vn -0.8663 -0.4893 0.1002
vn -0.4074 -0.2292 0.8840
vn -0.4095 -0.2611 0.8741
vn -0.8283 -0.4089 0.3830
vn -0.4180 -0.1790 0.8907
vn 0.2293 -0.1090 0.9672
vn -0.8125 -0.4708 0.3439
vn -0.7704 -0.6316 0.0869
vn -0.6693 -0.7346 0.1113
vn 0.2108 -0.1553 0.9651
vn 0.1818 -0.1316 0.9745
vn 0.6158 -0.0823 0.7836
vn 0.6306 -0.1333 0.7646
vn 0.8881 -0.0366 0.4582
vn 0.8996 -0.0656 0.4318
vn 0.6382 -0.1494 0.7553
vn 0.9958 -0.0739 0.0536
vn 0.9946 -0.0810 0.0645
vn 0.9254 -0.1423 -0.3511
vn 0.8988 -0.1462 0.4133
vn 0.9913 -0.0896 0.0966
vn 0.9372 -0.1689 -0.3051
vn 0.8912 -0.0901 -0.4446
vn 0.9783 -0.1715 0.1165
vn 0.7380 -0.1544 -0.6569
vn 0.8828 -0.1906 0.4294
vn 0.4661 -0.1506 -0.8718
vn 0.5953 -0.0301 0.8030
vn 0.7463 -0.1937 -0.6368
vn 0.5055 0.1297 0.8530
vn 0.9552 -0.1860 -0.2302
vn 0.8589 -0.0685 0.5076
vn 0.9627 -0.2406 0.1234
vn 0.9524 -0.2389 -0.1893
vn 0.7485 -0.2580 -0.6110
vn 0.7660 -0.2943 -0.5715
vn 0.9461 -0.2668 -0.1835
vn 0.9761 -0.1446 0.1620
vn 0.7819 -0.3023 -0.5453
vn 0.7836 0.1631 0.5995
vn 0.9669 -0.1736 -0.1869
vn 0.9665 0.1334 0.2191
vn 0.8031 -0.2857 -0.5228
vn 0.4368 -0.3687 -0.8205
vn 0.4799 -0.3478 -0.8054
vn 0.4144 -0.3802 -0.8269
vn 0.4097 -0.3300 -0.8504
vn -0.3774 -0.4087 -0.8310
vn 0.4245 -0.2357 -0.8742
vn -0.3771 -0.4020 -0.8344
vn -0.3638 -0.4156 -0.8336
vn -0.3650 -0.3423 -0.8658
vn -0.9405 -0.2186 -0.2602
vn -0.9385 -0.1805 -0.2944
vn 0.4498 -0.1857 -0.8736
vn -0.3583 -0.2294 -0.9050
vn -0.9263 -0.1509 -0.3453
vn -0.9980 -0.0625 -0.0042
vn -0.9967 -0.0503 -0.0630
vn -0.9924 -0.1234 0.0006
vn -0.9921 -0.0639 -0.1078
vn -0.9374 -0.2384 -0.2540
vn -0.9843 -0.1748 -0.0224
vn -0.9193 -0.0996 -0.3807
vn -0.9902 -0.0448 -0.1322
vn -0.9201 -0.2764 -0.2774
vn -0.9718 -0.2346 -0.0219
vn -0.3409 -0.4230 -0.8396
vn -0.8987 -0.3241 -0.2953
vn -0.9320 -0.3625 -0.0050
vn -0.2881 -0.4193 -0.8609
vn 0.5015 -0.2990 -0.8119
vn -0.8789 -0.3985 -0.2623
vn 0.8248 -0.2074 -0.5260
vn 0.4930 -0.1451 -0.8579
vn -0.2864 -0.3291 -0.8998
vn 0.9698 0.1405 -0.1993
vn 0.8150 0.0790 -0.5741
vn 0.3407 0.2081 -0.9168
vn 0.7907 0.5565 0.2549
vn 0.7739 0.6041 -0.1900
vn 0.6233 0.5011 -0.6004
vn 0.6091 0.4490 0.6538
vn 0.3796 0.8892 0.2555
vn 0.3230 0.9350 -0.1467
vn 0.3849 0.2958 0.8743
vn 0.1844 0.8445 -0.5029
vn -0.1538 0.9837 -0.0928
vn 0.3454 0.7025 0.6222
vn -0.0087 0.5264 -0.8502
vn -0.0529 0.9826 0.1781
vn -0.4770 -0.1264 -0.8698
vn -0.2227 0.9258 -0.3054
vn -0.3299 0.7250 -0.6046
vn -0.9017 -0.3545 -0.2476
vn -0.8741 -0.4856 -0.0104
vn -0.8820 -0.3579 -0.3065
vn -0.8372 -0.5463 -0.0254
vn -0.7825 0.4249 -0.4552
vn -0.7423 0.1988 -0.6399
vn -0.1697 0.9740 -0.1503
vn -0.2593 0.9156 -0.3073
vn -0.4440 0.8019 -0.3999
vn 0.1849 0.9318 -0.3123
vn -0.1148 0.8139 -0.5696
vn -0.4246 0.6582 -0.6217
vn -0.0580 0.9947 0.0845
vn -0.7291 0.3102 -0.6100
vn -0.8843 -0.1748 -0.4330
vn 0.0514 0.8564 0.5137
vn -0.8127 -0.4377 -0.3846
vn -0.7362 -0.6664 -0.1182
vn -0.6095 -0.7749 -0.1672
vn 0.2638 0.4491 0.8536
vn -0.5954 -0.6884 -0.4142
vn -0.3595 -0.8987 -0.2512
vn -0.6191 -0.0555 -0.7834
vn -0.2652 -0.8105 -0.5222
vn -0.0799 -0.9398 -0.3322
vn -0.4326 -0.5038 -0.7477
vn -0.2572 0.2782 -0.9255
vn -0.2700 -0.7603 -0.5908
vn -0.2786 -0.8507 -0.4457
vn -0.2433 -0.6081 -0.7557
vn -0.2043 -0.3236 -0.9239
vn -0.1254 -0.4848 -0.8656
vn 0.1781 0.5519 -0.8147
vn 0.3244 0.1133 -0.9391
vn 0.4553 0.7808 -0.4280
vn 0.6215 0.6528 -0.4331
vn 0.2570 0.1557 -0.9538
vn 0.5036 0.8591 0.0908
vn -0.2360 0.0671 -0.9694
vn 0.2871 0.9557 0.0644
vn 0.5968 0.7949 0.1093
vn -0.0274 0.9173 0.3973
vn 0.1553 0.9154 0.3713
vn 0.0550 0.6367 0.7691
vn -0.1010 0.7390 0.6661
vn 0.3517 0.8204 0.4507
vn -0.0898 0.3539 0.9310
vn -0.0664 0.6871 0.7236
vn 0.1481 0.0567 0.9873
vn -0.3679 0.4709 0.8018
vn -0.5036 -0.0477 0.8626
vn -0.7175 0.0382 0.6955
vn -0.4224 0.2476 0.8719
vn -0.7591 -0.0283 0.6503
vn 0.0317 0.3938 0.9186
vn -0.7349 -0.5285 0.4250
vn -0.3535 -0.2154 0.9103
vn -0.4455 -0.4634 0.7661
vn -0.4028 -0.7867 0.4678
vn -0.3869 -0.9081 0.1603
vn 0.1553 0.0927 0.9835
vn -0.1312 -0.9160 0.3791
vn -0.0984 -0.9798 0.1743
vn 0.4707 0.6474 0.5994
vn -0.0460 -0.5399 0.8405
vn -0.1138 -0.7415 0.6612
vn 0.1345 0.1256 0.9829
vn -0.1122 -0.4571 0.8823
vn -0.2533 -0.6564 0.7106
vn -0.2911 -0.8453 0.4479
vn -0.3241 -0.9196 0.2218
vn -0.3721 -0.2802 0.8849
vn -0.6835 -0.5713 0.4544
vn -0.7474 -0.6266 0.2209
vn -0.5580 -0.4197 0.7159
vn -0.9133 -0.1770 0.3669
vn -0.9611 -0.2213 0.1650
vn -0.6603 -0.0429 0.7498
vn -0.9616 0.1779 0.2087
vn -0.9831 0.1561 0.0956
vn -0.8067 -0.0789 0.5857
vn -0.9109 0.4063 -0.0716
vn -0.8296 0.3455 0.4386
vn -0.5371 0.3227 0.7793
vn -0.1923 0.2237 0.9555
vn -0.4657 0.7076 0.5314
vn 0.3154 0.7013 0.6393
vn -0.0939 0.7587 0.6447
vn 0.3424 0.9362 0.0798
vn -0.1427 0.9896 0.0158
vn 0.3839 0.7512 -0.5370
vn -0.1673 0.7814 -0.6011
vn -0.7540 0.5835 0.3018
vn -0.5022 0.8639 -0.0381
vn -0.5373 0.6026 -0.5901
vn -0.7513 0.6565 -0.0673
vn -0.7495 0.5183 -0.4119
vn -0.7968 0.1815 -0.5763
vn -0.5919 0.0817 -0.8018
vn -0.9185 0.0981 -0.3831
vn -0.9496 0.0250 -0.3125
vn -0.6628 -0.2811 -0.6940
vn -0.3678 -0.4579 -0.8093
vn -0.7999 -0.2571 -0.5423
vn -0.8207 -0.3035 -0.4840
vn -0.4240 -0.4461 -0.7882
vn -0.6100 -0.5214 -0.5966
vn -0.6216 -0.5846 -0.5214
vn -0.9660 0.2582 -0.0091
vn -0.9410 0.3383 0.0076
vn -0.9099 0.3732 -0.1813
vn -0.9288 0.3012 -0.2159
vn -0.3244 0.5499 -0.7697
vn -0.9396 0.1884 -0.2857
vn -0.9895 0.1368 -0.0461
vn 0.0268 0.5183 -0.8548
vn 0.0661 0.5412 -0.8383
vn 0.3366 0.3199 -0.8856
vn -0.9207 0.1105 -0.3742
vn -0.9933 0.0711 -0.0909
vn 0.2160 0.2673 -0.9391
vn 0.5726 -0.1396 -0.8079
vn -0.0222 0.5064 -0.8620
vn -0.0720 0.2209 -0.9726
vn 0.3916 -0.2646 -0.8813
vn -0.0239 -0.8707 -0.4912
vn 0.0294 -0.9694 -0.2438
vn 0.2647 -0.9289 -0.2589
vn 0.3511 -0.7972 -0.4910
vn 0.5569 -0.6229 -0.5494
vn 0.5022 -0.8116 -0.2984
vn -0.4770 0.0466 -0.8777
vn -0.8946 0.0547 -0.4436
vn -0.9867 0.0453 -0.1563
vn -0.9683 0.0298 -0.2482
vn -0.4947 0.0042 -0.8690
vn -0.8773 0.0243 -0.4794
vn -0.5017 -0.0290 -0.8645
vn -0.8731 -0.0004 -0.4876
vn -0.9469 0.0082 -0.3215
vn -0.9474 0.0020 -0.3200
vn 0.2682 -0.0426 -0.9624
vn -0.8803 -0.0142 -0.4741
vn -0.9697 -0.0126 -0.2439
vn -0.4512 -0.0455 -0.8913
vn -0.8947 -0.0387 -0.4450
vn -0.9852 -0.0277 -0.1691
vn 0.4301 -0.0953 -0.8978
vn -0.3802 -0.0978 -0.9197
vn -0.9110 -0.0694 -0.4066
vn -0.9900 -0.0346 -0.1365
vn -0.3523 -0.1545 -0.9230
vn -0.9175 -0.0816 -0.3893
vn -0.3518 -0.1811 -0.9184
vn -0.7352 0.6750 -0.0618
vn -0.7616 0.5491 -0.3441
vn -0.6159 0.6512 -0.4434
vn -0.4713 0.4962 -0.7291
vn -0.8234 0.5658 -0.0432
vn -0.6350 0.4184 -0.6494
vn -0.4242 0.3191 -0.8475
vn -0.9538 0.1570 -0.2560
vn -0.8161 0.5495 0.1792
vn -0.5873 0.2169 -0.7797
vn -0.4148 -0.0689 -0.9073
vn -0.9013 0.1129 -0.4183
vn -0.9764 0.2034 -0.0721
vn -0.9365 -0.1931 -0.2928
vn -0.8087 0.0259 -0.5877
vn -0.5408 -0.2212 -0.8116
vn -0.4151 -0.6734 -0.6117
vn -0.7934 -0.3354 -0.5080
vn -0.5416 -0.5798 -0.6087
vn -0.3764 -0.8365 -0.3981
vn -0.9148 -0.3230 -0.2425
vn -0.5246 -0.7346 -0.4303
vn -0.7746 -0.5275 -0.3491
vn -0.4180 -0.8815 -0.2197
vn -0.1862 -0.9750 -0.1210
vn -0.9532 -0.3018 -0.0181
vn -0.8058 -0.5630 -0.1837
vn -0.3423 -0.9226 0.1778
vn -0.1317 -0.9369 0.3238
vn -0.7663 -0.6345 0.1011
vn -0.3829 -0.7296 0.5666
vn -0.2431 -0.7337 0.6345
vn -0.7803 -0.5335 0.3263
vn -0.4902 -0.4508 0.7459
vn -0.8010 -0.3687 0.4717
vn -0.6276 -0.0024 0.7785
vn -0.7009 0.3408 0.6266
vn -0.9027 -0.0735 0.4240
vn -0.7777 0.4627 0.4256
vn -0.8840 0.2482 0.3963
vn -0.9677 0.2217 0.1199
vn -0.9791 -0.1855 0.0832
vn -0.9764 -0.1954 -0.0922
vt 0.049896 -0.406250
vt 0.047455 -0.424561
vt 0.038879 -0.421875
vt 0.040802 -0.403809
vt 0.073181 -0.474365
vt 0.068542 -0.497070
vt 0.059387 -0.495361
vt 0.055176 -0.471680
vt 0.080750 -0.475098
vt 0.076660 -0.498779
vt 0.128540 -0.448242
vt 0.138062 -0.444580
vt 0.147217 -0.465576
vt 0.135742 -0.471680
vt 0.137939 -0.523438
vt 0.132446 -0.504883
vt 0.144165 -0.496826
vt 0.151123 -0.514648
vt 0.113831 -0.211548
vt 0.122314 -0.204224
vt 0.124207 -0.208008
vt 0.113586 -0.215698
vt 0.118774 -0.199219
vt 0.113953 -0.203491
vt 0.112122 -0.200317
vt 0.116760 -0.197632
vt 0.109375 -0.430908
vt 0.111511 -0.452881
vt 0.102905 -0.453613
vt 0.101562 -0.431396
vt 0.096130 -0.192383
vt 0.092651 -0.197754
vt 0.091309 -0.196777
vt 0.094055 -0.192749
vt 0.203247 -0.541992
vt 0.201660 -0.524414
vt 0.215698 -0.525391
vt 0.209717 -0.542480
vt 0.052917 -0.551270
vt 0.054688 -0.561523
vt 0.048187 -0.561035
vt 0.047821 -0.551270
vt 0.074280 -0.226440
vt 0.074951 -0.228516
vt 0.067932 -0.228271
vt 0.067932 -0.225586
vt 0.079834 -0.326660
vt 0.084290 -0.350342
vt 0.073853 -0.349609
vt 0.073975 -0.326172
vt 0.114075 -0.409668
vt 0.116760 -0.429688
vt 0.107483 -0.410889
vt 0.094971 -0.189941
vt 0.092102 -0.192871
vt 0.090332 -0.192871
vt 0.093201 -0.189209
vt 0.082153 -0.225220
vt 0.082336 -0.228394
vt 0.078369 -0.227417
vt 0.077454 -0.224731
vt 0.104553 -0.505859
vt 0.104614 -0.523438
vt 0.093201 -0.520508
vt 0.093567 -0.503418
vt 0.042969 -0.551270
vt 0.040375 -0.561035
vt 0.033813 -0.557617
vt 0.036407 -0.548828
vt 0.045135 -0.245972
vt 0.056000 -0.242920
vt 0.055878 -0.262207
vt 0.045624 -0.250488
vt 0.180786 -0.532227
vt 0.190674 -0.528320
vt 0.193359 -0.543945
vt 0.187622 -0.545898
vt 0.095032 -0.265381
vt 0.095215 -0.279541
vt 0.087585 -0.277588
vt 0.087219 -0.263672
vt 0.128174 -0.267822
vt 0.117981 -0.269043
vt 0.116821 -0.254883
vt 0.128174 -0.249634
vt 0.119934 -0.451172
vt 0.125488 -0.476807
vt 0.114990 -0.478760
vt 0.109497 -0.267578
vt 0.118713 -0.283203
vt 0.110535 -0.282227
vt 0.095032 -0.198120
vt 0.093994 -0.201172
vt 0.089844 -0.200684
vt 0.065247 -0.239014
vt 0.064697 -0.242554
vt 0.056244 -0.238892
vt 0.057587 -0.532715
vt 0.055695 -0.542480
vt 0.052948 -0.541504
vt 0.050293 -0.532715
vt 0.008827 -0.536133
vt 0.014076 -0.523926
vt 0.018311 -0.525391
vt 0.016632 -0.539551
vt 0.085999 -0.231812
vt 0.086243 -0.236084
vt 0.082703 -0.234375
vt 0.082520 -0.230591
vt 0.087891 -0.219360
vt 0.081970 -0.218018
vt 0.082947 -0.215088
vt 0.088623 -0.216919
vt 0.089111 -0.559082
vt 0.075073 -0.554688
vt 0.072632 -0.530273
vt 0.093323 -0.535156
vt 0.146240 -0.595215
vt 0.164185 -0.592285
vt 0.166992 -0.604492
vt 0.147827 -0.604492
vt 0.094482 -0.477539
vt 0.219482 -0.558594
vt 0.216675 -0.543945
vt 0.230103 -0.533203
vt 0.240723 -0.549316
vt 0.073364 -0.238892
vt 0.078369 -0.240112
vt 0.077454 -0.245605
vt 0.072266 -0.243530
vt 0.097351 -0.233276
vt 0.092407 -0.232666
vt 0.092651 -0.229980
vt 0.097595 -0.230957
vt 0.078857 -0.229370
vt 0.173462 -0.632812
vt 0.174561 -0.656250
vt 0.154907 -0.649414
vt 0.151733 -0.629395
vt 0.085693 -0.201782
vt 0.088928 -0.203125
vt 0.087585 -0.205811
vt 0.083557 -0.204468
vt 0.064026 -0.512695
vt 0.053650 -0.510254
vt 0.156494 -0.486816
vt 0.165771 -0.501953
vt 0.074463 -0.514648
vt 0.185181 -0.580566
vt 0.197754 -0.582031
vt 0.198730 -0.591309
vt 0.178223 -0.588867
vt 0.102600 -0.205933
vt 0.102295 -0.209106
vt 0.099304 -0.208740
vt 0.099976 -0.205811
vt 0.061859 -0.391602
vt 0.058136 -0.407959
vt 0.054077 -0.390625
vt 0.116150 -0.375244
vt 0.109863 -0.375732
vt 0.109680 -0.354492
vt 0.116211 -0.354004
vt 0.109863 -0.332275
vt 0.105225 -0.354492
vt 0.105469 -0.332031
vt 0.083862 -0.452148
vt 0.076050 -0.451416
vt 0.196289 -0.554688
vt 0.211792 -0.552734
vt 0.063843 -0.428467
vt 0.055481 -0.427002
vt 0.065796 -0.408936
vt 0.087524 -0.199707
vt 0.060303 -0.450195
vt 0.045013 -0.467773
vt 0.051941 -0.447021
vt 0.121765 -0.407715
vt 0.112122 -0.395752
vt 0.119324 -0.394531
vt 0.143677 -0.542480
vt 0.157837 -0.528320
vt 0.095886 -0.305176
vt 0.096252 -0.330078
vt 0.088989 -0.328125
vt 0.088501 -0.302979
vt 0.066833 -0.232910
vt 0.065918 -0.235962
vt 0.056885 -0.235229
vt 0.057831 -0.229492
vt 0.100159 -0.280518
vt 0.100708 -0.306396
vt 0.133789 -0.603516
vt 0.136963 -0.633789
vt 0.054413 -0.568359
vt 0.050507 -0.571777
vt 0.044708 -0.565430
vt 0.044067 -0.443848
vt 0.036987 -0.439941
vt 0.104492 -0.229492
vt 0.101440 -0.229248
vt 0.102844 -0.221191
vt 0.106384 -0.220215
vt 0.094055 -0.410645
vt 0.094543 -0.430908
vt 0.084961 -0.430420
vt 0.085449 -0.410400
vt 0.011673 -0.555664
vt 0.018341 -0.556641
vt 0.018951 -0.576660
vt 0.009865 -0.577148
vt 0.109253 -0.203003
vt 0.107666 -0.200928
vt 0.110107 -0.198242
vt 0.123779 -0.331787
vt 0.123230 -0.353271
vt 0.116638 -0.332031
vt 0.070557 -0.206787
vt 0.073486 -0.199463
vt 0.077087 -0.197998
vt 0.075378 -0.204224
vt 0.101624 -0.199585
vt 0.102661 -0.203979
vt 0.100281 -0.203613
vt 0.099670 -0.199463
vt 0.095337 -0.221313
vt 0.095764 -0.218750
vt 0.101318 -0.215942
vt 0.096436 -0.216309
vt 0.098694 -0.212524
vt 0.102234 -0.212524
vt 0.104736 -0.232910
vt 0.101440 -0.234741
vt 0.093384 -0.227173
vt 0.086670 -0.225708
vt 0.072449 -0.372070
vt 0.082764 -0.372559
vt 0.095154 -0.453369
vt 0.035278 -0.487793
vt 0.027069 -0.500000
vt 0.018875 -0.491455
vt 0.027618 -0.480713
vt 0.079163 -0.235596
vt 0.074402 -0.234985
vt 0.093140 -0.203369
vt 0.100464 -0.411133
vt 0.086182 -0.229004
vt 0.092224 -0.206055
vt 0.098022 -0.228516
vt 0.099182 -0.221558
vt 0.120789 -0.636719
vt 0.118164 -0.603027
vt 0.066711 -0.326904
vt 0.067139 -0.349609
vt 0.059082 -0.351074
vt 0.058899 -0.329102
vt 0.128052 -0.286377
vt 0.125977 -0.309082
vt 0.117981 -0.308594
vt 0.081177 -0.205933
vt 0.080017 -0.203491
vt 0.083069 -0.202026
vt 0.053772 -0.582031
vt 0.065063 -0.586914
vt 0.056702 -0.593750
vt 0.046844 -0.588867
vt 0.187988 -0.512695
vt 0.207153 -0.505859
vt 0.079285 -0.233032
vt 0.074890 -0.232422
vt 0.087830 -0.373291
vt 0.078979 -0.409912
vt 0.082703 -0.237183
vt 0.082336 -0.242310
vt 0.090942 -0.210205
vt 0.089539 -0.214355
vt 0.084534 -0.211914
vt 0.086121 -0.208984
vt 0.042908 -0.225830
vt 0.044006 -0.235840
vt 0.108032 -0.254150
vt 0.104797 -0.266602
vt 0.103516 -0.253418
vt 0.045380 -0.391846
vt 0.105042 -0.204224
vt 0.104492 -0.202393
vt 0.141968 -0.575195
vt 0.130249 -0.577148
vt 0.128418 -0.562500
vt 0.141357 -0.561035
vt 0.124878 -0.427246
vt 0.134033 -0.425049
vt 0.070435 -0.212524
vt 0.073120 -0.223877
vt 0.067383 -0.222412
vt 0.063843 -0.208984
vt 0.072021 -0.274170
vt 0.071594 -0.256592
vt 0.077087 -0.258301
vt 0.077820 -0.275146
vt 0.080505 -0.200928
vt 0.084229 -0.199097
vt 0.110718 -0.206665
vt 0.106140 -0.210449
vt 0.105591 -0.206909
vt 0.083740 -0.194580
vt 0.087646 -0.193237
vt 0.087646 -0.197388
vt 0.122620 -0.374756
vt 0.110535 -0.308350
vt 0.081909 -0.248901
vt 0.082092 -0.260986
vt 0.036682 -0.462646
vt 0.029327 -0.457520
vt 0.105408 -0.236328
vt 0.113159 -0.232178
vt 0.114258 -0.237183
vt 0.106384 -0.243286
vt 0.121704 -0.525391
vt 0.118958 -0.507324
vt 0.177124 -0.576172
vt 0.170410 -0.583984
vt 0.114014 -0.207642
vt 0.120361 -0.200562
vt 0.104004 -0.478760
vt 0.057861 -0.305176
vt 0.056580 -0.279053
vt 0.064514 -0.274414
vt 0.065796 -0.301758
vt 0.072693 -0.409668
vt 0.071106 -0.429443
vt 0.068787 -0.451172
vt 0.072327 -0.209229
vt 0.076111 -0.206299
vt 0.078979 -0.208740
vt 0.076721 -0.211914
vt 0.073792 -0.584961
vt 0.082336 -0.596680
vt 0.037354 -0.568359
vt 0.030273 -0.571289
vt 0.029892 -0.556152
vt 0.019318 -0.511230
vt 0.035919 -0.516113
vt 0.028290 -0.529297
vt 0.073242 -0.300781
vt 0.079163 -0.301025
vt 0.124207 -0.217163
vt 0.125488 -0.224365
vt 0.112244 -0.227295
vt 0.100159 -0.218872
vt 0.113953 -0.194214
vt 0.108154 -0.196655
vt 0.111694 -0.191528
vt 0.131836 -0.592773
vt 0.117981 -0.592285
vt 0.116211 -0.579102
vt 0.104553 -0.562988
vt 0.093323 -0.597656
vt 0.081543 -0.572754
vt 0.114990 -0.563477
vt 0.124634 -0.542480
vt 0.104675 -0.541504
vt 0.064148 -0.575684
vt 0.070129 -0.567871
vt 0.044037 -0.575195
vt 0.035706 -0.583496
vt 0.059845 -0.578613
vt 0.059601 -0.563477
vt 0.061493 -0.552734
vt 0.065796 -0.539062
vt 0.046570 -0.545410
vt 0.059021 -0.524902
vt 0.040863 -0.540527
vt 0.046570 -0.524414
vt 0.035980 -0.537598
vt 0.031891 -0.546387
vt 0.023621 -0.557129
vt 0.024673 -0.572266
vt 0.028214 -0.590332
vt 0.019775 -0.589844
vt 0.011345 -0.588867
vt 0.026245 -0.543945
vt 0.021759 -0.541992
vt 0.033844 -0.533203
vt 0.002460 -0.572754
vt 0.002962 -0.553223
vt 0.009956 -0.500000
vt 0.058746 -0.372559
vt 0.052277 -0.373779
vt 0.052246 -0.352783
vt 0.063965 -0.256592
vt 0.045166 -0.218140
vt 0.046173 -0.208740
vt 0.053253 -0.208862
vt 0.057007 -0.219482
vt 0.079895 -0.193115
vt 0.082214 -0.190552
vt 0.080383 -0.196045
vt 0.084473 -0.187988
vt 0.089661 -0.196411
vt 0.086060 -0.199829
vt 0.076294 -0.215210
vt 0.104797 -0.214355
vt 0.103516 -0.217773
vt 0.104126 -0.194458
vt 0.106384 -0.199463
vt 0.052216 -0.331543
vt 0.109314 -0.211548
vt 0.107605 -0.215698
vt 0.126709 -0.231445
vt 0.105408 -0.281494
vt 0.051178 -0.309082
vt 0.170410 -0.539062
vt 0.163452 -0.548340
vt 0.100891 -0.331299
vt 0.100037 -0.265869
vt 0.099121 -0.252930
vt 0.102295 -0.247192
vt 0.097778 -0.246216
vt 0.094360 -0.253174
vt 0.086914 -0.251953
vt 0.096802 -0.240601
vt 0.093445 -0.245850
vt 0.092651 -0.240112
vt 0.082825 -0.276367
vt 0.086731 -0.244873
vt 0.086548 -0.239136
vt 0.092407 -0.237305
vt 0.096802 -0.237915
vt 0.222534 -0.515625
vt 0.237793 -0.525391
vt 0.175171 -0.517090
vt 0.231689 -0.564453
vt 0.250244 -0.547363
vt 0.237427 -0.569336
vt 0.229004 -0.583984
vt 0.223999 -0.575195
vt 0.216553 -0.568848
vt 0.211304 -0.584961
vt 0.207642 -0.575684
vt 0.211670 -0.591309
vt 0.196411 -0.597656
vt 0.173950 -0.593750
vt 0.147583 -0.561035
vt 0.160278 -0.561523
vt 0.176270 -0.559570
vt 0.176392 -0.551758
vt 0.187378 -0.557129
vt 0.106934 -0.668457
vt 0.124634 -0.673340
vt 0.114563 -0.687500
vt 0.122131 -0.656250
vt 0.141113 -0.673828
vt 0.157471 -0.674316
vt 0.095398 -0.613770
vt 0.100159 -0.651855
vt 0.050140 -0.286621
vt 0.048218 -0.492676
vt 0.100098 -0.396484
vt 0.094727 -0.374512
vt 0.100464 -0.354004
vt 0.095886 -0.353027
vt 0.105042 -0.375977
vt 0.127930 -0.246216
vt 0.115112 -0.241943
vt 0.127319 -0.238647
vt 0.101379 -0.241699
vt 0.084045 -0.301758
vt 0.088806 -0.351074
vt 0.057648 -0.224731
vt 0.047882 -0.268555
vt 0.087341 -0.188110
vt 0.103943 -0.191895
vt 0.095581 -0.191162
vt 0.002132 -0.585449
vt 0.066040 -0.371826
vt 0.214233 -0.560547
vt 0.197998 -0.566406
vt 0.127075 -0.393066
vt 0.090942 -0.188232
vt 0.012688 -0.483887
vt 0.021683 -0.475342
vt 0.105713 -0.307617
vt 0.003706 -0.492432
vt 0.175903 -0.682617
vt 0.044037 -0.221924
vt 0.130005 -0.405273
s 1
g off
g leg_1_izq_Material
usemtl Material
f 429/1/429 427/2/427 425/3/425 430/4/430
f 102/5/102 98/6/98 100/7/100 104/8/104
f 101/9/101 94/10/94 98/6/98 102/5/102
f 145/11/145 147/12/147 149/13/149 152/14/152
f 117/15/117 115/16/115 154/17/154 156/18/156
f 346/19/346 205/20/205 204/21/204 203/22/203
f 353/23/353 352/24/352 360/25/360 361/26/361
f 111/27/111 108/28/108 107/29/107 109/30/109
f 372/31/372 387/32/387 388/33/388 390/34/390
f 452/35/452 446/36/446 450/37/450 456/38/456
f 60/39/60 56/40/56 57/41/57 65/42/65
f 286/43/286 275/44/275 272/45/272 288/46/288
f 221/47/221 219/48/219 223/49/223 251/50/251
f 140/51/140 138/52/138 111/27/111 135/53/135
f 395/54/395 394/55/394 397/56/397 398/57/398
f 284/58/284 281/59/281 283/60/283 289/61/289
f 90/62/90 87/63/87 88/64/88 89/65/89
f 61/66/61 58/67/58 63/68/63 72/69/72
f 256/70/256 249/71/249 250/72/250 254/73/254
f 453/74/453 449/75/449 457/76/457 485/77/485
f 211/78/211 210/79/210 214/80/214 217/81/217
f 179/82/179 178/83/178 182/84/182 183/85/183
f 112/86/112 110/87/110 93/88/93 108/28/108
f 181/89/181 178/83/178 175/90/175 177/91/177
f 387/32/387 386/92/386 384/93/384 385/94/385
f 247/95/247 244/96/244 249/71/249 258/97/258
f 75/98/75 69/99/69 70/100/70 73/101/73
f 408/102/408 407/103/407 406/104/406 411/105/411
f 276/106/276 238/107/238 273/108/273 277/109/277
f 303/110/303 297/111/297 300/112/300 330/113/330
f 40/114/40 54/115/54 83/116/83 85/117/85
f 22/118/22 20/119/20 16/120/16 19/121/19
f 96/122/96 89/65/89 94/10/94 101/9/101
f 462/123/462 459/124/459 454/125/454 460/126/460
f 241/127/241 239/128/239 235/129/235 240/130/240
f 282/131/282 279/132/279 285/133/285 310/134/310
f 281/59/281 277/109/277 278/135/278 283/60/283
f 13/136/13 12/137/12 7/138/7 15/139/15
f 329/140/329 382/141/382 381/142/381 327/143/327
f 98/6/98 92/144/92 97/145/97 100/7/100
f 110/87/110 112/86/112 145/11/145 152/14/152
f 154/17/154 153/146/153 155/147/155 156/18/156
f 88/64/88 85/117/85 83/116/83 86/148/86
f 477/149/477 474/150/474 472/151/472 475/152/475
f 375/153/375 357/154/357 377/155/377 378/156/378
f 435/157/435 428/158/428 429/1/429 433/159/433
f 159/160/159 161/161/161 165/162/165 162/163/162
f 169/164/169 165/162/165 164/165/164 166/166/166
f 106/167/106 101/9/101 102/5/102 119/168/119
f 487/169/487 457/76/457 452/35/452 458/170/458
f 124/171/124 426/172/426 428/158/428 432/173/432
f 389/174/389 385/94/385 382/141/382 329/140/329
f 122/175/122 104/8/104 123/176/123 422/177/422
f 144/178/144 140/51/140 142/179/142 150/180/150
f 34/181/34 117/15/117 156/18/156 158/182/158
f 192/183/192 141/184/141 195/185/195 213/186/213
f 267/187/267 264/188/264 262/189/262 265/190/265
f 191/191/191 185/192/185 192/183/192 210/79/210
f 21/193/21 19/121/19 15/139/15 18/194/18
f 57/41/57 50/195/50 49/196/49 52/197/52
f 423/198/423 424/199/424 425/3/425 427/2/427
f 341/200/341 337/201/337 340/202/340 342/203/342
f 116/204/116 113/205/113 118/206/118 128/207/128
f 415/208/415 78/209/78 416/210/416 419/211/419
f 360/25/360 359/212/359 365/213/365 363/214/363
f 168/215/168 163/216/163 162/163/162 167/217/167
f 304/218/304 305/219/305 307/220/307 313/221/313
f 373/222/373 374/223/374 376/224/376 383/225/383
f 332/226/332 303/110/303 330/113/330 333/227/333
f 345/228/345 336/229/336 354/230/354 351/231/351
f 201/232/201 339/233/339 337/201/337 341/200/341
f 306/234/306 287/235/287 303/110/303 332/226/332
f 438/236/438 223/49/223 219/48/219 132/237/132
f 113/205/113 105/238/105 106/167/106 118/206/118
f 125/239/125 127/240/127 402/241/402 404/242/404
f 270/243/270 239/128/239 241/127/241 268/244/268
f 376/224/376 378/156/378 380/245/380 384/93/384
f 111/27/111 109/30/109 114/246/114 135/53/135
f 280/247/280 276/106/276 277/109/277 281/59/281
f 378/156/378 377/155/377 379/248/379 380/245/380
f 337/201/337 334/249/334 335/250/335 340/202/340
f 94/10/94 86/148/86 92/144/92 98/6/98
f 21/193/21 18/194/18 9/251/9 14/252/14
f 444/253/444 442/254/442 440/255/440 443/256/443
f 176/257/176 171/258/171 170/259/170 175/90/175
f 327/143/327 324/260/324 321/261/321 322/262/322
f 44/263/44 41/264/41 42/265/42 45/266/45
f 449/75/449 445/267/445 447/268/447 446/36/446
f 274/269/274 270/243/270 268/244/268 271/270/271
f 130/271/130 128/207/128 126/272/126 132/237/132
f 237/273/237 233/274/233 239/128/239 270/243/270
f 331/275/331 328/276/328 325/277/325 326/278/326
f 263/279/263 262/189/262 258/97/258 259/280/259
f 115/16/115 110/87/110 152/14/152 154/17/154
f 189/281/189 181/89/181 190/282/190 207/283/207
f 152/14/152 149/13/149 153/146/153 154/17/154
f 429/1/429 430/4/430 431/284/431 433/159/433
f 365/213/365 359/212/359 362/285/362 368/286/368
f 25/287/25 26/288/26 30/289/30 31/290/31
f 162/163/162 165/162/165 169/164/169 167/217/167
f 145/11/145 143/291/143 146/292/146 147/12/147
f 299/293/299 290/294/290 296/295/296 295/296/295
f 243/297/243 242/298/242 232/299/232 231/300/231
f 316/301/316 320/302/320 322/262/322 321/261/321
f 210/79/210 192/183/192 213/186/213 214/80/214
f 356/303/356 355/304/355 358/305/358 359/212/359
f 320/302/320 314/306/314 318/307/318 396/308/396
f 163/216/163 160/309/160 159/160/159 162/163/162
f 170/259/170 172/310/172 177/91/177 175/90/175
f 230/311/230 227/312/227 232/299/232 235/129/235
f 423/198/423 409/313/409 410/314/410 424/199/424
f 199/315/199 196/316/196 193/317/193 198/318/198
f 37/319/37 91/320/91 115/16/115 117/15/117
f 167/217/167 169/164/169 172/310/172 170/259/170
f 479/321/479 477/149/477 475/152/475 478/322/478
f 150/180/150 142/179/142 161/161/161 159/160/159
f 205/20/205 346/19/346 349/323/349 350/324/350
f 93/88/93 91/320/91 90/62/90 95/325/95
f 336/229/336 328/276/328 331/275/331 354/230/354
f 260/326/260 253/327/253 248/328/248 252/329/252
f 129/330/129 432/173/432 438/236/438 132/237/132
f 123/176/123 125/239/125 404/242/404 409/313/409
f 121/331/121 120/332/120 122/175/122 124/171/124
f 302/333/302 317/334/317 323/335/323 301/336/301
f 41/264/41 38/337/38 39/338/39 42/265/42
f 124/171/124 122/175/122 422/177/422 426/172/426
f 63/68/63 55/339/55 64/340/64 74/341/74
f 145/11/145 112/86/112 138/52/138 143/291/143
f 406/104/406 403/342/403 99/343/99 413/344/413
f 245/345/245 243/297/243 231/300/231 225/346/225
f 197/347/197 194/348/194 196/316/196 200/349/200
f 338/350/338 333/227/333 336/229/336 345/228/345
f 364/351/364 363/214/363 366/352/366 367/353/367
f 19/121/19 16/120/16 13/136/13 15/139/15
f 25/287/25 22/118/22 23/354/23 26/288/26
f 26/288/26 23/354/23 24/355/24 27/356/27
f 28/357/28 27/356/27 17/358/17 36/359/36
f 26/288/26 27/356/27 29/360/29 30/289/30
f 32/361/32 29/360/29 28/357/28 35/362/35
f 37/319/37 32/361/32 35/362/35 87/63/87
f 35/362/35 28/357/28 40/114/40 85/117/85
f 36/359/36 38/337/38 43/363/43 51/364/51
f 47/365/47 44/263/44 45/266/45 48/366/48
f 49/196/49 46/367/46 44/263/44 47/365/47
f 40/114/40 36/359/36 51/364/51 54/115/54
f 52/197/52 49/196/49 47/365/47 55/339/55
f 54/115/54 51/364/51 53/368/53 59/369/59
f 55/339/55 47/365/47 48/366/48 64/340/64
f 52/197/52 55/339/55 58/67/58 57/41/57
f 57/41/57 58/67/58 61/66/61 65/42/65
f 69/99/69 62/370/62 54/115/54 59/369/59
f 70/100/70 60/39/60 65/42/65 68/371/68
f 83/116/83 62/370/62 75/98/75 84/372/84
f 73/101/73 70/100/70 68/371/68 71/373/71
f 72/69/72 71/373/71 68/371/68 61/66/61
f 81/374/81 73/101/73 71/373/71 79/375/79
f 72/69/72 63/68/63 74/341/74 77/376/77
f 76/377/76 74/341/74 64/340/64 66/378/66
f 416/210/416 66/378/66 67/379/67 417/380/417
f 416/210/416 417/380/417 418/381/418 419/211/419
f 416/210/416 78/209/78 76/377/76 66/378/66
f 80/382/80 76/377/76 78/209/78 414/383/414
f 79/375/79 77/376/77 80/382/80 82/384/82
f 420/385/420 412/386/412 415/208/415 419/211/419
f 415/208/415 411/105/411 414/383/414 78/209/78
f 411/105/411 406/104/406 413/344/413 414/383/414
f 413/344/413 82/384/82 80/382/80 414/383/414
f 401/387/401 402/241/402 127/240/127 403/342/403
f 326/278/326 324/260/324 327/143/327 381/142/381
f 436/388/436 434/389/434 437/390/437 440/255/440
f 246/391/246 242/298/242 243/297/243 248/328/248
f 264/188/264 247/95/247 258/97/258 262/189/262
f 264/188/264 241/127/241 240/130/240 247/95/247
f 272/45/272 271/270/271 268/244/268 267/187/267
f 292/392/292 294/393/294 293/394/293 291/395/291
f 290/294/290 286/43/286 288/46/288 296/295/296
f 289/61/289 283/60/283 286/43/286 290/294/290
f 286/43/286 283/60/283 278/135/278 275/44/275
f 302/333/302 299/293/299 295/296/295 304/218/304
f 307/220/307 308/396/308 309/397/309 311/398/311
f 311/398/311 309/397/309 312/399/312 314/306/314
f 313/221/313 307/220/307 311/398/311 316/301/316
f 316/301/316 311/398/311 314/306/314 320/302/320
f 392/400/392 388/33/388 389/174/389 393/401/393
f 323/335/323 324/260/324 326/278/326 325/277/325
f 301/336/301 323/335/323 325/277/325 300/112/300
f 379/248/379 381/142/381 382/141/382 380/245/380
f 380/245/380 382/141/382 385/94/385 384/93/384
f 300/112/300 297/111/297 298/402/298 301/336/301
f 383/225/383 376/224/376 384/93/384 386/92/386
f 287/235/287 284/58/284 297/111/297 303/110/303
f 376/224/376 374/223/374 375/153/375 378/156/378
f 333/227/333 330/113/330 328/276/328 336/229/336
f 379/248/379 377/155/377 354/230/354 331/275/331
f 335/250/335 332/226/332 333/227/333 338/350/338
f 347/403/347 343/404/343 345/228/345 351/231/351
f 355/304/355 351/231/351 357/154/357 358/305/358
f 357/154/357 375/153/375 362/285/362 358/305/358
f 374/223/374 368/286/368 362/285/362 375/153/375
f 369/405/369 366/352/366 371/406/371 373/222/373
f 366/352/366 363/214/363 365/213/365 371/406/371
f 440/255/440 437/390/437 441/407/441 443/256/443
f 350/324/350 349/323/349 352/24/352 353/23/353
f 348/408/348 346/19/346 203/22/203 344/409/344
f 197/347/197 200/349/200 203/22/203 204/21/204
f 342/203/342 340/202/340 343/404/343 344/409/344
f 194/348/194 188/410/188 193/317/193 196/316/196
f 176/257/176 175/90/175 178/83/178 179/82/179
f 181/89/181 177/91/177 180/411/180 190/282/190
f 443/256/443 441/407/441 261/412/261 260/326/260
f 32/361/32 37/319/37 117/15/117 34/181/34
f 483/413/483 481/414/481 34/181/34 158/182/158
f 185/192/185 174/415/174 141/184/141 192/183/192
f 207/283/207 190/282/190 208/416/208 209/417/209
f 208/416/208 191/191/191 210/79/210 211/78/211
f 206/418/206 207/283/207 209/417/209 212/419/212
f 209/417/209 208/416/208 211/78/211 216/420/216
f 216/420/216 211/78/211 217/81/217 220/421/220
f 224/422/224 212/419/212 222/423/222 228/424/228
f 372/31/372 369/405/369 373/222/373 383/225/383
f 217/81/217 214/80/214 218/425/218 227/312/227
f 220/421/220 217/81/217 227/312/227 230/311/230
f 229/426/229 220/421/220 230/311/230 233/274/233
f 233/274/233 230/311/230 235/129/235 239/128/239
f 228/424/228 222/423/222 229/426/229 234/427/234
f 234/427/234 229/426/229 233/274/233 237/273/237
f 274/269/274 271/270/271 275/44/275 278/135/278
f 238/107/238 234/427/234 237/273/237 273/108/273
f 277/109/277 273/108/273 274/269/274 278/135/278
f 279/132/279 276/106/276 280/247/280 285/133/285
f 236/428/236 228/424/228 234/427/234 238/107/238
f 236/428/236 279/132/279 282/131/282 226/429/226
f 226/429/226 224/422/224 228/424/228 236/428/236
f 310/134/310 285/133/285 306/234/306 334/249/334
f 335/250/335 334/249/334 306/234/306 332/226/332
f 454/125/454 450/37/450 448/430/448 451/431/451
f 457/76/457 449/75/449 446/36/446 452/35/452
f 158/182/158 157/432/157 453/74/453 483/413/483
f 463/433/463 460/126/460 455/434/455 461/435/461
f 463/433/463 461/435/461 464/436/464 466/437/466
f 467/438/467 466/437/466 468/439/468 471/440/471
f 472/151/472 468/439/468 469/441/469 473/442/473
f 474/150/474 471/440/471 468/439/468 472/151/472
f 475/152/475 472/151/472 473/442/473 476/443/476
f 478/322/478 20/119/20 33/444/33 480/445/480
f 479/321/479 478/322/478 480/445/480 482/446/482
f 482/446/482 480/445/480 481/414/481 484/447/484
f 485/77/485 486/448/486 482/446/482 484/447/484
f 1/449/1 3/450/3 2/451/2
f 3/450/3 1/449/1 4/452/4
f 4/452/4 5/453/5 3/450/3
f 4/452/4 7/138/7 5/453/5
f 7/138/7 8/454/8 5/453/5
f 9/251/9 7/138/7 4/452/4
f 10/455/10 9/251/9 6/456/6
f 7/138/7 18/194/18 15/139/15
f 7/138/7 9/251/9 18/194/18
f 14/252/14 17/358/17 24/355/24
f 257/457/257 253/327/253 260/326/260 261/412/261
f 25/287/25 20/119/20 22/118/22
f 17/358/17 27/356/27 24/355/24
f 28/357/28 29/360/29 27/356/27
f 29/360/29 32/361/32 30/289/30
f 33/444/33 25/287/25 31/290/31
f 20/119/20 25/287/25 33/444/33
f 34/181/34 33/444/33 31/290/31
f 36/359/36 17/358/17 38/337/38
f 39/338/39 38/337/38 17/358/17
f 28/357/28 36/359/36 40/114/40
f 41/264/41 44/263/44 46/367/46
f 50/195/50 56/40/56 53/368/53
f 50/195/50 57/41/57 56/40/56
f 58/67/58 55/339/55 63/68/63
f 65/42/65 61/66/61 68/371/68
f 59/369/59 60/39/60 69/99/69
f 60/39/60 70/100/70 69/99/69
f 62/370/62 69/99/69 75/98/75
f 82/384/82 81/374/81 79/375/79
f 54/115/54 62/370/62 83/116/83
f 99/343/99 97/145/97 81/374/81
f 103/458/103 100/7/100 97/145/97
f 103/458/103 104/8/104 100/7/100
f 119/168/119 102/5/102 120/332/120
f 120/332/120 121/331/121 119/168/119
f 103/458/103 127/240/127 125/239/125
f 126/272/126 121/331/121 129/330/129
f 129/330/129 132/237/132 126/272/126
f 133/459/133 116/204/116 131/460/131
f 133/459/133 114/246/114 116/204/116
f 133/459/133 135/53/135 114/246/114
f 136/461/136 133/459/133 131/460/131
f 136/461/136 131/460/131 134/462/134
f 133/459/133 137/463/137 135/53/135
f 137/463/137 133/459/133 136/461/136
f 142/179/142 140/51/140 135/53/135
f 137/463/137 142/179/142 135/53/135
f 50/195/50 43/363/43 46/367/46 49/196/49
f 184/464/184 182/84/182 186/465/186 187/466/187
f 161/161/161 142/179/142 137/463/137
f 136/461/136 164/165/164 137/463/137
f 236/428/236 238/107/238 276/106/276 279/132/279
f 182/84/182 184/464/184 183/85/183
f 198/318/198 193/317/193 186/465/186
f 198/318/198 206/418/206 202/467/202
f 213/186/213 195/185/195 215/468/215
f 195/185/195 219/48/219 215/468/215
f 195/185/195 139/469/139 219/48/219
f 215/468/215 219/48/219 221/47/221
f 215/468/215 221/47/221 225/346/225
f 269/470/269 272/45/272 267/187/267 265/190/265
f 247/95/247 240/130/240 244/96/244
f 254/73/254 250/72/250 255/471/255
f 262/189/262 263/279/263 265/190/265
f 271/270/271 272/45/272 275/44/275
f 272/45/272 269/470/269 288/46/288
f 295/296/295 291/395/291 293/394/293
f 296/295/296 291/395/291 295/296/295
f 305/219/305 304/218/304 295/296/295
f 308/396/308 307/220/307 305/219/305
f 314/306/314 312/399/312 315/472/315
f 321/261/321 313/221/313 316/301/316
f 317/334/317 324/260/324 323/335/323
f 329/140/329 327/143/327 322/262/322
f 273/108/273 237/273/237 270/243/270 274/269/274
f 337/201/337 310/134/310 334/249/334
f 226/429/226 282/131/282 339/233/339
f 199/315/199 339/233/339 201/232/201
f 341/200/341 200/349/200 201/232/201
f 344/409/344 203/22/203 342/203/342
f 343/404/343 338/350/338 345/228/345
f 344/409/344 343/404/343 347/403/347
f 347/403/347 348/408/348 344/409/344
f 346/19/346 348/408/348 349/323/349
f 349/323/349 356/303/356 352/24/352
f 358/305/358 362/285/362 359/212/359
f 365/213/365 368/286/368 371/406/371
f 372/31/372 370/473/370 369/405/369
f 371/406/371 368/286/368 373/222/373
f 374/223/374 373/222/373 368/286/368
f 340/202/340 335/250/335 338/350/338 343/404/343
f 372/31/372 383/225/383 386/92/386
f 372/31/372 386/92/386 387/32/387
f 372/31/372 390/34/390 391/474/391
f 393/401/393 389/174/389 329/140/329
f 393/401/393 320/302/320 396/308/396
f 396/308/396 392/400/392 393/401/393
f 392/400/392 397/56/397 394/55/394
f 403/342/403 127/240/127 99/343/99
f 407/103/407 403/342/403 406/104/406
f 421/475/421 419/211/419 418/381/418
f 421/475/421 420/385/420 419/211/419
f 435/157/435 432/173/432 428/158/428
f 438/236/438 432/173/432 435/157/435
f 435/157/435 439/476/439 438/236/438
f 223/49/223 438/236/438 439/476/439 442/254/442
f 251/50/251 245/345/245 225/346/225 221/47/221
f 456/38/456 458/170/458 452/35/452
f 459/124/459 458/170/458 456/38/456
f 458/170/458 459/124/459 462/123/462
f 460/126/460 463/433/463 462/123/462
f 465/477/465 458/170/458 462/123/462
f 462/123/462 467/438/467 465/477/465
f 474/150/474 470/478/470 471/440/471
f 470/478/470 474/150/474 477/149/477
f 479/321/479 470/478/470 477/149/477
f 483/413/483 484/447/484 481/414/481
f 470/478/470 486/448/486 487/169/487
f 143/291/143 138/52/138 140/51/140 144/178/144
f 108/28/108 93/88/93 95/325/95 107/29/107
f 485/77/485 457/76/457 487/169/487 486/448/486
f 200/349/200 341/200/341 342/203/342 203/22/203
f 297/111/297 284/58/284 289/61/289 298/402/298
f 23/354/23 22/118/22 19/121/19 21/193/21
f 160/309/160 151/479/151 150/180/150 159/160/159
f 189/281/189 182/84/182 178/83/178 181/89/181
f 198/318/198 186/465/186 182/84/182 189/281/189
f 446/36/446 447/268/447 448/430/448 450/37/450
f 339/233/339 202/467/202 224/422/224 226/429/226
f 388/33/388 387/32/387 385/94/385 389/174/389
f 397/56/397 318/307/318 319/480/319 398/57/398
f 267/187/267 268/244/268 241/127/241 264/188/264
f 391/474/391 390/34/390 394/55/394 395/54/395
f 352/24/352 356/303/356 359/212/359 360/25/360
f 202/467/202 206/418/206 212/419/212 224/422/224
f 120/332/120 102/5/102 104/8/104 122/175/122
f 481/414/481 480/445/480 33/444/33 34/181/34
f 66/378/66 64/340/64 48/366/48 67/379/67
f 320/302/320 393/401/393 329/140/329 322/262/322
f 91/320/91 37/319/37 87/63/87 90/62/90
f 105/238/105 96/122/96 101/9/101 106/167/106
f 433/159/433 431/284/431 434/389/434 436/388/436
f 196/316/196 199/315/199 201/232/201 200/349/200
f 310/134/310 337/201/337 339/233/339 282/131/282
f 404/242/404 402/241/402 399/481/399 405/482/405
f 109/30/109 107/29/107 105/238/105 113/205/113
f 356/303/356 349/323/349 348/408/348 355/304/355
f 304/218/304 313/221/313 317/334/317 302/333/302
f 43/363/43 38/337/38 41/264/41 46/367/46
f 458/170/458 465/477/465 470/478/470 487/169/487
f 439/476/439 435/157/435 433/159/433 436/388/436
f 125/239/125 123/176/123 104/8/104 103/458/103
f 86/148/86 83/116/83 84/372/84 92/144/92
f 91/320/91 93/88/93 110/87/110 115/16/115
f 180/411/180 177/91/177 172/310/172 173/483/173
f 206/418/206 198/318/198 189/281/189 207/283/207
f 114/246/114 109/30/109 113/205/113 116/204/116
f 244/96/244 240/130/240 242/298/242 246/391/246
f 298/402/298 289/61/289 290/294/290 299/293/299
f 139/469/139 130/271/130 132/237/132 219/48/219
f 401/387/401 400/484/400 399/481/399 402/241/402
f 428/158/428 426/172/426 427/2/427 429/1/429
f 390/34/390 388/33/388 392/400/392 394/55/394
f 422/177/422 123/176/123 409/313/409 423/198/423
f 442/254/442 439/476/439 436/388/436 440/255/440
f 413/344/413 99/343/99 81/374/81 82/384/82
f 242/298/242 240/130/240 235/129/235 232/299/232
f 12/137/12 11/485/11 8/454/8 7/138/7
f 409/313/409 404/242/404 405/482/405 410/314/410
f 291/395/291 269/470/269 266/486/266 292/392/292
f 252/329/252 444/253/444 443/256/443 260/326/260
f 23/354/23 21/193/21 14/252/14 24/355/24
f 156/18/156 155/147/155 157/432/157 158/182/158
f 212/419/212 209/417/209 216/420/216 222/423/222
f 141/184/141 134/462/134 139/469/139 195/185/195
f 426/172/426 422/177/422 423/198/423 427/2/427
f 250/72/250 249/71/249 244/96/244 246/391/246
f 379/248/379 331/275/331 326/278/326 381/142/381
f 301/336/301 298/402/298 299/293/299 302/333/302
f 134/462/134 131/460/131 130/271/130 139/469/139
f 171/258/171 168/215/168 167/217/167 170/259/170
f 367/353/367 366/352/366 369/405/369 370/473/370
f 347/403/347 351/231/351 355/304/355 348/408/348
f 318/307/318 314/306/314 315/472/315 319/480/319
f 165/162/165 161/161/161 137/463/137 164/165/164
f 107/29/107 95/325/95 96/122/96 105/238/105
f 174/415/174 136/461/136 134/462/134 141/184/141
f 166/166/166 164/165/164 136/461/136 174/415/174
f 253/327/253 250/72/250 246/391/246 248/328/248
f 251/50/251 223/49/223 442/254/442 444/253/444
f 199/315/199 198/318/198 202/467/202 339/233/339
f 190/282/190 180/411/180 191/191/191 208/416/208
f 129/330/129 121/331/121 124/171/124 432/173/432
f 470/478/470 479/321/479 482/446/482 486/448/486
f 9/251/9 4/452/4 1/449/1 6/456/6
f 255/471/255 250/72/250 253/327/253 257/457/257
f 87/63/87 35/362/35 85/117/85 88/64/88
f 467/438/467 462/123/462 463/433/463 466/437/466
f 468/439/468 466/437/466 464/436/464 469/441/469
f 157/432/157 445/267/445 449/75/449 453/74/453
f 95/325/95 90/62/90 89/65/89 96/122/96
f 227/312/227 218/425/218 231/300/231 232/299/232
f 470/478/470 465/477/465 467/438/467 471/440/471
f 77/376/77 74/341/74 76/377/76 80/382/80
f 17/358/17 14/252/14 9/251/9 10/455/10
f 188/410/188 187/466/187 186/465/186 193/317/193
f 81/374/81 97/145/97 92/144/92 84/372/84
f 259/280/259 258/97/258 249/71/249 256/70/256
f 397/56/397 392/400/392 396/308/396 318/307/318
f 59/369/59 53/368/53 56/40/56 60/39/60
f 222/423/222 216/420/216 220/421/220 229/426/229
f 89/65/89 88/64/88 86/148/86 94/10/94
f 265/190/265 263/279/263 266/486/266 269/470/269
f 300/112/300 325/277/325 328/276/328 330/113/330
f 288/46/288 269/470/269 291/395/291 296/295/296
f 128/207/128 118/206/118 121/331/121 126/272/126
f 214/80/214 213/186/213 215/468/215 218/425/218
f 75/98/75 73/101/73 81/374/81 84/372/84
f 131/460/131 116/204/116 128/207/128 130/271/130
f 361/26/361 360/25/360 363/214/363 364/351/364
f 252/329/252 245/345/245 251/50/251 444/253/444
f 34/181/34 31/290/31 30/289/30 32/361/32
f 138/52/138 112/86/112 108/28/108 111/27/111
f 484/447/484 483/413/483 453/74/453 485/77/485
f 357/154/357 351/231/351 354/230/354 377/155/377
f 280/247/280 281/59/281 284/58/284 287/235/287
f 53/368/53 51/364/51 43/363/43 50/195/50
f 412/386/412 408/102/408 411/105/411 415/208/415
f 218/425/218 215/468/215 225/346/225 231/300/231
f 151/479/151 148/487/148 144/178/144 150/180/150
f 103/458/103 97/145/97 99/343/99 127/240/127
f 475/152/475 476/443/476 20/119/20 478/322/478
f 172/310/172 169/164/169 166/166/166 173/483/173
f 324/260/324 317/334/317 313/221/313 321/261/321
f 71/373/71 72/69/72 77/376/77 79/375/79
f 454/125/454 451/431/451 455/434/455 460/126/460
f 180/411/180 173/483/173 185/192/185 191/191/191
f 248/328/248 243/297/243 245/345/245 252/329/252
f 456/38/456 450/37/450 454/125/454 459/124/459
f 118/206/118 106/167/106 119/168/119 121/331/121
f 148/487/148 146/292/146 143/291/143 144/178/144
f 173/483/173 166/166/166 174/415/174 185/192/185
f 285/133/285 280/247/280 287/235/287 306/234/306
