# Blender 5.1.1
# www.blender.org
mtllib right_leg_0.mtl
g leg_1_dr_Mesh_0456Mesh.010
v -0.012022 -0.338987 0.003156
v -0.016092 -0.339937 -0.001752
v -0.018320 -0.340967 0.009126
v -0.012426 -0.340861 0.012017
v -0.020362 -0.340517 0.019003
v -0.007077 -0.338773 0.003574
v -0.012142 -0.340404 0.019770
v -0.021909 -0.340112 0.026709
v -0.000087 -0.342928 0.011540
v 0.000154 -0.339307 0.001869
v 0.007051 -0.344324 0.007171
v 0.005876 -0.341737 -0.002446
v 0.007833 -0.343050 0.016014
v -0.011730 -0.335260 0.029973
v -0.000034 -0.343092 0.019544
v 0.007844 -0.338174 0.025609
v -0.021007 -0.337514 0.031906
v -0.005994 -0.341749 0.019297
v 0.000305 -0.337797 0.028285
v 0.007504 -0.334302 0.029082
v -0.005404 -0.336286 0.029438
v 0.000503 -0.334566 0.031548
v -0.005501 -0.332185 0.032355
v -0.011488 -0.332159 0.033331
v 0.001141 -0.324541 0.036425
v -0.005230 -0.324403 0.035667
v -0.012719 -0.325239 0.035412
v -0.020884 -0.315740 0.036579
v -0.013851 -0.316080 0.037205
v -0.005563 -0.315580 0.037959
v 0.002632 -0.315584 0.037853
v -0.006618 -0.302702 0.034868
v 0.006816 -0.316503 0.037009
v 0.004710 -0.303823 0.034055
v -0.018243 -0.300798 0.032879
v -0.031235 -0.326402 0.026711
v -0.007262 -0.291833 0.033750
v -0.029905 -0.339346 0.024146
v -0.021909 -0.340112 0.026709
v -0.029122 -0.313760 0.029116
v -0.026551 -0.341260 0.019426
v -0.020362 -0.340517 0.019003
v -0.031751 -0.333978 0.014899
v -0.025778 -0.339494 0.009799
v -0.018320 -0.340967 0.009126
v -0.029523 -0.336980 0.012769
v -0.025043 -0.337755 -0.001235
v -0.016092 -0.339937 -0.001752
v -0.030529 -0.334951 0.002132
v -0.033330 -0.330812 0.004185
v -0.032560 -0.324934 0.017114
v -0.032394 -0.333261 -0.008007
v -0.034052 -0.323873 0.007053
v -0.031844 -0.311948 0.018356
v -0.023299 -0.336828 -0.011174
v -0.035322 -0.323545 0.001595
v -0.034299 -0.325697 -0.006123
v -0.028335 -0.328550 -0.014458
v -0.032850 -0.312191 0.006303
v -0.034370 -0.311121 -0.003164
v -0.027520 -0.313520 -0.013479
v -0.027032 -0.300758 0.008424
v -0.031636 -0.312479 -0.008810
v -0.028553 -0.302977 -0.000056
v -0.026630 -0.306596 -0.008948
v -0.027170 -0.302862 -0.002456
v -0.023560 -0.294439 0.012601
v -0.023923 -0.296094 0.002041
v -0.021997 -0.296232 -0.003460
v -0.021029 -0.301679 -0.013284
v -0.016551 -0.291063 -0.003708
v -0.021244 -0.326093 -0.022814
v -0.021300 -0.311391 -0.020094
v -0.015019 -0.337480 -0.010518
v -0.015092 -0.325094 -0.024158
v -0.015065 -0.309282 -0.022269
v -0.010361 -0.335611 -0.009748
v -0.012022 -0.338987 0.003156
v -0.010130 -0.323846 -0.017770
v -0.006192 -0.336484 -0.006491
v -0.007077 -0.338773 0.003574
v 0.000154 -0.339307 0.001869
v -0.006094 -0.323419 -0.016235
v -0.009921 -0.310564 -0.017097
v -0.015698 -0.300287 -0.015131
v 0.000521 -0.336839 -0.006754
v 0.005876 -0.341737 -0.002446
v 0.005175 -0.336877 -0.012277
v 0.003598 -0.322797 -0.021567
v -0.001416 -0.323392 -0.017323
v -0.001554 -0.310842 -0.016170
v 0.004467 -0.310819 -0.018036
v -0.005909 -0.310892 -0.015740
v 0.001888 -0.300981 -0.012450
v 0.005486 -0.301702 -0.012782
v -0.006688 -0.299821 -0.011715
v 0.006282 -0.292703 -0.005375
v -0.012351 -0.300066 -0.012079
v -0.007013 -0.289571 -0.004652
v 0.003304 -0.282625 -0.000656
v 0.010159 -0.291769 0.005309
v -0.015254 -0.281839 0.001915
v 0.007258 -0.283907 0.014368
v 0.011037 -0.294214 0.013479
v -0.007628 -0.281766 -0.001356
v 0.007037 -0.282941 0.006899
v 0.001315 -0.271829 0.002348
v 0.005068 -0.271898 0.008869
v 0.005527 -0.272661 0.015455
v -0.007961 -0.271417 0.002118
v 0.003482 -0.254652 0.011006
v 0.003994 -0.254983 0.017367
v -0.000949 -0.254674 0.006025
v 0.003591 -0.236364 0.018600
v -0.014374 -0.271387 0.005703
v 0.002573 -0.235879 0.011895
v 0.002833 -0.215444 0.018166
v -0.002108 -0.235925 0.007485
v -0.008032 -0.255033 0.005289
v -0.008158 -0.236677 0.006082
v 0.001199 -0.215120 0.011737
v 0.002644 -0.194013 0.017136
v -0.002881 -0.215417 0.007272
v -0.008863 -0.215433 0.005839
v -0.013030 -0.236478 0.009344
v -0.003432 -0.194624 0.006549
v 0.000391 -0.194315 0.011134
v 0.002292 -0.176900 0.016642
v -0.008918 -0.194604 0.005747
v -0.000023 -0.174509 0.010128
v 0.001650 -0.152921 0.015492
v -0.003960 -0.174985 0.004949
v -0.000028 -0.152193 0.008526
v 0.001376 -0.129774 0.012880
v -0.012986 -0.215670 0.009258
v 0.000331 -0.129369 0.005762
v 0.001869 -0.085630 0.005306
v -0.004764 -0.152185 0.003091
v -0.010839 -0.152514 0.003516
v 0.000810 -0.085268 -0.002404
v 0.002464 -0.063219 0.000963
v -0.004819 -0.129373 -0.000602
v -0.011438 -0.129589 0.000718
v -0.013550 -0.174235 0.008004
v 0.001411 -0.063039 -0.007882
v 0.002696 -0.053556 -0.000842
v -0.004710 -0.085167 -0.009321
v 0.002282 -0.052164 -0.011889
v 0.002759 -0.043680 -0.002490
v -0.004521 -0.063108 -0.015908
v -0.011975 -0.107878 -0.003329
v -0.012756 -0.085271 -0.007871
v 0.003037 -0.041284 -0.016016
v 0.003214 -0.039888 -0.002907
v -0.003590 -0.049604 -0.022247
v -0.013713 -0.063097 -0.014472
v 0.003418 -0.037958 -0.017018
v 0.003966 -0.036264 -0.003380
v -0.002708 -0.036325 -0.028731
v -0.014530 -0.047540 -0.021073
v 0.003925 -0.034692 -0.018179
v 0.004397 -0.033601 -0.003978
v -0.002489 -0.032312 -0.030567
v -0.015727 -0.032251 -0.027462
v 0.004315 -0.031404 -0.019684
v 0.005340 -0.028932 -0.004619
v -0.002222 -0.028383 -0.032591
v -0.017047 -0.024606 -0.030024
v 0.005698 -0.025735 -0.021618
v 0.006351 -0.024377 -0.004031
v -0.002034 -0.023775 -0.034885
v -0.018044 -0.016840 -0.032707
v 0.007455 -0.021371 -0.021447
v -0.000046 -0.016023 -0.037861
v -0.017832 -0.011018 -0.034866
v 0.009844 -0.017145 -0.020224
v 0.008033 -0.020029 -0.003113
v 0.013381 -0.012529 -0.002910
v 0.014071 -0.010202 -0.015424
v 0.009071 -0.003145 -0.022548
v 0.002902 -0.011919 -0.037959
v 0.006462 -0.008325 -0.036225
v -0.009722 -0.000124 -0.036936
v -0.004252 0.000563 -0.034734
v 0.005766 -0.000436 -0.022183
v -0.014157 -0.002542 -0.037375
v -0.011335 0.005354 -0.027462
v -0.018086 0.006026 -0.028735
v 0.001636 0.002173 -0.019101
v 0.008653 -0.000520 -0.019644
v 0.005740 0.002066 -0.017768
v -0.002708 0.004530 -0.013004
v 0.010630 -0.002458 -0.019521
v 0.014071 -0.010202 -0.015424
v -0.015307 0.008940 -0.015971
v 0.015552 -0.008264 -0.012448
v 0.013381 -0.012529 -0.002910
v 0.015659 -0.010194 -0.001617
v 0.011484 0.000105 -0.017531
v 0.017600 -0.006822 -0.009824
v 0.018369 -0.008615 -0.000515
v 0.013003 -0.001932 -0.017092
v 0.021159 -0.005365 -0.008804
v 0.022706 -0.007707 -0.001105
v 0.017263 -0.000871 -0.014930
v 0.015317 0.001303 -0.016876
v 0.026702 -0.004861 -0.008682
v 0.029236 -0.007974 -0.001419
v 0.021762 0.000746 -0.014498
v 0.018631 0.003203 -0.017495
v 0.023787 0.003973 -0.016561
v 0.030786 -0.002332 -0.008074
v 0.033536 -0.004945 -0.001932
v 0.035322 -0.001218 -0.002352
v 0.033264 0.005260 -0.008474
v 0.035287 0.003058 -0.002746
v 0.029858 0.003197 -0.012169
v 0.033767 0.007513 -0.003096
v 0.025948 0.006209 -0.016523
v 0.031163 0.006957 -0.010733
v 0.021507 0.006911 -0.018833
v 0.025872 0.011938 -0.013263
v 0.030607 0.010481 -0.008417
v 0.015346 0.006888 -0.019086
v 0.020952 0.014548 -0.013926
v 0.012888 0.004416 -0.017486
v 0.014640 0.014182 -0.013731
v 0.009480 0.002936 -0.016433
v 0.009785 0.010573 -0.011707
v 0.005910 0.007643 -0.011224
v 0.016572 0.017439 -0.003553
v 0.022565 0.018073 -0.003907
v 0.009867 0.012183 -0.003056
v 0.001717 0.005331 -0.011852
v 0.004344 0.007872 -0.003014
v 0.027024 0.016249 -0.003994
v 0.000627 0.005820 -0.003240
v 0.031049 0.012595 -0.003719
v 0.031551 0.010001 0.004058
v 0.026292 0.011290 0.009407
v -0.003351 0.005064 -0.003486
v 0.032089 0.007880 0.005540
v -0.015315 0.008780 -0.003621
v 0.022209 0.011542 0.011032
v -0.011973 0.003020 0.011886
v 0.016304 0.010252 0.011332
v -0.001509 0.003088 0.009930
v 0.023020 0.006529 0.014235
v 0.002026 0.003554 0.008873
v 0.010931 0.006590 0.010631
v 0.005401 0.004439 0.008482
v 0.001604 0.000029 0.014913
v 0.005049 0.000708 0.014040
v 0.008610 0.001326 0.013664
v 0.017252 0.005011 0.014562
v 0.012602 0.002531 0.013536
v 0.008442 -0.002390 0.014379
v 0.011541 -0.001604 0.012543
v 0.016059 -0.001566 0.012150
v 0.021223 0.000327 0.013183
v 0.026804 0.007140 0.012317
v 0.026171 0.002165 0.012701
v 0.019781 -0.004991 0.008054
v 0.029196 0.003561 0.010889
v 0.025884 -0.003625 0.008901
v 0.030010 -0.001413 0.008473
v 0.032232 0.000769 0.007100
v 0.034995 0.003340 0.000479
v 0.035287 0.003058 -0.002746
v 0.035322 -0.001218 -0.002352
v 0.034379 -0.000902 0.003520
v 0.033536 -0.004945 -0.001932
v 0.032451 -0.003923 0.004565
v 0.029236 -0.007974 -0.001419
v 0.028276 -0.006494 0.005096
v 0.022706 -0.007707 -0.001105
v 0.021743 -0.006975 0.004709
v 0.018369 -0.008615 -0.000515
v 0.017433 -0.007700 0.005643
v 0.015659 -0.010194 -0.001617
v 0.014573 -0.004701 0.009077
v 0.014939 -0.009554 0.006874
v 0.011785 -0.005647 0.012232
v 0.012847 -0.012048 0.008355
v 0.013381 -0.012529 -0.002910
v 0.008033 -0.020029 -0.003113
v 0.009474 -0.007478 0.016000
v 0.006448 -0.019334 0.012664
v 0.005655 -0.003709 0.016942
v 0.001547 -0.013483 0.022732
v 0.004611 -0.023820 0.012498
v 0.006351 -0.024377 -0.004031
v -0.000856 -0.017656 0.023215
v -0.002813 -0.008676 0.022801
v 0.003473 -0.028558 0.011852
v 0.005340 -0.028932 -0.004619
v -0.002472 -0.022386 0.022814
v -0.007768 -0.015901 0.023556
v 0.002440 -0.032754 0.011422
v 0.004397 -0.033601 -0.003978
v 0.003966 -0.036264 -0.003380
v -0.004269 -0.027342 0.021690
v 0.001073 -0.039255 0.010888
v 0.003214 -0.039888 -0.002907
v -0.005859 -0.035545 0.019988
v -0.011068 -0.021631 0.022848
v -0.012650 -0.032121 0.021071
v 0.000704 -0.043459 0.010673
v 0.002759 -0.043680 -0.002490
v 0.002696 -0.053556 -0.000842
v -0.006123 -0.041040 0.019277
v -0.012151 -0.039285 0.020039
v 0.000597 -0.053865 0.010674
v 0.002464 -0.063219 0.000963
v -0.006076 -0.052980 0.018131
v 0.000418 -0.064031 0.010746
v 0.001869 -0.085630 0.005306
v -0.005956 -0.064790 0.017068
v -0.011829 -0.052114 0.018721
v -0.000083 -0.086538 0.013225
v -0.000287 -0.108877 0.016509
v 0.001376 -0.129774 0.012880
v -0.005753 -0.087366 0.018369
v -0.011551 -0.064878 0.017581
v -0.000249 -0.130758 0.019657
v 0.001650 -0.152921 0.015492
v -0.005445 -0.109792 0.021241
v -0.010707 -0.087537 0.018888
v 0.000156 -0.154100 0.022064
v 0.002292 -0.176900 0.016642
v -0.005063 -0.131742 0.024068
v 0.000980 -0.178373 0.023362
v 0.002644 -0.194013 0.017136
v -0.004428 -0.155222 0.026367
v -0.009427 -0.132070 0.024505
v 0.001565 -0.195116 0.023949
v 0.002833 -0.215444 0.018166
v -0.003431 -0.179678 0.027808
v 0.001979 -0.216787 0.025147
v 0.003591 -0.236364 0.018600
v -0.002765 -0.196519 0.028555
v -0.009017 -0.155656 0.026824
v -0.007930 -0.197014 0.029393
v -0.002238 -0.218233 0.029831
v 0.002515 -0.237993 0.025893
v 0.003994 -0.254983 0.017367
v -0.007766 -0.218717 0.030814
v 0.002976 -0.258016 0.025215
v 0.005527 -0.272661 0.015455
v -0.001742 -0.239511 0.030718
v 0.004722 -0.276590 0.024629
v 0.007258 -0.283907 0.014368
v -0.001375 -0.260610 0.030479
v -0.007684 -0.239900 0.030878
v 0.006657 -0.288187 0.024834
v 0.011037 -0.294214 0.013479
v 0.000042 -0.280103 0.030730
v -0.007797 -0.260820 0.031676
v -0.007614 -0.280187 0.032239
v 0.001877 -0.291799 0.031799
v -0.015394 -0.278265 0.029685
v -0.016446 -0.289533 0.030578
v 0.009698 -0.297201 0.024912
v -0.021600 -0.297033 0.026541
v -0.020228 -0.287355 0.025090
v 0.016244 -0.304452 0.021438
v -0.014208 -0.259389 0.029514
v -0.019538 -0.276098 0.024747
v -0.021149 -0.283784 0.013409
v -0.013283 -0.239259 0.029184
v -0.018143 -0.257425 0.025188
v -0.020833 -0.272581 0.014359
v -0.013260 -0.218317 0.028979
v -0.017291 -0.238103 0.025831
v -0.019090 -0.255182 0.016578
v -0.013087 -0.196709 0.027515
v -0.016649 -0.217100 0.025137
v -0.017630 -0.236387 0.018207
v -0.013571 -0.155531 0.024996
v -0.016463 -0.195610 0.023900
v -0.013749 -0.131994 0.022805
v -0.016707 -0.154657 0.021370
v -0.014251 -0.109975 0.020068
v -0.016998 -0.131464 0.019619
v -0.015575 -0.087404 0.016984
v -0.017548 -0.109552 0.016701
v -0.017052 -0.064691 0.015258
v -0.019069 -0.087057 0.013388
v -0.017486 -0.051241 0.016205
v -0.020928 -0.064397 0.010923
v -0.018147 -0.037752 0.017352
v -0.021663 -0.050649 0.010886
v -0.019557 -0.028909 0.018095
v -0.022698 -0.036851 0.011177
v -0.023280 -0.063802 0.001819
v -0.019895 -0.020174 0.019008
v -0.021255 -0.086282 0.005739
v -0.019647 -0.108671 0.009476
v -0.020402 -0.085843 0.000947
v -0.024281 -0.049654 -0.000169
v -0.019041 -0.130403 0.012813
v -0.024765 -0.026949 0.011602
v -0.018446 -0.153318 0.015145
v -0.018169 -0.130051 0.008401
v -0.017216 -0.195123 0.017342
v -0.017330 -0.152837 0.010480
v -0.015755 -0.194854 0.012707
v -0.017276 -0.215959 0.018107
v -0.016069 -0.236040 0.013173
v -0.017609 -0.085521 -0.003583
v -0.017411 -0.254730 0.011995
v -0.018732 -0.271661 0.009626
v -0.019516 -0.282457 0.007075
v -0.021503 -0.290819 0.003472
v -0.019246 -0.063188 -0.009625
v -0.022515 -0.063455 -0.004183
v -0.021069 -0.047163 -0.015497
v -0.024256 -0.048227 -0.008206
v -0.025743 -0.035577 -0.001638
v -0.026544 -0.033113 -0.011596
v -0.023513 -0.031320 -0.020678
v -0.028629 -0.024965 -0.002185
v -0.029334 -0.022409 -0.012908
v -0.025859 -0.021455 -0.022643
v -0.026311 -0.017091 0.012214
v -0.027795 -0.011369 -0.024546
v -0.032053 -0.011560 -0.014072
v -0.031694 -0.014215 -0.002588
v -0.027708 -0.004930 -0.026371
v -0.032555 -0.004602 -0.015181
v -0.032423 -0.007326 -0.003092
v -0.022651 0.003401 -0.028441
v -0.028258 0.005133 -0.016425
v -0.023213 0.008955 -0.016653
v -0.029561 0.003333 -0.003801
v -0.023605 0.007773 -0.003814
v -0.021849 -0.002672 0.012751
v -0.025832 -0.011537 0.012510
v -0.017647 0.001158 0.012409
v -0.013737 -0.009187 0.020123
v -0.018444 -0.015924 0.019531
v -0.010857 -0.005998 0.019881
v -0.007287 -0.003534 0.019328
v 0.010159 -0.291769 0.005309
v 0.006282 -0.292703 -0.005375
v 0.016149 -0.299345 -0.001958
v 0.005486 -0.301702 -0.012782
v 0.016965 -0.300672 0.006181
v 0.012875 -0.303945 -0.010144
v 0.004467 -0.310819 -0.018036
v 0.021358 -0.312303 -0.000172
v 0.017289 -0.301832 0.013565
v 0.009978 -0.312635 -0.016064
v 0.003598 -0.322797 -0.021567
v 0.020379 -0.314210 -0.004596
v 0.023321 -0.311067 0.007340
v 0.008372 -0.324471 -0.019415
v 0.005175 -0.336877 -0.012277
v 0.018263 -0.316952 -0.008780
v 0.021016 -0.321630 0.002338
v 0.019990 -0.322671 -0.003574
v 0.016744 -0.328739 -0.006873
v 0.009799 -0.333952 -0.011434
v 0.005876 -0.341737 -0.002446
v 0.018206 -0.329011 -0.003011
v 0.015622 -0.335229 -0.002082
v 0.010468 -0.338754 -0.003542
v 0.010869 -0.343294 0.005639
v 0.007051 -0.344324 0.007171
v 0.019343 -0.329832 0.009540
v 0.016386 -0.338487 0.005192
v 0.010927 -0.343607 0.014163
v 0.007833 -0.343050 0.016014
v 0.015700 -0.340601 0.013130
v 0.011223 -0.338102 0.024430
v 0.007844 -0.338174 0.025609
v 0.016184 -0.336824 0.020549
v 0.012097 -0.333128 0.028032
v 0.017083 -0.331518 0.025057
v 0.013852 -0.318265 0.032908
v 0.014306 -0.309835 0.027327
v 0.021007 -0.320135 0.023612
v 0.020878 -0.314020 0.021676
v 0.022237 -0.320804 0.015137
v 0.023114 -0.311518 0.012289
v 0.021777 -0.320777 0.008039
vn 0.1575 -0.9782 -0.1353
vn 0.2683 -0.9627 -0.0362
vn 0.0992 -0.9930 -0.0638
vn -0.0417 -0.9962 -0.0765
vn 0.0056 -0.9986 0.0529
vn -0.0906 -0.9495 -0.3004
vn -0.0305 -0.9741 0.2239
vn 0.2106 -0.9237 0.3201
vn -0.1865 -0.9766 -0.1073
vn -0.3221 -0.8986 -0.2978
vn -0.3041 -0.9417 -0.1440
vn -0.4311 -0.8648 -0.2574
vn 0.0348 -0.9720 0.2324
vn 0.1328 -0.7977 0.5883
vn -0.0562 -0.9547 0.2922
vn 0.2035 -0.7935 0.5735
vn -0.1529 -0.6125 0.7755
vn -0.1908 -0.9541 0.2310
vn 0.0397 -0.7790 0.6257
vn 0.3145 -0.5242 0.7914
vn -0.0901 -0.7663 0.6361
vn 0.0993 -0.5600 0.8225
vn -0.0138 -0.5103 0.8599
vn 0.0889 -0.4767 0.8746
vn 0.1433 -0.3306 0.9328
vn -0.0280 -0.2952 0.9550
vn -0.1237 -0.2524 0.9597
vn -0.4070 0.0649 0.9111
vn -0.0897 0.0042 0.9960
vn -0.0317 0.0215 0.9993
vn 0.1092 0.0518 0.9927
vn -0.0228 0.2098 0.9775
vn 0.4087 0.0100 0.9126
vn 0.4292 0.2952 0.8536
vn -0.4470 0.2668 0.8538
vn -0.8425 -0.0953 0.5302
vn -0.0384 0.1456 0.9886
vn -0.6965 -0.6383 0.3278
vn -0.1468 -0.9263 0.3471
vn -0.8335 0.2151 0.5090
vn -0.3475 -0.9374 -0.0238
vn -0.0464 -0.9985 0.0282
vn -0.9320 -0.3620 0.0182
vn -0.3755 -0.9168 -0.1362
vn -0.1580 -0.9800 -0.1213
vn -0.7222 -0.6802 -0.1259
vn -0.3480 -0.9258 -0.1479
vn 0.0700 -0.9791 -0.1912
vn -0.7258 -0.6839 -0.0740
vn -0.9401 -0.3388 0.0393
vn -0.9896 -0.0238 0.1418
vn -0.7411 -0.5780 -0.3416
vn -0.9875 -0.0255 0.1555
vn -0.9459 0.2775 0.1684
vn -0.3255 -0.8200 -0.4708
vn -0.9983 -0.0549 0.0213
vn -0.9196 -0.1526 -0.3621
vn -0.7037 -0.2352 -0.6705
vn -0.9487 0.2871 0.1323
vn -0.9207 0.3632 -0.1426
vn -0.7465 0.2447 -0.6187
vn -0.8824 0.4695 0.0298
vn -0.7984 0.3108 -0.5157
vn -0.8125 0.5675 -0.1331
vn -0.7122 0.5177 -0.4741
vn -0.7283 0.5798 -0.3652
vn -0.9332 0.3548 0.0565
vn -0.8118 0.5487 -0.1996
vn -0.6796 0.6047 -0.4154
vn -0.6078 0.5657 -0.5573
vn -0.4358 0.5971 -0.6734
vn -0.4258 -0.2998 -0.8537
vn -0.5659 0.3030 -0.7668
vn 0.2317 -0.8666 -0.4419
vn 0.2577 -0.2837 -0.9236
vn 0.1984 0.3776 -0.9044
vn 0.4318 -0.7362 -0.5211
vn 0.1726 -0.9595 -0.2228
vn 0.5806 -0.2675 -0.7690
vn 0.0239 -0.8707 -0.4912
vn -0.0294 -0.9694 -0.2438
vn -0.2647 -0.9289 -0.2589
vn 0.1335 -0.2953 -0.9460
vn 0.5047 0.2583 -0.8238
vn 0.0646 0.6905 -0.7205
vn -0.3511 -0.7972 -0.4910
vn -0.5022 -0.8116 -0.2984
vn -0.5569 -0.6229 -0.5494
vn -0.5726 -0.1396 -0.8079
vn -0.3916 -0.2646 -0.8813
vn -0.2160 0.2673 -0.9391
vn -0.3366 0.3199 -0.8856
vn 0.0720 0.2209 -0.9726
vn -0.0264 0.5178 -0.8551
vn -0.0661 0.5412 -0.8383
vn 0.0219 0.5054 -0.8626
vn 0.3300 0.5439 -0.7715
vn 0.2885 0.5980 -0.7478
vn -0.0548 0.5185 -0.8533
vn 0.5222 0.3992 -0.7536
vn 0.9099 0.3732 -0.1813
vn -0.5554 0.3741 -0.7427
vn 0.9666 0.2562 -0.0093
vn 0.9410 0.3383 0.0076
vn -0.1365 0.3828 -0.9137
vn 0.9297 0.2984 -0.2161
vn 0.4986 0.2698 -0.8238
vn 0.9406 0.1821 -0.2864
vn 0.9901 0.1325 -0.0465
vn -0.2048 0.2556 -0.9448
vn 0.9211 0.1060 -0.3747
vn 0.9935 0.0683 -0.0905
vn 0.4678 0.1469 -0.8715
vn 0.9872 0.0442 -0.1530
vn -0.5718 0.2299 -0.7875
vn 0.8946 0.0532 -0.4438
vn 0.9693 0.0302 -0.2441
vn 0.4768 0.0453 -0.8779
vn -0.2540 0.1305 -0.9584
vn -0.2128 0.0213 -0.9769
vn 0.8772 0.0235 -0.4796
vn 0.9473 0.0083 -0.3204
vn 0.4945 0.0042 -0.8692
vn -0.2287 -0.0109 -0.9734
vn -0.6800 0.0244 -0.7328
vn 0.5017 -0.0293 -0.8645
vn 0.8730 -0.0005 -0.4877
vn 0.9473 0.0021 -0.3204
vn -0.2169 -0.0422 -0.9753
vn 0.8805 -0.0145 -0.4738
vn 0.9697 -0.0127 -0.2440
vn 0.4514 -0.0464 -0.8911
vn 0.8954 -0.0402 -0.4435
vn 0.9850 -0.0295 -0.1701
vn -0.7824 -0.0070 -0.6228
vn 0.9104 -0.0717 -0.4075
vn 0.9897 -0.0442 -0.1361
vn 0.3798 -0.1020 -0.9194
vn -0.4423 -0.0983 -0.8915
vn 0.9181 -0.1003 -0.3833
vn 0.9922 -0.0639 -0.1069
vn 0.3513 -0.1585 -0.9228
vn -0.4777 -0.1493 -0.8657
vn -0.7210 -0.0625 -0.6901
vn 0.9267 -0.1504 -0.3445
vn 0.9967 -0.0503 -0.0630
vn 0.3582 -0.2296 -0.9050
vn 0.9379 -0.1762 -0.2987
vn 0.9982 -0.0592 -0.0079
vn 0.3650 -0.3420 -0.8659
vn -0.4617 -0.1900 -0.8665
vn -0.4200 -0.2353 -0.8765
vn 0.9410 -0.2097 -0.2657
vn 0.9926 -0.1212 -0.0008
vn 0.3763 -0.4008 -0.8353
vn -0.4096 -0.3297 -0.8506
vn 0.9398 -0.2284 -0.2543
vn 0.9866 -0.1623 -0.0138
vn 0.3790 -0.4114 -0.8289
vn -0.4144 -0.3802 -0.8269
vn 0.9378 -0.2356 -0.2549
vn 0.9856 -0.1671 -0.0244
vn 0.3637 -0.4157 -0.8336
vn -0.4368 -0.3687 -0.8205
vn 0.9201 -0.2767 -0.2773
vn 0.9717 -0.2353 -0.0216
vn 0.3409 -0.4230 -0.8395
vn -0.4799 -0.3478 -0.8054
vn 0.8987 -0.3241 -0.2953
vn 0.9320 -0.3625 -0.0050
vn 0.2881 -0.4193 -0.8609
vn -0.5015 -0.2990 -0.8119
vn 0.8789 -0.3985 -0.2623
vn 0.2864 -0.3291 -0.8998
vn -0.4930 -0.1451 -0.8579
vn 0.9017 -0.3545 -0.2476
vn 0.8741 -0.4856 -0.0104
vn 0.8372 -0.5463 -0.0254
vn 0.8820 -0.3579 -0.3065
vn 0.7825 0.4249 -0.4552
vn 0.4770 -0.1264 -0.8698
vn 0.7423 0.1988 -0.6399
vn 0.0087 0.5264 -0.8502
vn 0.3299 0.7250 -0.6046
vn 0.4440 0.8019 -0.3999
vn -0.3407 0.2081 -0.9168
vn 0.2227 0.9258 -0.3054
vn -0.1844 0.8445 -0.5029
vn 0.2593 0.9156 -0.3073
vn 0.4246 0.6582 -0.6217
vn 0.1148 0.8139 -0.5696
vn 0.1697 0.9740 -0.1503
vn 0.7291 0.3102 -0.6100
vn 0.8843 -0.1748 -0.4330
vn 0.1538 0.9837 -0.0928
vn 0.8127 -0.4377 -0.3846
vn 0.7362 -0.6664 -0.1182
vn 0.6095 -0.7749 -0.1672
vn 0.2572 0.2782 -0.9255
vn 0.5954 -0.6884 -0.4142
vn 0.3595 -0.8987 -0.2512
vn 0.6191 -0.0554 -0.7834
vn 0.2462 -0.8205 -0.5159
vn 0.0799 -0.9398 -0.3322
vn 0.4326 -0.5038 -0.7477
vn 0.2043 -0.3236 -0.9239
vn 0.2400 -0.7684 -0.5932
vn 0.2775 -0.8517 -0.4445
vn 0.2841 -0.5898 -0.7560
vn 0.1236 -0.4850 -0.8657
vn 0.3864 -0.4519 -0.8040
vn 0.5964 -0.5149 -0.6157
vn 0.6185 -0.5929 -0.5157
vn 0.7644 -0.3589 -0.5356
vn 0.8733 0.1110 -0.4745
vn 0.9298 0.3003 -0.2129
vn 0.6446 -0.2955 -0.7051
vn 0.9129 0.4019 -0.0711
vn 0.5932 0.0867 -0.8004
vn 0.7708 0.2292 -0.5944
vn 0.2348 0.0683 -0.9697
vn 0.5380 0.6019 -0.5901
vn 0.7439 0.5268 -0.4111
vn -0.2570 0.1557 -0.9538
vn 0.1673 0.7815 -0.6011
vn -0.3244 0.1133 -0.9391
vn -0.3838 0.7512 -0.5370
vn -0.1781 0.5519 -0.8147
vn -0.6215 0.6528 -0.4331
vn -0.4553 0.7808 -0.4279
vn -0.3424 0.9362 0.0798
vn 0.1427 0.9896 0.0158
vn -0.5968 0.7949 0.1093
vn -0.1849 0.9318 -0.3123
vn -0.5036 0.8591 0.0908
vn 0.5022 0.8639 -0.0381
vn -0.2871 0.9557 0.0644
vn 0.7513 0.6565 -0.0673
vn 0.7540 0.5835 0.3018
vn 0.4657 0.7076 0.5314
vn 0.0580 0.9947 0.0845
vn 0.8296 0.3455 0.4386
vn 0.0529 0.9826 0.1781
vn 0.0939 0.7587 0.6447
vn -0.0514 0.8564 0.5137
vn -0.3154 0.7013 0.6393
vn 0.0274 0.9173 0.3973
vn 0.1923 0.2237 0.9555
vn -0.1553 0.9154 0.3713
vn -0.4707 0.6474 0.5994
vn -0.3517 0.8205 0.4507
vn 0.1010 0.7390 0.6661
vn 0.0664 0.6871 0.7236
vn -0.0317 0.3938 0.9186
vn -0.1345 0.1256 0.9829
vn -0.1553 0.0927 0.9835
vn 0.4224 0.2476 0.8719
vn 0.3535 -0.2154 0.9103
vn 0.0460 -0.5399 0.8405
vn 0.1122 -0.4571 0.8823
vn 0.5371 0.3227 0.7793
vn 0.3721 -0.2802 0.8849
vn 0.1138 -0.7415 0.6612
vn 0.6603 -0.0429 0.7498
vn 0.2533 -0.6564 0.7106
vn 0.5580 -0.4197 0.7159
vn 0.8067 -0.0789 0.5857
vn 0.9613 0.1784 0.2098
vn 0.9827 0.1573 0.0981
vn 0.9609 -0.2215 0.1662
vn 0.9131 -0.1771 0.3674
vn 0.7471 -0.6268 0.2211
vn 0.6833 -0.5714 0.4545
vn 0.3241 -0.9196 0.2218
vn 0.2911 -0.8453 0.4479
vn 0.0984 -0.9798 0.1743
vn 0.1312 -0.9160 0.3791
vn 0.3869 -0.9081 0.1603
vn 0.4028 -0.7867 0.4678
vn 0.6693 -0.7346 0.1113
vn 0.4455 -0.4634 0.7661
vn 0.7349 -0.5285 0.4250
vn 0.7591 -0.0283 0.6503
vn 0.8125 -0.4708 0.3439
vn 0.7704 -0.6316 0.0869
vn 0.8663 -0.4893 0.1002
vn 0.7175 0.0382 0.6955
vn 0.8284 -0.4088 0.3830
vn 0.3679 0.4709 0.8018
vn 0.5036 -0.0477 0.8626
vn 0.8695 -0.3301 0.3673
vn 0.9468 -0.3022 0.1112
vn 0.4135 -0.1835 0.8918
vn 0.0898 0.3539 0.9310
vn 0.8874 -0.2711 0.3729
vn 0.9670 -0.2256 0.1183
vn 0.4091 -0.2648 0.8732
vn -0.1420 0.0771 0.9869
vn 0.8901 -0.2232 0.3975
vn 0.9762 -0.1753 0.1280
vn 0.9754 -0.1674 0.1431
vn 0.3994 -0.2708 0.8759
vn 0.8980 -0.1514 0.4131
vn 0.9759 -0.1538 0.1549
vn 0.4300 -0.1971 0.8810
vn -0.2157 -0.0659 0.9742
vn -0.2132 -0.1532 0.9649
vn 0.9077 -0.0573 0.4157
vn 0.9857 -0.0504 0.1608
vn 0.9842 0.0020 0.1769
vn 0.4542 -0.1180 0.8830
vn -0.1745 -0.1253 0.9766
vn 0.8980 -0.0169 0.4396
vn 0.9791 0.0027 0.2035
vn 0.4494 -0.0678 0.8908
vn 0.8832 0.0062 0.4689
vn 0.9728 0.0173 0.2309
vn 0.4306 -0.0001 0.9026
vn -0.1659 -0.0952 0.9815
vn 0.8623 0.0503 0.5039
vn 0.8509 0.0722 0.5204
vn 0.9706 0.0370 0.2378
vn 0.4074 0.0924 0.9086
vn -0.1559 -0.0171 0.9876
vn 0.8540 0.0725 0.5152
vn 0.9735 0.0399 0.2252
vn 0.3977 0.1226 0.9093
vn -0.1392 0.0874 0.9864
vn 0.8612 0.0628 0.5045
vn 0.9792 0.0373 0.1996
vn 0.3949 0.1115 0.9119
vn 0.8773 0.0510 0.4773
vn 0.9861 0.0278 0.1635
vn 0.4036 0.0834 0.9111
vn -0.1398 0.1070 0.9844
vn 0.8943 0.0423 0.4454
vn 0.9895 0.0269 0.1418
vn 0.4263 0.0648 0.9022
vn 0.9009 0.0414 0.4320
vn 0.9896 0.0259 0.1412
vn 0.4646 0.0586 0.8836
vn -0.1377 0.0753 0.9876
vn -0.0938 0.0597 0.9938
vn 0.4592 0.0495 0.8870
vn 0.9050 0.0254 0.4247
vn 0.9892 0.0420 0.1403
vn -0.0945 0.0386 0.9948
vn 0.9108 0.0406 0.4109
vn 0.9846 0.1093 0.1365
vn 0.4571 0.0204 0.8892
vn 0.9087 0.1153 0.4011
vn 0.9622 0.2224 0.1570
vn 0.4844 0.0302 0.8743
vn -0.1009 0.0201 0.9947
vn 0.8766 0.2389 0.4177
vn 0.8368 0.5190 0.1743
vn 0.5036 0.1059 0.8574
vn -0.0814 0.0261 0.9963
vn -0.0570 0.0785 0.9953
vn 0.4832 0.2009 0.8521
vn -0.5545 0.0718 0.8291
vn -0.5468 0.1609 0.8217
vn 0.7947 0.3890 0.4660
vn -0.8433 0.3146 0.4357
vn -0.9131 0.1424 0.3820
vn 0.7777 0.4627 0.4256
vn -0.5281 0.0352 0.8485
vn -0.9142 0.0631 0.4004
vn -0.9882 0.1467 -0.0448
vn -0.5072 0.0229 0.8615
vn -0.8995 0.0532 0.4337
vn -0.9906 0.0889 -0.1044
vn -0.5247 0.0367 0.8505
vn -0.8988 0.0363 0.4369
vn -0.9898 0.0904 -0.1103
vn -0.5525 0.0512 0.8320
vn -0.9079 0.0311 0.4180
vn -0.9899 0.0539 -0.1313
vn -0.5598 0.0564 0.8267
vn -0.9028 0.0228 0.4295
vn -0.5494 0.0805 0.8317
vn -0.8812 0.0223 0.4722
vn -0.5441 0.0882 0.8344
vn -0.8590 0.0388 0.5105
vn -0.5592 0.0542 0.8273
vn -0.8591 0.0325 0.5109
vn -0.5917 -0.0228 0.8058
vn -0.8708 -0.0028 0.4917
vn -0.6158 -0.0823 0.7836
vn -0.8881 -0.0366 0.4582
vn -0.6306 -0.1333 0.7646
vn -0.8996 -0.0656 0.4318
vn -0.6310 -0.1435 0.7624
vn -0.8988 -0.1462 0.4133
vn -0.9947 -0.0818 0.0627
vn -0.6004 -0.0384 0.7988
vn -0.9960 -0.0753 0.0481
vn -0.9950 -0.0376 0.0929
vn -0.9276 -0.1385 -0.3469
vn -0.9913 -0.0896 0.0966
vn -0.9989 -0.0215 0.0419
vn -0.8828 -0.1906 0.4294
vn -0.9997 -0.0243 0.0018
vn -0.8918 -0.0903 -0.4434
vn -0.9953 -0.0199 -0.0950
vn -0.8806 -0.0626 -0.4696
vn -0.9037 -0.0358 -0.4266
vn -0.9881 0.0109 -0.1533
vn -0.8735 0.0575 -0.4835
vn -0.7475 -0.1904 -0.6364
vn -0.8069 0.1153 -0.5793
vn -0.8274 0.1693 -0.5355
vn -0.8702 0.2617 -0.4175
vn -0.8424 0.4427 -0.3072
vn -0.7493 -0.2578 -0.6100
vn -0.9375 -0.1692 -0.3042
vn -0.7660 -0.2943 -0.5715
vn -0.9552 -0.1860 -0.2302
vn -0.9783 -0.1715 0.1165
vn -0.9524 -0.2389 -0.1893
vn -0.7819 -0.3023 -0.5453
vn -0.9627 -0.2406 0.1234
vn -0.9461 -0.2668 -0.1835
vn -0.8031 -0.2857 -0.5228
vn -0.8589 -0.0685 0.5076
vn -0.8248 -0.2074 -0.5260
vn -0.9669 -0.1736 -0.1869
vn -0.9761 -0.1446 0.1620
vn -0.8150 0.0790 -0.5741
vn -0.9698 0.1405 -0.1993
vn -0.9665 0.1334 0.2191
vn -0.6233 0.5011 -0.6004
vn -0.7739 0.6041 -0.1900
vn -0.3230 0.9350 -0.1467
vn -0.7907 0.5565 0.2549
vn -0.3796 0.8892 0.2555
vn -0.6091 0.4490 0.6538
vn -0.7836 0.1631 0.5995
vn -0.3454 0.7025 0.6222
vn -0.3857 0.2885 0.8764
vn -0.5111 0.1304 0.8496
vn -0.2638 0.4491 0.8536
vn -0.0550 0.6367 0.7691
vn 0.7352 0.6750 -0.0618
vn 0.6159 0.6512 -0.4434
vn 0.7616 0.5491 -0.3441
vn 0.4713 0.4962 -0.7291
vn 0.8234 0.5658 -0.0432
vn 0.6350 0.4184 -0.6494
vn 0.4242 0.3191 -0.8475
vn 0.9540 0.1574 -0.2551
vn 0.8161 0.5495 0.1792
vn 0.5873 0.2169 -0.7797
vn 0.4148 -0.0689 -0.9073
vn 0.9040 0.1103 -0.4130
vn 0.9768 0.2008 -0.0746
vn 0.5408 -0.2212 -0.8116
vn 0.4151 -0.6734 -0.6117
vn 0.8090 0.0255 -0.5873
vn 0.9716 -0.1910 -0.1398
vn 0.9375 -0.1868 -0.2935
vn 0.7937 -0.3350 -0.5078
vn 0.5416 -0.5798 -0.6087
vn 0.3764 -0.8365 -0.3981
vn 0.9140 -0.3239 -0.2442
vn 0.7746 -0.5275 -0.3491
vn 0.5246 -0.7346 -0.4303
vn 0.4180 -0.8815 -0.2197
vn 0.1862 -0.9750 -0.1210
vn 0.9530 -0.3023 -0.0172
vn 0.8058 -0.5630 -0.1837
vn 0.3423 -0.9226 0.1778
vn 0.1317 -0.9369 0.3238
vn 0.7663 -0.6345 0.1011
vn 0.3829 -0.7296 0.5666
vn 0.2431 -0.7337 0.6345
vn 0.7803 -0.5335 0.3263
vn 0.4902 -0.4508 0.7459
vn 0.8010 -0.3687 0.4718
vn 0.6276 -0.0024 0.7785
vn 0.7009 0.3408 0.6266
vn 0.9027 -0.0735 0.4240
vn 0.8840 0.2482 0.3963
vn 0.9792 -0.1855 0.0825
vn 0.9678 0.2214 0.1195
vn 0.9762 -0.1970 -0.0912
vt 0.099670 -0.199463
vt 0.095032 -0.198120
vt 0.093994 -0.201172
vt 0.100281 -0.203613
vt 0.170410 -0.539062
vt 0.157837 -0.528320
vt 0.143677 -0.542480
vt 0.163452 -0.548340
vt 0.116211 -0.249634
vt 0.115112 -0.241943
vt 0.107178 -0.248413
vt 0.108032 -0.254150
vt 0.147827 -0.604492
vt 0.151733 -0.629395
vt 0.173462 -0.632812
vt 0.166992 -0.604492
vt 0.024673 -0.572266
vt 0.023621 -0.557129
vt 0.018341 -0.556641
vt 0.018951 -0.576660
vt 0.098694 -0.212524
vt 0.099304 -0.208740
vt 0.092224 -0.206055
vt 0.090942 -0.210205
vt 0.016632 -0.539551
vt 0.021759 -0.541992
vt 0.028290 -0.529297
vt 0.018311 -0.525391
vt 0.057861 -0.305176
vt 0.059082 -0.351074
vt 0.067139 -0.349609
vt 0.065796 -0.301758
vt 0.045013 -0.467773
vt 0.035278 -0.487793
vt 0.048218 -0.492676
vt 0.055176 -0.471680
vt 0.011673 -0.555664
vt 0.079163 -0.301025
vt 0.084045 -0.301758
vt 0.082825 -0.276367
vt 0.077820 -0.275146
vt 0.094727 -0.374512
vt 0.087830 -0.373291
vt 0.085449 -0.410400
vt 0.094055 -0.410645
vt 0.040802 -0.403809
vt 0.038879 -0.421875
vt 0.047455 -0.424561
vt 0.049896 -0.406250
vt 0.095886 -0.353027
vt 0.088806 -0.351074
vt 0.131836 -0.592773
vt 0.146240 -0.595215
vt 0.141968 -0.575195
vt 0.130249 -0.577148
vt 0.056000 -0.242920
vt 0.064697 -0.242554
vt 0.065247 -0.239014
vt 0.056244 -0.238892
vt 0.138062 -0.444580
vt 0.134033 -0.425049
vt 0.124878 -0.427246
vt 0.128540 -0.448242
vt 0.130005 -0.405273
vt 0.121765 -0.407715
vt 0.102295 -0.247192
vt 0.106018 -0.240723
vt 0.101257 -0.239136
vt 0.119324 -0.394531
vt 0.112122 -0.395752
vt 0.114075 -0.409668
vt 0.122620 -0.374756
vt 0.123230 -0.353271
vt 0.116211 -0.354004
vt 0.116150 -0.375244
vt 0.088928 -0.203125
vt 0.087585 -0.205811
vt 0.093140 -0.203369
vt 0.051941 -0.447021
vt 0.060303 -0.450195
vt 0.063843 -0.428467
vt 0.055481 -0.427002
vt 0.073181 -0.474365
vt 0.068787 -0.451172
vt 0.211304 -0.584961
vt 0.207642 -0.575684
vt 0.197754 -0.582031
vt 0.198730 -0.591309
vt 0.026245 -0.543945
vt 0.203857 -0.553711
vt 0.203247 -0.541992
vt 0.193359 -0.543945
vt 0.196289 -0.554688
vt 0.180786 -0.532227
vt 0.175171 -0.517090
vt 0.104675 -0.541504
vt 0.124634 -0.542480
vt 0.121704 -0.525391
vt 0.104614 -0.523438
vt 0.035706 -0.583496
vt 0.044037 -0.575195
vt 0.037354 -0.568359
vt 0.030273 -0.571289
vt 0.083862 -0.452148
vt 0.095154 -0.453369
vt 0.094543 -0.430908
vt 0.084961 -0.430420
vt 0.071106 -0.429443
vt 0.045624 -0.250488
vt 0.055878 -0.262207
vt 0.056000 -0.247070
vt 0.045135 -0.245972
vt 0.053253 -0.208862
vt 0.046173 -0.208740
vt 0.045166 -0.218140
vt 0.057007 -0.219482
vt 0.132446 -0.504883
vt 0.118958 -0.507324
vt 0.137939 -0.523438
vt 0.036987 -0.439941
vt 0.044067 -0.443848
vt 0.050140 -0.286621
vt 0.051178 -0.309082
vt 0.056580 -0.279053
vt 0.116760 -0.429688
vt 0.107483 -0.410889
vt 0.109375 -0.430908
vt 0.082336 -0.242310
vt 0.086731 -0.244873
vt 0.086548 -0.239136
vt 0.082703 -0.237183
vt 0.066040 -0.371826
vt 0.072449 -0.372070
vt 0.073853 -0.349609
vt 0.080017 -0.203491
vt 0.075378 -0.204224
vt 0.076111 -0.206299
vt 0.081177 -0.205933
vt 0.044647 -0.241455
vt 0.044006 -0.235840
vt 0.124207 -0.217163
vt 0.124207 -0.208008
vt 0.113586 -0.215698
vt 0.112244 -0.227295
vt 0.237793 -0.525391
vt 0.222534 -0.515625
vt 0.215698 -0.525391
vt 0.230103 -0.533203
vt 0.087646 -0.193237
vt 0.084229 -0.199097
vt 0.086060 -0.199829
vt 0.090332 -0.192871
vt 0.223999 -0.575195
vt 0.216553 -0.568848
vt 0.111694 -0.191528
vt 0.103943 -0.191895
vt 0.104126 -0.194458
vt 0.108154 -0.196655
vt 0.095215 -0.279541
vt 0.100159 -0.280518
vt 0.100037 -0.265869
vt 0.095032 -0.265381
vt 0.065918 -0.235962
vt 0.073364 -0.238892
vt 0.074402 -0.234985
vt 0.066833 -0.232910
vt 0.092651 -0.229980
vt 0.086182 -0.229004
vt 0.085999 -0.231812
vt 0.092407 -0.232666
vt 0.096252 -0.330078
vt 0.100464 -0.354004
vt 0.100891 -0.331299
vt 0.081909 -0.248901
vt 0.082092 -0.260986
vt 0.087219 -0.263672
vt 0.086914 -0.251953
vt 0.116821 -0.254883
vt 0.109497 -0.267578
vt 0.117981 -0.269043
vt 0.036682 -0.462646
vt 0.031891 -0.546387
vt 0.035980 -0.537598
vt 0.033844 -0.533203
vt 0.097351 -0.233276
vt 0.092407 -0.237305
vt 0.096802 -0.237915
vt 0.058746 -0.372559
vt 0.054077 -0.390625
vt 0.061859 -0.391602
vt 0.057587 -0.532715
vt 0.065796 -0.539062
vt 0.072632 -0.530273
vt 0.059021 -0.524902
vt 0.050293 -0.532715
vt 0.040863 -0.540527
vt 0.046570 -0.545410
vt 0.052948 -0.541504
vt 0.063965 -0.256592
vt 0.127075 -0.393066
vt 0.070129 -0.567871
vt 0.081543 -0.572754
vt 0.089111 -0.559082
vt 0.075073 -0.554688
vt 0.021683 -0.475342
vt 0.012688 -0.483887
vt 0.018875 -0.491455
vt 0.027618 -0.480713
vt 0.064514 -0.274414
vt 0.073242 -0.300781
vt 0.072021 -0.274170
vt 0.116638 -0.332031
vt 0.109863 -0.332275
vt 0.109680 -0.354492
vt 0.027069 -0.500000
vt 0.019318 -0.511230
vt 0.035919 -0.516113
vt 0.041779 -0.506348
vt 0.082764 -0.372559
vt 0.078979 -0.409912
vt 0.125488 -0.224365
vt 0.113159 -0.232178
vt 0.114258 -0.237183
vt 0.126709 -0.231445
vt 0.209717 -0.542480
vt 0.211792 -0.552734
vt 0.084290 -0.350342
vt 0.100708 -0.306396
vt 0.105713 -0.307617
vt 0.105408 -0.281494
vt 0.127319 -0.238647
vt 0.071594 -0.256592
vt 0.089539 -0.214355
vt 0.084534 -0.211914
vt 0.082947 -0.215088
vt 0.088623 -0.216919
vt 0.094360 -0.253174
vt 0.127930 -0.246216
vt 0.128174 -0.249634
vt 0.086670 -0.225708
vt 0.087891 -0.219360
vt 0.081970 -0.218018
vt 0.082153 -0.225220
vt 0.090942 -0.188232
vt 0.093201 -0.189209
vt 0.074951 -0.228516
vt 0.074890 -0.232422
vt 0.079285 -0.233032
vt 0.078857 -0.229370
vt 0.094482 -0.477539
vt 0.104004 -0.478760
vt 0.102905 -0.453613
vt 0.135742 -0.471680
vt 0.119934 -0.451172
vt 0.125488 -0.476807
vt 0.099792 -0.375488
vt 0.105042 -0.375977
vt 0.105225 -0.354492
vt 0.127563 -0.242798
vt 0.042969 -0.551270
vt 0.036407 -0.548828
vt 0.093445 -0.245850
vt 0.097778 -0.246216
vt 0.096802 -0.240601
vt 0.092651 -0.240112
vt 0.089661 -0.196411
vt 0.087524 -0.199707
vt 0.091309 -0.196777
vt 0.046570 -0.524414
vt 0.064026 -0.512695
vt 0.053650 -0.510254
vt 0.099121 -0.252930
vt 0.064148 -0.575684
vt 0.073792 -0.584961
vt 0.113831 -0.211548
vt 0.109314 -0.211548
vt 0.107605 -0.215698
vt 0.083557 -0.204468
vt 0.086121 -0.208984
vt 0.078979 -0.208740
vt 0.076721 -0.211914
vt 0.076294 -0.215210
vt 0.095337 -0.221313
vt 0.093384 -0.227173
vt 0.098022 -0.228516
vt 0.099182 -0.221558
vt 0.047821 -0.551270
vt 0.052917 -0.551270
vt 0.117981 -0.308594
vt 0.110535 -0.308350
vt 0.080750 -0.475098
vt 0.160278 -0.561523
vt 0.170410 -0.583984
vt 0.177124 -0.576172
vt 0.176270 -0.559570
vt 0.059387 -0.495361
vt 0.068542 -0.497070
vt 0.197998 -0.566406
vt 0.187378 -0.557129
vt 0.086243 -0.236084
vt 0.105408 -0.236328
vt 0.104736 -0.232910
vt 0.101440 -0.234741
vt 0.111511 -0.452881
vt 0.028214 -0.590332
vt 0.019775 -0.589844
vt 0.059601 -0.563477
vt 0.061493 -0.552734
vt 0.052277 -0.373779
vt 0.045380 -0.391846
vt 0.002962 -0.553223
vt 0.002460 -0.572754
vt 0.009865 -0.577148
vt 0.083069 -0.202026
vt 0.058136 -0.407959
vt 0.102295 -0.209106
vt 0.102234 -0.212524
vt 0.106140 -0.210449
vt 0.105591 -0.206909
vt 0.099976 -0.205811
vt 0.102600 -0.205933
vt 0.102661 -0.203979
vt 0.101562 -0.431396
vt 0.100464 -0.411133
vt 0.120361 -0.200562
vt 0.118774 -0.199219
vt 0.113953 -0.203491
vt 0.114014 -0.207642
vt 0.156494 -0.486816
vt 0.147217 -0.465576
vt 0.144165 -0.496826
vt 0.109863 -0.375732
vt 0.124634 -0.673340
vt 0.106934 -0.668457
vt 0.114563 -0.687500
vt 0.122131 -0.656250
vt 0.141113 -0.673828
vt 0.120789 -0.636719
vt 0.095398 -0.613770
vt 0.100159 -0.651855
vt 0.154907 -0.649414
vt 0.157471 -0.674316
vt 0.136963 -0.633789
vt 0.093323 -0.597656
vt 0.118164 -0.603027
vt 0.117981 -0.592285
vt 0.164185 -0.592285
vt 0.116211 -0.579102
vt 0.104553 -0.562988
vt 0.114990 -0.563477
vt 0.128418 -0.562500
vt 0.147583 -0.561035
vt 0.141357 -0.561035
vt 0.082336 -0.596680
vt 0.029892 -0.556152
vt 0.059845 -0.578613
vt 0.053772 -0.582031
vt 0.065063 -0.586914
vt 0.054413 -0.568359
vt 0.054688 -0.561523
vt 0.048187 -0.561035
vt 0.055695 -0.542480
vt 0.040375 -0.561035
vt 0.033813 -0.557617
vt 0.002132 -0.585449
vt 0.011345 -0.588867
vt 0.014076 -0.523926
vt 0.065796 -0.408936
vt 0.075073 -0.391357
vt 0.047882 -0.268555
vt 0.073975 -0.326172
vt 0.072266 -0.243530
vt 0.042908 -0.225830
vt 0.056885 -0.235229
vt 0.057831 -0.229492
vt 0.063843 -0.208984
vt 0.057648 -0.224731
vt 0.067932 -0.228271
vt 0.067932 -0.225586
vt 0.067383 -0.222412
vt 0.070557 -0.206787
vt 0.073486 -0.199463
vt 0.077087 -0.197998
vt 0.079895 -0.193115
vt 0.084473 -0.187988
vt 0.083740 -0.194580
vt 0.087341 -0.188110
vt 0.080505 -0.200928
vt 0.094971 -0.189941
vt 0.096130 -0.192383
vt 0.095581 -0.191162
vt 0.092651 -0.194580
vt 0.085693 -0.201782
vt 0.092651 -0.197754
vt 0.229004 -0.583984
vt 0.237427 -0.569336
vt 0.231689 -0.564453
vt 0.103516 -0.217773
vt 0.101318 -0.215942
vt 0.100159 -0.218872
vt 0.104492 -0.202393
vt 0.101624 -0.199585
vt 0.109253 -0.203003
vt 0.105042 -0.204224
vt 0.106384 -0.199463
vt 0.107666 -0.200928
vt 0.110718 -0.206665
vt 0.104797 -0.214355
vt 0.106384 -0.220215
vt 0.104492 -0.229492
vt 0.125977 -0.309082
vt 0.088989 -0.328125
vt 0.088501 -0.302979
vt 0.076050 -0.451416
vt 0.097595 -0.230957
vt 0.101440 -0.229248
vt 0.216675 -0.543945
vt 0.219482 -0.558594
vt 0.240723 -0.549316
vt 0.214233 -0.560547
vt 0.185181 -0.580566
vt 0.176392 -0.551758
vt 0.175903 -0.682617
vt 0.174561 -0.656250
vt 0.133789 -0.603516
vt 0.056702 -0.593750
vt 0.046844 -0.588867
vt 0.050507 -0.571777
vt 0.044708 -0.565430
vt 0.093323 -0.535156
vt 0.074463 -0.514648
vt 0.093201 -0.520508
vt 0.104553 -0.505859
vt 0.093567 -0.503418
vt 0.114990 -0.478760
vt 0.165771 -0.501953
vt 0.151123 -0.514648
vt 0.118713 -0.283203
vt 0.110535 -0.282227
vt 0.104797 -0.266602
vt 0.095886 -0.305176
vt 0.122314 -0.204224
vt 0.128174 -0.267822
vt 0.087585 -0.277588
vt 0.077087 -0.258301
vt 0.077454 -0.245605
vt 0.078369 -0.240112
vt 0.079163 -0.235596
vt 0.044037 -0.221924
vt 0.082703 -0.234375
vt 0.082520 -0.230591
vt 0.082336 -0.228394
vt 0.078369 -0.227417
vt 0.077454 -0.224731
vt 0.074280 -0.226440
vt 0.070435 -0.212524
vt 0.073120 -0.223877
vt 0.072327 -0.209229
vt 0.128052 -0.286377
vt 0.095764 -0.218750
vt 0.096436 -0.216309
vt 0.102844 -0.221191
vt 0.112122 -0.200317
vt 0.116760 -0.197632
vt 0.113953 -0.194214
vt 0.110107 -0.198242
vt 0.009956 -0.500000
vt 0.089844 -0.200684
vt 0.187622 -0.545898
vt 0.003706 -0.492432
vt 0.008827 -0.536133
vt 0.190674 -0.528320
vt 0.201660 -0.524414
vt 0.207153 -0.505859
vt 0.187988 -0.512695
vt 0.250244 -0.547363
vt 0.103516 -0.253418
vt 0.211670 -0.591309
vt 0.178223 -0.588867
vt 0.173950 -0.593750
vt 0.080383 -0.196045
vt 0.076660 -0.498779
vt 0.029327 -0.457520
vt 0.196411 -0.597656
vt 0.052246 -0.352783
vt 0.082214 -0.190552
s 1
g off
g leg_1_dr_Material
usemtl Material
f 239/1/239 238/2/238 236/3/236 240/4/240
f 366/5/366 363/6/363 34/7/34 481/8/481
f 303/9/303 299/10/299 305/11/305 311/12/311
f 19/13/19 15/14/15 13/15/13 16/16/16
f 77/17/77 79/18/79 83/19/83 80/20/80
f 250/21/250 246/22/246 231/23/231 233/24/233
f 91/25/91 93/26/93 96/27/96 94/28/94
f 140/29/140 136/30/136 142/31/142 147/32/147
f 113/33/113 107/34/107 110/35/110 119/36/119
f 90/37/90 83/19/83 93/26/93 91/25/91
f 410/38/410 399/39/399 416/40/416 415/41/415
f 382/42/382 403/43/403 405/44/405 380/45/380
f 122/46/122 117/47/117 121/48/121 127/49/127
f 384/50/384 401/51/401 403/43/403 382/42/382
f 23/52/23 22/53/22 25/54/25 26/55/26
f 157/56/157 159/57/159 163/58/163 161/59/161
f 340/60/340 337/61/337 339/62/339 345/63/345
f 337/61/337 333/64/333 336/65/336 339/62/339
f 307/66/307 305/11/305 302/67/302 306/68/306
f 336/65/336 332/69/332 338/70/338 341/71/341
f 326/72/326 322/73/322 325/74/325 329/75/329
f 225/76/225 227/77/227 231/23/231 232/78/232
f 118/79/118 120/80/120 124/81/124 123/82/123
f 411/83/411 125/84/125 120/80/120 119/36/119
f 468/85/468 471/86/471 474/87/474 472/88/472
f 83/19/83 79/18/79 84/89/84 93/26/93
f 460/90/460 451/91/451 456/92/456 486/93/486
f 452/94/452 356/95/356 363/6/363 366/5/366
f 35/96/35 32/97/32 37/98/37 362/99/362
f 48/100/48 47/101/47 55/102/55 74/103/74
f 378/104/378 374/105/374 377/106/377 408/107/408
f 124/81/124 120/80/120 125/84/125 135/108/135
f 149/109/149 148/110/148 153/111/153 154/112/154
f 179/113/179 178/114/178 177/115/177 176/116/176
f 357/117/357 359/118/359 37/98/37 360/119/360
f 117/47/117 114/120/114 116/121/116 121/48/121
f 141/122/141 137/123/137 140/29/140 145/124/145
f 344/125/344 341/71/341 343/126/343 347/127/347
f 423/128/423 422/129/422 428/130/428 427/131/427
f 138/132/138 139/133/139 143/134/143 142/31/142
f 206/135/206 202/136/202 199/137/199 226/138/226
f 158/139/158 157/56/157 161/59/161 162/140/162
f 286/141/286 285/142/285 284/143/284 288/144/288
f 450/145/450 447/146/447 449/147/449 453/148/453
f 207/149/207 209/150/209 211/151/211 212/152/212
f 468/85/468 467/153/467 466/154/466 471/86/471
f 270/155/270 269/156/269 268/157/268 271/158/271
f 120/80/120 118/79/118 113/33/113 119/36/119
f 390/159/390 387/160/387 389/161/389 392/162/392
f 167/163/167 168/164/168 172/165/172 171/166/171
f 439/167/439 436/168/436 435/169/435 437/170/437
f 386/171/386 384/50/384 381/172/381 383/173/383
f 420/174/420 418/175/418 400/176/400 419/177/419
f 308/178/308 311/12/311 315/179/315 313/180/313
f 111/181/111 113/33/113 118/79/118 116/121/116
f 84/89/84 76/182/76 85/183/85 98/184/98
f 440/185/440 437/170/437 438/186/438 441/187/441
f 133/188/133 130/189/130 132/190/132 138/132/138
f 68/191/68 62/192/62 67/193/67 414/194/414
f 69/195/69 70/196/70 65/197/65 66/198/66
f 153/111/153 155/199/155 159/57/159 157/56/157
f 330/200/330 326/72/326 329/75/329 332/69/332
f 51/201/51 36/202/36 40/203/40 54/204/54
f 109/205/109 103/206/103 106/207/106 108/208/108
f 150/209/150 147/32/147 152/210/152 156/211/156
f 325/74/325 321/212/321 327/213/327 331/214/331
f 100/215/100 97/216/97 99/217/99 105/218/105
f 406/219/406 407/220/407 405/44/405 403/43/403
f 292/221/292 291/222/291 295/223/295 296/224/296
f 455/225/455 451/91/451 460/90/460 461/226/461
f 404/227/404 406/219/406 403/43/403 401/51/401
f 387/160/387 385/228/385 328/229/328 324/230/324
f 296/224/296 295/223/295 299/10/299 300/231/300
f 155/199/155 150/209/150 156/211/156 160/232/160
f 235/233/235 230/234/230 234/235/234 237/236/237
f 400/176/400 392/162/392 394/237/394 419/177/419
f 304/238/304 303/9/303 308/178/308 309/239/309
f 243/240/243 241/241/241 192/242/192 195/243/195
f 208/244/208 207/149/207 212/152/212 213/245/213
f 186/246/186 175/247/175 429/248/429 432/249/432
f 106/207/106 100/215/100 107/34/107 108/208/108
f 371/250/371 367/251/367 370/252/370 374/105/374
f 348/253/348 345/63/345 350/254/350 353/255/353
f 381/172/381 379/256/379 342/257/342 335/258/335
f 380/45/380 405/44/405 408/107/408 377/106/377
f 301/259/301 299/10/299 303/9/303 304/238/304
f 61/260/61 65/197/65 70/196/70 73/261/73
f 402/262/402 393/263/393 396/264/396 425/265/425
f 217/266/217 211/151/211 219/267/219 220/268/220
f 71/269/71 414/194/414 413/270/413 102/271/102
f 392/162/392 389/161/389 391/272/391 394/237/394
f 43/273/43 38/274/38 36/202/36 51/201/51
f 282/275/282 281/276/281 283/277/283 284/143/284
f 224/278/224 226/138/226 229/279/229 227/77/227
f 230/234/230 228/280/228 191/281/191 234/235/234
f 234/235/234 191/281/191 189/282/189 192/242/192
f 143/134/143 139/133/139 406/219/406 404/227/404
f 247/283/247 245/284/245 443/285/443 252/286/252
f 66/198/66 65/197/65 63/287/63 60/288/60
f 321/212/321 320/289/320 323/290/323 327/213/327
f 333/64/333 330/200/330 332/69/332 336/65/336
f 408/107/408 405/44/405 407/220/407 135/108/135
f 375/291/375 371/250/371 374/105/374 378/104/378
f 99/217/99 71/269/71 102/271/102 105/218/105
f 480/292/480 478/293/478 479/294/479 482/295/482
f 411/83/411 119/36/119 115/296/115 412/297/412
f 482/295/482 479/294/479 470/298/470 484/299/484
f 438/186/438 431/300/431 428/130/428 425/265/425
f 306/68/306 297/301/297 293/302/293 298/303/298
f 350/254/350 344/125/344 347/127/347 354/304/354
f 78/305/78 77/17/77 80/20/80 81/306/81
f 53/307/53 51/201/51 54/204/54 59/308/59
f 131/309/131 128/310/128 130/189/130 133/188/133
f 70/196/70 69/195/69 71/269/71 85/183/85
f 89/311/89 88/312/88 86/313/86 90/37/90
f 224/278/224 210/314/210 206/135/206 226/138/226
f 121/48/121 123/82/123 126/315/126 127/49/127
f 255/316/255 256/317/256 259/318/259 260/319/260
f 240/4/240 244/320/244 248/321/248 261/322/261
f 380/45/380 377/106/377 373/323/373 376/324/376
f 154/112/154 153/111/153 157/56/157 158/139/158
f 278/325/278 276/326/276 277/327/277 279/328/279
f 349/329/349 346/330/346 348/253/348 351/331/351
f 334/332/334 331/214/331 335/258/335 342/257/342
f 1/333/1 3/334/3 2/335/2
f 3/334/3 1/333/1 4/336/4
f 6/337/6 4/336/4 1/333/1
f 7/338/7 8/339/8 5/340/5
f 4/336/4 6/337/6 9/341/9
f 9/341/9 7/338/7 4/336/4
f 9/341/9 6/337/6 10/342/10
f 18/343/18 9/341/9 15/14/15
f 7/338/7 9/341/9 18/343/18
f 17/344/17 14/345/14 24/346/24
f 25/54/25 22/53/22 20/347/20
f 17/344/17 24/346/24 27/348/27
f 28/349/28 27/348/27 29/350/29
f 32/97/32 29/350/29 30/351/30
f 33/352/33 31/353/31 25/54/25
f 20/347/20 33/352/33 25/54/25
f 34/7/34 31/353/31 33/352/33
f 17/344/17 36/202/36 38/274/38
f 38/274/38 39/354/39 17/344/17
f 40/203/40 36/202/36 28/349/28
f 74/103/74 75/355/75 79/18/79 77/17/77
f 46/356/46 44/357/44 41/358/41
f 50/359/50 53/307/53 56/360/56
f 57/361/57 50/359/50 56/360/56
f 59/308/59 64/362/64 60/288/60
f 63/287/63 65/197/65 61/260/61
f 60/288/60 64/362/64 66/198/66
f 54/204/54 67/193/67 62/192/62
f 62/192/62 68/191/68 64/362/64
f 55/102/55 58/363/58 72/364/72
f 87/365/87 82/366/82 86/313/86
f 87/365/87 86/313/86 88/312/88
f 95/367/95 94/28/94 97/216/97
f 98/184/98 85/183/85 71/269/71
f 115/296/115 119/36/119 110/35/110
f 129/368/129 132/190/132 126/315/126
f 124/81/124 135/108/135 129/368/129
f 129/368/129 139/133/139 132/190/132
f 132/190/132 139/133/139 138/132/138
f 144/369/144 139/133/139 129/368/129
f 129/368/129 135/108/135 144/369/144
f 148/110/148 149/109/149 146/370/146
f 142/31/142 151/371/151 147/32/147
f 143/134/143 151/371/151 142/31/142
f 147/32/147 151/371/151 152/210/152
f 148/110/148 155/199/155 153/111/153
f 164/372/164 163/58/163 159/57/159
f 166/373/166 165/374/165 169/375/169
f 176/116/176 180/376/180 179/113/179
f 173/377/173 174/378/174 181/379/181
f 176/116/176 182/380/182 180/376/180
f 174/378/174 175/247/175 186/246/186
f 193/381/193 194/382/194 180/376/180
f 196/383/196 197/384/197 194/382/194
f 201/385/201 203/386/203 204/387/204
f 202/136/202 206/135/206 205/388/205
f 203/386/203 209/150/209 207/149/207
f 212/152/212 214/389/214 213/245/213
f 217/266/217 212/152/212 211/151/211
f 218/390/218 216/391/216 215/392/215
f 217/266/217 220/268/220 215/392/215
f 219/267/219 211/151/211 221/393/221
f 221/393/221 210/314/210 224/278/224
f 226/138/226 199/137/199 228/280/228
f 218/390/218 223/394/223 238/2/238
f 218/390/218 238/2/238 239/1/239
f 464/395/464 458/396/458 463/397/463 467/153/467
f 441/187/441 438/186/438 425/265/425 396/264/396
f 257/398/257 254/399/254 253/400/253
f 264/401/264 242/402/242 261/322/261
f 260/319/260 265/403/265 262/404/262
f 267/405/267 242/402/242 264/401/264
f 264/401/264 266/406/266 267/405/267
f 218/390/218 268/157/268 269/156/269
f 279/328/279 277/327/277 263/407/263
f 281/276/281 282/275/282 279/328/279
f 258/408/258 283/277/283 281/276/281
f 283/277/283 258/408/258 257/398/257
f 284/143/284 283/277/283 287/409/287
f 288/144/288 290/410/290 293/302/293
f 299/10/299 301/259/301 300/231/300
f 297/301/297 306/68/306 302/67/302
f 311/12/311 308/178/308 303/9/303
f 320/289/320 321/212/321 317/411/317
f 321/212/321 322/73/322 317/411/317
f 321/212/321 325/74/325 322/73/322
f 327/213/327 323/290/323 328/229/328
f 331/214/331 327/213/327 335/258/335
f 328/229/328 335/258/335 327/213/327
f 338/70/338 334/332/334 342/257/342
f 341/71/341 338/70/338 343/126/343
f 342/257/342 343/126/343 338/70/338
f 383/173/383 381/172/381 335/258/335
f 328/229/328 383/173/383 335/258/335
f 385/228/385 383/173/383 328/229/328
f 360/119/360 37/98/37 32/97/32 34/7/34
f 398/412/398 397/413/397 399/39/399
f 401/51/401 398/412/398 404/227/404
f 399/39/399 404/227/404 398/412/398
f 413/270/413 412/297/412 115/296/115 102/271/102
f 406/219/406 144/369/144 407/220/407
f 139/133/139 144/369/144 406/219/406
f 135/108/135 407/220/407 144/369/144
f 143/134/143 404/227/404 151/371/151
f 409/414/409 135/108/135 125/84/125
f 410/38/410 151/371/151 404/227/404
f 404/227/404 399/39/399 410/38/410
f 151/371/151 410/38/410 152/210/152
f 411/83/411 409/414/409 125/84/125
f 396/264/396 306/68/306 441/187/441
f 442/415/442 294/416/294 443/285/443
f 461/226/461 459/417/459 455/225/455
f 459/417/459 461/226/461 462/418/462
f 457/419/457 462/418/462 463/397/463
f 461/226/461 465/420/465 462/418/462
f 460/90/460 465/420/465 461/226/461
f 462/418/462 465/420/465 466/154/466
f 465/420/465 460/90/460 470/298/470
f 474/87/474 471/86/471 470/298/470
f 470/298/470 477/421/477 474/87/474
f 479/294/479 477/421/477 470/298/470
f 483/422/483 366/5/366 481/8/481
f 470/298/470 486/93/486 484/299/484
f 470/298/470 460/90/460 486/93/486
f 7/338/7 5/340/5 3/334/3 4/336/4
f 10/342/10 12/423/12 11/424/11 9/341/9
f 9/341/9 11/424/11 13/15/13 15/14/15
f 8/339/8 7/338/7 14/345/14 17/344/17
f 21/425/21 18/343/18 15/14/15 19/13/19
f 19/13/19 16/16/16 20/347/20 22/53/22
f 7/338/7 18/343/18 21/425/21 14/345/14
f 21/425/21 19/13/19 22/53/22 23/52/23
f 14/345/14 21/425/21 23/52/23 24/346/24
f 30/351/30 26/55/26 25/54/25 31/353/31
f 30/351/30 31/353/31 34/7/34 32/97/32
f 39/354/39 38/274/38 41/358/41 42/426/42
f 42/426/42 41/358/41 44/357/44 45/427/45
f 43/273/43 46/356/46 41/358/41 38/274/38
f 46/356/46 43/273/43 50/359/50 49/428/49
f 52/429/52 49/428/49 50/359/50 57/361/57
f 50/359/50 43/273/43 51/201/51 53/307/53
f 56/360/56 53/307/53 59/308/59 60/288/60
f 63/287/63 57/361/57 56/360/56 60/288/60
f 72/364/72 58/363/58 61/260/61 73/261/73
f 74/103/74 55/102/55 72/364/72 75/355/75
f 48/100/48 74/103/74 77/17/77 78/305/78
f 69/195/69 66/198/66 64/362/64 68/191/68
f 79/18/79 75/355/75 76/182/76 84/89/84
f 76/182/76 73/261/73 70/196/70 85/183/85
f 71/269/71 69/195/69 68/191/68 414/194/414
f 67/193/67 54/204/54 40/203/40 364/430/364
f 67/193/67 369/431/369 413/270/413 414/194/414
f 364/430/364 35/96/35 362/99/362 365/432/365
f 67/193/67 364/430/364 365/432/365 369/431/369
f 365/432/365 362/99/362 361/433/361 368/434/368
f 359/118/359 357/117/357 353/255/353 358/435/358
f 356/95/356 352/436/352 355/437/355 363/6/363
f 363/6/363 355/437/355 360/119/360 34/7/34
f 271/158/271 268/157/268 242/402/242 267/405/267
f 320/289/320 316/438/316 318/439/318 323/290/323
f 313/180/313 315/179/315 318/439/318 316/438/316
f 389/161/389 387/160/387 324/230/324 319/440/319
f 390/159/390 388/441/388 385/228/385 387/160/387
f 286/141/286 288/144/288 291/222/291 292/221/292
f 297/301/297 291/222/291 288/144/288 293/302/293
f 280/442/280 282/275/282 284/143/284 285/142/285
f 313/180/313 310/443/310 309/239/309 308/178/308
f 397/413/397 388/441/388 390/159/390 395/444/395
f 395/444/395 390/159/390 392/162/392 400/176/400
f 394/237/394 391/272/391 393/263/393 402/262/402
f 419/177/419 394/237/394 402/262/402 422/129/422
f 145/124/145 140/29/140 147/32/147 150/209/150
f 415/41/415 416/40/416 418/175/418 417/445/417
f 417/445/417 418/175/418 420/174/420 421/446/421
f 424/447/424 423/128/423 427/131/427 426/448/426
f 164/372/164 160/232/160 417/445/417 421/446/421
f 168/164/168 164/372/164 421/446/421 424/447/424
f 160/232/160 156/211/156 415/41/415 417/445/417
f 159/57/159 155/199/155 160/232/160 164/372/164
f 155/199/155 148/110/148 145/124/145 150/209/150
f 170/449/170 166/373/166 169/375/169 173/377/173
f 165/374/165 167/163/167 171/166/171 169/375/169
f 426/448/426 172/165/172 168/164/168 424/447/424
f 429/248/429 175/247/175 172/165/172 426/448/426
f 169/375/169 171/166/171 174/378/174 173/377/173
f 426/448/426 427/131/427 430/450/430 429/248/429
f 431/300/431 435/169/435 433/451/433 430/450/430
f 437/170/437 435/169/435 431/300/431 438/186/438
f 436/168/436 434/452/434 433/451/433 435/169/435
f 434/452/434 188/453/188 432/249/432 433/451/433
f 195/243/195 434/452/434 436/168/436 243/240/243
f 195/243/195 187/454/187 188/453/188 434/452/434
f 439/167/439 437/170/437 440/185/440 442/415/442
f 183/455/183 181/379/181 174/378/174 186/246/186
f 243/240/243 436/168/436 439/167/439 245/284/245
f 176/116/176 173/377/173 181/379/181 182/380/182
f 170/449/170 173/377/173 176/116/176 177/115/177
f 192/242/192 189/282/189 187/454/187 195/243/195
f 189/282/189 185/456/185 184/457/184 187/454/187
f 185/456/185 180/376/180 182/380/182 184/457/184
f 185/456/185 189/282/189 191/281/191 190/458/190
f 234/235/234 192/242/192 241/241/241 237/236/237
f 247/283/247 241/241/241 243/240/243 245/284/245
f 202/136/202 196/383/196 194/382/194 193/381/193
f 317/411/317 314/459/314 316/438/316 320/289/320
f 193/381/193 190/458/190 199/137/199 202/136/202
f 204/387/204 203/386/203 207/149/207 208/244/208
f 210/314/210 209/150/209 205/388/205 206/135/206
f 228/280/228 199/137/199 190/458/190 191/281/191
f 233/24/233 229/279/229 230/234/230 235/233/235
f 237/236/237 241/241/241 247/283/247 249/460/249
f 250/21/250 233/24/233 235/233/235 251/461/251
f 443/285/443 294/416/294 289/462/289 252/286/252
f 251/461/251 249/460/249 253/400/253 254/399/254
f 440/185/440 298/303/298 294/416/294 442/415/442
f 252/286/252 289/462/289 257/398/257 253/400/253
f 293/302/293 290/410/290 294/416/294 298/303/298
f 290/410/290 287/409/287 289/462/289 294/416/294
f 288/144/288 284/143/284 287/409/287 290/410/290
f 282/275/282 280/442/280 278/325/278 279/328/279
f 250/21/250 251/461/251 254/399/254 256/317/256
f 259/318/259 256/317/256 258/408/258 281/276/281
f 263/407/263 259/318/259 281/276/281 279/328/279
f 255/316/255 246/22/246 250/21/250 256/317/256
f 260/319/260 259/318/259 263/407/263 265/403/265
f 277/327/277 275/463/275 265/403/265 263/407/263
f 276/326/276 274/464/274 275/463/275 277/327/277
f 275/463/275 274/464/274 272/465/272 273/466/273
f 265/403/265 275/463/275 273/466/273 266/406/266
f 265/403/265 266/406/266 264/401/264 262/404/262
f 101/467/101 97/216/97 100/215/100 106/207/106
f 416/40/416 399/39/399 397/413/397 395/444/395
f 218/390/218 239/1/239 242/402/242 268/157/268
f 242/402/242 239/1/239 240/4/240 261/322/261
f 248/321/248 244/320/244 246/22/246 255/316/255
f 244/320/244 232/78/232 231/23/231 246/22/246
f 231/23/231 227/77/227 229/279/229 233/24/233
f 240/4/240 236/3/236 232/78/232 244/320/244
f 225/76/225 221/393/221 224/278/224 227/77/227
f 223/394/223 222/468/222 236/3/236 238/2/238
f 485/469/485 484/299/484 486/93/486 456/92/456
f 103/206/103 104/470/104 101/467/101 106/207/106
f 92/471/92 91/25/91 94/28/94 95/367/95
f 89/311/89 90/37/90 91/25/91 92/471/92
f 90/37/90 86/313/86 80/20/80 83/19/83
f 126/315/126 123/82/123 124/81/124 129/368/129
f 448/472/448 446/473/446 445/474/445 444/475/444
f 447/146/447 445/474/445 446/473/446 449/147/449
f 448/472/448 444/475/444 356/95/356 452/94/452
f 449/147/449 446/473/446 451/91/451 455/225/455
f 454/476/454 450/145/450 453/148/453 457/419/457
f 453/148/453 449/147/449 455/225/455 459/417/459
f 391/272/391 312/477/312 307/66/307 393/263/393
f 462/418/462 457/419/457 453/148/453 459/417/459
f 467/153/467 463/397/463 462/418/462 466/154/466
f 469/478/469 464/395/464 467/153/467 468/85/468
f 466/154/466 465/420/465 470/298/470 471/86/471
f 477/421/477 475/479/475 472/88/472 474/87/474
f 20/347/20 476/480/476 475/479/475 478/293/478
f 479/294/479 478/293/478 475/479/475 477/421/477
f 33/352/33 480/292/480 481/8/481 34/7/34
f 452/94/452 366/5/366 483/422/483 485/469/485
f 229/279/229 226/138/226 228/280/228 230/234/230
f 161/59/161 163/58/163 167/163/167 165/374/165
f 40/203/40 28/349/28 35/96/35 364/430/364
f 258/408/258 256/317/256 254/399/254 257/398/257
f 218/390/218 215/392/215 220/268/220 223/394/223
f 163/58/163 164/372/164 168/164/168 167/163/167
f 388/441/388 386/171/386 383/173/383 385/228/385
f 391/272/391 389/161/389 319/440/319 312/477/312
f 346/330/346 340/60/340 345/63/345 348/253/348
f 24/346/24 23/52/23 26/55/26 27/348/27
f 205/388/205 200/481/200 196/383/196 202/136/202
f 376/324/376 373/323/373 347/127/347 343/126/343
f 61/260/61 58/363/58 57/361/57 63/287/63
f 146/370/146 141/122/141 145/124/145 148/110/148
f 481/8/481 480/292/480 482/295/482 483/422/483
f 378/104/378 408/107/408 135/108/135 409/414/409
f 339/62/339 336/65/336 341/71/341 344/125/344
f 386/171/386 398/412/398 401/51/401 384/50/384
f 305/11/305 307/66/307 312/477/312 311/12/311
f 441/187/441 306/68/306 298/303/298 440/185/440
f 427/131/427 428/130/428 431/300/431 430/450/430
f 369/431/369 372/482/372 412/297/412 413/270/413
f 273/466/273 272/465/272 270/155/270 271/158/271
f 377/106/377 374/105/374 370/252/370 373/323/373
f 59/308/59 54/204/54 62/192/62 64/362/64
f 222/468/222 219/267/219 221/393/221 225/76/225
f 47/101/47 49/428/49 52/429/52 55/102/55
f 112/483/112 109/205/109 108/208/108 111/181/111
f 94/28/94 96/27/96 99/217/99 97/216/97
f 249/460/249 247/283/247 252/286/252 253/400/253
f 295/223/295 291/222/291 297/301/297 302/67/302
f 114/120/114 112/483/112 111/181/111 116/121/116
f 33/352/33 20/347/20 478/293/478 480/292/480
f 422/129/422 402/262/402 425/265/425 428/130/428
f 372/482/372 375/291/375 411/83/411 412/297/412
f 184/457/184 182/380/182 181/379/181 183/455/183
f 209/150/209 203/386/203 200/481/200 205/388/205
f 116/121/116 118/79/118 123/82/123 121/48/121
f 127/49/127 126/315/126 132/190/132 130/189/130
f 236/3/236 222/468/222 225/76/225 232/78/232
f 483/422/483 482/295/482 484/299/484 485/469/485
f 128/310/128 122/46/122 127/49/127 130/189/130
f 476/480/476 473/484/473 472/88/472 475/479/475
f 248/321/248 255/316/255 260/319/260 262/404/262
f 58/363/58 55/102/55 52/429/52 57/361/57
f 36/202/36 17/344/17 27/348/27 28/349/28
f 137/123/137 134/485/134 136/30/136 140/29/140
f 44/357/44 46/356/46 49/428/49 47/101/47
f 187/454/187 184/457/184 183/455/183 188/453/188
f 220/268/220 219/267/219 222/468/222 223/394/223
f 369/431/369 365/432/365 368/434/368 372/482/372
f 429/248/429 430/450/430 433/451/433 432/249/432
f 355/437/355 351/331/351 357/117/357 360/119/360
f 156/211/156 152/210/152 410/38/410 415/41/415
f 215/392/215 214/389/214 212/152/212 217/266/217
f 235/233/235 237/236/237 249/460/249 251/461/251
f 316/438/316 314/459/314 310/443/310 313/180/313
f 180/376/180 185/456/185 190/458/190 193/381/193
f 203/386/203 201/385/201 198/486/198 200/481/200
f 324/230/324 318/439/318 315/179/315 319/440/319
f 421/446/421 420/174/420 423/128/423 424/447/424
f 353/255/353 350/254/350 354/304/354 358/435/358
f 451/91/451 446/473/446 448/472/448 456/92/456
f 456/92/456 448/472/448 452/94/452 485/469/485
f 108/208/108 107/34/107 113/33/113 111/181/111
f 469/478/469 468/85/468 472/88/472 473/484/473
f 171/166/171 172/165/172 175/247/175 174/378/174
f 29/350/29 27/348/27 26/55/26 30/351/30
f 271/158/271 267/405/267 266/406/266 273/466/273
f 329/75/329 325/74/325 331/214/331 334/332/334
f 362/99/362 37/98/37 359/118/359 361/433/361
f 261/322/261 248/321/248 262/404/262 264/401/264
f 361/433/361 359/118/359 358/435/358 367/251/367
f 319/440/319 315/179/315 311/12/311 312/477/312
f 373/323/373 370/252/370 354/304/354 347/127/347
f 134/485/134 131/309/131 133/188/133 136/30/136
f 376/324/376 379/256/379 382/42/382 380/45/380
f 82/366/82 81/306/81 80/20/80 86/313/86
f 375/291/375 378/104/378 409/414/409 411/83/411
f 107/34/107 100/215/100 105/218/105 110/35/110
f 162/140/162 161/59/161 165/374/165 166/373/166
f 332/69/332 329/75/329 334/332/334 338/70/338
f 323/290/323 318/439/318 324/230/324 328/229/328
f 75/355/75 72/364/72 73/261/73 76/182/76
f 372/482/372 368/434/368 371/250/371 375/291/375
f 384/50/384 382/42/382 379/256/379 381/172/381
f 367/251/367 358/435/358 354/304/354 370/252/370
f 368/434/368 361/433/361 367/251/367 371/250/371
f 351/331/351 348/253/348 353/255/353 357/117/357
f 136/30/136 133/188/133 138/132/138 142/31/142
f 35/96/35 28/349/28 29/350/29 32/97/32
f 299/10/299 295/223/295 302/67/302 305/11/305
f 393/263/393 307/66/307 306/68/306 396/264/396
f 198/486/198 197/384/197 196/383/196 200/481/200
f 379/256/379 376/324/376 343/126/343 342/257/342
f 245/284/245 439/167/439 442/415/442 443/285/443
f 345/63/345 339/62/339 344/125/344 350/254/350
f 458/396/458 454/476/454 457/419/457 463/397/463
f 115/296/115 110/35/110 105/218/105 102/271/102
f 96/27/96 93/26/93 84/89/84 98/184/98
f 45/427/45 44/357/44 47/101/47 48/100/48
f 352/436/352 349/329/349 351/331/351 355/437/355
f 418/175/418 416/40/416 395/444/395 400/176/400
f 99/217/99 96/27/96 98/184/98 71/269/71
f 388/441/388 397/413/397 398/412/398 386/171/386
f 211/151/211 209/150/209 210/314/210 221/393/221
f 287/409/287 283/277/283 257/398/257 289/462/289
f 188/453/188 183/455/183 186/246/186 432/249/432
f 420/174/420 419/177/419 422/129/422 423/128/423
