# Blender 5.1.1
# www.blender.org
mtllib right_arm_0.mtl
g arm_1_dr_Mesh_0456Mesh.005
v -0.228522 0.000500 -0.023156
v -0.228510 -0.000412 -0.023115
v -0.228509 -0.000406 -0.023970
v -0.009531 -0.002213 0.019449
v -0.003104 -0.001778 0.015802
v -0.003144 -0.008438 0.013132
v -0.009689 -0.010139 0.015933
v -0.021476 -0.002281 0.019565
v -0.009757 -0.016090 0.007592
v -0.003191 -0.013412 0.006515
v -0.021450 -0.010033 0.015804
v -0.034998 -0.007713 0.011945
v -0.035390 -0.001816 0.014926
v -0.021248 -0.015900 0.007245
v -0.009529 -0.017838 -0.000285
v -0.003144 -0.014725 -0.000074
v -0.002744 -0.011879 -0.009512
v -0.020961 -0.017807 -0.000375
v -0.034375 -0.012177 0.005299
v -0.008979 -0.014778 -0.011505
v -0.001812 -0.007095 -0.014675
v -0.020501 -0.015266 -0.011186
v -0.060245 -0.006256 0.010466
v -0.060615 -0.001503 0.013221
v -0.059566 -0.009743 0.004684
v -0.083265 -0.005951 0.010877
v -0.083452 -0.001461 0.013419
v -0.082811 -0.009209 0.005508
v -0.117260 -0.005848 0.012322
v -0.155447 -0.001237 0.015902
v -0.059120 -0.010773 0.000064
v -0.179403 -0.004853 0.016582
v -0.179363 -0.000626 0.017720
v -0.192602 -0.000290 0.019072
v -0.034126 -0.013603 -0.000203
v -0.193313 -0.004730 0.017930
v -0.202430 -0.000114 0.020361
v -0.033958 -0.011871 -0.008005
v -0.203519 -0.005562 0.019659
v -0.211923 -0.000031 0.022828
v -0.058631 -0.009171 -0.006464
v -0.213453 -0.006783 0.022436
v -0.221799 0.000000 0.029154
v -0.194122 -0.008423 0.014357
v -0.222257 -0.008018 0.027590
v -0.231016 -0.000008 0.032260
v -0.204881 -0.010071 0.016121
v -0.215427 -0.012398 0.018589
v -0.179351 -0.008339 0.013247
v -0.204452 -0.012962 0.008759
v -0.155277 -0.008749 0.011187
v -0.193668 -0.011124 0.007889
v -0.179088 -0.010853 0.007057
v -0.116619 -0.010436 0.002537
v -0.192368 -0.010160 -0.002393
v -0.178611 -0.009782 -0.002705
v -0.082382 -0.010208 0.000776
v -0.116111 -0.008568 -0.005264
v -0.081812 -0.008484 -0.005928
v -0.154241 -0.005884 -0.008312
v -0.115896 -0.005241 -0.009274
v -0.081600 -0.005142 -0.010090
v -0.191943 -0.006932 -0.007743
v -0.154100 0.000832 -0.010974
v -0.213911 -0.013069 -0.004523
v -0.214891 -0.015694 0.010021
v -0.178230 0.000343 -0.011160
v -0.223776 -0.018524 0.011393
v -0.115778 0.001221 -0.011479
v -0.223142 -0.014725 0.021350
v -0.224805 -0.016502 -0.004451
v -0.231725 -0.018761 0.013123
v -0.230413 -0.015228 0.022657
v -0.230535 -0.008293 0.030045
v -0.234926 -0.007454 0.027584
v -0.235666 -0.000015 0.029082
v -0.233862 -0.013329 0.021576
v -0.237627 -0.005936 0.022762
v -0.237978 -0.000031 0.023132
v -0.233801 -0.015465 0.012317
v -0.247099 -0.005894 0.021916
v -0.247556 -0.000031 0.022391
v -0.237390 -0.010277 0.019314
v -0.246591 -0.010091 0.018311
v -0.257551 -0.005812 0.021652
v -0.257860 -0.000031 0.022357
v -0.237978 -0.010796 0.013265
v -0.253450 -0.010206 0.017834
v -0.246931 -0.010304 0.011593
v -0.241094 -0.010307 0.002129
v -0.259134 -0.005116 0.021133
v -0.262145 -0.000015 0.020828
v -0.256942 -0.009987 0.017714
v -0.264974 -0.002478 0.017610
v -0.265089 0.000008 0.018501
v -0.261747 -0.007103 0.016686
v -0.256490 -0.010366 0.010747
v -0.264898 -0.004456 0.014925
v -0.269727 0.000122 0.007618
v -0.261909 -0.008169 0.010383
v -0.265344 -0.005592 0.010032
v -0.267435 -0.006638 0.002314
v -0.273222 0.000198 0.003199
v -0.259731 -0.009792 -0.001037
v -0.263746 -0.008919 0.000060
v -0.271146 -0.010010 -0.002896
v -0.247131 -0.009772 0.000020
v -0.266969 -0.012894 -0.005276
v -0.262071 -0.014084 -0.006605
v -0.250172 -0.014972 -0.007472
v -0.238534 -0.015046 -0.002167
v -0.268489 -0.014009 -0.007530
v -0.235529 -0.017693 -0.004453
v -0.274183 -0.010849 -0.005053
v -0.276113 0.000267 0.001760
v -0.289880 0.000397 0.001021
v -0.244959 -0.017582 -0.009372
v -0.232363 -0.007474 -0.014958
v -0.258669 -0.016480 -0.010369
v -0.249735 -0.016969 -0.010779
v -0.249550 -0.007445 -0.017761
v -0.241640 -0.007683 -0.017181
v -0.259358 -0.006989 -0.016589
v -0.221193 -0.006753 -0.011065
v -0.212891 -0.008374 -0.010366
v -0.226027 -0.004425 -0.017430
v -0.212717 -0.000114 -0.014087
v -0.233694 -0.005142 -0.020684
v -0.220392 -0.000481 -0.017983
v -0.228510 -0.000412 -0.023115
v -0.228509 -0.000406 -0.023970
v -0.220388 0.000153 -0.018005
v -0.228522 0.000500 -0.023156
v -0.233560 -0.000412 -0.026451
v -0.242094 -0.005066 -0.022512
v -0.235506 -0.000412 -0.030571
v -0.233556 0.000496 -0.026462
v -0.247999 -0.004738 -0.022875
v -0.241735 -0.000412 -0.031791
v -0.255067 -0.005280 -0.022557
v -0.243257 -0.000412 -0.027729
v -0.235502 0.000496 -0.030578
v -0.241731 0.000496 -0.031798
v -0.243250 0.000496 -0.027736
v -0.233686 0.005051 -0.021036
v -0.242075 0.005287 -0.022847
v -0.247301 0.000496 -0.028004
v -0.226026 0.004196 -0.017731
v -0.247308 -0.000412 -0.027999
v -0.249025 -0.000412 -0.032254
v -0.219345 0.005692 -0.010814
v -0.232355 0.007263 -0.015599
v -0.243707 0.007401 -0.017892
v -0.247972 0.005127 -0.023341
v -0.249014 0.000496 -0.032260
v -0.256017 0.000496 -0.032145
v -0.255056 0.004898 -0.022934
v -0.256029 -0.000412 -0.032139
v -0.256998 0.000496 -0.026556
v -0.257009 -0.000412 -0.026547
v -0.249549 0.007100 -0.018369
v -0.261301 -0.004913 -0.021577
v -0.261469 0.000496 -0.025052
v -0.261572 -0.000412 -0.024994
v -0.264753 -0.000412 -0.028426
v -0.266523 -0.004204 -0.019188
v -0.261289 0.004311 -0.021933
v -0.264745 0.000496 -0.028446
v -0.270628 -0.000412 -0.026012
v -0.264009 -0.006584 -0.014437
v -0.270643 0.000496 -0.026068
v -0.268694 -0.006012 -0.010583
v -0.269262 -0.003708 -0.015780
v -0.271474 -0.000412 -0.023038
v -0.275758 -0.003059 -0.010751
v -0.266576 0.004494 -0.019562
v -0.271734 0.000496 -0.022921
v -0.275686 -0.000412 -0.018280
v -0.273874 -0.004753 -0.005589
v -0.289617 0.000305 0.000801
v -0.283182 -0.000412 -0.010266
v -0.289613 0.000496 0.000784
v -0.276178 -0.000412 -0.018793
v -0.283266 0.000496 -0.009831
v -0.275716 0.000496 -0.018346
v -0.276216 0.000496 -0.018854
v -0.269903 0.004227 -0.015719
v -0.275854 0.003479 -0.011079
v -0.273920 0.005051 -0.005992
v -0.274267 0.011032 -0.005956
v -0.276113 0.000267 0.001760
v -0.268755 0.005981 -0.011076
v -0.273222 0.000198 0.003199
v -0.264051 0.006393 -0.014975
v -0.268552 0.013878 -0.008661
v -0.271185 0.010139 -0.003770
v -0.259358 0.006736 -0.017165
v -0.263311 0.015334 -0.010716
v -0.267023 0.012802 -0.006360
v -0.254638 0.016528 -0.011757
v -0.267439 0.006729 0.001752
v -0.269727 0.000122 0.007618
v -0.263769 0.008835 -0.000662
v -0.262102 0.013916 -0.007784
v -0.265588 0.005745 0.008110
v -0.246394 0.017014 -0.009936
v -0.250703 0.014801 -0.008839
v -0.256628 0.009850 -0.002007
v -0.256433 0.010078 0.007693
v -0.235529 0.017502 -0.005935
v -0.246202 0.015137 -0.007892
v -0.247137 0.009644 -0.000814
v -0.224809 0.016281 -0.005751
v -0.238569 0.014915 -0.003421
v -0.246889 0.010010 0.008595
v -0.241094 0.010147 0.001268
v -0.232271 0.018761 0.008543
v -0.234193 0.015366 0.008240
v -0.238363 0.010559 0.010366
v -0.246595 0.009995 0.017460
v -0.233858 0.013260 0.020462
v -0.237390 0.010193 0.018451
v -0.237562 0.004974 0.022417
v -0.256940 0.009903 0.016875
v -0.234766 0.006432 0.027405
v -0.261709 0.007057 0.016093
v -0.247209 0.004906 0.021607
v -0.264917 0.002144 0.017624
v -0.265089 0.000008 0.018501
v -0.262145 -0.000015 0.020828
v -0.261900 0.003387 0.019891
v -0.257558 0.004852 0.021400
v -0.257860 -0.000031 0.022357
v -0.247556 -0.000031 0.022391
v -0.237978 -0.000031 0.023132
v -0.235666 -0.000015 0.029082
v -0.231016 -0.000008 0.032260
v -0.230528 0.007347 0.030062
v -0.230413 0.015160 0.021378
v -0.222158 0.007095 0.027462
v -0.221799 0.000000 0.029154
v -0.223158 0.014618 0.020054
v -0.213165 0.005974 0.022154
v -0.211923 -0.000031 0.022828
v -0.223978 0.018456 0.006928
v -0.215427 0.012314 0.017548
v -0.203296 0.004906 0.019799
v -0.202430 -0.000114 0.020361
v -0.192602 -0.000290 0.019072
v -0.204786 0.010292 0.015787
v -0.214742 0.015625 0.006102
v -0.179354 0.003386 0.017245
v -0.179363 -0.000626 0.017720
v -0.155447 -0.001237 0.015902
v -0.179248 0.007965 0.014076
v -0.193403 0.011673 0.005930
v -0.213903 0.012917 -0.005640
v -0.117264 0.002910 0.014326
v -0.083452 -0.001461 0.013419
v -0.212612 0.006981 -0.011828
v -0.202890 0.011375 -0.004072
v -0.202329 0.006393 -0.010350
v -0.202250 -0.000008 -0.012309
v -0.191850 0.005913 -0.009443
v -0.154190 0.006050 -0.008505
v -0.178602 0.010101 -0.002640
v -0.115844 0.006134 -0.008939
v -0.178939 0.011055 0.005820
v -0.116092 0.009628 -0.003018
v -0.154821 0.010399 0.005459
v -0.155203 0.007317 0.012921
v -0.116932 0.007996 0.011012
v -0.116483 0.010483 0.004194
v -0.083385 0.003593 0.013394
v -0.060615 -0.001503 0.013221
v -0.082956 0.009232 0.009151
v -0.060581 0.003830 0.012947
v -0.035390 -0.001816 0.014926
v -0.082372 0.011200 0.002723
v -0.060018 0.009758 0.008159
v -0.035308 0.004478 0.014437
v -0.021476 -0.002281 0.019565
v -0.081855 0.010094 -0.003940
v -0.059282 0.011597 0.002089
v -0.034706 0.011444 0.008680
v -0.021436 0.005722 0.018862
v -0.009531 -0.002213 0.019449
v -0.003145 0.004547 0.015239
v -0.003104 -0.001778 0.015802
v -0.009520 0.005608 0.018716
v -0.003271 0.011559 0.009615
v -0.009594 0.014214 0.011553
v -0.021203 0.014519 0.011474
v -0.020905 0.017120 0.002772
v -0.009762 0.017029 0.002518
v -0.003578 0.014191 0.001903
v -0.003477 0.013206 -0.006020
v -0.034062 0.013420 0.002235
v -0.009670 0.015701 -0.006844
v -0.002091 0.008522 -0.013841
v -0.058675 0.010582 -0.004183
v -0.033624 0.012444 -0.004483
v -0.020588 0.015770 -0.006304
v -0.081581 0.006393 -0.009966
v -0.058508 0.006760 -0.010684
v -0.033804 0.008087 -0.012577
v -0.081535 0.001350 -0.012497
v -0.058587 0.001518 -0.013503
v -0.020212 0.010269 -0.016759
v -0.034148 0.001930 -0.016314
v -0.058538 -0.005531 -0.010974
v -0.020045 0.002464 -0.021657
v -0.034066 -0.007164 -0.013558
v -0.008753 0.010185 -0.016802
v -0.020204 -0.009193 -0.018243
v -0.008030 0.002380 -0.021358
v -0.001034 0.001900 -0.017244
v -0.008376 -0.008850 -0.018135
v 0.002900 -0.000046 0.000475
v -0.003477 0.013206 -0.006020
v -0.002091 0.008522 -0.013841
v -0.001034 0.001900 -0.017244
v -0.003578 0.014191 0.001903
v -0.001812 -0.007095 -0.014675
v -0.003271 0.011559 0.009615
v -0.002744 -0.011879 -0.009512
v -0.003145 0.004547 0.015239
v -0.003144 -0.014725 -0.000074
v -0.003104 -0.001778 0.015802
v -0.003191 -0.013412 0.006515
v -0.003144 -0.008438 0.013132
v -0.255085 -0.013759 -0.009389
v -0.265096 -0.007904 -0.012703
v -0.255102 -0.007889 -0.011696
vn -0.9999 -0.0142 -0.0011
vn 0.2287 -0.3990 0.8880
vn 0.4625 -0.3515 0.8140
vn 0.4465 -0.5668 0.6923
vn 0.2153 -0.6170 0.7569
vn -0.1504 -0.4301 0.8902
vn 0.1960 -0.8946 0.4016
vn 0.4158 -0.8288 0.3746
vn -0.1601 -0.6418 0.7500
vn -0.2008 -0.6651 0.7193
vn -0.1913 -0.4562 0.8691
vn -0.1588 -0.9034 0.3984
vn 0.2188 -0.9757 -0.0135
vn 0.4412 -0.8972 -0.0170
vn 0.4756 -0.7832 -0.4004
vn -0.1490 -0.9888 -0.0056
vn -0.2023 -0.9016 0.3824
vn 0.2451 -0.8577 -0.4520
vn 0.5017 -0.4805 -0.7193
vn -0.1464 -0.8768 -0.4580
vn -0.0393 -0.6923 0.7205
vn -0.0307 -0.4877 0.8725
vn -0.0532 -0.9252 0.3757
vn 0.0159 -0.6975 0.7164
vn 0.0218 -0.4921 0.8703
vn 0.0055 -0.9287 0.3707
vn 0.0369 -0.6381 0.7691
vn 0.0617 -0.2442 0.9678
vn -0.0697 -0.9975 -0.0111
vn 0.0687 -0.4935 0.8670
vn 0.0792 -0.2604 0.9623
vn 0.1199 -0.2362 0.9643
vn -0.2120 -0.9773 -0.0002
vn 0.1297 -0.4719 0.8721
vn 0.2039 -0.1788 0.9625
vn -0.2232 -0.8728 -0.4340
vn 0.2389 -0.4275 0.8719
vn 0.3845 -0.1612 0.9090
vn -0.0799 -0.8918 -0.4454
vn 0.4055 -0.4187 0.8126
vn 0.4120 -0.1998 0.8890
vn 0.1315 -0.8170 0.5614
vn 0.3764 -0.4493 0.8102
vn -0.1325 -0.2472 0.9599
vn 0.2531 -0.7907 0.5575
vn 0.3606 -0.7741 0.5203
vn 0.0421 -0.8256 0.5627
vn 0.2120 -0.9683 0.1322
vn 0.0326 -0.8587 0.5114
vn 0.1081 -0.9823 0.1532
vn 0.0200 -0.9916 0.1280
vn 0.0073 -0.9997 0.0243
vn 0.0843 -0.9439 -0.3194
vn 0.0123 -0.9412 -0.3376
vn -0.0094 -0.9998 -0.0189
vn -0.0041 -0.9010 -0.4338
vn -0.0222 -0.8937 -0.4481
vn -0.0038 -0.6082 -0.7938
vn -0.0136 -0.5760 -0.8173
vn -0.0296 -0.5781 -0.8155
vn 0.0727 -0.6774 -0.7321
vn -0.0040 0.0439 -0.9990
vn 0.1790 -0.8838 -0.4322
vn 0.2996 -0.9488 0.1005
vn 0.0168 -0.0421 -0.9990
vn 0.2094 -0.9723 0.1041
vn -0.0219 0.0596 -0.9980
vn 0.2801 -0.8088 0.5171
vn 0.1749 -0.8803 -0.4409
vn -0.3186 -0.9297 0.1846
vn -0.2149 -0.8234 0.5251
vn -0.1290 -0.4884 0.8630
vn -0.6968 -0.3934 0.5998
vn -0.7366 -0.1931 0.6482
vn -0.6800 -0.6359 0.3650
vn -0.5817 -0.3829 0.7176
vn -0.5713 -0.1202 0.8119
vn -0.7234 -0.6637 0.1900
vn -0.0561 -0.3914 0.9185
vn -0.0472 -0.0900 0.9948
vn -0.5115 -0.7694 0.3826
vn -0.0428 -0.8998 0.4343
vn -0.2482 -0.4358 0.8651
vn -0.1826 -0.1225 0.9755
vn -0.4435 -0.8893 0.1118
vn -0.0320 -0.9103 0.4128
vn -0.0223 -0.9997 -0.0019
vn -0.3958 -0.8785 0.2675
vn -0.4861 -0.3976 0.7782
vn -0.5201 -0.3133 0.7946
vn -0.2738 -0.8774 0.3939
vn -0.8653 -0.2999 0.4016
vn -0.7642 -0.2948 0.5737
vn -0.5900 -0.7075 0.3891
vn -0.1771 -0.9837 0.0306
vn -0.7821 -0.5507 0.2916
vn -0.7771 -0.5201 0.3545
vn -0.4792 -0.8675 0.1334
vn -0.6873 -0.6878 0.2336
vn -0.5108 -0.7088 0.4865
vn -0.5532 -0.5504 0.6253
vn -0.0938 -0.9256 0.3667
vn -0.2321 -0.8786 0.4174
vn -0.2882 -0.6840 0.6701
vn -0.1171 -0.9407 0.3183
vn -0.1126 -0.8147 0.5689
vn -0.0475 -0.8371 0.5450
vn -0.1305 -0.8215 0.5550
vn -0.5122 -0.7545 0.4104
vn -0.4907 -0.8522 -0.1815
vn -0.1092 -0.9685 -0.2240
vn -0.6943 -0.7156 -0.0762
vn -0.2207 -0.5372 0.8141
vn -0.6020 0.0394 0.7975
vn -0.0514 -0.9858 -0.1601
vn 0.2195 -0.7749 -0.5927
vn -0.1854 -0.9541 -0.2354
vn -0.0878 -0.9575 -0.2747
vn -0.0084 -0.7805 -0.6251
vn 0.1189 -0.7997 -0.5885
vn -0.2072 -0.7915 -0.5750
vn 0.1953 -0.6794 -0.7073
vn 0.1398 -0.6376 -0.7576
vn 0.3322 -0.7598 -0.5589
vn 0.1732 -0.0288 -0.9845
vn 0.2377 -0.8378 -0.4915
vn 0.4529 -0.2844 -0.8450
vn 0.3382 -0.7713 -0.5392
vn 0.5203 -0.4000 -0.7545
vn 0.4735 0.4600 -0.7511
vn 0.4859 0.4767 -0.7326
vn 0.7488 -0.3260 -0.5771
vn 0.0059 -0.8708 -0.4917
vn 0.5169 -0.4435 -0.7322
vn 0.7537 0.3071 -0.5811
vn 0.0601 -0.8609 -0.5052
vn -0.4127 -0.4369 -0.7992
vn -0.1295 -0.8720 -0.4720
vn -0.5514 -0.4517 -0.7014
vn 0.5238 0.4287 -0.7361
vn -0.4068 0.4290 -0.8065
vn -0.5503 0.4245 -0.7190
vn 0.2474 0.8400 -0.4828
vn 0.0187 0.8771 -0.4799
vn 0.6049 0.3721 -0.7040
vn 0.3755 0.6907 -0.6180
vn 0.5939 -0.4210 -0.6857
vn 0.4677 -0.4436 -0.7645
vn 0.1833 0.6123 -0.7691
vn 0.2277 0.7539 -0.6163
vn 0.0939 0.8149 -0.5719
vn 0.0401 0.8714 -0.4889
vn 0.4622 0.4313 -0.7748
vn -0.5588 0.4360 -0.7054
vn -0.1634 0.8696 -0.4660
vn -0.5552 -0.4381 -0.7070
vn -0.7316 0.3736 -0.5702
vn -0.7335 -0.3589 -0.5773
vn -0.0155 0.7990 -0.6011
vn -0.1422 -0.8563 -0.4965
vn 0.2646 0.3417 -0.9018
vn 0.3026 -0.3703 -0.8782
vn 0.1373 -0.4602 -0.8772
vn -0.3253 -0.8908 -0.3173
vn -0.1158 0.8482 -0.5168
vn 0.1552 0.3945 -0.9057
vn -0.6410 -0.5035 -0.5793
vn -0.4072 -0.7292 -0.5500
vn -0.6503 0.4210 -0.6323
vn -0.5466 -0.6215 -0.5612
vn -0.3788 -0.8760 -0.2984
vn -0.7307 -0.5787 -0.3622
vn -0.3479 -0.9035 -0.2504
vn -0.2793 0.8986 -0.3384
vn -0.7699 0.4540 -0.4485
vn -0.2162 -0.8163 -0.5356
vn -0.5127 -0.5759 -0.6368
vn -0.7189 -0.4451 -0.5339
vn -0.7139 -0.5062 -0.4839
vn -0.7007 0.5127 -0.4962
vn -0.0236 -0.5374 -0.8430
vn -0.6911 0.5673 -0.4479
vn -0.0296 0.7043 -0.7093
vn -0.0543 0.4986 -0.8651
vn -0.3580 0.8896 -0.2837
vn -0.3673 0.8987 -0.2396
vn -0.5150 0.5393 -0.6663
vn -0.6827 0.7210 -0.1184
vn -0.1989 0.5932 0.7801
vn -0.4994 0.6562 -0.5657
vn -0.5174 0.6010 0.6092
vn -0.3352 0.7436 -0.5786
vn -0.5125 0.8329 -0.2088
vn -0.2518 0.7241 0.6421
vn -0.1801 0.7685 -0.6140
vn -0.3233 0.9029 -0.2833
vn -0.0913 0.8378 0.5384
vn -0.0997 0.9657 -0.2397
vn -0.4432 0.7532 0.4860
vn -0.7385 0.5702 0.3599
vn -0.1724 0.8962 0.4089
vn -0.0376 0.8533 0.5200
vn -0.6173 0.7441 0.2554
vn -0.0552 0.9931 -0.1037
vn -0.1130 0.7808 0.6145
vn -0.0512 0.9464 0.3189
vn -0.1811 0.9829 0.0336
vn -0.1372 0.9574 -0.2541
vn -0.2162 0.7705 0.5997
vn -0.1182 0.9452 0.3043
vn 0.1747 0.8649 -0.4706
vn -0.5082 0.7525 0.4189
vn -0.0245 0.9997 -0.0080
vn -0.3898 0.8856 0.2526
vn -0.3246 0.9354 0.1404
vn -0.7177 0.6708 0.1869
vn -0.4338 0.8955 0.0994
vn -0.0465 0.9022 0.4289
vn -0.6835 0.6363 0.3576
vn -0.5151 0.7649 0.3869
vn -0.5666 0.4073 0.7163
vn -0.2432 0.8900 0.3857
vn -0.6968 0.4115 0.5875
vn -0.5821 0.7396 0.3379
vn -0.0543 0.4169 0.9073
vn -0.7693 0.4120 0.4883
vn -0.7524 0.2690 0.6013
vn -0.4894 0.2601 0.8323
vn -0.5207 0.4378 0.7329
vn -0.2252 0.4564 0.8608
vn -0.1906 0.2066 0.9597
vn -0.0446 0.1654 0.9852
vn -0.5716 0.1975 0.7964
vn -0.7379 0.2435 0.6294
vn -0.1431 0.2894 0.9465
vn -0.1330 0.5109 0.8493
vn -0.2206 0.8426 0.4913
vn 0.3742 0.4733 0.7974
vn 0.4114 0.2313 0.8816
vn 0.2686 0.8384 0.4742
vn 0.3812 0.4371 0.8147
vn 0.3769 0.1833 0.9080
vn 0.1978 0.9792 0.0451
vn 0.3287 0.8095 0.4864
vn 0.1901 0.3872 0.9022
vn 0.1839 0.1428 0.9725
vn 0.1134 0.0989 0.9886
vn 0.1974 0.8473 0.4931
vn 0.2567 0.9645 0.0627
vn 0.0904 0.3532 0.9311
vn 0.0909 0.1168 0.9890
vn 0.0478 -0.0363 0.9982
vn 0.0715 0.7934 0.6045
vn 0.1057 0.9944 -0.0010
vn 0.1659 0.8636 -0.4760
vn 0.0313 0.3181 0.9475
vn 0.0210 0.0188 0.9996
vn 0.0466 0.5052 -0.8617
vn 0.1368 0.9040 -0.4050
vn 0.1323 0.5568 -0.8201
vn 0.1353 -0.0476 -0.9897
vn 0.0597 0.6745 -0.7359
vn -0.0014 0.6555 -0.7552
vn 0.0285 0.9426 -0.3327
vn -0.0194 0.6811 -0.7319
vn 0.0378 0.9910 0.1287
vn -0.0145 0.9449 -0.3270
vn 0.0149 0.9879 0.1542
vn 0.0335 0.7961 0.6042
vn 0.0116 0.7875 0.6162
vn -0.0088 0.9940 0.1092
vn 0.0192 0.3217 0.9466
vn -0.0248 0.0474 0.9986
vn 0.0028 0.8142 0.5805
vn -0.0243 0.3548 0.9346
vn -0.1907 0.0745 0.9788
vn -0.0166 0.9969 0.0766
vn -0.0327 0.8304 0.5562
vn -0.1937 0.3745 0.9068
vn -0.1498 0.0872 0.9849
vn -0.0240 0.9394 -0.3420
vn -0.0452 0.9970 0.0628
vn -0.1836 0.8273 0.5310
vn -0.1489 0.3779 0.9138
vn 0.2481 0.0884 0.9647
vn 0.4893 0.3400 0.8031
vn 0.4876 0.0807 0.8693
vn 0.2492 0.3673 0.8961
vn 0.4607 0.7370 0.4946
vn 0.2368 0.8069 0.5412
vn -0.1354 0.8287 0.5431
vn -0.1293 0.9891 0.0703
vn 0.2137 0.9736 0.0802
vn 0.4214 0.9040 0.0726
vn 0.3966 0.8745 -0.2794
vn -0.1769 0.9825 0.0593
vn 0.1926 0.9332 -0.3035
vn 0.4396 0.6628 -0.6062
vn -0.0512 0.9400 -0.3373
vn -0.1803 0.9317 -0.3153
vn -0.1373 0.9397 -0.3133
vn -0.0307 0.6824 -0.7303
vn -0.0635 0.6979 -0.7134
vn -0.2069 0.7115 -0.6715
vn -0.0361 0.0644 -0.9973
vn -0.0801 0.0840 -0.9932
vn -0.1523 0.7138 -0.6835
vn -0.2454 0.1181 -0.9622
vn -0.0815 -0.5701 -0.8175
vn -0.1641 0.1300 -0.9778
vn -0.2371 -0.5413 -0.8067
vn 0.2200 0.7056 -0.6736
vn -0.1571 -0.5310 -0.8327
vn 0.2666 0.1237 -0.9558
vn 0.5127 0.1028 -0.8524
vn 0.2618 -0.5240 -0.8105
vn 0.9984 0.0116 0.0549
vn 0.9107 0.4086 -0.0604
vn 0.9387 0.3158 -0.1382
vn 0.9761 0.0529 -0.2109
vn 0.9109 0.4114 0.0303
vn 0.9538 -0.2352 -0.1872
vn 0.9219 0.3295 0.2040
vn 0.9298 -0.3514 -0.1091
vn 0.9308 0.1419 0.3369
vn 0.9246 -0.3809 0.0051
vn 0.9319 -0.0510 0.3592
vn 0.9236 -0.3497 0.1573
vn 0.9288 -0.2272 0.2928
vn 0.0939 -0.3638 -0.9267
vt 0.457275 -0.645508
vt 0.461426 -0.642090
vt 0.459717 -0.636719
vt 0.453857 -0.637207
vt 0.545410 -0.645508
vt 0.544922 -0.650391
vt 0.550293 -0.650391
vt 0.551270 -0.645996
vt 0.522949 -0.420898
vt 0.523438 -0.448486
vt 0.530273 -0.449463
vt 0.528809 -0.421875
vt 0.529297 -0.645996
vt 0.523926 -0.639648
vt 0.520996 -0.642578
vt 0.522461 -0.648926
vt 0.559082 -0.622559
vt 0.557617 -0.628906
vt 0.563477 -0.631836
vt 0.567383 -0.623535
vt 0.465820 -0.637207
vt 0.464111 -0.629395
vt 0.458008 -0.627930
vt 0.480469 -0.626953
vt 0.466553 -0.620605
vt 0.466064 -0.624023
vt 0.477783 -0.629883
vt 0.529785 -0.659668
vt 0.529785 -0.675293
vt 0.536621 -0.669434
vt 0.537109 -0.657715
vt 0.537598 -0.621582
vt 0.525879 -0.626953
vt 0.528809 -0.629883
vt 0.538574 -0.625000
vt 0.503418 -0.656738
vt 0.498779 -0.653809
vt 0.494629 -0.655273
vt 0.498779 -0.660645
vt 0.548828 -0.619141
vt 0.547852 -0.613281
vt 0.536133 -0.615234
vt 0.487793 -0.659180
vt 0.487061 -0.653320
vt 0.485107 -0.653320
vt 0.484619 -0.658691
vt 0.494629 -0.419678
vt 0.503418 -0.419678
vt 0.503906 -0.393311
vt 0.494629 -0.393311
vt 0.503418 -0.630371
vt 0.498535 -0.627441
vt 0.499023 -0.633301
vt 0.503906 -0.632812
vt 0.503906 -0.628418
vt 0.504395 -0.624023
vt 0.502930 -0.624023
vt 0.503418 -0.628418
vt 0.468506 -0.651367
vt 0.462402 -0.649902
vt 0.463623 -0.654785
vt 0.468994 -0.656738
vt 0.503906 -0.380127
vt 0.510742 -0.380371
vt 0.510742 -0.371094
vt 0.503906 -0.370850
vt 0.537598 -0.645996
vt 0.528809 -0.653809
vt 0.476074 -0.382324
vt 0.468262 -0.383789
vt 0.468994 -0.397461
vt 0.476562 -0.395264
vt 0.508301 -0.637207
vt 0.508301 -0.633301
vt 0.504395 -0.634277
vt 0.503906 -0.636719
vt 0.503418 -0.642578
vt 0.499268 -0.642090
vt 0.499756 -0.646484
vt 0.503418 -0.645996
vt 0.522949 -0.636230
vt 0.524902 -0.636230
vt 0.454590 -0.592773
vt 0.456787 -0.583008
vt 0.450684 -0.581055
vt 0.447510 -0.589844
vt 0.475098 -0.638184
vt 0.467529 -0.645508
vt 0.478271 -0.648926
vt 0.460449 -0.569336
vt 0.455078 -0.569824
vt 0.512695 -0.625000
vt 0.512207 -0.634277
vt 0.463379 -0.584473
vt 0.466309 -0.568848
vt 0.541504 -0.630371
vt 0.539551 -0.637695
vt 0.547852 -0.636719
vt 0.549316 -0.627930
vt 0.510742 -0.393311
vt 0.518555 -0.393555
vt 0.518555 -0.380859
vt 0.504395 -0.656738
vt 0.503906 -0.656738
vt 0.512207 -0.655273
vt 0.512695 -0.661621
vt 0.519043 -0.659668
vt 0.520020 -0.653320
vt 0.476562 -0.449219
vt 0.477783 -0.420898
vt 0.471436 -0.421631
vt 0.469727 -0.449707
vt 0.503418 -0.538086
vt 0.511230 -0.538086
vt 0.510254 -0.490234
vt 0.503418 -0.489990
vt 0.503906 -0.652344
vt 0.503418 -0.652344
vt 0.495361 -0.370850
vt 0.503906 -0.364258
vt 0.495850 -0.364258
vt 0.461426 -0.595703
vt 0.558594 -0.610840
vt 0.560059 -0.618164
vt 0.569824 -0.617676
vt 0.566895 -0.607910
vt 0.459961 -0.385742
vt 0.462158 -0.399902
vt 0.540039 -0.373047
vt 0.545898 -0.374023
vt 0.544434 -0.366211
vt 0.539551 -0.365723
vt 0.556152 -0.601562
vt 0.563477 -0.598145
vt 0.548340 -0.654785
vt 0.550293 -0.655762
vt 0.553223 -0.651367
vt 0.494873 -0.380371
vt 0.476318 -0.372314
vt 0.481445 -0.381348
vt 0.481689 -0.371826
vt 0.468994 -0.373047
vt 0.461914 -0.374023
vt 0.534668 -0.606934
vt 0.545410 -0.595215
vt 0.532715 -0.584473
vt 0.522461 -0.607422
vt 0.473145 -0.633301
vt 0.494385 -0.447510
vt 0.502930 -0.447266
vt 0.509277 -0.447510
vt 0.509766 -0.419922
vt 0.503418 -0.634277
vt 0.503418 -0.636719
vt 0.503906 -0.630371
vt 0.499268 -0.637207
vt 0.494873 -0.632324
vt 0.495361 -0.638184
vt 0.473877 -0.568359
vt 0.471924 -0.584473
vt 0.484131 -0.583496
vt 0.485107 -0.567871
vt 0.532227 -0.638184
vt 0.525879 -0.491211
vt 0.528809 -0.539062
vt 0.538574 -0.540039
vt 0.534180 -0.491943
vt 0.546875 -0.605957
vt 0.469238 -0.606934
vt 0.470459 -0.596191
vt 0.459961 -0.605957
vt 0.481445 -0.448730
vt 0.479248 -0.491699
vt 0.488037 -0.490723
vt 0.488525 -0.447754
vt 0.524902 -0.617676
vt 0.508789 -0.620605
vt 0.508789 -0.627441
vt 0.493896 -0.625000
vt 0.484375 -0.634766
vt 0.539062 -0.397949
vt 0.545898 -0.399902
vt 0.547852 -0.385742
vt 0.540039 -0.384033
vt 0.520020 -0.648926
vt 0.521973 -0.653320
vt 0.452393 -0.602539
vt 0.450195 -0.611328
vt 0.458984 -0.613281
vt 0.524902 -0.678711
vt 0.522461 -0.658691
vt 0.482666 -0.639160
vt 0.484619 -0.648926
vt 0.518066 -0.371338
vt 0.517578 -0.364502
vt 0.510742 -0.364258
vt 0.481445 -0.394287
vt 0.488037 -0.393555
vt 0.488770 -0.380615
vt 0.465820 -0.421387
vt 0.463623 -0.449951
vt 0.541504 -0.492676
vt 0.538086 -0.449951
vt 0.458496 -0.619141
vt 0.458008 -0.622559
vt 0.557617 -0.645020
vt 0.511719 -0.638672
vt 0.518066 -0.490479
vt 0.517090 -0.447754
vt 0.495605 -0.645996
vt 0.486572 -0.645020
vt 0.495361 -0.649902
vt 0.483643 -0.607422
vt 0.481445 -0.617676
vt 0.493408 -0.614746
vt 0.491943 -0.606445
vt 0.536621 -0.422119
vt 0.541992 -0.421387
vt 0.485596 -0.638672
vt 0.499512 -0.650391
vt 0.517090 -0.420166
vt 0.502930 -0.616211
vt 0.503418 -0.607422
vt 0.482178 -0.420410
vt 0.488770 -0.419678
vt 0.461914 -0.645020
vt 0.448975 -0.618164
vt 0.449707 -0.622559
vt 0.457275 -0.646973
vt 0.454590 -0.651367
vt 0.459961 -0.654297
vt 0.469727 -0.365723
vt 0.476074 -0.365234
vt 0.511230 -0.645996
vt 0.511719 -0.649902
vt 0.507324 -0.646484
vt 0.507812 -0.650391
vt 0.478271 -0.675293
vt 0.477539 -0.659180
vt 0.471191 -0.669434
vt 0.503418 -0.624512
vt 0.466797 -0.492676
vt 0.457031 -0.540039
vt 0.468994 -0.540039
vt 0.493652 -0.538086
vt 0.494385 -0.490234
vt 0.491943 -0.583496
vt 0.503418 -0.567383
vt 0.450195 -0.645020
vt 0.457520 -0.655762
vt 0.503906 -0.688477
vt 0.482910 -0.678711
vt 0.498291 -0.620605
vt 0.503906 -0.616211
vt 0.503906 -0.638184
vt 0.512695 -0.612793
vt 0.504395 -0.642578
vt 0.507812 -0.642090
vt 0.503906 -0.640625
vt 0.503418 -0.647949
vt 0.504395 -0.645996
vt 0.503906 -0.647949
vt 0.503418 -0.650879
vt 0.503906 -0.650879
vt 0.494629 -0.661621
vt 0.503418 -0.687500
vt 0.503418 -0.667480
vt 0.508301 -0.660645
vt 0.503906 -0.667969
vt 0.508789 -0.654297
vt 0.503906 -0.687500
vt 0.553711 -0.592285
vt 0.560547 -0.589844
vt 0.557129 -0.581055
vt 0.547852 -0.569336
vt 0.553223 -0.569824
vt 0.550781 -0.540039
vt 0.541016 -0.568848
vt 0.544434 -0.449951
vt 0.512695 -0.605957
vt 0.522461 -0.595703
vt 0.503418 -0.595215
vt 0.512207 -0.583496
vt 0.512207 -0.595215
vt 0.520996 -0.567871
vt 0.530762 -0.568359
vt 0.578613 -0.649414
vt 0.586426 -0.664551
vt 0.594727 -0.659668
vt 0.578613 -0.669434
vt 0.594727 -0.649902
vt 0.569336 -0.663574
vt 0.594238 -0.640137
vt 0.562988 -0.659668
vt 0.584961 -0.634277
vt 0.562988 -0.647949
vt 0.578613 -0.630371
vt 0.562988 -0.640137
vt 0.570801 -0.635254
vt 0.172241 -0.193848
vt 0.179077 -0.203735
vt 0.179443 -0.194580
vt 0.463379 -0.366211
vt 0.481689 -0.364990
vt 0.490479 -0.364502
vt 0.489502 -0.371338
vt 0.524902 -0.371826
vt 0.524902 -0.364746
vt 0.531250 -0.372314
vt 0.531738 -0.365234
vt 0.524902 -0.381348
vt 0.530762 -0.382324
vt 0.530273 -0.395752
vt 0.524414 -0.394287
vt 0.468018 -0.614746
vt 0.549316 -0.622559
vt 0.554688 -0.637695
vt 0.560547 -0.638672
vt 0.534180 -0.633301
vt 0.478516 -0.653320
vt 0.451172 -0.628418
vt 0.440430 -0.623535
vt 0.444336 -0.631836
vt 0.437988 -0.617676
vt 0.441162 -0.607910
vt 0.444336 -0.598145
vt 0.447266 -0.638672
s 1
g off
g arm_1_dr_Material
usemtl Material
f 85/1/83 88/2/86 84/3/82 81/4/79
f 224/5/222 226/6/224 231/7/229 232/8/230
f 284/9/282 279/10/277 276/11/274 280/12/278
f 208/13/206 207/14/205 200/15/198 204/16/202
f 225/17/223 223/18/221 235/19/233 236/20/234
f 89/21/87 87/22/85 83/23/81 84/3/82
f 113/24/111 72/25/70 80/26/78 111/27/109
f 201/28/199 193/29/191 202/30/200 205/31/203
f 217/32/215 210/33/208 214/34/212 218/35/216
f 178/36/176 173/37/171 172/38/170 175/39/173
f 217/32/215 239/40/237 242/41/240 245/42/243
f 114/43/112 112/44/110 108/45/106 106/46/104
f 311/47/309 308/48/306 310/49/308 313/50/311
f 136/51/134 128/52/126 135/53/133 139/54/137
f 137/55/135 133/56/131 130/57/128 134/58/132
f 100/59/98 96/60/94 98/61/96 101/62/99
f 312/63/310 309/64/307 314/65/312 316/66/314
f 209/67/207 203/68/201 201/28/199 205/31/203
f 14/69/12 11/70/9 12/71/10 19/72/17
f 154/73/152 146/74/144 144/75/142 147/76/145
f 160/77/158 140/78/138 162/79/160 164/80/162
f 210/33/208 206/81/204 211/82/209 214/34/212
f 39/83/37 36/84/34 34/85/32 37/86/35
f 107/87/105 89/21/87 97/88/95 104/89/102
f 36/84/34 32/90/30 33/91/31 34/85/32
f 152/92/150 153/93/151 206/81/204 210/33/208
f 36/84/34 44/94/42 49/95/47 32/90/30
f 219/96/217 215/97/213 220/98/218 222/99/220
f 309/64/307 306/100/304 302/101/300 303/102/301
f 185/103/183 178/36/176 183/36/181 186/104/184
f 192/105/190 189/106/187 190/107/188 195/108/193
f 28/109/26 25/110/23 23/111/21 26/112/24
f 64/113/62 265/114/263 267/115/265 69/116/67
f 177/117/175 174/118/172 178/36/176 185/103/183
f 318/119/316 316/66/314 317/120/315 21/121/19
f 44/94/42 36/84/34 39/83/37 47/122/45
f 240/123/238 238/124/236 237/125/235 241/126/239
f 12/71/10 11/70/9 8/127/6 13/128/11
f 290/129/288 287/130/285 289/131/287 288/132/286
f 243/133/241 240/123/238 241/126/239 244/134/242
f 228/135/226 229/136/227 230/137/228 231/7/229
f 313/50/311 310/49/308 312/63/310 315/138/313
f 9/139/7 14/69/12 18/140/16 15/141/13
f 7/142/5 4/143/2 8/127/6 11/70/9
f 251/144/249 250/145/248 256/146/254 257/147/255
f 80/26/78 87/22/85 90/148/88 111/27/109
f 62/149/60 307/150/305 308/48/306 311/47/309
f 308/48/306 307/150/305 304/151/302 305/152/303
f 147/76/145 144/75/142 141/153/139 149/154/147
f 318/119/316 315/138/313 312/63/310 316/66/314
f 136/51/134 139/54/137 143/54/141 142/155/140
f 138/156/136 135/53/133 122/157/120 121/158/119
f 53/159/51 52/160/50 55/161/53 56/162/54
f 215/97/213 212/163/210 208/13/206 209/67/207
f 273/164/271 270/165/268 271/166/269 272/167/270
f 245/42/243 242/41/240 246/168/244 251/144/249
f 66/169/64 50/170/48 47/122/45 48/171/46
f 57/172/55 54/173/52 58/174/56 59/175/57
f 213/176/211 245/42/243 251/144/249 257/147/255
f 152/92/150 148/177/146 133/56/131 145/178/143
f 122/157/120 118/179/116 113/24/111 117/180/115
f 281/181/279 278/182/276 282/183/280 286/184/284
f 198/185/196 195/108/193 199/186/197 204/16/202
f 48/171/46 42/187/40 45/188/43 70/189/68
f 190/107/188 191/190/189 193/29/191 196/191/194
f 110/192/108 107/87/105 104/89/102 109/193/107
f 145/178/143 146/74/144 153/93/151 152/92/150
f 207/14/205 208/13/206 212/163/210 211/82/209
f 299/194/297 297/195/295 300/196/298 314/65/312
f 18/140/16 35/197/33 38/198/36 22/199/20
f 310/49/308 308/48/306 305/152/303 306/100/304
f 26/112/24 23/111/21 24/200/22 27/201/25
f 276/11/274 272/167/270 258/202/256 274/203/272
f 72/25/70 73/204/71 77/205/75 80/26/78
f 233/206/231 232/8/230 231/7/229 230/137/228
f 161/207/159 200/15/198 206/81/204 153/93/151
f 226/6/224 224/5/222 209/67/207 205/31/203
f 304/151/302 267/115/265 269/208/267 283/209/281
f 123/210/121 119/211/117 112/44/110 170/212/168
f 65/213/63 71/214/69 124/215/122 125/216/123
f 90/148/88 87/22/85 89/21/87 107/87/105
f 277/217/275 275/218/273 278/182/276 281/181/279
f 121/158/119 120/219/118 119/211/117 123/210/121
f 166/220/164 162/79/160 123/210/121 170/212/168
f 316/66/314 314/65/312 300/196/298 317/120/315
f 306/100/304 305/152/303 301/221/299 302/101/300
f 129/222/127 127/223/125 125/216/123 124/215/122
f 195/108/193 190/107/188 196/191/194 199/186/197
f 31/224/29 57/172/55 59/175/57 41/225/39
f 97/88/95 93/226/91 96/60/94 100/59/98
f 73/204/71 74/227/72 75/228/73 77/205/75
f 204/16/202 199/186/197 203/68/201 208/13/206
f 96/60/94 91/229/89 92/230/90 94/231/92
f 145/178/143 142/155/140 143/54/141 146/74/144
f 202/30/200 228/135/226 226/6/224 205/31/203
f 93/226/91 85/1/83 91/229/89 96/60/94
f 22/199/20 38/198/36 313/50/311 315/138/313
f 6/232/4 7/142/5 9/139/7 10/233/8
f 80/26/78 77/205/75 83/23/81 87/22/85
f 197/234/195 194/235/192 198/185/196 200/15/198
f 197/234/195 167/236/165 176/237/174 194/235/192
f 103/238/101 102/239/100 101/62/99 99/240/97
f 1/56/1 3/241/1 2/57/1
f 269/208/267 273/164/271 279/10/277 283/209/281
f 27/201/25 29/242/27 26/112/24
f 26/112/24 29/242/27 28/109/26
f 29/242/27 27/201/25 30/243/28
f 30/243/28 32/90/30 29/242/27
f 32/90/30 30/243/28 33/91/31
f 32/90/30 49/95/47 51/244/49
f 29/242/27 32/90/30 51/244/49
f 29/242/27 51/244/49 28/109/26
f 53/159/51 51/244/49 49/95/47
f 54/173/52 28/109/26 51/244/49
f 51/244/49 53/159/51 54/173/52
f 50/170/48 55/161/53 52/160/50
f 28/109/26 54/173/52 57/172/55
f 60/245/58 58/174/56 56/162/54
f 58/174/56 60/245/58 61/246/59
f 56/162/54 63/247/61 60/245/58
f 63/247/61 56/162/54 55/161/53
f 50/170/48 65/213/63 55/161/53
f 66/169/64 65/213/63 50/170/48
f 60/245/58 63/247/61 67/248/65
f 60/245/58 67/248/65 64/113/62
f 125/216/123 63/247/61 55/161/53 65/213/63
f 86/249/84 91/229/89 85/1/83
f 92/230/90 91/229/89 86/249/84
f 85/1/83 93/226/91 88/2/86
f 92/230/90 95/250/93 94/231/92
f 97/88/95 88/2/86 93/226/91
f 95/250/93 98/61/96 94/231/92
f 94/231/92 98/61/96 96/60/94
f 98/61/96 95/250/93 99/240/97
f 99/240/97 101/62/99 98/61/96
f 103/238/101 106/46/104 102/239/100
f 107/87/105 111/27/109 90/148/88
f 108/45/106 112/44/110 109/193/107
f 116/251/114 114/43/112 115/252/113
f 111/27/109 117/180/115 113/24/111
f 109/193/107 119/211/117 110/192/108
f 119/211/117 109/193/107 112/44/110
f 117/180/115 110/192/108 120/219/118
f 110/192/108 119/211/117 120/219/118
f 118/179/116 126/253/124 124/215/122
f 125/216/123 127/223/125 63/247/61
f 124/215/122 126/253/124 129/222/127
f 126/253/124 130/57/128 129/222/127
f 131/241/129 129/222/127 130/57/128
f 129/222/127 132/254/130 127/223/125
f 130/57/128 128/52/126 134/58/132
f 128/52/126 136/51/134 134/58/132
f 121/158/119 140/78/138 138/156/136
f 121/158/119 123/210/121 140/78/138
f 139/54/137 135/53/133 141/153/139
f 142/155/140 145/178/143 137/55/135
f 137/55/135 145/178/143 133/56/131
f 146/74/144 143/54/141 144/75/142
f 132/254/130 133/56/131 148/177/146
f 149/154/147 138/156/136 150/255/148
f 151/256/149 132/254/130 148/177/146
f 132/254/130 151/256/149 127/223/125
f 154/73/152 147/76/145 155/255/153
f 159/257/157 157/258/155 156/259/154
f 158/259/156 140/78/138 160/77/158
f 161/207/159 154/73/152 157/258/155
f 123/210/121 162/79/160 140/78/138
f 164/80/162 162/79/160 165/260/163
f 167/236/165 163/261/161 168/262/166
f 112/44/110 172/38/170 170/212/168
f 166/220/164 174/118/172 169/263/167
f 176/237/174 171/264/169 177/117/175
f 175/39/173 172/38/170 179/265/177
f 114/43/112 180/266/178 179/265/177
f 114/43/112 116/251/114 180/266/178
f 179/265/177 181/267/179 175/39/173
f 181/267/179 179/265/177 180/266/178
f 181/267/179 178/36/176 175/39/173
f 178/36/176 181/267/179 183/36/181
f 186/104/184 188/268/186 185/103/183
f 188/268/186 186/104/184 184/269/182
f 187/270/185 185/103/183 188/268/186
f 182/271/180 189/106/187 184/269/182
f 188/268/186 184/269/182 189/106/187
f 116/251/114 190/107/188 182/271/180
f 182/271/180 190/107/188 189/106/187
f 191/190/189 190/107/188 116/251/114
f 197/234/195 157/258/155 167/236/165
f 157/258/155 197/234/195 161/207/159
f 197/234/195 200/15/198 161/207/159
f 193/29/191 201/28/199 196/191/194
f 204/16/202 200/15/198 198/185/196
f 207/14/205 206/81/204 200/15/198
f 203/68/201 209/67/207 208/13/206
f 206/81/204 207/14/205 211/82/209
f 213/176/211 152/92/150 210/33/208
f 228/135/226 202/30/200 229/136/227
f 226/6/224 228/135/226 231/7/229
f 247/272/245 248/273/246 249/274/247
f 246/168/244 250/145/248 251/144/249
f 249/274/247 252/275/250 247/272/245
f 252/275/250 249/274/247 253/276/251
f 252/275/250 253/276/251 254/277/252
f 250/145/248 255/278/253 256/146/254
f 252/275/250 254/277/252 258/202/256
f 259/279/257 258/202/256 254/277/252
f 151/256/149 260/280/258 127/223/125
f 257/147/255 256/146/254 261/281/259
f 63/247/61 127/223/125 263/282/261
f 63/247/61 263/282/261 67/248/65
f 264/283/262 263/282/261 262/284/260
f 263/282/261 264/283/262 67/248/65
f 261/281/259 264/283/262 262/284/260
f 265/114/263 67/248/65 264/283/262
f 67/248/65 265/114/263 64/113/62
f 265/114/263 264/283/262 266/285/264
f 268/286/266 266/285/264 256/146/254
f 255/278/253 268/286/266 256/146/254
f 266/285/264 269/208/267 265/114/263
f 267/115/265 265/114/263 269/208/267
f 270/165/268 266/285/264 268/286/266
f 266/285/264 270/165/268 269/208/267
f 271/166/269 255/278/253 252/275/250
f 252/275/250 258/202/256 271/166/269
f 272/167/270 271/166/269 258/202/256
f 273/164/271 269/208/267 270/165/268
f 258/202/256 259/279/257 274/203/272
f 255/278/253 250/145/248 247/272/245 252/275/250
f 9/139/7 7/142/5 11/70/9 14/69/12
f 319/287/317 321/288/319 320/289/318
f 321/288/319 319/287/317 322/290/320
f 323/291/321 319/287/317 320/289/318
f 319/287/317 324/292/322 322/290/320
f 319/287/317 323/291/321 325/293/323
f 324/292/322 319/287/317 326/294/324
f 327/295/325 319/287/317 325/293/323
f 326/294/324 319/287/317 328/296/326
f 319/287/317 327/295/325 329/297/327
f 319/287/317 330/298/328 328/296/326
f 331/299/329 319/287/317 329/297/327
f 319/287/317 331/299/329 330/298/328
f 135/53/133 128/52/126 118/179/116 122/157/120
f 71/214/69 113/24/111 118/179/116 124/215/122
f 49/95/47 44/94/42 52/160/50 53/159/51
f 62/149/60 61/246/59 69/116/67 307/150/305
f 44/94/42 47/122/45 50/170/48 52/160/50
f 332/300/330 333/301/330 334/302/330
f 6/232/4 5/303/3 4/143/2 7/142/5
f 10/233/8 9/139/7 15/141/13 16/304/14
f 17/305/15 16/304/14 15/141/13 20/306/18
f 318/119/316 21/121/19 17/305/15 20/306/18
f 35/197/33 18/140/16 14/69/12 19/72/17
f 23/111/21 12/71/10 13/128/11 24/200/22
f 309/64/307 303/102/301 299/194/297 314/65/312
f 295/307/293 296/308/294 297/195/295 299/194/297
f 295/307/293 292/309/290 291/310/289 296/308/294
f 303/102/301 294/311/292 295/307/293 299/194/297
f 312/63/310 310/49/308 306/100/304 309/64/307
f 292/309/290 290/129/288 288/132/286 291/310/289
f 286/184/284 282/183/280 287/130/285 290/129/288
f 286/184/284 290/129/288 292/309/290 293/312/291
f 285/313/283 293/312/291 294/311/292 298/314/296
f 294/311/292 293/312/291 292/309/290 295/307/293
f 285/313/283 280/12/278 277/217/275 281/181/279
f 284/9/282 280/12/278 285/313/283 298/314/296
f 301/221/299 284/9/282 298/314/296 302/101/300
f 283/209/281 279/10/277 284/9/282 301/221/299
f 279/10/277 273/164/271 272/167/270 276/11/274
f 247/272/245 243/133/241 244/134/242 248/273/246
f 270/165/268 268/286/266 255/278/253 271/166/269
f 260/280/258 257/147/255 261/281/259 262/284/260
f 302/101/300 298/314/296 294/311/292 303/102/301
f 151/256/149 213/176/211 257/147/255 260/280/258
f 250/145/248 246/168/244 243/133/241 247/272/245
f 68/315/66 66/169/64 48/171/46 70/189/68
f 242/41/240 240/123/238 243/133/241 246/168/244
f 213/176/211 210/33/208 217/32/215 245/42/243
f 239/40/237 238/124/236 240/123/238 242/41/240
f 225/17/223 236/20/234 237/125/235 238/124/236
f 239/40/237 221/316/219 225/17/223 238/124/236
f 239/40/237 217/32/215 218/35/216 221/316/219
f 227/317/225 234/318/232 235/19/233 223/18/221
f 227/317/225 220/98/218 224/5/222 232/8/230
f 221/316/219 218/35/216 219/96/217 222/99/220
f 219/96/217 216/319/214 212/163/210 215/97/213
f 218/35/216 214/34/212 216/319/214 219/96/217
f 214/34/212 211/82/209 212/163/210 216/319/214
f 188/268/186 189/106/187 192/105/190 187/270/185
f 194/235/192 176/237/174 187/270/185 192/105/190
f 115/252/113 114/43/112 106/46/104 103/238/101
f 177/117/175 185/103/183 187/270/185 176/237/174
f 172/38/170 112/44/110 114/43/112 179/265/177
f 177/117/175 171/264/169 169/263/167 174/118/172
f 168/262/166 171/264/169 176/237/174 167/236/165
f 168/262/166 165/260/163 169/263/167 171/264/169
f 173/37/171 166/220/164 170/212/168 172/38/170
f 159/257/157 163/261/161 167/236/165 157/258/155
f 163/261/161 159/257/157 160/77/158 164/80/162
f 159/257/157 156/259/154 158/259/156 160/77/158
f 156/259/154 155/255/153 150/255/148 158/259/156
f 157/258/155 154/73/152 155/255/153 156/259/154
f 147/76/145 149/154/147 150/255/148 155/255/153
f 139/54/137 141/153/139 144/75/142 143/54/141
f 137/55/135 134/58/132 136/51/134 142/155/140
f 126/253/124 118/179/116 128/52/126 130/57/128
f 71/214/69 68/315/66 72/25/70 113/24/111
f 108/45/106 105/320/103 102/239/100 106/46/104
f 104/89/102 97/88/95 100/59/98 105/320/103
f 78/321/76 81/4/79 84/3/82 83/23/81
f 78/321/76 75/228/73 76/322/74 79/323/77
f 77/205/75 75/228/73 78/321/76 83/23/81
f 76/322/74 75/228/73 74/227/72 46/324/44
f 45/188/43 43/325/41 46/324/44 74/227/72
f 74/227/72 73/204/71 70/189/68 45/188/43
f 72/25/70 68/315/66 70/189/68 73/204/71
f 42/187/40 40/326/38 43/325/41 45/188/43
f 39/83/37 37/86/35 40/326/38 42/187/40
f 25/110/23 19/72/17 12/71/10 23/111/21
f 19/72/17 25/110/23 31/224/29 35/197/33
f 41/225/39 38/198/36 35/197/33 31/224/29
f 38/198/36 41/225/39 311/47/309 313/50/311
f 66/169/64 68/315/66 71/214/69 65/213/63
f 280/12/278 276/11/274 274/203/272 277/217/275
f 47/122/45 39/83/37 42/187/40 48/171/46
f 41/225/39 59/175/57 62/149/60 311/47/309
f 117/180/115 111/27/109 107/87/105 110/192/108
f 69/116/67 267/115/265 304/151/302 307/150/305
f 20/306/18 22/199/20 315/138/313 318/119/316
f 141/153/139 135/53/133 138/156/136 149/154/147
f 266/285/264 264/283/262 261/281/259 256/146/254
f 85/1/83 81/4/79 82/327/80 86/249/84
f 109/193/107 104/89/102 105/320/103 108/45/106
f 184/269/182 186/104/184 183/36/181 181/267/179
f 174/118/172 166/220/164 173/37/171 178/36/176
f 100/59/98 101/62/99 102/239/100 105/320/103
f 165/260/163 162/79/160 166/220/164 169/263/167
f 232/8/230 233/206/231 234/318/232 227/317/225
f 61/246/59 60/245/58 64/113/62 69/116/67
f 163/261/161 164/80/162 165/260/163 168/262/166
f 127/223/125 260/280/258 262/284/260 263/282/261
f 203/68/201 199/186/197 196/191/194 201/28/199
f 221/316/219 222/99/220 223/18/221 225/17/223
f 194/235/192 192/105/190 195/108/193 198/185/196
f 117/180/115 120/219/118 121/158/119 122/157/120
f 151/256/149 148/177/146 152/92/150 213/176/211
f 25/110/23 28/109/26 57/172/55 31/224/29
f 81/4/79 78/321/76 79/323/77 82/327/80
f 220/98/218 215/97/213 209/67/207 224/5/222
f 54/173/52 53/159/51 56/162/54 58/174/56
f 15/141/13 18/140/16 22/199/20 20/306/18
f 59/175/57 58/174/56 61/246/59 62/149/60
f 305/152/303 304/151/302 283/209/281 301/221/299
f 150/255/148 138/156/136 140/78/138 158/259/156
f 293/312/291 285/313/283 281/181/279 286/184/284
f 161/207/159 153/93/151 146/74/144 154/73/152
f 89/21/87 84/3/82 88/2/86 97/88/95
f 180/266/178 182/271/180 184/269/182 181/267/179
f 133/56/131 132/254/130 129/222/127 131/241/129
f 274/203/272 259/279/257 275/218/273 277/217/275
f 223/18/221 222/99/220 220/98/218 227/317/225
